<?xml version="1.0" encoding="iso-8859-1"?>
<!-- Generator: Adobe Illustrator 19.0.0, SVG Export Plug-In . SVG Version: 6.00 Build 0)  -->
<svg version="1.1" id="Capa_1" xmlns="http://www.w3.org/2000/svg" xmlns:xlink="http://www.w3.org/1999/xlink" x="0px" y="0px"
	 viewBox="0 0 511.999 511.999" style="enable-background:new 0 0 511.999 511.999;" xml:space="preserve">
<g>
	<g>
		<path d="M352.469,79.85c-0.47-0.46-0.98-0.88-1.52-1.25c-0.55-0.36-1.13-0.66-1.73-0.91c-0.6-0.25-1.23-0.45-1.87-0.58
			c-1.29-0.26-2.62-0.26-3.91,0c-0.64,0.13-1.27,0.33-1.87,0.58c-0.6,0.25-1.18,0.55-1.73,0.91c-0.54,0.37-1.06,0.79-1.52,1.25
			c-1.86,1.86-2.93,4.44-2.93,7.07c0,0.65,0.07,1.31,0.2,1.95c0.13,0.64,0.32,1.27,0.57,1.87c0.25,0.61,0.56,1.19,0.92,1.73
			c0.36,0.55,0.78,1.06,1.24,1.52c0.46,0.46,0.98,0.88,1.52,1.24c0.55,0.36,1.13,0.67,1.73,0.92c0.6,0.25,1.23,0.44,1.87,0.57
			c0.65,0.13,1.3,0.2,1.95,0.2c0.66,0,1.31-0.07,1.96-0.2c0.64-0.13,1.27-0.32,1.87-0.57c0.6-0.25,1.18-0.56,1.73-0.92
			c0.54-0.36,1.05-0.78,1.52-1.24c0.46-0.46,0.87-0.97,1.24-1.52c0.36-0.54,0.67-1.12,0.92-1.73c0.25-0.6,0.44-1.23,0.57-1.87
			s0.2-1.3,0.2-1.95C355.399,84.29,354.329,81.711,352.469,79.85z"/>
	</g>
</g>
<g>
	<g>
		<path d="M176.409,84.971c-0.13-0.64-0.32-1.27-0.57-1.88c-0.25-0.6-0.56-1.18-0.92-1.72c-0.36-0.55-0.78-1.06-1.24-1.52
			c-0.46-0.46-0.98-0.88-1.52-1.25c-0.55-0.36-1.13-0.66-1.73-0.91s-1.23-0.45-1.87-0.58c-1.29-0.26-2.62-0.26-3.91,0
			c-0.64,0.13-1.27,0.33-1.87,0.58c-0.6,0.25-1.18,0.55-1.73,0.91c-0.54,0.37-1.05,0.79-1.52,1.25c-0.46,0.46-0.87,0.97-1.24,1.52
			c-0.36,0.54-0.67,1.12-0.92,1.72c-0.25,0.61-0.44,1.24-0.57,1.88c-0.13,0.64-0.19,1.3-0.19,1.95c0,0.65,0.06,1.31,0.19,1.95
			s0.32,1.27,0.57,1.87c0.25,0.61,0.56,1.19,0.92,1.73c0.37,0.55,0.78,1.06,1.24,1.52c0.47,0.46,0.98,0.88,1.52,1.24
			c0.55,0.36,1.13,0.67,1.73,0.92c0.6,0.25,1.23,0.44,1.87,0.57c0.65,0.13,1.3,0.2,1.96,0.2c0.65,0,1.31-0.07,1.95-0.2
			c0.64-0.13,1.27-0.32,1.87-0.57c0.6-0.25,1.18-0.56,1.73-0.92c0.54-0.36,1.06-0.78,1.52-1.24c0.46-0.46,0.88-0.97,1.24-1.52
			c0.36-0.54,0.67-1.12,0.92-1.73c0.25-0.6,0.44-1.23,0.57-1.87s0.19-1.3,0.19-1.95C176.599,86.271,176.539,85.611,176.409,84.971z"
			/>
	</g>
</g>
<g>
	<g>
		<path d="M354.633,172.04c3.528-2.364,6.869-5.06,9.95-8.141c35.366-35.365,20.67-104.486,20.028-107.411
			c-0.837-3.809-3.812-6.783-7.621-7.621c-2.128-0.467-39.28-8.365-72.989,0.973C292.89,22.014,262.82,2.493,261.388,1.577
			c-3.285-2.102-7.492-2.102-10.777,0c-1.432,0.916-31.502,20.438-42.613,48.264c-33.709-9.338-70.862-1.44-72.989-0.973
			c-3.809,0.837-6.783,3.812-7.621,7.621c-0.643,2.925-15.338,72.045,20.027,107.41c3.082,3.082,6.424,5.779,9.953,8.143
			c-43.303,23.374-66.853,63.531-66.853,115.073c0,7.312,0.657,15.061,1.951,23.027c0.003,0.018,0.002,0.035,0.005,0.053
			c0.05,0.31,0.114,0.626,0.167,0.937c0.194,1.157,0.399,2.319,0.62,3.488c0.127,0.672,0.264,1.348,0.4,2.024
			c0.163,0.811,0.331,1.624,0.507,2.44c0.178,0.829,0.359,1.659,0.55,2.494c0.117,0.509,0.241,1.02,0.362,1.531
			c2.282,9.643,5.387,19.644,9.321,29.891c14.388,37.476,38.966,76.709,67.43,107.64c1.853,2.014,3.901,4.176,6.102,6.424
			c0.249,0.255,0.498,0.508,0.747,0.761c0.628,0.637,1.27,1.28,1.923,1.93c0.749,0.746,1.499,1.481,2.249,2.21
			c0.234,0.227,0.463,0.452,0.7,0.68c0.686,0.663,1.373,1.317,2.06,1.966c0.008,0.008,0.017,0.016,0.026,0.024
			c6.846,6.464,13.695,12.225,20.418,17.133c0.462,0.337,0.919,0.652,1.379,0.981c0.483,0.346,0.964,0.692,1.451,1.032
			c0.498,0.348,0.994,0.688,1.489,1.026c0.581,0.397,1.165,0.79,1.751,1.179c0.445,0.295,0.889,0.588,1.332,0.874
			c0.646,0.419,1.296,0.829,1.948,1.237c0.389,0.243,0.78,0.491,1.167,0.728c0.741,0.453,1.487,0.893,2.234,1.329
			c0.295,0.172,0.592,0.353,0.887,0.522c2.068,1.186,4.157,2.305,6.262,3.344c0.299,0.148,0.595,0.281,0.894,0.425
			c0.728,0.351,1.457,0.7,2.189,1.031c0.413,0.187,0.821,0.357,1.232,0.535c0.61,0.266,1.221,0.533,1.833,0.783
			c0.467,0.191,0.93,0.366,1.394,0.546c0.551,0.214,1.101,0.431,1.653,0.632c0.506,0.185,1.008,0.353,1.511,0.525
			c0.505,0.173,1.01,0.349,1.515,0.51c0.543,0.173,1.081,0.329,1.619,0.487c0.463,0.136,0.925,0.276,1.388,0.401
			c0.582,0.158,1.159,0.297,1.737,0.437c0.417,0.101,0.834,0.208,1.251,0.301c0.632,0.14,1.258,0.259,1.884,0.378
			c0.362,0.069,0.724,0.145,1.086,0.206c0.708,0.121,1.408,0.217,2.107,0.309c0.281,0.037,0.563,0.084,0.844,0.116
			c0.868,0.101,1.728,0.176,2.583,0.233c0.116,0.008,0.232,0.022,0.348,0.029c1.004,0.061,2,0.096,2.986,0.096
			c0.99,0,1.991-0.036,3-0.097c0.069-0.004,0.137-0.013,0.206-0.017c0.908-0.059,1.822-0.139,2.744-0.247
			c0.231-0.027,0.461-0.066,0.692-0.095c0.755-0.098,1.513-0.203,2.277-0.334c0.307-0.052,0.614-0.118,0.921-0.175
			c0.686-0.128,1.373-0.26,2.067-0.414c0.356-0.079,0.712-0.171,1.068-0.257c0.644-0.155,1.288-0.311,1.938-0.488
			c0.392-0.107,0.784-0.226,1.176-0.34c0.614-0.179,1.228-0.357,1.847-0.555c0.423-0.135,0.845-0.284,1.268-0.427
			c0.59-0.2,1.179-0.398,1.773-0.615c0.453-0.166,0.904-0.345,1.357-0.519c0.566-0.218,1.13-0.432,1.7-0.666
			c0.49-0.201,0.978-0.417,1.467-0.627c0.534-0.23,1.067-0.453,1.604-0.697c0.557-0.252,1.111-0.521,1.666-0.785
			c0.474-0.225,0.946-0.441,1.423-0.676c1.015-0.502,2.026-1.021,3.033-1.558c0.327-0.175,0.659-0.366,0.987-0.545
			c0.711-0.389,1.422-0.778,2.129-1.182c0.434-0.249,0.872-0.513,1.309-0.77c0.604-0.356,1.208-0.711,1.808-1.077
			c0.478-0.292,0.959-0.595,1.439-0.897c0.556-0.349,1.112-0.7,1.664-1.057c0.517-0.334,1.035-0.676,1.555-1.021
			c0.5-0.333,0.997-0.668,1.494-1.007c0.571-0.389,1.143-0.78,1.717-1.183c0.367-0.257,0.73-0.519,1.095-0.78
			c0.562-0.401,1.122-0.788,1.687-1.202c7.433-5.433,15.018-11.903,22.579-19.217c0.043-0.042,0.085-0.083,0.129-0.125
			c1.019-0.987,2.037-1.989,3.054-3.006c0.523-0.522,1.04-1.04,1.546-1.554c0.308-0.313,0.616-0.626,0.924-0.942
			c2.141-2.192,4.135-4.301,5.944-6.269c1.994-2.169,3.967-4.383,5.921-6.63c0.027-0.031,0.054-0.063,0.081-0.094
			c2.376-2.735,4.723-5.521,7.033-8.36c5.448-6.698,10.693-13.672,15.694-20.833c1.981-2.836,3.926-5.699,5.826-8.59
			c0.877-1.334,1.742-2.675,2.601-4.02c2.073-3.248,4.095-6.522,6.056-9.818c0.922-1.55,1.826-3.107,2.722-4.665
			c0.089-0.155,0.178-0.311,0.267-0.466c0.349-0.61,0.702-1.22,1.048-1.831c0.005-0.009,0.01-0.018,0.015-0.027
			c0.369-0.653,0.729-1.308,1.093-1.962c0.058-0.104,0.116-0.208,0.174-0.312c0.152-0.274,0.307-0.548,0.458-0.822
			c0.077-0.139,0.156-0.278,0.233-0.418c1.09-1.983,2.152-3.972,3.196-5.963c0.809-1.542,1.609-3.086,2.389-4.631
			c4.767-9.442,8.994-18.931,12.583-28.311c2.464-6.443,4.589-12.783,6.406-19.002c0.053-0.18,0.104-0.36,0.157-0.54
			c0.352-1.241,0.706-2.48,1.039-3.711c0.079-0.292,0.151-0.581,0.229-0.872c0.445-1.674,0.868-3.338,1.264-4.991
			c0.243-1.008,0.48-2.014,0.705-3.014c0.124-0.556,0.242-1.108,0.361-1.661c0.252-1.175,0.491-2.344,0.717-3.507
			c0.076-0.39,0.154-0.782,0.227-1.17c0.298-1.591,0.58-3.173,0.828-4.74c1.239-7.809,1.867-15.378,1.867-22.5
			C421.484,235.572,397.935,195.413,354.633,172.04z M286.657,80.382c0.333-0.279,0.666-0.558,1.007-0.827
			c0.462-0.364,0.936-0.721,1.417-1.072c0.191-0.14,0.382-0.279,0.575-0.416c0.606-0.428,1.221-0.85,1.855-1.257
			c0.024-0.016,0.049-0.031,0.074-0.047c2.901-1.857,6.097-3.497,9.569-4.905c0.18-0.073,0.352-0.158,0.526-0.241
			c22.829-9.08,51.891-6.24,64.594-4.333c3.206,20.684,4.692,61.948-15.833,82.472v0.001c-6.014,6.014-13.608,10.097-21.805,12.821
			c-0.231,0.056-0.46,0.116-0.688,0.189c-16.423,5.271-35.016,5.207-48.357,4.098l49.149-49.15
			c3.905-3.905,3.905-10.237-0.001-14.142c-3.905-3.905-10.237-3.905-14.142,0.001l-48.155,48.155
			c-0.232-3.229-0.395-6.718-0.437-10.378c0.009-1.105,0.006-2.224-0.006-3.356c0.022-2.263,0.102-4.58,0.236-6.924
			c0.01-0.109,0.032-0.215,0.039-0.325c0.822-13.343,3.415-24.605,7.737-33.682c0.059-0.123,0.122-0.243,0.182-0.365
			c0.365-0.753,0.74-1.495,1.129-2.217c0.138-0.255,0.285-0.504,0.427-0.757c0.327-0.586,0.656-1.169,1-1.734
			c0.206-0.337,0.424-0.665,0.637-0.998c0.301-0.471,0.6-0.944,0.913-1.4c0.271-0.394,0.558-0.775,0.84-1.16
			c0.278-0.38,0.55-0.767,0.837-1.136c0.355-0.456,0.73-0.897,1.101-1.34c0.236-0.281,0.464-0.574,0.706-0.848
			c0.624-0.708,1.268-1.401,1.939-2.071c0.632-0.632,1.286-1.236,1.952-1.826C285.993,80.93,286.327,80.657,286.657,80.382z
			 M256.039,22.261c9.329,7.106,23.526,20.281,29.385,34.927c-0.244,0.133-0.48,0.273-0.722,0.408
			c-0.306,0.17-0.611,0.342-0.915,0.516c-0.356,0.205-0.711,0.412-1.062,0.621c-0.376,0.224-0.749,0.453-1.121,0.684
			c-0.289,0.18-0.579,0.36-0.865,0.543c-0.429,0.275-0.854,0.557-1.278,0.842c-0.23,0.155-0.462,0.308-0.69,0.465
			c-0.468,0.322-0.93,0.654-1.39,0.989c-0.183,0.133-0.369,0.263-0.551,0.398c-0.491,0.365-0.976,0.74-1.459,1.119
			c-0.145,0.114-0.294,0.225-0.439,0.34c-0.502,0.401-0.997,0.814-1.489,1.232c-0.118,0.1-0.24,0.197-0.358,0.299
			c-0.503,0.433-0.998,0.879-1.49,1.329c-0.098,0.09-0.2,0.176-0.298,0.267c-0.577,0.535-1.146,1.082-1.706,1.642
			c-0.004,0.004-0.008,0.008-0.012,0.012c-0.623,0.623-1.226,1.259-1.818,1.902c-0.222,0.241-0.437,0.488-0.655,0.732
			c-0.356,0.399-0.709,0.8-1.054,1.207c-0.275,0.323-0.546,0.649-0.815,0.978c-0.253,0.31-0.501,0.622-0.747,0.935
			c-0.323,0.41-0.646,0.82-0.961,1.238c-0.02,0.026-0.039,0.053-0.058,0.08c-2.828,3.772-5.324,7.903-7.47,12.4
			c-2.153-4.512-4.657-8.655-7.496-12.437c-0.01-0.013-0.019-0.026-0.028-0.039c-0.318-0.424-0.645-0.838-0.972-1.252
			c-0.243-0.309-0.487-0.616-0.736-0.921c-0.271-0.332-0.545-0.661-0.822-0.986c-0.344-0.404-0.695-0.804-1.05-1.201
			c-0.219-0.245-0.435-0.493-0.658-0.734c-0.592-0.643-1.195-1.279-1.818-1.902c-0.564-0.564-1.138-1.115-1.719-1.655
			c-0.098-0.091-0.202-0.179-0.301-0.27c-0.491-0.45-0.985-0.894-1.487-1.327c-0.12-0.103-0.245-0.203-0.366-0.305
			c-0.491-0.416-0.984-0.828-1.484-1.228c-0.144-0.115-0.293-0.226-0.438-0.34c-0.483-0.379-0.969-0.755-1.461-1.12
			c-0.183-0.136-0.37-0.267-0.555-0.401c-0.459-0.333-0.919-0.664-1.385-0.985c-0.23-0.159-0.465-0.314-0.698-0.47
			c-0.423-0.284-0.847-0.566-1.275-0.84c-0.285-0.183-0.573-0.361-0.861-0.541c-0.373-0.232-0.748-0.461-1.125-0.686
			c-0.351-0.209-0.705-0.416-1.062-0.621c-0.303-0.174-0.606-0.345-0.911-0.514c-0.25-0.135-0.49-0.278-0.74-0.414
			C232.7,41.611,247.898,28.47,256.039,22.261z M145.793,67.274c12.746-1.909,41.745-4.72,64.533,4.344
			c0.172,0.081,0.341,0.166,0.519,0.238c3.47,1.407,6.665,3.047,9.565,4.903c0.027,0.017,0.055,0.035,0.082,0.052
			c0.633,0.407,1.247,0.827,1.852,1.255c0.194,0.138,0.387,0.278,0.579,0.419c0.48,0.35,0.952,0.706,1.413,1.069
			c0.342,0.271,0.677,0.551,1.011,0.831c0.328,0.274,0.661,0.545,0.978,0.826c0.665,0.59,1.319,1.194,1.951,1.826
			c0.671,0.671,1.316,1.364,1.94,2.073c0.242,0.275,0.47,0.567,0.706,0.849c0.372,0.444,0.747,0.885,1.102,1.342
			c0.286,0.368,0.558,0.754,0.835,1.134c0.283,0.386,0.571,0.769,0.842,1.164c0.313,0.455,0.611,0.928,0.912,1.399
			c0.213,0.333,0.432,0.662,0.638,1c0.341,0.562,0.669,1.141,0.994,1.724c0.144,0.257,0.293,0.51,0.433,0.769
			c0.385,0.715,0.755,1.448,1.116,2.193c0.064,0.131,0.131,0.258,0.194,0.389c4.32,9.076,6.912,20.336,7.735,33.676
			c0.007,0.108,0.028,0.213,0.039,0.32c0.135,2.349,0.214,4.67,0.236,6.938c-0.013,1.14-0.015,2.267-0.006,3.379
			c-0.043,3.648-0.205,7.127-0.436,10.346L197.4,103.574c-3.906-3.904-10.237-3.904-14.142,0c-3.905,3.905-3.906,10.237,0,14.142
			l49.167,49.167c-3.189,0.267-6.676,0.473-10.366,0.56c-20.735,0.384-45.879-3.064-60.501-17.686l-0.001-0.001
			C139.319,127.52,143.325,83.767,145.793,67.274z M383.486,358.962c-0.211,0.473-0.428,0.946-0.642,1.419
			c-0.285,0.629-0.569,1.257-0.859,1.885c-0.219,0.475-0.442,0.949-0.664,1.423c-0.292,0.624-0.585,1.248-0.882,1.871
			c-0.228,0.479-0.46,0.957-0.691,1.436c-0.299,0.618-0.598,1.235-0.901,1.852c-0.235,0.477-0.472,0.954-0.709,1.43
			c-0.309,0.62-0.62,1.24-0.934,1.86c-0.238,0.469-0.477,0.937-0.717,1.406c-0.321,0.626-0.644,1.251-0.97,1.876
			c-0.241,0.461-0.482,0.922-0.725,1.382c-0.332,0.629-0.667,1.258-1.004,1.885c-0.244,0.454-0.488,0.909-0.734,1.362
			c-0.344,0.635-0.692,1.268-1.041,1.901c-0.244,0.442-0.487,0.884-0.733,1.326c-0.362,0.65-0.727,1.297-1.094,1.945
			c-0.238,0.421-0.476,0.843-0.716,1.263c-0.385,0.673-0.774,1.345-1.164,2.015c-0.228,0.392-0.454,0.785-0.684,1.176
			c-0.414,0.706-0.833,1.41-1.253,2.114c-0.211,0.354-0.42,0.709-0.633,1.062c-0.468,0.778-0.94,1.553-1.414,2.327
			c-0.168,0.274-0.333,0.549-0.502,0.823c-0.614,0.997-1.233,1.991-1.857,2.981c-0.03,0.047-0.059,0.095-0.089,0.143
			c-1.334,2.116-2.69,4.216-4.064,6.296c-0.119,0.18-0.24,0.359-0.36,0.539c-0.559,0.843-1.12,1.684-1.686,2.521
			c-0.186,0.275-0.374,0.548-0.56,0.822c-0.502,0.738-1.004,1.475-1.511,2.208c-0.22,0.318-0.442,0.634-0.663,0.952
			c-0.477,0.686-0.955,1.371-1.436,2.051c-0.239,0.338-0.479,0.674-0.719,1.011c-0.466,0.655-0.933,1.309-1.403,1.959
			c-0.253,0.35-0.507,0.698-0.76,1.046c-0.46,0.632-0.921,1.262-1.383,1.889c-0.264,0.358-0.529,0.713-0.794,1.069
			c-0.458,0.615-0.916,1.228-1.376,1.838c-0.268,0.355-0.536,0.708-0.804,1.061c-0.462,0.608-0.926,1.213-1.391,1.815
			c-0.269,0.348-0.538,0.696-0.807,1.042c-0.47,0.604-0.941,1.206-1.414,1.805c-0.265,0.336-0.53,0.672-0.796,1.007
			c-0.48,0.604-0.961,1.204-1.444,1.802c-0.262,0.324-0.523,0.649-0.785,0.972c-0.493,0.607-0.988,1.21-1.483,1.811
			c-0.251,0.305-0.502,0.611-0.754,0.914c-0.516,0.621-1.033,1.237-1.551,1.851c-0.234,0.277-0.467,0.556-0.701,0.832
			c-0.551,0.649-1.104,1.292-1.658,1.934c-0.201,0.233-0.401,0.468-0.603,0.7c-0.631,0.727-1.263,1.446-1.897,2.162
			c-0.124,0.14-0.248,0.283-0.372,0.423c-2.305,2.595-4.623,5.115-6.948,7.553c-0.146,0.153-0.292,0.302-0.438,0.455
			c-0.618,0.645-1.236,1.286-1.854,1.919c-0.22,0.225-0.44,0.446-0.66,0.67c-0.546,0.555-1.092,1.108-1.639,1.654
			c-0.255,0.254-0.509,0.504-0.764,0.755c-0.511,0.506-1.023,1.011-1.534,1.508c-0.275,0.268-0.55,0.531-0.825,0.796
			c-0.493,0.475-0.985,0.948-1.478,1.414c-0.287,0.272-0.573,0.54-0.86,0.809c-0.48,0.45-0.959,0.897-1.438,1.339
			c-0.296,0.273-0.592,0.543-0.888,0.813c-0.47,0.428-0.939,0.853-1.408,1.274c-0.152,0.136-0.304,0.27-0.455,0.406
			c-0.186,0.165-0.373,0.333-0.559,0.497c-0.346,0.306-0.692,0.61-1.038,0.912c-15.543,13.508-30.643,22.576-43.226,25.069
			c-0.144,0.028-0.288,0.056-0.432,0.082c-0.52,0.097-1.033,0.178-1.544,0.253c-0.144,0.021-0.289,0.042-0.433,0.061
			c-0.117,0.015-0.235,0.033-0.352,0.047c-0.385,0.047-0.765,0.082-1.144,0.116c-0.141,0.012-0.283,0.026-0.423,0.037
			c-0.166,0.013-0.333,0.031-0.498,0.041c-0.342,0.021-0.677,0.026-1.014,0.036c-0.282,0.008-0.568,0.025-0.847,0.025
			c-0.256,0-0.519-0.017-0.778-0.023c-0.361-0.01-0.721-0.016-1.088-0.038c-0.161-0.01-0.325-0.028-0.487-0.04
			c-0.105-0.008-0.21-0.018-0.315-0.027c-0.432-0.038-0.865-0.078-1.304-0.133c-0.101-0.012-0.202-0.027-0.304-0.04
			c-0.094-0.012-0.188-0.026-0.282-0.039c-0.6-0.086-1.204-0.18-1.817-0.298c-0.039-0.007-0.078-0.015-0.117-0.022
			c-16.319-3.18-36.969-17.553-57.331-38.378c-0.148-0.152-0.297-0.307-0.445-0.46c-0.401-0.414-0.802-0.828-1.202-1.247
			c-0.113-0.118-0.227-0.235-0.34-0.354c-0.11-0.115-0.219-0.233-0.328-0.348c-1.951-2.055-3.897-4.168-5.834-6.334
			c-0.16-0.178-0.32-0.354-0.479-0.533c-0.512-0.576-1.024-1.16-1.535-1.743c-0.24-0.274-0.48-0.545-0.72-0.82
			c-0.481-0.552-0.96-1.112-1.439-1.67c-0.269-0.314-0.539-0.625-0.807-0.941c-0.464-0.546-0.927-1.097-1.39-1.649
			c-0.281-0.335-0.563-0.669-0.843-1.006c-0.452-0.542-0.902-1.09-1.352-1.637c-0.291-0.354-0.583-0.708-0.873-1.065
			c-0.442-0.543-0.882-1.089-1.323-1.637c-0.295-0.367-0.59-0.734-0.884-1.103c-0.435-0.546-0.87-1.095-1.303-1.646
			c-0.296-0.377-0.592-0.754-0.888-1.133c-0.431-0.552-0.86-1.107-1.289-1.663c-0.295-0.383-0.589-0.767-0.883-1.151
			c-0.426-0.558-0.852-1.118-1.276-1.681c-0.294-0.39-0.587-0.782-0.88-1.174c-0.422-0.565-0.844-1.131-1.263-1.7
			c-0.289-0.391-0.576-0.785-0.863-1.178c-0.422-0.577-0.843-1.154-1.263-1.735c-0.281-0.389-0.56-0.78-0.84-1.171
			c-0.421-0.589-0.843-1.177-1.261-1.77c-0.273-0.386-0.543-0.775-0.815-1.163c-0.423-0.604-0.846-1.207-1.266-1.815
			c-0.254-0.367-0.505-0.738-0.758-1.107c-0.434-0.633-0.869-1.266-1.3-1.904c-0.216-0.32-0.43-0.643-0.645-0.964
			c-0.462-0.688-0.924-1.376-1.382-2.068c-0.066-0.1-0.13-0.2-0.196-0.3c-1.156-1.753-2.299-3.521-3.427-5.299
			c-0.085-0.134-0.171-0.267-0.256-0.401c-0.408-0.645-0.811-1.295-1.214-1.943c-0.245-0.393-0.492-0.785-0.735-1.179
			c-0.369-0.598-0.733-1.198-1.099-1.799c-0.274-0.449-0.549-0.898-0.821-1.349c-0.349-0.579-0.694-1.161-1.039-1.742
			c-0.282-0.474-0.566-0.948-0.845-1.424c-0.333-0.567-0.663-1.135-0.993-1.704c-0.288-0.497-0.577-0.993-0.863-1.491
			c-0.319-0.556-0.635-1.115-0.951-1.673c-0.289-0.51-0.577-1.021-0.863-1.532c-0.311-0.556-0.619-1.113-0.926-1.67
			c-0.285-0.516-0.568-1.032-0.85-1.55c-0.301-0.553-0.6-1.108-0.898-1.662c-0.284-0.529-0.566-1.058-0.847-1.588
			c-0.287-0.542-0.573-1.085-0.856-1.628c-0.285-0.546-0.568-1.093-0.85-1.64c-0.275-0.534-0.549-1.069-0.821-1.604
			c-0.283-0.559-0.564-1.118-0.844-1.677c-0.262-0.524-0.524-1.049-0.783-1.574c-0.284-0.576-0.564-1.152-0.843-1.728
			c-0.248-0.512-0.497-1.025-0.742-1.537c-0.284-0.595-0.564-1.191-0.844-1.786c-0.233-0.496-0.467-0.991-0.697-1.488
			c-0.289-0.625-0.572-1.25-0.856-1.875c-0.213-0.468-0.428-0.936-0.637-1.405c-0.042-0.094-0.083-0.188-0.124-0.283
			c4.459,1.259,8.545,4.096,14.777,8.603c10.835,7.832,24.321,17.58,46.064,17.592c21.746-0.012,35.228-9.767,46.059-17.603
			c8.734-6.316,13.254-9.352,20.516-9.352c7.087,0,11.434,2.957,19.843,9.124c10.263,7.525,24.319,17.831,46.778,17.831
			c22.34,0,35.833-10.206,45.694-17.664c6.045-4.564,10.021-7.566,15.412-8.738C383.577,358.753,383.532,358.856,383.486,358.962z
			 M391.721,338.171c-0.829-0.041-1.662-0.076-2.521-0.076c-15.386,0-24.361,6.777-33.061,13.346
			c-8.846,6.691-17.993,13.609-33.621,13.609c-15.913,0-25.591-7.097-34.97-13.973c-9.103-6.676-17.701-12.982-31.651-12.982
			c-14.058,0-22.888,6.385-32.238,13.147c-9.808,7.096-19.072,13.799-34.337,13.808c-15.267-0.008-24.535-6.708-34.365-13.813
			c-9.346-6.758-18.173-13.142-32.23-13.142c-0.828,0-1.642,0.029-2.449,0.074c-2.887-8.357-5.156-16.472-6.777-24.254
			c-0.024-0.116-0.046-0.232-0.07-0.348c2.895-1.419,5.742-2.164,9.295-2.164c7.26,0,11.779,3.034,20.529,9.361
			c10.836,7.833,24.321,17.582,46.066,17.594c21.748-0.012,35.229-9.767,46.059-17.602c8.734-6.316,13.255-9.353,20.516-9.353
			c7.087,0,11.434,2.958,19.843,9.125c10.263,7.525,24.319,17.831,46.778,17.831c22.338,0,35.832-10.205,45.693-17.663
			c7.935-5.992,12.305-9.292,20.989-9.292c3.794,0,6.72,0.637,9.44,1.808C397.012,321.206,394.691,329.56,391.721,338.171z
			 M401.304,292.993c-3.516-0.98-7.503-1.59-12.103-1.59c-15.387,0-24.362,6.777-33.062,13.347
			c-8.846,6.69-17.993,13.608-33.62,13.608c-15.912,0-25.591-7.097-34.97-13.973c-9.103-6.676-17.701-12.982-31.651-12.982
			c-14.057,0-22.887,6.385-32.238,13.147c-9.807,7.096-19.071,13.799-34.337,13.808c-15.268-0.008-24.537-6.708-34.368-13.815
			c-9.345-6.757-18.172-13.14-32.228-13.14c-4.513,0-8.464,0.682-12.02,1.785c-0.114-2.059-0.192-4.095-0.192-6.073
			c0-62.255,37.825-91.019,70.895-104.261c3.912,1.101,7.876,1.958,11.831,2.628c0.012,0.002,0.024,0.004,0.036,0.006
			c0.711,0.12,1.42,0.234,2.13,0.342c0.202,0.031,0.403,0.06,0.605,0.09c1.898,0.279,3.788,0.517,5.668,0.714
			c0.515,0.054,1.03,0.107,1.543,0.156c0.384,0.036,0.766,0.071,1.149,0.104c0.74,0.064,1.478,0.123,2.213,0.176
			c0.16,0.011,0.321,0.025,0.481,0.036c1.004,0.069,2.001,0.127,2.992,0.177c0.015,0.001,0.029,0.001,0.044,0.002
			c2.856,0.142,5.658,0.207,8.376,0.207c18.769,0,33.622-2.986,36.078-3.509c0.009-0.002,0.015-0.003,0.024-0.005
			c0.103-0.022,0.191-0.041,0.247-0.053c0.004-0.001,0.007-0.002,0.011-0.003c0.397-0.088,0.786-0.198,1.163-0.331
			c0.378,0.133,0.766,0.243,1.163,0.331c0.004,0.001,0.007,0.002,0.011,0.003c1.346,0.296,16.705,3.567,36.348,3.567
			c2.702,0,5.487-0.065,8.326-0.205c0.04-0.002,0.079-0.004,0.119-0.005c0.975-0.049,1.956-0.106,2.944-0.174
			c0.199-0.014,0.399-0.031,0.598-0.045c0.691-0.05,1.384-0.105,2.079-0.165c0.411-0.035,0.822-0.073,1.235-0.112
			c0.467-0.044,0.935-0.093,1.404-0.142c1.946-0.203,3.903-0.449,5.868-0.74c0.145-0.021,0.289-0.042,0.433-0.064
			c4.693-0.711,9.415-1.678,14.064-2.986c33.068,13.242,70.892,42.005,70.892,104.261
			C401.485,289.028,401.411,290.999,401.304,292.993z"/>
	</g>
</g>
<g>
	<g>
		<path d="M173.68,214.701c-5.523,0-10,4.477-10,10v13.198c0,5.523,4.477,10,10,10c5.523,0,10-4.477,10-10v-13.198
			C183.68,219.178,179.203,214.701,173.68,214.701z"/>
	</g>
</g>
<g>
	<g>
		<path d="M228.559,204.548c-5.523,0-10,4.477-10,10v13.198c0,5.523,4.477,10,10,10s10-4.477,10-10v-13.198
			C238.559,209.026,234.082,204.548,228.559,204.548z"/>
	</g>
</g>
<g>
	<g>
		<path d="M283.439,204.548c-5.523,0-10,4.477-10,10v13.198c0,5.523,4.477,10,10,10s10-4.477,10-10v-13.198
			C293.439,209.026,288.962,204.548,283.439,204.548z"/>
	</g>
</g>
<g>
	<g>
		<path d="M338.318,214.701c-5.523,0-10,4.477-10,10v13.198c0,5.523,4.477,10,10,10s10-4.477,10-10v-13.198
			C348.318,219.178,343.841,214.701,338.318,214.701z"/>
	</g>
</g>
<g>
	<g>
		<path d="M146.564,252.772c-5.523,0-10,4.477-10,10v13.198c0,5.523,4.477,10,10,10s10-4.477,10-10v-13.198
			C156.564,257.249,152.087,252.772,146.564,252.772z"/>
	</g>
</g>
<g>
	<g>
		<path d="M201.282,252.772c-5.523,0-10,4.477-10,10v13.198c0,5.523,4.477,10,10,10s10-4.477,10-10v-13.198
			C211.282,257.249,206.805,252.772,201.282,252.772z"/>
	</g>
</g>
<g>
	<g>
		<path d="M255.999,242.621c-5.523,0-10,4.477-10,10v13.198c0,5.523,4.477,10,10,10s10-4.477,10-10v-13.198
			C265.999,247.098,261.522,242.621,255.999,242.621z"/>
	</g>
</g>
<g>
	<g>
		<path d="M310.716,252.772c-5.523,0-10,4.477-10,10v13.198c0,5.523,4.477,10,10,10s10-4.477,10-10v-13.198
			C320.716,257.249,316.239,252.772,310.716,252.772z"/>
	</g>
</g>
<g>
	<g>
		<path d="M365.434,252.772c-5.523,0-10,4.477-10,10v13.198c0,5.523,4.477,10,10,10s10-4.477,10-10v-13.198
			C375.434,257.249,370.957,252.772,365.434,252.772z"/>
	</g>
</g>
<g>
</g>
<g>
</g>
<g>
</g>
<g>
</g>
<g>
</g>
<g>
</g>
<g>
</g>
<g>
</g>
<g>
</g>
<g>
</g>
<g>
</g>
<g>
</g>
<g>
</g>
<g>
</g>
<g>
</g>
</svg>
