<?xml version="1.0" encoding="iso-8859-1"?>
<!-- Generator: Adobe Illustrator 19.0.0, SVG Export Plug-In . SVG Version: 6.00 Build 0)  -->
<svg version="1.1" id="Capa_1" xmlns="http://www.w3.org/2000/svg" xmlns:xlink="http://www.w3.org/1999/xlink" x="0px" y="0px"
	 viewBox="0 0 512 512" style="enable-background:new 0 0 512 512;" xml:space="preserve">
<g>
	<g>
		<path d="M417.54,160.599c-0.13-0.64-0.32-1.27-0.57-1.87c-0.25-0.609-0.56-1.19-0.92-1.73c-0.36-0.55-0.78-1.061-1.24-1.52
			c-0.46-0.46-0.98-0.88-1.52-1.239c-0.54-0.36-1.13-0.671-1.73-0.921c-0.6-0.25-1.23-0.449-1.87-0.569c-1.29-0.26-2.62-0.26-3.91,0
			c-0.63,0.12-1.26,0.319-1.87,0.569c-0.6,0.25-1.18,0.561-1.72,0.921c-0.55,0.359-1.06,0.779-1.52,1.239
			c-0.47,0.46-0.88,0.971-1.25,1.52c-0.36,0.54-0.67,1.12-0.92,1.73c-0.25,0.601-0.44,1.23-0.57,1.87
			c-0.13,0.641-0.19,1.3-0.19,1.95c0,0.65,0.06,1.31,0.19,1.96c0.13,0.63,0.32,1.26,0.57,1.87c0.25,0.6,0.56,1.18,0.92,1.72
			c0.37,0.55,0.78,1.061,1.25,1.521c0.46,0.46,0.97,0.88,1.52,1.25c0.54,0.359,1.12,0.67,1.72,0.92c0.61,0.25,1.24,0.44,1.87,0.569
			c0.65,0.131,1.3,0.19,1.96,0.19c0.65,0,1.31-0.06,1.95-0.19s1.27-0.319,1.87-0.569c0.6-0.25,1.19-0.56,1.73-0.92
			c0.54-0.37,1.06-0.79,1.52-1.25c0.46-0.46,0.88-0.971,1.24-1.521c0.36-0.54,0.67-1.12,0.92-1.72c0.25-0.61,0.44-1.24,0.57-1.87
			c0.13-0.65,0.2-1.31,0.2-1.96C417.74,161.9,417.67,161.24,417.54,160.599z"/>
	</g>
</g>
<g>
	<g>
		<path d="M137.81,341.68c-0.13-0.64-0.32-1.27-0.58-1.87c-0.25-0.609-0.55-1.19-0.92-1.729c-0.36-0.551-0.78-1.061-1.24-1.521
			c-2.32-2.319-5.78-3.39-9.02-2.729c-0.64,0.13-1.27,0.319-1.88,0.569c-0.6,0.25-1.18,0.561-1.72,0.92
			c-0.55,0.36-1.06,0.78-1.52,1.24c-0.46,0.46-0.88,0.97-1.24,1.521c-0.36,0.54-0.67,1.12-0.92,1.729
			c-0.25,0.601-0.45,1.23-0.57,1.87c-0.13,0.64-0.2,1.3-0.2,1.95c0,0.649,0.07,1.31,0.2,1.96c0.12,0.63,0.32,1.26,0.57,1.87
			c0.25,0.6,0.56,1.18,0.92,1.72c0.36,0.55,0.78,1.061,1.24,1.521c0.46,0.46,0.97,0.88,1.52,1.25c0.54,0.359,1.12,0.67,1.73,0.92
			c0.6,0.25,1.23,0.44,1.87,0.56c0.64,0.13,1.3,0.2,1.95,0.2c0.65,0,1.31-0.07,1.95-0.2c0.64-0.12,1.27-0.31,1.88-0.56
			c0.6-0.25,1.18-0.56,1.72-0.92c0.55-0.37,1.06-0.79,1.52-1.25c0.46-0.46,0.88-0.971,1.24-1.521c0.36-0.54,0.67-1.12,0.92-1.72
			c0.25-0.61,0.45-1.24,0.58-1.87c0.13-0.65,0.19-1.311,0.19-1.96C138,342.979,137.94,342.318,137.81,341.68z"/>
	</g>
</g>
<g>
	<g>
		<path d="M461.095,371.62H452v-75.014v-53.561c7.551-5.625,12.876-14.145,14.181-23.922c0.208-0.804,0.319-1.647,0.319-2.517
			v-55.746c0-23.295-18.952-42.247-42.247-42.247h-59.677c4.047-8.08,5.593-16.888,4.552-25.937
			c17.335-2.586,29.369-20.624,30.775-22.822c2.101-3.285,2.101-7.492,0-10.777c-1.502-2.347-15.123-22.759-34.378-23.123
			c-0.364-19.255-20.777-32.876-23.124-34.377c-3.285-2.102-7.491-2.102-10.776,0c-2.198,1.406-20.237,13.44-22.822,30.775
			c-14.49-1.667-28.368,3.293-39.611,14.537c-1.938,1.937-3.804,4.147-5.543,6.564c-2.848,3.95-5.409,8.548-7.648,13.545
			c-2.238-4.995-4.798-9.591-7.644-13.538c-1.745-2.424-3.611-4.635-5.548-6.57c-11.245-11.244-25.122-16.204-39.612-14.537
			c-2.585-17.335-20.624-29.37-22.822-30.775c-3.285-2.102-7.491-2.102-10.776,0c-2.348,1.501-22.76,15.122-23.124,34.377
			c-19.255,0.364-32.877,20.776-34.378,23.123c-2.101,3.285-2.101,7.492,0,10.777c1.406,2.198,13.44,20.236,30.775,22.822
			c-1.041,9.049,0.505,17.858,4.552,25.937H87.747c-23.295,0-42.247,18.952-42.247,42.247v109.996c0,11.76,5.71,22.209,14.5,28.728
			v72.035h-9.095c-5.523,0-10,4.478-10,10v45.5c0,5.523,4.477,10,10,10h142.637c-13.108,14.923-20.637,34.25-20.637,54.76V502
			c0,5.522,4.477,10,10,10h146.38c5.523,0,10-4.478,10-10v-10.12c0-20.509-7.53-39.838-20.637-54.76h142.447c5.523,0,10-4.477,10-10
			v-45.5C471.095,376.097,466.618,371.62,461.095,371.62z M351.868,63.765c0.472-0.456,0.948-0.934,1.426-1.426
			c3.555-3.405,7.879-6.405,11.712-6.405c4.63,0.002,9.943,4.336,13.795,8.533c-3.838,4.172-9.175,8.527-13.794,8.527
			c-1.573,0-3.224-0.508-4.871-1.334c-0.06-0.033-0.118-0.07-0.179-0.102c-3.265-1.681-6.341-4.497-8.731-7.11
			C351.435,64.221,351.65,63.994,351.868,63.765z M337.015,22.677c4.172,3.839,8.527,9.175,8.527,13.794
			c0,3.834-2.975,8.136-6.381,11.689c-0.49,0.476-0.967,0.951-1.421,1.421c-0.238,0.228-0.476,0.451-0.714,0.67
			c-2.603-2.383-5.424-5.463-7.105-8.73c-0.017-0.034-0.038-0.065-0.056-0.098c-0.852-1.676-1.38-3.357-1.38-4.953
			C328.484,31.843,332.817,26.53,337.015,22.677z M266.023,112.849c0.237-15.513,5.06-35.512,13.853-47.706
			c1.116-1.552,2.279-2.935,3.456-4.111c8.899-8.9,19.229-11.242,30.746-6.988c5.57,8.706,13.689,14.715,16.636,16.721
			c2.005,2.946,8.015,11.067,16.722,16.637c4.255,11.515,1.911,21.846-6.989,30.747c-0.154,0.154-0.314,0.31-0.477,0.465h-73.811
			c-0.078-1.142-0.121-2.328-0.138-3.543C266.031,114.336,266.03,113.593,266.023,112.849z M174.989,22.677
			c4.172,3.839,8.527,9.175,8.527,13.794c0,1.575-0.51,3.228-1.337,4.877c-0.032,0.059-0.068,0.114-0.099,0.174
			c-1.68,3.265-4.497,6.34-7.11,8.73c-0.229-0.21-0.457-0.426-0.686-0.645c-0.454-0.471-0.931-0.946-1.421-1.422
			c-3.405-3.555-6.406-7.879-6.406-11.714C166.458,31.843,170.791,26.53,174.989,22.677z M164.564,87.401
			c8.706-5.57,14.716-13.691,16.722-16.637c2.947-2.006,11.067-8.015,16.636-16.72c11.517-4.252,21.846-1.912,30.747,6.988
			c1.176,1.176,2.339,2.559,3.46,4.117c8.793,12.195,13.615,32.209,13.848,47.724c-0.007,0.735-0.008,1.466,0.002,2.191
			c-0.017,1.217-0.06,2.405-0.138,3.549H172.03c-0.164-0.155-0.323-0.311-0.478-0.467
			C162.653,109.247,160.309,98.916,164.564,87.401z M146.993,72.994c-4.629,0-9.942-4.334-13.794-8.531
			c3.838-4.172,9.175-8.527,13.794-8.527c3.834,0,8.136,2.975,11.69,6.382c0.476,0.491,0.951,0.967,1.422,1.423
			c0.227,0.237,0.45,0.475,0.669,0.712c-1.749,1.909-3.867,3.935-6.167,5.544c-0.002,0.001-0.004,0.003-0.006,0.004
			c-0.833,0.583-1.689,1.111-2.558,1.558c-0.032,0.017-0.062,0.036-0.094,0.053C150.272,72.466,148.59,72.994,146.993,72.994z
			 M65.5,172.55h304.903c5.523,0,10-4.478,10-10c0-5.523-4.477-10-10-10H67.116c3.299-8.161,11.301-13.938,20.631-13.938h80.601
			h86.075h3.155h86.075h80.601c12.267,0,22.247,9.98,22.247,22.247v54.326c-0.027,0.189-0.048,0.379-0.065,0.57
			c-0.509,5.97-4.42,10.976-9.704,13.178c-0.102,0.042-0.204,0.088-0.307,0.128c-0.337,0.132-0.681,0.248-1.028,0.357
			c-0.181,0.056-0.362,0.109-0.544,0.159c-0.307,0.084-0.615,0.162-0.929,0.227c-0.265,0.055-0.533,0.096-0.802,0.137
			c-0.248,0.038-0.495,0.082-0.746,0.109c-0.537,0.055-1.078,0.091-1.626,0.091c-0.507,0-1.009-0.025-1.505-0.073
			c-7.44-0.724-13.535-6.75-14.18-14.313c-0.441-5.175-4.771-9.15-9.964-9.15h-62.203c-5.523,0-10,4.478-10,10v54.25
			c0,8.685-7.065,15.75-15.75,15.75c-8.684,0-15.75-7.065-15.75-15.75v-54.25c0-5.522-4.477-10-10-10H247c-5.523,0-10,4.478-10,10
			v25.319c0,8.685-7.065,15.75-15.75,15.75s-15.75-7.065-15.75-15.75v-25.319c0-5.522-4.477-10-10-10H107c-5.523,0-10,4.478-10,10
			v54.25c0,8.685-7.065,15.75-15.75,15.75c-0.568,0-1.13-0.035-1.686-0.094c-0.239-0.026-0.471-0.072-0.707-0.108
			c-0.31-0.047-0.62-0.092-0.925-0.157c-0.273-0.059-0.539-0.135-0.807-0.208c-0.264-0.072-0.528-0.143-0.789-0.229
			c-0.268-0.088-0.53-0.188-0.791-0.29c-0.256-0.1-0.509-0.205-0.761-0.318c-5.465-2.474-9.284-7.967-9.284-14.346V172.55z
			 M165.333,353.63H432v17.988H80v-65.013h1.25h235.898H432v27.025H165.333c-5.523,0-10,4.478-10,10
			C155.333,349.152,159.81,353.63,165.333,353.63z M221.251,277.674c19.712,0,35.749-16.036,35.749-35.749v-15.319h24.398v44.25
			c0,0.665,0.022,1.324,0.058,1.98c0.012,0.215,0.033,0.428,0.049,0.642c0.032,0.44,0.067,0.879,0.115,1.315
			c0.027,0.249,0.062,0.496,0.095,0.743c0.052,0.398,0.109,0.795,0.174,1.19c0.042,0.256,0.089,0.509,0.137,0.763
			c0.072,0.384,0.151,0.766,0.236,1.146c0.056,0.25,0.112,0.5,0.173,0.748c0.095,0.386,0.199,0.768,0.306,1.149
			c0.066,0.233,0.128,0.466,0.198,0.697c0.127,0.418,0.266,0.831,0.408,1.242c0.064,0.185,0.122,0.372,0.188,0.556
			c0.214,0.59,0.442,1.174,0.686,1.749c0.033,0.078,0.071,0.154,0.105,0.232c0.215,0.497,0.439,0.989,0.676,1.474
			c0.02,0.041,0.037,0.084,0.057,0.125H113.34c0.021-0.042,0.037-0.085,0.057-0.126c0.237-0.485,0.461-0.977,0.676-1.474
			c0.034-0.078,0.072-0.154,0.105-0.232c0.244-0.575,0.471-1.159,0.686-1.749c0.067-0.183,0.125-0.371,0.188-0.556
			c0.142-0.411,0.281-0.824,0.408-1.242c0.07-0.231,0.133-0.464,0.198-0.697c0.107-0.381,0.211-0.763,0.306-1.149
			c0.061-0.248,0.117-0.498,0.173-0.748c0.085-0.38,0.163-0.762,0.236-1.146c0.048-0.254,0.094-0.508,0.137-0.763
			c0.065-0.394,0.122-0.791,0.174-1.19c0.033-0.247,0.067-0.494,0.095-0.743c0.048-0.436,0.083-0.875,0.115-1.315
			c0.016-0.214,0.037-0.427,0.049-0.642c0.036-0.656,0.058-1.316,0.058-1.98v-44.25h68.5v15.319
			C185.501,261.638,201.539,277.674,221.251,277.674z M349.238,286.606c0.02-0.041,0.037-0.084,0.057-0.125
			c0.237-0.485,0.461-0.977,0.676-1.474c0.034-0.078,0.072-0.154,0.105-0.232c0.244-0.575,0.471-1.159,0.686-1.749
			c0.067-0.183,0.125-0.371,0.188-0.556c0.142-0.411,0.281-0.824,0.408-1.242c0.07-0.231,0.133-0.464,0.198-0.697
			c0.107-0.381,0.211-0.763,0.306-1.149c0.061-0.248,0.117-0.498,0.173-0.748c0.085-0.38,0.163-0.762,0.236-1.146
			c0.048-0.254,0.094-0.508,0.137-0.763c0.065-0.394,0.122-0.791,0.174-1.19c0.033-0.247,0.067-0.494,0.095-0.743
			c0.048-0.436,0.083-0.875,0.115-1.315c0.016-0.214,0.037-0.427,0.049-0.642c0.036-0.656,0.058-1.316,0.058-1.98v-44.25h44.273
			c5.055,13.739,18.374,23.536,33.579,23.536c0.417,0.002,0.834-0.005,1.249-0.02v36.485H349.238z M451.095,417.12h-161.03
			c-4.596,0-8.6,3.133-9.706,7.594c-1.106,4.461,0.971,9.101,5.034,11.248c20.905,11.046,33.892,32.472,33.892,55.918V492h-126.38
			v-0.12c0-23.445,12.987-44.872,33.892-55.918c4.063-2.147,6.14-6.788,5.034-11.248c-1.106-4.461-5.11-7.594-9.706-7.594H60.905
			v-25.5H70h372h9.095V417.12z"/>
	</g>
</g>
<g>
</g>
<g>
</g>
<g>
</g>
<g>
</g>
<g>
</g>
<g>
</g>
<g>
</g>
<g>
</g>
<g>
</g>
<g>
</g>
<g>
</g>
<g>
</g>
<g>
</g>
<g>
</g>
<g>
</g>
</svg>
