<?xml version="1.0" encoding="iso-8859-1"?>
<!-- Generator: Adobe Illustrator 19.0.0, SVG Export Plug-In . SVG Version: 6.00 Build 0)  -->
<svg version="1.1" id="Capa_1" xmlns="http://www.w3.org/2000/svg" xmlns:xlink="http://www.w3.org/1999/xlink" x="0px" y="0px"
	 viewBox="0 0 512 512" style="enable-background:new 0 0 512 512;" xml:space="preserve">
<g>
	<g>
		<path d="M502,433.159h-29.864c-0.865-12.263-6.726-23.162-15.563-30.671l-32.504-167.797l-14.351-74.035
			c-0.912-4.701-5.028-8.097-9.817-8.097h-48.816c1.26-1.041,2.45-2.109,3.541-3.199c11.244-11.245,16.204-25.123,14.538-39.613
			c17.335-2.586,29.369-20.624,30.775-22.821c2.101-3.285,2.101-7.492,0-10.777c-1.502-2.347-15.123-22.759-34.378-23.123
			c-0.365-19.256-20.777-32.876-23.124-34.378c-3.285-2.101-7.491-2.101-10.776,0c-2.198,1.406-20.236,13.44-22.822,30.776
			c-14.49-1.667-28.368,3.293-39.611,14.536c-1.932,1.932-3.798,4.142-5.543,6.564c-2.851,3.954-5.428,8.616-7.682,13.712
			c-2.253-5.094-4.829-9.754-7.679-13.708c-1.748-2.427-3.614-4.637-5.545-6.567c-11.245-11.245-25.124-16.205-39.613-14.538
			c-2.586-17.335-20.624-29.369-22.822-30.775c-3.285-2.101-7.491-2.101-10.776,0c-2.348,1.501-22.759,15.122-23.124,34.378
			c-19.255,0.365-32.876,20.777-34.378,23.123c-2.101,3.285-2.101,7.492,0,10.777c1.406,2.198,13.44,20.235,30.775,22.821
			c-1.666,14.49,3.293,28.368,14.538,39.613c1.091,1.091,2.282,2.158,3.541,3.199H112.1c-4.789,0-8.906,3.396-9.817,8.097
			l-1.272,6.566l-13.079,67.473c-0.008,0.04-0.01,0.079-0.017,0.119L55.432,402.459c-0.923,0.785-1.826,1.601-2.693,2.468
			c-7.635,7.635-12.133,17.564-12.877,28.231H10c-5.523,0-10,4.478-10,10v41.77c0,5.522,4.477,10,10,10h492c5.523,0,10-4.478,10-10
			v-41.77C512,437.636,507.523,433.159,502,433.159z M351.896,80.845c0.477-0.461,0.959-0.945,1.443-1.442
			c3.553-3.401,7.873-6.396,11.703-6.396c4.628-0.001,9.941,4.333,13.793,8.531c-3.838,4.172-9.175,8.527-13.794,8.527
			c-1.573,0-3.224-0.508-4.871-1.333c-0.06-0.033-0.118-0.071-0.179-0.102c-3.264-1.68-6.338-4.494-8.73-7.11
			C351.468,81.295,351.681,81.07,351.896,80.845z M154.569,87.071c-0.002,0.001-0.003,0.002-0.005,0.004
			c-0.832,0.582-1.687,1.109-2.554,1.555c-0.032,0.017-0.062,0.037-0.094,0.054c-1.677,0.853-3.359,1.382-4.956,1.382
			c-4.63-0.001-9.943-4.335-13.795-8.532c3.838-4.172,9.175-8.527,13.794-8.527c3.831,0,8.128,2.97,11.68,6.372
			c0.482,0.496,0.962,0.979,1.439,1.439c0.224,0.234,0.445,0.469,0.66,0.703C158.983,83.44,156.866,85.464,154.569,87.071z
			 M436.425,413.484c0.098,0.037,0.198,0.067,0.296,0.105c0.661,0.258,1.31,0.542,1.941,0.855c0.004,0.002,0.009,0.005,0.013,0.007
			c0.604,0.3,1.191,0.628,1.766,0.975c0.147,0.089,0.29,0.187,0.436,0.279c5.988,3.792,10.228,10.11,11.179,17.454H403.72
			c0.007-0.052,0.013-0.104,0.02-0.156c0.088-0.65,0.201-1.291,0.34-1.922c0.022-0.101,0.046-0.201,0.07-0.302
			c0.149-0.639,0.319-1.269,0.517-1.887c0.024-0.076,0.052-0.15,0.077-0.226c0.212-0.641,0.445-1.272,0.708-1.888
			c0.011-0.025,0.023-0.05,0.034-0.075c0.268-0.624,0.563-1.234,0.881-1.83c0.019-0.035,0.036-0.071,0.055-0.106
			c0.314-0.582,0.655-1.147,1.014-1.7c0.044-0.068,0.086-0.137,0.131-0.204c0.353-0.531,0.727-1.046,1.119-1.547
			c0.061-0.077,0.121-0.155,0.182-0.232c0.393-0.49,0.805-0.965,1.235-1.424c0.068-0.073,0.137-0.144,0.205-0.215
			c0.439-0.457,0.893-0.899,1.366-1.321c0.062-0.056,0.127-0.109,0.19-0.164c0.492-0.43,0.997-0.844,1.522-1.234
			c0.037-0.028,0.076-0.053,0.113-0.08c0.542-0.398,1.1-0.776,1.674-1.129c0.017-0.01,0.033-0.022,0.05-0.032
			c0.569-0.348,1.157-0.668,1.756-0.969c0.068-0.034,0.134-0.07,0.202-0.103c0.577-0.283,1.168-0.541,1.77-0.779
			c0.093-0.037,0.186-0.075,0.28-0.111c0.594-0.227,1.2-0.429,1.816-0.61c0.103-0.03,0.207-0.06,0.311-0.088
			c0.62-0.173,1.249-0.323,1.888-0.447c0.097-0.019,0.195-0.035,0.292-0.052c0.656-0.119,1.32-0.216,1.993-0.281
			c0.069-0.007,0.139-0.01,0.208-0.016c0.71-0.062,1.426-0.1,2.152-0.1c0.711,0,1.413,0.038,2.109,0.098
			c0.214,0.018,0.425,0.049,0.637,0.073c0.491,0.055,0.978,0.121,1.459,0.206c0.227,0.04,0.453,0.084,0.679,0.13
			c0.48,0.098,0.955,0.211,1.424,0.337c0.196,0.053,0.393,0.102,0.588,0.16C435.342,413.097,435.888,413.282,436.425,413.484z
			 M337.049,39.749c4.172,3.838,8.527,9.174,8.527,13.794c0,3.827-2.964,8.12-6.363,11.67c-0.503,0.487-0.991,0.974-1.457,1.456
			c-0.232,0.222-0.465,0.441-0.698,0.654c-1.909-1.748-3.935-3.867-5.544-6.167c-0.001-0.002-0.002-0.003-0.003-0.005
			c-0.583-0.834-1.111-1.69-1.558-2.559c-0.016-0.032-0.036-0.062-0.053-0.093c-0.854-1.677-1.382-3.36-1.382-4.957
			C328.518,48.914,332.852,43.6,337.049,39.749z M279.908,82.215c1.121-1.557,2.284-2.941,3.459-4.114
			c6.026-6.026,12.71-9.047,19.973-9.047c3.462,0,7.056,0.686,10.772,2.059c5.569,8.704,13.687,14.713,16.635,16.72
			c2.005,2.946,8.015,11.067,16.723,16.638c4.254,11.516,1.911,21.846-6.988,30.745c-1.142,1.143-2.488,2.278-4.003,3.379
			c-13.197,9.588-33.171,13.757-48.006,13.963h-2.508c-7.863-0.135-13.94-1.46-16.209-3.729
			C263.195,142.268,264.565,103.492,279.908,82.215z M174.955,39.749c4.172,3.838,8.527,9.174,8.527,13.794
			c0,1.572-0.508,3.223-1.333,4.87c-0.033,0.061-0.071,0.118-0.103,0.18c-1.681,3.266-4.498,6.341-7.11,8.731
			c-0.223-0.205-0.446-0.416-0.669-0.629c-0.465-0.482-0.953-0.968-1.455-1.456c-3.398-3.552-6.389-7.869-6.389-11.696
			C166.423,48.914,170.757,43.6,174.955,39.749z M164.53,104.471c8.707-5.571,14.717-13.692,16.723-16.638
			c2.948-2.007,11.066-8.015,16.635-16.72c11.517-4.254,21.848-1.911,30.747,6.989c1.173,1.173,2.336,2.557,3.457,4.113
			c0.001,0.001,0.002,0.003,0.003,0.004c15.339,21.272,16.71,60.049,10.148,66.609c-2.267,2.268-8.339,3.593-16.196,3.729h-2.54
			c-14.832-0.208-34.796-4.378-47.988-13.963c-1.513-1.1-2.86-2.235-4.001-3.378C162.62,126.317,160.276,115.987,164.53,104.471z
			 M114.172,204.415h210.082c5.523,0,10-4.478,10-10c0-5.523-4.477-10-10-10H118.049l0.178-0.921l2.12-10.933h271.305l11.021,56.841
			c-3.276,0.85-6.657,1.673-10.118,2.463c-4.547,1.039-7.772,5.084-7.772,9.749v48.031c0,6.154-5.007,11.161-11.162,11.161
			c-3.891,0-7.567-2.106-9.594-5.498c-2.308-3.861-6.912-5.704-11.245-4.51c-4.336,1.197-7.339,5.142-7.339,9.64v9.871
			c0,6.154-5.007,11.162-11.162,11.162c-6.155,0-11.162-5.008-11.162-11.162v-34.983c0.001-4.498-3.002-8.443-7.338-9.64
			c-0.883-0.244-1.778-0.361-2.662-0.361c-3.454,0-6.746,1.797-8.583,4.871c-2.027,3.392-5.703,5.498-9.594,5.498
			c-6.154,0-11.162-5.007-11.162-11.162v-5.191c0-1.866-0.522-3.695-1.508-5.28l-2.524-4.06c-1.861-2.993-5.126-4.765-8.684-4.718
			c-5.141,0.099-10.209,0.148-15.064,0.148c-54.406,0-107.182-5.805-146.671-16.03L114.172,204.415z M105.518,249.072
			c41.273,10.577,94.158,16.359,150.482,16.359c2.547,0,5.152-0.014,7.792-0.04c0.457,16.787,14.255,30.303,31.15,30.303
			c2.79,0,5.538-0.383,8.178-1.111v15.726c0,17.183,13.979,31.162,31.162,31.162c14.059,0,25.973-9.358,29.84-22.173
			c3.038,0.985,6.24,1.508,9.499,1.508c17.183,0,31.162-13.978,31.162-31.161v-40.143c0.572-0.143,1.134-0.289,1.701-0.434
			l19.256,99.409H215.465c-5.523,0-10,4.477-10,10c0,5.522,4.477,10,10,10h214.149l4.63,23.903
			c-0.578-0.083-1.159-0.152-1.742-0.212c-0.108-0.011-0.216-0.018-0.324-0.029c-0.568-0.054-1.137-0.097-1.709-0.13
			c-0.181-0.01-0.362-0.021-0.543-0.029c-0.677-0.031-1.355-0.052-2.036-0.052c-13.849,0-26.235,6.375-34.38,16.346
			c-8.145-9.971-20.531-16.346-34.38-16.346c-11.853,0-22.998,4.616-31.381,12.999c-1.065,1.065-2.07,2.176-3.012,3.327
			c-8.144-9.96-20.52-16.326-34.356-16.326c-11.853,0-22.998,4.616-31.381,12.999c-1.066,1.066-2.071,2.177-3.013,3.328
			c-8.146-9.96-20.525-16.327-34.365-16.327c-11.847,0-22.988,4.616-31.372,12.999c-1.066,1.066-2.071,2.177-3.013,3.328
			c-8.146-9.96-20.525-16.327-34.365-16.327c-11.854,0-22.998,4.616-31.381,12.999c-1.066,1.066-2.071,2.177-3.014,3.328
			c-8.145-9.96-20.525-16.327-34.365-16.327c-0.657,0-1.311,0.019-1.964,0.048c-0.204,0.009-0.408,0.021-0.611,0.033
			c-0.467,0.027-0.933,0.061-1.398,0.103c-0.212,0.019-0.425,0.035-0.636,0.057c-0.586,0.059-1.168,0.128-1.747,0.211
			L105.518,249.072z M383.298,433.156h-48.342c0.007-0.051,0.012-0.102,0.019-0.153c0.078-0.571,0.174-1.14,0.291-1.703
			c0.022-0.104,0.047-0.207,0.07-0.311c0.124-0.56,0.263-1.116,0.426-1.664c0.009-0.03,0.016-0.06,0.025-0.09
			c0.17-0.564,0.367-1.118,0.577-1.667c0.041-0.107,0.081-0.215,0.124-0.321c0.212-0.53,0.443-1.054,0.693-1.568
			c0.047-0.097,0.097-0.192,0.145-0.288c0.262-0.521,0.537-1.036,0.837-1.538c0.008-0.014,0.016-0.028,0.024-0.042
			c0.305-0.51,0.636-1.006,0.98-1.494c0.065-0.092,0.128-0.185,0.194-0.276c0.34-0.469,0.697-0.927,1.072-1.373
			c0.071-0.084,0.144-0.167,0.216-0.251c0.397-0.46,0.807-0.912,1.241-1.346c4.605-4.605,10.728-7.142,17.239-7.142
			c0.725,0,1.442,0.038,2.152,0.1c0.069,0.006,0.139,0.009,0.207,0.016c0.673,0.065,1.337,0.162,1.994,0.281
			c0.097,0.018,0.195,0.034,0.291,0.052c0.639,0.124,1.269,0.274,1.889,0.447c0.103,0.029,0.206,0.058,0.309,0.088
			c0.616,0.181,1.223,0.384,1.818,0.611c0.093,0.035,0.185,0.073,0.277,0.109c0.602,0.238,1.195,0.496,1.772,0.78
			c0.067,0.033,0.132,0.068,0.198,0.102c0.6,0.302,1.188,0.622,1.759,0.97c0.016,0.01,0.032,0.021,0.048,0.031
			c0.576,0.354,1.135,0.732,1.678,1.131c0.036,0.027,0.074,0.051,0.11,0.078c0.526,0.39,1.032,0.805,1.524,1.235
			c0.063,0.055,0.127,0.108,0.189,0.164c0.473,0.422,0.927,0.864,1.366,1.321c0.069,0.071,0.138,0.143,0.205,0.215
			c0.429,0.458,0.841,0.933,1.234,1.423c0.062,0.077,0.122,0.155,0.183,0.233c0.392,0.5,0.766,1.015,1.118,1.545
			c0.045,0.068,0.088,0.138,0.133,0.206c0.358,0.552,0.699,1.116,1.013,1.698c0.019,0.036,0.037,0.073,0.056,0.109
			c0.317,0.594,0.61,1.202,0.878,1.823c0.012,0.027,0.025,0.054,0.037,0.081c0.262,0.615,0.495,1.245,0.706,1.885
			c0.025,0.076,0.053,0.152,0.078,0.229c0.198,0.617,0.368,1.247,0.516,1.884c0.024,0.102,0.048,0.203,0.071,0.305
			c0.138,0.631,0.251,1.271,0.34,1.919C383.285,433.052,383.291,433.104,383.298,433.156z M314.538,433.158h-48.332
			c0.007-0.051,0.012-0.102,0.019-0.153c0.078-0.573,0.174-1.142,0.291-1.705c0.022-0.104,0.047-0.207,0.07-0.311
			c0.124-0.56,0.263-1.116,0.427-1.664c0.009-0.03,0.016-0.06,0.025-0.09c0.17-0.564,0.367-1.118,0.577-1.667
			c0.041-0.107,0.081-0.215,0.124-0.321c0.212-0.53,0.443-1.054,0.693-1.568c0.047-0.097,0.097-0.192,0.145-0.288
			c0.262-0.521,0.537-1.036,0.837-1.538c0.008-0.014,0.016-0.028,0.024-0.042c0.305-0.51,0.636-1.006,0.98-1.494
			c0.065-0.092,0.128-0.185,0.194-0.276c0.34-0.469,0.697-0.927,1.072-1.373c0.071-0.084,0.144-0.167,0.216-0.251
			c0.397-0.46,0.807-0.912,1.241-1.346c4.605-4.605,10.728-7.142,17.239-7.142c0.725,0,1.441,0.038,2.151,0.1
			c0.069,0.006,0.139,0.009,0.208,0.016c0.673,0.065,1.337,0.162,1.992,0.281c0.097,0.018,0.195,0.034,0.292,0.052
			c0.638,0.124,1.267,0.274,1.887,0.447c0.104,0.029,0.208,0.058,0.311,0.089c0.615,0.18,1.22,0.383,1.814,0.61
			c0.094,0.036,0.187,0.074,0.28,0.111c0.601,0.238,1.192,0.495,1.768,0.779c0.068,0.034,0.134,0.07,0.202,0.104
			c0.598,0.301,1.185,0.621,1.754,0.968c0.018,0.011,0.035,0.023,0.054,0.034c0.573,0.352,1.129,0.729,1.669,1.125
			c0.038,0.028,0.077,0.054,0.115,0.082c0.524,0.389,1.029,0.803,1.519,1.232c0.064,0.056,0.129,0.11,0.193,0.167
			c0.471,0.421,0.925,0.862,1.362,1.318c0.069,0.072,0.139,0.145,0.208,0.218c0.428,0.458,0.839,0.932,1.232,1.421
			c0.062,0.077,0.123,0.156,0.184,0.235c0.391,0.5,0.765,1.013,1.117,1.543c0.046,0.069,0.089,0.139,0.134,0.208
			c0.358,0.551,0.698,1.115,1.012,1.696c0.02,0.036,0.037,0.073,0.056,0.11c0.317,0.595,0.611,1.203,0.879,1.826
			c0.011,0.026,0.024,0.052,0.035,0.078c0.262,0.616,0.495,1.247,0.707,1.888c0.025,0.075,0.052,0.15,0.076,0.225
			c0.198,0.618,0.368,1.249,0.517,1.888c0.023,0.101,0.048,0.201,0.07,0.302c0.139,0.632,0.251,1.273,0.34,1.922
			C314.525,433.055,314.531,433.107,314.538,433.158z M245.787,433.156h-48.332c0.007-0.051,0.012-0.102,0.019-0.153
			c0.079-0.571,0.175-1.14,0.292-1.703c0.022-0.104,0.047-0.207,0.07-0.311c0.124-0.56,0.264-1.116,0.426-1.664
			c0.009-0.03,0.016-0.06,0.025-0.09c0.17-0.564,0.367-1.118,0.577-1.667c0.041-0.107,0.081-0.215,0.124-0.321
			c0.212-0.53,0.443-1.054,0.693-1.568c0.047-0.097,0.097-0.192,0.145-0.288c0.262-0.521,0.537-1.036,0.837-1.538
			c0.008-0.014,0.016-0.028,0.024-0.042c0.305-0.51,0.636-1.006,0.98-1.494c0.065-0.092,0.128-0.185,0.194-0.276
			c0.34-0.469,0.697-0.927,1.072-1.373c0.071-0.084,0.144-0.167,0.216-0.251c0.397-0.46,0.807-0.912,1.241-1.346
			c4.605-4.605,10.725-7.142,17.229-7.142c0.726,0,1.442,0.038,2.152,0.1c0.069,0.006,0.139,0.009,0.207,0.016
			c0.673,0.065,1.338,0.162,1.994,0.281c0.097,0.018,0.195,0.034,0.292,0.052c0.639,0.124,1.269,0.274,1.889,0.447
			c0.103,0.029,0.206,0.058,0.309,0.088c0.616,0.181,1.223,0.384,1.818,0.611c0.093,0.035,0.184,0.073,0.277,0.109
			c0.602,0.238,1.195,0.496,1.772,0.78c0.067,0.033,0.132,0.068,0.198,0.102c0.6,0.302,1.188,0.622,1.759,0.97
			c0.016,0.01,0.032,0.021,0.048,0.031c0.576,0.354,1.135,0.732,1.678,1.131c0.036,0.027,0.074,0.051,0.11,0.078
			c0.526,0.39,1.032,0.805,1.524,1.235c0.063,0.055,0.127,0.108,0.189,0.164c0.473,0.422,0.927,0.864,1.366,1.321
			c0.069,0.071,0.138,0.143,0.205,0.215c0.429,0.458,0.841,0.933,1.234,1.423c0.062,0.077,0.122,0.155,0.183,0.233
			c0.392,0.5,0.766,1.015,1.118,1.545c0.045,0.068,0.088,0.138,0.132,0.206c0.359,0.552,0.699,1.116,1.013,1.698
			c0.019,0.036,0.037,0.073,0.056,0.109c0.317,0.594,0.61,1.202,0.878,1.823c0.012,0.027,0.025,0.054,0.037,0.081
			c0.262,0.615,0.495,1.245,0.706,1.885c0.025,0.076,0.053,0.152,0.078,0.229c0.198,0.617,0.368,1.247,0.516,1.884
			c0.024,0.102,0.048,0.203,0.07,0.305c0.138,0.631,0.251,1.271,0.34,1.919C245.774,433.052,245.78,433.104,245.787,433.156z
			 M177.039,433.157h-48.342c0.007-0.051,0.012-0.102,0.019-0.153c0.078-0.572,0.174-1.141,0.291-1.704
			c0.022-0.104,0.047-0.207,0.07-0.311c0.124-0.56,0.264-1.116,0.427-1.664c0.009-0.03,0.016-0.06,0.025-0.09
			c0.17-0.564,0.367-1.12,0.578-1.669c0.041-0.106,0.081-0.213,0.123-0.319c0.213-0.531,0.443-1.055,0.693-1.57
			c0.047-0.096,0.096-0.19,0.144-0.285c0.263-0.523,0.539-1.04,0.84-1.545c0.007-0.012,0.013-0.024,0.02-0.035
			c0.307-0.512,0.639-1.009,0.984-1.499c0.063-0.09,0.126-0.18,0.19-0.269c0.341-0.471,0.7-0.931,1.077-1.38
			c0.068-0.081,0.138-0.16,0.207-0.24c0.399-0.463,0.811-0.917,1.247-1.353c2.878-2.878,6.349-4.948,10.137-6.096
			c2.273-0.689,4.66-1.045,7.102-1.045c0.726,0,1.442,0.038,2.152,0.1c0.069,0.006,0.139,0.009,0.207,0.016
			c0.673,0.065,1.338,0.162,1.994,0.281c0.097,0.018,0.195,0.034,0.292,0.052c0.639,0.124,1.269,0.274,1.889,0.447
			c0.103,0.029,0.206,0.058,0.309,0.088c0.616,0.181,1.223,0.384,1.818,0.611c0.093,0.035,0.184,0.073,0.277,0.109
			c0.602,0.238,1.195,0.496,1.772,0.78c0.067,0.033,0.132,0.068,0.198,0.102c0.6,0.302,1.188,0.622,1.759,0.97
			c0.016,0.01,0.032,0.021,0.048,0.031c0.576,0.354,1.135,0.732,1.678,1.131c0.036,0.027,0.074,0.051,0.11,0.078
			c0.526,0.39,1.032,0.805,1.524,1.235c0.063,0.055,0.127,0.108,0.189,0.164c0.473,0.422,0.927,0.864,1.366,1.321
			c0.069,0.071,0.138,0.143,0.205,0.215c0.429,0.458,0.841,0.933,1.234,1.423c0.062,0.077,0.122,0.155,0.183,0.233
			c0.392,0.5,0.766,1.015,1.118,1.545c0.045,0.068,0.088,0.138,0.132,0.206c0.359,0.552,0.699,1.116,1.013,1.698
			c0.019,0.036,0.037,0.073,0.056,0.109c0.317,0.594,0.61,1.202,0.878,1.823c0.012,0.027,0.025,0.054,0.037,0.081
			c0.262,0.615,0.495,1.245,0.706,1.885c0.025,0.076,0.053,0.152,0.078,0.229c0.198,0.617,0.368,1.247,0.516,1.884
			c0.024,0.102,0.048,0.203,0.07,0.305c0.138,0.631,0.251,1.271,0.34,1.919C177.026,433.053,177.032,433.105,177.039,433.157z
			 M66.881,419.07c1.034-1.034,2.147-1.957,3.321-2.777c0.012-0.008,0.025-0.013,0.036-0.022c2.538-1.763,5.349-3.008,8.307-3.701
			c0.051-0.012,0.102-0.023,0.153-0.034c1.109-0.252,2.238-0.424,3.381-0.518c0.12-0.01,0.241-0.018,0.361-0.027
			c0.553-0.038,1.109-0.063,1.668-0.063c0.725,0,1.442,0.038,2.152,0.1c0.069,0.006,0.139,0.009,0.208,0.016
			c0.673,0.065,1.337,0.162,1.993,0.281c0.097,0.018,0.195,0.034,0.292,0.052c0.639,0.124,1.268,0.274,1.888,0.447
			c0.104,0.029,0.208,0.058,0.311,0.088c0.615,0.18,1.221,0.383,1.816,0.61c0.094,0.036,0.186,0.074,0.28,0.111
			c0.601,0.238,1.193,0.495,1.77,0.779c0.068,0.033,0.134,0.069,0.202,0.103c0.599,0.301,1.187,0.621,1.756,0.969
			c0.017,0.01,0.033,0.022,0.05,0.032c0.575,0.353,1.132,0.73,1.675,1.129c0.037,0.027,0.076,0.053,0.113,0.08
			c0.525,0.39,1.031,0.804,1.522,1.234c0.063,0.055,0.127,0.109,0.19,0.164c0.473,0.422,0.927,0.864,1.366,1.321
			c0.069,0.071,0.138,0.143,0.205,0.215c0.429,0.458,0.841,0.933,1.235,1.424c0.062,0.077,0.122,0.155,0.182,0.232
			c0.392,0.501,0.767,1.016,1.119,1.547c0.045,0.067,0.087,0.137,0.131,0.204c0.359,0.552,0.7,1.118,1.014,1.7
			c0.019,0.035,0.036,0.071,0.055,0.106c0.318,0.596,0.613,1.206,0.881,1.83c0.011,0.025,0.023,0.05,0.034,0.075
			c0.263,0.616,0.496,1.247,0.708,1.888c0.025,0.076,0.052,0.15,0.077,0.226c0.198,0.618,0.368,1.249,0.517,1.887
			c0.023,0.1,0.048,0.201,0.07,0.302c0.138,0.632,0.252,1.272,0.34,1.921c0.007,0.052,0.013,0.104,0.02,0.156H59.94
			C60.623,427.839,63.027,422.923,66.881,419.07z M492,474.928H20v-21.77h472V474.928z"/>
	</g>
</g>
<g>
	<g>
		<path d="M371.39,192.46c-0.12-0.64-0.32-1.27-0.57-1.87c-0.25-0.6-0.56-1.18-0.92-1.729c-0.36-0.54-0.78-1.061-1.24-1.521
			c-2.32-2.32-5.78-3.38-9.03-2.729c-0.63,0.13-1.26,0.319-1.87,0.569c-0.6,0.25-1.18,0.561-1.72,0.92
			c-0.55,0.36-1.06,0.78-1.52,1.24c-0.46,0.46-0.88,0.98-1.25,1.521c-0.36,0.55-0.67,1.13-0.92,1.729c-0.25,0.6-0.44,1.23-0.57,1.87
			c-0.13,0.65-0.19,1.3-0.19,1.96c0,2.63,1.07,5.2,2.93,7.06c0.46,0.471,0.97,0.881,1.52,1.25c0.54,0.36,1.12,0.67,1.72,0.92
			c0.61,0.25,1.24,0.44,1.87,0.57c0.65,0.13,1.31,0.2,1.96,0.2c0.65,0,1.31-0.07,1.95-0.2s1.27-0.32,1.87-0.57
			c0.61-0.25,1.19-0.56,1.73-0.92c0.55-0.369,1.06-0.779,1.52-1.25c1.86-1.859,2.93-4.43,2.93-7.06
			C371.59,193.76,371.52,193.111,371.39,192.46z"/>
	</g>
</g>
<g>
	<g>
		<path d="M187.94,356.52c-0.13-0.64-0.33-1.26-0.58-1.87c-0.25-0.6-0.55-1.18-0.91-1.72c-0.37-0.55-0.79-1.06-1.25-1.52
			c-0.46-0.471-0.97-0.88-1.52-1.25c-0.54-0.36-1.12-0.67-1.72-0.92c-0.61-0.25-1.24-0.44-1.87-0.57c-3.26-0.65-6.71,0.41-9.03,2.74
			c-0.46,0.46-0.88,0.97-1.24,1.52c-0.36,0.54-0.67,1.12-0.92,1.72c-0.25,0.61-0.44,1.23-0.57,1.87c-0.13,0.65-0.2,1.301-0.2,1.96
			c0,0.65,0.07,1.301,0.2,1.95c0.13,0.641,0.32,1.271,0.57,1.87c0.25,0.6,0.56,1.18,0.92,1.73c0.36,0.54,0.78,1.06,1.24,1.52
			c0.46,0.46,0.97,0.88,1.52,1.24c0.54,0.359,1.12,0.67,1.73,0.92c0.6,0.25,1.23,0.439,1.87,0.57c0.64,0.13,1.3,0.199,1.95,0.199
			c0.65,0,1.31-0.069,1.96-0.199c0.63-0.131,1.26-0.32,1.87-0.57c0.6-0.25,1.18-0.561,1.72-0.92c0.55-0.36,1.06-0.78,1.52-1.24
			c0.46-0.46,0.88-0.979,1.25-1.52c0.36-0.551,0.66-1.131,0.91-1.73s0.45-1.229,0.58-1.87c0.12-0.649,0.19-1.3,0.19-1.95
			C188.13,357.821,188.06,357.17,187.94,356.52z"/>
	</g>
</g>
<g>
</g>
<g>
</g>
<g>
</g>
<g>
</g>
<g>
</g>
<g>
</g>
<g>
</g>
<g>
</g>
<g>
</g>
<g>
</g>
<g>
</g>
<g>
</g>
<g>
</g>
<g>
</g>
<g>
</g>
</svg>
