<?xml version="1.0" encoding="iso-8859-1"?>
<!-- Generator: Adobe Illustrator 19.0.0, SVG Export Plug-In . SVG Version: 6.00 Build 0)  -->
<svg version="1.1" id="Capa_1" xmlns="http://www.w3.org/2000/svg" xmlns:xlink="http://www.w3.org/1999/xlink" x="0px" y="0px"
	 viewBox="0 0 512 512" style="enable-background:new 0 0 512 512;" xml:space="preserve">
<g>
	<g>
		<path d="M502,420.234h-46.598c5.693-7.923,9.017-17.632,9.017-28.07c0-21.463-14.049-39.855-33.87-45.937V165.265
			c0-34.535-28.096-62.631-62.63-62.631h-20.286c0.627-3.058,0.951-6.185,0.951-9.342c0-25.63-20.852-46.481-46.482-46.481
			c-7.716,0-15.191,1.907-21.858,5.47c-9.601-12.731-24.846-20.978-41.983-20.978c-17.137,0-32.382,8.247-41.983,20.978
			c-6.668-3.563-14.142-5.47-21.858-5.47c-25.631,0-46.482,20.852-46.482,46.481c0,3.156,0.325,6.284,0.951,9.342H93.583
			c-25.365,0-46.002,20.637-46.002,46.002c0,22.997,16.963,42.105,39.033,45.473v60.656v88.666c0,0.026,0.004,0.051,0.004,0.077
			v59.936v16.79H10c-5.523,0-10,4.478-10,10v40.463c0,5.522,4.477,10,10,10h492c5.522,0,10-4.478,10-10v-40.463
			C512,424.712,507.522,420.234,502,420.234z M290.721,80.736c-0.02-0.339-0.051-0.677-0.077-1.015
			c-0.056-0.71-0.124-1.415-0.207-2.117c-0.045-0.375-0.091-0.75-0.143-1.124c-0.105-0.745-0.23-1.484-0.366-2.218
			c-0.052-0.28-0.094-0.562-0.151-0.841c-0.2-0.989-0.431-1.967-0.686-2.936c-0.02-0.075-0.033-0.151-0.053-0.226
			c3.95-2.248,8.433-3.448,13.064-3.448c14.602,0,26.482,11.88,26.482,26.481c0,3.213-0.58,6.373-1.701,9.342h-39.524
			c1.985-5.192,3.148-10.699,3.407-16.342c0.037-0.807,0.056-1.617,0.056-2.428C290.822,82.813,290.782,81.772,290.721,80.736z
			 M205.745,82.188c0.019-0.364,0.052-0.723,0.083-1.084c0.016-0.191,0.025-0.383,0.044-0.573c0.04-0.391,0.094-0.777,0.148-1.163
			c0.022-0.158,0.038-0.318,0.062-0.476c0.056-0.366,0.126-0.727,0.195-1.089c0.034-0.179,0.062-0.359,0.099-0.537
			c0.067-0.323,0.146-0.643,0.223-0.963c0.052-0.217,0.099-0.436,0.156-0.653c0.072-0.277,0.155-0.55,0.235-0.825
			c0.075-0.26,0.147-0.52,0.229-0.778c0.075-0.238,0.159-0.473,0.24-0.709c0.099-0.29,0.198-0.58,0.306-0.868
			c0.082-0.217,0.169-0.431,0.255-0.646c0.118-0.296,0.238-0.593,0.366-0.886c5.01-11.542,16.513-19.635,29.875-19.635
			c13.365,0,24.871,8.097,29.882,19.641c0.125,0.287,0.241,0.577,0.357,0.867c0.088,0.219,0.177,0.437,0.26,0.659
			c0.108,0.287,0.206,0.576,0.305,0.865c0.081,0.236,0.165,0.471,0.24,0.709c0.083,0.262,0.157,0.526,0.233,0.79
			c0.078,0.269,0.159,0.537,0.23,0.809c0.059,0.227,0.109,0.455,0.163,0.683c0.074,0.31,0.151,0.619,0.216,0.932
			c0.04,0.192,0.07,0.386,0.107,0.579c0.065,0.348,0.133,0.696,0.188,1.048c0.026,0.172,0.044,0.346,0.068,0.519
			c0.051,0.373,0.104,0.746,0.143,1.123c0.02,0.198,0.03,0.397,0.046,0.596c0.03,0.353,0.063,0.705,0.081,1.061
			c0.028,0.558,0.043,1.119,0.043,1.682c0,0.761-0.035,1.517-0.088,2.271c-0.01,0.136-0.016,0.272-0.027,0.407
			c-0.057,0.691-0.139,1.378-0.239,2.061c-0.029,0.199-0.061,0.397-0.094,0.595c-0.107,0.645-0.23,1.286-0.375,1.922
			c-0.052,0.225-0.112,0.449-0.168,0.673c-0.122,0.486-0.256,0.968-0.4,1.448c-0.098,0.326-0.201,0.651-0.309,0.975
			c-0.153,0.456-0.317,0.908-0.49,1.357c-0.108,0.28-0.216,0.56-0.331,0.837c-0.22,0.526-0.455,1.046-0.703,1.561
			c-0.133,0.277-0.272,0.55-0.413,0.823c-0.242,0.468-0.493,0.932-0.758,1.388c-0.161,0.278-0.33,0.551-0.5,0.825
			c-0.247,0.398-0.503,0.791-0.767,1.18c-0.102,0.149-0.201,0.301-0.306,0.449H211.67c-0.103-0.146-0.202-0.296-0.303-0.444
			c-0.265-0.388-0.521-0.782-0.768-1.18c-0.175-0.282-0.349-0.565-0.515-0.852c-0.259-0.447-0.505-0.9-0.742-1.358
			c-0.144-0.278-0.285-0.556-0.42-0.837c-0.245-0.51-0.478-1.025-0.696-1.546c-0.119-0.283-0.229-0.57-0.339-0.857
			c-0.168-0.437-0.327-0.876-0.476-1.32c-0.113-0.337-0.221-0.676-0.323-1.016c-0.141-0.47-0.273-0.944-0.393-1.421
			c-0.058-0.229-0.119-0.457-0.172-0.688c-0.144-0.632-0.267-1.27-0.373-1.912c-0.033-0.201-0.065-0.402-0.095-0.603
			c-0.1-0.682-0.182-1.367-0.239-2.057c-0.011-0.135-0.018-0.272-0.027-0.407c-0.052-0.754-0.087-1.51-0.087-2.271
			C205.702,83.306,205.717,82.746,205.745,82.188z M174.418,66.811c4.631,0,9.114,1.2,13.064,3.448
			c-0.022,0.081-0.036,0.164-0.057,0.245c-0.252,0.959-0.48,1.928-0.679,2.908c-0.059,0.292-0.104,0.587-0.158,0.88
			c-0.134,0.723-0.256,1.449-0.36,2.182c-0.053,0.378-0.1,0.757-0.145,1.137c-0.083,0.699-0.151,1.401-0.206,2.108
			c-0.027,0.34-0.058,0.678-0.078,1.019c-0.061,1.036-0.101,2.077-0.101,3.128c0,0.811,0.019,1.621,0.056,2.428
			c0.259,5.643,1.422,11.15,3.407,16.342h-39.525c-1.118-2.971-1.7-6.132-1.7-9.344C147.936,78.69,159.816,66.811,174.418,66.811z
			 M67.581,148.636c0-14.338,11.664-26.002,26.002-26.002h49.907h61.832h1.578h62.721h1.578h61.831h34.889
			c23.506,0,42.63,19.124,42.63,42.631v189.068c0,5.101,3.839,9.384,8.909,9.94c14.23,1.562,24.961,13.552,24.961,27.891
			c0,14.34-10.73,26.33-24.961,27.892c-0.362,0.04-0.72,0.099-1.068,0.176h-39.844V184.637c0-5.522-4.478-10-10-10h-0.001H96.614
			h-3.031C79.245,174.637,67.581,162.973,67.581,148.636z M293.729,385.375c-0.659,0-1.316,0.016-1.969,0.048
			c-9.805,0.478-18.954,4.522-25.942,11.511c-0.544,0.545-1.071,1.103-1.58,1.673c-7.233-8.114-17.76-13.232-29.459-13.232
			c-0.659,0-1.316,0.016-1.969,0.048c-9.805,0.478-18.954,4.522-25.942,11.511c-0.545,0.545-1.072,1.104-1.581,1.674
			c-7.236-8.114-17.766-13.232-29.468-13.232c-0.659,0-1.315,0.016-1.968,0.048c-9.799,0.478-18.945,4.522-25.933,11.511
			c-0.545,0.545-1.072,1.104-1.581,1.674c-7.236-8.114-17.766-13.232-29.468-13.232c-0.784,0-1.563,0.031-2.34,0.076
			c-0.221,0.013-0.441,0.031-0.661,0.047c-0.605,0.046-1.208,0.105-1.808,0.178c-0.188,0.023-0.376,0.042-0.564,0.067
			c-0.762,0.104-1.519,0.227-2.27,0.375c-0.143,0.028-0.283,0.063-0.425,0.092c-0.619,0.129-1.234,0.272-1.845,0.43
			c-0.112,0.026-0.227,0.046-0.338,0.076v-33.283h251.927v32.375c-0.039-0.006-0.079-0.008-0.118-0.013
			c-0.633-0.093-1.271-0.152-1.909-0.214c-0.316-0.031-0.629-0.078-0.946-0.101c-0.957-0.07-1.918-0.107-2.883-0.107
			c-11.708,0-22.243,5.124-29.479,13.246C315.974,390.499,305.438,385.375,293.729,385.375z M312.631,420.233H274.82
			c0.066-0.273,0.127-0.549,0.205-0.818c0.031-0.107,0.057-0.215,0.09-0.321c0.164-0.533,0.353-1.057,0.563-1.573
			c0.05-0.123,0.106-0.244,0.159-0.366c0.179-0.416,0.374-0.826,0.582-1.23c0.065-0.125,0.127-0.251,0.194-0.375
			c0.268-0.491,0.554-0.973,0.865-1.44c0.053-0.079,0.111-0.154,0.164-0.233c0.272-0.397,0.561-0.784,0.863-1.162
			c0.097-0.121,0.194-0.241,0.293-0.36c0.369-0.439,0.751-0.869,1.161-1.279c3.676-3.677,8.566-5.701,13.768-5.701
			c0.628-0.001,1.247,0.035,1.859,0.093c0.199,0.019,0.393,0.052,0.59,0.077c0.411,0.052,0.82,0.11,1.223,0.187
			c0.225,0.043,0.448,0.096,0.67,0.146c0.369,0.084,0.736,0.178,1.097,0.283c0.223,0.065,0.445,0.133,0.665,0.206
			c0.359,0.119,0.712,0.251,1.061,0.389c0.204,0.081,0.409,0.159,0.61,0.247c0.382,0.167,0.754,0.351,1.123,0.542
			c0.154,0.079,0.312,0.151,0.463,0.234c0.513,0.282,1.013,0.584,1.496,0.91c0.081,0.055,0.156,0.117,0.237,0.173
			c0.399,0.277,0.789,0.566,1.165,0.872c0.157,0.128,0.306,0.264,0.459,0.397c0.289,0.25,0.574,0.505,0.848,0.771
			c0.161,0.156,0.316,0.318,0.471,0.479c0.253,0.263,0.499,0.533,0.736,0.81c0.147,0.171,0.293,0.344,0.434,0.52
			c0.235,0.293,0.458,0.596,0.676,0.903c0.122,0.171,0.247,0.34,0.363,0.515c0.244,0.368,0.471,0.749,0.69,1.134
			c0.071,0.125,0.15,0.244,0.218,0.37c0.278,0.516,0.534,1.045,0.766,1.587c0.056,0.132,0.101,0.27,0.155,0.404
			c0.167,0.415,0.325,0.835,0.463,1.264c0.065,0.202,0.119,0.409,0.178,0.615C312.512,419.744,312.572,419.989,312.631,420.233z
			 M253.674,420.232l-37.801,0.001c0.066-0.271,0.126-0.544,0.203-0.812c0.032-0.11,0.059-0.222,0.092-0.331
			c0.164-0.531,0.352-1.054,0.561-1.569c0.051-0.125,0.108-0.248,0.161-0.372c0.179-0.414,0.372-0.822,0.579-1.224
			c0.065-0.126,0.128-0.253,0.196-0.378c0.267-0.49,0.553-0.972,0.864-1.439c0.053-0.079,0.111-0.155,0.165-0.234
			c0.272-0.396,0.56-0.783,0.862-1.161c0.097-0.121,0.194-0.241,0.293-0.36c0.369-0.439,0.75-0.869,1.161-1.279
			c3.676-3.677,8.565-5.701,13.769-5.701c0.626,0.001,1.244,0.037,1.856,0.095c0.199,0.019,0.393,0.052,0.59,0.077
			c0.411,0.052,0.82,0.11,1.223,0.187c0.225,0.043,0.447,0.095,0.669,0.146c0.369,0.085,0.736,0.177,1.097,0.283
			c0.223,0.065,0.445,0.133,0.665,0.206c0.359,0.119,0.712,0.251,1.061,0.389c0.204,0.081,0.409,0.159,0.61,0.247
			c0.382,0.167,0.754,0.352,1.123,0.542c0.153,0.079,0.311,0.15,0.462,0.234c0.512,0.282,1.012,0.584,1.494,0.909
			c0.084,0.056,0.161,0.121,0.244,0.179c0.396,0.276,0.783,0.562,1.157,0.866c0.158,0.129,0.308,0.267,0.462,0.4
			c0.287,0.249,0.571,0.502,0.843,0.767c0.162,0.158,0.319,0.321,0.475,0.484c0.251,0.261,0.494,0.529,0.73,0.803
			c0.149,0.173,0.297,0.348,0.44,0.527c0.232,0.29,0.452,0.59,0.668,0.893c0.124,0.175,0.252,0.346,0.37,0.525
			c0.24,0.363,0.463,0.737,0.679,1.116c0.074,0.13,0.156,0.255,0.228,0.387c0.277,0.514,0.532,1.041,0.763,1.581
			c0.06,0.14,0.107,0.286,0.164,0.427c0.163,0.408,0.319,0.819,0.454,1.24c0.067,0.207,0.122,0.419,0.182,0.628
			C253.556,419.749,253.615,419.99,253.674,420.232z M194.722,420.233h-37.801c0.066-0.274,0.127-0.549,0.205-0.819
			c0.031-0.107,0.057-0.215,0.089-0.321c0.165-0.535,0.354-1.06,0.564-1.578c0.049-0.12,0.103-0.237,0.154-0.356
			c0.181-0.421,0.378-0.836,0.589-1.243c0.063-0.121,0.123-0.244,0.189-0.364c0.269-0.493,0.556-0.976,0.868-1.446
			c0.051-0.077,0.108-0.15,0.16-0.226c0.273-0.399,0.563-0.788,0.868-1.168c0.096-0.12,0.193-0.24,0.292-0.359
			c0.369-0.439,0.751-0.869,1.161-1.28c3.676-3.677,8.563-5.701,13.759-5.701c0.626,0.002,1.245,0.038,1.857,0.096
			c0.199,0.019,0.393,0.052,0.59,0.077c0.411,0.052,0.821,0.11,1.224,0.187c0.225,0.043,0.446,0.095,0.668,0.146
			c0.371,0.085,0.739,0.178,1.101,0.284c0.221,0.064,0.441,0.132,0.659,0.204c0.362,0.12,0.718,0.253,1.071,0.393
			c0.201,0.08,0.403,0.157,0.6,0.243c0.388,0.169,0.765,0.356,1.139,0.549c0.148,0.077,0.301,0.146,0.448,0.226
			c0.515,0.283,1.017,0.586,1.502,0.913c0.071,0.048,0.137,0.103,0.208,0.152c0.409,0.284,0.809,0.58,1.195,0.894
			c0.152,0.123,0.295,0.256,0.443,0.383c0.295,0.255,0.585,0.514,0.864,0.786c0.157,0.152,0.308,0.31,0.46,0.468
			c0.257,0.267,0.506,0.541,0.747,0.822c0.144,0.168,0.288,0.338,0.426,0.511c0.238,0.297,0.464,0.603,0.684,0.914
			c0.119,0.168,0.242,0.333,0.356,0.505c0.247,0.373,0.476,0.757,0.698,1.147c0.068,0.121,0.145,0.236,0.211,0.358
			c0.279,0.516,0.535,1.047,0.767,1.59c0.056,0.131,0.1,0.268,0.154,0.401c0.167,0.416,0.325,0.836,0.464,1.265
			c0.066,0.205,0.12,0.414,0.18,0.621C194.603,419.747,194.663,419.99,194.722,420.233z M288.184,209.7h-181.57v-15.063h251.931
			v50.128H106.614V229.7h181.57c5.522,0,10-4.477,10-10C298.184,214.178,293.706,209.7,288.184,209.7z M358.545,264.765v24.333
			H175.952c-5.522,0-10,4.478-10,10c0,5.522,4.478,10,10,10h182.593v24.333H106.614v-68.666H358.545z M106.618,408.3
			c0.425-0.264,0.856-0.517,1.299-0.747c0.109-0.056,0.221-0.106,0.33-0.16c0.389-0.193,0.784-0.372,1.184-0.538
			c0.149-0.062,0.298-0.123,0.449-0.18c0.438-0.168,0.881-0.322,1.33-0.458c0.078-0.024,0.154-0.053,0.233-0.075
			c0.524-0.152,1.056-0.277,1.593-0.384c0.144-0.029,0.289-0.051,0.434-0.076c0.414-0.073,0.832-0.133,1.252-0.179
			c0.159-0.017,0.317-0.036,0.476-0.05c0.553-0.047,1.11-0.079,1.67-0.079c0.627,0,1.245,0.036,1.857,0.094
			c0.199,0.019,0.393,0.052,0.59,0.077c0.411,0.052,0.821,0.11,1.224,0.187c0.225,0.043,0.448,0.096,0.67,0.146
			c0.369,0.085,0.736,0.178,1.097,0.283c0.223,0.065,0.445,0.133,0.665,0.206c0.359,0.119,0.713,0.251,1.062,0.39
			c0.204,0.081,0.409,0.159,0.609,0.246c0.382,0.167,0.755,0.352,1.124,0.542c0.154,0.079,0.312,0.151,0.463,0.234
			c0.513,0.282,1.013,0.584,1.496,0.91c0.081,0.054,0.155,0.117,0.235,0.172c0.399,0.278,0.79,0.567,1.167,0.873
			c0.157,0.128,0.306,0.265,0.459,0.397c0.289,0.25,0.574,0.504,0.847,0.77c0.161,0.157,0.317,0.319,0.473,0.481
			c0.251,0.262,0.496,0.53,0.733,0.806c0.149,0.173,0.296,0.347,0.438,0.526c0.233,0.291,0.453,0.591,0.669,0.895
			c0.124,0.174,0.251,0.345,0.369,0.523c0.24,0.363,0.463,0.737,0.679,1.116c0.074,0.13,0.157,0.255,0.228,0.388
			c0.277,0.514,0.532,1.041,0.763,1.581c0.06,0.139,0.107,0.285,0.163,0.426c0.163,0.408,0.319,0.819,0.454,1.239
			c0.067,0.209,0.123,0.422,0.184,0.634c0.068,0.237,0.126,0.477,0.185,0.718h-29.153V408.3z M333.977,419.497
			c0.057-0.203,0.11-0.407,0.174-0.607c0.14-0.435,0.301-0.861,0.47-1.282c0.051-0.127,0.094-0.259,0.147-0.385
			c0.233-0.544,0.489-1.076,0.769-1.593c0.064-0.118,0.138-0.23,0.204-0.346c0.223-0.394,0.456-0.783,0.705-1.159
			c0.112-0.17,0.234-0.333,0.352-0.5c0.222-0.313,0.449-0.621,0.688-0.919c0.138-0.173,0.281-0.341,0.425-0.509
			c0.241-0.281,0.49-0.555,0.747-0.822c0.152-0.158,0.304-0.316,0.462-0.47c0.278-0.27,0.567-0.529,0.861-0.783
			c0.149-0.129,0.294-0.262,0.447-0.386c0.383-0.311,0.78-0.606,1.187-0.888c0.073-0.051,0.142-0.108,0.216-0.158
			c0.485-0.327,0.986-0.63,1.501-0.913c0.147-0.081,0.3-0.15,0.449-0.227c0.373-0.193,0.75-0.379,1.137-0.548
			c0.198-0.087,0.401-0.164,0.603-0.244c0.352-0.14,0.707-0.272,1.068-0.392c0.219-0.072,0.439-0.14,0.662-0.205
			c0.362-0.105,0.729-0.198,1.099-0.283c0.222-0.051,0.444-0.103,0.669-0.146c0.403-0.077,0.813-0.135,1.224-0.187
			c0.197-0.025,0.391-0.058,0.59-0.077c0.612-0.058,1.23-0.094,1.857-0.094c0.483,0,0.965,0.02,1.444,0.055
			c0.159,0.012,0.316,0.035,0.475,0.051c0.319,0.032,0.638,0.063,0.955,0.11c0.186,0.028,0.369,0.067,0.554,0.1
			c0.286,0.051,0.572,0.102,0.855,0.166c0.194,0.044,0.385,0.097,0.578,0.147c0.27,0.07,0.54,0.14,0.807,0.222
			c0.063,0.019,0.126,0.043,0.189,0.063v13.944h-24.759C333.848,419.986,333.908,419.74,333.977,419.497z M492,460.697H20v-20.463
			h76.618h6.799H492V460.697z"/>
	</g>
</g>
<g>
	<g>
		<path d="M332.59,212.631c-0.46-0.46-0.97-0.88-1.521-1.24c-0.539-0.359-1.119-0.67-1.729-0.92c-0.6-0.25-1.23-0.45-1.87-0.57
			c-1.29-0.26-2.62-0.26-3.91,0c-0.63,0.12-1.26,0.32-1.87,0.57c-0.6,0.25-1.18,0.561-1.72,0.92c-0.55,0.36-1.06,0.78-1.52,1.24
			c-0.46,0.46-0.881,0.97-1.25,1.52c-0.36,0.54-0.67,1.12-0.92,1.73c-0.25,0.6-0.44,1.23-0.57,1.87s-0.19,1.3-0.19,1.95
			c0,2.63,1.07,5.21,2.931,7.069c0.459,0.46,0.969,0.879,1.519,1.24c0.54,0.36,1.12,0.67,1.72,0.92c0.61,0.26,1.24,0.45,1.87,0.58
			c0.65,0.13,1.31,0.19,1.96,0.19c0.65,0,1.311-0.061,1.95-0.19c0.64-0.13,1.271-0.32,1.87-0.58c0.61-0.25,1.19-0.56,1.729-0.92
			c0.551-0.36,1.061-0.78,1.521-1.24c1.86-1.859,2.93-4.439,2.93-7.069C335.52,217.07,334.451,214.491,332.59,212.631z"/>
	</g>
</g>
<g>
	<g>
		<path d="M148.42,297.14c-0.13-0.63-0.32-1.26-0.57-1.87c-0.25-0.6-0.56-1.18-0.92-1.72c-0.36-0.55-0.78-1.06-1.24-1.52
			c-0.46-0.471-0.97-0.881-1.52-1.25c-0.54-0.36-1.12-0.671-1.73-0.921c-0.6-0.25-1.229-0.44-1.87-0.569
			c-1.289-0.26-2.619-0.26-3.909,0c-0.63,0.13-1.261,0.319-1.87,0.569c-0.6,0.25-1.181,0.56-1.721,0.921
			c-0.55,0.369-1.06,0.779-1.52,1.25c-0.46,0.46-0.88,0.97-1.25,1.52c-0.36,0.54-0.67,1.12-0.92,1.72
			c-0.25,0.61-0.44,1.24-0.57,1.87c-0.13,0.65-0.189,1.311-0.189,1.96c0,0.65,0.06,1.311,0.189,1.95
			c0.129,0.64,0.32,1.269,0.57,1.87c0.25,0.61,0.56,1.19,0.92,1.73c0.37,0.551,0.79,1.061,1.25,1.52c0.46,0.46,0.97,0.88,1.52,1.24
			c0.54,0.359,1.12,0.67,1.721,0.92c0.609,0.25,1.24,0.439,1.87,0.569c0.649,0.131,1.309,0.2,1.96,0.2c0.649,0,1.31-0.069,1.949-0.2
			c0.641-0.13,1.27-0.319,1.87-0.569c0.61-0.25,1.19-0.561,1.73-0.92c0.55-0.36,1.06-0.78,1.52-1.24c0.46-0.46,0.88-0.97,1.24-1.52
			c0.36-0.54,0.67-1.119,0.92-1.73c0.25-0.601,0.44-1.23,0.57-1.87s0.2-1.3,0.2-1.95C148.62,298.451,148.55,297.79,148.42,297.14z"
			/>
	</g>
</g>
<g>
</g>
<g>
</g>
<g>
</g>
<g>
</g>
<g>
</g>
<g>
</g>
<g>
</g>
<g>
</g>
<g>
</g>
<g>
</g>
<g>
</g>
<g>
</g>
<g>
</g>
<g>
</g>
<g>
</g>
</svg>
