<?xml version="1.0" encoding="iso-8859-1"?>
<!-- Generator: Adobe Illustrator 19.0.0, SVG Export Plug-In . SVG Version: 6.00 Build 0)  -->
<svg version="1.1" id="Capa_1" xmlns="http://www.w3.org/2000/svg" xmlns:xlink="http://www.w3.org/1999/xlink" x="0px" y="0px"
	 viewBox="0 0 512.002 512.002" style="enable-background:new 0 0 512.002 512.002;" xml:space="preserve">
<g>
	<g>
		<path d="M492.844,377.009c11.686-9.027,19.158-22.978,19.158-38.494c0-15.694-7.621-29.638-19.354-38.336
			c1.913-1.423,3.713-2.962,5.369-4.623c9.019-9.004,13.984-20.985,13.984-33.736c0-15.604-7.534-29.482-19.155-38.188
			c11.685-9.027,19.156-22.978,19.156-38.492c0-26.301-21.398-47.699-47.699-47.699h-80.707c1.623-5.161,2.465-10.577,2.465-16.125
			c0-29.587-24.071-53.658-53.658-53.658c-9.49,0-18.668,2.489-26.736,7.139c-11.054-15.536-29.19-25.698-49.666-25.698
			c-20.476,0-38.612,10.163-49.666,25.698c-8.068-4.65-17.246-7.139-26.736-7.139c-29.587,0-53.658,24.071-53.658,53.658
			c0,5.549,0.842,10.965,2.465,16.125H47.699C21.397,137.441,0,158.839,0,185.14c0,15.508,7.464,29.453,19.14,38.48
			c-1.808,1.359-3.535,2.85-5.161,4.479c-8.657,8.658-13.616,20.157-13.964,32.381c0,0.004-0.001,0.009-0.001,0.013
			C0.001,260.927,0,261.374,0,261.82c0,15.119,7.186,29.268,19.162,38.501C7.538,309.03,0,322.912,0,338.515
			c0,15.516,7.471,29.467,19.157,38.493C7.535,385.716,0,399.596,0,415.203c0,26.301,21.397,47.699,47.699,47.699h416.604
			c26.302,0,47.699-21.397,47.699-47.699C512.002,399.596,504.467,385.716,492.844,377.009z M334.968,284.931
			c1.267,0.129,2.552,0.195,3.853,0.195c2.601,0,5.141-0.264,7.595-0.768c17.178-3.524,30.137-18.759,30.137-36.964v-9.753
			c5.129,2.578,10.907,4.008,16.979,4.008c0.587,0,1.171-0.017,1.754-0.044c0.201-0.009,0.401-0.024,0.602-0.037
			c0.377-0.023,0.752-0.051,1.127-0.086c0.242-0.022,0.483-0.046,0.724-0.073c0.326-0.036,0.65-0.079,0.973-0.124
			c0.262-0.036,0.524-0.07,0.784-0.112c0.281-0.045,0.559-0.099,0.838-0.15c0.612-0.112,1.219-0.238,1.821-0.38
			c0.15-0.035,0.3-0.067,0.449-0.104c0.383-0.095,0.761-0.199,1.139-0.306c0.135-0.038,0.27-0.076,0.404-0.115
			c0.4-0.118,0.798-0.242,1.192-0.372c0.078-0.026,0.156-0.053,0.234-0.079c3.819-1.29,7.371-3.166,10.535-5.537h48.194
			c0.004,0,0.009,0,0.013,0c15.266,0.002,27.686,12.423,27.686,27.69c0,7.403-2.882,14.358-8.132,19.599
			c-4.937,4.953-12.086,8.276-20.182,9.396H309.254c-0.006-0.033-0.014-0.064-0.02-0.096c-0.046-0.242-0.102-0.48-0.152-0.721
			c-0.109-0.531-0.22-1.062-0.345-1.587c-0.07-0.296-0.149-0.589-0.225-0.882c-0.119-0.465-0.241-0.929-0.372-1.388
			c-0.088-0.306-0.181-0.609-0.273-0.912c-0.136-0.442-0.276-0.882-0.422-1.319c-0.102-0.302-0.205-0.602-0.312-0.901
			c-0.156-0.436-0.318-0.868-0.485-1.297c-0.111-0.287-0.222-0.574-0.338-0.858c-0.183-0.448-0.377-0.891-0.572-1.332
			c-0.113-0.254-0.222-0.511-0.338-0.763c-0.243-0.525-0.499-1.041-0.758-1.554c-0.081-0.16-0.156-0.323-0.238-0.481
			c-0.348-0.67-0.711-1.331-1.087-1.981c-0.09-0.156-0.187-0.306-0.279-0.461c-0.291-0.491-0.586-0.978-0.893-1.457
			c-0.146-0.227-0.298-0.448-0.447-0.673c-0.265-0.398-0.532-0.795-0.808-1.185c-0.17-0.241-0.345-0.477-0.519-0.714
			c-0.27-0.366-0.542-0.73-0.821-1.087c-0.184-0.236-0.37-0.47-0.558-0.702c-0.285-0.353-0.576-0.7-0.87-1.044
			c-0.19-0.222-0.381-0.445-0.575-0.664c-0.312-0.351-0.631-0.694-0.952-1.036c-0.187-0.199-0.371-0.4-0.561-0.595
			c-0.374-0.384-0.758-0.758-1.144-1.129c-0.146-0.14-0.287-0.285-0.435-0.423c-0.538-0.504-1.087-0.996-1.647-1.474
			c-0.112-0.096-0.229-0.186-0.343-0.281c-0.451-0.378-0.906-0.75-1.371-1.11c-0.208-0.162-0.423-0.316-0.634-0.475
			c-0.379-0.284-0.76-0.566-1.147-0.839c-0.24-0.169-0.484-0.332-0.727-0.497c-0.37-0.251-0.743-0.497-1.121-0.737
			c-0.256-0.163-0.514-0.323-0.774-0.481c-0.377-0.23-0.759-0.454-1.143-0.673c-0.263-0.15-0.526-0.3-0.793-0.445
			c-0.399-0.217-0.803-0.426-1.208-0.633c-0.258-0.131-0.514-0.265-0.775-0.392c-0.451-0.219-0.908-0.426-1.367-0.63
			c-0.222-0.099-0.44-0.204-0.664-0.299c-0.681-0.291-1.368-0.569-2.064-0.828c-0.115-0.043-0.234-0.079-0.349-0.122
			c-0.587-0.214-1.179-0.42-1.777-0.611c-0.259-0.083-0.522-0.156-0.783-0.234c-0.462-0.139-0.924-0.276-1.393-0.401
			c-0.298-0.079-0.598-0.151-0.898-0.225c-0.44-0.108-0.88-0.213-1.325-0.309c-0.315-0.068-0.631-0.131-0.948-0.193
			c-0.441-0.086-0.885-0.166-1.33-0.24c-0.32-0.053-0.639-0.105-0.961-0.152c-0.458-0.066-0.919-0.123-1.381-0.177
			c-0.312-0.036-0.624-0.075-0.938-0.105c-0.503-0.048-1.01-0.083-1.518-0.116c-0.278-0.018-0.553-0.042-0.832-0.056
			c-0.733-0.035-1.47-0.054-2.211-0.056c-0.053,0-0.105-0.004-0.157-0.004H22.293c1.373-3.152,3.339-6.049,5.834-8.544
			c5.217-5.225,12.166-8.104,19.564-8.106c0.003,0.002,0.006,0.002,0.008,0.002h253.389v13.264
			C301.088,266.899,315.965,282.995,334.968,284.931z M463.978,214.131h-34.13c0.461-1.637,0.815-3.318,1.052-5.037
			c0-0.005,0-0.011,0.001-0.016c0.104-0.756,0.183-1.52,0.242-2.29c0.012-0.155,0.025-0.311,0.036-0.467
			c0.05-0.795,0.085-1.595,0.085-2.403v-8.777h58.886C486.15,205.564,476.086,213.267,463.978,214.131z M312.861,131.861
			c0.047-0.122,0.099-0.242,0.146-0.365c0.28-0.742,0.534-1.492,0.784-2.245c0.102-0.305,0.208-0.609,0.305-0.915
			c0.214-0.679,0.41-1.363,0.601-2.049c0.111-0.398,0.22-0.796,0.323-1.196c0.162-0.633,0.313-1.268,0.454-1.907
			c0.105-0.475,0.203-0.951,0.297-1.429c0.116-0.587,0.228-1.174,0.325-1.764c0.093-0.559,0.171-1.12,0.249-1.682
			c0.072-0.527,0.149-1.052,0.208-1.581c0.076-0.684,0.129-1.372,0.182-2.059c0.032-0.421,0.076-0.841,0.099-1.263
			c0.063-1.121,0.1-2.245,0.1-3.373c0-0.941-0.029-1.878-0.071-2.812c-0.011-0.235-0.024-0.468-0.037-0.702
			c-0.047-0.819-0.108-1.635-0.187-2.448c-0.011-0.115-0.019-0.23-0.031-0.344c-0.097-0.944-0.218-1.885-0.359-2.821
			c-0.022-0.141-0.046-0.282-0.069-0.423c-0.127-0.807-0.272-1.611-0.432-2.412c-0.033-0.165-0.064-0.33-0.098-0.494
			c-0.331-1.594-0.722-3.175-1.183-4.74c5.333-3.37,11.523-5.18,17.936-5.18c18.56,0,33.658,15.099,33.658,33.658
			c0,5.716-1.407,11.211-4.102,16.125h-51.546C311.328,135.624,312.133,133.757,312.861,131.861z M215.121,107.919
			c0.022-0.422,0.061-0.838,0.096-1.257c0.022-0.275,0.036-0.552,0.064-0.827c0.048-0.471,0.115-0.937,0.179-1.403
			c0.03-0.219,0.052-0.44,0.086-0.659c0.068-0.442,0.153-0.878,0.235-1.315c0.046-0.244,0.085-0.489,0.135-0.732
			c0.081-0.393,0.178-0.78,0.27-1.169c0.068-0.287,0.131-0.576,0.206-0.861c0.09-0.344,0.193-0.682,0.291-1.022
			c0.096-0.329,0.187-0.66,0.291-0.987c0.097-0.304,0.204-0.604,0.307-0.905c0.123-0.357,0.244-0.714,0.377-1.068
			c0.108-0.288,0.224-0.572,0.338-0.856c0.141-0.353,0.283-0.706,0.435-1.056c6.296-14.519,20.764-24.703,37.57-24.703
			c16.806,0,31.274,10.184,37.571,24.703c0.152,0.35,0.294,0.703,0.435,1.056c0.114,0.285,0.23,0.568,0.338,0.856
			c0.133,0.354,0.254,0.711,0.377,1.068c0.103,0.301,0.21,0.601,0.307,0.905c0.104,0.327,0.196,0.658,0.291,0.987
			c0.099,0.34,0.201,0.678,0.291,1.022c0.075,0.286,0.137,0.574,0.206,0.861c0.092,0.389,0.189,0.776,0.271,1.169
			c0.05,0.243,0.089,0.488,0.135,0.732c0.082,0.437,0.167,0.873,0.235,1.315c0.034,0.219,0.056,0.439,0.086,0.659
			c0.064,0.466,0.131,0.932,0.179,1.403c0.028,0.274,0.042,0.551,0.064,0.827c0.034,0.418,0.074,0.835,0.096,1.257
			c0.036,0.702,0.054,1.408,0.054,2.116c0,0.615-0.015,1.227-0.042,1.836c-0.411,9.115-3.869,17.867-9.843,24.819
			c-0.014,0.016-0.025,0.033-0.039,0.049c-0.203,0.235-0.4,0.473-0.61,0.704H225.6c-0.209-0.231-0.406-0.469-0.61-0.704
			c-0.014-0.016-0.025-0.033-0.039-0.049c-5.974-6.952-9.433-15.703-9.843-24.819c-0.026-0.609-0.041-1.221-0.041-1.836
			C215.067,109.327,215.086,108.622,215.121,107.919z M179.599,87.658c6.413,0,12.604,1.81,17.937,5.18
			c-0.462,1.564-0.852,3.145-1.184,4.739c-0.034,0.165-0.066,0.33-0.099,0.496c-0.16,0.8-0.304,1.603-0.431,2.409
			c-0.022,0.142-0.047,0.282-0.069,0.424c-0.141,0.936-0.262,1.875-0.359,2.819c-0.012,0.116-0.02,0.233-0.031,0.349
			c-0.079,0.812-0.14,1.626-0.186,2.444c-0.013,0.235-0.027,0.469-0.038,0.705c-0.042,0.934-0.071,1.87-0.071,2.811
			c0,1.128,0.037,2.252,0.099,3.373c0.024,0.422,0.067,0.841,0.099,1.262c0.053,0.689,0.106,1.377,0.183,2.062
			c0.059,0.528,0.135,1.052,0.207,1.577c0.078,0.563,0.156,1.125,0.249,1.684c0.098,0.59,0.21,1.177,0.325,1.764
			c0.094,0.478,0.192,0.954,0.298,1.429c0.141,0.638,0.292,1.274,0.454,1.907c0.103,0.4,0.212,0.798,0.323,1.196
			c0.19,0.686,0.386,1.37,0.6,2.049c0.097,0.308,0.204,0.612,0.306,0.918c0.25,0.751,0.504,1.501,0.783,2.242
			c0.047,0.125,0.1,0.247,0.148,0.371c0.728,1.894,1.531,3.759,2.446,5.574h-51.546c-2.695-4.916-4.101-10.409-4.101-16.126
			C145.941,102.757,161.04,87.658,179.599,87.658z M47.699,157.441h96.918h69.932h6.895h69.113h6.896h69.931h96.919
			c11.75,0,21.813,7.353,25.832,17.699h-68.872c-5.522,0-10,4.477-10,10v18.777c0,0.611-0.031,1.217-0.093,1.816
			c-0.021,0.206-0.065,0.404-0.093,0.608c-0.054,0.39-0.102,0.782-0.181,1.166c-0.036,0.173-0.091,0.339-0.131,0.509
			c-0.098,0.411-0.194,0.822-0.322,1.223c-0.032,0.101-0.075,0.197-0.109,0.298c-0.159,0.471-0.327,0.94-0.526,1.395
			c-0.008,0.018-0.018,0.036-0.026,0.054c-0.956,2.169-2.357,4.153-4.164,5.846c-0.002,0.002-0.004,0.004-0.005,0.005
			c-1.65,1.545-3.543,2.744-5.581,3.558c-0.03,0.012-0.062,0.022-0.092,0.034c-0.471,0.185-0.949,0.351-1.434,0.494
			c-0.118,0.035-0.24,0.06-0.359,0.093c-0.408,0.111-0.817,0.217-1.233,0.298c-0.242,0.047-0.49,0.076-0.735,0.112
			c-0.307,0.047-0.613,0.102-0.924,0.133c-0.568,0.055-1.144,0.087-1.726,0.087c-0.528,0-1.053-0.028-1.574-0.075
			c-0.27-0.025-0.536-0.069-0.804-0.106c-0.236-0.032-0.473-0.06-0.707-0.102c-0.357-0.065-0.71-0.148-1.061-0.234
			c-0.129-0.031-0.259-0.059-0.388-0.094c-0.404-0.11-0.802-0.235-1.195-0.372c-0.064-0.022-0.128-0.043-0.192-0.066
			c-0.43-0.156-0.853-0.326-1.268-0.514c-0.018-0.008-0.036-0.016-0.054-0.024c-4.893-2.233-8.715-6.644-10.008-12.079
			c-1.173-4.934-5.854-8.206-10.894-7.618c-5.037,0.591-8.835,4.86-8.835,9.932v13.834v23.264c0,9.777-7.954,17.732-17.731,17.732
			c-9.777,0-17.731-7.955-17.731-17.732v-23.264c0-0.007-0.001-0.013-0.001-0.019v-38.971c0-5.523-4.477-10-10-10H21.867
			C25.886,164.793,35.949,157.441,47.699,157.441z M301.088,195.14v18.99H48.026c-12.108-0.863-22.173-8.567-26.172-18.99H301.088z
			 M261.871,270.781c0.011,0,0.022,0.001,0.032,0.001c0.685,0.001,1.361,0.034,2.032,0.083c0.159,0.012,0.317,0.023,0.475,0.037
			c0.662,0.06,1.318,0.139,1.965,0.244c0.109,0.018,0.216,0.041,0.324,0.06c0.581,0.102,1.155,0.223,1.722,0.36
			c0.129,0.031,0.259,0.06,0.387,0.092c0.624,0.161,1.24,0.345,1.846,0.548c0.135,0.045,0.268,0.094,0.402,0.141
			c0.564,0.199,1.12,0.413,1.666,0.647c0.066,0.028,0.134,0.053,0.2,0.082c0.589,0.258,1.165,0.542,1.732,0.84
			c0.132,0.07,0.264,0.14,0.395,0.212c0.563,0.308,1.118,0.629,1.657,0.975c0.05,0.032,0.098,0.067,0.148,0.1
			c0.504,0.328,0.996,0.676,1.478,1.036c0.111,0.082,0.222,0.164,0.331,0.248c0.503,0.387,0.993,0.791,1.469,1.212
			c0.09,0.079,0.176,0.162,0.264,0.242c0.429,0.389,0.846,0.792,1.252,1.208c0.072,0.074,0.147,0.145,0.218,0.22
			c0.442,0.464,0.867,0.946,1.28,1.441c0.091,0.109,0.18,0.221,0.27,0.331c0.406,0.503,0.802,1.016,1.176,1.548
			c0.008,0.012,0.017,0.022,0.025,0.034c0.38,0.541,0.736,1.102,1.082,1.672c0.075,0.125,0.151,0.249,0.224,0.375
			c0.332,0.567,0.65,1.146,0.947,1.738c0.041,0.081,0.077,0.164,0.117,0.246c0.267,0.546,0.518,1.104,0.753,1.67
			c0.05,0.119,0.102,0.237,0.15,0.357c0.249,0.619,0.478,1.25,0.688,1.891c0.016,0.048,0.03,0.098,0.046,0.146h-56.313
			c-5.522,0-10,4.477-10,10v17.359c0,10.03-8.16,18.19-18.19,18.19c-8.32,0-15.755-5.891-17.68-14.007
			c-1.098-4.629-5.286-7.802-9.953-7.691c-0.311,0.007-0.624,0.029-0.938,0.066c-5.039,0.589-8.839,4.858-8.839,9.932v37.7
			c0,0.53-0.032,1.055-0.078,1.577c-0.016,0.176-0.036,0.35-0.057,0.525c-0.041,0.349-0.095,0.696-0.156,1.041
			c-0.036,0.198-0.066,0.398-0.108,0.595c-0.095,0.447-0.206,0.889-0.335,1.327c-0.083,0.281-0.182,0.558-0.279,0.835
			c-0.064,0.185-0.129,0.37-0.199,0.553c-0.118,0.304-0.241,0.607-0.376,0.905c-0.053,0.12-0.112,0.237-0.169,0.355
			c-0.33,0.693-0.697,1.371-1.116,2.025l-0.001,0.001c-0.732,1.14-1.57,2.187-2.465,3.086c-3.473,3.46-8.037,5.365-12.853,5.365
			c-0.553,0.003-1.099-0.031-1.641-0.08c-0.127-0.012-0.255-0.022-0.382-0.036c-0.51-0.057-1.014-0.133-1.511-0.231
			c-0.138-0.028-0.274-0.062-0.412-0.093c-0.379-0.084-0.752-0.181-1.121-0.289c-0.165-0.048-0.332-0.092-0.496-0.145
			c-0.422-0.136-0.835-0.29-1.243-0.456c-0.22-0.09-0.438-0.186-0.654-0.285c-0.223-0.101-0.443-0.209-0.661-0.319
			c-0.441-0.223-0.874-0.462-1.297-0.72c-0.108-0.066-0.218-0.129-0.324-0.197c-0.294-0.189-0.584-0.385-0.867-0.59
			c-0.013-0.009-0.025-0.019-0.037-0.028c-1.819-1.327-3.41-3.004-4.676-4.978c0-0.001-0.001-0.002-0.001-0.003
			c-0.678-1.058-1.237-2.175-1.679-3.332c-0.038-0.101-0.075-0.202-0.111-0.303c-0.12-0.333-0.235-0.667-0.335-1.006
			c-0.122-0.419-0.235-0.842-0.328-1.272c-0.044-0.2-0.073-0.403-0.109-0.605c-0.063-0.35-0.12-0.703-0.162-1.06
			c-0.022-0.179-0.042-0.358-0.058-0.537c-0.047-0.535-0.082-1.074-0.082-1.621v-61.55c0-5.523-4.478-10-10-10H48.033
			c-4.451-0.317-8.678-1.551-12.576-3.676c-6.718-3.652-11.642-9.548-13.966-16.364H261.871z M47.476,310.818
			c0.075,0.001,0.15,0.002,0.226,0.002h62.63v51.55c0,0.792,0.032,1.577,0.08,2.357c0.012,0.196,0.03,0.392,0.045,0.587
			c0.049,0.641,0.114,1.277,0.194,1.909c0.012,0.093,0.016,0.187,0.029,0.28H48.03C32.289,366.385,20,353.705,20,338.515
			C20,323.322,32.307,310.939,47.476,310.818z M464.303,442.901H47.699C32.426,442.901,20,430.476,20,415.203
			s12.426-27.699,27.699-27.699h72.104c1.784,2.036,3.773,3.886,5.947,5.506c0.106,0.079,0.216,0.152,0.323,0.23
			c0.402,0.293,0.806,0.583,1.219,0.86c0.254,0.171,0.514,0.331,0.772,0.496c0.276,0.176,0.551,0.354,0.831,0.523
			c0.296,0.178,0.597,0.347,0.897,0.517c0.254,0.144,0.508,0.289,0.766,0.427c0.312,0.167,0.628,0.326,0.945,0.485
			c0.258,0.129,0.517,0.257,0.779,0.381c0.317,0.149,0.636,0.293,0.957,0.433c0.274,0.12,0.549,0.237,0.826,0.351
			c0.314,0.129,0.629,0.254,0.947,0.374c0.296,0.112,0.594,0.22,0.893,0.324c0.306,0.107,0.613,0.213,0.922,0.313
			c0.322,0.104,0.646,0.2,0.971,0.295c0.295,0.086,0.589,0.173,0.886,0.252c0.349,0.093,0.702,0.177,1.055,0.26
			c0.281,0.066,0.561,0.135,0.845,0.195c0.377,0.08,0.758,0.148,1.139,0.217c0.266,0.048,0.531,0.101,0.799,0.143
			c0.41,0.065,0.825,0.116,1.239,0.168c0.244,0.03,0.487,0.067,0.732,0.093c0.458,0.048,0.921,0.08,1.385,0.112
			c0.206,0.014,0.411,0.036,0.618,0.047c0.67,0.035,1.344,0.055,2.023,0.055c0.634,0,1.266-0.016,1.895-0.046
			c8.597-0.422,16.697-3.721,23.225-9.438c0.639-0.559,1.268-1.133,1.875-1.738c0.555-0.557,1.084-1.132,1.6-1.716
			c0.036-0.041,0.075-0.078,0.11-0.118h287.077c15.273,0,27.699,12.426,27.699,27.699
			C492.002,430.476,479.576,442.901,464.303,442.901z M463.974,367.504h-277.61c0.007-0.065,0.01-0.129,0.018-0.193
			c0.088-0.676,0.157-1.355,0.208-2.038c0.014-0.186,0.03-0.371,0.041-0.557c0.047-0.778,0.08-1.56,0.08-2.346v-10.171
			c5.246,2.682,11.175,4.171,17.41,4.171c8.705,0,16.733-2.933,23.164-7.855h152.41c5.522,0,10-4.477,10-10s-4.478-10-10-10H240.879
			c0.926-3.29,1.433-6.754,1.433-10.335v-7.359h57.869h164.131c0.016,0,0.032-0.003,0.048-0.003
			c15.247,0.031,27.643,12.443,27.643,27.698C492.003,353.706,479.715,366.386,463.974,367.504z"/>
	</g>
</g>
<g>
	<g>
		<path d="M102.03,408.13c-0.46-0.46-0.969-0.88-1.519-1.24c-0.54-0.36-1.12-0.67-1.72-0.92c-0.61-0.25-1.23-0.44-1.87-0.57
			c-1.29-0.26-2.62-0.26-3.91,0c-0.64,0.13-1.27,0.32-1.87,0.57c-0.609,0.25-1.189,0.56-1.729,0.92
			c-0.551,0.36-1.061,0.78-1.521,1.24c-1.859,1.86-2.93,4.44-2.93,7.07c0,0.65,0.07,1.31,0.2,1.96c0.13,0.63,0.319,1.26,0.569,1.87
			c0.25,0.6,0.561,1.18,0.92,1.72c0.36,0.55,0.78,1.06,1.24,1.52c0.46,0.47,0.97,0.88,1.521,1.25c0.54,0.36,1.12,0.67,1.729,0.92
			c0.601,0.25,1.23,0.44,1.87,0.57c0.64,0.13,1.3,0.19,1.95,0.19c0.649,0,1.31-0.06,1.96-0.19c0.64-0.13,1.26-0.32,1.87-0.57
			c0.6-0.25,1.18-0.56,1.72-0.92c0.55-0.37,1.059-0.78,1.521-1.25c0.46-0.46,0.88-0.97,1.25-1.52c0.359-0.54,0.67-1.12,0.92-1.72
			c0.25-0.61,0.439-1.24,0.569-1.87c0.13-0.65,0.19-1.31,0.19-1.96C104.96,412.57,103.899,409.99,102.03,408.13z"/>
	</g>
</g>
<g>
	<g>
		<path d="M417.038,405.203H132.183c-5.522,0-10,4.477-10,10s4.478,10,10,10h284.855c5.523,0,10-4.477,10-10
			S422.561,405.203,417.038,405.203z"/>
	</g>
</g>
<g>
	<g>
		<path d="M426.72,336.56c-0.129-0.64-0.32-1.27-0.57-1.87s-0.56-1.18-0.92-1.73c-0.37-0.54-0.79-1.05-1.25-1.52
			c-0.46-0.46-0.97-0.88-1.52-1.24c-0.54-0.36-1.12-0.67-1.72-0.92c-0.61-0.25-1.23-0.44-1.87-0.57c-1.29-0.26-2.62-0.26-3.91,0
			c-0.641,0.13-1.271,0.32-1.87,0.57c-0.61,0.25-1.19,0.56-1.73,0.92c-0.55,0.36-1.06,0.78-1.52,1.24
			c-0.46,0.47-0.88,0.98-1.24,1.52c-0.359,0.55-0.67,1.13-0.92,1.73c-0.25,0.6-0.439,1.23-0.57,1.87
			c-0.13,0.65-0.199,1.3-0.199,1.96c0,0.65,0.069,1.31,0.199,1.95c0.131,0.64,0.32,1.27,0.57,1.87c0.25,0.6,0.561,1.19,0.92,1.73
			c0.36,0.55,0.78,1.06,1.24,1.52c0.46,0.46,0.97,0.88,1.52,1.24c0.54,0.36,1.12,0.67,1.73,0.92c0.6,0.25,1.23,0.44,1.87,0.57
			s1.3,0.2,1.95,0.2c0.649,0,1.31-0.07,1.96-0.2c0.64-0.13,1.26-0.32,1.87-0.57c0.6-0.25,1.18-0.56,1.72-0.92
			c0.55-0.36,1.06-0.78,1.52-1.24c0.46-0.46,0.88-0.97,1.25-1.52c0.36-0.54,0.67-1.13,0.92-1.73c0.25-0.6,0.44-1.23,0.57-1.87
			c0.13-0.64,0.19-1.3,0.19-1.95C426.91,337.86,426.849,337.21,426.72,336.56z"/>
	</g>
</g>
<g>
</g>
<g>
</g>
<g>
</g>
<g>
</g>
<g>
</g>
<g>
</g>
<g>
</g>
<g>
</g>
<g>
</g>
<g>
</g>
<g>
</g>
<g>
</g>
<g>
</g>
<g>
</g>
<g>
</g>
</svg>
