<?xml version="1.0" encoding="iso-8859-1"?>
<!-- Generator: Adobe Illustrator 19.0.0, SVG Export Plug-In . SVG Version: 6.00 Build 0)  -->
<svg version="1.1" id="Capa_1" xmlns="http://www.w3.org/2000/svg" xmlns:xlink="http://www.w3.org/1999/xlink" x="0px" y="0px"
	 viewBox="0 0 512 512" style="enable-background:new 0 0 512 512;" xml:space="preserve">
<g>
	<g>
		<path d="M512,322v-20.001C512,271.121,486.879,246,456.002,246h-85.151c8.197-9.741,13.149-22.3,13.149-35.998V190
			c0-4.764-3.335-8.743-7.795-9.748c1.925-4.711,2.968-9.808,2.968-15.059c0-5.25-1.043-10.348-2.968-15.058
			c4.46-1.005,7.795-4.984,7.795-9.748v-20.002c0-30.877-25.121-55.998-55.998-55.998H183.998
			c-30.877,0-55.998,25.121-55.998,55.998v20.002c0,4.764,3.334,8.743,7.795,9.748c-1.925,4.71-2.968,9.808-2.968,15.058
			c0,5.251,1.043,10.348,2.968,15.058c-4.46,1.005-7.795,4.984-7.795,9.748v20.002c0,13.698,4.951,26.257,13.149,35.998H55.998
			C25.121,246,0,271.121,0,301.999V322c0,4.764,3.334,8.743,7.795,9.748c-1.925,4.711-2.968,9.808-2.968,15.059
			c0,5.251,1.043,10.348,2.967,15.058C3.334,362.87,0,366.849,0,371.613v20.002c0,30.878,25.121,55.998,55.998,55.998h128h144.004
			h128c30.877,0,55.998-25.121,55.998-55.998v-20.002c0-4.764-3.335-8.743-7.795-9.748c1.925-4.711,2.968-9.808,2.968-15.058
			c0-5.251-1.043-10.348-2.967-15.059C508.665,330.742,512,326.764,512,322z M55.998,427.615v-0.002
			c-19.85,0-35.998-16.148-35.998-35.998v-10.002h8.11H128v10.002c0,0.915,0.026,1.823,0.069,2.727
			c0.014,0.297,0.041,0.591,0.06,0.886c0.039,0.606,0.08,1.211,0.138,1.812c0.033,0.346,0.077,0.689,0.117,1.033
			c0.063,0.547,0.129,1.092,0.208,1.634c0.052,0.359,0.111,0.715,0.17,1.071c0.087,0.524,0.179,1.046,0.28,1.565
			c0.069,0.356,0.142,0.711,0.218,1.065c0.111,0.518,0.232,1.033,0.358,1.546c0.084,0.343,0.167,0.686,0.258,1.026
			c0.141,0.53,0.293,1.055,0.449,1.579c0.093,0.312,0.182,0.626,0.28,0.936c0.186,0.587,0.387,1.167,0.592,1.745
			c0.084,0.239,0.162,0.48,0.249,0.717c0.301,0.815,0.619,1.623,0.956,2.421c0.025,0.06,0.054,0.118,0.08,0.178
			c0.313,0.733,0.641,1.457,0.984,2.174c0.121,0.252,0.251,0.499,0.375,0.749c0.258,0.519,0.52,1.037,0.793,1.547
			c0.155,0.289,0.317,0.572,0.477,0.858c0.26,0.464,0.522,0.925,0.795,1.38c0.176,0.295,0.357,0.586,0.539,0.878
			c0.273,0.439,0.552,0.873,0.837,1.304c0.192,0.289,0.385,0.577,0.582,0.862c0.294,0.426,0.594,0.846,0.899,1.263
			c0.2,0.274,0.399,0.549,0.604,0.819c0.326,0.429,0.661,0.85,0.999,1.27c0.197,0.245,0.391,0.493,0.592,0.735
			c0.06,0.072,0.117,0.148,0.177,0.22H55.998z M132.898,349.062c0.013,0.228,0.032,0.455,0.049,0.683
			c0.039,0.535,0.089,1.068,0.149,1.599c0.027,0.241,0.055,0.482,0.087,0.722c0.077,0.583,0.169,1.162,0.271,1.739
			c0.028,0.157,0.05,0.315,0.08,0.472c0.138,0.724,0.296,1.441,0.473,2.153c0.045,0.182,0.098,0.362,0.146,0.543
			c0.142,0.538,0.293,1.072,0.457,1.602c0.071,0.231,0.146,0.461,0.221,0.691c0.167,0.507,0.345,1.01,0.532,1.509
			c0.074,0.198,0.144,0.397,0.222,0.594c0.032,0.081,0.059,0.164,0.092,0.245H31.481c-4.208-3.738-6.654-9.099-6.654-14.807
			s2.446-11.069,6.654-14.807h104.195c-0.032,0.08-0.059,0.162-0.09,0.242c-0.079,0.2-0.15,0.403-0.226,0.604
			c-0.186,0.497-0.363,0.997-0.53,1.502c-0.076,0.23-0.15,0.46-0.221,0.691c-0.165,0.533-0.316,1.069-0.459,1.609
			c-0.047,0.178-0.099,0.354-0.143,0.533c-0.177,0.714-0.336,1.434-0.474,2.159c-0.029,0.151-0.05,0.305-0.077,0.457
			c-0.104,0.581-0.196,1.165-0.273,1.753c-0.032,0.238-0.059,0.477-0.086,0.716c-0.061,0.533-0.11,1.068-0.15,1.605
			c-0.017,0.227-0.036,0.452-0.049,0.68c-0.042,0.749-0.07,1.5-0.07,2.256C132.828,347.562,132.856,348.314,132.898,349.062z
			 M140.964,266.213c-0.209,0.251-0.411,0.509-0.616,0.764c-0.329,0.409-0.656,0.82-0.974,1.239
			c-0.211,0.278-0.416,0.561-0.622,0.843c-0.299,0.409-0.593,0.82-0.881,1.238c-0.202,0.293-0.4,0.587-0.596,0.884
			c-0.28,0.423-0.553,0.849-0.821,1.28c-0.186,0.298-0.371,0.596-0.551,0.898c-0.268,0.448-0.526,0.902-0.782,1.358
			c-0.164,0.292-0.33,0.583-0.489,0.878c-0.269,0.501-0.525,1.009-0.779,1.518c-0.129,0.259-0.264,0.515-0.389,0.776
			c-0.333,0.695-0.651,1.399-0.956,2.11c-0.035,0.081-0.074,0.16-0.108,0.241c-0.336,0.795-0.653,1.599-0.953,2.412
			c-0.09,0.245-0.17,0.494-0.257,0.74c-0.202,0.571-0.401,1.144-0.584,1.723c-0.099,0.314-0.189,0.631-0.283,0.947
			c-0.155,0.521-0.307,1.042-0.447,1.569c-0.091,0.343-0.175,0.688-0.26,1.033c-0.125,0.511-0.245,1.023-0.356,1.538
			c-0.076,0.355-0.149,0.712-0.219,1.07c-0.101,0.518-0.193,1.039-0.28,1.562c-0.059,0.356-0.118,0.713-0.17,1.072
			c-0.079,0.542-0.145,1.088-0.208,1.635c-0.04,0.344-0.083,0.686-0.117,1.032c-0.058,0.601-0.1,1.206-0.138,1.812
			c-0.019,0.296-0.046,0.589-0.06,0.886c-0.044,0.904-0.069,1.813-0.069,2.727V312H28.11H20v-10.001
			C20,282.149,36.148,266,55.998,266h85.138C141.077,266.07,141.023,266.143,140.964,266.213z M364,391.615
			c0,19.85-16.148,35.998-35.998,35.998H183.998c-19.85,0-35.998-16.149-35.998-35.998v-10.002h8.11h199.781H364V391.615z
			 M152.828,346.808c0-0.388,0.014-0.775,0.036-1.159c0.007-0.125,0.02-0.249,0.03-0.374c0.02-0.259,0.042-0.518,0.072-0.775
			c0.017-0.146,0.038-0.291,0.059-0.435c0.033-0.236,0.069-0.471,0.11-0.705c0.026-0.149,0.055-0.298,0.084-0.446
			c0.046-0.231,0.097-0.46,0.151-0.688c0.034-0.144,0.068-0.288,0.105-0.43c0.063-0.24,0.133-0.478,0.204-0.716
			c0.038-0.125,0.073-0.252,0.113-0.376c0.101-0.31,0.21-0.618,0.326-0.922c0.018-0.047,0.033-0.096,0.051-0.143
			c0.136-0.35,0.284-0.696,0.439-1.038c0.048-0.105,0.101-0.208,0.151-0.313c0.113-0.236,0.227-0.47,0.349-0.701
			c0.066-0.126,0.136-0.249,0.205-0.374c0.115-0.207,0.232-0.412,0.354-0.614c0.077-0.127,0.156-0.254,0.235-0.379
			c0.125-0.198,0.255-0.393,0.387-0.587c0.082-0.12,0.164-0.24,0.249-0.358c0.145-0.202,0.295-0.4,0.448-0.596
			c0.08-0.103,0.157-0.207,0.239-0.308c0.194-0.24,0.395-0.473,0.6-0.704c0.047-0.053,0.091-0.108,0.139-0.161
			c0.256-0.282,0.521-0.557,0.795-0.825c0.069-0.068,0.142-0.132,0.212-0.199c0.17-0.162,0.343-0.321,0.519-0.477h193.018
			c0.161,0.143,0.318,0.288,0.474,0.435c0.088,0.083,0.179,0.164,0.266,0.249c0.268,0.263,0.529,0.533,0.78,0.81
			c0.065,0.071,0.125,0.146,0.188,0.218c0.187,0.212,0.372,0.426,0.55,0.645c0.09,0.112,0.176,0.226,0.263,0.339
			c0.144,0.186,0.287,0.374,0.424,0.565c0.09,0.125,0.177,0.253,0.264,0.38c0.127,0.186,0.252,0.374,0.373,0.565
			c0.083,0.131,0.165,0.262,0.245,0.395c0.119,0.197,0.233,0.397,0.345,0.599c0.071,0.129,0.144,0.257,0.212,0.387
			c0.118,0.225,0.23,0.453,0.339,0.682c0.053,0.111,0.109,0.22,0.16,0.331c0.155,0.34,0.302,0.684,0.437,1.032
			c0.021,0.054,0.038,0.109,0.059,0.163c0.113,0.299,0.22,0.6,0.319,0.904c0.04,0.125,0.076,0.252,0.114,0.378
			c0.072,0.237,0.141,0.474,0.204,0.714c0.037,0.143,0.071,0.287,0.105,0.431c0.054,0.228,0.105,0.457,0.151,0.688
			c0.03,0.148,0.058,0.297,0.084,0.446c0.041,0.234,0.077,0.469,0.11,0.705c0.02,0.145,0.042,0.29,0.059,0.435
			c0.03,0.257,0.052,0.516,0.072,0.775c0.01,0.125,0.023,0.249,0.03,0.374c0.022,0.385,0.036,0.771,0.036,1.159
			s-0.014,0.775-0.036,1.159c-0.007,0.126-0.021,0.25-0.03,0.375c-0.02,0.258-0.042,0.516-0.072,0.773
			c-0.017,0.147-0.038,0.293-0.059,0.44c-0.033,0.234-0.069,0.468-0.11,0.701c-0.026,0.15-0.055,0.3-0.085,0.449
			c-0.046,0.229-0.096,0.456-0.15,0.682c-0.035,0.147-0.069,0.293-0.107,0.439c-0.061,0.235-0.13,0.468-0.199,0.7
			c-0.04,0.131-0.076,0.263-0.118,0.392c-0.094,0.291-0.198,0.579-0.305,0.865c-0.025,0.067-0.047,0.136-0.073,0.202
			c-0.134,0.346-0.28,0.687-0.434,1.024c-0.054,0.12-0.115,0.237-0.172,0.355c-0.106,0.22-0.212,0.439-0.326,0.655
			c-0.072,0.137-0.148,0.272-0.224,0.407c-0.108,0.194-0.218,0.387-0.332,0.577c-0.083,0.138-0.168,0.274-0.254,0.41
			c-0.118,0.186-0.24,0.369-0.364,0.551c-0.089,0.131-0.179,0.261-0.271,0.39c-0.134,0.187-0.274,0.37-0.415,0.553
			c-0.09,0.117-0.179,0.235-0.272,0.35c-0.174,0.215-0.356,0.425-0.539,0.633c-0.067,0.076-0.129,0.154-0.197,0.228
			c-0.252,0.277-0.512,0.547-0.78,0.81c-0.083,0.082-0.171,0.159-0.256,0.24c-0.158,0.15-0.319,0.298-0.483,0.443H159.491v0.001
			c-0.171-0.152-0.339-0.306-0.504-0.463c-0.076-0.073-0.155-0.142-0.23-0.216c-0.271-0.266-0.534-0.539-0.789-0.819
			c-0.056-0.062-0.109-0.127-0.164-0.19c-0.195-0.221-0.388-0.444-0.573-0.673c-0.087-0.108-0.17-0.219-0.255-0.329
			c-0.147-0.19-0.292-0.381-0.432-0.575c-0.088-0.123-0.174-0.248-0.259-0.372c-0.129-0.188-0.255-0.378-0.377-0.571
			c-0.083-0.13-0.164-0.261-0.244-0.394c-0.119-0.197-0.232-0.397-0.344-0.598c-0.072-0.129-0.145-0.258-0.213-0.388
			c-0.118-0.225-0.23-0.453-0.339-0.682c-0.053-0.11-0.109-0.219-0.16-0.33c-0.155-0.34-0.301-0.683-0.437-1.032
			c-0.023-0.058-0.041-0.117-0.063-0.176c-0.111-0.294-0.217-0.591-0.314-0.891c-0.041-0.127-0.077-0.256-0.116-0.384
			c-0.071-0.235-0.14-0.47-0.202-0.708c-0.038-0.144-0.072-0.289-0.106-0.434c-0.054-0.227-0.104-0.455-0.15-0.684
			c-0.03-0.149-0.058-0.299-0.085-0.449c-0.041-0.233-0.077-0.468-0.11-0.703c-0.02-0.145-0.042-0.29-0.059-0.436
			c-0.03-0.257-0.052-0.516-0.072-0.775c-0.01-0.125-0.023-0.249-0.03-0.374C152.842,347.582,152.828,347.196,152.828,346.808z
			 M364,312h-8.109H156.11H148v-10.001c0-19.85,16.148-35.999,35.998-35.999h144.004c11.111,0,21.061,5.063,27.669,13h-126.51
			c-5.523,0-10,4.477-10,10s4.477,10,10,10h134.705c0.082,0.99,0.134,1.988,0.134,2.999V312z M364,210.002
			c0,19.85-16.148,35.998-35.998,35.998H183.998C164.148,246,148,229.852,148,210.002V200h8.11h199.781H364V210.002z
			 M152.827,165.193c0-5.708,2.446-11.069,6.654-14.806h193.038c4.208,3.737,6.654,9.099,6.654,14.807s-2.446,11.069-6.654,14.806
			H159.481C155.273,176.263,152.827,170.901,152.827,165.193z M364,130.387h-8.109H156.11H148v-10.002
			c0-1.01,0.052-2.008,0.134-2.998H279.92c5.523,0,10-4.477,10-10s-4.477-10-10-10H156.328c6.609-7.937,16.558-13,27.67-13h144.004
			c19.85,0,35.998,16.148,35.998,35.998V130.387z M492,391.615c0,19.85-16.148,35.998-35.998,35.998h-85.138
			c0.059-0.07,0.114-0.144,0.173-0.214c0.208-0.249,0.408-0.505,0.611-0.758c0.331-0.412,0.66-0.825,0.98-1.246
			c0.209-0.276,0.413-0.556,0.617-0.836c0.3-0.411,0.596-0.825,0.886-1.245c0.201-0.291,0.398-0.584,0.593-0.879
			c0.281-0.424,0.555-0.852,0.824-1.284c0.185-0.297,0.37-0.594,0.549-0.895c0.268-0.449,0.527-0.904,0.783-1.361
			c0.163-0.292,0.329-0.581,0.488-0.876c0.269-0.501,0.525-1.009,0.779-1.519c0.129-0.259,0.264-0.515,0.389-0.776
			c0.333-0.696,0.651-1.4,0.956-2.112c0.035-0.081,0.073-0.159,0.107-0.239c0.336-0.795,0.653-1.6,0.953-2.412
			c0.09-0.245,0.17-0.494,0.257-0.74c0.202-0.571,0.401-1.144,0.584-1.723c0.099-0.313,0.189-0.63,0.283-0.945
			c0.155-0.521,0.307-1.044,0.447-1.571c0.091-0.342,0.175-0.687,0.259-1.032c0.125-0.51,0.245-1.022,0.356-1.538
			c0.077-0.356,0.15-0.713,0.22-1.072c0.101-0.517,0.193-1.038,0.279-1.56c0.059-0.357,0.118-0.714,0.17-1.074
			c0.079-0.542,0.145-1.087,0.208-1.633c0.04-0.344,0.083-0.687,0.117-1.033c0.058-0.601,0.099-1.206,0.138-1.812
			c0.019-0.296,0.046-0.589,0.06-0.886c0.044-0.904,0.069-1.812,0.069-2.727v-10.002h99.891H492V391.615z M379.104,344.554
			c-0.013-0.228-0.033-0.455-0.049-0.683c-0.039-0.535-0.088-1.067-0.149-1.597c-0.028-0.242-0.055-0.483-0.087-0.724
			c-0.077-0.585-0.169-1.165-0.272-1.743c-0.028-0.154-0.049-0.31-0.079-0.464c-0.138-0.725-0.297-1.444-0.474-2.158
			c-0.044-0.179-0.096-0.355-0.143-0.533c-0.143-0.542-0.295-1.08-0.46-1.614c-0.071-0.228-0.144-0.455-0.218-0.682
			c-0.169-0.513-0.349-1.022-0.538-1.527c-0.072-0.192-0.14-0.385-0.215-0.575c-0.033-0.083-0.061-0.169-0.094-0.252H480.52
			c4.207,3.735,6.653,9.096,6.653,14.805c0,5.708-2.446,11.069-6.653,14.806H376.324c0.033-0.082,0.06-0.166,0.092-0.248
			c0.077-0.195,0.146-0.392,0.22-0.588c0.188-0.501,0.366-1.005,0.534-1.514c0.076-0.229,0.149-0.459,0.221-0.689
			c0.164-0.531,0.316-1.067,0.458-1.606c0.047-0.179,0.1-0.357,0.145-0.537c0.177-0.713,0.336-1.432,0.474-2.156
			c0.029-0.154,0.051-0.31,0.079-0.465c0.103-0.578,0.194-1.159,0.272-1.743c0.032-0.241,0.06-0.482,0.087-0.723
			c0.061-0.531,0.11-1.063,0.149-1.598c0.017-0.227,0.036-0.454,0.049-0.682c0.042-0.749,0.07-1.5,0.07-2.255
			S379.146,345.302,379.104,344.554z M492,312h-8.109H384v-10.001c0-0.915-0.026-1.823-0.069-2.727
			c-0.014-0.297-0.041-0.59-0.06-0.886c-0.039-0.606-0.08-1.212-0.138-1.812c-0.034-0.346-0.077-0.688-0.117-1.032
			c-0.063-0.547-0.129-1.093-0.208-1.635c-0.052-0.359-0.111-0.715-0.17-1.072c-0.087-0.523-0.179-1.044-0.28-1.562
			c-0.07-0.358-0.142-0.714-0.219-1.069c-0.111-0.517-0.231-1.03-0.357-1.541c-0.084-0.344-0.168-0.688-0.259-1.029
			c-0.141-0.529-0.293-1.053-0.448-1.575c-0.094-0.314-0.183-0.629-0.281-0.941c-0.185-0.582-0.384-1.158-0.587-1.732
			c-0.086-0.243-0.165-0.49-0.254-0.731c-0.301-0.814-0.617-1.619-0.954-2.415c-0.032-0.076-0.069-0.15-0.101-0.225
			c-0.307-0.716-0.627-1.425-0.962-2.126c-0.124-0.259-0.258-0.512-0.385-0.768c-0.255-0.513-0.513-1.024-0.784-1.528
			c-0.157-0.292-0.322-0.58-0.484-0.869c-0.257-0.459-0.518-0.917-0.787-1.368c-0.179-0.299-0.362-0.595-0.547-0.89
			c-0.27-0.433-0.545-0.863-0.826-1.288c-0.195-0.294-0.391-0.587-0.591-0.877c-0.29-0.421-0.587-0.835-0.888-1.247
			c-0.204-0.279-0.406-0.558-0.615-0.833c-0.32-0.422-0.65-0.836-0.982-1.249c-0.203-0.252-0.402-0.507-0.608-0.755
			c-0.059-0.071-0.114-0.145-0.173-0.215h85.136V266c19.85,0,35.998,16.149,35.998,35.999V312z"/>
	</g>
</g>
<g>
	<g>
		<path d="M327.058,105.43c-0.13-0.63-0.319-1.26-0.569-1.87c-0.25-0.6-0.561-1.18-0.921-1.72c-0.369-0.55-0.779-1.06-1.25-1.52
			c-0.46-0.46-0.97-0.88-1.51-1.25c-0.55-0.36-1.13-0.67-1.729-0.92c-0.601-0.25-1.23-0.44-1.87-0.57c-1.29-0.26-2.62-0.26-3.91,0
			c-0.64,0.13-1.27,0.32-1.87,0.57c-0.6,0.25-1.189,0.56-1.729,0.92c-0.551,0.37-1.061,0.79-1.521,1.25
			c-0.46,0.46-0.88,0.97-1.24,1.52c-0.359,0.54-0.67,1.12-0.92,1.72c-0.25,0.61-0.439,1.24-0.569,1.87
			c-0.131,0.65-0.19,1.31-0.19,1.96c0,2.63,1.06,5.21,2.92,7.07c0.46,0.46,0.969,0.88,1.52,1.24c0.54,0.36,1.13,0.67,1.729,0.92
			c0.601,0.25,1.23,0.44,1.87,0.57c0.65,0.13,1.3,0.2,1.96,0.2c0.65,0,1.3-0.07,1.95-0.2c0.64-0.13,1.27-0.32,1.87-0.57
			c0.6-0.25,1.18-0.56,1.729-0.92c0.54-0.36,1.05-0.78,1.51-1.24c1.87-1.86,2.94-4.44,2.94-7.07
			C327.258,106.74,327.188,106.08,327.058,105.43z"/>
	</g>
</g>
<g>
	<g>
		<path d="M201.631,287.05c-0.13-0.64-0.32-1.27-0.57-1.87c-0.25-0.61-0.56-1.19-0.921-1.73c-0.36-0.55-0.78-1.06-1.24-1.52
			c-0.46-0.46-0.97-0.88-1.52-1.24c-0.54-0.36-1.13-0.67-1.73-0.92c-0.6-0.25-1.23-0.45-1.87-0.57c-1.29-0.26-2.62-0.26-3.91,0
			c-0.63,0.12-1.26,0.32-1.87,0.57c-0.6,0.25-1.18,0.56-1.72,0.92c-0.55,0.36-1.06,0.78-1.52,1.24c-0.47,0.46-0.88,0.97-1.25,1.52
			c-0.36,0.54-0.67,1.12-0.92,1.73c-0.25,0.6-0.44,1.23-0.57,1.87s-0.19,1.3-0.19,1.95c0,0.65,0.06,1.31,0.19,1.95
			c0.13,0.64,0.32,1.27,0.57,1.87c0.25,0.61,0.56,1.19,0.92,1.73c0.37,0.55,0.78,1.06,1.25,1.52c0.46,0.46,0.97,0.88,1.52,1.24
			c0.54,0.36,1.12,0.67,1.72,0.92c0.61,0.25,1.24,0.45,1.87,0.58c0.65,0.13,1.31,0.19,1.96,0.19c0.65,0,1.31-0.06,1.95-0.19
			c0.64-0.13,1.27-0.33,1.87-0.58c0.6-0.25,1.19-0.56,1.73-0.92c0.55-0.36,1.06-0.78,1.52-1.24c0.46-0.46,0.88-0.97,1.24-1.52
			c0.36-0.54,0.671-1.12,0.921-1.73c0.25-0.6,0.44-1.23,0.57-1.87c0.13-0.64,0.2-1.3,0.2-1.95S201.761,287.69,201.631,287.05z"/>
	</g>
</g>
<g>
</g>
<g>
</g>
<g>
</g>
<g>
</g>
<g>
</g>
<g>
</g>
<g>
</g>
<g>
</g>
<g>
</g>
<g>
</g>
<g>
</g>
<g>
</g>
<g>
</g>
<g>
</g>
<g>
</g>
</svg>
