<?xml version="1.0" encoding="iso-8859-1"?>
<!-- Generator: Adobe Illustrator 19.0.0, SVG Export Plug-In . SVG Version: 6.00 Build 0)  -->
<svg version="1.1" id="Capa_1" xmlns="http://www.w3.org/2000/svg" xmlns:xlink="http://www.w3.org/1999/xlink" x="0px" y="0px"
	 viewBox="0 0 512 512" style="enable-background:new 0 0 512 512;" xml:space="preserve">
<g>
	<g>
		<path d="M474.51,332.175h-14.25v-34.319v-48.322c0-17.082-13.897-30.979-30.978-30.979h-24.124V135.91
			c0-17.079-13.896-30.975-30.975-30.975h-76.978c10.163-8.254,19.307-16.824,23.305-23.615c4.188-7.116,9.67-18.395,8.918-34.117
			C328.16,20.734,308.577,0,284.846,0c-13.671,0-25.28,6.615-32.367,11.894C245.51,6.577,234.029,0,219.88,0
			c-23.731,0-43.313,20.734-44.582,47.204c-0.753,15.754,4.732,27.021,8.923,34.125c3.983,6.753,13.172,15.332,23.385,23.606
			h-69.789c-17.08,0-30.975,13.896-30.975,30.975v82.645H82.718c-17.082,0-30.978,13.896-30.978,30.979v48.032v34.609H37.49
			c-17.082,0-30.98,13.894-30.98,30.971v74.449v29.021V502c0,5.522,4.477,10,10,10h478.98c5.523,0,10-4.478,10-10v-35.385v-29.021
			v-74.449C505.49,346.068,491.592,332.175,474.51,332.175z M165.15,311.455c8.663,0,16.86-3.189,23.082-8.979
			c6.381-5.938,9.911-13.862,9.948-22.326l0.112-4.584c3.837,1.477,7.999,2.278,12.298,2.278c4.711,0,9.22-0.938,13.312-2.649
			c3.486,13.803,16.563,24.09,32.118,24.09c0.107,0,0.215-0.002,0.325-0.005c0.108,0.003,0.216,0.005,0.325,0.005
			c8.662,0,16.859-3.188,23.092-8.988c4.518-4.215,7.605-9.421,9.033-15.104c4.093,1.713,8.604,2.651,13.315,2.651
			c4.296,0,8.456-0.801,12.29-2.275l0.11,4.577c0.076,17.275,14.863,31.309,33.03,31.309c8.702,0,16.825-3.246,22.871-9.14
			c6.062-5.908,9.4-13.828,9.4-22.301v-4.499c3.878,1.508,8.111,2.329,12.52,2.329c4.366,0,8.561-0.807,12.41-2.288v4.458
			c0,17.336,14.817,31.441,33.03,31.441c0.835,0,1.665-0.033,2.49-0.092v20.812H71.74v-20.883c1.053,0.096,2.112,0.163,3.18,0.163
			c8.662,0,16.859-3.189,23.082-8.979c6.415-5.97,9.948-13.946,9.948-22.462v-4.458c3.849,1.482,8.044,2.288,12.41,2.288
			c4.099,0,8.074-0.728,11.76-2.077v4.247C132.12,297.35,146.937,311.455,165.15,311.455z M201.447,71.167
			c-4.715-7.992-6.561-14.873-6.172-23.007C196.019,32.633,207.057,20,219.88,20c14.13,0,24.938,11.713,25.01,11.791
			c1.864,2.097,4.522,3.314,7.328,3.355c2.781,0.033,5.498-1.098,7.423-3.14C259.753,31.888,271.338,20,284.846,20
			c12.823,0,23.861,12.633,24.604,28.16c0.389,8.116-1.458,15-6.176,23.015c-4.626,7.86-24.144,23.07-41.377,35.193
			c-0.199,0.12-0.396,0.245-0.588,0.379c-3.422,2.399-6.481,4.489-8.885,6.112c-2.405-1.623-5.466-3.715-8.891-6.114
			c-0.205-0.143-0.414-0.278-0.628-0.405C225.616,94.185,206.046,78.962,201.447,71.167z M126.842,170.915h189.902
			c5.523,0,10-4.477,10-10c0-5.522-4.477-10-10-10H126.842V135.91c0-6.052,4.923-10.975,10.975-10.975h96.762
			c5.343,3.688,9.646,6.527,11.98,8.048c0.232,0.152,0.381,0.249,0.416,0.271c0.829,0.539,1.717,0.942,2.636,1.211
			c0.042,0.013,0.087,0.016,0.129,0.028c0.418,0.116,0.84,0.214,1.266,0.275c0.193,0.028,0.388,0.025,0.583,0.042
			c0.278,0.023,0.556,0.06,0.835,0.06h0.001c0.231,0,0.461-0.033,0.692-0.049c0.242-0.017,0.485-0.017,0.725-0.051
			c0.035-0.005,0.069-0.017,0.104-0.023c1.374-0.211,2.715-0.703,3.926-1.49c0.03-0.02,0.145-0.094,0.331-0.216
			c2.312-1.504,6.658-4.37,12.068-8.105h103.913c6.052,0,10.975,4.923,10.975,10.975v82.645H126.842V170.915z M71.737,249.533h0.003
			c0-6.054,4.925-10.979,10.978-10.979h34.123h278.316h34.124c6.053,0,10.978,4.925,10.978,10.979v41.703
			c-0.807,0.146-1.639,0.219-2.49,0.219c-7.063,0-13.03-5.239-13.03-11.441v-28.739c0-5.046-3.759-9.301-8.766-9.924
			c-0.418-0.052-0.832-0.077-1.243-0.077c-4.521,0-8.554,3.067-9.687,7.552c-1.32,5.226-6.668,9.018-12.715,9.018
			s-11.389-3.789-12.702-9.009c-1.231-4.895-5.913-8.109-10.927-7.484c-5.009,0.62-8.771,4.876-8.771,9.924v16.569
			c0,0.33-0.018,0.648-0.055,0.974c-0.043,0.378-0.065,0.757-0.065,1.137v10.059c0,3.033-1.193,5.867-3.36,7.98
			c-2.289,2.232-5.453,3.461-8.91,3.461c-7.063,0-13.03-5.239-13.03-11.441c0-0.08-0.001-0.16-0.003-0.239l-0.64-26.699
			c-0.115-4.798-3.622-8.837-8.355-9.625c-4.73-0.785-9.359,1.897-11.023,6.399c-1.739,4.707-6.829,7.994-12.38,7.994
			c-6.047,0-11.394-3.793-12.714-9.018c-1.236-4.892-5.916-8.094-10.929-7.475c-5.007,0.623-8.766,4.878-8.766,9.924v16.569
			c0,2.894-1.272,5.674-3.572,7.819c-2.476,2.305-5.779,3.587-9.315,3.62c-0.321-0.012-0.614-0.012-0.931,0
			c-7.002-0.067-12.891-5.278-12.891-11.44v-16.569c0-5.048-3.761-9.304-8.771-9.924c-5.006-0.626-9.695,2.589-10.927,7.483
			c-1.313,5.221-6.656,9.01-12.703,9.01c-5.55,0-10.641-3.287-12.379-7.994c-1.663-4.501-6.288-7.186-11.021-6.399
			c-4.733,0.786-8.241,4.824-8.357,9.621l-0.65,26.699c-0.002,0.081-0.003,0.162-0.003,0.243c0,2.9-1.269,5.676-3.573,7.82
			c-2.509,2.334-5.867,3.62-9.458,3.62c-7.063,0-13.03-5.239-13.03-11.441v-26.699c0-4.844-3.472-8.991-8.24-9.844
			c-4.767-0.847-9.462,1.835-11.141,6.379c-1.739,4.707-6.829,7.994-12.38,7.994c-6.047,0-11.394-3.793-12.714-9.018
			c-1.236-4.892-5.922-8.094-10.929-7.475c-5.007,0.623-8.766,4.878-8.766,9.924v28.739c0,2.9-1.269,5.676-3.572,7.819
			c-2.509,2.335-5.868,3.621-9.458,3.621c-1.084,0-2.15-0.118-3.18-0.35V249.533z M26.51,442.92
			c4.876-2.768,10.352-4.215,16.07-4.215c12.67,0,23.774,7.199,29.185,17.91H26.51V442.92z M485.49,492H26.51v-15.385H85h0.54h84.83
			h0.54h84.82h0.54h84.82h0.54h84.83H427h58.49V492z M98.798,456.615c1.552-3.06,3.587-5.883,6.043-8.339
			c6.172-6.172,14.379-9.571,23.109-9.571c12.671,0,23.775,7.199,29.186,17.91H98.798z M184.168,456.615
			c1.552-3.06,3.587-5.883,6.043-8.339c6.172-6.172,14.375-9.571,23.099-9.571c12.67,0,23.775,7.199,29.186,17.91H184.168z
			 M269.528,456.615c1.551-3.059,3.586-5.881,6.039-8.334c6.183-6.176,14.396-9.576,23.124-9.576
			c12.662,0,23.758,7.198,29.166,17.91H269.528z M354.888,456.615c1.551-3.059,3.585-5.881,6.039-8.334
			c6.183-6.176,14.396-9.576,23.124-9.576c12.665,0,23.765,7.199,29.175,17.91H354.888z M485.489,456.615h-45.255
			c5.411-10.711,16.515-17.91,29.185-17.91c5.718,0,11.194,1.446,16.07,4.215V456.615z M485.49,421.2
			c-5.134-1.642-10.531-2.495-16.07-2.495c-17.464,0-33.076,8.497-42.689,21.763c-9.612-13.266-25.22-21.763-42.681-21.763
			c-14.065,0-27.297,5.477-37.261,15.429c-1.978,1.978-3.78,4.11-5.407,6.36c-9.608-13.281-25.223-21.789-42.692-21.789
			c-14.065,0-27.297,5.477-37.261,15.429c-1.979,1.979-3.781,4.112-5.409,6.362c-9.612-13.282-25.233-21.791-42.71-21.791
			c-14.066,0-27.292,5.479-37.241,15.429c-1.979,1.979-3.781,4.112-5.408,6.362c-9.612-13.282-25.233-21.791-42.71-21.791
			c-14.072,0-27.301,5.479-37.251,15.429c-1.979,1.979-3.781,4.112-5.409,6.362c-9.612-13.282-25.233-21.791-42.71-21.791
			c-5.54,0-10.936,0.853-16.07,2.495v-58.054c-0.001-6.049,4.925-10.971,10.979-10.971h24.25h388.52h24.25
			c6.055,0,10.98,4.922,10.98,10.971V421.2z"/>
	</g>
</g>
<g>
	<g>
		<path d="M363.88,158.959c-0.13-0.64-0.32-1.27-0.57-1.869c-0.25-0.6-0.56-1.18-0.921-1.73c-0.36-0.54-0.78-1.06-1.24-1.52
			c-2.32-2.32-5.78-3.38-9.03-2.73c-0.63,0.131-1.26,0.32-1.87,0.57c-0.6,0.25-1.18,0.561-1.72,0.92c-0.55,0.37-1.06,0.78-1.52,1.24
			c-0.46,0.46-0.88,0.98-1.25,1.52c-0.36,0.551-0.67,1.131-0.92,1.73c-0.25,0.6-0.44,1.23-0.57,1.87c-0.12,0.649-0.19,1.3-0.19,1.96
			c0,0.649,0.07,1.31,0.19,1.95c0.13,0.64,0.32,1.27,0.57,1.87c0.25,0.6,0.56,1.18,0.92,1.729c0.37,0.54,0.79,1.05,1.25,1.521
			c0.46,0.46,0.97,0.869,1.52,1.239c0.54,0.36,1.12,0.67,1.72,0.92c0.61,0.25,1.24,0.44,1.87,0.57c0.65,0.13,1.31,0.2,1.96,0.2
			c2.63,0,5.21-1.07,7.07-2.93c0.46-0.471,0.88-0.98,1.24-1.521c0.36-0.55,0.671-1.13,0.921-1.729c0.25-0.601,0.44-1.23,0.57-1.87
			c0.13-0.641,0.2-1.301,0.2-1.95C364.08,160.259,364.01,159.608,363.88,158.959z"/>
	</g>
</g>
<g>
</g>
<g>
</g>
<g>
</g>
<g>
</g>
<g>
</g>
<g>
</g>
<g>
</g>
<g>
</g>
<g>
</g>
<g>
</g>
<g>
</g>
<g>
</g>
<g>
</g>
<g>
</g>
<g>
</g>
</svg>
