<?xml version="1.0" encoding="iso-8859-1"?>
<!-- Generator: Adobe Illustrator 19.0.0, SVG Export Plug-In . SVG Version: 6.00 Build 0)  -->
<svg version="1.1" id="Capa_1" xmlns="http://www.w3.org/2000/svg" xmlns:xlink="http://www.w3.org/1999/xlink" x="0px" y="0px"
	 viewBox="0 0 512 512" style="enable-background:new 0 0 512 512;" xml:space="preserve">
<g>
	<g>
		<path d="M256,0C168.073,0,96.539,71.534,96.539,159.461c0,77.493,55.568,142.242,128.948,156.52V502c0,5.523,4.477,10,10,10
			h41.027c5.522,0,10-4.477,10-10V315.981c73.379-14.279,128.947-79.027,128.947-156.52C415.461,71.534,343.927,0,256,0z
			 M266.514,492h-21.027V318.58c0.285,0.019,0.571,0.025,0.856,0.042c1.154,0.069,2.312,0.125,3.473,0.17
			c0.459,0.018,0.918,0.039,1.377,0.052c1.597,0.048,3.199,0.079,4.808,0.079c1.61,0,3.214-0.031,4.813-0.079
			c0.449-0.013,0.898-0.034,1.347-0.051c1.179-0.045,2.354-0.102,3.526-0.172c0.275-0.018,0.551-0.024,0.827-0.042V492z
			 M274.357,297.713c-1.069,0.14-2.141,0.269-3.216,0.385c-0.288,0.031-0.574,0.069-0.862,0.099
			c-1.44,0.146-2.885,0.266-4.332,0.367c-0.29,0.021-0.582,0.037-0.873,0.055c-1.293,0.083-2.588,0.15-3.885,0.197
			c-0.201,0.007-0.402,0.016-0.603,0.023c-3.051,0.098-6.108,0.098-9.158,0c-0.229-0.007-0.457-0.018-0.686-0.026
			c-1.254-0.046-2.507-0.111-3.758-0.19c-0.329-0.021-0.66-0.039-0.988-0.063c-1.415-0.1-2.828-0.217-4.235-0.359
			c-0.4-0.041-0.797-0.093-1.196-0.137c-0.953-0.104-1.904-0.217-2.852-0.341c-68.288-8.984-121.173-67.56-121.173-138.261
			C116.539,82.562,179.101,20,256,20s139.461,62.562,139.461,139.461C395.461,230.139,342.612,288.698,274.357,297.713z"/>
	</g>
</g>
<g>
	<g>
		<path d="M256,40c-65.871,0-119.461,53.59-119.461,119.461S190.129,278.922,256,278.922s119.461-53.59,119.461-119.461
			S321.871,40,256,40z M256,258.922c-54.843,0-99.461-44.618-99.461-99.461S201.157,60,256,60s99.461,44.618,99.461,99.461
			S310.843,258.922,256,258.922z"/>
	</g>
</g>
<g>
	<g>
		<path d="M324.615,174.253c-5.179-1.923-10.934,0.712-12.858,5.89c-1.202,3.233-2.704,6.395-4.464,9.396
			c-8.02,13.675-20.911,23.416-36.3,27.429c-15.389,4.013-31.396,1.805-45.071-6.213c-28.283-16.585-37.8-53.088-21.215-81.371
			c16.585-28.283,53.09-37.799,81.371-21.215c4.765,2.794,10.892,1.197,13.685-3.568c2.794-4.764,1.196-10.891-3.567-13.685
			c-37.794-22.163-86.577-9.444-108.741,28.351c-22.163,37.796-9.445,86.577,28.351,108.741
			c12.326,7.228,26.063,10.924,40.005,10.924c6.74,0,13.528-0.864,20.229-2.611c20.559-5.36,37.785-18.381,48.506-36.665
			c2.348-4.003,4.353-8.224,5.958-12.545C332.428,181.934,329.791,176.177,324.615,174.253z"/>
	</g>
</g>
<g>
	<g>
		<path d="M334.67,148.65c-0.13-0.64-0.32-1.27-0.57-1.87c-0.25-0.61-0.56-1.19-0.92-1.73c-0.36-0.55-0.78-1.06-1.24-1.52
			c-0.46-0.46-0.979-0.88-1.52-1.24c-0.55-0.36-1.13-0.67-1.73-0.92c-0.6-0.25-1.229-0.45-1.87-0.57c-1.289-0.26-2.619-0.26-3.909,0
			c-0.641,0.12-1.261,0.32-1.87,0.57c-0.6,0.25-1.181,0.56-1.73,0.92c-0.54,0.36-1.05,0.78-1.51,1.24
			c-0.47,0.46-0.88,0.97-1.25,1.52c-0.36,0.54-0.67,1.12-0.92,1.73c-0.25,0.6-0.44,1.23-0.57,1.87c-0.13,0.64-0.189,1.3-0.189,1.95
			c0,0.65,0.06,1.31,0.189,1.961c0.13,0.63,0.32,1.26,0.57,1.87c0.25,0.6,0.56,1.18,0.92,1.72c0.37,0.55,0.78,1.06,1.25,1.52
			c0.46,0.46,0.97,0.88,1.51,1.25c0.55,0.36,1.13,0.66,1.73,0.91c0.609,0.25,1.229,0.45,1.87,0.58c0.649,0.13,1.31,0.19,1.96,0.19
			c0.649,0,1.31-0.06,1.949-0.19c0.641-0.13,1.271-0.33,1.87-0.58c0.6-0.25,1.181-0.55,1.73-0.91c0.54-0.37,1.06-0.79,1.52-1.25
			c0.46-0.46,0.88-0.97,1.24-1.52c0.36-0.54,0.67-1.12,0.92-1.72c0.25-0.61,0.44-1.24,0.57-1.87c0.13-0.65,0.2-1.31,0.2-1.961
			C334.87,149.95,334.8,149.29,334.67,148.65z"/>
	</g>
</g>
<g>
	<g>
		<path d="M256,120c-21.759,0-39.461,17.702-39.461,39.461c0,21.759,17.702,39.461,39.461,39.461
			c21.759,0,39.461-17.702,39.461-39.461C295.461,137.702,277.759,120,256,120z M256,178.922c-10.731,0-19.461-8.73-19.461-19.461
			S245.269,140,256,140c10.73,0,19.461,8.73,19.461,19.461S266.731,178.922,256,178.922z"/>
	</g>
</g>
<g>
</g>
<g>
</g>
<g>
</g>
<g>
</g>
<g>
</g>
<g>
</g>
<g>
</g>
<g>
</g>
<g>
</g>
<g>
</g>
<g>
</g>
<g>
</g>
<g>
</g>
<g>
</g>
<g>
</g>
</svg>
