<?xml version="1.0" encoding="iso-8859-1"?>
<!-- Generator: Adobe Illustrator 19.0.0, SVG Export Plug-In . SVG Version: 6.00 Build 0)  -->
<svg version="1.1" id="Capa_1" xmlns="http://www.w3.org/2000/svg" xmlns:xlink="http://www.w3.org/1999/xlink" x="0px" y="0px"
	 viewBox="0 0 512 512" style="enable-background:new 0 0 512 512;" xml:space="preserve">
<g>
	<g>
		<path d="M295.082,338.228l-6.763-150.281c-0.779-17.325-14.976-30.897-32.319-30.897c-17.343,0-31.54,13.571-32.319,30.897
			l-6.763,150.281c-0.484,10.772,3.353,20.998,10.805,28.794c7.451,7.794,17.493,12.087,28.277,12.087s20.826-4.293,28.277-12.087
			C291.729,359.226,295.566,349,295.082,338.228z M269.821,353.2c-3.643,3.81-8.55,5.907-13.82,5.907
			c-5.27,0-10.178-2.098-13.82-5.907c-3.643-3.81-5.518-8.809-5.28-14.074l6.761-150.28c0.297-6.614,5.717-11.795,12.338-11.795
			s12.041,5.181,12.338,11.795l6.763,150.28C275.338,344.392,273.463,349.39,269.821,353.2z"/>
	</g>
</g>
<g>
	<g>
		<path d="M404.531,331.983l-27.989-147.808c-3.228-17.039-19.194-28.461-36.371-26.005c-17.168,2.457-29.298,17.903-27.615,35.165
			l14.6,149.723c1.047,10.731,6.293,20.31,14.774,26.972c6.978,5.479,15.354,8.363,24.05,8.363c1.874,0,3.764-0.134,5.656-0.404
			c10.676-1.529,20.009-7.202,26.281-15.975C404.19,353.242,406.538,342.577,404.531,331.983z M381.648,350.382
			c-3.064,4.288-7.627,7.061-12.845,7.808c-5.214,0.748-10.372-0.634-14.519-3.89c-4.146-3.255-6.71-7.936-7.221-13.183
			l-14.601-149.723c-0.64-6.59,3.989-12.486,10.544-13.424c0.598-0.086,1.189-0.127,1.775-0.127c5.849,0,10.99,4.142,12.11,10.054
			l27.99,147.808C385.86,340.883,384.713,346.095,381.648,350.382z"/>
	</g>
</g>
<g>
	<g>
		<path d="M171.829,158.17c-17.152-2.448-33.144,8.965-36.371,26.006l-27.99,147.807c-2.007,10.595,0.342,21.26,6.613,30.032
			c6.272,8.773,15.605,14.446,26.281,15.975c1.894,0.271,3.781,0.404,5.656,0.404c8.694,0,17.072-2.885,24.05-8.363
			c8.481-6.66,13.728-16.239,14.774-26.972l14.601-149.723C201.127,176.073,188.997,160.627,171.829,158.17z M179.537,191.393
			l-14.601,149.723c-0.511,5.246-3.075,9.928-7.221,13.183c-4.145,3.255-9.304,4.636-14.519,3.89
			c-5.218-0.747-9.78-3.52-12.845-7.808c-3.064-4.288-4.211-9.499-3.231-14.678l27.99-147.806
			c1.233-6.506,7.324-10.867,13.886-9.928C175.55,178.907,180.18,184.803,179.537,191.393z"/>
	</g>
</g>
<g>
	<g>
		<path d="M502,431.426h-28.165l-52.03-298.009c-0.01-0.061-0.021-0.121-0.033-0.182c-4.02-20.761-19.228-37.045-38.615-43.086
			c14.895-25.283,8.943-60.151,8.643-61.831c-0.734-4.127-3.965-7.357-8.092-8.092c-1.889-0.337-45.781-7.828-70.775,15.255
			c-6.721-4.205-14.654-6.646-23.151-6.646c-13.505,0-25.599,6.149-33.637,15.792c-8.035-9.847-20.258-16.148-33.93-16.148
			c-8.594,0-16.61,2.499-23.382,6.794c-25.034-22.83-68.66-15.383-70.544-15.046c-4.127,0.734-7.357,3.965-8.092,8.092
			c-0.3,1.68-6.252,36.547,8.644,61.831c-19.386,6.04-34.595,22.326-38.616,43.086c-0.012,0.061-0.023,0.121-0.033,0.182
			L43.25,402.299c-0.001,0.008-0.004,0.015-0.005,0.023l-5.08,29.104H10c-5.523,0-10,4.477-10,10v41.772c0,5.522,4.477,10,10,10h492
			c5.523,0,10-4.478,10-10v-41.772C512,435.903,507.523,431.426,502,431.426z M453.532,431.426h-90.679
			c15.531-15.751,36.705-24.764,59.462-24.764c9.543,0,18.841,1.575,27.711,4.689L453.532,431.426z M372.927,39.099
			c0.879,11.707,0.732,34.655-11.864,47.251c-0.427,0.426-0.874,0.845-1.34,1.255h-28.817c0.065-0.177,0.121-0.358,0.183-0.537
			c0.143-0.408,0.288-0.815,0.419-1.228c0.09-0.281,0.167-0.566,0.251-0.849c0.184-0.623,0.355-1.249,0.512-1.881
			c0.095-0.383,0.192-0.766,0.277-1.152c0.067-0.304,0.124-0.611,0.185-0.917c0.078-0.394,0.153-0.788,0.22-1.184
			c0.05-0.298,0.096-0.597,0.14-0.896c0.062-0.417,0.117-0.835,0.166-1.253c0.033-0.282,0.066-0.564,0.094-0.847
			c0.046-0.466,0.08-0.935,0.111-1.403c0.016-0.237,0.036-0.473,0.047-0.711c0.035-0.708,0.056-1.418,0.056-2.13
			c0-0.921-0.038-1.834-0.094-2.741c-0.017-0.27-0.04-0.538-0.062-0.807c-0.055-0.676-0.124-1.346-0.209-2.013
			c-0.034-0.264-0.063-0.528-0.101-0.79c-0.125-0.857-0.271-1.707-0.445-2.547c-0.055-0.264-0.123-0.524-0.182-0.787
			c-0.134-0.591-0.277-1.178-0.434-1.759c-0.1-0.369-0.204-0.736-0.314-1.102c-0.147-0.49-0.306-0.975-0.469-1.457
			c-0.187-0.553-0.384-1.102-0.592-1.647c-0.195-0.507-0.392-1.013-0.604-1.511c-0.189-0.443-0.392-0.879-0.596-1.316
			c-0.154-0.329-0.312-0.656-0.474-0.98c-0.224-0.451-0.449-0.9-0.689-1.343c-0.144-0.265-0.299-0.523-0.448-0.784
			c-0.261-0.459-0.508-0.926-0.786-1.376C339.904,38.355,361.643,38.25,372.927,39.099z M289.783,48.836
			c6.802,0,12.942,2.875,17.28,7.469c0.436,0.462,0.853,0.938,1.247,1.428c0.089,0.11,0.176,0.223,0.263,0.335
			c0.376,0.484,0.732,0.979,1.067,1.487c0.088,0.133,0.173,0.268,0.258,0.402c0.319,0.504,0.619,1.018,0.898,1.543
			c0.077,0.144,0.15,0.29,0.224,0.436c0.27,0.535,0.522,1.077,0.75,1.63c0.057,0.138,0.11,0.278,0.165,0.418
			c0.225,0.575,0.43,1.157,0.609,1.749c0.036,0.118,0.068,0.238,0.102,0.357c0.177,0.622,0.334,1.25,0.46,1.887
			c0.018,0.089,0.031,0.18,0.048,0.269c0.125,0.671,0.227,1.347,0.294,2.03c0.005,0.054,0.007,0.108,0.012,0.162
			c0.066,0.722,0.104,1.449,0.104,2.181c0,0.611-0.032,1.218-0.079,1.823c-0.01,0.127-0.018,0.254-0.03,0.38
			c-0.054,0.573-0.128,1.142-0.222,1.707c-0.024,0.14-0.052,0.279-0.078,0.418c-0.09,0.484-0.195,0.964-0.315,1.441
			c-0.031,0.122-0.057,0.247-0.09,0.368c-0.136,0.506-0.295,1.004-0.464,1.5c-0.071,0.209-0.144,0.418-0.221,0.624
			c-0.17,0.458-0.352,0.911-0.549,1.357c-0.106,0.238-0.222,0.472-0.335,0.707c-0.126,0.26-0.257,0.517-0.392,0.773
			c-0.219,0.414-0.451,0.821-0.695,1.221c-0.126,0.208-0.251,0.416-0.383,0.619c-0.188,0.289-0.383,0.575-0.584,0.856
			c-0.086,0.121-0.177,0.239-0.266,0.359c-0.209,0.282-0.422,0.561-0.644,0.833h-36.899c-3.413-4.211-5.32-9.509-5.32-14.986
			C266,59.504,276.669,48.836,289.783,48.836z M198.536,70.104c0.005-0.056,0.007-0.113,0.013-0.169
			c0.066-0.679,0.166-1.352,0.29-2.019c0.016-0.086,0.029-0.173,0.046-0.258c0.126-0.64,0.282-1.272,0.459-1.897
			c0.031-0.108,0.06-0.217,0.092-0.325c0.18-0.602,0.387-1.194,0.615-1.779c0.048-0.123,0.096-0.247,0.146-0.369
			c0.232-0.567,0.487-1.125,0.762-1.673c0.064-0.127,0.128-0.253,0.194-0.379c0.284-0.541,0.589-1.071,0.916-1.59
			c0.073-0.116,0.147-0.231,0.222-0.346c0.342-0.523,0.703-1.034,1.087-1.531c0.073-0.095,0.148-0.189,0.222-0.283
			c0.402-0.504,0.824-0.996,1.269-1.47c4.342-4.633,10.51-7.536,17.346-7.536c13.115,0,23.785,10.668,23.785,23.781
			c0,5.646-2.017,11.076-5.623,15.344h-36.313c-0.02-0.024-0.042-0.048-0.063-0.072c-0.398-0.475-0.775-0.965-1.134-1.468
			c-0.063-0.087-0.123-0.176-0.185-0.265c-0.359-0.517-0.701-1.043-1.017-1.586c-0.011-0.02-0.022-0.04-0.033-0.06
			c-0.307-0.531-0.589-1.076-0.855-1.629c-0.042-0.087-0.085-0.173-0.126-0.261c-0.256-0.551-0.49-1.113-0.703-1.683
			c-0.04-0.105-0.077-0.212-0.114-0.317c-0.211-0.587-0.405-1.18-0.569-1.784c-0.004-0.015-0.007-0.03-0.011-0.044
			c-0.16-0.592-0.29-1.192-0.404-1.797c-0.021-0.109-0.043-0.218-0.062-0.328c-0.103-0.596-0.184-1.197-0.241-1.802
			c-0.011-0.118-0.019-0.236-0.029-0.354c-0.05-0.628-0.084-1.259-0.084-1.894C198.434,71.537,198.472,70.818,198.536,70.104z
			 M139.073,39.099c11.246-0.843,32.868-0.74,45.719,10.437c-0.196,0.321-0.366,0.656-0.553,0.982
			c-0.211,0.367-0.423,0.733-0.624,1.107c-0.215,0.4-0.419,0.805-0.621,1.212c-0.191,0.385-0.375,0.774-0.555,1.165
			c-0.176,0.381-0.355,0.76-0.519,1.146c-0.303,0.711-0.588,1.431-0.854,2.16c-0.118,0.324-0.222,0.652-0.332,0.979
			c-0.176,0.522-0.345,1.048-0.502,1.579c-0.097,0.328-0.192,0.657-0.281,0.987c-0.178,0.659-0.339,1.324-0.487,1.995
			c-0.04,0.184-0.089,0.366-0.127,0.55c-0.175,0.849-0.32,1.71-0.445,2.576c-0.037,0.257-0.066,0.515-0.098,0.772
			c-0.084,0.664-0.153,1.332-0.207,2.005c-0.021,0.263-0.044,0.526-0.06,0.79c-0.056,0.9-0.093,1.805-0.093,2.719
			c0,0.73,0.022,1.458,0.059,2.183c0.012,0.233,0.032,0.463,0.047,0.695c0.033,0.496,0.07,0.99,0.12,1.483
			c0.027,0.267,0.059,0.533,0.091,0.798c0.055,0.462,0.117,0.923,0.186,1.383c0.04,0.267,0.082,0.533,0.127,0.799
			c0.08,0.472,0.171,0.942,0.267,1.41c0.049,0.24,0.095,0.481,0.148,0.72c0.126,0.566,0.265,1.128,0.413,1.687
			c0.035,0.134,0.065,0.27,0.102,0.404c0.191,0.694,0.399,1.383,0.623,2.066c0.056,0.169,0.119,0.336,0.177,0.505
			c0.138,0.404,0.273,0.81,0.423,1.21h-28.939c-0.465-0.409-0.912-0.827-1.337-1.253C138.341,73.753,138.194,50.799,139.073,39.099z
			 M108.648,144.016h199.119c5.522,0,10-4.478,10-10c0-5.523-4.478-10-10-10H115.166c6.567-9.978,17.857-16.41,30.381-16.41h3.252
			h51.091h0.001h44.651h22.506h45.442h0.027H363.2h3.252c17.344,0,32.329,12.335,35.666,29.345l44.08,252.476
			c-7.772-1.834-15.757-2.764-23.884-2.764c-33.185,0-63.638,15.466-83.181,41.793c-19.535-26.328-49.987-41.793-83.174-41.793
			c-33.187,0-63.638,15.465-83.174,41.793c-19.541-26.327-49.995-41.793-83.18-41.793c-8.096,0-16.054,0.925-23.805,2.747
			L108.648,144.016z M315.417,431.426H196.503c15.526-15.75,36.699-24.764,59.457-24.764S299.891,415.676,315.417,431.426z
			 M61.975,411.327c8.848-3.097,18.12-4.664,27.631-4.664c22.758,0,43.931,9.012,59.461,24.764H58.465L61.975,411.327z
			 M492.001,473.198L492.001,473.198H20v-21.771h26.569h122.94h6.557h159.789h6.557h123.019h26.57V473.198z"/>
	</g>
</g>
<g>
	<g>
		<path d="M354.9,132.064c-0.13-0.64-0.319-1.27-0.569-1.869c-0.25-0.61-0.561-1.19-0.92-1.73c-0.36-0.55-0.78-1.06-1.24-1.52
			c-0.46-0.46-0.97-0.881-1.521-1.24c-0.54-0.36-1.119-0.67-1.729-0.92c-0.601-0.25-1.23-0.44-1.87-0.57
			c-3.25-0.65-6.7,0.41-9.02,2.73c-0.471,0.46-0.881,0.97-1.25,1.52c-0.36,0.54-0.671,1.12-0.921,1.73
			c-0.25,0.6-0.439,1.229-0.569,1.869c-0.13,0.641-0.19,1.301-0.19,1.95c0,0.65,0.061,1.311,0.19,1.96
			c0.131,0.629,0.32,1.26,0.57,1.869c0.25,0.601,0.561,1.18,0.921,1.72c0.369,0.551,0.789,1.061,1.25,1.521
			c1.859,1.87,4.439,2.93,7.069,2.93c0.65,0,1.311-0.059,1.95-0.189c0.64-0.13,1.269-0.32,1.87-0.57
			c0.61-0.25,1.189-0.56,1.729-0.92c0.551-0.37,1.061-0.79,1.521-1.25c0.46-0.46,0.88-0.97,1.24-1.521
			c0.359-0.54,0.67-1.119,0.92-1.72c0.25-0.609,0.439-1.24,0.569-1.87c0.131-0.649,0.2-1.31,0.2-1.96
			C355.1,133.365,355.031,132.705,354.9,132.064z"/>
	</g>
</g>
<g>
</g>
<g>
</g>
<g>
</g>
<g>
</g>
<g>
</g>
<g>
</g>
<g>
</g>
<g>
</g>
<g>
</g>
<g>
</g>
<g>
</g>
<g>
</g>
<g>
</g>
<g>
</g>
<g>
</g>
</svg>
