<?xml version="1.0" encoding="iso-8859-1"?>
<!-- Generator: Adobe Illustrator 19.0.0, SVG Export Plug-In . SVG Version: 6.00 Build 0)  -->
<svg version="1.1" id="Capa_1" xmlns="http://www.w3.org/2000/svg" xmlns:xlink="http://www.w3.org/1999/xlink" x="0px" y="0px"
	 viewBox="0 0 512 512" style="enable-background:new 0 0 512 512;" xml:space="preserve">
<g>
	<g>
		<path d="M427.707,287.405l-43.165-74.765l-0.001-0.002L264.66,5c-1.786-3.094-5.087-5-8.66-5s-6.874,1.906-8.66,5L127.46,212.639
			l-0.001,0.002l-43.165,74.765c-2.191,3.795-1.656,8.573,1.319,11.79c21.512,23.26,47.023,41.579,75.826,54.45
			c15.868,7.091,32.303,12.303,49.164,15.646v97.592c0,24.877,20.239,45.116,45.116,45.116h0.564
			c24.877,0,45.116-20.239,45.116-45.116v-97.592c16.861-3.343,33.296-8.555,49.164-15.646c28.802-12.871,54.314-31.19,75.826-54.45
			C429.363,295.978,429.897,291.2,427.707,287.405z M256,30l108.108,187.249c-0.218,0.311-0.435,0.623-0.655,0.932
			c-0.43,0.604-0.862,1.207-1.302,1.803c-0.374,0.507-0.754,1.009-1.134,1.51c-0.449,0.592-0.899,1.183-1.358,1.766
			c-0.384,0.489-0.774,0.97-1.164,1.452c-0.469,0.58-0.938,1.161-1.417,1.733c-0.393,0.469-0.793,0.93-1.191,1.393
			c-0.49,0.569-0.978,1.139-1.476,1.699c-0.399,0.448-0.807,0.887-1.211,1.33c-0.511,0.559-1.021,1.12-1.541,1.669
			c-0.401,0.423-0.81,0.836-1.216,1.253c-0.538,0.553-1.073,1.109-1.619,1.651c-0.393,0.39-0.796,0.77-1.193,1.155
			c-0.572,0.554-1.141,1.111-1.722,1.654c-0.361,0.337-0.731,0.663-1.095,0.995c-0.63,0.576-1.258,1.155-1.898,1.717
			c-0.218,0.191-0.442,0.374-0.661,0.564c-2.494,2.161-5.064,4.221-7.703,6.18c-0.307,0.228-0.609,0.464-0.918,0.689
			c-0.683,0.498-1.377,0.979-2.069,1.463c-0.403,0.282-0.801,0.57-1.207,0.848c-0.666,0.455-1.342,0.895-2.016,1.337
			c-0.441,0.29-0.879,0.585-1.323,0.869c-0.665,0.425-1.339,0.836-2.011,1.249c-0.464,0.285-0.925,0.574-1.392,0.853
			c-0.667,0.398-1.341,0.783-2.015,1.169c-0.483,0.277-0.964,0.557-1.45,0.827c-0.673,0.374-1.352,0.736-2.031,1.098
			c-0.496,0.265-0.991,0.532-1.491,0.79c-0.681,0.352-1.367,0.693-2.054,1.033c-0.507,0.25-1.013,0.503-1.523,0.747
			c-0.69,0.331-1.385,0.651-2.082,0.97c-0.515,0.236-1.031,0.471-1.55,0.701c-0.7,0.309-1.404,0.61-2.109,0.906
			c-0.523,0.22-1.047,0.439-1.573,0.653c-0.71,0.288-1.424,0.569-2.139,0.844c-0.529,0.204-1.058,0.405-1.59,0.602
			c-0.722,0.267-1.446,0.528-2.173,0.783c-0.532,0.187-1.066,0.369-1.601,0.549c-0.733,0.247-1.469,0.488-2.208,0.722
			c-0.535,0.169-1.072,0.334-1.609,0.496c-0.746,0.226-1.494,0.447-2.245,0.66c-0.536,0.152-1.074,0.297-1.612,0.442
			c-0.759,0.205-1.52,0.406-2.284,0.598c-0.534,0.134-1.07,0.26-1.606,0.387c-0.776,0.184-1.552,0.366-2.331,0.536
			c-0.528,0.115-1.058,0.221-1.587,0.33c-0.794,0.163-1.588,0.325-2.385,0.473c-0.518,0.096-1.038,0.183-1.557,0.273
			c-0.816,0.142-1.632,0.284-2.453,0.41c-0.497,0.077-0.996,0.142-1.494,0.213c-0.848,0.121-1.696,0.243-2.549,0.348
			c-0.463,0.057-0.929,0.102-1.393,0.154c-0.891,0.1-1.782,0.202-2.677,0.284c-0.402,0.037-0.807,0.062-1.21,0.096
			c-0.961,0.079-1.923,0.159-2.888,0.218c-0.251,0.015-0.504,0.022-0.755,0.036c-2.452,0.135-4.915,0.212-7.392,0.212
			c-2.476,0-4.94-0.077-7.392-0.212c-0.251-0.014-0.504-0.021-0.755-0.036c-0.966-0.059-1.927-0.139-2.888-0.218
			c-0.403-0.033-0.808-0.059-1.21-0.096c-0.895-0.082-1.786-0.184-2.677-0.284c-0.464-0.052-0.93-0.097-1.393-0.154
			c-0.852-0.104-1.7-0.227-2.549-0.348c-0.498-0.071-0.997-0.137-1.494-0.213c-0.82-0.127-1.636-0.269-2.453-0.41
			c-0.519-0.09-1.04-0.177-1.557-0.273c-0.798-0.148-1.592-0.311-2.385-0.473c-0.53-0.109-1.06-0.215-1.587-0.33
			c-0.78-0.17-1.556-0.352-2.331-0.536c-0.536-0.127-1.072-0.253-1.606-0.387c-0.764-0.191-1.524-0.393-2.284-0.598
			c-0.538-0.145-1.076-0.29-1.612-0.442c-0.751-0.213-1.499-0.434-2.245-0.66c-0.537-0.163-1.074-0.327-1.609-0.496
			c-0.738-0.234-1.474-0.475-2.208-0.722c-0.535-0.18-1.069-0.363-1.601-0.549c-0.727-0.255-1.451-0.516-2.173-0.783
			c-0.532-0.197-1.062-0.398-1.591-0.602c-0.715-0.275-1.428-0.556-2.138-0.844c-0.527-0.214-1.051-0.433-1.574-0.653
			c-0.705-0.297-1.409-0.597-2.109-0.906c-0.519-0.229-1.034-0.465-1.55-0.701c-0.696-0.319-1.391-0.639-2.082-0.97
			c-0.51-0.244-1.016-0.496-1.523-0.747c-0.687-0.34-1.373-0.681-2.054-1.033c-0.5-0.259-0.995-0.525-1.491-0.79
			c-0.679-0.362-1.358-0.724-2.031-1.098c-0.486-0.271-0.967-0.551-1.45-0.827c-0.674-0.386-1.349-0.771-2.015-1.169
			c-0.467-0.279-0.928-0.568-1.392-0.853c-0.673-0.413-1.346-0.824-2.011-1.249c-0.444-0.284-0.882-0.579-1.323-0.869
			c-0.674-0.442-1.35-0.882-2.016-1.337c-0.406-0.277-0.804-0.566-1.207-0.848c-0.692-0.484-1.386-0.965-2.069-1.463
			c-0.309-0.225-0.611-0.461-0.918-0.689c-2.639-1.959-5.208-4.02-7.702-6.18c-0.219-0.19-0.443-0.373-0.661-0.564
			c-0.641-0.562-1.268-1.142-1.898-1.717c-0.364-0.333-0.734-0.658-1.095-0.995c-0.581-0.543-1.15-1.1-1.722-1.654
			c-0.398-0.385-0.8-0.765-1.193-1.155c-0.546-0.542-1.081-1.099-1.619-1.651c-0.406-0.417-0.815-0.83-1.216-1.253
			c-0.52-0.549-1.03-1.11-1.541-1.669c-0.405-0.442-0.812-0.881-1.211-1.33c-0.498-0.559-0.985-1.128-1.475-1.697
			c-0.399-0.464-0.8-0.926-1.194-1.396c-0.477-0.57-0.945-1.15-1.413-1.729c-0.391-0.483-0.782-0.966-1.167-1.455
			c-0.458-0.583-0.908-1.174-1.357-1.766c-0.38-0.501-0.76-1.002-1.135-1.51c-0.439-0.596-0.871-1.199-1.302-1.803
			c-0.22-0.309-0.438-0.62-0.655-0.932L256,30z M281.398,466.884L281.398,466.884c0,13.85-11.267,25.116-25.116,25.116h-0.564
			c-13.849,0-25.116-11.267-25.116-25.116v-94.525c8.382,0.908,16.852,1.373,25.398,1.373c8.546,0,17.016-0.466,25.398-1.373
			V466.884z M271.902,353.128c-0.116,0.009-0.233,0.016-0.349,0.024c-1.328,0.099-2.659,0.178-3.991,0.251
			c-0.74,0.04-1.481,0.077-2.222,0.109c-0.648,0.029-1.297,0.051-1.946,0.074c-4.926,0.168-9.862,0.168-14.788,0
			c-0.649-0.023-1.298-0.045-1.946-0.074c-0.741-0.032-1.482-0.07-2.222-0.109c-1.332-0.073-2.663-0.153-3.991-0.251
			c-0.117-0.008-0.233-0.015-0.35-0.024c-50.706-3.849-98.792-25.977-134.733-62.22l31.632-54.788
			c0.482,0.608,0.978,1.201,1.468,1.801c0.29,0.355,0.576,0.714,0.869,1.066c0.792,0.952,1.598,1.89,2.411,2.82
			c0.194,0.222,0.383,0.449,0.578,0.669c2.058,2.327,4.179,4.584,6.362,6.769c0.226,0.226,0.458,0.445,0.685,0.67
			c0.854,0.844,1.713,1.68,2.584,2.501c0.338,0.319,0.682,0.63,1.023,0.946c0.774,0.716,1.551,1.427,2.338,2.126
			c0.388,0.344,0.78,0.683,1.171,1.022c0.757,0.658,1.517,1.309,2.286,1.951c0.412,0.344,0.826,0.685,1.241,1.024
			c0.768,0.627,1.542,1.246,2.321,1.858c0.417,0.327,0.834,0.654,1.254,0.977c0.805,0.618,1.617,1.225,2.434,1.826
			c0.4,0.295,0.799,0.592,1.202,0.882c0.886,0.639,1.781,1.263,2.68,1.882c0.34,0.235,0.678,0.474,1.02,0.706
			c1.107,0.75,2.225,1.482,3.351,2.201c0.139,0.089,0.275,0.182,0.415,0.27c2.582,1.638,5.214,3.193,7.89,4.67
			c0.312,0.172,0.629,0.336,0.942,0.506c1.008,0.547,2.02,1.087,3.041,1.611c0.411,0.211,0.826,0.415,1.239,0.622
			c0.935,0.469,1.874,0.932,2.819,1.382c0.452,0.215,0.907,0.425,1.362,0.636c0.922,0.428,1.847,0.847,2.778,1.256
			c0.465,0.204,0.932,0.406,1.399,0.606c0.941,0.402,1.886,0.793,2.836,1.176c0.457,0.184,0.913,0.369,1.372,0.549
			c0.993,0.389,1.992,0.765,2.993,1.133c0.417,0.153,0.832,0.311,1.251,0.46c1.12,0.401,2.248,0.784,3.378,1.159
			c0.302,0.1,0.602,0.206,0.905,0.304c2.939,0.953,5.91,1.819,8.914,2.594c0.085,0.022,0.171,0.041,0.257,0.063
			c1.384,0.354,2.775,0.689,4.171,1.004c0.348,0.079,0.698,0.149,1.046,0.225c1.141,0.249,2.284,0.49,3.433,0.713
			c0.439,0.086,0.88,0.164,1.32,0.245c1.069,0.198,2.141,0.388,3.216,0.563c0.475,0.077,0.951,0.151,1.428,0.224
			c1.056,0.162,2.115,0.314,3.177,0.454c0.48,0.063,0.959,0.125,1.44,0.184c1.081,0.132,2.165,0.251,3.252,0.36
			c0.456,0.046,0.912,0.094,1.369,0.136c1.153,0.106,2.31,0.194,3.468,0.274c0.389,0.027,0.778,0.059,1.168,0.083
			c1.351,0.083,2.707,0.145,4.065,0.192c0.195,0.007,0.389,0.019,0.583,0.025c1.596,0.05,3.194,0.08,4.798,0.08
			s3.203-0.03,4.798-0.08c0.195-0.006,0.389-0.018,0.583-0.025c1.358-0.047,2.714-0.11,4.065-0.192
			c0.39-0.024,0.779-0.056,1.168-0.083c1.159-0.08,2.315-0.168,3.468-0.274c0.457-0.042,0.913-0.09,1.369-0.136
			c1.087-0.109,2.171-0.228,3.252-0.36c0.481-0.059,0.96-0.121,1.44-0.184c1.062-0.14,2.121-0.292,3.177-0.454
			c0.476-0.073,0.952-0.146,1.428-0.224c1.076-0.176,2.147-0.365,3.216-0.563c0.44-0.082,0.881-0.16,1.32-0.245
			c1.149-0.223,2.292-0.464,3.433-0.713c0.348-0.076,0.699-0.146,1.046-0.225c1.397-0.316,2.787-0.65,4.171-1.004
			c0.085-0.022,0.172-0.041,0.257-0.063c3.004-0.774,5.975-1.64,8.914-2.594c0.303-0.098,0.603-0.204,0.905-0.304
			c1.131-0.375,2.258-0.758,3.378-1.159c0.418-0.15,0.834-0.307,1.251-0.46c1.002-0.368,2-0.744,2.993-1.133
			c0.459-0.18,0.915-0.365,1.372-0.549c0.949-0.383,1.895-0.774,2.835-1.176c0.468-0.2,0.934-0.402,1.399-0.606
			c0.931-0.409,1.856-0.828,2.778-1.256c0.455-0.211,0.91-0.421,1.362-0.636c0.945-0.45,1.884-0.913,2.819-1.382
			c0.413-0.207,0.828-0.411,1.239-0.622c1.021-0.524,2.033-1.064,3.041-1.611c0.313-0.17,0.63-0.334,0.942-0.506
			c2.676-1.476,5.307-3.032,7.89-4.67c0.139-0.088,0.275-0.181,0.414-0.27c1.126-0.719,2.244-1.451,3.351-2.201
			c0.342-0.232,0.679-0.471,1.02-0.706c0.899-0.619,1.794-1.243,2.68-1.882c0.403-0.29,0.801-0.588,1.201-0.882
			c0.816-0.601,1.629-1.208,2.434-1.826c0.42-0.323,0.837-0.649,1.254-0.977c0.779-0.611,1.553-1.23,2.321-1.858
			c0.415-0.339,0.829-0.68,1.241-1.024c0.768-0.642,1.529-1.293,2.286-1.951c0.391-0.34,0.783-0.678,1.171-1.022
			c0.787-0.699,1.565-1.41,2.338-2.126c0.341-0.315,0.685-0.627,1.023-0.946c0.872-0.822,1.731-1.658,2.584-2.501
			c0.227-0.225,0.459-0.444,0.685-0.67c2.183-2.185,4.304-4.441,6.362-6.769c0.195-0.221,0.384-0.448,0.578-0.669
			c0.813-0.93,1.619-1.868,2.411-2.82c0.293-0.352,0.579-0.711,0.869-1.066c0.49-0.6,0.987-1.193,1.468-1.801l31.632,54.788
			C370.694,327.151,322.608,349.279,271.902,353.128z"/>
	</g>
</g>
<g>
	<g>
		<path d="M150.904,278.054c-0.673-0.739-1.471-1.385-2.383-1.91c-4.576-2.637-10.386-1.219-13.296,3.095
			c-0.977,1.44-1.53,3.06-1.678,4.699c-0.073,0.801-0.047,1.605,0.071,2.395c0.361,2.4,1.592,4.676,3.631,6.311l0.001,0.001
			c0.003,0.003,0.006,0.005,0.01,0.008c0.001,0.001,0.001,0.001,0.002,0.002c0.003,0.002,0.006,0.005,0.008,0.007
			c0.002,0.001,0.003,0.002,0.004,0.003c0.002,0.002,0.005,0.004,0.007,0.006s0.003,0.003,0.005,0.005
			c0.002,0.001,0.004,0.003,0.006,0.005c0.003,0.002,0.005,0.004,0.007,0.006c0.001,0.001,0.003,0.002,0.004,0.004
			c0.004,0.003,0.008,0.006,0.012,0.009l0.237,0.188c1.834,1.444,4.016,2.146,6.182,2.146c2.959,0,5.889-1.308,7.862-3.811
			c1.445-1.834,2.146-4.018,2.146-6.185C153.741,282.491,152.772,279.966,150.904,278.054z"/>
	</g>
</g>
<g>
	<g>
		<path d="M377.156,279.85l-0.04-0.07c-2.758-4.785-8.853-6.394-13.637-3.635c-0.685,0.395-1.305,0.859-1.856,1.379
			c-10.888,8.49-22.841,15.669-35.541,21.344c-22.073,9.864-45.652,14.865-70.082,14.865s-48.009-5.001-70.083-14.865
			c-3.847-1.719-7.667-3.596-11.357-5.579c-4.863-2.615-10.928-0.79-13.543,4.074c-2.614,4.865-0.79,10.929,4.074,13.543
			c4.116,2.212,8.377,4.306,12.666,6.222c24.657,11.018,50.982,16.605,78.242,16.605s53.585-5.587,78.242-16.605
			c14.47-6.466,28.076-14.686,40.44-24.429C378.582,289.625,379.636,284.154,377.156,279.85z"/>
	</g>
</g>
<g>
	<g>
		<path d="M256,90.333c-5.523,0-10,4.478-10,10V113c0,5.522,4.477,10,10,10s10-4.478,10-10v-12.667
			C266,94.811,261.523,90.333,256,90.333z"/>
	</g>
</g>
<g>
	<g>
		<path d="M256,201c-5.523,0-10,4.477-10,10v12.667c0,5.522,4.477,10,10,10s10-4.478,10-10V211C266,205.477,261.523,201,256,201z"/>
	</g>
</g>
<g>
	<g>
		<path d="M326,191c-5.523,0-10,4.477-10,10v12.667c0,5.522,4.477,10,10,10s10-4.478,10-10V201C336,195.477,331.523,191,326,191z"/>
	</g>
</g>
<g>
	<g>
		<path d="M186,191c-5.523,0-10,4.477-10,10v12.667c0,5.522,4.477,10,10,10s10-4.478,10-10V201C196,195.477,191.523,191,186,191z"/>
	</g>
</g>
<g>
	<g>
		<path d="M222.134,143.167c-5.523,0-10,4.477-10,10v12.666c0,5.522,4.477,10,10,10c5.523,0,10-4.477,10-10v-12.666
			C232.134,147.644,227.657,143.167,222.134,143.167z"/>
	</g>
</g>
<g>
	<g>
		<path d="M289.866,143.167c-5.523,0-10,4.477-10,10v12.666c0,5.522,4.477,10,10,10s10-4.477,10-10v-12.666
			C299.866,147.644,295.389,143.167,289.866,143.167z"/>
	</g>
</g>
<g>
</g>
<g>
</g>
<g>
</g>
<g>
</g>
<g>
</g>
<g>
</g>
<g>
</g>
<g>
</g>
<g>
</g>
<g>
</g>
<g>
</g>
<g>
</g>
<g>
</g>
<g>
</g>
<g>
</g>
</svg>
