<?xml version="1.0" encoding="iso-8859-1"?>
<!-- Generator: Adobe Illustrator 19.0.0, SVG Export Plug-In . SVG Version: 6.00 Build 0)  -->
<svg version="1.1" id="Capa_1" xmlns="http://www.w3.org/2000/svg" xmlns:xlink="http://www.w3.org/1999/xlink" x="0px" y="0px"
	 viewBox="0 0 512.001 512.001" style="enable-background:new 0 0 512.001 512.001;" xml:space="preserve">
<g>
	<g>
		<path d="M394.145,55.656V38.89c0-21.444-17.446-38.89-38.89-38.89H156.747c-21.444,0-38.89,17.446-38.89,38.89v16.766
			c0,11.455,4.981,21.766,12.887,28.89c-7.907,7.123-12.887,17.435-12.887,28.89v16.766c0,11.455,4.981,21.766,12.887,28.89
			c-7.907,7.123-12.887,17.435-12.887,28.89v16.766c0,11.29,4.84,21.467,12.549,28.578c-0.242,0.22-0.488,0.433-0.725,0.66
			c-7.514,7.188-11.824,17.332-11.824,27.832v16.766c0,11.594,5.105,22.014,13.179,29.145c-8.113,7.256-13.179,17.719-13.179,29.343
			v16.766c0,21.444,17.446,38.89,38.89,38.89h53.856v74.157c0,24.877,20.239,45.116,45.116,45.116h0.564
			c24.877,0,45.116-20.239,45.116-45.116v-74.157h53.856c21.444,0,38.89-17.446,38.89-38.89v-16.766
			c0-11.625-5.066-22.089-13.18-29.345c8.074-7.131,13.18-17.549,13.18-29.143v-16.766c0-10.5-4.31-20.645-11.824-27.832
			c-0.237-0.227-0.483-0.44-0.725-0.66c7.709-7.111,12.549-17.288,12.549-28.578V187.98c0-11.455-4.981-21.766-12.887-28.89
			c7.907-7.123,12.887-17.435,12.887-28.89v-16.766c0-11.457-4.983-21.77-12.892-28.894
			C389.159,77.418,394.145,67.111,394.145,55.656z M137.857,38.89c0-10.416,8.474-18.89,18.89-18.89h198.508
			c10.415,0,18.89,8.474,18.89,18.89v16.766c0,10.416-8.474,18.89-18.89,18.89H347v-0.001c-5.523,0-10,4.477-10,10v26.799
			c0,6.617-5.383,12-12,12s-12-5.383-12-12c0-5.523-4.477-10-10-10s-10,4.477-10,10v25.165c0,6.82-5.495,12.582-12,12.582
			s-12-5.762-12-12.582V84.545c0-5.523-4.477-10-10-10H156.747c-10.416,0-18.89-8.474-18.89-18.89V38.89z M374.143,113.436v16.766
			c0,10.416-8.474,18.89-18.89,18.89h-44.735v-0.001c0.037-0.089,0.066-0.182,0.102-0.271c0.188-0.468,0.366-0.941,0.533-1.42
			c0.052-0.15,0.106-0.298,0.156-0.449c0.197-0.589,0.38-1.185,0.543-1.789c0.025-0.092,0.045-0.185,0.069-0.277
			c0.138-0.528,0.262-1.061,0.374-1.598c0.035-0.166,0.069-0.331,0.101-0.498c0.121-0.627,0.23-1.258,0.315-1.898
			c3.786,1.581,7.936,2.453,12.288,2.453c17.645,0,32-14.355,32-32V94.626C366.599,95.51,374.143,103.608,374.143,113.436z
			 M137.857,113.435c0-10.416,8.474-18.89,18.89-18.89H249v41.964c0,0.56,0.014,1.116,0.042,1.669
			c0.008,0.169,0.027,0.335,0.037,0.502c0.025,0.382,0.048,0.764,0.086,1.143c0.022,0.223,0.056,0.442,0.082,0.664
			c0.038,0.32,0.072,0.642,0.12,0.96c0.035,0.23,0.08,0.457,0.12,0.686c0.052,0.304,0.1,0.61,0.16,0.911
			c0.048,0.24,0.108,0.476,0.161,0.714c0.064,0.285,0.123,0.572,0.194,0.854c0.062,0.245,0.135,0.485,0.202,0.727
			c0.075,0.271,0.145,0.545,0.227,0.813c0.073,0.239,0.156,0.472,0.234,0.708c0.088,0.267,0.172,0.536,0.266,0.8
			c0.082,0.229,0.174,0.452,0.261,0.678c0.096,0.251,0.187,0.505,0.289,0.752h-94.736c-10.415,0.001-18.889-8.473-18.889-18.889
			V113.435z M156.747,372.727L156.747,372.727c-10.416,0-18.89-8.474-18.89-18.89v-16.766c0-9.794,7.37-17.939,17.144-19.398v16.598
			c0,17.645,14.355,32,32,32c4.352,0,8.504-0.874,12.29-2.454c0.092,0.695,0.214,1.381,0.349,2.063
			c0.031,0.155,0.062,0.31,0.094,0.465c0.142,0.67,0.3,1.335,0.482,1.991c0.02,0.071,0.043,0.141,0.063,0.213
			c0.172,0.605,0.363,1.202,0.567,1.794c0.047,0.137,0.093,0.274,0.142,0.41c0.228,0.634,0.473,1.26,0.738,1.877
			c0.014,0.032,0.024,0.065,0.038,0.097H156.747z M229.828,372.653c-0.146-0.018-0.288-0.056-0.433-0.08
			c-0.239-0.041-0.48-0.075-0.716-0.133c-0.166-0.041-0.328-0.102-0.492-0.151c-0.21-0.063-0.422-0.117-0.628-0.193
			c-0.116-0.043-0.227-0.101-0.342-0.148c-3.818-1.56-6.932-5.322-7.898-9.698c-0.202-0.917-0.32-1.858-0.32-2.814v-25.165
			c0-5.523-4.477-10-10-10c-5.523,0-10,4.477-10,10c0,6.617-5.383,12-12,12s-12-5.383-12-12v-26.799c0-5.523-4.477-10-10-10h-8.254
			c-10.416,0-18.89-8.474-18.89-18.889v-16.766c0-5.144,2.006-9.895,5.648-13.379c3.466-3.315,8.018-5.02,12.797-4.811
			c0.148,0.006,0.296,0.01,0.444,0.01h198.508c0.15-0.001,0.298-0.004,0.446-0.011c4.786-0.207,9.331,1.496,12.797,4.811
			c3.165,3.027,5.09,7.013,5.541,11.381H233.002c-5.523,0-10,4.477-10,10s4.477,10,10,10h141.08
			c-0.641,9.839-8.828,17.654-18.827,17.654H253c-5.523,0-10,4.477-10,10v51.964c0,0.956-0.117,1.897-0.32,2.814
			c-1.242,5.627-6.035,10.242-11.307,10.453c-0.125,0.005-0.248,0.023-0.374,0.023c-0.184,0-0.366-0.023-0.55-0.034
			C230.242,372.68,230.034,372.679,229.828,372.653z M281.398,466.884c0,13.849-11.267,25.116-25.116,25.116h-0.564
			c-13.849,0-25.116-11.267-25.116-25.116v-74.157h0.396h0.004h50.396V466.884z M355.255,372.727h-63.856h-31.161
			c0.032-0.074,0.059-0.15,0.09-0.224c0.118-0.279,0.23-0.561,0.341-0.844c0.09-0.229,0.182-0.458,0.267-0.689
			c0.105-0.285,0.202-0.573,0.299-0.861c0.079-0.235,0.161-0.469,0.235-0.706c0.091-0.292,0.173-0.586,0.257-0.881
			c0.068-0.238,0.138-0.475,0.201-0.716c0.078-0.3,0.146-0.604,0.216-0.907c0.055-0.24,0.114-0.478,0.164-0.72
			c0.065-0.312,0.118-0.627,0.173-0.942c0.042-0.237,0.089-0.471,0.126-0.71c0.051-0.332,0.09-0.668,0.132-1.003
			c0.028-0.225,0.062-0.448,0.085-0.674c0.039-0.374,0.063-0.752,0.089-1.129c0.013-0.19,0.033-0.378,0.043-0.569
			c0.03-0.57,0.045-1.142,0.045-1.718V317.47h92.01c10.746,0.579,19.133,9.15,19.133,19.599v16.768h0.001
			C374.145,364.253,365.671,372.727,355.255,372.727z M374.145,204.746c0,10.39-8.432,18.843-18.812,18.886
			c-0.094,0.003-0.188,0-0.283,0.004H156.951c-0.095-0.004-0.188-0.001-0.283-0.004c-9.47-0.039-17.298-7.087-18.6-16.212H276
			c5.523,0,10-4.477,10-10s-4.477-10-10-10H137.885c0.3-10.156,8.635-18.329,18.861-18.329H281h74.254
			c10.415,0,18.89,8.473,18.89,18.889V204.746z"/>
	</g>
</g>
<g>
	<g>
		<path d="M323.141,195.47c-0.13-0.64-0.32-1.27-0.57-1.88c-0.25-0.6-0.56-1.18-0.92-1.72c-0.37-0.55-0.78-1.059-1.25-1.52
			c-2.32-2.32-5.77-3.39-9.02-2.73c-0.64,0.12-1.27,0.32-1.87,0.57c-0.6,0.25-1.19,0.56-1.73,0.92c-0.55,0.36-1.06,0.78-1.52,1.24
			c-0.46,0.46-0.88,0.97-1.24,1.52c-0.36,0.54-0.67,1.12-0.92,1.72c-0.25,0.61-0.44,1.24-0.57,1.88s-0.2,1.3-0.2,1.95
			c0,0.65,0.07,1.31,0.2,1.95c0.13,0.64,0.32,1.27,0.57,1.87c0.25,0.61,0.56,1.19,0.92,1.73c0.36,0.55,0.78,1.06,1.24,1.52
			c0.46,0.46,0.97,0.88,1.52,1.24c0.54,0.36,1.13,0.67,1.73,0.92c0.6,0.25,1.23,0.45,1.87,0.57c0.65,0.13,1.3,0.2,1.95,0.2
			c2.64,0,5.21-1.07,7.07-2.93c0.47-0.46,0.88-0.97,1.25-1.52c0.36-0.54,0.67-1.12,0.92-1.73c0.25-0.6,0.44-1.23,0.57-1.87
			c0.13-0.64,0.19-1.3,0.19-1.95C323.331,196.77,323.271,196.11,323.141,195.47z"/>
	</g>
</g>
<g>
	<g>
		<path d="M205.471,267.86c-0.13-0.63-0.32-1.26-0.57-1.87c-0.25-0.6-0.56-1.18-0.92-1.72c-0.36-0.55-0.78-1.06-1.24-1.52
			c-0.46-0.46-0.98-0.88-1.52-1.25c-0.54-0.36-1.13-0.67-1.73-0.92s-1.23-0.441-1.87-0.56c-1.29-0.26-2.62-0.26-3.91,0
			c-0.63,0.12-1.26,0.31-1.87,0.56c-0.6,0.25-1.18,0.559-1.72,0.92c-0.55,0.37-1.059,0.79-1.52,1.25c-0.46,0.46-0.88,0.97-1.25,1.52
			c-0.36,0.54-0.67,1.12-0.92,1.72c-0.25,0.61-0.44,1.24-0.57,1.87c-0.13,0.65-0.19,1.31-0.19,1.96c0,0.65,0.06,1.31,0.19,1.95
			c0.13,0.64,0.32,1.27,0.57,1.87c0.25,0.61,0.56,1.191,0.92,1.73c0.37,0.55,0.79,1.06,1.25,1.52c0.461,0.461,0.97,0.88,1.52,1.24
			c0.54,0.36,1.12,0.67,1.72,0.92c0.61,0.25,1.24,0.44,1.87,0.57c0.65,0.13,1.31,0.2,1.96,0.2c0.65,0,1.31-0.07,1.95-0.2
			s1.27-0.32,1.87-0.57s1.18-0.56,1.73-0.92c0.54-0.36,1.06-0.78,1.52-1.24c0.46-0.46,0.88-0.97,1.24-1.52
			c0.36-0.539,0.67-1.12,0.92-1.73c0.25-0.6,0.44-1.23,0.57-1.87c0.13-0.64,0.2-1.3,0.2-1.95S205.6,268.51,205.471,267.86z"/>
	</g>
</g>
<g>
</g>
<g>
</g>
<g>
</g>
<g>
</g>
<g>
</g>
<g>
</g>
<g>
</g>
<g>
</g>
<g>
</g>
<g>
</g>
<g>
</g>
<g>
</g>
<g>
</g>
<g>
</g>
<g>
</g>
</svg>
