<?xml version="1.0" encoding="iso-8859-1"?>
<!-- Generator: Adobe Illustrator 19.0.0, SVG Export Plug-In . SVG Version: 6.00 Build 0)  -->
<svg version="1.1" id="Capa_1" xmlns="http://www.w3.org/2000/svg" xmlns:xlink="http://www.w3.org/1999/xlink" x="0px" y="0px"
	 viewBox="0 0 511.999 511.999" style="enable-background:new 0 0 511.999 511.999;" xml:space="preserve">
<g>
	<g>
		<path d="M394.661,41.403c-0.177-1.459-0.429-2.901-0.74-4.326c-0.77-3.538-1.939-6.966-3.506-10.231
			c-1.381-2.877-3.064-5.63-5.04-8.224c-0.004-0.005-0.008-0.009-0.012-0.014C376.355,6.782,362.669,0,347.811,0H311.7h-94.98
			h-52.53c-26.026,0-47.2,21.174-47.2,47.2v52.53v94.98v80.4v67.82c0,1.243,0.051,2.48,0.147,3.709
			c0.632,8.129,3.334,15.91,7.915,22.696c0,0.001,0.001,0.001,0.001,0.001c0.003,0.004,0.005,0.007,0.007,0.01
			c8.808,13.007,23.436,20.773,39.13,20.773h33.17h13.242v76.764c0,24.877,20.239,45.116,45.116,45.116h0.564
			c24.877,0,45.116-20.239,45.116-45.116V390.12h46.412c26.025,0,47.199-21.169,47.199-47.19v-55.48v-94.98v-80.4V47.2
			C395.01,45.246,394.893,43.312,394.661,41.403z M136.99,47.2c0-14.998,12.202-27.2,27.2-27.2h28.388L136.99,75.587V47.2z
			 M136.99,103.872L220.862,20h18.788l-61.271,61.271c-3.905,3.905-3.905,10.237,0,14.143c1.953,1.953,4.512,2.929,7.071,2.929
			s5.119-0.976,7.071-2.929L267.935,20h19.622L136.99,170.568V103.872z M136.99,198.853L315.843,20h31.968
			c5.608,0,10.922,1.687,15.385,4.761L136.99,250.968V198.853z M137.096,345.244c-0.014-0.165-0.028-0.331-0.039-0.496
			c-0.04-0.603-0.067-1.208-0.067-1.817v-63.678L374.454,41.789c0.051,0.253,0.111,0.502,0.155,0.757
			c0.019,0.113,0.042,0.226,0.059,0.34c0.1,0.63,0.176,1.267,0.231,1.907c0.012,0.136,0.021,0.272,0.03,0.408
			c0.048,0.662,0.08,1.328,0.08,1.999v60.727L137.156,345.783C137.137,345.603,137.111,345.425,137.096,345.244z M281.398,466.884
			c0,13.849-11.267,25.116-25.116,25.116h-0.564c-13.849,0-25.116-11.267-25.116-25.116V390.12h50.796V466.884z M375.01,342.93
			c0,14.993-12.201,27.19-27.199,27.19h-31.328l58.527-58.527V342.93z M375.01,236.538l-72.297,72.297
			c-3.905,3.905-3.905,10.237,0,14.143c1.953,1.953,4.512,2.929,7.071,2.929s5.118-0.977,7.071-2.929l58.154-58.154v18.485
			l-86.812,86.811h-66.695L375.01,216.612V236.538z M375.01,188.329L193.218,370.12H164.19c-6.297,0-12.293-2.173-17.07-6.017
			l227.89-227.89V188.329z"/>
	</g>
</g>
<g>
	<g>
		<path d="M168.86,112.79c-0.13-0.64-0.32-1.27-0.57-1.87c-0.25-0.61-0.56-1.19-0.92-1.73c-0.37-0.55-0.79-1.06-1.25-1.52
			c-0.46-0.46-0.97-0.88-1.52-1.24c-0.54-0.36-1.12-0.67-1.72-0.92c-0.61-0.25-1.24-0.44-1.87-0.57c-1.29-0.26-2.62-0.26-3.91,0
			c-0.64,0.13-1.27,0.32-1.87,0.57c-0.61,0.25-1.19,0.56-1.73,0.92c-0.55,0.36-1.06,0.78-1.52,1.24c-0.46,0.46-0.88,0.97-1.24,1.52
			c-0.36,0.54-0.67,1.12-0.92,1.73c-0.25,0.6-0.44,1.23-0.57,1.87c-0.13,0.64-0.2,1.3-0.2,1.95c0,0.65,0.07,1.31,0.2,1.96
			c0.13,0.63,0.32,1.26,0.57,1.87c0.25,0.6,0.56,1.18,0.92,1.72c0.36,0.55,0.78,1.06,1.24,1.52c0.46,0.46,0.97,0.88,1.52,1.25
			c0.54,0.36,1.12,0.67,1.73,0.92c0.6,0.25,1.23,0.44,1.87,0.57c0.64,0.13,1.3,0.19,1.95,0.19c2.63,0,5.21-1.07,7.07-2.93
			c0.46-0.46,0.88-0.97,1.25-1.52c0.36-0.54,0.67-1.12,0.92-1.72c0.25-0.61,0.44-1.24,0.57-1.87c0.13-0.65,0.19-1.31,0.19-1.96
			S168.99,113.43,168.86,112.79z"/>
	</g>
</g>
<g>
	<g>
		<path d="M293.19,340.35c-0.13-0.64-0.32-1.27-0.57-1.87s-0.561-1.18-0.92-1.73c-0.37-0.54-0.78-1.05-1.25-1.51
			c-0.46-0.47-0.971-0.88-1.511-1.25c-0.55-0.36-1.13-0.67-1.729-0.92c-0.601-0.25-1.231-0.44-1.87-0.57
			c-1.29-0.26-2.62-0.26-3.91,0c-0.64,0.13-1.27,0.32-1.87,0.57c-0.6,0.25-1.189,0.56-1.729,0.92c-0.55,0.37-1.061,0.78-1.52,1.25
			c-0.46,0.46-0.88,0.97-1.24,1.51c-0.359,0.55-0.67,1.13-0.92,1.73c-0.25,0.6-0.439,1.23-0.569,1.87c-0.13,0.65-0.2,1.3-0.2,1.96
			c0,2.63,1.07,5.21,2.93,7.07c0.46,0.46,0.971,0.88,1.52,1.24c0.54,0.36,1.13,0.67,1.729,0.92c0.601,0.25,1.23,0.44,1.87,0.57
			c0.65,0.13,1.3,0.2,1.96,0.2c0.65,0,1.3-0.07,1.95-0.2c0.64-0.13,1.27-0.32,1.87-0.57c0.6-0.25,1.18-0.56,1.729-0.92
			c0.54-0.36,1.051-0.78,1.511-1.24c1.869-1.86,2.939-4.44,2.939-7.07C293.39,341.65,293.32,341,293.19,340.35z"/>
	</g>
</g>
<g>
	<g>
		<path d="M333.569,124.94c-0.129-0.64-0.319-1.27-0.569-1.87c-0.25-0.61-0.56-1.19-0.92-1.73c-0.36-0.55-0.78-1.06-1.24-1.52
			c-0.46-0.46-0.98-0.88-1.521-1.24c-0.55-0.36-1.13-0.67-1.729-0.92c-0.6-0.25-1.23-0.44-1.87-0.57c-1.29-0.26-2.62-0.26-3.91,0
			c-0.64,0.13-1.27,0.32-1.87,0.57c-0.6,0.25-1.18,0.56-1.729,0.92c-0.54,0.36-1.061,0.78-1.521,1.24
			c-0.46,0.46-0.88,0.97-1.239,1.52c-0.36,0.54-0.67,1.12-0.92,1.73c-0.25,0.6-0.44,1.23-0.57,1.87s-0.2,1.3-0.2,1.95
			c0,0.65,0.07,1.31,0.2,1.96c0.13,0.63,0.32,1.26,0.57,1.87c0.25,0.6,0.56,1.18,0.92,1.72c0.359,0.55,0.779,1.06,1.239,1.52
			c0.46,0.46,0.98,0.88,1.521,1.25c0.55,0.36,1.13,0.67,1.729,0.92c0.6,0.25,1.23,0.44,1.87,0.57c0.65,0.13,1.3,0.19,1.96,0.19
			c0.65,0,1.3-0.06,1.95-0.19c0.64-0.13,1.271-0.32,1.87-0.57c0.6-0.25,1.18-0.56,1.729-0.92c0.54-0.37,1.061-0.79,1.521-1.25
			c0.46-0.46,0.88-0.97,1.24-1.52c0.359-0.54,0.67-1.12,0.92-1.72c0.25-0.61,0.44-1.24,0.569-1.87c0.131-0.65,0.2-1.31,0.2-1.96
			C333.769,126.24,333.7,125.58,333.569,124.94z"/>
	</g>
</g>
<g>
	<g>
		<path d="M304.438,146.22c-3.906-3.906-10.236-3.906-14.142,0L179.163,257.353c-3.905,3.905-3.905,10.237,0,14.143
			c1.953,1.953,4.512,2.929,7.071,2.929s5.119-0.976,7.071-2.929l111.133-111.133C308.343,156.458,308.343,150.126,304.438,146.22z"
			/>
	</g>
</g>
<g>
</g>
<g>
</g>
<g>
</g>
<g>
</g>
<g>
</g>
<g>
</g>
<g>
</g>
<g>
</g>
<g>
</g>
<g>
</g>
<g>
</g>
<g>
</g>
<g>
</g>
<g>
</g>
<g>
</g>
</svg>
