<?xml version="1.0" encoding="iso-8859-1"?>
<!-- Generator: Adobe Illustrator 19.0.0, SVG Export Plug-In . SVG Version: 6.00 Build 0)  -->
<svg version="1.1" id="Capa_1" xmlns="http://www.w3.org/2000/svg" xmlns:xlink="http://www.w3.org/1999/xlink" x="0px" y="0px"
	 viewBox="0 0 512 512" style="enable-background:new 0 0 512 512;" xml:space="preserve">
<g>
	<g>
		<path d="M323.485,0h-99.112c-2.922,0-5.698,1.278-7.599,3.499c-1.899,2.221-2.733,5.161-2.281,8.048
			c1.232,7.872-1.385,15.926-7.002,21.542c-4.717,4.717-10.974,7.306-17.645,7.306c-0.085,0-0.171,0-0.257-0.001
			c-2.7-0.024-5.27,1.029-7.171,2.928c-1.899,1.9-2.955,4.484-2.929,7.17c0.067,6.767-2.526,13.125-7.305,17.903
			c-7.507,7.505-18.968,9.442-28.523,4.821c-3.101-1.499-6.753-1.297-9.668,0.531c-2.916,1.829-4.686,5.029-4.686,8.472V118.3
			v151.152v67.816c0,24.814,20.188,45.002,45.002,45.002h36.574v84.615C210.885,491.761,231.124,512,256.001,512
			s45.116-20.239,45.116-45.116v-84.615h36.574c24.815,0,45.002-20.188,45.002-45.002V220.688v-59.37v-0.001v-0.001V59.208
			C382.693,26.56,356.133,0,323.485,0z M149.308,95.399L149.308,95.399c13.389,1.557,27.12-2.962,37.021-12.863
			c6.387-6.387,10.608-14.339,12.313-22.994c8.654-1.704,16.606-5.925,22.993-12.312c7.362-7.362,11.866-17.045,12.918-27.23h88.933
			c21.619,0,39.208,17.589,39.208,39.208v102.108c0,0.267-0.03,0.526-0.04,0.79c-0.017,0.42-0.022,0.843-0.064,1.257
			c-0.006,0.063-0.021,0.122-0.028,0.185c-1.115,10.002-9.613,17.807-19.907,17.807c-6.991,0-13.589-3.773-17.219-9.847
			c-1.873-3.136-5.259-4.943-8.792-4.868c-0.272,0.006-0.544,0.023-0.817,0.051c-0.546,0.056-1.093,0.158-1.636,0.308
			c-4.336,1.197-7.339,5.142-7.339,9.64v14.012c0,11.049-8.989,20.039-20.039,20.039s-20.039-8.989-20.039-20.039v-49.66
			c0-4.498-3.003-8.443-7.339-9.64c-0.397-0.11-0.797-0.185-1.196-0.245c-0.078-0.012-0.156-0.024-0.235-0.034
			c-0.388-0.048-0.775-0.075-1.161-0.078c-0.023,0-0.046-0.005-0.069-0.005c-0.044,0-0.088,0.008-0.133,0.008
			c-0.354,0.005-0.705,0.027-1.054,0.068c-0.046,0.005-0.092,0.008-0.137,0.014c-0.377,0.051-0.749,0.126-1.116,0.219
			c-0.072,0.018-0.143,0.038-0.214,0.057c-0.372,0.102-0.739,0.22-1.096,0.364c-0.002,0.001-0.003,0.001-0.004,0.002
			c-0.355,0.144-0.699,0.314-1.035,0.498c-0.062,0.034-0.124,0.066-0.185,0.101c-0.328,0.188-0.646,0.392-0.951,0.617
			c-0.047,0.034-0.091,0.071-0.137,0.106c-0.279,0.213-0.548,0.441-0.805,0.684c-0.04,0.038-0.082,0.073-0.121,0.111
			c-0.271,0.265-0.527,0.549-0.769,0.848c-0.052,0.064-0.102,0.13-0.152,0.195c-0.24,0.311-0.47,0.634-0.676,0.978
			c-3.63,6.074-10.228,9.847-17.219,9.847c-11.05,0-20.039-8.989-20.039-20.039v-7.37c0-5.523-4.478-10-10-10h-51.623V95.399z
			 M362.693,195.97v14.718h-41.227c0.13-0.223,0.249-0.452,0.375-0.678c0.142-0.256,0.289-0.51,0.425-0.77
			c0.126-0.239,0.242-0.484,0.364-0.725c0.136-0.271,0.276-0.54,0.406-0.815c0.111-0.235,0.213-0.475,0.319-0.712
			c0.129-0.287,0.262-0.571,0.384-0.862c0.101-0.241,0.193-0.488,0.29-0.731c0.116-0.292,0.237-0.581,0.346-0.877
			c0.094-0.253,0.177-0.512,0.266-0.767c0.101-0.291,0.207-0.58,0.302-0.873c0.087-0.272,0.163-0.548,0.245-0.822
			c0.085-0.283,0.174-0.564,0.253-0.85c0.086-0.316,0.161-0.637,0.24-0.956c0.061-0.248,0.129-0.494,0.186-0.744
			c0.13-0.572,0.247-1.148,0.352-1.729c5.107,2.32,10.703,3.581,16.438,3.581c0.824,0,1.639-0.033,2.451-0.082
			c0.241-0.015,0.48-0.036,0.72-0.055c0.594-0.047,1.184-0.106,1.77-0.179c0.24-0.03,0.481-0.058,0.72-0.092
			c0.733-0.104,1.461-0.225,2.18-0.368c0.059-0.012,0.118-0.02,0.177-0.032c0.778-0.159,1.545-0.346,2.306-0.549
			c0.217-0.058,0.43-0.122,0.646-0.184c0.559-0.16,1.114-0.33,1.663-0.514c0.227-0.076,0.454-0.151,0.679-0.23
			c0.637-0.225,1.266-0.465,1.888-0.721c0.099-0.04,0.199-0.076,0.297-0.117c0.713-0.3,1.413-0.624,2.105-0.964
			c0.193-0.095,0.382-0.196,0.573-0.294c0.51-0.261,1.013-0.531,1.51-0.813C362.456,196.095,362.577,196.038,362.693,195.97z
			 M149.308,128.298h41.708c0.935,14.338,9.452,26.643,21.57,32.933c0.551,0.286,1.109,0.559,1.674,0.82
			c1.696,0.782,3.456,1.449,5.269,1.991c3.626,1.083,7.467,1.665,11.44,1.665c5.497,0,10.869-1.159,15.803-3.299v28.241
			c0,0.824,0.033,1.639,0.082,2.45c0.015,0.242,0.036,0.48,0.055,0.721c0.047,0.593,0.106,1.182,0.178,1.768
			c0.03,0.241,0.058,0.483,0.092,0.723c0.104,0.731,0.224,1.456,0.367,2.174c0.012,0.061,0.02,0.122,0.033,0.183
			c0.159,0.777,0.345,1.544,0.549,2.305c0.058,0.217,0.122,0.43,0.184,0.646c0.16,0.56,0.331,1.116,0.514,1.666
			c0.075,0.226,0.15,0.451,0.229,0.675c0.227,0.641,0.468,1.274,0.726,1.899c0.039,0.095,0.073,0.191,0.113,0.286
			c0.301,0.715,0.626,1.416,0.966,2.109c0.093,0.19,0.193,0.376,0.29,0.565c0.262,0.512,0.534,1.019,0.817,1.518
			c0.066,0.116,0.123,0.237,0.189,0.352l-64.507-0.022c-0.002,0-0.003,0-0.005,0c-2.651,0-5.194,1.053-7.069,2.927
			c-1.877,1.875-2.931,4.42-2.931,7.073v0.021v48.763c0,7.813-6.355,14.168-14.168,14.168c-7.813,0-14.168-6.356-14.168-14.168
			V128.298z M281.117,466.884c0,13.849-11.266,25.116-25.116,25.116c-13.85,0-25.116-11.267-25.116-25.116v-84.615h50.232V466.884z
			 M362.695,247.836h-101.07c-5.522,0-10,4.477-10,10s4.478,10,10,10h101.07v69.432c-0.002,13.785-11.217,25.001-25.004,25.001
			h-46.574h-70.232h-46.574c-13.786,0-25.002-11.216-25.002-25.002V303.62h143.642c5.523,0,10-4.477,10-10s-4.477-10-10-10h-98.394
			c1.977-4.32,3.089-9.115,3.089-14.168v-38.763h89.168h75.881V247.836z"/>
	</g>
</g>
<g>
	<g>
		<path d="M323.695,30.198c-15.715,0-28.5,12.785-28.5,28.5s12.785,28.5,28.5,28.5c15.715,0,28.5-12.785,28.5-28.5
			C352.195,42.983,339.41,30.198,323.695,30.198z M323.695,67.198c-4.686,0-8.5-3.813-8.5-8.5s3.814-8.5,8.5-8.5
			c4.687,0,8.5,3.813,8.5,8.5S328.382,67.198,323.695,67.198z"/>
	</g>
</g>
<g>
	<g>
		<path d="M323.695,90.055c-15.715,0-28.5,12.785-28.5,28.5s12.785,28.5,28.5,28.5c15.715,0,28.5-12.785,28.5-28.5
			C352.195,102.84,339.41,90.055,323.695,90.055z M323.695,127.055c-4.686,0-8.5-3.813-8.5-8.5s3.814-8.5,8.5-8.5
			c4.687,0,8.5,3.813,8.5,8.5S328.382,127.055,323.695,127.055z"/>
	</g>
</g>
<g>
	<g>
		<path d="M266.695,60.127c-15.715,0-28.5,12.785-28.5,28.5c0,15.714,12.786,28.5,28.5,28.5c15.715,0,28.5-12.785,28.5-28.5
			C295.195,72.912,282.41,60.127,266.695,60.127z M266.695,97.127c-4.686,0-8.5-3.813-8.5-8.5c0-4.688,3.814-8.5,8.5-8.5
			c4.687,0,8.5,3.813,8.5,8.5C275.195,93.314,271.382,97.127,266.695,97.127z"/>
	</g>
</g>
<g>
	<g>
		<path d="M234.091,255.88c-0.13-0.64-0.32-1.27-0.57-1.87c-0.25-0.6-0.559-1.18-0.92-1.73c-0.359-0.54-0.78-1.06-1.24-1.52
			c-0.46-0.46-0.97-0.88-1.52-1.24c-0.54-0.36-1.12-0.67-1.73-0.92c-0.6-0.25-1.23-0.44-1.869-0.57c-1.29-0.26-2.62-0.26-3.91,0
			c-0.63,0.13-1.261,0.32-1.87,0.57c-0.601,0.25-1.18,0.56-1.72,0.92c-0.551,0.36-1.061,0.78-1.521,1.24
			c-0.47,0.46-0.88,0.98-1.25,1.52c-0.36,0.55-0.67,1.13-0.92,1.73c-0.25,0.6-0.44,1.23-0.57,1.87c-0.13,0.65-0.19,1.3-0.19,1.95
			c0,0.66,0.06,1.309,0.19,1.96c0.13,0.64,0.32,1.27,0.57,1.87c0.25,0.6,0.56,1.18,0.92,1.73c0.37,0.54,0.78,1.05,1.25,1.52
			c0.46,0.46,0.97,0.88,1.521,1.24c0.54,0.36,1.119,0.67,1.72,0.92c0.609,0.25,1.24,0.44,1.87,0.57
			c0.649,0.13,1.31,0.191,1.96,0.191c0.65,0,1.31-0.06,1.95-0.191c0.64-0.13,1.27-0.32,1.869-0.57c0.61-0.25,1.19-0.56,1.73-0.92
			c0.55-0.36,1.06-0.78,1.52-1.24c0.46-0.47,0.881-0.98,1.24-1.52c0.36-0.55,0.67-1.13,0.92-1.73c0.25-0.6,0.441-1.23,0.57-1.87
			c0.13-0.65,0.2-1.3,0.2-1.96C234.291,257.18,234.221,256.53,234.091,255.88z"/>
	</g>
</g>
<g>
	<g>
		<path d="M340.921,294.99c-0.13-0.64-0.32-1.27-0.57-1.87c-0.25-0.6-0.56-1.19-0.92-1.73c-0.36-0.55-0.78-1.059-1.24-1.52
			c-0.46-0.46-0.98-0.88-1.52-1.24c-0.55-0.36-1.13-0.67-1.73-0.92c-0.6-0.25-1.23-0.44-1.87-0.57c-1.289-0.26-2.619-0.26-3.909,0
			c-0.641,0.13-1.261,0.32-1.87,0.57c-0.6,0.25-1.181,0.56-1.73,0.92c-0.54,0.36-1.05,0.78-1.52,1.24
			c-0.46,0.461-0.87,0.97-1.24,1.52c-0.36,0.54-0.67,1.12-0.92,1.73c-0.25,0.6-0.44,1.23-0.57,1.87s-0.2,1.3-0.2,1.95
			s0.07,1.31,0.2,1.96c0.13,0.63,0.32,1.26,0.57,1.87c0.25,0.6,0.56,1.18,0.92,1.72c0.37,0.55,0.78,1.06,1.24,1.52
			c0.47,0.47,0.979,0.88,1.52,1.25c0.55,0.36,1.13,0.67,1.73,0.92c0.609,0.25,1.229,0.44,1.87,0.57c0.649,0.13,1.3,0.19,1.96,0.19
			c0.649,0,1.3-0.06,1.949-0.19c0.641-0.13,1.271-0.32,1.87-0.57c0.6-0.25,1.181-0.56,1.73-0.92c0.54-0.37,1.06-0.78,1.52-1.25
			c0.46-0.46,0.88-0.97,1.24-1.52c0.36-0.54,0.67-1.12,0.92-1.72c0.25-0.61,0.44-1.24,0.57-1.87c0.13-0.65,0.2-1.31,0.2-1.96
			C341.121,296.29,341.051,295.63,340.921,294.99z"/>
	</g>
</g>
<g>
</g>
<g>
</g>
<g>
</g>
<g>
</g>
<g>
</g>
<g>
</g>
<g>
</g>
<g>
</g>
<g>
</g>
<g>
</g>
<g>
</g>
<g>
</g>
<g>
</g>
<g>
</g>
<g>
</g>
</svg>
