<?xml version="1.0" encoding="iso-8859-1"?>
<!-- Generator: Adobe Illustrator 19.0.0, SVG Export Plug-In . SVG Version: 6.00 Build 0)  -->
<svg version="1.1" id="Capa_1" xmlns="http://www.w3.org/2000/svg" xmlns:xlink="http://www.w3.org/1999/xlink" x="0px" y="0px"
	 viewBox="0 0 512 512" style="enable-background:new 0 0 512 512;" xml:space="preserve">
<g>
	<g>
		<path d="M256,0c-73.337,0-133,59.664-133,133v223.867c0,19.716,16.04,35.757,35.757,35.757h50.076v71.793
			c0,26.238,21.346,47.583,47.584,47.583C282.654,512,304,490.654,304,464.417V445.44c3.565,1.404,7.442,2.183,11.5,2.183
			c17.369,0,31.5-14.131,31.5-31.5v-2.61c3.302,1.159,6.84,1.78,10.5,1.78c17.369,0,31.5-14.131,31.5-31.5V133
			C389,59.664,329.337,0,256,0z M284,416.124v48.293c0,15.21-12.374,27.583-27.583,27.583c-15.21,0-27.584-12.374-27.584-27.583
			v-71.793H284V416.124z M357.5,395.294c-5.041,0-9.447-3.227-10.965-8.029c-1.486-4.704-6.178-7.621-11.06-6.87
			c-4.877,0.753-8.476,4.949-8.476,9.883v25.845c0,6.341-5.159,11.5-11.5,11.5s-11.5-5.159-11.5-11.5v-33.5c0-5.523-4.478-10-10-10
			h-75.167h-60.076c-8.688,0-15.757-7.068-15.757-15.757V133c0-62.309,50.691-113,113-113s113,50.691,113,113v250.794H369
			C369,390.135,363.841,395.294,357.5,395.294z"/>
	</g>
</g>
<g>
	<g>
		<path d="M205.667,110.861c-19.978,0-36.231,16.253-36.231,36.23v153.458c0,5.523,4.478,10,10,10h52.46c5.522,0,10-4.477,10-10
			V147.091C241.896,127.114,225.643,110.861,205.667,110.861z M221.896,290.549h-32.46V147.091c0-8.949,7.281-16.23,16.231-16.23
			c8.949,0,16.229,7.281,16.229,16.23V290.549z"/>
	</g>
</g>
<g>
	<g>
		<path d="M306.333,110.861c-19.977,0-36.23,16.253-36.23,36.23v153.458c0,5.523,4.478,10,10,10h52.46c5.522,0,10-4.477,10-10
			V147.091C342.564,127.114,326.31,110.861,306.333,110.861z M322.564,290.549h-32.46V147.091c0-8.949,7.28-16.23,16.23-16.23
			c8.949,0,16.23,7.281,16.23,16.23V290.549z"/>
	</g>
</g>
<g>
	<g>
		<path d="M347.749,336.6c-0.13-0.64-0.32-1.27-0.57-1.87c-0.25-0.61-0.56-1.19-0.92-1.73c-0.36-0.55-0.78-1.06-1.24-1.52
			c-0.46-0.46-0.97-0.88-1.52-1.24c-0.54-0.37-1.12-0.67-1.73-0.92c-0.599-0.25-1.229-0.45-1.87-0.58c-1.29-0.26-2.619-0.26-3.909,0
			c-0.631,0.13-1.261,0.33-1.87,0.58c-0.601,0.25-1.181,0.55-1.721,0.92c-0.55,0.36-1.06,0.78-1.52,1.24
			c-0.47,0.46-0.88,0.97-1.25,1.52c-0.36,0.54-0.67,1.12-0.92,1.73c-0.25,0.6-0.44,1.23-0.57,1.87s-0.189,1.3-0.189,1.95
			c0,0.65,0.06,1.31,0.189,1.95c0.13,0.64,0.32,1.27,0.57,1.87c0.25,0.61,0.56,1.19,0.92,1.73c0.37,0.55,0.78,1.06,1.25,1.52
			c0.46,0.46,0.97,0.88,1.52,1.24c0.54,0.36,1.12,0.67,1.721,0.92c0.609,0.25,1.239,0.45,1.87,0.57c0.649,0.13,1.31,0.2,1.96,0.2
			c0.649,0,1.31-0.07,1.949-0.2c0.641-0.12,1.27-0.32,1.87-0.57c0.61-0.25,1.19-0.56,1.73-0.92c0.55-0.36,1.06-0.78,1.52-1.24
			c0.46-0.46,0.88-0.97,1.24-1.52c0.36-0.539,0.67-1.12,0.92-1.73c0.25-0.6,0.44-1.23,0.57-1.87c0.13-0.64,0.2-1.3,0.2-1.95
			S347.879,337.24,347.749,336.6z"/>
	</g>
</g>
<g>
	<g>
		<path d="M300.614,328.549H174.052c-5.523,0-10,4.477-10,10s4.477,10,10,10h126.562c5.522,0,10-4.477,10-10
			S306.137,328.549,300.614,328.549z"/>
	</g>
</g>
<g>
</g>
<g>
</g>
<g>
</g>
<g>
</g>
<g>
</g>
<g>
</g>
<g>
</g>
<g>
</g>
<g>
</g>
<g>
</g>
<g>
</g>
<g>
</g>
<g>
</g>
<g>
</g>
<g>
</g>
</svg>
