<?xml version="1.0" encoding="iso-8859-1"?>
<!-- Generator: Adobe Illustrator 19.0.0, SVG Export Plug-In . SVG Version: 6.00 Build 0)  -->
<svg version="1.1" id="Capa_1" xmlns="http://www.w3.org/2000/svg" xmlns:xlink="http://www.w3.org/1999/xlink" x="0px" y="0px"
	 viewBox="0 0 512.001 512.001" style="enable-background:new 0 0 512.001 512.001;" xml:space="preserve">
<g>
	<g>
		<path d="M390.011,120.862V47.196C390.011,21.172,368.839,0,342.816,0h-173.63c-26.023,0-47.195,21.172-47.195,47.196v27.95v2.91
			c0,0.059-0.003,0.122-0.003,0.18v105.307c0,0.02,0.003,0.038,0.003,0.058v159.322c0,26.024,21.172,47.196,47.195,47.196h41.417
			v76.766c0,24.877,20.239,45.116,45.116,45.116h0.564c24.877,0,45.116-20.239,45.116-45.116v-76.766h41.417
			c26.023,0,47.195-21.172,47.195-47.196V229.374c0-0.038,0.003-0.076,0.003-0.115L390.011,120.862z M141.991,47.196
			C141.991,32.2,154.19,20,169.186,20h173.63c14.996,0,27.195,12.2,27.195,27.196v73.669c0,5.82-2.289,11.314-6.438,15.463
			c-4.168,4.16-9.668,6.451-15.487,6.451c-7.645,0-14.863-4.126-18.837-10.768c-2.31-3.859-6.911-5.702-11.245-4.504
			c-4.335,1.198-7.336,5.142-7.336,9.639v14.889c0,5.82-2.29,11.312-6.462,15.476c-4.15,4.158-9.642,6.448-15.463,6.448
			c-12.089,0-21.924-9.835-21.924-21.924V99.259c0-4.496-3-8.439-7.334-9.638c-0.396-0.109-0.794-0.185-1.192-0.244
			c-0.082-0.012-0.164-0.026-0.246-0.036c-0.383-0.047-0.766-0.074-1.147-0.077c-0.027,0-0.054-0.006-0.081-0.006
			c-0.052,0-0.102,0.009-0.154,0.01c-0.336,0.005-0.67,0.026-1.001,0.065c-0.059,0.007-0.118,0.01-0.177,0.018
			c-0.365,0.049-0.724,0.122-1.08,0.211c-0.088,0.022-0.175,0.046-0.263,0.07c-0.357,0.099-0.709,0.211-1.052,0.349
			c-0.028,0.011-0.055,0.025-0.083,0.037c-0.324,0.133-0.638,0.288-0.947,0.454c-0.076,0.041-0.152,0.081-0.227,0.124
			c-0.317,0.182-0.626,0.381-0.922,0.598c-0.058,0.042-0.113,0.088-0.17,0.132c-0.266,0.203-0.521,0.42-0.767,0.65
			c-0.048,0.045-0.097,0.086-0.144,0.132c-0.268,0.262-0.52,0.542-0.759,0.836c-0.054,0.067-0.106,0.135-0.159,0.203
			c-0.239,0.31-0.468,0.63-0.673,0.972c-1.934,3.23-4.671,5.939-7.9,7.827c-2.49,1.45-5.24,2.388-8.078,2.766
			c-0.946,0.126-1.902,0.19-2.861,0.19c-12.089,0-21.925-9.835-21.925-21.924v-7.832c0-5.523-4.477-10-10-10h-55.486V47.196z
			 M141.991,159.762c3.09,1.077,6.407,1.67,9.862,1.67c16.355,0,29.661-13.306,29.661-29.661c0-16.355-13.306-29.661-29.661-29.661
			c-3.456,0-6.773,0.593-9.862,1.67V85.146h45.541c1.131,22.114,19.479,39.757,41.87,39.757c6.017,0,11.963-1.308,17.419-3.812
			v30.944c0,23.117,18.807,41.924,41.924,41.924c11.17,0,21.689-4.375,29.605-12.306c6.345-6.333,10.413-14.317,11.794-22.966
			c5.543,2.648,11.665,4.092,17.944,4.092c0.876,0,1.747-0.036,2.614-0.09c0.24-0.015,0.479-0.034,0.718-0.053
			c0.7-0.055,1.396-0.127,2.089-0.217c0.182-0.023,0.364-0.041,0.545-0.067c0.846-0.121,1.686-0.268,2.519-0.44
			c0.192-0.04,0.382-0.087,0.573-0.129c0.67-0.148,1.334-0.312,1.994-0.493c0.223-0.061,0.447-0.121,0.669-0.185
			c0.818-0.239,1.631-0.495,2.432-0.783c0.053-0.019,0.105-0.042,0.158-0.061c0.751-0.274,1.492-0.574,2.225-0.891
			c0.219-0.095,0.437-0.192,0.654-0.291c0.644-0.291,1.28-0.598,1.909-0.922c0.144-0.074,0.29-0.142,0.432-0.218
			c0.75-0.398,1.488-0.821,2.215-1.266c0.058-0.035,0.119-0.065,0.176-0.101v72.802c-0.063,12.035-9.871,21.808-21.921,21.808
			c-7.65,0-14.868-4.127-18.838-10.77c-2.307-3.861-6.909-5.704-11.245-4.51c-4.336,1.197-7.339,5.142-7.339,9.64v14.891
			c0,12.088-9.835,21.923-21.923,21.923s-21.923-9.835-21.923-21.923v-52.775c0.001-4.498-3.002-8.443-7.338-9.64
			c-0.883-0.244-1.777-0.361-2.661-0.361c-3.454,0-6.747,1.797-8.583,4.871c-3.97,6.643-11.188,10.77-18.838,10.77
			c-12.088,0-21.923-9.835-21.923-21.923v-7.833c0-5.523-4.477-10-10-10h-55.487V159.762z M141.992,131.771
			c0-5.237,4.516-9.661,9.861-9.661c5.327,0,9.661,4.333,9.661,9.661c0,5.327-4.334,9.661-9.661,9.661
			C146.508,141.432,141.992,137.008,141.992,131.771z M281.399,466.884c0,13.849-11.267,25.116-25.116,25.116h-0.564
			c-13.849,0-25.116-11.267-25.116-25.116v-76.766h50.796V466.884z M370.012,342.921c-0.001,14.997-12.2,27.197-27.196,27.197
			h-51.407c-0.003,0-0.006,0-0.01,0h-70.796c-0.003,0-0.007,0-0.01,0h-51.407c-14.827,0-26.912-11.929-27.183-26.693h157.013
			c5.523,0,10-4.477,10-10s-4.477-10-10-10H141.991V193.542h45.542c1.131,22.113,19.478,39.755,41.868,39.755
			c6.083,0,12.019-1.355,17.422-3.846v30.98c0,23.116,18.807,41.923,41.923,41.923c20.852,0,38.197-15.302,41.395-35.267
			c5.544,2.649,11.668,4.094,17.95,4.094c8.03,0,15.538-2.274,21.921-6.205V342.921z"/>
	</g>
</g>
<g>
	<g>
		<path d="M348.491,331.47c-0.12-0.64-0.32-1.27-0.57-1.87c-0.25-0.6-0.55-1.18-0.91-1.73c-0.37-0.539-0.79-1.05-1.25-1.52
			c-0.46-0.461-0.97-0.87-1.52-1.24c-0.54-0.36-1.12-0.67-1.72-0.92c-0.61-0.25-1.24-0.44-1.87-0.57c-1.29-0.26-2.62-0.26-3.91,0
			c-0.64,0.13-1.27,0.32-1.87,0.57c-0.61,0.25-1.19,0.56-1.73,0.92c-0.55,0.37-1.059,0.78-1.52,1.24c-0.46,0.47-0.88,0.98-1.24,1.52
			c-0.36,0.55-0.67,1.13-0.92,1.73c-0.25,0.6-0.44,1.23-0.57,1.87c-0.13,0.65-0.2,1.3-0.2,1.96c0,0.65,0.07,1.3,0.2,1.95
			c0.13,0.64,0.32,1.27,0.57,1.87c0.25,0.6,0.56,1.18,0.92,1.73c0.36,0.54,0.78,1.06,1.24,1.52c0.461,0.46,0.97,0.88,1.52,1.24
			c0.54,0.36,1.12,0.67,1.73,0.92c0.6,0.25,1.23,0.44,1.87,0.57s1.3,0.2,1.95,0.2s1.31-0.07,1.96-0.2c0.63-0.13,1.26-0.32,1.87-0.57
			c0.6-0.25,1.18-0.56,1.72-0.92c0.55-0.37,1.06-0.78,1.52-1.24c0.46-0.46,0.88-0.98,1.25-1.52c0.36-0.55,0.66-1.13,0.91-1.73
			c0.25-0.6,0.45-1.23,0.57-1.87c0.13-0.65,0.2-1.3,0.2-1.95C348.691,332.77,348.621,332.12,348.491,331.47z"/>
	</g>
</g>
<g>
	<g>
		<path d="M325.079,35.246c-16.355,0-29.661,13.306-29.661,29.661s13.306,29.661,29.661,29.661
			c16.355,0,29.661-13.306,29.661-29.661C354.74,48.552,341.434,35.246,325.079,35.246z M325.079,74.569
			c-5.327,0-9.661-4.333-9.661-9.661c0-5.327,4.333-9.661,9.661-9.661c5.327,0,9.661,4.333,9.661,9.661
			C334.74,70.235,330.406,74.569,325.079,74.569z"/>
	</g>
</g>
<g>
</g>
<g>
</g>
<g>
</g>
<g>
</g>
<g>
</g>
<g>
</g>
<g>
</g>
<g>
</g>
<g>
</g>
<g>
</g>
<g>
</g>
<g>
</g>
<g>
</g>
<g>
</g>
<g>
</g>
</svg>
