<?xml version="1.0" encoding="iso-8859-1"?>
<!-- Generator: Adobe Illustrator 19.0.0, SVG Export Plug-In . SVG Version: 6.00 Build 0)  -->
<svg version="1.1" id="Capa_1" xmlns="http://www.w3.org/2000/svg" xmlns:xlink="http://www.w3.org/1999/xlink" x="0px" y="0px"
	 viewBox="0 0 511.999 511.999" style="enable-background:new 0 0 511.999 511.999;" xml:space="preserve">
<g>
	<g>
		<path d="M296.124,276.02c-0.131-0.63-0.321-1.26-0.571-1.87c-0.25-0.6-0.56-1.18-0.92-1.72c-0.37-0.55-0.79-1.06-1.25-1.52
			c-0.46-0.46-0.97-0.88-1.52-1.25c-0.54-0.36-1.12-0.67-1.72-0.92c-0.61-0.25-1.24-0.44-1.87-0.57c-1.29-0.26-2.62-0.26-3.91,0
			c-0.64,0.13-1.27,0.32-1.87,0.57c-0.6,0.25-1.19,0.56-1.73,0.92c-0.55,0.37-1.06,0.79-1.52,1.25c-0.46,0.46-0.88,0.97-1.24,1.52
			c-0.36,0.54-0.67,1.12-0.92,1.72c-0.25,0.61-0.44,1.24-0.57,1.87c-0.13,0.65-0.2,1.31-0.2,1.96c0,0.65,0.07,1.31,0.2,1.95
			s0.32,1.27,0.57,1.87c0.25,0.61,0.56,1.19,0.92,1.73c0.36,0.55,0.78,1.06,1.24,1.52c0.46,0.46,0.97,0.88,1.52,1.24
			c0.54,0.36,1.13,0.67,1.73,0.92c0.6,0.25,1.23,0.44,1.87,0.57s1.3,0.2,1.95,0.2c0.65,0,1.31-0.07,1.961-0.2
			c0.63-0.13,1.26-0.32,1.87-0.57c0.6-0.25,1.18-0.56,1.72-0.92c0.55-0.36,1.06-0.78,1.52-1.24c0.46-0.46,0.88-0.97,1.25-1.52
			c0.36-0.54,0.67-1.12,0.92-1.73c0.25-0.6,0.44-1.23,0.57-1.87c0.13-0.64,0.19-1.3,0.19-1.95S296.254,276.67,296.124,276.02z"/>
	</g>
</g>
<g>
	<g>
		<path d="M230.943,276.02c-0.13-0.63-0.32-1.26-0.57-1.87c-0.25-0.6-0.56-1.18-0.92-1.72c-0.37-0.55-0.78-1.06-1.24-1.52
			c-0.47-0.46-0.98-0.88-1.52-1.25c-0.55-0.36-1.13-0.67-1.73-0.92s-1.23-0.44-1.87-0.57c-1.29-0.26-2.62-0.26-3.91,0
			c-0.64,0.13-1.27,0.32-1.87,0.57c-0.6,0.25-1.18,0.56-1.73,0.92c-0.54,0.37-1.059,0.79-1.52,1.25c-0.46,0.46-0.88,0.97-1.24,1.52
			c-0.36,0.54-0.67,1.12-0.92,1.72c-0.25,0.61-0.44,1.24-0.57,1.87c-0.13,0.65-0.2,1.31-0.2,1.96c0,0.65,0.07,1.31,0.2,1.95
			s0.32,1.27,0.57,1.87c0.25,0.61,0.56,1.19,0.92,1.73c0.36,0.55,0.78,1.06,1.24,1.52c0.46,0.46,0.98,0.88,1.52,1.24
			c0.55,0.36,1.13,0.67,1.73,0.92c0.6,0.25,1.23,0.44,1.87,0.57c0.65,0.13,1.3,0.2,1.96,0.2c0.65,0,1.3-0.07,1.95-0.2
			c0.64-0.13,1.27-0.32,1.87-0.57c0.6-0.25,1.18-0.56,1.73-0.92c0.54-0.36,1.05-0.78,1.52-1.24c0.46-0.46,0.87-0.97,1.24-1.52
			c0.36-0.54,0.67-1.12,0.92-1.73c0.25-0.6,0.44-1.23,0.57-1.87c0.13-0.64,0.2-1.3,0.2-1.95S231.073,276.67,230.943,276.02z"/>
	</g>
</g>
<g>
	<g>
		<path d="M428.708,79.475c-9.765-9.765-22.79-13.314-31.601-14.594c-1.168-8.754-4.654-21.66-14.759-31.766
			c-14.811-14.81-38.696-16.006-57.673-3.993c-8.616-6.498-17.896-12.022-27.699-16.432C278.259,4.269,258.283,0,237.603,0
			c-3.961,0-7.896,0.157-11.801,0.469c-27.331,2.183-53.132,11.954-75.224,28.586c-4.577,3.446-8.94,7.164-13.066,11.124
			c-16.504,15.84-29.222,35.54-36.731,57.067c-0.626,1.794-1.215,3.601-1.768,5.419c-4.135,13.622-6.231,27.805-6.231,42.155
			c0,1.361,0.019,4.633,0.054,8.51c-13.277,10.367-21.697,26.517-21.697,44.457c0,24.847,16.167,45.976,38.529,53.458
			l118.873,254.98c1.642,3.522,5.177,5.774,9.063,5.774c3.887,0,7.421-2.252,9.064-5.774l118.874-254.981
			c22.361-7.483,38.528-28.611,38.528-53.458c0-12.825-4.311-24.728-11.615-34.265c1.332-0.194,2.583-0.429,3.715-0.722
			c8.057-2.086,20-6.218,30.665-17.955C444.784,125.088,445.607,96.374,428.708,79.475z M125.301,90.192
			c0.286-0.592,0.58-1.179,0.875-1.766c0.422-0.841,0.852-1.676,1.291-2.505c0.313-0.589,0.629-1.175,0.95-1.758
			c0.45-0.817,0.911-1.626,1.378-2.43c0.33-0.568,0.659-1.136,0.997-1.697c0.494-0.82,1.002-1.629,1.514-2.436
			c0.332-0.523,0.658-1.05,0.997-1.568c0.58-0.886,1.179-1.756,1.78-2.624c0.29-0.419,0.57-0.845,0.865-1.259
			c0.896-1.262,1.813-2.506,2.753-3.73c0.205-0.267,0.42-0.523,0.627-0.787c0.751-0.96,1.508-1.915,2.285-2.851
			c0.378-0.456,0.77-0.899,1.154-1.349c0.624-0.73,1.248-1.458,1.888-2.172c0.436-0.487,0.882-0.964,1.325-1.443
			c0.61-0.659,1.222-1.316,1.846-1.961c0.469-0.485,0.943-0.964,1.42-1.441c0.621-0.622,1.248-1.238,1.881-1.846
			c0.489-0.469,0.98-0.936,1.476-1.397c0.647-0.601,1.303-1.192,1.963-1.779c0.497-0.442,0.993-0.886,1.496-1.32
			c0.696-0.599,1.403-1.184,2.112-1.767c0.483-0.397,0.961-0.801,1.45-1.191c0.823-0.657,1.661-1.294,2.5-1.93
			c0.389-0.294,0.77-0.599,1.162-0.888c1.221-0.902,2.459-1.781,3.712-2.638c0.391-0.267,0.793-0.52,1.188-0.783
			c0.888-0.592,1.778-1.181,2.682-1.75c0.523-0.329,1.055-0.644,1.583-0.966c0.792-0.482,1.584-0.962,2.387-1.427
			c0.571-0.33,1.148-0.649,1.725-0.971c0.778-0.433,1.559-0.862,2.347-1.279c0.595-0.315,1.194-0.623,1.794-0.929
			c0.789-0.401,1.583-0.794,2.381-1.178c0.605-0.291,1.21-0.581,1.82-0.862c0.822-0.379,1.65-0.746,2.481-1.107
			c0.595-0.259,1.189-0.521,1.788-0.771c0.894-0.373,1.797-0.727,2.701-1.079c0.547-0.213,1.09-0.435,1.64-0.64
			c1.148-0.429,2.308-0.833,3.471-1.229c0.314-0.107,0.624-0.225,0.939-0.329c1.473-0.488,2.959-0.947,4.456-1.381
			c0.477-0.138,0.96-0.26,1.438-0.392c1.036-0.287,2.074-0.571,3.12-0.832c0.596-0.149,1.197-0.282,1.796-0.422
			c0.943-0.221,1.887-0.437,2.837-0.636c0.639-0.134,1.282-0.257,1.924-0.381c0.924-0.178,1.85-0.35,2.78-0.508
			c0.657-0.112,1.315-0.217,1.975-0.319c0.936-0.144,1.875-0.275,2.817-0.398c0.654-0.085,1.307-0.17,1.964-0.246
			c0.976-0.112,1.957-0.206,2.939-0.296c0.627-0.057,1.252-0.12,1.882-0.168c1.082-0.083,2.171-0.142,3.26-0.197
			c0.532-0.027,1.061-0.065,1.595-0.085c1.625-0.062,3.256-0.098,4.895-0.098c1.372,0,2.738,0.029,4.102,0.073
			c0.393,0.013,0.785,0.03,1.178,0.046c1.051,0.043,2.1,0.099,3.147,0.168c0.348,0.023,0.698,0.042,1.046,0.068
			c1.344,0.1,2.685,0.219,4.02,0.361c0.254,0.027,0.506,0.061,0.759,0.09c1.104,0.125,2.204,0.264,3.302,0.418
			c0.401,0.056,0.802,0.114,1.203,0.174c1.092,0.164,2.181,0.342,3.266,0.535c0.255,0.045,0.51,0.085,0.765,0.132
			c1.31,0.241,2.615,0.506,3.915,0.789c0.346,0.075,0.69,0.157,1.035,0.236c1.003,0.228,2.003,0.467,3.001,0.72
			c0.381,0.096,0.762,0.192,1.142,0.292c1.295,0.341,2.586,0.696,3.87,1.08c0.003,0.001,0.007,0.002,0.01,0.003
			c-0.083,1.332,0.1,2.681,0.554,3.965c0.615,1.735,0.926,3.525,0.926,5.321c0,8.943-7.276,16.22-16.22,16.22
			c-5.251,0-10.204-2.577-13.248-6.894c-1.76-2.495-4.562-4.049-7.61-4.221c-3.049-0.168-6.006,1.059-8.035,3.34
			c-0.524,0.589-0.949,1.044-1.338,1.433c-6.895,6.896-16.746,9.93-26.353,8.115c-5.09-0.962-10.065,2.119-11.477,7.099
			c-1.382,4.875-3.915,9.183-7.521,12.796c-9.216,9.217-23.623,11.266-35.035,4.981c-4.74-2.609-10.696-0.977-13.441,3.687
			c-1.253,2.128-2.802,4.12-4.609,5.927c-1.548,1.55-3.237,2.905-5.036,4.053C125.049,90.736,125.17,90.461,125.301,90.192z
			 M116.37,115.056c10.464-1.515,20.109-6.331,27.733-13.964c0.856-0.856,1.679-1.74,2.467-2.649
			c17.482,5.788,37.284,1.388,50.621-11.949c3.941-3.949,7.183-8.533,9.589-13.519c10.793,0.161,21.356-3.197,30.059-9.592
			c6.208,4.679,13.84,7.308,21.784,7.308c19.972,0,36.22-16.248,36.22-36.22c0-0.204-0.016-0.406-0.02-0.609
			c5.152,2.664,10.121,5.684,14.867,9.051c-0.036,0.048-0.069,0.095-0.105,0.143c-0.115,0.151-0.222,0.302-0.334,0.453
			c-0.353,0.476-0.697,0.951-1.027,1.426c-0.14,0.202-0.278,0.403-0.415,0.604c-0.312,0.461-0.613,0.921-0.905,1.381
			c-0.104,0.163-0.212,0.326-0.313,0.489c-0.378,0.608-0.74,1.214-1.084,1.817c-0.075,0.131-0.144,0.261-0.217,0.392
			c-0.271,0.482-0.532,0.962-0.782,1.44c-0.103,0.197-0.203,0.392-0.303,0.588c-0.224,0.44-0.44,0.876-0.648,1.311
			c-0.08,0.166-0.162,0.333-0.239,0.498c-0.273,0.583-0.534,1.162-0.78,1.734c-0.043,0.101-0.082,0.199-0.125,0.299
			c-0.204,0.481-0.399,0.957-0.585,1.428c-0.071,0.181-0.14,0.36-0.209,0.539c-0.158,0.41-0.309,0.815-0.454,1.217
			c-0.057,0.158-0.116,0.317-0.171,0.473c-0.191,0.54-0.373,1.072-0.544,1.594c-0.017,0.052-0.032,0.102-0.049,0.154
			c-0.155,0.478-0.301,0.947-0.44,1.409c-0.047,0.157-0.092,0.311-0.138,0.466c-0.108,0.367-0.212,0.727-0.311,1.082
			c-0.04,0.144-0.081,0.287-0.12,0.429c-0.129,0.472-0.254,0.936-0.37,1.385c-0.126,0.488-0.239,1.001-0.346,1.528
			c-0.016,0.077-0.032,0.151-0.047,0.229c-0.099,0.507-0.188,1.032-0.271,1.572c-0.016,0.102-0.031,0.205-0.046,0.309
			c-0.079,0.545-0.151,1.103-0.214,1.679c-0.01,0.091-0.019,0.184-0.028,0.275c-0.063,0.601-0.12,1.214-0.167,1.846
			c-0.001,0.01-0.002,0.019-0.002,0.028c-0.047,0.638-0.084,1.295-0.116,1.962c-0.005,0.104-0.011,0.208-0.015,0.313
			c-0.028,0.639-0.048,1.291-0.063,1.954c-0.003,0.132-0.005,0.264-0.008,0.396c-0.012,0.667-0.018,1.343-0.017,2.031
			c0,0.112,0.001,0.226,0.002,0.339c0.003,0.704,0.01,1.417,0.026,2.141c0.001,0.029,0.001,0.058,0.001,0.087
			c0.016,0.737,0.04,1.487,0.068,2.243c0.005,0.132,0.009,0.263,0.014,0.396c0.029,0.727,0.063,1.461,0.102,2.202
			c0.008,0.153,0.016,0.306,0.025,0.459c0.041,0.746,0.086,1.497,0.137,2.255c0.009,0.13,0.018,0.26,0.027,0.39
			c0.053,0.766,0.109,1.537,0.171,2.314c0.003,0.043,0.006,0.085,0.01,0.127c0.064,0.798,0.133,1.602,0.206,2.408
			c0.013,0.146,0.026,0.293,0.039,0.439c0.071,0.777,0.147,1.558,0.226,2.34c0.016,0.16,0.032,0.32,0.049,0.481
			c0.08,0.787,0.164,1.576,0.251,2.366c0.015,0.136,0.031,0.272,0.046,0.408c0.089,0.796,0.18,1.593,0.275,2.39
			c0.005,0.044,0.01,0.087,0.015,0.131c0.098,0.823,0.201,1.646,0.305,2.468c0.018,0.145,0.036,0.29,0.055,0.435
			c0.1,0.787,0.204,1.572,0.309,2.355c0.022,0.163,0.044,0.325,0.066,0.488c0.107,0.789,0.215,1.576,0.326,2.359
			c0.017,0.122,0.035,0.242,0.052,0.363c0.113,0.799,0.228,1.594,0.345,2.385c0.005,0.036,0.01,0.072,0.016,0.108
			c0.12,0.813,0.242,1.619,0.365,2.42c0.019,0.124,0.038,0.248,0.057,0.372c0.119,0.773,0.239,1.539,0.36,2.3
			c0.021,0.131,0.042,0.262,0.063,0.393c0.123,0.771,0.247,1.536,0.371,2.292c0.013,0.077,0.025,0.153,0.038,0.23
			c0.13,0.791,0.261,1.574,0.391,2.345c0.001,0.004,0.002,0.009,0.002,0.013c0.13,0.771,0.261,1.528,0.391,2.276
			c0.015,0.088,0.03,0.176,0.046,0.263c0.126,0.725,0.252,1.437,0.376,2.138c0.015,0.084,0.03,0.168,0.045,0.252
			c0.127,0.713,0.254,1.414,0.378,2.099c0.006,0.032,0.012,0.063,0.017,0.095c0.669,3.67,1.299,6.929,1.83,9.589l-67.97-0.001
			l-114.842,0.002c-0.011,0-0.021,0.001-0.032,0.001c-0.624,0.001-1.217,0.04-1.778,0.113l-0.006-0.047v-0.001
			c-0.816,0.095-1.626,0.212-2.432,0.341c-0.21,0.034-0.418,0.072-0.627,0.108c-0.614,0.105-1.224,0.219-1.832,0.344
			c-0.212,0.044-0.424,0.087-0.635,0.133c-0.669,0.145-1.334,0.303-1.995,0.472c-0.118,0.03-0.238,0.058-0.356,0.089
			c-0.094,0.027-0.187,0.047-0.28,0.072C112.901,133.776,114.114,124.289,116.37,115.056z M237.604,478.334l-17.694-37.953
			l59.355-124.402c2.378-4.984,0.265-10.953-4.719-13.332c-4.982-2.378-10.952-0.265-13.331,4.719L208.959,416.89l-21.267-45.617
			c0.024-0.048,0.056-0.09,0.079-0.138l26.316-55.155c2.379-4.984,0.265-10.953-4.719-13.332
			c-4.983-2.378-10.953-0.265-13.331,4.719l-19.289,40.428l-43.777-93.9c0.635-0.061,1.268-0.136,1.898-0.218
			c0.087-0.011,0.176-0.018,0.263-0.03c0.777-0.104,1.549-0.227,2.317-0.363c0.256-0.045,0.51-0.1,0.765-0.148
			c0.516-0.099,1.031-0.2,1.543-0.313c0.299-0.066,0.596-0.138,0.893-0.209c0.466-0.111,0.932-0.225,1.394-0.348
			c0.307-0.081,0.613-0.166,0.919-0.253c0.454-0.129,0.906-0.263,1.356-0.403c0.299-0.093,0.598-0.186,0.895-0.284
			c0.465-0.153,0.927-0.315,1.387-0.48c0.272-0.098,0.546-0.192,0.817-0.294c0.532-0.2,1.059-0.413,1.584-0.629
			c0.192-0.079,0.387-0.152,0.578-0.233c0.711-0.302,1.416-0.619,2.114-0.95c0.166-0.079,0.328-0.165,0.493-0.245
			c0.532-0.259,1.061-0.523,1.585-0.799c0.248-0.131,0.492-0.268,0.737-0.403c0.437-0.239,0.873-0.481,1.304-0.732
			c0.264-0.153,0.525-0.311,0.786-0.469c0.409-0.247,0.815-0.499,1.218-0.757c0.261-0.167,0.521-0.335,0.779-0.507
			c0.404-0.268,0.803-0.543,1.201-0.822c0.244-0.171,0.489-0.341,0.73-0.516c0.426-0.309,0.846-0.629,1.264-0.951
			c0.202-0.156,0.407-0.307,0.607-0.465c0.612-0.485,1.217-0.98,1.811-1.492c1.265,1.091,2.573,2.121,3.921,3.088
			c9.434,6.773,20.8,10.484,32.778,10.484c13.689,0,26.579-4.847,36.699-13.572c10.12,8.725,23.01,13.572,36.699,13.572
			c11.978,0,23.344-3.711,32.778-10.484c1.348-0.967,2.656-1.997,3.921-3.088c0.594,0.512,1.198,1.007,1.81,1.492
			c0.201,0.159,0.406,0.31,0.608,0.466c0.417,0.321,0.836,0.64,1.262,0.949c0.242,0.176,0.487,0.346,0.732,0.518
			c0.396,0.278,0.794,0.552,1.197,0.82c0.26,0.173,0.521,0.342,0.784,0.51c0.4,0.256,0.803,0.506,1.21,0.752
			c0.264,0.16,0.529,0.32,0.796,0.475c0.426,0.248,0.856,0.487,1.288,0.723c0.251,0.137,0.5,0.278,0.753,0.411
			c0.513,0.27,1.032,0.529,1.552,0.783c0.176,0.086,0.349,0.178,0.526,0.261c0.695,0.33,1.397,0.645,2.105,0.946
			c0.203,0.086,0.41,0.165,0.615,0.249c0.513,0.211,1.026,0.418,1.546,0.613c0.278,0.105,0.56,0.202,0.84,0.302
			c0.453,0.162,0.906,0.321,1.363,0.472c0.303,0.1,0.609,0.195,0.914,0.29c0.443,0.137,0.887,0.27,1.334,0.396
			c0.311,0.088,0.623,0.175,0.937,0.258c0.456,0.12,0.914,0.233,1.373,0.342c0.304,0.072,0.607,0.146,0.912,0.214
			c0.503,0.111,1.009,0.21,1.516,0.307c0.264,0.051,0.526,0.106,0.791,0.153c0.766,0.135,1.535,0.257,2.309,0.361
			c0.099,0.013,0.199,0.021,0.299,0.034c0.62,0.08,1.241,0.155,1.866,0.214L237.604,478.334z M355.432,233.32
			c-0.271,0.059-0.543,0.115-0.816,0.167c-0.344,0.067-0.689,0.129-1.036,0.186c-0.337,0.055-0.675,0.102-1.014,0.147
			c-0.297,0.04-0.595,0.081-0.894,0.114c-0.43,0.047-0.862,0.08-1.294,0.112c-0.222,0.016-0.443,0.039-0.666,0.051
			c-0.668,0.036-1.338,0.058-2.009,0.058c-11.339,0-21.832-5.161-28.787-14.159c-1.894-2.45-4.816-3.884-7.912-3.884
			c-3.097,0-6.019,1.435-7.912,3.884c-0.869,1.125-1.794,2.19-2.769,3.192c-6.822,7.016-16.096,10.967-26.018,10.967
			s-19.196-3.951-26.018-10.967c-0.975-1.002-1.899-2.067-2.769-3.192c-1.894-2.45-4.815-3.884-7.912-3.884
			s-6.018,1.435-7.912,3.884c-0.869,1.125-1.794,2.19-2.769,3.192c-6.822,7.016-16.096,10.967-26.018,10.967
			c-11.339,0-21.832-5.161-28.787-14.159c-1.894-2.45-4.816-3.884-7.912-3.884c-3.097,0-6.019,1.435-7.912,3.884
			c-0.869,1.125-1.794,2.19-2.769,3.192c-6.822,7.016-16.096,10.967-26.018,10.967c-0.671,0-1.341-0.021-2.009-0.058
			c-0.225-0.012-0.447-0.035-0.671-0.051c-0.43-0.031-0.86-0.065-1.288-0.111c-0.302-0.033-0.601-0.074-0.901-0.115
			c-0.336-0.045-0.671-0.092-1.005-0.146c-0.35-0.057-0.697-0.12-1.043-0.187c-0.271-0.052-0.54-0.108-0.809-0.166
			c-16.353-3.553-28.642-18.132-28.642-35.534c0-12.873,6.72-24.311,16.994-30.781c0.025-0.015,0.052-0.025,0.076-0.041
			c1.655-1.039,3.371-1.933,5.141-2.683c0.055-0.023,0.11-0.044,0.165-0.066c0.483-0.202,0.97-0.391,1.461-0.571
			c0.193-0.07,0.387-0.137,0.581-0.204c0.361-0.126,0.725-0.245,1.09-0.359c0.24-0.075,0.48-0.148,0.722-0.217
			c0.338-0.098,0.678-0.188,1.019-0.276c0.25-0.064,0.499-0.129,0.751-0.189c0.368-0.086,0.739-0.162,1.11-0.237
			c0.222-0.045,0.443-0.094,0.666-0.135c0.581-0.106,1.166-0.2,1.755-0.278c0.015-0.002,0.031-0.005,0.046-0.007
			c0.098,0,0.208,0,0.33,0c15.226-0.002,213.18-0.002,229.03,0c0.739,0.1,1.48,0.197,2.222,0.293
			c0.096,0.018,0.194,0.033,0.29,0.051c0.277,0.053,0.552,0.109,0.827,0.167c0.303,0.065,0.604,0.135,0.904,0.208
			c0.273,0.066,0.545,0.132,0.815,0.205c0.314,0.084,0.625,0.174,0.936,0.266c0.244,0.072,0.488,0.143,0.729,0.219
			c0.391,0.125,0.779,0.259,1.165,0.398c0.151,0.054,0.303,0.104,0.453,0.159c2.283,0.852,4.481,1.937,6.582,3.255
			c0.026,0.016,0.054,0.027,0.08,0.043c10.272,6.47,16.991,17.908,16.991,30.78C384.07,215.188,371.783,229.766,355.432,233.32z
			 M412.033,131.395c-5.528,6.083-11.771,9.685-20.876,12.044c-3.657,0.947-9.982,0.989-17.617,0.458
			c-0.158-0.019-0.314-0.045-0.475-0.057c-16.775-1.178-37.715-4.951-48.061-6.958c-4.412-22.441-9.334-55.685-6.616-66.223
			c0.147-0.568,0.298-1.125,0.454-1.671c0.534-1.863,1.134-3.597,1.801-5.234c0.311-0.763,0.633-1.509,0.977-2.23
			c0,0,0-0.001,0.001-0.001c1.862-3.903,4.23-7.213,7.283-10.269c0.492-0.493,0.995-0.981,1.524-1.461
			c11.647-10.582,28.594-11.719,37.778-2.534c10.113,10.113,9.464,26.222,9.459,26.331c-0.164,2.8,0.855,5.541,2.809,7.554
			s4.662,3.111,7.468,3.029c0.172-0.003,16.955-0.222,26.622,9.445C423.75,102.801,422.614,119.749,412.033,131.395z"/>
	</g>
</g>
<g>
</g>
<g>
</g>
<g>
</g>
<g>
</g>
<g>
</g>
<g>
</g>
<g>
</g>
<g>
</g>
<g>
</g>
<g>
</g>
<g>
</g>
<g>
</g>
<g>
</g>
<g>
</g>
<g>
</g>
</svg>
