<?xml version="1.0" encoding="iso-8859-1"?>
<!-- Generator: Adobe Illustrator 19.0.0, SVG Export Plug-In . SVG Version: 6.00 Build 0)  -->
<svg version="1.1" id="Capa_1" xmlns="http://www.w3.org/2000/svg" xmlns:xlink="http://www.w3.org/1999/xlink" x="0px" y="0px"
	 viewBox="0 0 511.999 511.999" style="enable-background:new 0 0 511.999 511.999;" xml:space="preserve">
<g>
	<g>
		<path d="M314.518,276.02c-0.13-0.63-0.33-1.26-0.58-1.87c-0.25-0.6-0.55-1.18-0.909-1.72c-0.37-0.55-0.79-1.06-1.25-1.52
			c-0.461-0.46-0.971-0.88-1.521-1.25c-0.54-0.36-1.12-0.67-1.72-0.92c-0.61-0.25-1.24-0.44-1.87-0.57c-1.29-0.26-2.62-0.26-3.91,0
			c-0.64,0.13-1.27,0.32-1.87,0.57c-0.609,0.25-1.189,0.56-1.729,0.92c-0.551,0.37-1.061,0.79-1.521,1.25
			c-0.46,0.46-0.88,0.97-1.24,1.52c-0.359,0.54-0.67,1.12-0.92,1.72c-0.25,0.61-0.439,1.24-0.569,1.87c-0.13,0.65-0.2,1.31-0.2,1.96
			c0,0.65,0.07,1.31,0.2,1.95s0.319,1.27,0.569,1.87c0.25,0.61,0.561,1.19,0.92,1.73c0.36,0.55,0.78,1.06,1.24,1.52
			c0.46,0.46,0.97,0.88,1.521,1.24c0.54,0.36,1.12,0.67,1.729,0.92c0.601,0.25,1.23,0.44,1.87,0.57s1.3,0.2,1.95,0.2
			c0.649,0,1.31-0.07,1.96-0.2c0.63-0.13,1.26-0.32,1.87-0.57c0.6-0.25,1.18-0.56,1.72-0.92c0.55-0.36,1.06-0.78,1.521-1.24
			c0.46-0.46,0.88-0.97,1.25-1.52c0.359-0.54,0.659-1.12,0.909-1.73c0.25-0.6,0.45-1.23,0.58-1.87c0.13-0.64,0.19-1.3,0.19-1.95
			S314.647,276.67,314.518,276.02z"/>
	</g>
</g>
<g>
	<g>
		<path d="M246.6,270.91c-0.46-0.46-0.97-0.88-1.52-1.25c-0.54-0.36-1.12-0.67-1.721-0.92c-0.609-0.25-1.239-0.44-1.869-0.57
			c-1.29-0.26-2.62-0.26-3.91,0c-0.641,0.13-1.27,0.32-1.87,0.57c-0.61,0.25-1.191,0.56-1.73,0.92c-0.55,0.37-1.06,0.79-1.52,1.25
			c-1.86,1.86-2.93,4.44-2.93,7.07c0,0.65,0.069,1.31,0.199,1.95s0.321,1.27,0.571,1.87c0.25,0.61,0.56,1.19,0.92,1.73
			c0.36,0.55,0.78,1.06,1.24,1.52c0.46,0.46,0.97,0.88,1.52,1.24c0.54,0.36,1.12,0.67,1.73,0.92c0.6,0.25,1.229,0.44,1.87,0.57
			c0.64,0.13,1.3,0.2,1.95,0.2c0.659,0,1.309-0.07,1.96-0.2c0.63-0.13,1.26-0.32,1.869-0.57c0.601-0.25,1.181-0.56,1.721-0.92
			c0.55-0.36,1.06-0.78,1.52-1.24c0.46-0.46,0.88-0.97,1.25-1.52c0.36-0.54,0.67-1.12,0.92-1.73c0.25-0.6,0.441-1.23,0.57-1.87
			c0.13-0.64,0.191-1.3,0.191-1.95C249.53,275.35,248.47,272.77,246.6,270.91z"/>
	</g>
</g>
<g>
	<g>
		<path d="M392.101,173.588c2.845-9.947,5.403-20.781,5.403-32.088c0-27.089-7.682-53.417-22.213-76.138
			c-14.143-22.112-34.08-39.837-57.652-51.259c-15.628-7.583-32.35-12.162-49.717-13.609c-3.99-0.328-8-0.494-11.918-0.494
			c-60.114,0-113.813,38.106-133.62,94.821c-0.363,1.038-0.714,2.081-1.052,3.129c-2.37,7.334-4.146,14.891-5.287,22.509
			c0,0.002,0,0.003,0,0.005c0,0.001,0,0.002-0.001,0.003c-1.028,6.904-1.55,13.981-1.55,21.033c0,11.277,2.542,22.086,5.382,32.017
			c-13.042,6.46-21.877,19.751-21.877,35.152c0,17.456,11.604,32.248,27.502,37.08l92.683,198.805
			c0.001,0.001,0.001,0.002,0.002,0.003l28.749,61.668c1.643,3.522,5.177,5.774,9.064,5.774c3.887,0,7.421-2.252,9.064-5.774
			l121.434-260.476c15.898-4.832,27.502-19.624,27.502-37.08C413.999,193.601,405.158,180.152,392.101,173.588z M137.9,112.854
			c0.142-0.585,0.29-1.169,0.441-1.751c0.099-0.383,0.196-0.766,0.298-1.148c0.161-0.601,0.331-1.2,0.502-1.799
			c0.102-0.357,0.2-0.715,0.305-1.07c0.195-0.661,0.4-1.318,0.606-1.974c0.091-0.29,0.177-0.581,0.27-0.87
			c0.304-0.945,0.618-1.886,0.945-2.822C158.272,52.719,204.384,20,256.004,20c3.374,0,6.834,0.144,10.27,0.425
			c1.525,0.127,3.044,0.29,4.557,0.473c0.199,0.024,0.398,0.045,0.596,0.07c1.438,0.181,2.869,0.392,4.296,0.624
			c0.253,0.041,0.507,0.082,0.76,0.125c1.411,0.239,2.817,0.502,4.216,0.79c0.236,0.049,0.472,0.1,0.708,0.15
			c1.433,0.304,2.86,0.629,4.279,0.986c0.133,0.033,0.265,0.07,0.399,0.104c1.415,0.361,2.824,0.746,4.225,1.158
			c0.113,0.033,0.228,0.064,0.341,0.098c1.405,0.418,2.801,0.867,4.191,1.337c0.229,0.077,0.458,0.153,0.686,0.231
			c1.342,0.462,2.676,0.95,4.002,1.46c0.253,0.097,0.506,0.196,0.759,0.295c1.327,0.521,2.646,1.062,3.957,1.631
			c0.076,0.033,0.151,0.068,0.227,0.101c0.276,4.263-1.011,8.424-3.677,11.807c-2.861,3.631-6.964,5.93-11.554,6.473
			c-0.002,0-0.005,0-0.008,0c-5.558,0.666-11.124-1.446-14.893-5.637c-2.036-2.264-5.001-3.474-8.029-3.295
			c-3.039,0.181-5.829,1.736-7.582,4.225c-0.436,0.619-0.862,1.194-1.258,1.698c-6.373,8.086-16.331,12.492-26.611,11.784
			c-5.176-0.362-9.746,3.291-10.561,8.403c-0.831,5.21-3.007,10.172-6.287,14.342c-8.518,10.803-23.369,14.744-36.115,9.583
			c-5.012-2.03-10.733,0.296-12.909,5.249c-1.048,2.387-2.418,4.659-4.082,6.767c-5.707,7.253-14.197,11.461-23.111,11.836
			C137.832,113.147,137.865,113,137.9,112.854z M135.054,227.332c-0.178-0.016-0.355-0.038-0.533-0.059
			c-9.29-1.108-16.522-9.022-16.522-18.606c0-10.228,8.483-18.857,18.945-19.307H283.04c5.182,11.312,16.673,19.09,29.534,19.09
			c2.581,0,5.124-0.303,7.587-0.896c1.478-0.356,2.928-0.816,4.341-1.378c0.137,0.535,0.291,1.062,0.454,1.585
			c0.042,0.135,0.087,0.269,0.131,0.403c0.131,0.402,0.269,0.8,0.415,1.195c0.049,0.133,0.097,0.267,0.148,0.4
			c0.39,1.012,0.828,2,1.313,2.961c0.066,0.131,0.135,0.26,0.203,0.39c0.19,0.364,0.387,0.723,0.59,1.079
			c0.071,0.124,0.141,0.25,0.214,0.373c0.273,0.463,0.554,0.921,0.849,1.369c0.002,0.002,0.003,0.005,0.005,0.007
			c0.291,0.442,0.596,0.874,0.907,1.301c0.086,0.118,0.175,0.235,0.263,0.352c0.246,0.327,0.497,0.649,0.754,0.966
			c0.088,0.109,0.175,0.218,0.264,0.325c0.343,0.412,0.694,0.818,1.057,1.213c0.004,0.004,0.008,0.008,0.012,0.013
			c0.356,0.386,0.723,0.761,1.097,1.13c0.102,0.101,0.206,0.2,0.31,0.299c0.297,0.286,0.6,0.566,0.908,0.84
			c0.101,0.09,0.201,0.182,0.304,0.271c0.406,0.353,0.818,0.698,1.241,1.03c0.01,0.008,0.02,0.015,0.03,0.022
			c0.408,0.32,0.827,0.628,1.25,0.929c0.118,0.084,0.237,0.165,0.356,0.247c0.34,0.235,0.686,0.463,1.035,0.685
			c0.114,0.073,0.228,0.147,0.343,0.218c0.458,0.283,0.922,0.558,1.396,0.819c0.025,0.014,0.051,0.027,0.077,0.04
			c0.443,0.242,0.894,0.473,1.349,0.695c0.056,0.027,0.11,0.058,0.166,0.085H136.751
			C136.178,227.418,135.614,227.383,135.054,227.332z M255.999,478.333l-17.694-37.953l59.355-124.402
			c2.378-4.984,0.266-10.953-4.719-13.332c-4.989-2.38-10.955-0.265-13.332,4.719l-52.256,109.523l-21.266-45.617
			c0.024-0.048,0.056-0.09,0.079-0.138l26.315-55.155c2.378-4.984,0.266-10.953-4.72-13.332c-4.986-2.38-10.954-0.265-13.331,4.719
			l-19.289,40.428L148.348,247.42h215.305L255.999,478.333z M368.465,179.651v18.479c0,3.307-1.304,6.428-3.688,8.808
			c-0.591,0.592-1.229,1.118-1.906,1.573c-2.031,1.366-4.41,2.099-6.895,2.099c-5.161,0-9.601-3.149-11.498-7.627
			c-0.633-1.492-0.982-3.133-0.982-4.853v-14.02c0-4.808-3.421-8.935-8.145-9.827c-0.306-0.058-0.612-0.1-0.918-0.129
			c-0.062-0.006-0.124-0.005-0.186-0.01c-0.243-0.019-0.487-0.033-0.728-0.034c-0.009,0-0.019-0.001-0.028-0.001
			c-0.177,0-0.353,0.011-0.529,0.02c-0.208,0.011-0.415,0.03-0.621,0.054c-0.13,0.015-0.26,0.027-0.389,0.047
			c-0.148,0.023-0.293,0.054-0.439,0.084c-0.114,0.023-0.228,0.045-0.34,0.072c-0.148,0.035-0.294,0.077-0.44,0.119
			c-0.107,0.031-0.214,0.062-0.32,0.096c-0.146,0.047-0.291,0.099-0.435,0.153c-0.102,0.038-0.202,0.079-0.302,0.12
			c-0.143,0.059-0.286,0.12-0.426,0.186c-0.095,0.045-0.189,0.094-0.283,0.142c-0.14,0.071-0.281,0.142-0.418,0.22
			c-0.087,0.05-0.171,0.105-0.257,0.157c-0.284,0.173-0.56,0.36-0.826,0.561c-0.059,0.044-0.12,0.085-0.178,0.131
			c-0.108,0.085-0.21,0.178-0.314,0.268c-0.099,0.085-0.198,0.168-0.294,0.257c-0.096,0.09-0.188,0.184-0.281,0.278
			c-0.097,0.098-0.194,0.196-0.288,0.299c-0.086,0.094-0.168,0.191-0.25,0.288c-0.094,0.112-0.187,0.225-0.277,0.342
			c-0.075,0.097-0.148,0.194-0.219,0.294c-0.091,0.128-0.178,0.258-0.264,0.391c-0.062,0.096-0.125,0.191-0.184,0.29
			c-0.091,0.153-0.176,0.311-0.26,0.47c-0.045,0.085-0.093,0.168-0.135,0.255c-0.122,0.249-0.237,0.504-0.339,0.766
			c-0.795,2.031-2.099,3.81-3.798,5.193c-0.243,0.198-0.494,0.387-0.753,0.568c-2.079,1.455-4.518,2.224-7.057,2.224
			c-6.089,0-11.379-4.559-12.306-10.605c-0.748-4.881-4.947-8.485-9.885-8.485H139.489c-2.678-9.204-4.995-18.593-4.995-27.86
			c0-2.747,0.105-5.496,0.287-8.234c0.573,0.019,1.147,0.055,1.719,0.055c15.42,0,30.285-6.996,40.111-19.484
			c0.832-1.053,1.62-2.135,2.363-3.243c18.718,3.921,38.63-2.991,50.749-18.361c3.618-4.599,6.417-9.784,8.278-15.289
			c11.288-1.104,21.901-5.931,30.152-13.737c6.976,4.148,15.204,5.971,23.434,4.993c9.897-1.17,18.747-6.126,24.916-13.958
			c3.278-4.16,5.579-8.868,6.85-13.85c33.339,22.332,54.151,60.429,54.151,101.104c0,10.139-2.777,20.425-5.76,30.454
			c-2.015,1.829-3.28,4.47-3.28,7.406V179.651z M377.478,227.275c-0.178,0.021-0.355,0.043-0.533,0.059
			c-0.559,0.051-1.124,0.086-1.696,0.086h-5.228c0.056-0.027,0.109-0.061,0.165-0.089c0.696-0.341,1.38-0.708,2.052-1.099
			c0.083-0.048,0.168-0.093,0.25-0.142c0.686-0.408,1.355-0.848,2.013-1.308c0.124-0.087,0.247-0.173,0.37-0.262
			c0.644-0.465,1.275-0.953,1.888-1.467c0.101-0.085,0.2-0.174,0.301-0.26c0.636-0.547,1.26-1.113,1.859-1.713
			c6.156-6.142,9.547-14.292,9.547-22.95v-2.807c3.438,3.503,5.535,8.237,5.535,13.346
			C393.999,218.253,386.767,226.167,377.478,227.275z"/>
	</g>
</g>
<g>
</g>
<g>
</g>
<g>
</g>
<g>
</g>
<g>
</g>
<g>
</g>
<g>
</g>
<g>
</g>
<g>
</g>
<g>
</g>
<g>
</g>
<g>
</g>
<g>
</g>
<g>
</g>
<g>
</g>
</svg>
