<?xml version="1.0" encoding="iso-8859-1"?>
<!-- Generator: Adobe Illustrator 19.0.0, SVG Export Plug-In . SVG Version: 6.00 Build 0)  -->
<svg version="1.1" id="Capa_1" xmlns="http://www.w3.org/2000/svg" xmlns:xlink="http://www.w3.org/1999/xlink" x="0px" y="0px"
	 viewBox="0 0 512 512" style="enable-background:new 0 0 512 512;" xml:space="preserve">
<g>
	<g>
		<path d="M406.1,232.47c0-16.693-6.415-32.539-17.814-44.474c4.507-12.552,7.186-25.659,7.974-39.039
			c0.172-2.782,0.259-5.621,0.259-8.438C396.52,63.037,333.483,0,256,0S115.48,63.037,115.48,140.52
			c0,2.816,0.087,5.655,0.257,8.408c0,0.007,0.001,0.013,0.001,0.02c0,0.003,0,0.007,0.001,0.01c0,0.004,0.001,0.008,0.001,0.012
			c0.757,12.784,3.252,25.296,7.393,37.315c-0.244,0.865-0.383,1.773-0.383,2.716c0,0.017,0.003,0.034,0.003,0.051
			c-10.788,11.807-16.853,27.207-16.853,43.418c0,11.028,2.79,21.415,7.694,30.499c-0.708,1.392-1.094,2.94-1.094,4.531V321
			c0,5.522,4.477,10,10,10h16.876l72.385,174.825c1.547,3.737,5.194,6.175,9.239,6.175h70c4.045,0,7.692-2.438,9.239-6.175
			L372.624,331H389.5c5.523,0,10-4.478,10-10v-53.5c0-1.633-0.4-3.17-1.094-4.532C403.311,253.884,406.1,243.497,406.1,232.47z
			 M135.502,138.827c0.007-0.522,0.01-1.046,0.024-1.566c0.014-0.523,0.039-1.042,0.06-1.563c0.02-0.505,0.035-1.012,0.061-1.516
			c0.028-0.535,0.067-1.067,0.102-1.6c0.032-0.487,0.059-0.974,0.096-1.459c0.042-0.548,0.096-1.092,0.146-1.638
			c0.042-0.466,0.08-0.934,0.128-1.399c0.058-0.559,0.126-1.115,0.192-1.672c0.053-0.449,0.1-0.899,0.158-1.346
			c0.072-0.563,0.156-1.123,0.236-1.684c0.063-0.437,0.12-0.876,0.187-1.312c0.089-0.577,0.189-1.151,0.287-1.725
			c0.07-0.414,0.135-0.829,0.209-1.242c0.106-0.59,0.224-1.175,0.339-1.762c0.077-0.395,0.149-0.792,0.23-1.185
			c0.122-0.593,0.256-1.181,0.386-1.771c0.085-0.384,0.165-0.769,0.254-1.151c0.139-0.6,0.29-1.196,0.439-1.793
			c0.091-0.366,0.177-0.734,0.271-1.099c0.158-0.61,0.327-1.215,0.494-1.821c0.096-0.348,0.187-0.698,0.286-1.045
			c0.177-0.619,0.365-1.233,0.551-1.847c0.1-0.33,0.195-0.662,0.297-0.99c0.195-0.623,0.401-1.242,0.606-1.862
			c0.104-0.316,0.204-0.633,0.31-0.948c0.216-0.636,0.443-1.266,0.67-1.897c0.105-0.292,0.205-0.587,0.312-0.878
			c0.236-0.642,0.483-1.278,0.729-1.914c0.107-0.277,0.21-0.557,0.319-0.834c0.255-0.644,0.52-1.282,0.786-1.92
			c0.11-0.265,0.215-0.531,0.327-0.795c0.275-0.647,0.561-1.289,0.846-1.931c0.111-0.25,0.218-0.502,0.33-0.75
			c0.297-0.654,0.604-1.302,0.912-1.949c0.11-0.232,0.216-0.466,0.327-0.697c0.316-0.654,0.643-1.301,0.97-1.949
			c0.112-0.221,0.219-0.444,0.332-0.665c0.335-0.652,0.68-1.298,1.026-1.943c0.113-0.211,0.222-0.424,0.336-0.634
			c0.355-0.652,0.721-1.298,1.088-1.943c0.112-0.198,0.221-0.398,0.335-0.596c0.378-0.656,0.766-1.305,1.156-1.953
			c0.109-0.182,0.215-0.366,0.325-0.547c0.396-0.65,0.802-1.293,1.21-1.936c0.111-0.175,0.219-0.354,0.331-0.528
			c0.416-0.648,0.842-1.288,1.27-1.927c0.11-0.164,0.216-0.331,0.327-0.494c0.434-0.641,0.878-1.275,1.324-1.908
			c0.111-0.158,0.219-0.318,0.33-0.475c0.451-0.633,0.911-1.258,1.373-1.882c0.113-0.152,0.222-0.307,0.336-0.458
			c0.472-0.631,0.954-1.253,1.438-1.874c0.109-0.14,0.215-0.282,0.324-0.422c0.487-0.619,0.983-1.229,1.481-1.838
			c0.113-0.138,0.223-0.279,0.337-0.416c0.513-0.621,1.035-1.234,1.561-1.845c0.103-0.12,0.203-0.242,0.306-0.361
			c0.529-0.61,1.067-1.212,1.608-1.812c0.105-0.117,0.208-0.236,0.314-0.353c0.54-0.594,1.089-1.179,1.641-1.763
			c0.111-0.118,0.22-0.238,0.331-0.355c0.557-0.584,1.123-1.16,1.692-1.733c0.11-0.111,0.218-0.225,0.328-0.335
			c0.563-0.563,1.135-1.117,1.709-1.669c0.122-0.117,0.241-0.237,0.363-0.354c0.587-0.559,1.182-1.11,1.78-1.657
			c0.113-0.103,0.223-0.209,0.335-0.312c0.602-0.547,1.212-1.085,1.825-1.62c0.114-0.099,0.225-0.202,0.34-0.301
			c0.614-0.531,1.235-1.054,1.859-1.573c0.118-0.098,0.233-0.199,0.351-0.296c0.626-0.516,1.259-1.023,1.895-1.527
			c0.121-0.096,0.239-0.194,0.36-0.29c0.638-0.502,1.284-0.993,1.932-1.482c0.123-0.093,0.243-0.188,0.366-0.281
			c0.65-0.486,1.307-0.962,1.967-1.436c0.126-0.09,0.249-0.183,0.375-0.273c0.653-0.465,1.313-0.919,1.976-1.371
			c0.137-0.093,0.272-0.19,0.409-0.283c0.656-0.444,1.32-0.877,1.985-1.308c0.148-0.096,0.293-0.195,0.441-0.29
			c0.659-0.422,1.324-0.834,1.991-1.244c0.159-0.098,0.315-0.199,0.475-0.296c0.674-0.41,1.355-0.809,2.038-1.206
			c0.156-0.09,0.309-0.185,0.465-0.275c0.674-0.388,1.356-0.765,2.038-1.141c0.169-0.093,0.335-0.19,0.505-0.282
			c0.664-0.361,1.335-0.711,2.006-1.06c0.192-0.1,0.382-0.204,0.575-0.303c0.661-0.339,1.328-0.666,1.995-0.993
			c0.207-0.102,0.412-0.208,0.621-0.308c0.665-0.321,1.337-0.63,2.009-0.939c0.215-0.099,0.427-0.202,0.642-0.3
			c0.654-0.296,1.314-0.581,1.974-0.865c0.238-0.103,0.474-0.211,0.713-0.312c0.666-0.282,1.338-0.552,2.01-0.823
			c0.236-0.095,0.47-0.195,0.707-0.289c0.687-0.271,1.379-0.53,2.072-0.789c0.227-0.085,0.451-0.175,0.678-0.258
			c0.657-0.241,1.32-0.47,1.983-0.7c0.268-0.093,0.534-0.192,0.803-0.283c0.654-0.222,1.314-0.431,1.972-0.642
			c0.28-0.09,0.558-0.185,0.84-0.273c0.673-0.21,1.351-0.407,2.028-0.605c0.272-0.079,0.541-0.165,0.813-0.242
			c0.691-0.196,1.386-0.38,2.081-0.564c0.264-0.07,0.525-0.146,0.789-0.214c0.658-0.17,1.321-0.326,1.984-0.485
			c0.306-0.073,0.61-0.153,0.918-0.224c0.649-0.15,1.304-0.288,1.957-0.427c0.323-0.069,0.643-0.145,0.967-0.211
			c0.662-0.136,1.328-0.258,1.994-0.383c0.319-0.06,0.637-0.126,0.957-0.184c0.65-0.116,1.304-0.219,1.957-0.325
			c0.34-0.055,0.678-0.117,1.02-0.169c0.644-0.099,1.293-0.184,1.94-0.272c0.353-0.048,0.705-0.103,1.059-0.148
			c0.676-0.086,1.355-0.159,2.035-0.233c0.329-0.036,0.657-0.079,0.987-0.113c0.675-0.069,1.354-0.124,2.032-0.181
			c0.338-0.029,0.674-0.064,1.013-0.09c0.667-0.051,1.338-0.088,2.008-0.128c0.353-0.021,0.704-0.049,1.057-0.067
			c0.713-0.036,1.43-0.058,2.146-0.082c0.313-0.01,0.624-0.028,0.938-0.036C253.928,20.013,254.962,20,256,20
			c1.038,0,2.072,0.013,3.104,0.039c0.314,0.008,0.625,0.025,0.938,0.036c0.716,0.024,1.433,0.045,2.146,0.082
			c0.354,0.018,0.704,0.046,1.057,0.067c0.67,0.04,1.341,0.077,2.008,0.128c0.339,0.026,0.675,0.061,1.013,0.09
			c0.678,0.057,1.357,0.112,2.032,0.181c0.33,0.034,0.657,0.077,0.987,0.113c0.679,0.075,1.359,0.147,2.034,0.233
			c0.354,0.045,0.706,0.1,1.059,0.148c0.647,0.088,1.296,0.174,1.94,0.272c0.341,0.052,0.679,0.114,1.02,0.169
			c0.653,0.106,1.307,0.209,1.957,0.325c0.32,0.057,0.637,0.124,0.957,0.184c0.666,0.125,1.332,0.247,1.994,0.383
			c0.324,0.066,0.645,0.142,0.967,0.211c0.653,0.14,1.308,0.277,1.957,0.427c0.307,0.071,0.611,0.151,0.918,0.224
			c0.662,0.159,1.325,0.316,1.983,0.485c0.264,0.068,0.525,0.144,0.789,0.214c0.695,0.184,1.391,0.368,2.081,0.564
			c0.272,0.077,0.542,0.163,0.813,0.242c0.678,0.198,1.356,0.395,2.028,0.605c0.281,0.088,0.559,0.183,0.84,0.273
			c0.659,0.211,1.318,0.42,1.972,0.642c0.269,0.091,0.535,0.19,0.803,0.283c0.663,0.23,1.326,0.459,1.983,0.7
			c0.227,0.083,0.452,0.173,0.678,0.258c0.693,0.259,1.385,0.518,2.072,0.789c0.237,0.094,0.47,0.194,0.707,0.289
			c0.672,0.27,1.344,0.541,2.011,0.823c0.239,0.101,0.474,0.209,0.713,0.312c0.66,0.285,1.32,0.569,1.974,0.865
			c0.215,0.097,0.427,0.201,0.642,0.3c0.672,0.309,1.344,0.619,2.009,0.939c0.208,0.101,0.413,0.207,0.621,0.308
			c0.668,0.327,1.335,0.654,1.995,0.993c0.193,0.099,0.383,0.203,0.575,0.303c0.671,0.349,1.342,0.699,2.006,1.06
			c0.169,0.092,0.336,0.189,0.505,0.282c0.683,0.375,1.364,0.753,2.039,1.141c0.156,0.09,0.309,0.184,0.465,0.275
			c0.683,0.397,1.364,0.796,2.038,1.206c0.159,0.097,0.316,0.198,0.474,0.296c0.667,0.41,1.333,0.822,1.991,1.244
			c0.148,0.095,0.293,0.194,0.441,0.29c0.665,0.431,1.329,0.864,1.985,1.308c0.137,0.093,0.272,0.19,0.409,0.283
			c0.663,0.452,1.323,0.906,1.976,1.371c0.126,0.09,0.249,0.183,0.375,0.273c0.66,0.473,1.317,0.949,1.967,1.436
			c0.123,0.092,0.244,0.188,0.366,0.281c0.648,0.489,1.294,0.981,1.932,1.482c0.121,0.095,0.239,0.194,0.36,0.29
			c0.636,0.504,1.269,1.011,1.895,1.527c0.118,0.098,0.233,0.198,0.351,0.296c0.624,0.519,1.246,1.041,1.859,1.573
			c0.114,0.099,0.226,0.201,0.34,0.301c0.613,0.535,1.223,1.073,1.825,1.62c0.113,0.103,0.223,0.209,0.335,0.312
			c0.598,0.547,1.193,1.098,1.78,1.657c0.122,0.117,0.241,0.237,0.363,0.354c0.574,0.552,1.146,1.106,1.709,1.669
			c0.111,0.111,0.218,0.224,0.328,0.335c0.569,0.573,1.135,1.149,1.692,1.733c0.112,0.117,0.22,0.237,0.331,0.355
			c0.552,0.583,1.101,1.169,1.641,1.763c0.106,0.117,0.208,0.236,0.314,0.353c0.541,0.599,1.079,1.201,1.608,1.812
			c0.103,0.119,0.204,0.242,0.306,0.361c0.525,0.611,1.047,1.224,1.561,1.845c0.114,0.137,0.223,0.278,0.336,0.416
			c0.498,0.609,0.995,1.22,1.481,1.838c0.11,0.139,0.215,0.282,0.324,0.422c0.484,0.621,0.966,1.244,1.438,1.874
			c0.113,0.152,0.223,0.306,0.336,0.458c0.463,0.624,0.923,1.249,1.374,1.882c0.112,0.157,0.219,0.317,0.33,0.475
			c0.446,0.633,0.89,1.267,1.324,1.908c0.111,0.164,0.217,0.33,0.327,0.494c0.428,0.639,0.854,1.28,1.27,1.927
			c0.112,0.175,0.22,0.353,0.331,0.528c0.408,0.642,0.814,1.285,1.21,1.936c0.11,0.181,0.215,0.365,0.325,0.547
			c0.39,0.648,0.778,1.297,1.156,1.953c0.114,0.197,0.222,0.398,0.335,0.596c0.367,0.645,0.733,1.291,1.088,1.943
			c0.114,0.21,0.223,0.423,0.336,0.634c0.346,0.645,0.692,1.291,1.026,1.943c0.113,0.22,0.22,0.444,0.332,0.665
			c0.327,0.647,0.654,1.295,0.97,1.949c0.112,0.231,0.217,0.465,0.327,0.697c0.308,0.648,0.615,1.295,0.912,1.949
			c0.113,0.249,0.219,0.501,0.33,0.75c0.286,0.642,0.571,1.283,0.846,1.931c0.112,0.264,0.217,0.53,0.327,0.795
			c0.265,0.638,0.531,1.276,0.786,1.92c0.109,0.276,0.212,0.556,0.319,0.834c0.246,0.636,0.493,1.273,0.729,1.914
			c0.107,0.291,0.207,0.586,0.312,0.878c0.226,0.631,0.453,1.261,0.67,1.897c0.107,0.314,0.206,0.632,0.31,0.948
			c0.205,0.619,0.411,1.238,0.606,1.862c0.103,0.328,0.197,0.66,0.297,0.99c0.186,0.614,0.374,1.228,0.551,1.847
			c0.099,0.347,0.19,0.697,0.286,1.045c0.167,0.606,0.336,1.211,0.494,1.821c0.094,0.365,0.18,0.733,0.271,1.099
			c0.148,0.597,0.299,1.193,0.439,1.793c0.089,0.382,0.169,0.768,0.254,1.151c0.131,0.589,0.264,1.178,0.386,1.771
			c0.081,0.394,0.153,0.79,0.23,1.185c0.115,0.587,0.232,1.172,0.339,1.762c0.074,0.413,0.139,0.828,0.209,1.242
			c0.097,0.574,0.198,1.148,0.287,1.725c0.067,0.436,0.125,0.875,0.187,1.312c0.08,0.561,0.164,1.12,0.236,1.684
			c0.058,0.447,0.105,0.898,0.158,1.346c0.065,0.557,0.134,1.113,0.192,1.672c0.048,0.465,0.085,0.933,0.128,1.399
			c0.05,0.546,0.104,1.09,0.146,1.638c0.038,0.485,0.065,0.973,0.096,1.459c0.035,0.533,0.074,1.065,0.102,1.6
			c0.026,0.504,0.041,1.01,0.061,1.516c0.021,0.521,0.046,1.041,0.06,1.563c0.014,0.52,0.017,1.044,0.024,1.566
			c0.006,0.461,0.017,0.922,0.018,1.385c-2.483,0.351-5.004,0.528-7.546,0.528c-20.157,0-38.392-11.15-47.591-29.101
			c-1.711-3.34-5.148-5.44-8.901-5.439c-3.753,0.001-7.189,2.102-8.899,5.443C294.39,129.591,276.159,140.74,256,140.74
			s-38.39-11.149-47.579-29.097c-1.71-3.341-5.146-5.442-8.899-5.443c-0.001,0-0.001,0-0.002,0c-3.752,0-7.189,2.101-8.899,5.439
			c-9.199,17.95-27.434,29.101-47.591,29.101c-2.542,0-5.063-0.177-7.546-0.528C135.485,139.749,135.495,139.289,135.502,138.827z
			 M284.317,492H238.12l42.413-97.695c2.199-5.066-0.124-10.956-5.19-13.155c-5.067-2.201-10.956,0.125-13.155,5.19l-40.053,92.259
			l-21.351-51.567l26.596-55.851c2.374-4.986,0.257-10.954-4.729-13.328c-4.985-2.375-10.954-0.258-13.328,4.729l-18.842,39.567
			L161.023,331h189.955L284.317,492z M379.501,311H379.5h-13.559H146.059H132.5v-26.377c5.622,4.081,11.859,7.207,18.465,9.284
			c0.195,0.062,0.392,0.119,0.589,0.179c0.732,0.223,1.468,0.432,2.209,0.629c0.272,0.072,0.544,0.145,0.818,0.214
			c0.745,0.187,1.494,0.359,2.246,0.52c0.219,0.047,0.436,0.1,0.656,0.145c0.942,0.191,1.89,0.36,2.843,0.509
			c0.275,0.043,0.553,0.076,0.83,0.115c0.701,0.1,1.403,0.191,2.109,0.269c0.349,0.038,0.699,0.072,1.05,0.104
			c0.68,0.063,1.363,0.114,2.047,0.156c0.318,0.019,0.636,0.042,0.955,0.057c0.994,0.046,1.991,0.076,2.992,0.076
			c14.024,0,27.621-4.621,38.703-12.943C220.858,297.144,237.991,305,256,305c18.009,0,35.142-7.856,46.987-21.064
			c11.083,8.322,24.679,12.943,38.703,12.943c1,0,1.996-0.03,2.989-0.076c0.324-0.015,0.646-0.038,0.969-0.058
			c0.675-0.041,1.348-0.092,2.019-0.154c0.363-0.034,0.726-0.068,1.087-0.108c0.673-0.074,1.343-0.161,2.011-0.256
			c0.311-0.044,0.625-0.082,0.935-0.13c0.929-0.146,1.854-0.311,2.773-0.496c0.295-0.06,0.585-0.13,0.878-0.194
			c0.665-0.144,1.327-0.295,1.986-0.459c0.342-0.086,0.682-0.177,1.022-0.268c0.641-0.172,1.279-0.353,1.914-0.545
			c0.289-0.087,0.579-0.173,0.866-0.264c0.869-0.275,1.732-0.566,2.588-0.878c0.034-0.012,0.069-0.023,0.103-0.036
			c1.944-0.711,3.847-1.523,5.712-2.418c0.036-0.017,0.071-0.035,0.107-0.052c3.442-1.66,6.743-3.618,9.852-5.876V311z
			 M374.746,262.088c-0.093,0.104-0.184,0.21-0.278,0.312c-0.395,0.432-0.8,0.854-1.211,1.27c-0.107,0.108-0.213,0.216-0.32,0.323
			c-0.419,0.415-0.846,0.823-1.281,1.222c-0.097,0.088-0.194,0.174-0.291,0.261c-0.456,0.41-0.918,0.814-1.391,1.205
			c-0.062,0.051-0.125,0.101-0.188,0.152c-2.121,1.738-4.405,3.283-6.826,4.61c-0.045,0.025-0.089,0.052-0.135,0.077
			c-0.436,0.237-0.882,0.458-1.326,0.68c-0.248,0.124-0.494,0.252-0.744,0.371c-0.373,0.178-0.752,0.344-1.131,0.512
			c-0.335,0.148-0.669,0.297-1.007,0.436c-0.335,0.139-0.674,0.269-1.013,0.4c-0.393,0.151-0.788,0.299-1.185,0.439
			c-0.308,0.108-0.617,0.213-0.928,0.315c-0.439,0.144-0.881,0.28-1.325,0.41c-0.285,0.084-0.571,0.166-0.859,0.244
			c-0.476,0.129-0.956,0.248-1.437,0.361c-0.269,0.063-0.538,0.129-0.809,0.187c-0.507,0.109-1.017,0.205-1.528,0.296
			c-0.256,0.046-0.51,0.096-0.767,0.137c-0.532,0.086-1.068,0.155-1.604,0.221c-0.244,0.03-0.487,0.067-0.732,0.093
			c-0.568,0.061-1.14,0.102-1.712,0.141c-0.218,0.015-0.433,0.038-0.652,0.05c-0.789,0.042-1.582,0.065-2.377,0.065
			c-12.436,0-24.388-5.274-32.791-14.472c-2.133-2.335-5.243-3.524-8.388-3.204c-3.145,0.318-5.955,2.104-7.577,4.817
			C285.08,277.157,271.273,285,256,285s-29.08-7.843-36.934-20.978c-1.622-2.713-4.432-4.499-7.577-4.817
			c-0.337-0.034-0.672-0.051-1.007-0.051c-0.029,0-0.057,0.004-0.086,0.004c-0.142,0.001-0.281,0.015-0.422,0.022
			c-0.228,0.012-0.456,0.024-0.682,0.051c-0.153,0.018-0.304,0.046-0.456,0.072c-0.211,0.035-0.421,0.073-0.63,0.122
			c-0.153,0.036-0.304,0.078-0.455,0.121c-0.203,0.058-0.404,0.121-0.604,0.191c-0.148,0.052-0.293,0.107-0.438,0.166
			c-0.198,0.081-0.392,0.17-0.585,0.263c-0.138,0.067-0.275,0.133-0.409,0.206c-0.196,0.106-0.385,0.223-0.573,0.342
			c-0.122,0.077-0.247,0.151-0.366,0.234c-0.202,0.14-0.394,0.294-0.586,0.45c-0.096,0.078-0.196,0.149-0.289,0.23
			c-0.279,0.244-0.548,0.503-0.801,0.78c-8.403,9.197-20.355,14.472-32.791,14.472c-0.795,0-1.587-0.023-2.376-0.065
			c-0.23-0.012-0.456-0.037-0.685-0.052c-0.559-0.038-1.117-0.079-1.672-0.138c-0.269-0.029-0.535-0.069-0.803-0.102
			c-0.508-0.063-1.016-0.129-1.52-0.209c-0.293-0.047-0.583-0.104-0.875-0.157c-0.468-0.085-0.936-0.172-1.401-0.271
			c-0.32-0.069-0.637-0.145-0.955-0.221c-0.422-0.1-0.842-0.204-1.26-0.316c-0.353-0.095-0.704-0.196-1.053-0.3
			c-0.364-0.108-0.727-0.22-1.089-0.337c-0.394-0.128-0.786-0.26-1.175-0.398c-0.292-0.104-0.583-0.213-0.873-0.323
			c-0.447-0.17-0.893-0.342-1.333-0.526c-0.196-0.082-0.39-0.169-0.584-0.253c-0.523-0.227-1.044-0.458-1.556-0.704
			c-0.04-0.019-0.08-0.04-0.12-0.06c-14.832-7.2-25.082-22.413-25.082-39.977c0-12.873,5.549-25.007,15.239-33.47h148.777
			c5.523,0,10-4.477,10-10c0-5.523-4.477-10-10-10h-148.13c-2.032-6.033-3.574-12.211-4.621-18.501
			c1.946,0.154,3.903,0.241,5.868,0.241c22.206,0,42.716-9.849,56.487-26.463c13.765,16.615,34.272,26.463,56.483,26.463
			s42.718-9.848,56.483-26.463c13.771,16.614,34.281,26.463,56.487,26.463c1.966,0,3.922-0.087,5.869-0.241
			c-1.505,9.03-4.01,17.848-7.541,26.327c-1.684,4.043-0.541,8.711,2.821,11.518c10.156,8.483,15.981,20.921,15.981,34.125
			C386.1,243.841,381.8,254.224,374.746,262.088z"/>
	</g>
</g>
<g>
	<g>
		<path d="M297.24,354.67c-0.13-0.63-0.32-1.26-0.57-1.87c-0.25-0.6-0.56-1.18-0.92-1.72c-0.36-0.55-0.78-1.061-1.24-1.521
			c-0.46-0.46-0.97-0.88-1.52-1.25c-0.54-0.359-1.13-0.67-1.73-0.92c-0.6-0.25-1.23-0.439-1.87-0.57c-1.29-0.26-2.62-0.26-3.91,0
			c-0.64,0.131-1.27,0.32-1.87,0.57c-0.6,0.25-1.18,0.561-1.72,0.92c-0.55,0.37-1.06,0.79-1.53,1.25
			c-0.46,0.46-0.87,0.971-1.24,1.521c-0.36,0.54-0.67,1.12-0.92,1.72c-0.25,0.61-0.44,1.24-0.57,1.87
			c-0.13,0.649-0.19,1.31-0.19,1.96c0,0.65,0.06,1.31,0.19,1.95c0.13,0.64,0.32,1.27,0.57,1.87c0.25,0.609,0.56,1.189,0.92,1.729
			c0.37,0.55,0.79,1.061,1.25,1.521c0.46,0.46,0.97,0.88,1.52,1.239c0.54,0.36,1.12,0.67,1.72,0.92c0.61,0.25,1.24,0.44,1.87,0.57
			c0.65,0.13,1.31,0.2,1.96,0.2c0.65,0,1.31-0.07,1.95-0.2s1.27-0.32,1.87-0.57c0.6-0.25,1.19-0.56,1.73-0.92
			c0.55-0.359,1.06-0.779,1.52-1.239c0.46-0.46,0.88-0.971,1.24-1.521c0.36-0.54,0.67-1.12,0.92-1.729
			c0.25-0.601,0.44-1.23,0.57-1.87c0.13-0.641,0.2-1.3,0.2-1.95S297.37,355.319,297.24,354.67z"/>
	</g>
</g>
<g>
	<g>
		<path d="M337.05,187.05c-0.12-0.64-0.32-1.27-0.57-1.88c-0.25-0.601-0.56-1.18-0.92-1.72c-0.36-0.551-0.78-1.061-1.24-1.52
			c-0.46-0.46-0.97-0.88-1.52-1.24c-0.54-0.37-1.12-0.67-1.72-0.92c-0.61-0.25-1.24-0.45-1.88-0.58c-1.29-0.25-2.62-0.25-3.9,0
			c-0.64,0.13-1.27,0.33-1.88,0.58c-0.6,0.25-1.18,0.55-1.72,0.92c-0.55,0.36-1.06,0.78-1.52,1.24c-0.46,0.46-0.88,0.97-1.24,1.52
			c-0.36,0.54-0.67,1.119-0.92,1.72c-0.25,0.61-0.45,1.24-0.57,1.88c-0.13,0.64-0.2,1.3-0.2,1.95c0,0.649,0.07,1.31,0.2,1.95
			c0.13,0.64,0.32,1.27,0.57,1.869c0.25,0.61,0.56,1.19,0.92,1.73c0.36,0.55,0.78,1.06,1.24,1.52c0.46,0.461,0.97,0.881,1.52,1.24
			c0.54,0.36,1.12,0.67,1.73,0.92c0.6,0.25,1.23,0.45,1.87,0.57c0.64,0.13,1.3,0.2,1.95,0.2c0.65,0,1.31-0.07,1.95-0.2
			c0.64-0.12,1.27-0.32,1.87-0.57c0.61-0.25,1.19-0.56,1.73-0.92c0.55-0.359,1.06-0.779,1.52-1.24c0.46-0.46,0.88-0.97,1.24-1.52
			c0.36-0.54,0.67-1.12,0.92-1.73c0.25-0.6,0.45-1.23,0.57-1.869c0.13-0.641,0.2-1.301,0.2-1.95
			C337.25,188.35,337.18,187.689,337.05,187.05z"/>
	</g>
</g>
<g>
</g>
<g>
</g>
<g>
</g>
<g>
</g>
<g>
</g>
<g>
</g>
<g>
</g>
<g>
</g>
<g>
</g>
<g>
</g>
<g>
</g>
<g>
</g>
<g>
</g>
<g>
</g>
<g>
</g>
</svg>
