<?xml version="1.0" encoding="iso-8859-1"?>
<!-- Generator: Adobe Illustrator 19.0.0, SVG Export Plug-In . SVG Version: 6.00 Build 0)  -->
<svg version="1.1" id="Capa_1" xmlns="http://www.w3.org/2000/svg" xmlns:xlink="http://www.w3.org/1999/xlink" x="0px" y="0px"
	 viewBox="0 0 512 512" style="enable-background:new 0 0 512 512;" xml:space="preserve">
<g>
	<g>
		<path d="M323.449,305.319c-0.13-0.639-0.319-1.269-0.569-1.869c-0.25-0.601-0.561-1.19-0.92-1.73c-0.37-0.55-0.79-1.06-1.25-1.52
			c-0.46-0.46-0.97-0.881-1.52-1.24c-0.54-0.36-1.12-0.67-1.72-0.92c-0.61-0.25-1.24-0.44-1.87-0.57c-1.29-0.26-2.62-0.26-3.91,0
			c-0.64,0.13-1.27,0.32-1.87,0.57c-0.609,0.25-1.189,0.56-1.729,0.92c-0.55,0.359-1.06,0.78-1.521,1.24
			c-1.859,1.859-2.93,4.439-2.93,7.069c0,0.65,0.07,1.311,0.2,1.96c0.13,0.63,0.32,1.261,0.57,1.87c0.25,0.601,0.56,1.181,0.92,1.72
			c0.359,0.551,0.779,1.061,1.239,1.521c0.461,0.47,0.971,0.88,1.521,1.25c0.54,0.36,1.12,0.67,1.729,0.92
			c0.601,0.25,1.23,0.44,1.87,0.57c0.641,0.13,1.301,0.189,1.95,0.189c0.65,0,1.311-0.06,1.96-0.189c0.63-0.13,1.26-0.32,1.87-0.57
			c0.6-0.25,1.18-0.56,1.72-0.92c0.551-0.37,1.06-0.78,1.52-1.25c0.46-0.46,0.88-0.97,1.25-1.521c0.359-0.539,0.67-1.119,0.92-1.72
			c0.25-0.609,0.439-1.24,0.57-1.87c0.13-0.649,0.189-1.31,0.189-1.96C323.638,306.62,323.579,305.959,323.449,305.319z"/>
	</g>
</g>
<g>
	<g>
		<path d="M253.589,305.319c-0.119-0.639-0.319-1.269-0.569-1.869c-0.25-0.601-0.559-1.181-0.92-1.73
			c-0.359-0.55-0.78-1.06-1.24-1.52c-2.319-2.32-5.77-3.381-9.02-2.73c-0.64,0.13-1.27,0.32-1.87,0.57
			c-0.61,0.25-1.189,0.56-1.729,0.92c-0.551,0.359-1.061,0.78-1.521,1.24c-0.46,0.46-0.88,0.97-1.24,1.52
			c-0.37,0.54-0.67,1.13-0.92,1.73c-0.25,0.6-0.45,1.229-0.569,1.869c-0.131,0.641-0.2,1.301-0.2,1.95c0,0.65,0.069,1.311,0.2,1.96
			c0.119,0.63,0.319,1.261,0.569,1.87c0.25,0.601,0.561,1.181,0.92,1.72c0.36,0.551,0.78,1.061,1.24,1.521
			c0.46,0.47,0.97,0.88,1.521,1.25c0.54,0.36,1.119,0.67,1.729,0.92c0.6,0.25,1.23,0.44,1.87,0.57c0.64,0.13,1.3,0.189,1.95,0.189
			c0.65,0,1.31-0.06,1.95-0.189c0.64-0.13,1.27-0.32,1.869-0.57c0.61-0.25,1.19-0.56,1.73-0.92c0.55-0.37,1.06-0.78,1.52-1.25
			c0.46-0.46,0.881-0.97,1.24-1.521c0.36-0.539,0.67-1.119,0.92-1.72c0.25-0.609,0.45-1.24,0.57-1.87c0.13-0.649,0.2-1.31,0.2-1.96
			C253.789,306.62,253.719,305.959,253.589,305.319z"/>
	</g>
</g>
<g>
	<g>
		<path d="M416.346,163.813c-4.301-8.961-10.704-16.985-18.495-23.189c-1.576-1.263-3.214-2.453-4.9-3.564
			c0.026-0.83,0.04-1.654,0.04-2.47c0-1.607-0.055-3.341-0.173-5.395c-0.548-8.224-2.327-16.281-5.275-23.913
			c-0.544-1.425-1.122-2.751-1.564-3.742c-12.125-27.295-38.123-45.714-67.799-48.065c-0.95-0.08-1.908-0.142-2.885-0.185
			C312.12,23.379,286.738,0,256,0c-30.97,0-56.5,23.73-59.363,53.963c-24.367,3.288-45.859,17.327-58.717,38.779
			c-1.898,3.145-3.597,6.452-5.053,9.842c-4.117,9.618-6.309,19.809-6.521,30.316c-2.174,1.063-4.294,2.252-6.35,3.556
			c-0.031,0.02-0.063,0.036-0.093,0.056c-0.316,0.201-0.62,0.424-0.933,0.631c-0.719,0.475-1.441,0.946-2.143,1.449
			c-0.088,0.063-0.17,0.133-0.257,0.196c-0.915,0.663-1.818,1.342-2.7,2.051c-0.002,0.002-0.004,0.003-0.006,0.005
			c-0.001,0-0.001,0.001-0.001,0.001c-7.671,6.185-13.968,14.127-18.203,22.956c-4.346,9.023-6.55,18.693-6.55,28.739
			c0,15.718,5.448,30.606,15.435,42.536c0.134,0.485,0.292,0.964,0.501,1.431l120.678,269.579c1.61,3.598,5.185,5.914,9.127,5.914
			h42.297c3.942,0,7.517-2.316,9.127-5.914l120.678-269.579c0.205-0.457,0.362-0.926,0.494-1.401
			c9.991-11.925,15.443-26.826,15.443-42.566C422.89,182.494,420.686,172.824,416.346,163.813z M135.201,150.833
			c1.477-0.721,3.068-1.394,4.73-2.004c3.919-1.436,6.506-5.139,6.559-9.257c0.004-0.275-0.004-0.551-0.024-0.829
			c-0.052-0.75-0.086-1.518-0.109-2.225c-0.018-0.637-0.026-1.282-0.026-1.929c0-8.384,1.656-16.504,4.919-24.125
			c1.091-2.539,2.366-5.024,3.809-7.414c10.982-18.322,30.281-29.471,51.626-29.821c2.755-0.046,5.368-1.225,7.224-3.26
			c1.857-2.035,2.791-4.745,2.584-7.492c-0.081-1.079-0.121-2.011-0.121-2.848C216.37,37.778,234.148,20,256,20
			s39.63,17.778,39.63,39.63c0,0.952-0.043,1.976-0.129,3.044c-0.233,2.928,0.832,5.81,2.913,7.882
			c2.081,2.072,4.969,3.121,7.893,2.879c1.773-0.149,3.553-0.225,5.292-0.225c1.746,0,3.35,0.063,4.95,0.198
			c22.406,1.775,42.007,15.666,51.153,36.256c0.514,1.155,0.859,1.979,1.169,2.789c2.234,5.783,3.576,11.863,3.984,17.978
			c0.09,1.576,0.134,2.936,0.134,4.158c0,1.803-0.09,3.672-0.267,5.555c-0.004,0.04-0.008,0.081-0.011,0.121l-0.129,1.435
			c-0.037,0.448-0.04,0.893-0.017,1.334c0.002,0.034,0.001,0.068,0.003,0.102c0.025,0.42,0.081,0.834,0.158,1.242
			c0.01,0.052,0.017,0.103,0.028,0.155c0.081,0.396,0.188,0.784,0.316,1.164c0.02,0.058,0.038,0.117,0.059,0.175
			c0.132,0.373,0.288,0.736,0.463,1.09c0.029,0.058,0.058,0.116,0.088,0.173c0.181,0.35,0.383,0.688,0.604,1.014
			c0.035,0.052,0.072,0.103,0.109,0.154c0.23,0.325,0.478,0.638,0.746,0.935c0.038,0.041,0.077,0.081,0.115,0.122
			c0.28,0.299,0.576,0.584,0.894,0.849c0.032,0.026,0.066,0.05,0.098,0.077c0.334,0.271,0.684,0.526,1.055,0.755
			c0.003,0.002,0.006,0.005,0.01,0.007c-2.957,2.226-6.678,3.433-10.681,3.433c-9.859,0-17.88-7.15-17.88-15.941v-8.67
			c0-0.838-0.105-1.672-0.314-2.483c-0.316-1.234-0.477-2.438-0.477-3.576V106.22c0-4.845-3.473-8.992-8.242-9.845
			c-0.591-0.105-1.181-0.156-1.764-0.156c-4.122,0-7.907,2.558-9.376,6.539c-2.439,6.611-9.254,11.053-16.958,11.053
			c-8.268,0-15.595-5.264-17.424-12.516c-1.233-4.893-5.925-8.099-10.928-7.479c-5.009,0.622-8.769,4.877-8.769,9.924v20.07
			c0,4.091-1.779,8.003-4.995,11.002c-3.41,3.167-7.944,4.922-12.779,4.947c-0.342-0.012-0.654-0.012-1.004,0
			c-9.81-0.053-17.771-7.187-17.771-15.949v-20.07c0-5.048-3.763-9.305-8.772-9.925c-5.001-0.608-9.695,2.591-10.926,7.487
			c-1.821,7.248-9.152,12.508-17.432,12.508c-7.703,0-14.524-4.445-16.972-11.061c-1.681-4.543-6.375-7.224-11.142-6.374
			c-4.767,0.854-8.237,5.001-8.237,9.844v17.591c0,1.189-0.152,2.376-0.454,3.526c-0.217,0.827-0.326,1.679-0.326,2.533v8.67
			c0,4.091-1.776,7.998-5.01,11.008c-3.411,3.181-7.978,4.933-12.859,4.933c-4.034,0-7.904-1.269-11.008-3.443
			C134.942,150.972,135.069,150.897,135.201,150.833z M270.669,492h-29.338l-2.034-4.543l69.116-142.714
			c2.407-4.971,0.329-10.951-4.642-13.358c-4.967-2.407-10.951-0.329-13.358,4.642l-61.79,127.586l-21.754-48.597l31.807-70.52
			c2.271-5.034,0.03-10.956-5.004-13.227c-5.033-2.273-10.957-0.031-13.227,5.004l-24.505,54.33L129.606,242.42h26.788
			c1.308,3.383,2.899,6.604,4.726,9.654c11.175,18.655,31.496,30.645,54.179,30.645c14.093,0,27.588-4.679,38.544-13.129
			c0.73-0.563,1.449-1.143,2.157-1.74c0.707,0.597,1.426,1.177,2.157,1.74c10.956,8.45,24.451,13.129,38.543,13.129
			c22.683,0,43.004-11.99,54.179-30.645c1.827-3.05,3.418-6.271,4.726-9.654h26.788L270.669,492z M391.999,222.421H348.3
			c-4.593,0-8.595,3.128-9.704,7.585c-4.795,19.262-22.023,32.715-41.896,32.715c-12.757,0-24.804-5.617-33.051-15.411
			c-1.9-2.256-4.699-3.559-7.649-3.559s-5.749,1.303-7.649,3.559c-8.247,9.794-20.294,15.411-33.051,15.411
			c-19.872,0-37.101-13.453-41.896-32.715c-1.109-4.457-5.111-7.585-9.704-7.585h-43.68c-7.063-8.365-10.909-18.834-10.909-29.88
			c-0.001-7.018,1.536-13.768,4.576-20.076c1.451-3.025,3.252-5.897,5.337-8.55c6.982,6.637,16.552,10.566,26.797,10.566
			c9.963,0,19.374-3.66,26.493-10.3c7.336-6.828,11.376-15.935,11.376-25.641v-7.496c0.076-0.349,0.146-0.699,0.212-1.05
			c5.148,2.458,10.916,3.816,16.919,3.816c6.33,0,12.343-1.471,17.638-4.111c2.97,17.031,18.598,30.061,37.372,30.061
			c0.135,0,0.264-0.002,0.395-0.006c0.134,0.004,0.266,0.006,0.395,0.006c9.94,0,19.35-3.655,26.511-10.308
			c5.825-5.433,9.57-12.298,10.864-19.753c5.292,2.641,11.301,4.111,17.625,4.111c6.005,0,11.774-1.359,16.921-3.816
			c0.065,0.346,0.134,0.691,0.209,1.035v7.511c0,19.817,16.993,35.941,37.88,35.941c9.999,0,19.31-3.718,26.2-10.448
			c0.044-0.043,0.085-0.088,0.128-0.131c2.094,2.66,3.904,5.539,5.362,8.578c3.032,6.295,4.569,13.045,4.569,20.061
			C402.89,203.597,399.05,214.065,391.999,222.421z"/>
	</g>
</g>
<g>
	<g>
		<path d="M345.084,196.203c-0.795-16.579-13.266-29.566-28.391-29.566c-6.918,0-12.87,2.599-17.191,5.304
			c-4.289-2.72-10.238-5.304-17.368-5.304c-15.127,0-27.598,12.987-28.391,29.566c-0.461,9.634,2.855,16.46,5.39,20.756
			c5.783,9.803,28.148,24.805,34.865,29.17c1.656,1.076,3.553,1.614,5.448,1.614c1.896,0,3.79-0.538,5.446-1.613
			c6.695-4.348,28.992-19.301,34.805-29.178C342.23,212.65,345.545,205.818,345.084,196.203z M322.463,206.804
			c-1.967,3.342-12.58,11.725-23.016,18.905c-10.482-7.208-21.135-15.605-23.088-18.914c-2.037-3.45-2.801-6.242-2.639-9.636
			c0.273-5.703,4.126-10.522,8.414-10.522c4.405,0,8.548,3.375,9.836,4.735c1.84,2.145,4.433,3.329,7.26,3.402
			c2.876,0.063,5.51-1.151,7.461-3.22c0.92-0.977,5.591-4.918,10.003-4.918c4.287,0,8.141,4.819,8.414,10.523
			C325.27,200.544,324.504,203.338,322.463,206.804z"/>
	</g>
</g>
<g>
</g>
<g>
</g>
<g>
</g>
<g>
</g>
<g>
</g>
<g>
</g>
<g>
</g>
<g>
</g>
<g>
</g>
<g>
</g>
<g>
</g>
<g>
</g>
<g>
</g>
<g>
</g>
<g>
</g>
</svg>
