<?xml version="1.0" encoding="iso-8859-1"?>
<!-- Generator: Adobe Illustrator 19.0.0, SVG Export Plug-In . SVG Version: 6.00 Build 0)  -->
<svg version="1.1" id="Capa_1" xmlns="http://www.w3.org/2000/svg" xmlns:xlink="http://www.w3.org/1999/xlink" x="0px" y="0px"
	 viewBox="0 0 512.001 512.001" style="enable-background:new 0 0 512.001 512.001;" xml:space="preserve">
<g>
	<g>
		<path d="M412.936,232.99h-10.538c3.72-13.287,5.604-27.019,5.604-40.99c0-17.491-2.953-34.647-8.774-50.996
			c-0.025-0.077-0.039-0.156-0.066-0.233C382.4,93.933,343.314,58.147,295.717,45.262c0.222-1.702,0.348-3.434,0.348-5.196
			C296.066,17.974,278.092,0,256.001,0s-40.065,17.974-40.065,40.065c0,1.763,0.127,3.497,0.349,5.2
			c-47.621,12.897-86.714,48.714-103.461,95.592c-5.854,16.397-8.822,33.604-8.822,51.143c0,13.971,1.883,27.704,5.604,40.99h-10.54
			c-5.522,0-10,4.478-10,10v59.45c0,5.522,4.478,10,10,10h21.959l43.788,191.785c1.038,4.549,5.084,7.774,9.749,7.774h54.762
			c0.015,0,0.029,0.002,0.044,0.002c0.014,0,0.029-0.002,0.044-0.002h53.179c0.014,0,0.029,0.002,0.043,0.002
			c0.015,0,0.029-0.002,0.044-0.002h54.762c4.665,0,8.711-3.226,9.749-7.774l43.788-191.785h21.959c5.522,0,10-4.478,10-10v-59.45
			C422.936,237.468,418.457,232.99,412.936,232.99z M256.001,20c11.064,0,20.065,9.001,20.065,20.065
			c0,3.371-0.845,6.545-2.32,9.337c-0.047,0.089-0.088,0.182-0.136,0.27c-0.28,0.51-0.583,1.005-0.905,1.488
			c-0.082,0.123-0.171,0.242-0.255,0.363c-0.252,0.361-0.516,0.713-0.79,1.056c-0.113,0.141-0.226,0.282-0.342,0.419
			c-0.299,0.353-0.611,0.695-0.933,1.027c-0.086,0.088-0.165,0.182-0.252,0.268c-0.379,0.376-0.778,0.732-1.185,1.077
			c-0.192,0.162-0.39,0.316-0.588,0.47c-0.239,0.188-0.482,0.369-0.73,0.546c-0.232,0.165-0.464,0.33-0.702,0.486
			c-0.234,0.153-0.477,0.293-0.718,0.437c-0.084,0.05-0.168,0.101-0.253,0.15c-0.12,0.069-0.235,0.145-0.357,0.212
			c-0.246,0.134-0.5,0.253-0.752,0.377c-0.221,0.109-0.44,0.22-0.665,0.321c-0.221,0.099-0.446,0.189-0.671,0.28
			c-0.068,0.028-0.135,0.058-0.203,0.084c-0.246,0.097-0.496,0.187-0.746,0.274c-0.256,0.089-0.511,0.18-0.771,0.259
			c-0.021,0.007-0.042,0.015-0.063,0.021c-0.493,0.147-0.993,0.277-1.502,0.387c-0.211,0.046-0.425,0.078-0.637,0.117
			c-0.396,0.072-0.794,0.135-1.197,0.183c-0.197,0.024-0.394,0.047-0.592,0.065c-0.594,0.053-1.192,0.091-1.799,0.091
			c-0.607,0-1.206-0.038-1.8-0.091c-0.198-0.018-0.395-0.041-0.592-0.065c-0.404-0.048-0.802-0.111-1.198-0.183
			c-0.212-0.039-0.426-0.071-0.636-0.117c-0.508-0.11-1.009-0.24-1.502-0.387c-0.281-0.084-0.557-0.184-0.834-0.281
			c-0.251-0.087-0.5-0.177-0.747-0.274c-0.294-0.115-0.586-0.235-0.873-0.364c-0.226-0.101-0.445-0.212-0.666-0.321
			c-0.463-0.228-0.915-0.474-1.359-0.737c-0.242-0.144-0.485-0.285-0.72-0.438c-0.238-0.155-0.469-0.319-0.7-0.484
			c-0.248-0.178-0.493-0.36-0.733-0.549c-0.196-0.154-0.394-0.307-0.585-0.468c-0.408-0.346-0.807-0.702-1.186-1.079
			c-0.086-0.085-0.165-0.179-0.25-0.266c-0.323-0.333-0.636-0.675-0.936-1.029c-0.116-0.137-0.228-0.277-0.34-0.417
			c-0.276-0.344-0.54-0.697-0.793-1.059c-0.084-0.12-0.172-0.238-0.253-0.36c-0.322-0.482-0.626-0.978-0.905-1.488
			c-0.049-0.089-0.091-0.183-0.138-0.273c-1.474-2.791-2.318-5.965-2.318-9.334C235.936,29.001,244.936,20,256.001,20z
			 M147.814,116.403c0.061-0.087,0.12-0.174,0.181-0.261c0.53-0.752,1.069-1.496,1.614-2.236c0.129-0.176,0.26-0.351,0.39-0.526
			c0.552-0.742,1.109-1.48,1.676-2.21c0.009-0.012,0.019-0.023,0.028-0.035c1.822-2.343,3.723-4.618,5.694-6.829
			c0.172-0.193,0.343-0.386,0.516-0.577c0.578-0.641,1.162-1.277,1.752-1.906c0.166-0.178,0.335-0.353,0.503-0.529
			c1.904-2.008,3.869-3.956,5.893-5.84c0.19-0.177,0.378-0.355,0.569-0.531c0.606-0.557,1.218-1.107,1.834-1.654
			c0.25-0.221,0.501-0.441,0.752-0.66c0.619-0.541,1.241-1.079,1.87-1.609c0.163-0.137,0.329-0.271,0.493-0.408
			c1.343-1.119,2.708-2.212,4.095-3.278c0.141-0.108,0.279-0.219,0.42-0.326c0.631-0.481,1.269-0.951,1.908-1.421
			c0.31-0.228,0.62-0.455,0.932-0.68c0.622-0.448,1.246-0.892,1.876-1.33c0.318-0.221,0.639-0.438,0.959-0.657
			c2.102-1.434,4.247-2.808,6.432-4.121c0.365-0.219,0.729-0.441,1.097-0.657c0.623-0.366,1.25-0.726,1.88-1.082
			c0.405-0.229,0.811-0.455,1.219-0.68c0.625-0.345,1.251-0.69,1.882-1.025c0.4-0.212,0.804-0.418,1.207-0.626
			c1.142-0.592,2.294-1.167,3.454-1.726c0.438-0.211,0.874-0.426,1.315-0.632c0.613-0.287,1.231-0.564,1.849-0.842
			c0.481-0.216,0.963-0.431,1.447-0.641c0.61-0.265,1.222-0.527,1.837-0.784c0.51-0.213,1.024-0.419,1.537-0.625
			c0.599-0.241,1.196-0.485,1.798-0.717c1.002-0.386,2.008-0.76,3.021-1.121c0.575-0.205,1.154-0.398,1.732-0.595
			c0.573-0.196,1.146-0.391,1.722-0.579c0.589-0.192,1.181-0.378,1.773-0.562c0.587-0.182,1.176-0.359,1.766-0.533
			c0.577-0.17,1.153-0.341,1.732-0.503c0.72-0.201,1.443-0.391,2.167-0.58c0.404-0.105,0.805-0.218,1.21-0.319
			c0.195,0.262,0.405,0.51,0.606,0.766c0.23,0.293,0.457,0.59,0.694,0.877c0.216,0.26,0.441,0.511,0.663,0.765
			c0.258,0.296,0.518,0.591,0.784,0.88c0.206,0.222,0.416,0.44,0.627,0.658c0.317,0.328,0.64,0.65,0.968,0.967
			c0.172,0.166,0.344,0.332,0.519,0.495c0.447,0.417,0.904,0.822,1.37,1.218c0.065,0.055,0.128,0.112,0.193,0.167
			c5.218,4.383,11.566,7.455,18.538,8.725c0.084,0.015,0.169,0.03,0.253,0.045c0.632,0.111,1.268,0.206,1.91,0.287
			c0.153,0.02,0.306,0.041,0.459,0.059c0.589,0.067,1.183,0.119,1.78,0.16c0.135,0.009,0.269,0.028,0.405,0.036
			c0.04,0.003,0.081,0.001,0.121,0.004c0.75,0.042,1.504,0.068,2.264,0.068s1.514-0.026,2.264-0.068
			c0.176-0.01,0.35-0.028,0.525-0.04c0.597-0.042,1.192-0.093,1.782-0.16c0.152-0.018,0.303-0.039,0.455-0.058
			c0.644-0.081,1.284-0.177,1.918-0.288c0.043-0.007,0.086-0.012,0.128-0.019c0.038-0.007,0.076-0.017,0.115-0.024
			c6.982-1.27,13.337-4.349,18.56-8.742c0.044-0.037,0.087-0.076,0.131-0.113c0.489-0.415,0.967-0.84,1.436-1.278
			c0.159-0.148,0.315-0.299,0.472-0.45c0.347-0.334,0.688-0.675,1.022-1.021c0.11-0.114,0.227-0.22,0.336-0.335
			c0.003-0.003,0.006-0.006,0.009-0.009c0.081-0.086,0.156-0.178,0.237-0.265c0.288-0.311,0.569-0.63,0.847-0.951
			c0.154-0.177,0.317-0.345,0.468-0.525c0.047-0.056,0.09-0.117,0.137-0.173c0.296-0.357,0.58-0.723,0.863-1.09
			c0.148-0.192,0.306-0.375,0.451-0.57c1.257,0.315,2.507,0.652,3.751,1.004c0.185,0.052,0.369,0.107,0.553,0.16
			c1.08,0.311,2.154,0.634,3.223,0.972c0.183,0.058,0.366,0.115,0.549,0.173c2.494,0.8,4.958,1.67,7.389,2.614
			c0.058,0.022,0.115,0.046,0.172,0.068c1.155,0.45,2.302,0.917,3.442,1.4c0.117,0.049,0.234,0.099,0.351,0.148
			c3.646,1.555,7.214,3.269,10.691,5.138c0.047,0.025,0.094,0.051,0.142,0.076c19.388,10.448,35.982,25.657,48.101,44.147
			c-2.429,1.836-3.975,4.745-3.975,7.98v16.98c0,0.354-0.02,0.702-0.057,1.038c-0.042,0.372-0.063,0.747-0.063,1.121v10.311
			c0,3.163-1.251,6.126-3.523,8.342c-2.385,2.327-5.683,3.608-9.286,3.608c-7.367,0-13.591-5.473-13.591-11.95
			c0-0.081-0.001-0.163-0.003-0.244l-0.669-27.351c-0.117-4.798-3.626-8.835-8.359-9.621c-0.551-0.091-1.1-0.136-1.644-0.136
			c-4.126,0-7.908,2.561-9.376,6.539c-1.813,4.912-7.12,8.343-12.908,8.343c-6.3,0-11.875-3.966-13.255-9.43
			c-1.235-4.893-5.93-8.094-10.93-7.475c-5.007,0.623-8.766,4.878-8.766,9.924v16.98c0,3.031-1.331,5.941-3.74,8.187
			c-2.585,2.403-6.03,3.74-9.716,3.771c-0.324-0.011-0.629-0.012-0.942,0c-7.431-0.066-13.452-5.404-13.452-11.958v-16.98
			c0-5.045-3.762-9.301-8.772-9.921c-5.005-0.626-9.695,2.59-10.927,7.485c-1.372,5.458-6.949,9.419-13.261,9.419
			c-5.783,0-11.093-3.434-12.913-8.352c-1.665-4.499-6.287-7.18-11.023-6.394c-4.731,0.789-8.237,4.827-8.352,9.623l-0.659,27.351
			c-0.002,0.081-0.003,0.161-0.003,0.241c0,3.024-1.332,5.932-3.739,8.177c-2.618,2.434-6.116,3.773-9.852,3.773
			c-7.366,0-13.59-5.473-13.59-11.95V129.93c0-3.543-1.857-6.714-4.722-8.495C145.535,119.73,146.658,118.053,147.814,116.403z
			 M129.176,155.288v1.992c0,17.617,15.068,31.95,33.59,31.95c8.805,0,17.139-3.241,23.48-9.136
			c6.487-6.048,10.074-14.098,10.111-22.682l0.121-5.046c3.991,1.583,8.336,2.443,12.829,2.443c4.897,0,9.582-0.995,13.816-2.809
			c3.438,14.171,16.81,24.768,32.733,24.768c0.116,0,0.227-0.002,0.337-0.005c0.113,0.003,0.225,0.005,0.333,0.005
			c8.806,0,17.141-3.241,23.478-9.134c4.671-4.354,7.839-9.748,9.26-15.634c4.231,1.813,8.911,2.809,13.803,2.809
			c4.496,0,8.843-0.86,12.836-2.443l0.123,5.047c0.075,17.557,15.115,31.816,33.591,31.816c8.853,0,17.11-3.3,23.253-9.292
			c6.163-6.013,9.557-14.06,9.557-22.658v-3.337c3.697,12.297,5.575,25.066,5.575,38.056c0,14.038-2.183,27.796-6.495,40.99h-251.01
			C126.184,219.796,124,206.038,124,192C124,179.486,125.741,167.173,129.176,155.288z M329.465,492h-34.868l20.059-110.71
			c0.984-5.435-2.623-10.639-8.057-11.623c-5.436-0.984-10.639,2.623-11.623,8.057L274.27,492h-36.54l-20.705-114.276
			c-0.984-5.434-6.184-9.041-11.623-8.057c-5.434,0.984-9.041,6.189-8.057,11.623L217.405,492h-34.868l-40.997-179.56h228.922
			L329.465,492z M402.936,292.44h-19.933H128.999h-19.933v-39.45h14.376h265.118h14.376V292.44z"/>
	</g>
</g>
<g>
	<g>
		<path d="M321.001,341.411c-0.13-0.63-0.32-1.261-0.57-1.87c-0.25-0.6-0.56-1.181-0.92-1.721c-0.37-0.55-0.79-1.06-1.25-1.52
			c-0.46-0.46-0.97-0.88-1.52-1.24c-0.54-0.359-1.12-0.67-1.721-0.92c-0.609-0.25-1.239-0.45-1.87-0.58
			c-1.29-0.25-2.619-0.25-3.909,0c-0.641,0.13-1.271,0.33-1.87,0.58c-0.61,0.25-1.19,0.561-1.73,0.92
			c-0.55,0.36-1.06,0.78-1.52,1.24c-0.46,0.46-0.88,0.97-1.24,1.52c-0.36,0.54-0.67,1.12-0.92,1.721
			c-0.25,0.609-0.44,1.24-0.57,1.87c-0.13,0.649-0.2,1.31-0.2,1.96c0,0.649,0.07,1.31,0.2,1.949c0.13,0.64,0.32,1.27,0.57,1.87
			c0.25,0.61,0.56,1.19,0.92,1.73c0.36,0.55,0.78,1.06,1.24,1.52c0.46,0.46,0.97,0.88,1.52,1.24c0.54,0.36,1.12,0.67,1.73,0.92
			c0.6,0.25,1.229,0.44,1.87,0.57c0.64,0.13,1.3,0.2,1.949,0.2c0.65,0,1.311-0.07,1.96-0.2c0.631-0.13,1.261-0.32,1.87-0.57
			c0.601-0.25,1.181-0.56,1.721-0.92c0.55-0.36,1.06-0.78,1.52-1.24c0.46-0.46,0.88-0.97,1.25-1.52c0.36-0.54,0.66-1.12,0.91-1.73
			c0.25-0.6,0.45-1.23,0.57-1.87c0.13-0.64,0.199-1.3,0.199-1.949C321.189,342.721,321.121,342.061,321.001,341.411z"/>
	</g>
</g>
<g>
	<g>
		<path d="M210.61,341.42c-0.13-0.64-0.319-1.27-0.569-1.87c-0.25-0.61-0.561-1.19-0.92-1.73c-0.36-0.55-0.78-1.06-1.24-1.52
			c-2.32-2.32-5.771-3.39-9.03-2.74c-0.63,0.13-1.26,0.33-1.87,0.58c-0.6,0.25-1.18,0.561-1.72,0.92c-0.55,0.36-1.06,0.78-1.52,1.24
			c-0.471,0.46-0.881,0.97-1.25,1.52c-0.36,0.54-0.671,1.12-0.921,1.73c-0.25,0.6-0.439,1.23-0.569,1.87
			c-0.13,0.64-0.19,1.3-0.19,1.95c0,0.649,0.061,1.31,0.19,1.949c0.13,0.641,0.319,1.271,0.569,1.871
			c0.25,0.61,0.561,1.19,0.921,1.73c0.369,0.55,0.79,1.06,1.25,1.52c0.46,0.46,0.97,0.88,1.52,1.25c0.54,0.35,1.12,0.66,1.72,0.91
			c0.61,0.25,1.24,0.45,1.87,0.57c0.65,0.13,1.311,0.2,1.96,0.2c2.63,0,5.21-1.07,7.07-2.931c0.46-0.46,0.88-0.97,1.24-1.52
			c0.359-0.54,0.67-1.12,0.92-1.73c0.25-0.6,0.439-1.23,0.569-1.87c0.131-0.64,0.2-1.3,0.2-1.949
			C210.81,342.72,210.741,342.06,210.61,341.42z"/>
	</g>
</g>
<g>
</g>
<g>
</g>
<g>
</g>
<g>
</g>
<g>
</g>
<g>
</g>
<g>
</g>
<g>
</g>
<g>
</g>
<g>
</g>
<g>
</g>
<g>
</g>
<g>
</g>
<g>
</g>
<g>
</g>
</svg>
