<?xml version="1.0" encoding="iso-8859-1"?>
<!-- Generator: Adobe Illustrator 19.0.0, SVG Export Plug-In . SVG Version: 6.00 Build 0)  -->
<svg version="1.1" id="Capa_1" xmlns="http://www.w3.org/2000/svg" xmlns:xlink="http://www.w3.org/1999/xlink" x="0px" y="0px"
	 viewBox="0 0 511.999 511.999" style="enable-background:new 0 0 511.999 511.999;" xml:space="preserve">
<g>
	<g>
		<path d="M458.015,219.756c-3.079-19.99-9.067-39.293-17.842-57.448c-6.631-13.737-14.863-26.783-24.472-38.782
			c-0.001-0.001-0.001-0.002-0.002-0.003c-0.003-0.004-0.006-0.007-0.009-0.011c-0.01-0.012-0.02-0.025-0.03-0.038
			c-0.213-0.273-0.426-0.543-0.61-0.768c-0.006-0.007-0.011-0.013-0.017-0.021c-0.036-0.044-0.068-0.084-0.104-0.127
			c-0.253-0.312-0.501-0.617-0.739-0.907c-0.822-1.003-1.561-1.887-2.266-2.71c-28.97-34.145-68.279-57.787-111.621-67.379
			c0.334-2.202,0.509-4.455,0.509-6.748C300.813,20.103,280.71,0,256,0c-24.71,0-44.813,20.103-44.813,44.813
			c0,2.293,0.175,4.546,0.509,6.748c-43.114,9.543-82.271,33.006-111.188,66.861c-1.077,1.256-2.01,2.376-2.859,3.429l-1.12,1.38
			c-0.001,0.001-0.001,0.002-0.002,0.003l-0.001,0.001c-9.639,11.992-17.938,25.111-24.668,39
			c-8.792,18.176-14.791,37.503-17.874,57.521c-15.953,9.997-26.591,27.725-26.591,47.9c0,16.51,7.093,31.886,19.566,42.668
			l63.984,194.796c1.348,4.105,5.18,6.879,9.5,6.879h88.348h94.415h88.348c4.32,0,8.152-2.775,9.501-6.879l63.984-194.796
			c12.475-10.782,19.567-26.158,19.567-42.668C484.606,247.481,473.969,229.752,458.015,219.756z M256,20
			c13.682,0,24.813,11.131,24.813,24.813c0,3.806-0.864,7.413-2.402,10.64c-0.109,0.229-0.225,0.453-0.341,0.678
			c-0.208,0.404-0.426,0.801-0.655,1.192c-0.103,0.177-0.207,0.353-0.315,0.527c-0.157,0.253-0.317,0.505-0.482,0.751
			c-0.112,0.167-0.229,0.328-0.345,0.492c-0.275,0.39-0.562,0.772-0.858,1.145c-0.142,0.178-0.285,0.356-0.432,0.53
			c-0.169,0.2-0.339,0.399-0.514,0.593c-0.234,0.26-0.473,0.514-0.716,0.763c-0.171,0.176-0.345,0.348-0.522,0.518
			c-0.273,0.263-0.551,0.522-0.835,0.772c-0.117,0.104-0.236,0.206-0.355,0.308c-0.826,0.699-1.693,1.347-2.6,1.932
			c-0.027,0.017-0.053,0.034-0.08,0.051c-2.935,1.877-6.261,3.141-9.771,3.658c-0.01,0.001-0.021,0.002-0.031,0.004
			c-0.515,0.075-1.035,0.129-1.557,0.171c-0.122,0.01-0.244,0.02-0.366,0.028c-0.542,0.036-1.087,0.06-1.636,0.06
			c-0.548,0-1.093-0.024-1.635-0.06c-0.124-0.008-0.247-0.018-0.369-0.028c-0.517-0.042-1.032-0.096-1.543-0.17
			c-0.016-0.002-0.033-0.004-0.049-0.006c-0.582-0.086-1.16-0.192-1.731-0.318c-0.006-0.001-0.011-0.003-0.017-0.004
			c-2.84-0.63-5.53-1.755-7.955-3.296c-0.07-0.045-0.14-0.089-0.21-0.135c-0.441-0.287-0.875-0.585-1.298-0.899
			c-0.047-0.035-0.092-0.072-0.139-0.107c-0.35-0.264-0.691-0.541-1.027-0.823c-0.173-0.146-0.345-0.295-0.515-0.446
			c-0.19-0.169-0.375-0.343-0.56-0.517c-0.377-0.357-0.743-0.724-1.097-1.104c-0.084-0.09-0.171-0.179-0.254-0.27
			c-0.234-0.258-0.462-0.522-0.685-0.79c-0.053-0.064-0.105-0.129-0.157-0.193c-0.709-0.87-1.362-1.788-1.95-2.749
			c-0.024-0.04-0.047-0.08-0.071-0.12c-2.253-3.735-3.552-8.107-3.552-12.778C231.187,31.131,242.318,20,256,20z M120.773,125.731
			c0.289-0.311,0.583-0.615,0.874-0.924c0.563-0.599,1.126-1.198,1.697-1.788c0.36-0.373,0.727-0.739,1.09-1.109
			c0.508-0.517,1.016-1.036,1.53-1.547c0.394-0.392,0.793-0.777,1.191-1.165c0.492-0.48,0.983-0.961,1.48-1.436
			c0.415-0.396,0.834-0.786,1.253-1.178c0.488-0.457,0.975-0.914,1.467-1.365c0.431-0.395,0.866-0.785,1.3-1.176
			c0.487-0.438,0.974-0.875,1.465-1.308c0.445-0.392,0.893-0.78,1.342-1.167c0.489-0.423,0.98-0.844,1.473-1.261
			c0.454-0.384,0.911-0.765,1.369-1.145c0.496-0.411,0.994-0.82,1.495-1.227c0.462-0.375,0.926-0.748,1.392-1.119
			c0.503-0.4,1.008-0.797,1.515-1.192c0.471-0.367,0.942-0.732,1.416-1.094c0.509-0.389,1.021-0.773,1.534-1.156
			c0.478-0.357,0.956-0.714,1.437-1.066c0.518-0.379,1.039-0.753,1.56-1.126c0.483-0.346,0.966-0.693,1.452-1.035
			c0.527-0.37,1.057-0.733,1.588-1.097c0.487-0.334,0.973-0.671,1.464-1c0.543-0.365,1.091-0.723,1.639-1.083
			c0.483-0.317,0.964-0.637,1.45-0.95c0.571-0.368,1.148-0.727,1.723-1.088c0.468-0.294,0.934-0.593,1.405-0.883
			c0.642-0.395,1.29-0.781,1.936-1.168c0.41-0.246,0.816-0.496,1.228-0.739c1.045-0.615,2.097-1.22,3.154-1.815
			c0.394-0.221,0.792-0.435,1.188-0.653c0.684-0.378,1.366-0.757,2.055-1.127c0.467-0.25,0.938-0.492,1.408-0.739
			c0.622-0.327,1.243-0.655,1.869-0.975c0.497-0.254,0.997-0.5,1.496-0.749c0.603-0.301,1.205-0.604,1.811-0.898
			c0.515-0.25,1.034-0.494,1.551-0.739c0.597-0.283,1.193-0.566,1.792-0.843c0.523-0.241,1.049-0.476,1.574-0.713
			c0.601-0.271,1.202-0.54,1.807-0.805c0.529-0.231,1.059-0.457,1.59-0.683c0.605-0.257,1.21-0.513,1.817-0.765
			c0.535-0.221,1.072-0.438,1.609-0.654c0.61-0.245,1.221-0.488,1.833-0.727c0.537-0.209,1.075-0.416,1.614-0.62
			c0.619-0.234,1.239-0.466,1.861-0.694c0.537-0.197,1.075-0.392,1.615-0.584c0.628-0.224,1.259-0.443,1.89-0.66
			c0.538-0.185,1.076-0.369,1.616-0.549c0.639-0.213,1.281-0.421,1.923-0.627c0.534-0.172,1.067-0.344,1.603-0.51
			c0.657-0.204,1.316-0.402,1.975-0.599c0.526-0.157,1.051-0.316,1.578-0.468c0.679-0.196,1.361-0.384,2.042-0.573
			c0.512-0.142,1.023-0.286,1.536-0.423c0.715-0.191,1.433-0.372,2.15-0.555c0.483-0.123,0.965-0.25,1.45-0.369
			c0.8-0.196,1.602-0.381,2.405-0.567c0.405-0.094,0.809-0.193,1.215-0.284c1.211-0.271,2.425-0.531,3.642-0.778
			c0.271,0.389,0.564,0.759,0.847,1.138c0.028,0.048,0.058,0.089,0.089,0.13c0.41,0.545,0.829,1.081,1.262,1.605
			c0.032,0.039,0.066,0.078,0.098,0.117c1.211,1.457,2.509,2.83,3.886,4.115c0.214,0.201,0.425,0.404,0.643,0.6
			c0.306,0.275,0.618,0.541,0.931,0.807c0.347,0.296,0.698,0.587,1.055,0.873c0.245,0.196,0.491,0.391,0.74,0.582
			c0.521,0.401,1.053,0.788,1.592,1.166c0.107,0.075,0.211,0.153,0.319,0.227c5.038,3.466,10.816,5.922,17.045,7.092
			c0.098,0.019,0.197,0.035,0.295,0.053c0.723,0.131,1.451,0.244,2.186,0.339c0.193,0.025,0.385,0.051,0.578,0.074
			c0.663,0.077,1.33,0.138,2.002,0.186c0.213,0.015,0.425,0.036,0.639,0.049c0.857,0.049,1.718,0.08,2.587,0.08
			c0.869,0,1.73-0.031,2.587-0.08c0.212-0.012,0.423-0.033,0.635-0.049c0.673-0.048,1.343-0.109,2.008-0.187
			c0.19-0.022,0.38-0.048,0.569-0.073c0.739-0.096,1.472-0.21,2.2-0.341c0.093-0.017,0.187-0.033,0.28-0.05
			c6.25-1.173,12.047-3.642,17.097-7.125c0.038-0.026,0.075-0.054,0.114-0.081c0.618-0.429,1.224-0.874,1.819-1.333
			c0.193-0.148,0.383-0.299,0.573-0.451c0.429-0.342,0.851-0.692,1.267-1.049c0.249-0.213,0.498-0.425,0.743-0.644
			c0.333-0.299,0.656-0.607,0.98-0.915c0.776-0.736,1.531-1.495,2.254-2.288c0.01-0.011,0.021-0.022,0.031-0.033
			c0.383-0.42,0.75-0.854,1.117-1.29c0.136-0.161,0.273-0.32,0.407-0.483c0.361-0.44,0.711-0.888,1.056-1.343
			c0.119-0.157,0.236-0.316,0.353-0.475c0.231-0.314,0.474-0.618,0.698-0.938c1.221,0.247,2.438,0.508,3.653,0.78
			c0.405,0.091,0.808,0.19,1.213,0.283c0.807,0.187,1.614,0.373,2.418,0.57c0.481,0.118,0.96,0.244,1.439,0.366
			c0.725,0.185,1.451,0.368,2.174,0.561c0.507,0.135,1.012,0.278,1.518,0.418c0.691,0.191,1.383,0.382,2.072,0.582
			c0.522,0.151,1.042,0.308,1.562,0.464c0.668,0.2,1.335,0.4,2,0.607c0.53,0.165,1.059,0.335,1.588,0.505
			c0.652,0.209,1.303,0.421,1.951,0.637c0.533,0.178,1.064,0.359,1.595,0.542c0.643,0.221,1.285,0.445,1.926,0.674
			c0.528,0.188,1.055,0.379,1.581,0.572c0.641,0.235,1.28,0.474,1.917,0.716c0.521,0.198,1.042,0.397,1.561,0.6
			c0.639,0.249,1.275,0.503,1.911,0.759c0.514,0.207,1.027,0.414,1.539,0.626c0.638,0.264,1.273,0.534,1.907,0.804
			c0.504,0.215,1.009,0.429,1.512,0.649c0.643,0.281,1.282,0.57,1.921,0.858c0.488,0.22,0.977,0.438,1.462,0.662
			c0.66,0.305,1.316,0.618,1.972,0.93c0.46,0.219,0.921,0.434,1.379,0.657c0.702,0.341,1.4,0.693,2.097,1.043
			c0.407,0.204,0.816,0.404,1.221,0.611c0.891,0.456,1.777,0.923,2.66,1.393c0.207,0.11,0.416,0.216,0.622,0.327
			c1.084,0.582,2.162,1.176,3.235,1.78c0.353,0.199,0.701,0.405,1.052,0.605c0.721,0.412,1.442,0.824,2.158,1.247
			c0.431,0.254,0.858,0.516,1.288,0.774c0.629,0.378,1.259,0.755,1.884,1.141c0.457,0.282,0.909,0.571,1.364,0.857
			c0.593,0.373,1.187,0.746,1.776,1.127c0.463,0.299,0.923,0.604,1.384,0.907c0.573,0.377,1.145,0.754,1.714,1.138
			c0.466,0.314,0.929,0.633,1.392,0.952c0.558,0.384,1.115,0.768,1.669,1.158c0.464,0.326,0.925,0.656,1.386,0.987
			c0.547,0.393,1.092,0.787,1.635,1.186c0.46,0.338,0.918,0.678,1.375,1.02c0.536,0.401,1.07,0.806,1.602,1.213
			c0.455,0.349,0.909,0.699,1.361,1.052c0.53,0.413,1.056,0.831,1.582,1.25c0.446,0.356,0.891,0.712,1.333,1.072
			c0.526,0.428,1.048,0.861,1.569,1.294c0.434,0.362,0.87,0.722,1.301,1.088c0.524,0.444,1.043,0.894,1.562,1.344
			c0.422,0.366,0.845,0.73,1.264,1.099c0.529,0.467,1.052,0.941,1.576,1.415c0.399,0.361,0.801,0.718,1.197,1.083
			c0.553,0.508,1.099,1.025,1.646,1.54c0.36,0.339,0.724,0.675,1.082,1.018c0.639,0.611,1.269,1.232,1.899,1.853
			c0.259,0.255,0.522,0.506,0.78,0.763c0.878,0.875,1.747,1.76,2.609,2.653c0.277,0.288,0.548,0.582,0.824,0.871
			c0.542,0.57,1.084,1.14,1.619,1.717c-5.798-0.212-10.852-3.921-12.131-8.975c-1.238-4.89-5.922-8.088-10.931-7.469
			c-5.006,0.624-8.764,4.879-8.764,9.923v16.53c0,0.338-0.02,0.703-0.059,1.086c-0.035,0.337-0.052,0.675-0.052,1.014v10.04
			c0,3.007-1.19,5.823-3.36,7.938c-2.271,2.219-5.417,3.441-8.86,3.441c-7.025,0-12.96-5.211-12.96-11.38v-7.15
			c0-0.857-0.11-1.71-0.328-2.539c-0.214-0.815-0.323-1.64-0.323-2.451v-14.49c0-4.844-3.472-8.991-8.24-9.844
			c-0.592-0.106-1.182-0.157-1.766-0.157c-4.12,0-7.904,2.556-9.375,6.536c-1.73,4.684-6.796,7.956-12.319,7.956
			c-6.015,0-11.338-3.779-12.656-8.985c-1.239-4.89-5.919-8.088-10.931-7.469c-5.006,0.624-8.763,4.879-8.763,9.923v16.53
			c0,2.88-1.264,5.646-3.542,7.77c-2.476,2.297-5.768,3.576-9.285,3.61c-0.332-0.012-0.624-0.011-0.93,0
			c-6.965-0.067-12.823-5.251-12.823-11.379v-16.53c0-5.046-3.76-9.302-8.769-9.924c-5.003-0.622-9.694,2.586-10.928,7.479
			c-1.311,5.2-6.632,8.975-12.653,8.975c-5.523,0-10.589-3.271-12.319-7.956c-1.679-4.544-6.378-7.229-11.141-6.378
			c-4.769,0.853-8.24,5-8.24,9.844v14.49c0,0.812-0.108,1.636-0.322,2.451c-0.217,0.829-0.328,1.682-0.328,2.539v7.15
			c0,2.873-1.265,5.635-3.552,7.768c-2.502,2.329-5.847,3.611-9.418,3.611c-7.03,0-12.97-5.211-12.97-11.38v-26.63
			c0-4.842-3.469-8.988-8.234-9.843c-4.766-0.854-9.46,1.827-11.142,6.367c-1.72,4.641-6.704,7.897-12.159,7.965
			C120.728,125.781,120.75,125.756,120.773,125.731z M89.859,170.95c4.765-9.833,10.413-19.231,16.821-28.052
			c4.287,1.905,8.992,2.911,13.85,2.911c4.081,0,8.038-0.724,11.71-2.064v4.204c0,17.303,14.79,31.38,32.97,31.38
			c8.643,0,16.826-3.185,23.05-8.977c6.397-5.966,9.92-13.922,9.92-22.403v-4.444c3.85,1.493,8.031,2.304,12.35,2.304
			c4.693,0,9.188-0.933,13.267-2.636c3.49,13.761,16.533,24.016,32.043,24.016c0.114,0,0.223-0.001,0.331-0.004
			c0.11,0.003,0.217,0.004,0.319,0.004c8.633,0,16.812-3.178,23.05-8.966c4.503-4.199,7.581-9.386,9.009-15.05
			c4.078,1.703,8.57,2.636,13.26,2.636c4.319,0,8.5-0.811,12.35-2.304v4.444c0,17.303,14.786,31.38,32.96,31.38
			c8.699,0,16.81-3.246,22.83-9.129c6.056-5.902,9.39-13.805,9.39-22.251v-4.454c3.862,1.499,8.074,2.314,12.46,2.314
			c4.752,0,9.369-0.97,13.594-2.805c6.421,8.846,12.053,18.228,16.77,28.002c0.001,0.002,0.001,0.003,0.002,0.005
			c6.279,12.99,10.979,26.633,14.039,40.724c-0.738-0.107-1.48-0.195-2.224-0.272c-0.134-0.014-0.269-0.023-0.404-0.036
			c-0.73-0.07-1.463-0.126-2.198-0.168c-0.222-0.013-0.444-0.025-0.667-0.036c-0.865-0.039-1.732-0.066-2.603-0.066H83.891
			c-0.872,0-1.739,0.027-2.603,0.066c-0.223,0.01-0.445,0.023-0.667,0.036c-0.736,0.042-1.47,0.097-2.201,0.168
			c-0.133,0.013-0.267,0.022-0.4,0.036c-0.745,0.078-1.487,0.167-2.226,0.273C78.858,197.62,83.567,183.956,89.859,170.95z
			 M167.403,492l-30.085-126.546c-1.277-5.373-6.669-8.691-12.042-7.416c-5.373,1.278-8.693,6.669-7.416,12.042L146.846,492h-19.16
			L61.721,291.176l10.097,7.27c3.535,2.545,8.313,2.509,11.809-0.09l30.152-22.415l30.152,22.415c3.496,2.6,8.274,2.636,11.809,0.09
			l20.91-15.056L197.731,492H167.403z M294.167,492H266V320.683c0-5.523-4.477-10-10-10c-5.523,0-10,4.477-10,10V492h-28.167
			l-20.796-205.796l17.002,12.243c3.535,2.545,8.313,2.509,11.809-0.09L256,275.942l30.152,22.415
			c3.496,2.6,8.273,2.636,11.809,0.09l17.002-12.243L294.167,492z M384.315,492h-19.16l28.986-121.92
			c1.277-5.373-2.043-10.764-7.416-12.042c-5.373-1.278-10.765,2.043-12.042,7.416L344.597,492h-30.328l21.081-208.609
			l20.909,15.056c3.535,2.545,8.313,2.509,11.809-0.09l30.152-22.415l30.152,22.415c0.437,0.325,0.894,0.61,1.366,0.855
			c1.417,0.735,2.969,1.108,4.524,1.12c2.073,0.016,4.151-0.612,5.919-1.885l10.097-7.27L384.315,492z M434.436,277.941
			l-30.247-22.484c-3.541-2.633-8.391-2.633-11.932,0l-30.247,22.484l-28.457-20.491c-0.205-0.172-0.423-0.328-0.644-0.484
			c-0.078-0.055-0.158-0.108-0.237-0.161c-0.176-0.117-0.339-0.249-0.524-0.356c-1.528-0.882-3.224-1.302-4.918-1.316
			c-0.03,0-0.06-0.006-0.09-0.006c-0.009,0-0.02,0-0.028,0c-0.015,0-0.031,0.002-0.046,0.002c-0.285,0.002-0.567,0.017-0.85,0.043
			c-0.136,0.012-0.27,0.032-0.405,0.049c-0.015,0.002-0.031,0.003-0.046,0.006c-0.08,0.011-0.16,0.016-0.24,0.029
			c-0.151,0.025-0.301,0.047-0.45,0.079c-0.17,0.035-0.337,0.088-0.506,0.132c-0.121,0.031-0.242,0.059-0.362,0.095
			c-0.076,0.023-0.152,0.044-0.228,0.069c-0.112,0.038-0.222,0.083-0.333,0.125c-0.191,0.07-0.384,0.133-0.571,0.215
			c-0.124,0.054-0.235,0.126-0.356,0.184c-0.11,0.054-0.218,0.111-0.327,0.169c-0.17,0.09-0.347,0.169-0.511,0.269
			c-0.122,0.074-0.231,0.165-0.349,0.244c-0.065,0.044-0.129,0.09-0.193,0.135c-0.011,0.008-0.024,0.014-0.035,0.022l-0.14,0.101
			c-0.12,0.089-0.248,0.168-0.363,0.262l-28.587,20.585l-30.247-22.484c-3.541-2.633-8.391-2.633-11.932,0l-30.247,22.484
			l-28.561-20.566c-0.23-0.187-0.478-0.353-0.725-0.52c-0.128-0.086-0.246-0.182-0.378-0.262c-0.183-0.111-0.379-0.202-0.569-0.302
			c-0.071-0.038-0.141-0.074-0.212-0.109c-0.147-0.073-0.285-0.159-0.436-0.225c-0.369-0.161-0.745-0.291-1.126-0.404
			c-0.063-0.019-0.126-0.04-0.189-0.057c-0.227-0.063-0.455-0.117-0.685-0.163c-0.079-0.017-0.158-0.036-0.238-0.05
			c-0.061-0.011-0.122-0.016-0.183-0.026c-0.071-0.011-0.141-0.02-0.212-0.03c-0.111-0.015-0.221-0.036-0.332-0.047
			c-0.086-0.009-0.173-0.01-0.259-0.017c-0.23-0.019-0.459-0.029-0.69-0.032c-0.229-0.002-0.457,0.001-0.685,0.014
			c-0.747,0.041-1.487,0.169-2.214,0.378c-0.029,0.008-0.058,0.019-0.087,0.027c-0.459,0.137-0.909,0.307-1.35,0.512
			c-0.058,0.027-0.116,0.056-0.174,0.084c-0.21,0.102-0.425,0.187-0.63,0.305c-0.506,0.293-0.969,0.636-1.407,1.003l-28.454,20.488
			l-30.247-22.484c-1.771-1.316-3.868-1.975-5.966-1.975c-2.098,0-4.195,0.658-5.966,1.975l-30.247,22.484l-28.675-20.648
			c2.855-9.622,9.579-17.59,18.357-22.108c0.139-0.062,0.282-0.111,0.419-0.18c2.538-1.273,5.169-2.233,7.872-2.876
			c0.017-0.004,0.033-0.008,0.05-0.012c0.641-0.152,1.287-0.284,1.936-0.4c0.038-0.007,0.075-0.015,0.113-0.021
			c0.632-0.111,1.269-0.202,1.909-0.278c0.144-0.017,0.289-0.03,0.434-0.045c0.49-0.053,0.983-0.095,1.477-0.128
			c0.18-0.012,0.359-0.025,0.54-0.034c0.629-0.032,1.26-0.054,1.895-0.054h344.218c0.635,0,1.266,0.022,1.895,0.054
			c0.18,0.009,0.36,0.022,0.54,0.034c0.494,0.033,0.987,0.075,1.477,0.128c0.145,0.016,0.29,0.028,0.434,0.045
			c0.64,0.077,1.276,0.168,1.909,0.278c0.038,0.007,0.075,0.015,0.113,0.021c0.649,0.116,1.295,0.248,1.936,0.4
			c0.017,0.004,0.033,0.008,0.05,0.012c2.703,0.643,5.333,1.603,7.872,2.876c0.119,0.06,0.245,0.098,0.365,0.153
			c8.804,4.513,15.55,12.494,18.409,22.133L434.436,277.941z"/>
	</g>
</g>
<g>
	<g>
		<path d="M400.28,328.98c-0.13-0.64-0.32-1.27-0.57-1.87c-0.25-0.61-0.56-1.19-0.92-1.73c-0.36-0.55-0.78-1.06-1.24-1.52
			c-0.46-0.46-0.97-0.88-1.52-1.24c-0.54-0.37-1.12-0.67-1.73-0.92c-0.6-0.25-1.23-0.45-1.87-0.58c-1.29-0.25-2.62-0.25-3.91,0
			c-0.63,0.13-1.26,0.33-1.87,0.58c-0.6,0.25-1.18,0.55-1.72,0.92c-0.55,0.36-1.06,0.78-1.52,1.24c-0.46,0.46-0.88,0.97-1.25,1.52
			c-0.36,0.54-0.67,1.12-0.92,1.73c-0.25,0.6-0.44,1.23-0.57,1.87s-0.19,1.3-0.19,1.95c0,0.65,0.06,1.31,0.19,1.95
			s0.32,1.27,0.57,1.87c0.25,0.61,0.56,1.19,0.92,1.73c0.37,0.55,0.79,1.06,1.25,1.52c0.46,0.46,0.97,0.88,1.52,1.24
			c0.54,0.36,1.12,0.67,1.72,0.92c0.61,0.25,1.24,0.44,1.87,0.57c0.65,0.13,1.31,0.2,1.96,0.2c0.65,0,1.31-0.07,1.95-0.2
			s1.27-0.32,1.87-0.57c0.61-0.25,1.19-0.56,1.73-0.92c0.55-0.36,1.06-0.78,1.52-1.24c0.46-0.46,0.88-0.97,1.24-1.52
			c0.36-0.54,0.67-1.12,0.92-1.73c0.25-0.6,0.44-1.23,0.57-1.87c0.13-0.64,0.2-1.3,0.2-1.95S400.41,329.62,400.28,328.98z"/>
	</g>
</g>
<g>
	<g>
		<path d="M128.59,323.86c-0.46-0.46-0.97-0.88-1.52-1.24c-0.54-0.36-1.12-0.67-1.72-0.92c-0.61-0.25-1.24-0.45-1.87-0.57
			c-1.29-0.26-2.62-0.26-3.91,0c-0.64,0.12-1.27,0.32-1.87,0.57c-0.61,0.25-1.19,0.56-1.73,0.92c-0.55,0.36-1.06,0.78-1.52,1.24
			c-1.86,1.86-2.93,4.44-2.93,7.07c0,0.65,0.07,1.31,0.2,1.95s0.32,1.27,0.57,1.87c0.25,0.61,0.56,1.19,0.92,1.73
			c0.36,0.55,0.78,1.06,1.24,1.52c0.46,0.46,0.97,0.88,1.52,1.24c0.54,0.36,1.12,0.67,1.73,0.92c0.6,0.25,1.23,0.45,1.87,0.57
			c0.64,0.13,1.3,0.2,1.95,0.2c0.65,0,1.31-0.07,1.96-0.2c0.63-0.12,1.26-0.32,1.87-0.57c0.6-0.25,1.18-0.56,1.72-0.92
			c0.55-0.36,1.06-0.78,1.52-1.24c1.87-1.86,2.93-4.44,2.93-7.07S130.46,325.72,128.59,323.86z"/>
	</g>
</g>
<g>
</g>
<g>
</g>
<g>
</g>
<g>
</g>
<g>
</g>
<g>
</g>
<g>
</g>
<g>
</g>
<g>
</g>
<g>
</g>
<g>
</g>
<g>
</g>
<g>
</g>
<g>
</g>
<g>
</g>
</svg>
