<?xml version="1.0" encoding="iso-8859-1"?>
<!-- Generator: Adobe Illustrator 19.0.0, SVG Export Plug-In . SVG Version: 6.00 Build 0)  -->
<svg version="1.1" id="Capa_1" xmlns="http://www.w3.org/2000/svg" xmlns:xlink="http://www.w3.org/1999/xlink" x="0px" y="0px"
	 viewBox="0 0 512 512" style="enable-background:new 0 0 512 512;" xml:space="preserve">
<g>
	<g>
		<path d="M454.591,217.769c1.112-5.288,1.678-10.674,1.678-16.1c0-11.876-2.598-23.292-7.72-33.929
			c-6.314-13.138-16.353-24.375-28.638-32.216c0.062-1.39,0.098-2.772,0.098-4.135c0-12.021-2.182-23.742-6.485-34.834
			c-0.548-1.427-1.147-2.867-1.826-4.387c-14.388-32.381-45.235-54.241-80.476-57.046c-3.051-0.252-6.229-0.348-9.464-0.289
			C318.098,14.854,302.226,0,283.366,0c-11.471,0-21.105,5.149-27.304,9.614C249.919,5.137,240.324,0,228.634,0
			c-18.938,0-34.86,14.977-38.435,35.083c-31.322,2.298-59.265,19.424-75.597,46.652c-2.248,3.735-4.258,7.661-5.973,11.666
			c-5.063,11.81-7.675,24.35-7.767,37.283c-0.36,0.17-0.718,0.343-1.073,0.517l-0.001,0.001c-0.014,0.007-0.028,0.014-0.042,0.02
			c-0.007,0.003-0.012,0.008-0.019,0.011c-15.799,7.718-28.683,20.684-36.272,36.501c-5.125,10.618-7.724,22.037-7.724,33.936
			c0,5.429,0.566,10.815,1.677,16.101c-17.839,9.509-30.013,28.299-30.013,49.886c0,16.51,7.093,31.886,19.566,42.668
			l63.984,194.796c1.348,4.105,5.18,6.879,9.501,6.879h88.348h94.415h88.348c4.32,0,8.152-2.775,9.5-6.879l63.984-194.796
			c12.473-10.783,19.565-26.159,19.565-42.669C484.606,246.069,472.431,227.278,454.591,217.769z M209.482,42.226
			C210.065,29.97,218.659,20,228.634,20c11.176,0,19.849,9.358,19.893,9.405c1.864,2.097,4.523,3.314,7.328,3.355
			c2.817,0.047,5.499-1.098,7.423-3.139c0.09-0.096,9.544-9.621,20.089-9.621c9.975,0,18.568,9.97,19.155,22.223
			c0.068,1.412,0.033,2.773-0.074,4.114c-0.018,0.231-0.026,0.466-0.049,0.694c-0.077,0.736-0.179,1.466-0.312,2.191
			c-0.004,0.023-0.01,0.046-0.014,0.069c-0.134,0.719-0.296,1.435-0.487,2.151c-0.014,0.053-0.03,0.105-0.045,0.158
			c-0.186,0.682-0.4,1.364-0.64,2.049c-0.026,0.074-0.053,0.148-0.079,0.222c-0.234,0.652-0.496,1.308-0.781,1.968
			c-0.046,0.106-0.089,0.212-0.137,0.319c-0.277,0.625-0.583,1.257-0.905,1.894c-0.069,0.135-0.129,0.267-0.2,0.402
			c-0.383,0.736-0.794,1.482-1.24,2.241c-0.009,0.015-0.016,0.028-0.024,0.043c-2.637,4.48-11.817,12.358-22.309,20.323
			c-0.525,0.398-1.052,0.797-1.583,1.195c-1.061,0.797-2.133,1.592-3.209,2.384c-4.846,3.562-9.798,7.042-14.38,10.137
			c-4.089-2.76-8.47-5.823-12.808-8.977c-1.084-0.788-2.166-1.582-3.24-2.379c-0.537-0.398-1.072-0.797-1.604-1.196
			c-11.177-8.378-21.185-16.827-23.938-21.494c-0.02-0.033-0.035-0.064-0.054-0.097c-0.433-0.737-0.835-1.462-1.208-2.179
			c-0.089-0.17-0.164-0.335-0.249-0.504c-0.298-0.59-0.583-1.177-0.841-1.757c-0.074-0.165-0.138-0.328-0.208-0.492
			c-0.246-0.577-0.476-1.151-0.684-1.722c-0.062-0.17-0.119-0.339-0.177-0.508c-0.189-0.549-0.359-1.097-0.513-1.644
			c-0.056-0.2-0.112-0.4-0.163-0.6c-0.127-0.491-0.234-0.983-0.334-1.476c-0.052-0.259-0.109-0.518-0.153-0.778
			c-0.069-0.396-0.118-0.797-0.17-1.196c-0.045-0.351-0.098-0.699-0.13-1.054c-0.02-0.21-0.024-0.425-0.039-0.636
			c-0.034-0.489-0.07-0.977-0.082-1.478c-0.001-0.029-0.005-0.057-0.006-0.086C209.437,43.769,209.445,43.006,209.482,42.226z
			 M127.012,101.277c1.358-3.17,2.948-6.275,4.733-9.243c12.787-21.317,34.533-34.827,58.968-36.932
			c0.203,0.872,0.44,1.74,0.693,2.606c1.588,5.475,3.868,9.861,5.829,13.184c8.73,14.8,45.988,39.472,53.368,44.267
			c0.591,0.384,1.22,0.675,1.861,0.922c0.257,0.099,0.511,0.212,0.774,0.289c0.019,0.005,0.039,0.007,0.058,0.012
			c2.738,0.785,5.735,0.381,8.203-1.222c7.355-4.776,44.489-29.358,53.271-44.276c0.372-0.632,0.757-1.311,1.145-2.018
			c0.004-0.006,0.007-0.013,0.01-0.019c1.449-2.642,2.957-5.814,4.173-9.533c0.49-1.487,0.912-2.976,1.252-4.475
			c2.826-0.082,5.596-0.002,8.258,0.218c27.955,2.226,52.407,19.557,63.822,45.247c0.544,1.218,1.013,2.345,1.436,3.446
			c0.004,0.012,0.009,0.024,0.014,0.036c3.406,8.777,5.132,18.064,5.132,27.603c0,0.436-0.005,0.876-0.013,1.317
			c-0.29,0.119-0.576,0.245-0.867,0.359c-0.353,0.138-0.707,0.274-1.064,0.405c-0.713,0.263-1.432,0.508-2.155,0.742
			c-0.308,0.1-0.615,0.207-0.925,0.302c-1.028,0.315-2.063,0.607-3.107,0.865c-0.092,0.023-0.186,0.039-0.279,0.062
			c-0.954,0.231-1.915,0.435-2.881,0.618c-0.341,0.065-0.685,0.118-1.027,0.177c-0.734,0.125-1.469,0.239-2.207,0.336
			c-0.377,0.05-0.754,0.096-1.132,0.139c-0.748,0.084-1.499,0.15-2.251,0.206c-0.337,0.025-0.674,0.055-1.012,0.074
			c-1.079,0.06-2.159,0.099-3.241,0.099c-4.132,0-8.189-0.429-12.121-1.255c-17.041-3.579-31.731-14.618-39.898-30.564
			c-0.214-0.418-0.455-0.816-0.72-1.193c-1.855-2.64-4.896-4.248-8.179-4.249c-0.001,0-0.001,0-0.002,0
			c-3.751,0-7.188,2.1-8.899,5.438c-8.491,16.561-24.011,27.83-41.887,30.947c-3.31,0.577-6.702,0.875-10.144,0.875
			c-0.958,0-1.818-0.019-2.663-0.06c-20.891-0.935-39.808-13.105-49.368-31.76c-1.71-3.338-5.145-5.438-8.895-5.439
			c-0.001,0-0.003,0-0.004,0c-3.749,0-7.183,2.097-8.896,5.431c-0.813,1.585-1.689,3.117-2.62,4.58
			c-10.773,17.062-29.242,27.249-49.404,27.249c-0.928,0-1.756-0.019-2.594-0.061c-0.957-0.042-1.908-0.11-2.855-0.197
			c-0.311-0.029-0.62-0.07-0.93-0.104c-0.635-0.068-1.269-0.139-1.9-0.228c-0.365-0.051-0.728-0.115-1.092-0.173
			c-0.571-0.092-1.142-0.186-1.709-0.295c-0.384-0.073-0.765-0.155-1.147-0.236c-0.317-0.067-0.632-0.142-0.948-0.214
			c-0.077-1.425-0.116-2.831-0.116-4.193C120.86,120.931,122.929,110.801,127.012,101.277z M81.476,176.406
			c5.015-10.451,13.121-19.225,23.092-25.089c0.591,0.241,1.189,0.458,1.785,0.684c0.355,0.135,0.708,0.278,1.064,0.408
			c1.16,0.421,2.326,0.819,3.502,1.183c0.148,0.046,0.298,0.083,0.446,0.128c1.033,0.314,2.072,0.607,3.116,0.877
			c0.406,0.105,0.814,0.196,1.222,0.295c0.798,0.193,1.598,0.377,2.402,0.544c0.458,0.095,0.918,0.183,1.378,0.27
			c0.776,0.146,1.554,0.281,2.334,0.404c0.458,0.072,0.916,0.144,1.375,0.208c0.834,0.116,1.672,0.213,2.512,0.303
			c0.399,0.042,0.797,0.093,1.198,0.129c1.236,0.112,2.475,0.203,3.721,0.257c1.111,0.055,2.265,0.082,3.527,0.082
			c23.96,0,46.137-10.713,60.93-29.04c13.967,17.192,34.8,27.95,57.328,28.958c1.134,0.055,2.309,0.082,3.593,0.082
			c2.254,0,4.491-0.095,6.707-0.282c20.685-1.747,39.544-11.526,52.819-27.039c0.474-0.554,0.941-1.115,1.401-1.684
			c14.704,18.193,36.881,29.005,60.923,29.005c1.132,0,2.263-0.034,3.392-0.083c0.241-0.01,0.482-0.02,0.722-0.033
			c1.102-0.058,2.203-0.137,3.301-0.241c0.18-0.017,0.36-0.039,0.54-0.058c1.01-0.103,2.017-0.226,3.021-0.368
			c0.181-0.026,0.362-0.048,0.543-0.075c1.091-0.162,2.178-0.35,3.261-0.558c0.232-0.044,0.464-0.092,0.696-0.139
			c1.105-0.222,2.207-0.46,3.301-0.729c0.002-0.001,0.005-0.001,0.007-0.002c1.096-0.27,2.184-0.571,3.267-0.888
			c0.228-0.067,0.456-0.133,0.684-0.202c1.055-0.319,2.103-0.656,3.143-1.019c0.168-0.059,0.335-0.122,0.503-0.182
			c0.95-0.339,1.894-0.696,2.83-1.071c0.12-0.048,0.242-0.088,0.361-0.137c9.962,5.871,18.103,14.692,23.106,25.104
			c0.001,0.003,0.003,0.005,0.004,0.008c3.809,7.908,5.74,16.404,5.74,25.251c0,3.349-0.287,6.678-0.857,9.962
			c-0.354-0.046-0.71-0.082-1.065-0.121c-0.213-0.024-0.425-0.052-0.638-0.073c-0.801-0.08-1.605-0.138-2.411-0.184
			c-0.209-0.012-0.418-0.021-0.627-0.031c-0.852-0.039-1.706-0.065-2.562-0.065H83.891c-0.857,0-1.711,0.027-2.563,0.065
			c-0.209,0.009-0.417,0.019-0.625,0.03c-0.807,0.046-1.613,0.104-2.415,0.184c-0.21,0.021-0.418,0.048-0.627,0.071
			c-0.359,0.045-0.718,0.081-1.075,0.127c-0.569-3.283-0.856-6.612-0.856-9.962C75.729,192.805,77.659,184.312,81.476,176.406z
			 M167.403,492l-30.085-126.546c-1.278-5.373-6.667-8.691-12.042-7.416c-5.373,1.278-8.693,6.669-7.416,12.042L146.846,492h-19.16
			L61.721,291.176l10.097,7.27c3.535,2.545,8.312,2.509,11.809-0.09l30.152-22.415l30.152,22.415c3.497,2.6,8.273,2.636,11.809,0.09
			l20.91-15.056L197.731,492H167.403z M294.167,492H266V320.683c0-5.523-4.477-10-10-10s-10,4.477-10,10V492h-28.167
			l-20.796-205.796l17.002,12.243c3.535,2.545,8.313,2.509,11.809-0.09L256,275.942l30.152,22.415
			c3.497,2.6,8.273,2.636,11.809,0.09l17.002-12.243L294.167,492z M384.315,492h-19.16l28.986-121.92
			c1.277-5.373-2.043-10.764-7.416-12.042c-5.374-1.278-10.764,2.043-12.042,7.416L344.596,492h-30.328l21.081-208.609l20.91,15.056
			c3.535,2.545,8.313,2.509,11.809-0.09l30.152-22.415l30.152,22.415c0.219,0.162,0.442,0.315,0.67,0.457
			c1.595,0.997,3.406,1.504,5.22,1.517c2.073,0.016,4.152-0.612,5.919-1.885l10.097-7.27L384.315,492z M434.431,277.941
			l-30.247-22.484c-3.541-2.633-8.391-2.633-11.932,0l-30.247,22.484l-28.454-20.488c-0.439-0.367-0.901-0.711-1.408-1.003
			c-1.529-0.883-3.226-1.302-4.92-1.316c-0.03,0-0.059-0.006-0.089-0.006c-0.006,0-0.018,0-0.027,0
			c-0.015,0-0.031,0.002-0.046,0.002c-0.285,0.002-0.567,0.017-0.85,0.043c-0.136,0.012-0.271,0.032-0.407,0.049
			c-0.015,0.002-0.03,0.003-0.045,0.005c-0.08,0.011-0.16,0.016-0.24,0.029c-0.15,0.025-0.3,0.047-0.45,0.079
			c-0.171,0.035-0.338,0.088-0.507,0.132c-0.12,0.031-0.241,0.058-0.36,0.094c-0.076,0.023-0.153,0.044-0.229,0.069
			c-0.112,0.037-0.221,0.083-0.331,0.124c-0.191,0.07-0.385,0.133-0.573,0.215c-0.124,0.054-0.236,0.126-0.356,0.185
			c-0.11,0.054-0.218,0.11-0.325,0.169c-0.17,0.091-0.348,0.169-0.511,0.269c-0.122,0.074-0.231,0.165-0.349,0.244
			c-0.065,0.044-0.129,0.09-0.193,0.135c-0.011,0.008-0.024,0.013-0.035,0.022l-0.14,0.101c-0.12,0.089-0.248,0.168-0.363,0.262
			l-28.587,20.585l-30.247-22.484c-3.541-2.633-8.391-2.633-11.932,0l-30.247,22.484l-28.561-20.566
			c-0.23-0.187-0.478-0.353-0.725-0.52c-0.128-0.086-0.246-0.182-0.378-0.262c-0.183-0.111-0.379-0.202-0.569-0.302
			c-0.071-0.038-0.141-0.074-0.212-0.109c-0.147-0.073-0.285-0.159-0.436-0.225c-0.37-0.161-0.748-0.292-1.129-0.406
			c-0.061-0.018-0.121-0.038-0.182-0.055c-0.231-0.064-0.464-0.119-0.698-0.166c-0.084-0.018-0.168-0.035-0.253-0.051
			c-0.051-0.009-0.103-0.014-0.155-0.022c-0.072-0.011-0.143-0.021-0.215-0.031c-0.104-0.014-0.208-0.034-0.312-0.044
			c-0.092-0.01-0.185-0.012-0.278-0.019c-0.22-0.018-0.439-0.029-0.66-0.033c-0.242-0.003-0.485,0.001-0.727,0.015
			c-0.225,0.013-0.449,0.031-0.674,0.059c-0.027,0.003-0.054,0.01-0.08,0.013c-0.485,0.064-0.964,0.165-1.439,0.301
			c-0.041,0.012-0.08,0.026-0.121,0.038c-0.452,0.135-0.894,0.304-1.328,0.505c-0.06,0.028-0.118,0.057-0.177,0.086
			c-0.209,0.102-0.423,0.186-0.627,0.303c-0.506,0.292-0.967,0.635-1.405,1.001l-28.456,20.491l-30.247-22.484
			c-3.541-2.633-8.391-2.633-11.932,0l-30.247,22.484l-28.675-20.648c3.377-11.367,12.148-20.433,23.331-24.218
			c0.085-0.026,0.17-0.045,0.254-0.073c1.831-0.609,3.702-1.068,5.601-1.376c0.058-0.009,0.118-0.017,0.176-0.026
			c0.411-0.065,0.823-0.124,1.236-0.174c0.149-0.018,0.3-0.031,0.449-0.047c0.331-0.036,0.661-0.072,0.993-0.099
			c0.247-0.02,0.497-0.032,0.746-0.047c0.241-0.015,0.482-0.033,0.724-0.043c0.496-0.02,0.994-0.031,1.494-0.031h344.218
			c0.5,0,0.998,0.011,1.494,0.031c0.242,0.01,0.483,0.029,0.724,0.043c0.249,0.015,0.498,0.027,0.746,0.047
			c0.33,0.027,0.659,0.063,0.987,0.099c0.152,0.016,0.304,0.029,0.455,0.048c0.412,0.05,0.822,0.109,1.231,0.173
			c0.06,0.009,0.12,0.017,0.18,0.026c1.899,0.308,3.77,0.767,5.6,1.376c0.066,0.022,0.133,0.035,0.199,0.055
			c11.21,3.774,20.005,12.85,23.382,24.235L434.431,277.941z"/>
	</g>
</g>
<g>
	<g>
		<path d="M400.279,328.98c-0.13-0.64-0.32-1.27-0.57-1.88c-0.25-0.6-0.56-1.18-0.92-1.72c-0.36-0.55-0.78-1.06-1.24-1.52
			c-0.46-0.46-0.97-0.88-1.52-1.24c-0.54-0.36-1.12-0.67-1.73-0.92c-0.6-0.25-1.23-0.45-1.87-0.57c-1.29-0.26-2.62-0.26-3.91,0
			c-0.63,0.12-1.26,0.32-1.87,0.57c-0.6,0.25-1.18,0.56-1.72,0.92c-0.55,0.36-1.06,0.78-1.52,1.24c-0.46,0.46-0.88,0.97-1.25,1.52
			c-0.36,0.54-0.67,1.12-0.92,1.72c-0.25,0.61-0.44,1.24-0.57,1.88s-0.19,1.3-0.19,1.95c0,2.63,1.07,5.21,2.93,7.07
			c0.46,0.46,0.97,0.88,1.52,1.24c0.54,0.36,1.12,0.67,1.72,0.92c0.61,0.25,1.24,0.45,1.87,0.57c0.65,0.13,1.31,0.2,1.96,0.2
			c0.65,0,1.31-0.07,1.95-0.2c0.64-0.12,1.27-0.32,1.87-0.57c0.61-0.25,1.19-0.56,1.73-0.92c0.55-0.36,1.06-0.78,1.52-1.24
			c1.86-1.86,2.93-4.44,2.93-7.07C400.479,330.28,400.409,329.62,400.279,328.98z"/>
	</g>
</g>
<g>
	<g>
		<path d="M131.33,328.98c-0.13-0.64-0.32-1.27-0.57-1.88c-0.25-0.6-0.56-1.18-0.92-1.72c-0.37-0.55-0.79-1.06-1.25-1.52
			c-0.46-0.46-0.97-0.88-1.52-1.25c-0.54-0.36-1.12-0.66-1.72-0.91c-0.61-0.25-1.24-0.45-1.87-0.58c-1.29-0.25-2.62-0.26-3.91,0
			c-0.64,0.13-1.27,0.33-1.87,0.58c-0.61,0.25-1.19,0.55-1.73,0.91c-0.55,0.37-1.06,0.79-1.52,1.25c-0.46,0.46-0.88,0.97-1.24,1.52
			c-0.36,0.54-0.67,1.12-0.92,1.72c-0.25,0.61-0.44,1.24-0.57,1.88c-0.13,0.64-0.2,1.3-0.2,1.95s0.07,1.31,0.2,1.95
			c0.13,0.64,0.32,1.27,0.57,1.87c0.25,0.61,0.56,1.19,0.92,1.73c0.36,0.55,0.78,1.06,1.24,1.52c0.46,0.46,0.97,0.88,1.52,1.24
			c0.54,0.36,1.12,0.67,1.73,0.92c0.6,0.25,1.23,0.45,1.87,0.57c0.64,0.13,1.3,0.2,1.95,0.2c0.65,0,1.31-0.07,1.96-0.2
			c0.63-0.12,1.26-0.32,1.87-0.57c0.6-0.25,1.18-0.56,1.72-0.92c0.55-0.36,1.06-0.78,1.52-1.24c0.46-0.46,0.88-0.97,1.25-1.52
			c0.36-0.54,0.67-1.12,0.92-1.73c0.25-0.6,0.44-1.23,0.57-1.87s0.19-1.3,0.19-1.95C131.52,330.28,131.46,329.62,131.33,328.98z"/>
	</g>
</g>
<g>
</g>
<g>
</g>
<g>
</g>
<g>
</g>
<g>
</g>
<g>
</g>
<g>
</g>
<g>
</g>
<g>
</g>
<g>
</g>
<g>
</g>
<g>
</g>
<g>
</g>
<g>
</g>
<g>
</g>
</svg>
