<?xml version="1.0" encoding="iso-8859-1"?>
<!-- Generator: Adobe Illustrator 19.0.0, SVG Export Plug-In . SVG Version: 6.00 Build 0)  -->
<svg version="1.1" id="Capa_1" xmlns="http://www.w3.org/2000/svg" xmlns:xlink="http://www.w3.org/1999/xlink" x="0px" y="0px"
	 viewBox="0 0 512.001 512.001" style="enable-background:new 0 0 512.001 512.001;" xml:space="preserve">
<g>
	<g>
		<path d="M386.735,373.605c-0.131-0.64-0.32-1.27-0.57-1.88c-0.25-0.6-0.561-1.18-0.92-1.72c-0.36-0.55-0.78-1.06-1.25-1.52
			c-2.32-2.32-5.77-3.39-9.02-2.73c-0.64,0.12-1.27,0.32-1.87,0.57c-0.6,0.25-1.18,0.55-1.729,0.92
			c-0.54,0.36-1.061,0.78-1.521,1.24c-0.46,0.46-0.88,0.97-1.239,1.52c-0.36,0.54-0.67,1.12-0.92,1.72
			c-0.25,0.61-0.44,1.24-0.57,1.88s-0.2,1.3-0.2,1.95c0,0.65,0.07,1.31,0.2,1.95c0.13,0.64,0.32,1.27,0.57,1.87
			c0.25,0.61,0.56,1.191,0.92,1.73c0.359,0.55,0.779,1.06,1.239,1.52c0.46,0.461,0.98,0.88,1.521,1.24
			c0.55,0.36,1.13,0.67,1.729,0.92c0.601,0.25,1.23,0.45,1.87,0.57c0.65,0.14,1.301,0.2,1.96,0.2c2.63,0,5.2-1.07,7.06-2.93
			c0.47-0.46,0.89-0.97,1.25-1.52c0.359-0.539,0.67-1.12,0.92-1.73c0.25-0.6,0.439-1.23,0.57-1.87c0.13-0.64,0.199-1.3,0.199-1.95
			C386.934,374.905,386.865,374.245,386.735,373.605z"/>
	</g>
</g>
<g>
	<g>
		<path d="M144.877,373.605c-0.132-0.64-0.322-1.27-0.572-1.87c-0.25-0.61-0.56-1.19-0.92-1.73c-0.37-0.55-0.78-1.06-1.25-1.52
			c-1.86-1.86-4.43-2.93-7.07-2.93c-2.63,0-5.21,1.07-7.069,2.93c-0.46,0.46-0.881,0.97-1.24,1.52c-0.36,0.54-0.67,1.12-0.92,1.73
			c-0.25,0.6-0.44,1.23-0.57,1.87c-0.13,0.64-0.2,1.3-0.2,1.95c0,2.63,1.07,5.21,2.931,7.07c1.859,1.86,4.439,2.93,7.069,2.93
			c0.66,0,1.311-0.06,1.96-0.19c0.641-0.13,1.261-0.32,1.87-0.58c0.601-0.25,1.18-0.55,1.72-0.92c0.551-0.36,1.061-0.78,1.521-1.24
			c0.47-0.46,0.88-0.97,1.25-1.52c0.36-0.539,0.67-1.12,0.92-1.73c0.25-0.6,0.44-1.23,0.57-1.87s0.189-1.3,0.189-1.95
			C145.066,374.905,145.006,374.245,144.877,373.605z"/>
	</g>
</g>
<g>
	<g>
		<path d="M477.268,219.99c-0.003-0.005-0.005-0.01-0.007-0.015c-2.749-5.689-6.085-11.063-9.905-15.977
			c-0.049-0.066-0.092-0.134-0.142-0.199c-6.429-8.238-14.381-15.377-23.251-20.915c0.098-1.849,0.146-3.729,0.146-5.608
			c0-42.244-24.551-80.817-62.044-99.069c9.376-26.472,4.314-56.111,4.021-57.756c-0.734-4.127-3.966-7.358-8.093-8.092
			c-1.187-0.212-27.058-4.667-51.949,2.187C317.264,5.504,305.563,0,292.758,0c-15.648,0-28.872,7.852-36.635,13.791
			C248.5,7.808,235.449,0,219.243,0c-12.804,0-24.507,5.504-33.288,14.545c-24.892-6.854-50.761-2.398-51.949-2.187
			c-4.127,0.734-7.358,3.965-8.093,8.092c-0.31,1.74-5.96,34.821,5.803,62.329c-14.528,8.705-26.903,20.652-36.133,35.007
			c-11.406,17.738-17.436,38.309-17.436,59.49c0,0.056,0,0.113,0,0.169c-13.048,5.942-24.482,14.95-33.37,26.349
			c-3.918,5.025-7.299,10.477-10.042,16.188c-5.822,12.078-8.774,25.055-8.774,38.57c0,33.265,18.322,62.325,45.402,77.635
			l43.665,168.325c1.145,4.41,5.124,7.489,9.681,7.489l262.584-0.022c4.555,0,8.534-3.08,9.679-7.489l43.664-168.303
			c27.079-15.308,45.402-44.37,45.402-77.635C486.039,245.061,483.088,232.086,477.268,219.99z M330.688,92.048
			c0.066-0.095,0.129-0.19,0.193-0.284c0.147-0.218,0.293-0.437,0.431-0.652c0.234-0.363,0.459-0.722,0.667-1.076
			c1.875-3.185,3.472-6.304,4.803-9.402c0.004-0.009,0.007-0.018,0.011-0.027c0.328-0.765,0.641-1.528,0.937-2.291
			c3.264-8.411,4.573-16.743,4.169-25.886c-0.004-0.091-0.004-0.18-0.008-0.271c-0.042-0.88-0.104-1.757-0.184-2.629
			c-0.049-0.544-0.117-1.081-0.18-1.62c-0.037-0.312-0.065-0.625-0.107-0.936c-0.107-0.809-0.233-1.611-0.371-2.407
			c-0.004-0.023-0.007-0.046-0.011-0.069c-0.738-4.238-1.911-8.293-3.457-12.115c11.403-2.136,22.698-1.78,29.733-1.183
			c1.115,12.884,0.601,33.988-8.063,48.975c-0.089,0.153-0.175,0.309-0.266,0.461c-0.254,0.427-0.517,0.848-0.785,1.264
			c-0.296,0.458-0.599,0.907-0.908,1.346c-0.221,0.315-0.445,0.626-0.675,0.933c-0.397,0.529-0.802,1.047-1.218,1.546
			c-0.159,0.191-0.319,0.38-0.481,0.568c-0.544,0.626-1.097,1.237-1.672,1.812c-0.496,0.496-1.006,0.975-1.528,1.439
			c-0.186,0.165-0.381,0.318-0.57,0.479c-0.342,0.292-0.682,0.587-1.034,0.865c-0.235,0.186-0.479,0.358-0.718,0.539
			c-0.317,0.239-0.631,0.484-0.955,0.713c-0.264,0.187-0.538,0.361-0.807,0.542c-0.31,0.208-0.616,0.421-0.931,0.621
			c-0.287,0.182-0.582,0.352-0.874,0.527c-0.306,0.184-0.609,0.373-0.92,0.55c-0.306,0.174-0.619,0.336-0.929,0.502
			c-0.306,0.164-0.609,0.334-0.919,0.492c-0.32,0.163-0.646,0.315-0.97,0.471c-0.308,0.148-0.613,0.301-0.924,0.443
			c-0.333,0.152-0.672,0.294-1.009,0.44c-0.308,0.133-0.613,0.27-0.924,0.397c-0.349,0.143-0.702,0.276-1.054,0.412
			c-0.304,0.118-0.607,0.239-0.913,0.351c-0.36,0.132-0.723,0.255-1.085,0.38c-0.305,0.105-0.608,0.214-0.914,0.314
			c-0.366,0.12-0.734,0.231-1.102,0.344c-0.306,0.094-0.611,0.191-0.918,0.281c-0.374,0.109-0.75,0.211-1.126,0.313
			c-0.303,0.083-0.606,0.168-0.91,0.247c-0.38,0.099-0.761,0.19-1.143,0.282c-0.303,0.073-0.605,0.149-0.908,0.218
			c-0.382,0.087-0.765,0.168-1.148,0.25c-0.303,0.064-0.605,0.131-0.907,0.191c-0.383,0.077-0.765,0.147-1.148,0.219
			c-0.303,0.056-0.606,0.114-0.909,0.167c-0.383,0.067-0.764,0.128-1.146,0.189c-0.301,0.048-0.601,0.098-0.901,0.143
			c-0.104,0.016-0.207,0.029-0.311,0.044C326.108,98.008,328.756,94.879,330.688,92.048z M190.072,53.584
			c0.006-0.155,0.007-0.307,0.014-0.463c0.043-0.893,0.123-1.783,0.225-2.67c0.012-0.103,0.022-0.206,0.035-0.309
			c0.11-0.891,0.249-1.778,0.418-2.657c0.008-0.043,0.017-0.085,0.025-0.128c0.541-2.761,1.368-5.449,2.459-7.997
			c0.017-0.039,0.033-0.078,0.05-0.117c0.341-0.789,0.71-1.561,1.101-2.321c0.065-0.125,0.131-0.25,0.197-0.374
			c0.366-0.692,0.751-1.372,1.158-2.035c0.113-0.183,0.232-0.361,0.347-0.542c0.328-0.515,0.67-1.019,1.023-1.514
			c5.42-7.588,13.419-12.458,22.119-12.458c16.599,0,29.19,13.681,29.285,13.784c1.863,2.096,4.522,3.314,7.327,3.355
			c2.818,0.049,5.499-1.098,7.423-3.139c0.132-0.14,13.642-14,29.481-14c8.69,0,16.68,4.859,22.101,12.428
			c0.365,0.512,0.719,1.034,1.058,1.567c0.107,0.168,0.217,0.333,0.322,0.502c0.414,0.675,0.807,1.367,1.179,2.072
			c0.059,0.111,0.118,0.221,0.176,0.333c0.397,0.771,0.772,1.556,1.118,2.357c0.011,0.025,0.021,0.051,0.032,0.076
			c1.096,2.556,1.927,5.253,2.469,8.023c0.008,0.041,0.016,0.082,0.024,0.122c0.169,0.879,0.308,1.766,0.418,2.658
			c0.013,0.104,0.023,0.209,0.035,0.314c0.102,0.884,0.182,1.771,0.225,2.662c0,0.002,0,0.004,0,0.005
			c0.004,0.092,0.004,0.181,0.008,0.272c0.277,6.508-0.687,12.339-3.13,18.393c-1.064,2.636-2.403,5.313-4.049,8.11
			c-0.179,0.304-0.383,0.62-0.599,0.942c-0.077,0.114-0.159,0.231-0.245,0.354c-0.009,0.013-0.02,0.027-0.029,0.041
			c-1.944,2.736-6.202,7.553-15.5,15.427c-0.286,0.242-0.572,0.483-0.863,0.727c-0.185,0.155-0.367,0.309-0.556,0.466
			c-3.024,2.519-6.274,5.113-9.643,7.721c-11.872,9.175-24.326,17.756-31.239,22.41c-7.269-4.893-20.662-14.121-33.075-23.808
			c-16.677-13.014-22.86-19.997-25.149-23.355c-0.214-0.319-0.418-0.632-0.595-0.932C191.867,70.756,189.71,62.859,190.072,53.584z
			 M144.749,31.197c7.04-0.593,18.304-0.94,29.671,1.189c-1.546,3.821-2.718,7.875-3.456,12.112
			c-0.006,0.034-0.01,0.069-0.016,0.103c-0.136,0.786-0.261,1.577-0.366,2.376c-0.042,0.313-0.07,0.629-0.107,0.943
			c-0.063,0.537-0.131,1.072-0.18,1.614c-0.079,0.873-0.141,1.749-0.183,2.629c-0.052,1.092-0.077,2.165-0.078,3.218
			c-0.002,15.802,5.628,27.265,9.994,34.665c0.208,0.352,0.432,0.71,0.666,1.071c0.137,0.214,0.284,0.431,0.43,0.649
			c0.063,0.092,0.125,0.185,0.189,0.277c1.936,2.828,4.6,5.962,8.043,9.438c-0.088-0.013-0.176-0.024-0.264-0.037
			c-0.359-0.054-0.72-0.113-1.08-0.171c-0.325-0.053-0.65-0.104-0.976-0.161c-0.359-0.062-0.719-0.131-1.079-0.198
			c-0.328-0.061-0.655-0.121-0.983-0.187c-0.36-0.072-0.719-0.15-1.079-0.227c-0.328-0.07-0.656-0.139-0.983-0.213
			c-0.359-0.082-0.718-0.171-1.077-0.258c-0.327-0.079-0.654-0.157-0.98-0.241c-0.356-0.092-0.71-0.191-1.065-0.289
			c-0.327-0.09-0.656-0.178-0.982-0.273c-0.353-0.103-0.703-0.213-1.054-0.322c-0.325-0.1-0.65-0.198-0.973-0.304
			c-0.349-0.114-0.695-0.237-1.042-0.358c-0.321-0.111-0.644-0.22-0.963-0.336c-0.346-0.127-0.687-0.263-1.03-0.396
			c-0.315-0.122-0.632-0.241-0.944-0.369c-0.341-0.139-0.676-0.289-1.014-0.435c-0.309-0.134-0.621-0.264-0.927-0.404
			c-0.334-0.153-0.663-0.316-0.994-0.476c-0.302-0.146-0.607-0.288-0.906-0.439c-0.331-0.169-0.655-0.349-0.982-0.525
			c-0.29-0.156-0.583-0.307-0.869-0.47c-0.333-0.189-0.658-0.391-0.985-0.588c-0.271-0.163-0.546-0.321-0.813-0.49
			c-0.336-0.213-0.662-0.439-0.992-0.661c-0.216-0.145-0.436-0.286-0.648-0.435c-0.033-0.023-0.068-0.044-0.101-0.068
			c-0.341-0.241-0.671-0.498-1.005-0.75c-0.223-0.169-0.452-0.33-0.672-0.504c-0.379-0.3-0.745-0.616-1.112-0.93
			c-0.163-0.14-0.333-0.272-0.494-0.415c-0.524-0.465-1.035-0.946-1.532-1.443c-0.088-0.088-0.169-0.182-0.256-0.271
			c-0.832-0.85-1.637-1.753-2.405-2.716c-0.89-1.117-1.736-2.303-2.53-3.557c-0.04-0.064-0.087-0.121-0.129-0.184
			C143.437,65.482,143.773,42.704,144.749,31.197z M81.456,198.174c0.072-0.04,0.144-0.079,0.215-0.119
			c0.839-0.465,1.688-0.91,2.547-1.339c0.11-0.055,0.22-0.112,0.33-0.167c0.932-0.46,1.874-0.901,2.826-1.319
			c0.244-0.107,0.492-0.205,0.737-0.309c0.472-0.201,0.945-0.404,1.414-0.592c0.537-0.214,1.081-0.414,1.624-0.615
			c0.198-0.073,0.399-0.154,0.595-0.224c4.223-1.502,6.93-5.629,6.625-10.1c-0.146-2.146-0.217-4.146-0.217-6.115
			c0-31.792,17.082-61.394,44.125-77.514c0.034,0.039,0.071,0.074,0.106,0.113c0.717,0.808,1.457,1.601,2.23,2.374
			c0.57,0.57,1.151,1.122,1.74,1.661c0.19,0.174,0.384,0.341,0.576,0.512c0.404,0.361,0.811,0.719,1.224,1.067
			c0.228,0.192,0.458,0.378,0.688,0.566c0.39,0.318,0.782,0.632,1.178,0.938c0.237,0.184,0.476,0.366,0.716,0.545
			c0.406,0.304,0.816,0.602,1.229,0.895c0.003,0.002,0.006,0.004,0.009,0.006c0.146,0.104,0.289,0.215,0.436,0.317
			c0.081,0.056,0.163,0.107,0.244,0.163c0.465,0.32,0.934,0.631,1.406,0.937c0.181,0.118,0.36,0.24,0.543,0.355
			c0.664,0.421,1.333,0.831,2.009,1.225c0.02,0.011,0.04,0.022,0.06,0.034c0.653,0.38,1.312,0.746,1.976,1.102
			c0.046,0.024,0.091,0.052,0.137,0.076c0.149,0.079,0.3,0.151,0.449,0.229c0.495,0.259,0.991,0.514,1.491,0.76
			c0.23,0.114,0.462,0.224,0.693,0.335c0.478,0.229,0.957,0.453,1.439,0.67c0.122,0.055,0.243,0.115,0.365,0.17
			c0.111,0.049,0.223,0.093,0.334,0.142c0.501,0.22,1.005,0.433,1.51,0.641c0.14,0.058,0.279,0.121,0.42,0.178
			c0.068,0.028,0.137,0.052,0.205,0.08c0.602,0.242,1.207,0.475,1.813,0.701c0.09,0.033,0.178,0.071,0.268,0.104
			c0.019,0.007,0.039,0.013,0.058,0.02c1.473,0.542,2.958,1.037,4.45,1.491c0.039,0.012,0.079,0.026,0.118,0.038
			c0.115,0.035,0.23,0.065,0.344,0.099c0.585,0.174,1.17,0.343,1.756,0.505c0.077,0.021,0.154,0.045,0.231,0.066
			c0.116,0.032,0.232,0.059,0.348,0.09c0.561,0.15,1.121,0.295,1.682,0.434c0.04,0.01,0.08,0.021,0.12,0.031
			c0.063,0.015,0.125,0.033,0.188,0.048c0.087,0.021,0.174,0.039,0.261,0.06c0.592,0.143,1.184,0.279,1.776,0.41
			c0.147,0.033,0.294,0.067,0.441,0.098c2.265,0.49,4.526,0.896,6.769,1.228c0.111,0.016,0.223,0.031,0.334,0.048
			c0.627,0.091,1.251,0.176,1.874,0.256c0.153,0.02,0.306,0.038,0.458,0.057c0.593,0.074,1.185,0.142,1.774,0.206
			c0.148,0.016,0.297,0.033,0.445,0.048c0.624,0.065,1.246,0.125,1.865,0.18c0.098,0.009,0.196,0.018,0.293,0.027
			c2.192,0.189,4.345,0.317,6.442,0.392c0.111,0.004,0.22,0.007,0.331,0.011c0.574,0.019,1.143,0.035,1.708,0.047
			c0.148,0.003,0.294,0.006,0.442,0.009c0.531,0.009,1.057,0.016,1.58,0.019c0.15,0.001,0.301,0.002,0.45,0.003
			c0.165,0.001,0.334,0.003,0.498,0.003c0.358,0,0.709-0.004,1.062-0.007c0.136-0.001,0.274-0.001,0.409-0.003
			c0.586-0.006,1.165-0.015,1.737-0.028c0.054-0.001,0.108-0.002,0.162-0.003c0.644-0.015,1.28-0.034,1.905-0.056
			c0.01,0,0.019-0.001,0.029-0.001c0.583-0.021,1.156-0.046,1.721-0.073c0.206-0.01,0.407-0.021,0.611-0.032
			c0.358-0.019,0.716-0.038,1.066-0.058c0.079-0.005,0.161-0.008,0.239-0.013c16.131,12.406,32.449,23.172,36.484,25.802
			c0.203,0.133,0.34,0.222,0.394,0.257c0.349,0.226,0.713,0.415,1.081,0.594c0.069,0.034,0.133,0.08,0.203,0.112
			c0.18,0.083,0.369,0.135,0.552,0.206c0.265,0.103,0.527,0.219,0.799,0.298c0.159,0.047,0.323,0.066,0.484,0.105
			c0.22,0.053,0.44,0.106,0.663,0.144c0.083,0.014,0.165,0.042,0.249,0.054c2.351,0.337,4.795-0.167,6.866-1.512
			c3.235-2.1,20.145-13.186,36.846-26.055c0.057,0.003,0.118,0.006,0.175,0.009c0.372,0.022,0.751,0.042,1.132,0.061
			c0.202,0.01,0.401,0.022,0.606,0.031c0.446,0.021,0.9,0.039,1.357,0.057c0.27,0.01,0.542,0.02,0.816,0.029
			c0.441,0.014,0.883,0.028,1.333,0.039c0.297,0.007,0.6,0.011,0.9,0.016c0.314,0.006,0.627,0.011,0.944,0.015
			c0.322,0.003,0.647,0.005,0.973,0.006c0.197,0.001,0.39,0.004,0.589,0.004c0.111,0,0.224-0.002,0.335-0.002
			c0.328-0.001,0.659-0.003,0.991-0.006c0.309-0.003,0.62-0.007,0.932-0.012c0.34-0.006,0.68-0.011,1.023-0.019
			c0.315-0.007,0.632-0.017,0.95-0.027c0.346-0.011,0.69-0.02,1.039-0.034c0.333-0.013,0.67-0.029,1.006-0.045
			c0.545-0.025,1.093-0.053,1.645-0.085c0.425-0.025,0.85-0.049,1.279-0.078c0.338-0.023,0.678-0.051,1.018-0.077
			c0.353-0.027,0.705-0.053,1.06-0.083c0.35-0.03,0.701-0.063,1.053-0.096c0.35-0.033,0.7-0.066,1.051-0.102
			c0.355-0.036,0.711-0.075,1.067-0.115c0.355-0.04,0.711-0.082,1.068-0.125c0.353-0.043,0.706-0.086,1.061-0.132
			c0.374-0.049,0.749-0.102,1.124-0.154c0.34-0.048,0.68-0.094,1.021-0.146c0.435-0.065,0.871-0.137,1.307-0.208
			c0.386-0.063,0.772-0.126,1.159-0.193c0.585-0.102,1.171-0.207,1.758-0.32c0.311-0.06,0.623-0.125,0.934-0.188
			c0.415-0.084,0.831-0.167,1.247-0.257c0.329-0.071,0.658-0.146,0.988-0.22c0.401-0.09,0.802-0.183,1.203-0.279
			c0.332-0.079,0.663-0.161,0.995-0.244c0.405-0.102,0.809-0.207,1.213-0.314c0.323-0.086,0.646-0.172,0.969-0.262
			c0.427-0.119,0.853-0.243,1.28-0.368c0.298-0.088,0.596-0.173,0.894-0.264c0.544-0.166,1.087-0.342,1.629-0.519
			c0.182-0.06,0.366-0.116,0.548-0.177c0.696-0.234,1.389-0.479,2.08-0.732c0.259-0.095,0.515-0.196,0.773-0.294
			c0.456-0.173,0.911-0.347,1.365-0.529c0.289-0.116,0.575-0.236,0.863-0.355c0.423-0.175,0.845-0.354,1.265-0.538
			c0.293-0.128,0.584-0.258,0.875-0.39c0.42-0.19,0.838-0.386,1.254-0.585c0.28-0.133,0.559-0.266,0.837-0.404
			c0.445-0.22,0.887-0.448,1.328-0.678c0.243-0.127,0.488-0.25,0.73-0.38c0.61-0.327,1.215-0.666,1.816-1.013
			c0.068-0.039,0.136-0.075,0.204-0.114c0.664-0.388,1.32-0.79,1.972-1.203c0.211-0.134,0.419-0.275,0.629-0.412
			c0.443-0.289,0.885-0.58,1.322-0.881c0.243-0.168,0.483-0.34,0.724-0.511c0.402-0.286,0.801-0.575,1.197-0.872
			c0.123-0.092,0.249-0.177,0.371-0.271c0.121-0.092,0.238-0.192,0.359-0.286c0.393-0.304,0.781-0.615,1.168-0.93
			c0.231-0.188,0.462-0.376,0.69-0.568c0.412-0.347,0.817-0.704,1.221-1.064c0.192-0.171,0.387-0.339,0.577-0.513
			c0.588-0.539,1.168-1.09,1.738-1.66c0.468-0.468,0.924-0.944,1.371-1.425c0.114-0.123,0.225-0.25,0.339-0.374
			c0.335-0.366,0.666-0.734,0.989-1.108c0.131-0.151,0.259-0.306,0.389-0.459c0.301-0.355,0.598-0.712,0.889-1.073
			c0.137-0.17,0.272-0.342,0.408-0.514c0.275-0.35,0.546-0.702,0.813-1.056c0.078-0.104,0.16-0.205,0.238-0.31
			c30.975,14.835,51.283,46.578,51.283,81.346c0,1.433-0.043,2.889-0.116,4.356c-0.013,0.265-0.023,0.532-0.039,0.796
			c-0.094,1.616-0.229,3.244-0.408,4.878c-0.452,4.097,1.656,8.051,5.31,9.959c0.999,0.522,1.983,1.076,2.957,1.649
			c0.211,0.124,0.421,0.252,0.631,0.378c0.823,0.495,1.636,1.007,2.438,1.537c0.155,0.102,0.313,0.201,0.467,0.305
			c0.956,0.643,1.898,1.307,2.822,1.997c0.083,0.062,0.163,0.127,0.245,0.189c0.828,0.624,1.642,1.269,2.442,1.93
			c0.18,0.148,0.359,0.297,0.537,0.447c0.848,0.714,1.683,1.442,2.496,2.195c0.016,0.015,0.033,0.029,0.049,0.044
			c0.712,0.661,1.4,1.348,2.084,2.038c-12.93,13.09-30.42,20.457-49.1,20.457c-26.071,0-49.66-14.427-61.56-37.651
			c-1.711-3.339-5.147-5.44-8.899-5.44c-3.752,0-7.189,2.101-8.899,5.44c-11.898,23.224-35.487,37.651-61.559,37.651
			c-26.071,0-49.66-14.427-61.56-37.651c-1.711-3.339-5.148-5.44-8.899-5.44c-3.752,0-7.19,2.101-8.899,5.44
			c-11.898,23.224-35.487,37.651-61.559,37.651c-18.689,0-36.19-7.378-49.127-20.483C70.55,205.318,75.777,201.346,81.456,198.174z
			 M379.555,491.98l-24.091,0.002l21.265-77.78c1.457-5.327-1.681-10.827-7.008-12.282c-5.325-1.454-10.827,1.681-12.283,7.009
			l-22.708,83.056l-24.982,0.002l12.536-89.025c0.771-5.469-3.039-10.527-8.508-11.297c-5.468-0.765-10.526,3.038-11.297,8.508
			l-12.928,91.816l-23.554,0.002V378.984c0-5.523-4.477-10-10-10c-5.522,0-10,4.477-10,10v113.007l-23.554,0.002l-12.93-91.822
			c-0.77-5.469-5.829-9.274-11.297-8.508c-5.469,0.77-9.278,5.828-8.508,11.297l12.536,89.034l-24.979,0.002l-22.711-83.069
			c-1.456-5.328-6.953-8.462-12.283-7.009c-5.327,1.457-8.465,6.956-7.008,12.282l21.27,77.796L132.442,492L94.379,345.262
			c3.729,0.888,7.519,1.523,11.356,1.921c0.169,0.018,0.337,0.035,0.506,0.051c0.562,0.055,1.125,0.106,1.689,0.15
			c0.298,0.024,0.598,0.044,0.897,0.065c0.471,0.033,0.942,0.065,1.414,0.09c0.441,0.024,0.884,0.04,1.327,0.057
			c0.354,0.014,0.707,0.031,1.062,0.041c0.816,0.022,1.633,0.035,2.454,0.035c27.993,0,53.765-12.899,70.459-34.504
			c16.692,21.604,42.464,34.504,70.458,34.504c27.994,0,53.766-12.898,70.458-34.504c16.694,21.604,42.466,34.504,70.459,34.504
			c0.819,0,1.634-0.013,2.448-0.035c0.386-0.01,0.771-0.029,1.156-0.044c0.402-0.016,0.805-0.03,1.205-0.052
			c0.531-0.028,1.061-0.064,1.59-0.101c0.223-0.016,0.447-0.031,0.669-0.048c0.652-0.051,1.302-0.109,1.951-0.174
			c0.051-0.005,0.103-0.01,0.154-0.016c3.9-0.393,7.747-1.032,11.529-1.932L379.555,491.98z M414.431,325.42
			c-0.139,0.036-0.278,0.075-0.417,0.11c-0.931,0.238-1.87,0.452-2.816,0.651c-0.267,0.056-0.535,0.11-0.803,0.163
			c-0.859,0.17-1.723,0.326-2.592,0.464c-0.403,0.063-0.809,0.118-1.214,0.174c-0.763,0.107-1.527,0.211-2.297,0.293
			c-0.614,0.064-1.232,0.109-1.849,0.157c-0.591,0.047-1.18,0.104-1.775,0.135c-1.244,0.065-2.493,0.105-3.75,0.105
			c-26.072,0-49.66-14.427-61.56-37.651c-1.711-3.339-5.147-5.44-8.9-5.44c-3.753,0-7.189,2.101-8.9,5.441
			c-11.898,23.224-35.486,37.651-61.559,37.651c-26.073,0-49.66-14.427-61.557-37.651c-1.711-3.34-5.148-5.441-8.9-5.441
			c-3.752,0-7.189,2.101-8.9,5.44c-11.9,23.225-35.488,37.651-61.56,37.651c-1.259,0-2.511-0.04-3.758-0.106
			c-0.539-0.029-1.072-0.081-1.607-0.123c-0.685-0.052-1.37-0.103-2.051-0.175c-0.683-0.073-1.359-0.167-2.036-0.259
			c-0.514-0.07-1.028-0.14-1.54-0.221c-0.754-0.121-1.503-0.257-2.248-0.402c-0.416-0.081-0.831-0.165-1.246-0.253
			c-0.8-0.171-1.597-0.354-2.387-0.552c-0.334-0.084-0.667-0.175-1-0.264c-0.849-0.228-1.696-0.462-2.533-0.721
			c-0.196-0.061-0.391-0.13-0.587-0.192c-27.88-8.909-48.129-35.056-48.129-65.852c0-10.484,2.284-20.539,6.797-29.899
			c0.394-0.821,0.822-1.626,1.25-2.432c16.426,15.517,38.049,24.21,61.081,24.21c27.993,0,53.765-12.899,70.458-34.504
			c16.694,21.605,42.466,34.504,70.459,34.504c27.993,0,53.765-12.899,70.458-34.504c16.694,21.605,42.466,34.504,70.459,34.504
			c23.03,0,44.649-8.69,61.07-24.2c0.428,0.805,0.858,1.61,1.256,2.434c4.507,9.369,6.791,19.424,6.791,29.888
			C466.04,290.617,444.091,317.646,414.431,325.42z"/>
	</g>
</g>
<g>
</g>
<g>
</g>
<g>
</g>
<g>
</g>
<g>
</g>
<g>
</g>
<g>
</g>
<g>
</g>
<g>
</g>
<g>
</g>
<g>
</g>
<g>
</g>
<g>
</g>
<g>
</g>
<g>
</g>
</svg>
