<?xml version="1.0" encoding="iso-8859-1"?>
<!-- Generator: Adobe Illustrator 19.0.0, SVG Export Plug-In . SVG Version: 6.00 Build 0)  -->
<svg version="1.1" id="Capa_1" xmlns="http://www.w3.org/2000/svg" xmlns:xlink="http://www.w3.org/1999/xlink" x="0px" y="0px"
	 viewBox="0 0 511.999 511.999" style="enable-background:new 0 0 511.999 511.999;" xml:space="preserve">
<g>
	<g>
		<path d="M491.542,267.256c-1.887-2.539-4.863-4.035-8.026-4.035h-2.005c0.25-2.2,0.467-4.405,0.639-6.615
			c0.04-0.508,0.069-1.016,0.104-1.524c0.051-0.724,0.106-1.448,0.148-2.172c0.145-2.481,0.242-4.963,0.29-7.444
			c0-0.008-0.001-0.015-0.001-0.022c0.035-1.229,0.047-2.458,0.047-3.695c0-26.52-5.409-52.165-16.078-76.221
			c-10.303-23.231-24.978-43.847-43.617-61.272c-34.973-32.691-80.605-50.695-128.492-50.695c-8.979,0-17.879,0.633-26.644,1.877
			c-5.843,0.829-11.627,1.93-17.334,3.296c-2.854,0.683-5.688,1.432-8.501,2.247c-9.666,2.799-19.081,6.377-28.165,10.689
			c0.843-7.167,0.433-13.991-1.266-20.417c-8.934-33.793-52.2-49.972-54.038-50.645c-3.935-1.438-8.354-0.273-11.063,2.925
			c-1.241,1.464-29.746,35.609-22.391,68.81c-7.196,3.782-13.211,9.502-17.401,16.702c-6.792,11.673-7.558,25.219-3.266,37.015
			c-12.552,1.993-24.145,9.388-31.02,21.205c-4.232,7.275-6.231,15.423-5.912,23.634c-32.302,10.171-47.798,51.599-48.457,53.397
			c-1.44,3.936-0.273,8.352,2.925,11.063c1.298,1.1,28.255,23.628,57.479,23.628c4.393,0,8.837-0.51,13.253-1.677
			c4.779-1.263,9.408-3.268,13.871-5.977c0.027,0.527,0.047,1.053,0.077,1.58c0.044,0.755,0.102,1.51,0.155,2.265
			c0.033,0.475,0.06,0.95,0.097,1.425c0.173,2.211,0.39,4.417,0.639,6.618h-2.005c-3.163,0-6.14,1.496-8.026,4.035
			c-1.887,2.539-2.461,5.82-1.549,8.849l68.912,228.778c1.272,4.225,5.163,7.116,9.575,7.116h78.244h83.618h78.244
			c4.412,0,8.303-2.892,9.575-7.116l68.912-228.778C494.003,273.076,493.429,269.795,491.542,267.256z M462.32,230.132
			c-3.562-0.816-7.227-1.238-10.941-1.238c-11.546,0-22.657,4.149-31.364,11.445c-8.706-7.296-19.816-11.445-31.363-11.445
			c-11.545,0-22.658,4.15-31.37,11.448c-8.707-7.298-19.819-11.448-31.367-11.448c-11.547,0-22.657,4.149-31.363,11.445
			c-8.707-7.296-19.818-11.445-31.364-11.445c-11.548,0-22.66,4.15-31.367,11.448c-8.712-7.298-19.825-11.448-31.37-11.448
			c-11.547,0-22.657,4.149-31.363,11.445c-8.707-7.296-19.818-11.445-31.364-11.445c-3.714,0-7.379,0.422-10.941,1.238
			c0.019-0.275,0.033-0.55,0.054-0.825c0.03-0.409,0.065-0.817,0.097-1.226c2.916-35.397,17.072-69.166,40.192-96.07
			c0.316-0.366,0.63-0.734,0.948-1.098c0.613-0.701,1.235-1.395,1.86-2.087c0.497-0.549,0.998-1.094,1.503-1.636
			c0.528-0.568,1.057-1.136,1.594-1.697c0.165-0.172,0.333-0.339,0.498-0.511c7.91,5.267,17.189,8.1,26.918,8.1
			c11.547,0,22.66-4.15,31.374-11.449c8.708,7.298,19.818,11.449,31.362,11.449c11.548,0,22.66-4.15,31.369-11.447
			c8.708,7.298,19.82,11.447,31.368,11.447c11.544,0,22.654-4.151,31.362-11.449c8.714,7.299,19.827,11.449,31.374,11.449
			c9.735,0,19.018-2.835,26.93-8.108C442.966,153.393,459.569,190.828,462.32,230.132z M462.459,251.103
			c-0.017,0.326-0.037,0.652-0.057,0.978c-0.083,1.377-0.183,2.753-0.3,4.128c-0.044,0.518-0.085,1.036-0.134,1.554
			c-0.172,1.823-0.364,3.645-0.595,5.458h-35.848c0.985-0.65,1.859-1.478,2.572-2.458c5.413-7.432,14.116-11.869,23.281-11.869
			C455.222,248.894,458.978,249.649,462.459,251.103z M414.503,263.221h-51.714c0.983-0.649,1.856-1.476,2.569-2.453
			c5.422-7.435,14.129-11.874,23.293-11.874c9.165,0,17.867,4.437,23.279,11.869C412.644,261.743,413.518,262.571,414.503,263.221z
			 M351.767,263.221h-51.705c0.985-0.65,1.859-1.478,2.573-2.458c5.412-7.433,14.114-11.869,23.279-11.869
			c9.165,0,17.868,4.438,23.281,11.869C349.908,261.743,350.782,262.571,351.767,263.221z M289.039,263.221h-51.706
			c0.985-0.65,1.859-1.478,2.572-2.458c5.413-7.432,14.116-11.869,23.281-11.869c9.165,0,17.868,4.438,23.281,11.869
			C287.18,261.743,288.054,262.571,289.039,263.221z M226.311,263.221h-51.714c0.985-0.65,1.859-1.478,2.573-2.458
			c5.412-7.433,14.114-11.869,23.279-11.869c9.163,0,17.871,4.439,23.293,11.874C224.455,261.746,225.328,262.572,226.311,263.221z
			 M163.575,263.221h-35.848c-0.23-1.814-0.422-3.635-0.594-5.458c-0.049-0.518-0.09-1.036-0.134-1.554
			c-0.117-1.375-0.217-2.751-0.3-4.128c-0.02-0.326-0.04-0.652-0.058-0.978c3.481-1.454,7.237-2.209,11.081-2.209
			c9.165,0,17.868,4.438,23.281,11.869C161.716,261.743,162.59,262.571,163.575,263.221z M202.93,100.699
			c0.019-0.012,0.035-0.028,0.053-0.04c0.424-0.276,0.847-0.554,1.274-0.826c0.441-0.281,0.884-0.559,1.328-0.836
			c0.628-0.392,1.258-0.781,1.891-1.164c0.446-0.27,0.893-0.539,1.341-0.805c0.642-0.381,1.286-0.756,1.932-1.128
			c0.444-0.256,0.888-0.512,1.334-0.763c0.667-0.376,1.338-0.744,2.01-1.111c0.428-0.234,0.855-0.47,1.286-0.7
			c0.724-0.387,1.453-0.764,2.182-1.14c0.383-0.198,0.765-0.4,1.15-0.595c0.92-0.466,1.846-0.919,2.775-1.368
			c0.195-0.094,0.389-0.193,0.584-0.286c1.132-0.541,2.27-1.069,3.414-1.584c0.291-0.131,0.585-0.255,0.876-0.384
			c0.85-0.377,1.701-0.751,2.557-1.114c0.417-0.177,0.837-0.346,1.255-0.519c0.736-0.305,1.473-0.609,2.213-0.903
			c0.463-0.184,0.928-0.362,1.392-0.542c0.702-0.272,1.405-0.542,2.111-0.804c0.485-0.18,0.971-0.356,1.458-0.532
			c0.694-0.251,1.389-0.498,2.085-0.739c0.493-0.171,0.986-0.339,1.481-0.505c0.7-0.235,1.402-0.465,2.105-0.691
			c0.492-0.158,0.984-0.316,1.477-0.469c0.718-0.224,1.439-0.439,2.161-0.653c0.481-0.143,0.961-0.287,1.443-0.425
			c0.759-0.218,1.522-0.426,2.284-0.633c0.446-0.121,0.89-0.246,1.337-0.363c0.884-0.232,1.772-0.452,2.66-0.67
			c0.327-0.08,0.653-0.166,0.981-0.244c1.221-0.291,2.445-0.57,3.673-0.834c0.219-0.047,0.44-0.089,0.66-0.135
			c1.006-0.212,2.014-0.419,3.026-0.612c0.432-0.083,0.866-0.157,1.298-0.237c0.804-0.147,1.607-0.294,2.413-0.43
			c0.491-0.083,0.985-0.159,1.478-0.237c0.751-0.12,1.502-0.238,2.255-0.347c0.519-0.076,1.039-0.146,1.56-0.216
			c0.733-0.1,1.466-0.196,2.201-0.286c0.53-0.065,1.06-0.127,1.591-0.187c0.731-0.082,1.463-0.16,2.196-0.233
			c0.533-0.053,1.067-0.105,1.601-0.153c0.74-0.067,1.481-0.126,2.223-0.183c0.525-0.04,1.049-0.082,1.575-0.117
			c0.769-0.052,1.54-0.094,2.311-0.136c0.498-0.027,0.996-0.057,1.495-0.079c0.85-0.038,1.702-0.065,2.555-0.09
			c0.419-0.013,0.838-0.031,1.258-0.04c1.273-0.029,2.547-0.045,3.824-0.045c1.274-0.006,2.549,0.01,3.822,0.039
			c0.42,0.009,0.838,0.027,1.257,0.04c0.853,0.025,1.705,0.052,2.556,0.09c0.498,0.022,0.995,0.053,1.493,0.079
			c0.772,0.042,1.544,0.084,2.314,0.136c0.524,0.035,1.048,0.077,1.571,0.117c0.743,0.057,1.486,0.117,2.227,0.184
			c0.532,0.048,1.064,0.1,1.595,0.153c0.735,0.073,1.469,0.151,2.202,0.234c0.528,0.06,1.056,0.121,1.584,0.186
			c0.738,0.09,1.474,0.187,2.21,0.287c0.517,0.07,1.034,0.14,1.549,0.215c0.758,0.11,1.515,0.229,2.271,0.35
			c0.487,0.078,0.975,0.153,1.462,0.235c0.815,0.137,1.627,0.285,2.439,0.434c0.424,0.078,0.849,0.151,1.272,0.232
			c1.03,0.197,2.057,0.407,3.082,0.624c0.201,0.043,0.403,0.08,0.604,0.124c1.231,0.265,2.458,0.544,3.682,0.836
			c0.316,0.075,0.63,0.158,0.946,0.235c0.901,0.22,1.8,0.444,2.697,0.679c0.438,0.115,0.874,0.238,1.311,0.356
			c0.772,0.209,1.544,0.42,2.312,0.64c0.474,0.136,0.947,0.278,1.42,0.418c0.73,0.216,1.46,0.435,2.186,0.661
			c0.485,0.151,0.969,0.306,1.453,0.462c0.712,0.229,1.423,0.462,2.132,0.7c0.486,0.163,0.972,0.329,1.457,0.497
			c0.706,0.245,1.411,0.495,2.113,0.749c0.478,0.173,0.955,0.345,1.431,0.523c0.715,0.266,1.428,0.539,2.139,0.815
			c0.456,0.177,0.912,0.351,1.366,0.532c0.752,0.299,1.501,0.608,2.249,0.918c0.406,0.168,0.814,0.333,1.219,0.504
			c0.875,0.371,1.745,0.753,2.613,1.139c0.273,0.121,0.548,0.238,0.821,0.36c1.146,0.516,2.287,1.045,3.421,1.588
			c0.186,0.089,0.37,0.183,0.555,0.272c0.939,0.453,1.876,0.913,2.807,1.384c0.376,0.19,0.749,0.388,1.124,0.581
			c0.737,0.38,1.474,0.761,2.207,1.153c0.426,0.228,0.849,0.461,1.273,0.693c0.675,0.369,1.35,0.739,2.021,1.117
			c0.445,0.251,0.889,0.507,1.332,0.762c0.645,0.371,1.288,0.746,1.929,1.126c0.451,0.268,0.9,0.538,1.349,0.81
			c0.63,0.382,1.258,0.769,1.884,1.16c0.446,0.279,0.891,0.558,1.335,0.841c0.626,0.399,1.248,0.804,1.869,1.212
			c0.435,0.285,0.87,0.57,1.302,0.859c0.636,0.426,1.268,0.861,1.899,1.296c0.406,0.28,0.815,0.558,1.219,0.842
			c0.689,0.484,1.371,0.978,2.054,1.473c0.339,0.246,0.68,0.487,1.018,0.735c1.011,0.745,2.015,1.501,3.011,2.27
			c0.065,0.05,0.129,0.103,0.195,0.153c0.88,0.682,1.754,1.374,2.622,2.075c-3.545,1.53-7.399,2.333-11.381,2.333
			c-9.301,0-17.793-4.328-23.298-11.875c-1.883-2.581-4.885-4.107-8.079-4.107c-0.001,0-0.002,0-0.003,0
			c-3.195,0.001-6.197,1.528-8.079,4.111c-5.416,7.434-14.118,11.871-23.277,11.871c-9.166,0-17.87-4.438-23.285-11.871
			c-1.883-2.583-4.887-4.111-8.083-4.111c-3.196,0-6.2,1.528-8.082,4.111c-5.416,7.434-14.122,11.871-23.287,11.871
			c-9.159,0-17.861-4.438-23.277-11.871c-1.882-2.583-4.884-4.11-8.079-4.111c-0.001,0-0.002,0-0.003,0
			c-3.194,0-6.196,1.526-8.079,4.107c-5.505,7.547-13.997,11.875-23.298,11.875c-3.977,0-7.827-0.802-11.369-2.329
			c0.132-0.106,0.258-0.216,0.391-0.322c0.167-0.134,0.336-0.265,0.503-0.398c1.314-1.043,2.642-2.073,3.992-3.08
			c0.002-0.001,0.004-0.003,0.006-0.005C196.884,104.775,199.878,102.686,202.93,100.699z M158.43,22.343
			c10.561,5.129,30.321,16.797,34.875,34.021c2.183,8.258,0.907,18.077-3.79,29.22c-1.938,1.307-3.856,2.649-5.75,4.031
			c-0.042-0.076-0.091-0.147-0.134-0.222c-0.376-0.662-0.77-1.313-1.18-1.953c-0.096-0.15-0.19-0.302-0.288-0.451
			c-0.453-0.689-0.925-1.366-1.417-2.028c-0.054-0.073-0.105-0.149-0.16-0.222c-1.105-1.469-2.305-2.866-3.593-4.189
			c-0.174-0.178-0.355-0.35-0.532-0.525c-0.463-0.46-0.935-0.912-1.42-1.352c-0.228-0.207-0.46-0.409-0.693-0.612
			c-0.461-0.4-0.931-0.791-1.41-1.173c-0.247-0.197-0.493-0.395-0.745-0.587c-0.513-0.391-1.039-0.768-1.572-1.139
			c-0.223-0.155-0.441-0.316-0.667-0.468c-0.765-0.511-1.544-1.006-2.347-1.473c-0.769-0.447-1.55-0.861-2.337-1.258
			c-0.204-0.103-0.409-0.2-0.614-0.3c-0.634-0.308-1.272-0.599-1.916-0.875c-0.176-0.075-0.351-0.153-0.528-0.226
			c-1.685-0.696-3.403-1.28-5.145-1.757c-0.081-0.022-0.162-0.042-0.243-0.064c-0.866-0.231-1.737-0.437-2.614-0.614
			c-0.013-0.003-0.026-0.006-0.039-0.008c-3.18-0.638-6.421-0.918-9.677-0.83C141.184,50.509,152.025,31.667,158.43,22.343z
			 M125.034,99.103c3.418-5.875,8.985-9.734,15.131-11.177c0.623-0.146,1.249-0.268,1.876-0.364c0.141-0.021,0.282-0.04,0.423-0.059
			c0.604-0.081,1.208-0.139,1.811-0.174c0.166-0.009,0.332-0.016,0.498-0.022c0.588-0.021,1.175-0.022,1.76,0
			c0.173,0.007,0.346,0.017,0.519,0.027c0.588,0.035,1.174,0.09,1.757,0.169c0.158,0.021,0.316,0.047,0.473,0.072
			c0.601,0.094,1.199,0.207,1.791,0.348c0.128,0.03,0.256,0.065,0.385,0.098c0.619,0.158,1.234,0.336,1.841,0.545
			c0.092,0.032,0.183,0.067,0.274,0.1c0.637,0.228,1.269,0.478,1.889,0.762c0.052,0.024,0.102,0.051,0.154,0.075
			c0.655,0.306,1.301,0.637,1.933,1.004c0.531,0.309,1.042,0.643,1.542,0.988c0.122,0.084,0.244,0.169,0.365,0.256
			c0.485,0.348,0.96,0.707,1.415,1.087c0.051,0.043,0.098,0.089,0.149,0.132c0.402,0.342,0.789,0.7,1.165,1.066
			c0.126,0.123,0.253,0.246,0.376,0.372c0.389,0.396,0.767,0.802,1.126,1.223c0.104,0.122,0.201,0.251,0.303,0.375
			c0.262,0.321,0.516,0.648,0.761,0.982c0.136,0.186,0.273,0.372,0.404,0.562c0.282,0.409,0.554,0.826,0.81,1.253
			c0.136,0.227,0.261,0.461,0.389,0.692c0.146,0.264,0.288,0.53,0.425,0.799c0.133,0.264,0.266,0.527,0.389,0.796
			c0.138,0.299,0.263,0.605,0.389,0.911c0.087,0.212,0.172,0.424,0.253,0.638c-0.554,0.505-1.104,1.012-1.649,1.522
			c-0.034,0.032-0.068,0.062-0.102,0.093c-0.005,0.004-0.008,0.009-0.013,0.013c-1.201,1.123-2.385,2.261-3.553,3.41
			c-0.041,0.041-0.081,0.083-0.122,0.123c-8.275,8.157-15.708,16.979-22.276,26.398c-2.26-0.538-4.442-1.405-6.463-2.582
			C122.296,125.024,118.44,110.437,125.034,99.103z M107.098,225.107c-6.207,6.767-12.743,11.091-19.459,12.867
			c-17.253,4.565-37.203-6.9-46.857-13.538c5.562-11.465,16.875-29.012,32.052-34.229c1.883,3.478,4.231,6.666,6.978,9.501
			c0.036,0.037,0.072,0.074,0.108,0.111c0.667,0.683,1.353,1.349,2.066,1.989c0.008,0.007,0.015,0.015,0.024,0.022
			c0.709,0.636,1.441,1.25,2.195,1.841c0.106,0.083,0.215,0.162,0.322,0.245c0.609,0.469,1.233,0.923,1.87,1.362
			c0.194,0.134,0.387,0.268,0.584,0.4c0.738,0.492,1.488,0.971,2.261,1.421c0.015,0.009,0.029,0.019,0.044,0.028
			c0.795,0.463,1.606,0.894,2.426,1.303c0.264,0.132,0.533,0.248,0.799,0.374c0.557,0.264,1.116,0.524,1.682,0.764
			c0.337,0.142,0.677,0.272,1.017,0.405c0.503,0.198,1.007,0.391,1.516,0.57c0.378,0.133,0.757,0.256,1.138,0.378
			c0.477,0.153,0.955,0.298,1.437,0.435c0.408,0.116,0.817,0.227,1.228,0.331c0.456,0.115,0.913,0.219,1.372,0.319
			c0.437,0.096,0.874,0.191,1.313,0.274c0.426,0.079,0.854,0.144,1.283,0.211c0.474,0.074,0.946,0.153,1.422,0.212
			c0.352,0.043,0.707,0.069,1.06,0.104c0.522,0.052,1.044,0.115,1.568,0.148C107.931,216.978,107.453,221.031,107.098,225.107z
			 M112.189,193.041c-0.132,0.006-0.264,0.008-0.395,0.011c-0.615,0.015-1.229,0.006-1.842-0.027
			c-0.113-0.006-0.226-0.008-0.338-0.016c-0.293-0.02-0.585-0.05-0.877-0.081c-0.21-0.023-0.419-0.048-0.628-0.076
			c-0.265-0.036-0.53-0.07-0.793-0.115c-0.425-0.072-0.848-0.155-1.268-0.251c-0.203-0.046-0.405-0.101-0.607-0.153
			c-0.308-0.079-0.616-0.163-0.922-0.255c-0.182-0.054-0.364-0.108-0.545-0.167c-0.461-0.151-0.921-0.312-1.374-0.492
			c-0.098-0.039-0.194-0.083-0.291-0.123c-0.394-0.162-0.785-0.336-1.172-0.52c-0.133-0.063-0.266-0.127-0.398-0.193
			c-0.469-0.234-0.935-0.478-1.393-0.744c-0.67-0.39-1.314-0.81-1.935-1.256c-0.367-0.264-0.71-0.556-1.06-0.839
			c-0.237-0.191-0.485-0.37-0.714-0.57c-0.432-0.378-0.837-0.781-1.239-1.188c-0.124-0.125-0.257-0.24-0.378-0.368
			c-0.423-0.447-0.818-0.918-1.204-1.396c-0.084-0.103-0.175-0.2-0.257-0.305c-0.38-0.488-0.732-0.997-1.073-1.513
			c-0.073-0.111-0.154-0.216-0.225-0.328c-0.321-0.505-0.613-1.029-0.896-1.559c-0.075-0.14-0.158-0.276-0.23-0.418
			c-0.257-0.506-0.485-1.028-0.707-1.554c-0.077-0.184-0.162-0.363-0.235-0.549c-0.196-0.498-0.363-1.01-0.526-1.525
			c-0.117-0.37-0.252-0.732-0.352-1.11c-1.626-6.142-0.761-12.548,2.433-18.039c4.411-7.582,12.397-11.817,20.596-11.817
			c4.058,0,8.168,1.039,11.921,3.222c1.972,1.148,3.765,2.574,5.321,4.221c-1.69,3.159-3.285,6.378-4.8,9.645
			c-0.015,0.032-0.029,0.064-0.044,0.097c-0.437,0.944-0.879,1.885-1.301,2.838c-0.268,0.603-0.517,1.212-0.778,1.818
			c-0.065,0.15-0.129,0.301-0.193,0.452c-0.662,1.545-1.301,3.097-1.92,4.655c-0.021,0.052-0.042,0.104-0.062,0.156
			c-2.649,6.691-4.912,13.494-6.762,20.399C112.547,193.02,112.368,193.034,112.189,193.041z M217.134,491.999l-26.512-129.86
			c-1.105-5.412-6.389-8.905-11.798-7.798c-5.411,1.104-8.902,6.387-7.798,11.798l25.696,125.86h-14.793l-62.888-208.778h0.098
			h103.285l19.348,208.778H217.134z M327.243,491.999h-22.692v-169.56c0-5.522-4.478-9.999-10-9.999c-5.523,0-10,4.478-10,10
			v169.559h-22.693l-19.347-208.778H346.59L327.243,491.999z M407.172,491.999h-14.793l25.695-125.86
			c1.105-5.411-2.387-10.693-7.798-11.798c-5.409-1.101-10.693,2.387-11.798,7.798l-26.511,129.86h-24.638l19.348-208.778h103.285
			h0.098L407.172,491.999z"/>
	</g>
</g>
<g>
	<g>
		<path d="M423.452,329.559c-0.132-0.64-0.322-1.27-0.572-1.87c-0.25-0.6-0.561-1.18-0.92-1.729c-0.36-0.54-0.78-1.061-1.24-1.521
			c-0.46-0.46-0.97-0.88-1.52-1.239c-0.54-0.36-1.12-0.67-1.73-0.92c-0.6-0.25-1.229-0.44-1.87-0.57c-1.29-0.26-2.62-0.26-3.91,0
			c-0.63,0.13-1.26,0.32-1.87,0.57c-0.6,0.25-1.18,0.56-1.72,0.92c-0.55,0.359-1.06,0.779-1.52,1.239
			c-0.46,0.46-0.88,0.98-1.25,1.521c-0.36,0.55-0.67,1.13-0.92,1.729c-0.25,0.6-0.44,1.23-0.57,1.87c-0.13,0.641-0.19,1.3-0.19,1.95
			c0,2.64,1.07,5.21,2.931,7.07c0.46,0.47,0.97,0.88,1.52,1.25c0.54,0.359,1.12,0.67,1.72,0.92c0.61,0.25,1.24,0.44,1.87,0.569
			c0.65,0.131,1.31,0.2,1.96,0.2c0.65,0,1.311-0.069,1.95-0.2c0.641-0.13,1.27-0.319,1.87-0.569c0.61-0.25,1.19-0.56,1.73-0.92
			c0.55-0.37,1.06-0.78,1.52-1.25c1.86-1.86,2.93-4.44,2.93-7.07C423.651,330.859,423.582,330.199,423.452,329.559z"/>
	</g>
</g>
<g>
	<g>
		<path d="M185.261,329.56c-0.131-0.641-0.321-1.271-0.571-1.871c-0.25-0.6-0.56-1.18-0.92-1.729c-0.37-0.54-0.79-1.061-1.25-1.521
			c-0.46-0.46-0.97-0.88-1.52-1.239c-0.54-0.36-1.12-0.67-1.72-0.92c-0.61-0.25-1.24-0.44-1.87-0.57c-1.29-0.26-2.62-0.26-3.91,0
			c-0.641,0.13-1.27,0.32-1.87,0.57c-0.61,0.25-1.19,0.56-1.73,0.92c-0.55,0.359-1.06,0.779-1.52,1.239
			c-0.46,0.46-0.88,0.98-1.24,1.521c-0.359,0.55-0.67,1.13-0.92,1.729c-0.25,0.6-0.439,1.23-0.57,1.87
			c-0.13,0.641-0.199,1.3-0.199,1.95c0,0.66,0.069,1.309,0.199,1.96c0.131,0.63,0.32,1.26,0.57,1.87c0.25,0.6,0.561,1.18,0.92,1.72
			c0.36,0.55,0.78,1.061,1.24,1.521c0.46,0.47,0.97,0.88,1.52,1.25c0.54,0.359,1.12,0.67,1.73,0.92c0.6,0.25,1.23,0.44,1.87,0.569
			c0.64,0.131,1.3,0.2,1.95,0.2c0.649,0,1.31-0.069,1.96-0.2c0.63-0.13,1.26-0.319,1.87-0.569c0.6-0.25,1.18-0.56,1.72-0.92
			c0.55-0.37,1.06-0.78,1.52-1.25c1.86-1.86,2.931-4.44,2.931-7.07C185.451,330.86,185.39,330.2,185.261,329.56z"/>
	</g>
</g>
<g>
</g>
<g>
</g>
<g>
</g>
<g>
</g>
<g>
</g>
<g>
</g>
<g>
</g>
<g>
</g>
<g>
</g>
<g>
</g>
<g>
</g>
<g>
</g>
<g>
</g>
<g>
</g>
<g>
</g>
</svg>
