<?xml version="1.0" encoding="iso-8859-1"?>
<!-- Generator: Adobe Illustrator 19.0.0, SVG Export Plug-In . SVG Version: 6.00 Build 0)  -->
<svg version="1.1" id="Capa_1" xmlns="http://www.w3.org/2000/svg" xmlns:xlink="http://www.w3.org/1999/xlink" x="0px" y="0px"
	 viewBox="0 0 512 512" style="enable-background:new 0 0 512 512;" xml:space="preserve">
<g>
	<g>
		<path d="M487.3,258.654c0-19.366-10.588-36.295-26.271-45.336c-0.005-10.009-2.618-19.769-7.708-28.582
			c-9.596-16.618-26.295-26.621-44.07-28.425c8.545-16.777,8.696-37.497-1.444-55.058h-0.001
			c-15.323-26.53-48.549-36.348-75.309-22.804c-6.864-31.74-32.711-57.438-58.352-70.142c-20.374-10.098-38.463-11.033-49.628-2.569
			c-6.172,4.679-12.797,14.128-9.316,32.58c4.235,22.444-7.174,55.187-32.391,94.047c0.096-6.848-0.31-12.87-1.459-17.308
			c-3.706-14.31-9.804-24.731-19.774-33.791c-21.673-19.691-53.136-20.63-71.625-2.141c-11.066,11.065-14.863,25.968-16.153,35.657
			c-9.622,1.159-24.371,4.866-35.831,16.325c-18.49,18.49-17.55,49.952,2.142,71.627c11.736,12.914,24.856,17.462,33.73,19.756
			c-9.014,9.402-14.57,22.142-14.57,36.164v2.179c0,7.89,1.833,15.717,5.282,22.799c0.038,0.136,0.064,0.274,0.108,0.409
			l72.618,221.08c1.348,4.104,5.18,6.879,9.501,6.879h82.452h88.114h82.452c4.32,0,8.152-2.774,9.501-6.88l72.617-221.079
			c0.044-0.134,0.069-0.272,0.107-0.407c3.449-7.082,5.282-14.91,5.282-22.801v-2.179H487.3z M436.003,194.737
			c2.162,3.745,3.64,7.751,4.409,11.893c-0.867-0.09-1.741-0.157-2.621-0.204c-0.027-0.001-0.053-0.005-0.081-0.006
			c-0.899-0.046-1.804-0.07-2.715-0.07H340.88l43.945-25.366C402.729,170.688,425.673,176.848,436.003,194.737z M234.854,34.608
			c-0.577-3.054-1.56-10.429,1.745-12.932c1.386-1.052,3.729-1.678,6.871-1.678c5.265,0,12.775,1.759,21.796,6.229
			c22.094,10.947,45.792,34.838,48.71,62.809l-127.857,73.803C214.304,123.948,242.232,73.707,234.854,34.608z M172.776,206.129
			c0.008-0.037,0.039-0.183,0.087-0.412c0.436-2.064,1.462-7.027,2.699-13.692l153.715-88.729c0.005-0.003,0.009-0.006,0.013-0.009
			l10.447-6.03c17.645-10.183,40.412-3.906,50.753,13.996h-0.001c10.331,17.89,4.377,40.781-13.251,51.017l-2.445,1.411
			c-0.005,0.003-0.009,0.005-0.014,0.008l-73.901,42.658l-128.139-0.051C172.751,206.24,172.763,206.185,172.776,206.129z
			 M54.912,189.285c-12.294-13.531-13.55-33.286-2.801-44.035c10.338-10.338,25.98-10.973,29.66-10.973
			c0.498,0,0.777,0.012,0.794,0.012c2.785,0.168,5.516-0.863,7.526-2.802c2.011-1.938,3.119-4.646,3.058-7.437
			c-0.004-0.194-0.293-19.545,10.946-30.783c10.75-10.751,30.503-9.495,44.034,2.801c7.01,6.369,11.156,13.547,13.862,24.002
			c2.094,8.086,0.336,27.467-2.537,46.953c-0.007,0.045-0.022,0.089-0.029,0.134c-0.797,5.349-1.724,10.999-2.753,16.792
			c0,0,0,0.001,0,0.002c-0.811,4.56-1.568,8.551-2.166,11.609c-7.354,1.437-20.115,3.8-33.411,5.655
			c-0.047,0.007-0.092,0.019-0.138,0.026c-17.8,2.462-34.701,3.799-42.052,1.902C68.471,200.453,61.295,196.307,54.912,189.285z
			 M191.129,492L191.129,492l-27.956-117.586c-1.277-5.373-6.67-8.697-12.042-7.416c-5.373,1.277-8.693,6.668-7.416,12.041
			L170.572,492h-16.554L87.969,290.919h109.878L218.167,492H191.129z M308.301,492h-25.017V332.784c0-5.522-4.477-10-10-10
			c-5.522,0-10,4.478-10,10V492h-25.017l-20.32-201.081H328.62l-6.092,60.287L308.301,492z M392.552,492h-16.554l26.856-112.962
			c1.277-5.373-2.042-10.764-7.416-12.041c-5.364-1.279-10.764,2.042-12.041,7.416L355.442,492h-27.04l6.092-60.287l14.227-140.794
			H458.6L392.552,492z M467.302,260.832L467.302,260.832c-0.001,3.43-0.558,6.844-1.632,10.088H339.682H206.887H80.899
			c-1.074-3.244-1.631-6.658-1.631-10.088v-2.179c0-17.812,14.492-32.306,32.305-32.306h191.976h0.004h131.442
			c0.531,0,1.06,0.015,1.585,0.04c0.276,0.014,0.551,0.038,0.827,0.059c0.237,0.018,0.476,0.032,0.712,0.054
			c0.407,0.04,0.813,0.091,1.218,0.146c0.089,0.012,0.178,0.021,0.267,0.034c2.498,0.364,4.947,1.025,7.322,1.98
			c0.143,0.057,0.289,0.1,0.434,0.15c11.696,4.864,19.942,16.406,19.942,29.842V260.832z"/>
	</g>
</g>
<g>
	<g>
		<path d="M408.594,340.397c-0.13-0.64-0.319-1.27-0.569-1.87c-0.25-0.609-0.561-1.189-0.921-1.73c-0.369-0.55-0.789-1.06-1.25-1.52
			c-2.319-2.319-5.77-3.39-9.02-2.73c-0.64,0.13-1.27,0.319-1.87,0.569c-0.61,0.25-1.189,0.56-1.729,0.921
			c-0.551,0.359-1.061,0.779-1.521,1.239c-0.46,0.46-0.88,0.971-1.24,1.52c-0.359,0.54-0.67,1.12-0.92,1.73
			c-0.25,0.601-0.439,1.23-0.569,1.87c-0.131,0.641-0.2,1.3-0.2,1.95c0,0.65,0.069,1.31,0.2,1.96c0.129,0.63,0.318,1.26,0.568,1.87
			c0.25,0.6,0.561,1.18,0.92,1.72c0.36,0.55,0.78,1.061,1.24,1.521c0.46,0.46,0.97,0.88,1.521,1.25
			c0.54,0.359,1.119,0.67,1.729,0.909c0.601,0.25,1.23,0.45,1.87,0.58c0.64,0.12,1.3,0.19,1.95,0.19c0.649,0,1.31-0.07,1.96-0.19
			c0.63-0.13,1.26-0.33,1.87-0.58c0.6-0.239,1.18-0.55,1.72-0.909c0.55-0.37,1.06-0.79,1.52-1.25c1.86-1.86,2.931-4.44,2.931-7.07
			C408.784,341.697,408.723,341.038,408.594,340.397z"/>
	</g>
</g>
<g>
	<g>
		<path d="M157.583,340.396c-0.13-0.64-0.32-1.27-0.57-1.87c-0.25-0.609-0.56-1.189-0.92-1.73c-0.36-0.55-0.78-1.06-1.24-1.52
			c-0.46-0.46-0.97-0.88-1.52-1.239c-0.54-0.36-1.12-0.671-1.73-0.921c-0.6-0.25-1.23-0.44-1.87-0.569c-1.29-0.26-2.62-0.26-3.9,0
			c-0.64,0.13-1.27,0.319-1.88,0.569c-0.6,0.25-1.18,0.56-1.72,0.921c-0.55,0.359-1.06,0.779-1.52,1.239
			c-0.46,0.46-0.88,0.971-1.25,1.52c-0.36,0.54-0.67,1.12-0.92,1.73c-0.25,0.601-0.44,1.23-0.57,1.87
			c-0.13,0.641-0.19,1.3-0.19,1.95s0.06,1.31,0.19,1.96c0.13,0.63,0.32,1.26,0.57,1.87c0.25,0.6,0.56,1.18,0.92,1.72
			c0.37,0.55,0.79,1.061,1.25,1.521c0.46,0.46,0.97,0.88,1.52,1.25c0.54,0.359,1.12,0.67,1.72,0.909c0.61,0.25,1.24,0.45,1.88,0.58
			c0.64,0.12,1.3,0.19,1.95,0.19s1.31-0.07,1.95-0.19c0.64-0.13,1.27-0.33,1.87-0.58c0.61-0.239,1.19-0.55,1.73-0.909
			c0.55-0.37,1.06-0.79,1.52-1.25c0.46-0.46,0.88-0.971,1.24-1.521c0.36-0.54,0.67-1.12,0.92-1.72c0.25-0.61,0.44-1.24,0.57-1.87
			c0.13-0.65,0.2-1.31,0.2-1.96S157.713,341.037,157.583,340.396z"/>
	</g>
</g>
<g>
</g>
<g>
</g>
<g>
</g>
<g>
</g>
<g>
</g>
<g>
</g>
<g>
</g>
<g>
</g>
<g>
</g>
<g>
</g>
<g>
</g>
<g>
</g>
<g>
</g>
<g>
</g>
<g>
</g>
</svg>
