<?xml version="1.0" encoding="iso-8859-1"?>
<!-- Generator: Adobe Illustrator 19.0.0, SVG Export Plug-In . SVG Version: 6.00 Build 0)  -->
<svg version="1.1" id="Capa_1" xmlns="http://www.w3.org/2000/svg" xmlns:xlink="http://www.w3.org/1999/xlink" x="0px" y="0px"
	 viewBox="0 0 512 512" style="enable-background:new 0 0 512 512;" xml:space="preserve">
<g>
	<g>
		<path d="M345.999,351.42c-0.13-0.64-0.32-1.271-0.57-1.87c-0.25-0.61-0.56-1.19-0.92-1.73c-0.37-0.55-0.79-1.06-1.25-1.52
			c-0.46-0.46-0.97-0.88-1.52-1.24c-0.54-0.37-1.12-0.67-1.721-0.92c-0.609-0.25-1.239-0.45-1.87-0.57
			c-1.29-0.26-2.619-0.26-3.909,0c-0.641,0.12-1.271,0.32-1.87,0.57c-0.61,0.25-1.19,0.55-1.73,0.92c-0.55,0.36-1.06,0.78-1.52,1.24
			c-0.46,0.46-0.88,0.97-1.24,1.52c-0.36,0.54-0.67,1.12-0.92,1.73c-0.25,0.6-0.441,1.23-0.57,1.87c-0.13,0.64-0.2,1.3-0.2,1.95
			c0,2.63,1.07,5.21,2.931,7.069c0.459,0.46,0.969,0.88,1.519,1.24c0.54,0.36,1.12,0.67,1.73,0.92c0.6,0.25,1.229,0.45,1.87,0.57
			c0.64,0.13,1.3,0.2,1.949,0.2c0.65,0,1.31-0.07,1.96-0.2c0.631-0.12,1.261-0.32,1.87-0.57c0.601-0.25,1.181-0.56,1.721-0.92
			c0.55-0.36,1.06-0.78,1.52-1.24c0.46-0.46,0.88-0.97,1.25-1.52c0.36-0.54,0.67-1.12,0.92-1.73c0.25-0.6,0.44-1.229,0.57-1.87
			c0.13-0.64,0.19-1.3,0.19-1.949C346.189,352.72,346.129,352.06,345.999,351.42z"/>
	</g>
</g>
<g>
	<g>
		<path d="M185.609,351.42c-0.13-0.64-0.319-1.271-0.569-1.88c-0.25-0.601-0.561-1.181-0.92-1.721c-0.36-0.55-0.78-1.06-1.24-1.52
			c-0.46-0.46-0.97-0.88-1.521-1.24c-0.54-0.359-1.119-0.67-1.729-0.92c-0.6-0.25-1.23-0.45-1.87-0.57c-1.29-0.26-2.62-0.26-3.91,0
			c-0.63,0.12-1.26,0.32-1.87,0.57c-0.6,0.25-1.18,0.561-1.72,0.92c-0.55,0.36-1.06,0.78-1.52,1.24c-0.46,0.46-0.881,0.97-1.25,1.52
			c-0.36,0.54-0.671,1.12-0.921,1.721c-0.25,0.609-0.439,1.24-0.569,1.88s-0.19,1.3-0.19,1.95c0,0.649,0.06,1.309,0.19,1.949
			c0.13,0.641,0.319,1.271,0.569,1.87c0.25,0.61,0.561,1.19,0.921,1.73c0.369,0.55,0.79,1.06,1.25,1.52
			c0.46,0.46,0.97,0.88,1.52,1.24c0.54,0.36,1.12,0.67,1.72,0.92c0.61,0.25,1.24,0.45,1.87,0.57c0.65,0.13,1.311,0.2,1.96,0.2
			c0.65,0,1.311-0.07,1.95-0.2c0.64-0.12,1.27-0.32,1.87-0.57c0.61-0.25,1.189-0.56,1.729-0.92c0.551-0.36,1.061-0.78,1.521-1.24
			c0.46-0.46,0.88-0.97,1.24-1.52c0.359-0.54,0.67-1.12,0.92-1.73c0.25-0.6,0.439-1.229,0.569-1.87c0.131-0.64,0.2-1.3,0.2-1.949
			C185.809,352.72,185.74,352.06,185.609,351.42z"/>
	</g>
</g>
<g>
	<g>
		<path d="M437.933,242.99h-1.539c3.559-7.252,5.48-15.295,5.48-23.605c0-26.438-19.239-48.466-44.45-52.823
			c8.022-9.548,12.473-21.606,12.473-34.388c0-18.227-9.151-34.348-23.092-44.038l21.14-22.909
			c3.746-4.059,3.492-10.385-0.566-14.13l-26.819-24.75c-1.949-1.798-4.517-2.741-7.184-2.644c-2.65,0.106-5.15,1.262-6.947,3.211
			L335.032,60.94l8.805-41.231c0.554-2.593,0.055-5.301-1.388-7.526c-1.442-2.226-3.71-3.787-6.304-4.341l-35.689-7.621
			c-5.4-1.15-10.714,2.29-11.867,7.691l-10.868,50.894c-2.968-2.499-5.857-5.133-8.659-7.909
			c-13.094-12.971-23.565-28.432-30.283-44.71c-1.999-4.842-7.393-7.322-12.37-5.684c-13.529,4.453-25.617,12.524-34.955,23.342
			c-13.263,15.36-19.945,34.809-19.089,54.726h-16.659c-29.559,0-53.605,24.047-53.605,53.605c0,13.072,4.705,25.068,12.508,34.382
			c-25.229,4.342-44.485,26.379-44.485,52.829c0,8.311,1.921,16.354,5.48,23.605h-1.539c-5.522,0-10,4.478-10,10v59.45
			c0,5.522,4.478,10,10,10h23.542l52.342,182.318c1.23,4.287,5.151,7.24,9.611,7.24h54.764c0.016,0,0.031,0.002,0.047,0.002
			c0.01,0,0.021-0.002,0.031-0.002h83.193c0.01,0,0.021,0.002,0.031,0.002c0.016,0,0.031-0.002,0.047-0.002h54.764
			c4.46,0,8.381-2.953,9.611-7.24l52.343-182.318h23.542c5.522,0,10-4.478,10-10v-59.45
			C447.933,247.468,443.455,242.99,437.933,242.99z M421.874,219.385c0,8.905-3.494,17.337-9.688,23.605h-35.259
			c6.208-5.11,11.72-10.399,14.298-14.778c2.832-4.81,6.536-12.442,6.023-23.159c-0.345-7.215-2.684-13.809-6.401-19.165
			C408.177,187.212,421.874,201.724,421.874,219.385z M373.991,218.067c-2.512,4.268-15.554,14.458-28.034,22.928
			c-12.533-8.503-25.622-18.709-28.116-22.936c-2.531-4.291-3.48-7.781-3.276-12.048c0.357-7.429,5.546-13.704,11.333-13.704
			c6.94,0,12.546,5.981,12.547,5.98c1.864,2.097,4.522,3.314,7.328,3.355c2.841,0.045,5.499-1.098,7.423-3.14
			c1.233-1.309,7.014-6.196,12.745-6.196c5.786,0,10.975,6.275,11.332,13.703C377.476,210.268,376.526,213.761,373.991,218.067z
			 M374.344,47.828l12.121,11.187l-19.108,20.708c-0.01-0.002-0.02-0.003-0.03-0.006c-0.841-0.176-1.689-0.332-2.543-0.468
			c-0.06-0.01-0.119-0.023-0.179-0.032c-0.842-0.132-1.691-0.241-2.546-0.333c-0.07-0.008-0.139-0.019-0.209-0.027
			c-0.823-0.085-1.654-0.147-2.488-0.194c-0.096-0.006-0.191-0.017-0.287-0.022c-0.922-0.047-1.85-0.072-2.784-0.072h-10.315
			L374.344,47.828z M306.058,21.869l16.13,3.444l-11.372,53.256h-1.919c-1.112-0.506-2.22-1.03-3.324-1.57
			c-0.078-0.038-0.155-0.077-0.233-0.116c-3.342-1.643-6.642-3.442-9.879-5.391L306.058,21.869z M123.729,185.78h31.977h123.125
			c5.522,0,10-4.477,10-10c0-5.522-4.478-10-10-10h-21.259c6.208-5.11,11.721-10.399,14.299-14.778
			c2.831-4.809,6.536-12.441,6.023-23.159c-0.879-18.363-14.632-32.747-31.31-32.747c-8.127,0-15.064,3.244-19.926,6.439
			c-4.813-3.214-11.733-6.439-20.117-6.439c-16.678,0-30.431,14.384-31.31,32.748c-0.514,10.737,3.194,18.363,6.027,23.164
			c2.57,4.358,8.108,9.651,14.346,14.772h-39.901c-18.53,0-33.605-15.075-33.605-33.605s15.075-33.605,33.605-33.605h27.889
			c2.987,0,5.818-1.336,7.719-3.642c1.899-2.307,2.668-5.341,2.097-8.273c-3.487-17.869,1.318-36,13.183-49.741
			c5.006-5.799,11.067-10.539,17.821-13.979c7.601,15.42,17.854,29.572,30.569,42.172c13.29,13.169,28.306,23.662,44.674,31.229
			c1.039,0.481,2.082,0.95,3.127,1.405c1.259,0.548,2.616,0.83,3.989,0.83h12.132h4.236h33.15c0.53,0,1.056,0.016,1.579,0.04
			c0.182,0.008,0.363,0.022,0.545,0.034c0.339,0.021,0.676,0.046,1.012,0.077c0.22,0.021,0.439,0.044,0.658,0.069
			c0.293,0.033,0.585,0.071,0.875,0.112c0.237,0.033,0.475,0.066,0.711,0.104c0.264,0.043,0.525,0.092,0.786,0.141
			c0.252,0.047,0.505,0.091,0.757,0.144c0.205,0.043,0.407,0.094,0.61,0.141c0.556,0.128,1.109,0.27,1.659,0.427
			c0.185,0.053,0.372,0.102,0.556,0.158c0.278,0.084,0.553,0.177,0.83,0.269c13.361,4.444,23.026,17.055,23.026,31.89
			c0,10.442-4.744,20.119-13.016,26.547c-2.542,1.976-3.978,5.053-3.857,8.27l0.234,6.268c-2.351-0.62-4.8-0.953-7.318-0.953
			c-8.126,0-15.064,3.244-19.926,6.439c-4.813-3.214-11.733-6.439-20.117-6.439c-16.678,0-30.431,14.384-31.31,32.748
			c-0.514,10.736,3.194,18.363,6.027,23.165c2.57,4.357,8.108,9.65,14.346,14.771H99.813c-6.194-6.271-9.688-14.703-9.688-23.608
			C90.125,200.855,105.199,185.78,123.729,185.78z M198.487,140.845c-2.531-4.289-3.48-7.779-3.276-12.046
			c0.357-7.429,5.546-13.704,11.333-13.704c6.94,0,12.547,5.98,12.548,5.979c1.845,2.155,4.434,3.382,7.27,3.449
			c2.842,0.076,5.483-1.116,7.43-3.181c1.689-1.738,7.277-6.248,12.795-6.248c5.787,0,10.977,6.275,11.333,13.703
			c0.203,4.259-0.747,7.751-3.282,12.057c-2.512,4.268-15.553,14.458-28.032,22.928C214.026,155.237,200.909,144.95,198.487,140.845
			z M344.904,491.998h-34.357l25.946-99.98c1.387-5.346-1.822-10.804-7.168-12.191c-5.338-1.387-10.804,1.821-12.191,7.168
			l-27.25,105.004h-23.885V353.37c0-5.522-4.477-10-10-10c-5.522,0-10,4.478-10,10v138.629h-23.885l-27.25-105.004
			c-1.388-5.346-6.848-8.551-12.191-7.168c-5.346,1.388-8.555,6.846-7.168,12.191l25.946,99.98h-34.358l-48.68-169.559h275.168
			L344.904,491.998z M427.933,302.44h-21.074H105.141H84.067v-39.45h11.878h320.11h11.878V302.44z"/>
	</g>
</g>
<g>
</g>
<g>
</g>
<g>
</g>
<g>
</g>
<g>
</g>
<g>
</g>
<g>
</g>
<g>
</g>
<g>
</g>
<g>
</g>
<g>
</g>
<g>
</g>
<g>
</g>
<g>
</g>
<g>
</g>
</svg>
