<?xml version="1.0" encoding="iso-8859-1"?>
<!-- Generator: Adobe Illustrator 19.0.0, SVG Export Plug-In . SVG Version: 6.00 Build 0)  -->
<svg version="1.1" id="Capa_1" xmlns="http://www.w3.org/2000/svg" xmlns:xlink="http://www.w3.org/1999/xlink" x="0px" y="0px"
	 viewBox="0 0 512.001 512.001" style="enable-background:new 0 0 512.001 512.001;" xml:space="preserve">
<g>
	<g>
		<path d="M439.192,265.963c-1.186-2.223-2.482-4.397-3.903-6.507c-1.857-2.738-3.896-5.354-6.094-7.82
			c4.933-15.731,7.429-32.093,7.429-48.725c0-16.082-2.352-32-6.99-47.31c-1.486-4.909-6.44-7.898-11.482-6.916
			c-6.142,1.195-12.551,0.8-18.542-1.146c-14.778-4.794-25.12-18.438-25.733-33.953c-0.212-5.367-4.626-9.604-9.991-9.604
			c-0.02,0-0.04,0-0.061,0c-3.987,0.074-7.926-0.585-11.701-1.812c-6.234-2.025-11.828-5.656-16.184-10.506
			c-8.075-8.98-11.314-21.347-8.662-33.079c1.16-5.131-1.854-10.283-6.896-11.787c-15.122-4.51-30.824-6.797-46.668-6.797
			c-26.495,0-52.039,6.267-75.082,18.281l-11.13-50.436c-1.19-5.393-6.525-8.8-11.92-7.609l-33.201,7.326
			c-5.393,1.19-8.8,6.526-7.61,11.919l16.706,75.716c-3.146,3.559-6.133,7.244-8.946,11.056l-26.997-74.653
			c-1.878-5.195-7.611-7.878-12.805-6.004L70.756,37.159c-2.494,0.902-4.528,2.758-5.653,5.159c-1.126,2.401-1.252,5.152-0.35,7.646
			l47.491,131.32c-0.948,7.142-1.43,14.363-1.43,21.627c0,16.624,2.494,32.984,7.42,48.725c-2.204,2.476-4.246,5.1-6.105,7.851
			c-2.922,4.34-5.343,8.942-7.263,13.729c-3.474,8.658-5.283,17.929-5.283,27.41c0,24.151,11.763,45.689,29.852,59.164
			l40.192,144.884c1.201,4.33,5.143,7.327,9.636,7.327h188.903c4.493,0,8.435-2.997,9.636-7.327l19.806-71.395
			c0.794-1.392,1.261-2.99,1.303-4.697l19.083-68.786c0.157-0.117,0.319-0.227,0.474-0.345c0.421-0.319,0.826-0.657,1.24-0.984
			c0.508-0.402,1.024-0.796,1.521-1.211c0.407-0.34,0.797-0.698,1.197-1.046c0.487-0.424,0.981-0.84,1.456-1.276
			c0.391-0.358,0.763-0.735,1.146-1.102c0.465-0.446,0.939-0.884,1.392-1.342c0.378-0.381,0.738-0.78,1.107-1.17
			c0.439-0.462,0.886-0.917,1.314-1.391c0.364-0.404,0.709-0.825,1.064-1.236c0.413-0.478,0.834-0.948,1.234-1.437
			c0.352-0.43,0.684-0.876,1.027-1.314c0.382-0.488,0.773-0.969,1.143-1.466c0.342-0.46,0.662-0.936,0.994-1.404
			c0.349-0.493,0.708-0.978,1.045-1.48c0.323-0.481,0.624-0.977,0.935-1.466c0.323-0.506,0.656-1.004,0.967-1.517
			c0.306-0.507,0.59-1.029,0.884-1.543c0.292-0.511,0.596-1.014,0.877-1.533c0.291-0.539,0.559-1.092,0.837-1.639
			c0.259-0.509,0.531-1.011,0.779-1.527c0.27-0.561,0.513-1.135,0.769-1.704c0.232-0.516,0.476-1.025,0.697-1.547
			c0.245-0.582,0.464-1.176,0.695-1.765c0.204-0.522,0.422-1.038,0.615-1.565c0.212-0.579,0.396-1.171,0.594-1.756
			c0.185-0.551,0.385-1.095,0.557-1.651c0.162-0.522,0.298-1.055,0.449-1.582c0.181-0.632,0.373-1.258,0.538-1.896
			c0.111-0.431,0.198-0.87,0.301-1.304c0.177-0.745,0.362-1.486,0.516-2.239c0.055-0.269,0.094-0.544,0.146-0.815
			c0.87-4.512,1.341-9.162,1.341-13.918C447.845,288.431,444.866,276.589,439.192,265.963z M170.127,21.921l10.442,47.322
			c-0.077,0.053-0.151,0.109-0.228,0.163c-0.898,0.629-1.79,1.269-2.678,1.917c-0.099,0.073-0.2,0.143-0.299,0.216
			c-0.108,0.079-0.217,0.155-0.325,0.235c-0.204,0.151-0.398,0.311-0.601,0.462c-1.221,0.911-2.429,1.84-3.625,2.785
			c-0.44,0.347-0.882,0.691-1.318,1.041c-1.071,0.864-2.132,1.74-3.181,2.631l-11.86-53.756L170.127,21.921z M148.745,133.542
			c0.116-0.209,0.212-0.426,0.313-0.641c0.612-1.093,1.231-2.18,1.87-3.254c0.126-0.211,0.254-0.421,0.381-0.631
			c0.721-1.198,1.454-2.387,2.208-3.56c0.029-0.045,0.057-0.091,0.086-0.136c0.767-1.19,1.555-2.363,2.355-3.527
			c0.153-0.222,0.304-0.446,0.458-0.668c0.774-1.113,1.563-2.212,2.366-3.3c0.172-0.233,0.346-0.464,0.519-0.695
			c0.826-1.105,1.664-2.2,2.52-3.278c0.09-0.113,0.182-0.224,0.272-0.336c0.815-1.02,1.645-2.025,2.486-3.02
			c0.16-0.189,0.318-0.38,0.479-0.568c0.871-1.02,1.758-2.024,2.656-3.017c0.207-0.228,0.414-0.456,0.622-0.683
			c0.111-0.122,0.227-0.239,0.339-0.36c0.338-0.275,0.665-0.565,0.968-0.888c8.204-8.715,17.466-16.377,27.528-22.772
			c0.305-0.194,0.591-0.407,0.869-0.628c0.734-0.457,1.467-0.916,2.209-1.36c0.216-0.129,0.431-0.261,0.648-0.389
			c1.145-0.676,2.301-1.334,3.466-1.979c0.272-0.15,0.544-0.299,0.816-0.448c1.173-0.639,2.354-1.265,3.546-1.872
			c0.21-0.107,0.421-0.21,0.631-0.315c1.142-0.574,2.293-1.134,3.451-1.678c0.162-0.076,0.324-0.156,0.486-0.231
			c1.231-0.572,2.473-1.123,3.722-1.66c0.275-0.118,0.55-0.237,0.825-0.354c1.234-0.522,2.475-1.028,3.725-1.515
			c0.252-0.098,0.504-0.193,0.757-0.289c1.28-0.491,2.566-0.969,3.863-1.424c0.055-0.019,0.11-0.04,0.166-0.059
			c1.318-0.46,2.647-0.896,3.982-1.319c0.257-0.082,0.513-0.165,0.771-0.244c1.296-0.402,2.599-0.785,3.909-1.151
			c0.275-0.077,0.551-0.152,0.827-0.227c1.345-0.367,2.695-0.72,4.055-1.048c0.134-0.032,0.27-0.062,0.404-0.094
			c1.311-0.313,2.629-0.605,3.952-0.882c0.213-0.044,0.425-0.092,0.638-0.135c1.36-0.278,2.728-0.533,4.1-0.771
			c0.282-0.049,0.564-0.097,0.847-0.145c1.379-0.231,2.762-0.446,4.152-0.637c0.207-0.029,0.414-0.053,0.621-0.081
			c1.363-0.182,2.73-0.346,4.103-0.488c0.136-0.014,0.27-0.031,0.406-0.045c1.425-0.144,2.857-0.262,4.292-0.364
			c0.277-0.02,0.553-0.04,0.83-0.058c1.41-0.092,2.824-0.165,4.243-0.216c0.254-0.009,0.508-0.015,0.762-0.023
			c1.485-0.046,2.972-0.076,4.466-0.076c11.06-0.002,22.035,1.265,32.736,3.774c-0.043,0.835-0.061,1.669-0.067,2.503
			c-0.002,0.219-0.001,0.437,0,0.655c0.003,0.738,0.018,1.475,0.049,2.211c0.004,0.104,0.005,0.207,0.01,0.311
			c0.04,0.827,0.101,1.651,0.177,2.474c0.019,0.205,0.041,0.41,0.062,0.614c0.071,0.689,0.153,1.376,0.249,2.062
			c0.022,0.161,0.041,0.322,0.065,0.482c0.12,0.812,0.259,1.621,0.414,2.427c0.035,0.184,0.075,0.367,0.112,0.551
			c0.134,0.663,0.28,1.324,0.438,1.982c0.046,0.193,0.09,0.386,0.138,0.578c0.198,0.793,0.412,1.581,0.644,2.364
			c0.045,0.151,0.095,0.301,0.141,0.452c0.2,0.655,0.412,1.307,0.636,1.955c0.073,0.211,0.145,0.422,0.22,0.632
			c0.275,0.768,0.561,1.531,0.869,2.287c0.039,0.097,0.083,0.193,0.123,0.29c0.277,0.671,0.569,1.335,0.871,1.996
			c0.1,0.217,0.2,0.434,0.303,0.651c0.32,0.675,0.65,1.345,0.996,2.009c0.039,0.075,0.075,0.152,0.115,0.227
			c0.002,0.004,0.004,0.009,0.007,0.013c-1.378,0.206-2.777,0.311-4.186,0.311c-9.121,0-17.724-4.473-23.01-11.966
			c-1.753-2.484-4.541-4.036-7.576-4.217c-3.031-0.179-5.987,1.03-8.023,3.288c-0.821,0.911-1.506,1.656-2.172,2.323
			c-11.102,11.103-26.966,15.99-42.437,13.073c-5.085-0.954-10.063,2.122-11.474,7.102c-2.222,7.843-6.3,14.778-12.11,20.604
			c-14.016,14.018-35.49,17.735-53.314,9.572C148.727,133.576,148.735,133.559,148.745,133.542z M132.468,181.17
			c0.077-0.505,0.159-1.009,0.241-1.513c0.225-1.377,0.467-2.751,0.732-4.12c0.092-0.473,0.19-0.945,0.286-1.418
			c0.29-1.418,0.594-2.834,0.927-4.242c0.086-0.363,0.178-0.725,0.267-1.087c0.373-1.524,0.762-3.044,1.185-4.555
			c0.052-0.186,0.109-0.37,0.161-0.556c0.235-0.825,0.496-1.643,0.746-2.464c0.635-0.588,1.268-1.19,1.893-1.814
			c1.909-1.904,3.696-3.909,5.35-6.003c24.521,9.398,53.001,3.682,71.929-15.247c6.079-6.097,10.936-13.29,14.304-21.127
			c16.899,0.991,33.569-4.38,46.695-15.11c8.688,7.58,19.914,11.896,31.65,11.896c6.119,0,12.136-1.184,17.754-3.414
			c5.66,4.8,12.238,8.482,19.357,10.795c2.952,0.959,5.964,1.672,9.018,2.138c4.031,20.019,18.656,36.805,38.47,43.232
			c6.215,2.019,12.718,2.954,19.218,2.778c2.639,10.959,3.974,22.217,3.974,33.571c0,16.447-2.779,32.584-8.261,47.963
			c-0.686,1.924-0.742,3.959-0.253,5.856c-12.908,2.895-24.862,9.306-34.416,18.544c-13.295-12.87-31.251-20.294-49.987-20.294
			c-18.732,0-36.69,7.423-49.989,20.291c-13.3-12.868-31.256-20.291-49.989-20.291c-18.733,0-36.691,7.424-49.991,20.294
			c-9.553-9.24-21.509-15.652-34.421-18.546c0.489-1.894,0.432-3.927-0.252-5.848c-5.475-15.392-8.252-31.53-8.252-47.969
			C130.814,195.595,131.376,188.334,132.468,181.17z M86.962,52.566l13.165-4.76l28.95,80.055c-0.751,1.451-1.473,2.919-2.182,4.394
			c-0.045,0.093-0.09,0.186-0.135,0.279c-0.641,1.341-1.265,2.689-1.87,4.05c-0.207,0.464-0.406,0.93-0.608,1.396
			c-0.374,0.864-0.768,1.718-1.128,2.589c-0.117,0.283-0.219,0.572-0.334,0.856c-0.559,1.369-1.091,2.747-1.612,4.128
			c-0.104,0.276-0.219,0.546-0.321,0.823L86.962,52.566z M380.999,418.331H238.757c-5.523,0-10,4.478-10,10c0,5.522,4.477,10,10,10
			H375.45l-14.888,53.67H186.866l-24.915-89.814h138.638c5.523,0,10-4.477,10-10c0-5.522-4.477-10-10-10H156.403l-2.918-10.52
			c2.605,0.726,5.255,1.3,7.934,1.736c0.035,0.006,0.07,0.012,0.105,0.017c0.094,0.015,0.188,0.029,0.282,0.043
			c1.084,0.17,2.172,0.322,3.266,0.444c0.025,0.003,0.05,0.007,0.076,0.009c1.121,0.124,2.247,0.219,3.377,0.291
			c0.129,0.008,0.256,0.021,0.386,0.029c0.159,0.01,0.32,0.012,0.48,0.02c0.969,0.051,1.939,0.087,2.912,0.1
			c0.094,0.001,0.186,0.009,0.28,0.01c0.827,0.029,1.582,0.018,2.376-0.012c0.61-0.013,1.217-0.05,1.825-0.078
			c0.414-0.019,0.83-0.025,1.242-0.051c0.014-0.001,0.028-0.003,0.043-0.004c0.635-0.04,1.265-0.103,1.896-0.159
			c0.418-0.037,0.838-0.063,1.254-0.107c0.652-0.069,1.299-0.161,1.948-0.247c0.39-0.052,0.783-0.092,1.172-0.15
			c0.691-0.103,1.375-0.229,2.061-0.352c0.342-0.061,0.686-0.11,1.027-0.176c0.755-0.146,1.504-0.315,2.253-0.484
			c0.265-0.06,0.533-0.109,0.798-0.172c0.854-0.203,1.7-0.428,2.545-0.661c0.155-0.043,0.313-0.078,0.468-0.122
			c0.987-0.279,1.968-0.58,2.941-0.9c0.01-0.003,0.02-0.006,0.029-0.009c8.874-2.922,17.142-7.532,24.391-13.654
			c12.666,4.354,25.777,7.101,39.17,8.212c4.536,0.377,9.104,0.568,13.697,0.568c5.67,0,11.301-0.288,16.883-0.863
			c12.284-1.263,24.322-3.91,35.985-7.918c5.634,4.757,11.885,8.601,18.558,11.451c0.077,0.033,0.156,0.061,0.233,0.094
			c0.875,0.37,1.755,0.727,2.643,1.063c0.253,0.095,0.511,0.178,0.765,0.271c0.717,0.262,1.435,0.524,2.16,0.763
			c0.365,0.121,0.737,0.224,1.104,0.339c0.621,0.194,1.241,0.394,1.868,0.572c0.417,0.118,0.839,0.218,1.259,0.329
			c0.585,0.155,1.168,0.317,1.757,0.457c0.45,0.107,0.906,0.195,1.358,0.293c0.564,0.123,1.127,0.255,1.695,0.365
			c0.467,0.09,0.938,0.161,1.407,0.242c0.561,0.097,1.12,0.203,1.684,0.288c0.458,0.068,0.921,0.117,1.381,0.178
			c0.58,0.076,1.158,0.16,1.742,0.222c0.451,0.048,0.906,0.077,1.359,0.116c0.597,0.052,1.192,0.113,1.792,0.151
			c0.435,0.028,0.874,0.036,1.31,0.056c0.6,0.028,1.199,0.064,1.802,0.078c0.034,0.001,0.066,0,0.099,0.001c0.004,0,0.008,0,0.013,0
			c0.052,0.001,0.104,0.002,0.155,0.002h0.009c0.458,0.012,0.913,0.02,1.364,0.02c0.242,0,0.495-0.003,0.744-0.012
			c0.096-0.001,0.19-0.009,0.286-0.01c0.972-0.013,1.942-0.049,2.91-0.1c0.154-0.008,0.309-0.01,0.463-0.019
			c0.138-0.008,0.274-0.022,0.411-0.031c1.12-0.072,2.237-0.166,3.348-0.288c0.047-0.005,0.093-0.012,0.14-0.017
			c1.086-0.122,2.166-0.272,3.242-0.441c0.075-0.012,0.151-0.022,0.226-0.034c0.056-0.009,0.111-0.018,0.167-0.027
			c2.669-0.435,5.307-1.006,7.903-1.729L380.999,418.331z M385.262,353.2c-0.091,0.02-0.184,0.033-0.276,0.052
			c-0.775,0.16-1.553,0.31-2.34,0.436c-0.228,0.037-0.46,0.06-0.688,0.093c-0.628,0.093-1.257,0.185-1.893,0.255
			c-0.093,0.01-0.186,0.018-0.279,0.028c-0.297,0.031-0.597,0.049-0.896,0.076c-0.422,0.037-0.843,0.078-1.268,0.106
			c-0.192,0.012-0.384,0.026-0.576,0.036c-0.433,0.023-0.87,0.031-1.306,0.044c-0.395,0.012-0.787,0.036-1.184,0.039l-1.593-0.007
			c-0.575-0.012-1.146-0.046-1.718-0.076c-0.3-0.016-0.602-0.021-0.901-0.041c-0.531-0.036-1.057-0.095-1.585-0.147
			c-0.335-0.033-0.672-0.055-1.005-0.094c-0.483-0.057-0.961-0.134-1.441-0.204c-0.373-0.054-0.749-0.098-1.121-0.16
			c-0.423-0.07-0.842-0.16-1.262-0.241c-0.424-0.081-0.85-0.153-1.271-0.244c-0.33-0.072-0.654-0.159-0.982-0.237
			c-0.507-0.12-1.016-0.233-1.519-0.368c-0.211-0.056-0.419-0.125-0.629-0.184c-0.613-0.172-1.227-0.344-1.833-0.538
			c-0.082-0.026-0.162-0.058-0.244-0.084c-5.592-1.818-10.858-4.549-15.602-8.121c-2.062-1.553-4.026-3.263-5.876-5.125
			c-0.049-0.049-0.106-0.088-0.157-0.136c-0.252-0.243-0.514-0.471-0.787-0.683c-0.125-0.097-0.251-0.19-0.379-0.281
			c-0.254-0.18-0.515-0.346-0.782-0.5c-0.099-0.057-0.194-0.122-0.294-0.176c-0.345-0.183-0.701-0.339-1.063-0.48
			c-0.144-0.056-0.289-0.106-0.436-0.155c-0.277-0.093-0.556-0.173-0.839-0.242c-0.126-0.031-0.249-0.068-0.375-0.094
			c-0.381-0.077-0.767-0.128-1.155-0.16c-0.143-0.012-0.286-0.015-0.429-0.021c-0.134-0.006-0.268-0.02-0.403-0.02
			c-0.178,0-0.357,0.015-0.535,0.024c-0.106,0.006-0.212,0.005-0.318,0.015c-0.394,0.034-0.786,0.096-1.177,0.177
			c-0.122,0.025-0.243,0.055-0.365,0.085c-0.368,0.091-0.733,0.199-1.094,0.333c-0.039,0.015-0.079,0.021-0.118,0.036
			c-11.769,4.559-24.009,7.499-36.54,8.805c-4.964,0.522-9.97,0.79-15.014,0.79c-4.092,0-8.158-0.179-12.196-0.519
			c-13.515-1.14-26.704-4.171-39.344-9.07c-1.39-0.539-2.849-0.75-4.278-0.655c-2.382,0.159-4.68,1.169-6.43,2.931
			c-2.468,2.484-5.139,4.699-7.975,6.629c-5.6,3.81-11.846,6.504-18.444,7.967c-0.087,0.019-0.173,0.044-0.26,0.063
			c-0.621,0.135-1.249,0.247-1.876,0.359c-0.22,0.039-0.438,0.089-0.659,0.125c-0.531,0.088-1.067,0.155-1.601,0.228
			c-0.321,0.044-0.64,0.098-0.962,0.136c-0.45,0.053-0.903,0.085-1.355,0.126c-0.412,0.038-0.822,0.086-1.237,0.114
			c-0.369,0.025-0.741,0.032-1.111,0.05c-0.504,0.024-1.006,0.056-1.512,0.066l-1.595,0.007c-0.416-0.003-0.828-0.028-1.242-0.041
			c-0.418-0.013-0.837-0.02-1.253-0.043c-0.186-0.01-0.372-0.023-0.558-0.035c-0.52-0.034-1.036-0.082-1.552-0.13
			c-0.208-0.02-0.418-0.031-0.625-0.053c-0.09-0.009-0.18-0.017-0.27-0.027c-0.788-0.088-1.57-0.195-2.348-0.317
			c-0.077-0.012-0.156-0.019-0.233-0.032c-25.568-4.118-45.213-26.414-45.213-53.061c0-0.043,0.002-0.086,0.002-0.129
			c0.002-0.952,0.036-1.899,0.088-2.844c0.012-0.218,0.022-0.436,0.036-0.654c0.063-0.938,0.15-1.871,0.261-2.8
			c0.026-0.221,0.057-0.44,0.086-0.661c0.126-0.956,0.269-1.909,0.446-2.855c0.015-0.081,0.034-0.161,0.05-0.242
			c0.175-0.909,0.377-1.812,0.598-2.709c0.045-0.184,0.088-0.368,0.135-0.551c0.238-0.922,0.501-1.836,0.788-2.744
			c0.058-0.184,0.119-0.367,0.179-0.551c0.307-0.936,0.632-1.866,0.991-2.784c0.021-0.052,0.043-0.104,0.064-0.156
			c0.361-0.915,0.75-1.82,1.162-2.716c0.052-0.113,0.101-0.226,0.154-0.339c0.423-0.904,0.874-1.796,1.349-2.677
			c0.034-0.063,0.068-0.125,0.102-0.188c15.628,0.714,30.292,8.566,39.586,21.311c1.883,2.582,4.886,4.109,8.082,4.108
			c3.196-0.001,6.199-1.528,8.081-4.111c9.745-13.376,25.411-21.361,41.907-21.361c16.496,0,32.162,7.985,41.907,21.361
			c1.882,2.583,4.886,4.111,8.082,4.111c3.196,0,6.2-1.528,8.082-4.111c9.745-13.376,25.411-21.361,41.907-21.361
			c16.498,0,32.16,7.984,41.896,21.358c1.881,2.583,4.884,4.112,8.079,4.114c0.002,0,0.004,0,0.006,0
			c3.193,0,6.195-1.525,8.078-4.105c9.302-12.747,23.969-20.6,39.596-21.314c0.033,0.061,0.067,0.121,0.1,0.182
			c0.474,0.881,0.925,1.773,1.347,2.676c0.054,0.116,0.105,0.232,0.158,0.348c0.41,0.893,0.798,1.795,1.158,2.708
			c0.021,0.053,0.044,0.104,0.064,0.157c0.358,0.919,0.684,1.849,0.99,2.786c0.059,0.181,0.119,0.362,0.177,0.544
			c0.287,0.91,0.551,1.827,0.789,2.752c0.046,0.178,0.087,0.358,0.131,0.537c0.224,0.908,0.428,1.82,0.604,2.74
			c0.014,0.072,0.03,0.142,0.044,0.214c0.178,0.952,0.322,1.912,0.449,2.876c0.028,0.212,0.057,0.424,0.083,0.637
			c0.112,0.938,0.2,1.88,0.263,2.826c0.014,0.206,0.023,0.412,0.034,0.618c0.053,0.966,0.088,1.934,0.09,2.906
			c0,0.03,0.002,0.06,0.002,0.09C427.848,326.361,409.536,348.035,385.262,353.2z"/>
	</g>
</g>
<g>
	<g>
		<path d="M347.731,390.231c-0.13-0.64-0.33-1.27-0.58-1.87c-0.25-0.6-0.55-1.18-0.909-1.72c-0.37-0.55-0.79-1.059-1.25-1.52
			c-0.46-0.471-0.971-0.88-1.521-1.25c-0.54-0.36-1.12-0.67-1.72-0.92c-0.61-0.25-1.24-0.44-1.87-0.57c-1.3-0.26-2.62-0.26-3.91,0
			c-0.64,0.13-1.27,0.32-1.87,0.57c-0.609,0.25-1.189,0.56-1.73,0.92c-0.551,0.37-1.06,0.779-1.52,1.25
			c-0.46,0.46-0.88,0.97-1.24,1.52c-0.359,0.54-0.67,1.12-0.92,1.72c-0.25,0.601-0.44,1.23-0.569,1.87
			c-0.13,0.65-0.2,1.301-0.2,1.96c0,0.65,0.07,1.301,0.2,1.95c0.129,0.64,0.319,1.27,0.569,1.87c0.25,0.6,0.56,1.18,0.92,1.73
			c0.36,0.55,0.78,1.06,1.24,1.52c0.46,0.46,0.97,0.88,1.52,1.24c0.54,0.359,1.12,0.67,1.73,0.92c0.601,0.25,1.23,0.44,1.87,0.57
			c0.64,0.13,1.3,0.199,1.95,0.199c0.649,0,1.31-0.069,1.96-0.199c0.63-0.131,1.26-0.32,1.87-0.57c0.6-0.25,1.18-0.56,1.72-0.92
			c0.55-0.36,1.061-0.78,1.521-1.24c0.46-0.46,0.88-0.97,1.25-1.52c0.359-0.551,0.659-1.131,0.909-1.73s0.45-1.229,0.58-1.87
			c0.12-0.649,0.19-1.3,0.19-1.95C347.921,391.532,347.851,390.881,347.731,390.231z"/>
	</g>
</g>
<g>
	<g>
		<path d="M211.231,426.381c-0.13-0.64-0.32-1.271-0.57-1.87c-0.25-0.61-0.56-1.19-0.92-1.729c-0.37-0.551-0.79-1.061-1.25-1.521
			c-0.46-0.46-0.97-0.88-1.52-1.24c-0.54-0.359-1.12-0.67-1.72-0.92c-0.61-0.25-1.24-0.439-1.87-0.569
			c-1.29-0.261-2.62-0.261-3.91,0c-0.64,0.13-1.27,0.319-1.87,0.569c-0.61,0.25-1.19,0.561-1.73,0.92
			c-0.55,0.36-1.06,0.78-1.52,1.24c-0.46,0.46-0.88,0.97-1.24,1.521c-0.36,0.539-0.67,1.119-0.92,1.729
			c-0.25,0.6-0.44,1.23-0.57,1.87c-0.13,0.64-0.2,1.3-0.2,1.95c0,2.63,1.07,5.21,2.93,7.069c0.46,0.46,0.97,0.881,1.52,1.25
			c0.54,0.36,1.12,0.67,1.73,0.92c0.6,0.24,1.23,0.44,1.87,0.57c0.64,0.13,1.3,0.191,1.95,0.191c0.65,0,1.31-0.061,1.96-0.191
			c0.63-0.13,1.26-0.33,1.87-0.57c0.6-0.25,1.18-0.56,1.72-0.92c0.55-0.369,1.06-0.79,1.52-1.25c1.86-1.859,2.93-4.439,2.93-7.069
			C211.421,427.681,211.361,427.02,211.231,426.381z"/>
	</g>
</g>
<g>
</g>
<g>
</g>
<g>
</g>
<g>
</g>
<g>
</g>
<g>
</g>
<g>
</g>
<g>
</g>
<g>
</g>
<g>
</g>
<g>
</g>
<g>
</g>
<g>
</g>
<g>
</g>
<g>
</g>
</svg>
