<?xml version="1.0" encoding="iso-8859-1"?>
<!-- Generator: Adobe Illustrator 19.0.0, SVG Export Plug-In . SVG Version: 6.00 Build 0)  -->
<svg version="1.1" id="Capa_1" xmlns="http://www.w3.org/2000/svg" xmlns:xlink="http://www.w3.org/1999/xlink" x="0px" y="0px"
	 viewBox="0 0 511.999 511.999" style="enable-background:new 0 0 511.999 511.999;" xml:space="preserve">
<g>
	<g>
		<path d="M452.556,235.143c-0.002-0.002-0.004-0.003-0.006-0.005c-7.448-7.447-16.905-12.162-27.152-13.639
			c5.992-8.045,9.541-18.01,9.541-28.79c0-12.898-5.021-25.023-14.144-34.146c-9.128-9.114-21.251-14.134-34.136-14.134h-98.226
			v-50.88c8.553-8.406,13.871-20.095,13.871-33.007c0-23.52-33.216-52.608-39.874-58.2c-3.719-3.123-9.145-3.123-12.863,0
			c-6.658,5.592-39.874,34.681-39.874,58.2c0,12.912,5.318,24.601,13.871,33.007v50.879H130.61h-5.271
			c-26.621,0-48.279,21.658-48.279,48.28c0,10.52,3.336,20.523,9.508,28.801c-23.307,3.414-41.258,23.539-41.258,47.779
			c0,12.885,5.019,25.009,14.143,34.147c0.199,0.199,0.413,0.395,0.619,0.594l66.379,201.105c1.352,4.098,5.181,6.865,9.496,6.865
			h78.244h83.617h78.244c4.315,0,8.144-2.768,9.496-6.865l66.38-201.106c9.412-9.088,14.761-21.587,14.761-34.739
			C466.689,256.397,461.669,244.269,452.556,235.143z M256,23.415c12.307,11.638,26.306,28.269,26.306,37.127
			c0,8.448-4.008,15.974-10.217,20.79c-0.498,0.386-1.006,0.755-1.525,1.102c-0.118,0.079-0.239,0.153-0.358,0.23
			c-0.442,0.286-0.892,0.556-1.347,0.814c-0.194,0.109-0.389,0.216-0.585,0.321c-0.411,0.218-0.827,0.422-1.248,0.618
			c-0.232,0.107-0.464,0.216-0.699,0.316c-0.464,0.199-0.933,0.384-1.407,0.555c-0.255,0.092-0.512,0.177-0.771,0.261
			c-0.392,0.128-0.786,0.246-1.184,0.355c-0.292,0.08-0.586,0.155-0.881,0.225c-0.436,0.103-0.874,0.196-1.316,0.277
			c-0.198,0.036-0.395,0.074-0.594,0.106c-0.585,0.093-1.174,0.167-1.768,0.22c-0.151,0.014-0.303,0.023-0.455,0.035
			c-0.647,0.047-1.297,0.08-1.952,0.08c-0.656,0-1.305-0.033-1.952-0.08c-0.152-0.011-0.304-0.021-0.455-0.035
			c-0.594-0.053-1.183-0.127-1.768-0.22c-0.199-0.032-0.396-0.07-0.594-0.106c-0.442-0.081-0.88-0.174-1.316-0.277
			c-0.295-0.07-0.589-0.145-0.88-0.225c-0.398-0.109-0.793-0.227-1.184-0.355c-0.258-0.084-0.516-0.169-0.77-0.261
			c-0.474-0.171-0.944-0.356-1.408-0.555c-0.235-0.101-0.466-0.209-0.698-0.316c-0.421-0.196-0.838-0.4-1.249-0.618
			c-0.197-0.104-0.391-0.212-0.585-0.321c-0.456-0.258-0.906-0.528-1.348-0.814c-0.119-0.076-0.239-0.15-0.357-0.229
			c-0.519-0.347-1.027-0.716-1.525-1.103c-6.209-4.816-10.217-12.342-10.217-20.79C229.694,51.684,243.694,35.05,256,23.415z
			 M243.566,105.168c0.235,0.065,0.475,0.11,0.711,0.172c0.292,0.076,0.588,0.142,0.882,0.213c0.838,0.201,1.681,0.379,2.532,0.533
			c0.509,0.093,1.019,0.185,1.534,0.261c0.396,0.058,0.794,0.105,1.192,0.152c0.589,0.071,1.18,0.13,1.775,0.179
			c0.329,0.026,0.657,0.056,0.987,0.075c0.934,0.056,1.873,0.094,2.821,0.094s1.887-0.038,2.821-0.094
			c0.33-0.02,0.658-0.049,0.987-0.075c0.595-0.049,1.187-0.108,1.775-0.179c0.398-0.047,0.797-0.094,1.192-0.152
			c0.515-0.076,1.024-0.168,1.534-0.261c0.851-0.154,1.694-0.332,2.532-0.533c0.294-0.071,0.59-0.136,0.882-0.213
			c0.236-0.062,0.477-0.106,0.712-0.172v39.26H245.51h-1.944V105.168z M140.609,164.428h92.956h1.944v21.681
			c0,10.934-8.9,19.829-19.84,19.829c-6.923,0-13.235-3.521-16.886-9.421c-2.353-3.801-6.942-5.58-11.239-4.357
			c-4.299,1.222-7.265,5.148-7.265,9.618v33.6c0,10.939-8.895,19.84-19.83,19.84c-10.939,0-19.84-8.9-19.84-19.84V164.428z
			 M120.61,164.832v55.767c-5.756-0.964-11.061-3.674-15.27-7.882c-5.34-5.339-8.28-12.445-8.28-20.009
			C97.06,178.727,107.262,167.09,120.61,164.832z M178.504,491.999l-24.468-110.031c-1.198-5.391-6.537-8.784-11.933-7.591
			c-5.391,1.199-8.789,6.541-7.591,11.933l23.503,105.689h-14.839L80.866,303.22h103.088l16.578,163.256l2.592,25.523H178.504z
			 M305.35,328.743l-16.578,163.256H266v-149.56c0-5.522-4.478-10-10-10c-5.522,0-10,4.478-10,10v149.56h-22.772l-16.579-163.256
			l-2.592-25.522h103.885L305.35,328.743z M368.823,491.999h-14.839l23.503-105.689c1.198-5.392-2.2-10.733-7.591-11.933
			c-5.389-1.196-10.733,2.199-11.933,7.591l-24.468,110.031h-24.62l2.592-25.522l16.578-163.256h103.088L368.823,491.999z
			 M443.019,283.22H319.01H192.99H68.967c-2.387-4.205-3.656-8.972-3.656-13.932c-0.001-15.599,12.69-28.289,28.288-28.289h27.415
			c2.74,19.315,19.376,34.22,39.436,34.22c21.962,0,39.83-17.872,39.83-39.84v-12.5c4.784,1.994,9.994,3.059,15.39,3.059
			c21.968,0,39.84-17.867,39.84-39.829v-21.681h22.925H386.66c7.548,0,14.652,2.943,19.999,8.28c5.34,5.341,8.28,12.443,8.28,20
			c0,15.6-12.687,28.29-28.279,28.29c-5.523,0-10,4.477-10,10c0,5.522,4.477,10,10,10h31.74c7.56,0,14.663,2.939,20.004,8.276
			c5.343,5.35,8.285,12.458,8.285,20.014C446.689,274.229,445.4,279.017,443.019,283.22z"/>
	</g>
</g>
<g>
	<g>
		<path d="M384.899,349.558c-0.13-0.64-0.319-1.27-0.569-1.87c-0.25-0.6-0.561-1.18-0.92-1.729c-0.36-0.54-0.78-1.061-1.24-1.521
			c-0.46-0.46-0.97-0.88-1.521-1.239c-0.54-0.36-1.13-0.67-1.729-0.92c-0.601-0.25-1.23-0.44-1.87-0.57c-1.29-0.26-2.62-0.26-3.91,0
			c-0.63,0.13-1.26,0.32-1.87,0.57c-0.6,0.25-1.18,0.56-1.72,0.92c-0.55,0.359-1.06,0.779-1.52,1.239
			c-0.461,0.46-0.881,0.98-1.25,1.521c-0.36,0.55-0.671,1.13-0.921,1.729c-0.25,0.6-0.439,1.23-0.569,1.87
			c-0.13,0.65-0.19,1.3-0.19,1.96c0,0.65,0.061,1.3,0.19,1.95c0.13,0.64,0.319,1.271,0.569,1.87c0.25,0.6,0.561,1.18,0.921,1.72
			c0.369,0.55,0.789,1.061,1.25,1.521c0.46,0.47,0.97,0.88,1.52,1.25c0.54,0.359,1.12,0.67,1.72,0.92
			c0.61,0.25,1.24,0.44,1.87,0.569c0.65,0.131,1.311,0.2,1.96,0.2c2.63,0,5.21-1.069,7.07-2.939c0.46-0.46,0.88-0.971,1.24-1.521
			c0.359-0.54,0.67-1.12,0.92-1.72c0.25-0.6,0.439-1.23,0.569-1.87c0.131-0.65,0.2-1.3,0.2-1.95
			C385.099,350.858,385.03,350.209,384.899,349.558z"/>
	</g>
</g>
<g>
	<g>
		<path d="M146.709,349.558c-0.129-0.64-0.32-1.269-0.579-1.87c-0.25-0.6-0.561-1.18-0.92-1.729c-0.36-0.54-0.78-1.061-1.24-1.521
			c-0.46-0.46-0.97-0.88-1.52-1.239c-0.54-0.36-1.12-0.67-1.721-0.92c-0.609-0.25-1.239-0.44-1.87-0.57
			c-1.3-0.26-2.619-0.26-3.909,0c-0.641,0.13-1.271,0.32-1.87,0.57c-0.61,0.25-1.191,0.56-1.73,0.92
			c-0.55,0.359-1.06,0.779-1.52,1.239s-0.88,0.98-1.24,1.521c-0.36,0.55-0.67,1.13-0.92,1.729c-0.25,0.6-0.44,1.23-0.57,1.87
			c-0.13,0.65-0.2,1.3-0.2,1.96c0,0.65,0.07,1.3,0.2,1.95c0.13,0.64,0.32,1.27,0.57,1.87c0.25,0.6,0.56,1.18,0.92,1.72
			c0.36,0.55,0.78,1.061,1.24,1.521c0.46,0.47,0.97,0.88,1.52,1.25c0.54,0.359,1.12,0.67,1.73,0.92c0.6,0.25,1.229,0.44,1.87,0.569
			c0.64,0.131,1.3,0.2,1.949,0.2c2.631,0,5.21-1.069,7.07-2.939c0.46-0.46,0.88-0.971,1.24-1.521c0.359-0.54,0.67-1.12,0.92-1.72
			c0.26-0.6,0.45-1.23,0.58-1.87c0.13-0.65,0.189-1.3,0.189-1.95C146.898,350.858,146.838,350.209,146.709,349.558z"/>
	</g>
</g>
<g>
</g>
<g>
</g>
<g>
</g>
<g>
</g>
<g>
</g>
<g>
</g>
<g>
</g>
<g>
</g>
<g>
</g>
<g>
</g>
<g>
</g>
<g>
</g>
<g>
</g>
<g>
</g>
<g>
</g>
</svg>
