<?xml version="1.0" encoding="iso-8859-1"?>
<!-- Generator: Adobe Illustrator 19.0.0, SVG Export Plug-In . SVG Version: 6.00 Build 0)  -->
<svg version="1.1" id="Capa_1" xmlns="http://www.w3.org/2000/svg" xmlns:xlink="http://www.w3.org/1999/xlink" x="0px" y="0px"
	 viewBox="0 0 512 512" style="enable-background:new 0 0 512 512;" xml:space="preserve">
<g>
	<g>
		<path d="M357.53,222.011c-0.13-0.64-0.32-1.26-0.57-1.87c-0.25-0.6-0.56-1.18-0.92-1.72c-0.36-0.55-0.78-1.06-1.24-1.52
			c-0.46-0.46-0.97-0.88-1.52-1.25c-0.54-0.36-1.12-0.67-1.73-0.92c-0.6-0.25-1.23-0.44-1.87-0.57c-1.29-0.26-2.62-0.26-3.91,0
			c-0.63,0.13-1.26,0.32-1.87,0.57c-0.6,0.25-1.18,0.56-1.72,0.92c-0.55,0.37-1.06,0.79-1.52,1.25c-1.86,1.86-2.93,4.43-2.93,7.07
			c0,2.63,1.07,5.21,2.93,7.07c0.46,0.46,0.97,0.879,1.52,1.24c0.54,0.36,1.12,0.67,1.72,0.92c0.61,0.25,1.24,0.44,1.87,0.57
			c0.65,0.13,1.31,0.2,1.96,0.2c0.65,0,1.31-0.07,1.95-0.2s1.27-0.32,1.87-0.57c0.61-0.25,1.19-0.56,1.73-0.92
			c0.55-0.36,1.06-0.78,1.52-1.24c0.46-0.46,0.88-0.97,1.24-1.52c0.36-0.54,0.67-1.12,0.92-1.73c0.25-0.6,0.44-1.23,0.57-1.87
			c0.13-0.64,0.2-1.3,0.2-1.95C357.73,223.321,357.66,222.661,357.53,222.011z"/>
	</g>
</g>
<g>
	<g>
		<path d="M174.08,257.781c-0.13-0.64-0.32-1.27-0.57-1.87c-0.25-0.6-0.56-1.18-0.92-1.72c-0.37-0.55-0.79-1.06-1.25-1.53
			c-0.46-0.46-0.97-0.87-1.52-1.24c-0.54-0.36-1.12-0.67-1.72-0.92c-0.61-0.25-1.24-0.44-1.87-0.57c-1.29-0.26-2.62-0.26-3.91,0
			c-0.64,0.13-1.27,0.32-1.87,0.57c-0.61,0.25-1.19,0.56-1.73,0.92c-0.55,0.37-1.06,0.78-1.52,1.24c-0.46,0.47-0.88,0.98-1.24,1.53
			c-0.36,0.54-0.67,1.12-0.92,1.72c-0.25,0.61-0.44,1.23-0.57,1.87c-0.13,0.65-0.2,1.3-0.2,1.96c0,0.65,0.07,1.31,0.2,1.95
			c0.13,0.64,0.32,1.27,0.57,1.87c0.25,0.6,0.56,1.19,0.92,1.73c0.36,0.55,0.78,1.06,1.24,1.52c0.46,0.46,0.97,0.88,1.52,1.24
			c0.54,0.36,1.12,0.67,1.73,0.92c0.6,0.25,1.23,0.44,1.87,0.57s1.3,0.2,1.95,0.2c0.65,0,1.31-0.07,1.96-0.2
			c0.63-0.13,1.26-0.32,1.87-0.57c0.6-0.25,1.18-0.56,1.72-0.92c0.55-0.36,1.06-0.78,1.52-1.24c0.46-0.46,0.88-0.97,1.25-1.52
			c0.36-0.54,0.67-1.13,0.92-1.73c0.25-0.6,0.44-1.23,0.57-1.87s0.19-1.3,0.19-1.95C174.27,259.081,174.21,258.431,174.08,257.781z"
			/>
	</g>
</g>
<g>
	<g>
		<path d="M502,393.966h-39.48l-7.969-41.131l-31.648-163.334l-7.772-40.113c-4.043-20.87-22.408-36.018-43.667-36.018h-7.999
			c9.858-20.745,5.467-46.519,5.232-47.838c-0.735-4.126-3.965-7.357-8.092-8.092c-1.556-0.276-37.106-6.339-58.327,12.001
			c-5.51-3.173-11.89-4.998-18.692-4.998c-10.821,0-20.583,4.603-27.448,11.947c-6.877-7.516-16.759-12.238-27.725-12.238
			c-6.888,0-13.343,1.871-18.9,5.118c-21.244-18.125-56.567-12.106-58.118-11.83c-4.126,0.735-7.357,3.965-8.092,8.092
			c-0.235,1.319-4.626,27.093,5.232,47.838h-7.999c-21.258,0-39.623,15.148-43.667,36.018l-7.772,40.113l-5.551,28.649
			c-1.177,1.64-1.877,3.645-1.877,5.818c0,0.815,0.108,1.603,0.292,2.362L57.449,352.835l-7.969,41.131H10c-5.523,0-10,4.477-10,10
			v41.772c0,5.523,4.477,10,10,10h492c5.523,0,10-4.477,10-10v-41.772C512,398.443,507.523,393.966,502,393.966z M349.782,76.355
			c0.581,10.612-0.585,26.887-9.29,35.592c-0.49,0.491-1.014,0.966-1.569,1.424h-19.492c0.018-0.058,0.03-0.117,0.048-0.175
			c0.227-0.729,0.425-1.472,0.608-2.219c0.062-0.254,0.12-0.508,0.177-0.763c0.164-0.735,0.311-1.475,0.431-2.225
			c0.012-0.076,0.029-0.15,0.041-0.226c0.127-0.827,0.217-1.666,0.289-2.51c0.018-0.213,0.034-0.425,0.049-0.639
			c0.059-0.855,0.099-1.715,0.099-2.585c0-0.743-0.028-1.479-0.07-2.211c-0.014-0.235-0.036-0.469-0.054-0.703
			c-0.039-0.501-0.085-1-0.143-1.495c-0.032-0.271-0.066-0.541-0.103-0.81c-0.066-0.47-0.142-0.936-0.225-1.4
			c-0.047-0.264-0.089-0.528-0.141-0.791c-0.127-0.63-0.268-1.254-0.425-1.872c-0.087-0.341-0.188-0.677-0.284-1.015
			c-0.103-0.361-0.205-0.723-0.319-1.08c-0.118-0.373-0.247-0.742-0.377-1.111c-0.097-0.275-0.197-0.548-0.3-0.82
			c-0.151-0.398-0.305-0.795-0.469-1.187c-0.08-0.191-0.167-0.378-0.25-0.567c-0.41-0.935-0.854-1.856-1.34-2.756
			c-0.016-0.03-0.031-0.061-0.047-0.092c-0.074-0.137-0.139-0.278-0.215-0.414C325.453,76.765,340.016,75.819,349.782,76.355z
			 M283.586,84.442c5.227,0,9.915,2.305,13.139,5.938c0.177,0.199,0.358,0.395,0.525,0.601c0.201,0.248,0.387,0.509,0.575,0.768
			c0.14,0.193,0.285,0.382,0.416,0.58c0.191,0.288,0.365,0.587,0.539,0.886c0.108,0.184,0.222,0.366,0.322,0.554
			c0.17,0.317,0.32,0.646,0.47,0.975c0.084,0.184,0.176,0.366,0.254,0.553c0.139,0.335,0.257,0.681,0.376,1.026
			c0.066,0.193,0.142,0.383,0.202,0.579c0.106,0.348,0.189,0.705,0.274,1.061c0.048,0.202,0.107,0.4,0.148,0.604
			c0.076,0.377,0.125,0.763,0.176,1.149c0.025,0.188,0.063,0.374,0.082,0.564c0.057,0.576,0.089,1.158,0.089,1.749
			c0,0.634-0.038,1.262-0.104,1.884c-0.022,0.207-0.065,0.408-0.094,0.613c-0.058,0.408-0.118,0.815-0.204,1.215
			c-0.055,0.256-0.129,0.505-0.195,0.757c-0.088,0.335-0.177,0.67-0.284,0.998c-0.092,0.281-0.198,0.555-0.304,0.829
			c-0.109,0.284-0.221,0.567-0.345,0.844c-0.13,0.291-0.27,0.577-0.415,0.86c-0.126,0.245-0.258,0.487-0.395,0.727
			c-0.167,0.291-0.339,0.578-0.522,0.858c-0.142,0.218-0.295,0.43-0.447,0.642c-0.2,0.278-0.4,0.557-0.615,0.822
			c-0.165,0.204-0.345,0.398-0.52,0.595c-0.225,0.254-0.445,0.512-0.684,0.752c-0.23,0.231-0.48,0.444-0.724,0.664
			c-1.433,1.289-3.066,2.359-4.864,3.125c-0.03,0.013-0.061,0.025-0.092,0.037c-0.475,0.199-0.96,0.376-1.455,0.534
			c-0.071,0.022-0.142,0.044-0.213,0.066c-0.451,0.137-0.91,0.254-1.375,0.354c-0.108,0.023-0.216,0.049-0.324,0.07
			c-0.437,0.086-0.882,0.15-1.331,0.204c-0.127,0.015-0.252,0.036-0.379,0.048c-0.56,0.054-1.127,0.086-1.701,0.086
			c-0.574,0-1.141-0.032-1.701-0.086c-0.127-0.012-0.252-0.034-0.379-0.048c-0.449-0.053-0.894-0.118-1.332-0.204
			c-0.108-0.021-0.215-0.047-0.323-0.07c-0.466-0.101-0.926-0.218-1.377-0.355c-0.07-0.021-0.141-0.043-0.211-0.065
			c-0.495-0.158-0.982-0.335-1.458-0.535c-0.03-0.012-0.06-0.024-0.09-0.036c-6.293-2.681-10.716-8.926-10.716-16.187
			C266,92.332,273.889,84.442,283.586,84.442z M210.914,99.995c0.02-0.2,0.059-0.396,0.085-0.595
			c0.05-0.371,0.097-0.744,0.169-1.107c0.044-0.221,0.106-0.437,0.159-0.656c0.08-0.335,0.158-0.672,0.258-1
			c0.066-0.217,0.148-0.429,0.222-0.644c0.111-0.321,0.221-0.642,0.35-0.954c0.086-0.209,0.187-0.412,0.282-0.618
			c0.14-0.305,0.28-0.611,0.437-0.906c0.109-0.206,0.232-0.405,0.349-0.606c0.164-0.281,0.327-0.562,0.506-0.832
			c0.138-0.208,0.288-0.409,0.434-0.612c0.179-0.248,0.358-0.497,0.55-0.735c0.169-0.209,0.35-0.41,0.529-0.613
			c3.225-3.65,7.925-5.968,13.167-5.968c9.7,0.002,17.589,7.892,17.589,17.588c0,5.956-2.983,11.22-7.526,14.403
			c-0.093,0.065-0.182,0.137-0.276,0.201c-0.91,0.612-1.881,1.141-2.901,1.576c-0.058,0.025-0.118,0.046-0.176,0.07
			c-0.443,0.184-0.895,0.349-1.355,0.497c-0.107,0.034-0.215,0.065-0.323,0.097c-0.414,0.124-0.834,0.231-1.26,0.325
			c-0.138,0.03-0.276,0.061-0.415,0.088c-0.411,0.08-0.828,0.141-1.248,0.191c-0.144,0.017-0.286,0.04-0.43,0.054
			c-0.553,0.053-1.111,0.085-1.677,0.085c-0.566,0-1.125-0.032-1.677-0.085c-0.144-0.013-0.286-0.037-0.43-0.054
			c-0.421-0.05-0.838-0.111-1.249-0.191c-0.139-0.027-0.276-0.058-0.414-0.088c-0.426-0.093-0.847-0.201-1.26-0.325
			c-0.107-0.032-0.215-0.063-0.322-0.097c-0.461-0.148-0.913-0.314-1.357-0.498c-0.057-0.024-0.116-0.044-0.174-0.069
			c-1.02-0.436-1.99-0.965-2.901-1.577c-0.094-0.063-0.183-0.135-0.276-0.2c-0.355-0.249-0.705-0.505-1.04-0.778
			c-0.061-0.05-0.121-0.102-0.182-0.152c-0.827-0.694-1.594-1.458-2.282-2.291c-0.001-0.001-0.002-0.002-0.002-0.003
			c-1.424-1.725-2.523-3.725-3.21-5.907c-0.009-0.028-0.018-0.056-0.027-0.084c-0.158-0.51-0.291-1.031-0.402-1.56
			c-0.014-0.066-0.026-0.132-0.04-0.198c-0.103-0.517-0.184-1.041-0.241-1.573c-0.007-0.063-0.01-0.126-0.016-0.189
			c-0.052-0.55-0.085-1.106-0.085-1.67C210.826,101.148,210.858,100.568,210.914,99.995z M162.216,76.355
			c9.727-0.535,24.21,0.402,33.262,7.264c-0.534,0.967-1.007,1.964-1.452,2.972c-0.114,0.259-0.23,0.517-0.338,0.78
			c-0.148,0.357-0.289,0.717-0.426,1.079c-0.119,0.314-0.232,0.631-0.343,0.949c-0.115,0.331-0.232,0.662-0.338,0.997
			c-0.146,0.46-0.278,0.927-0.407,1.395c-0.084,0.307-0.167,0.614-0.244,0.923c-0.138,0.558-0.266,1.121-0.379,1.688
			c-0.05,0.252-0.091,0.506-0.136,0.759c-0.083,0.469-0.159,0.939-0.225,1.414c-0.036,0.261-0.069,0.522-0.1,0.784
			c-0.058,0.497-0.104,0.997-0.142,1.499c-0.017,0.229-0.039,0.457-0.052,0.686c-0.042,0.727-0.069,1.457-0.069,2.194
			c0,0.59,0.018,1.176,0.045,1.761c0.008,0.166,0.019,0.331,0.029,0.496c0.026,0.44,0.059,0.879,0.1,1.316
			c0.015,0.155,0.029,0.31,0.046,0.464c0.058,0.545,0.126,1.088,0.207,1.627c0.003,0.022,0.006,0.044,0.009,0.066
			c0.307,2.014,0.771,3.987,1.392,5.903h-19.579c-0.553-0.459-1.077-0.934-1.568-1.425C162.8,103.239,161.636,86.957,162.216,76.355
			z M116.504,153.193c2.226-11.486,12.332-19.823,24.032-19.823h29.287h38.304c0.109,0.07,0.224,0.128,0.333,0.197
			c1.382,0.869,2.824,1.65,4.319,2.337c0.036,0.016,0.071,0.032,0.107,0.048c3.181,1.449,6.594,2.471,10.172,2.983
			c0.004,0.001,0.007,0.001,0.01,0.001c0.785,0.112,1.578,0.196,2.377,0.258c0.17,0.014,0.34,0.027,0.51,0.039
			c0.814,0.053,1.632,0.089,2.459,0.089c0.827,0,1.645-0.036,2.459-0.089c0.17-0.011,0.34-0.025,0.51-0.039
			c0.799-0.063,1.592-0.146,2.377-0.258c0.004-0.001,0.007-0.001,0.011-0.001c3.577-0.513,6.99-1.534,10.17-2.983
			c0.037-0.017,0.073-0.033,0.11-0.05c1.493-0.686,2.933-1.466,4.314-2.334c0.111-0.069,0.227-0.129,0.337-0.199h14.141
			c0.195,0.129,0.401,0.24,0.599,0.365c0.427,0.272,0.86,0.536,1.299,0.792c0.232,0.134,0.461,0.271,0.695,0.4
			c0.689,0.382,1.391,0.743,2.105,1.081c0.092,0.043,0.185,0.083,0.277,0.126c0.73,0.339,1.473,0.654,2.227,0.946
			c0.054,0.021,0.108,0.043,0.162,0.064c1.652,0.632,3.359,1.147,5.112,1.542c0.041,0.009,0.081,0.019,0.122,0.028
			c1.661,0.369,3.364,0.625,5.099,0.765c0.18,0.015,0.36,0.029,0.541,0.041c0.829,0.055,1.663,0.093,2.506,0.093
			s1.677-0.038,2.506-0.093c0.181-0.012,0.361-0.026,0.541-0.041c1.736-0.14,3.438-0.397,5.099-0.765
			c0.04-0.009,0.08-0.019,0.12-0.028c1.754-0.395,3.462-0.911,5.115-1.543c0.053-0.02,0.104-0.042,0.157-0.062
			c0.757-0.293,1.502-0.61,2.235-0.95c0.09-0.042,0.181-0.081,0.271-0.123c0.716-0.34,1.419-0.701,2.11-1.084
			c0.232-0.128,0.459-0.263,0.688-0.396c0.355-0.207,0.708-0.418,1.056-0.636c0.065-0.04,0.135-0.067,0.199-0.108l0.109-0.07
			l-0.008-0.013c0.18-0.114,0.368-0.215,0.546-0.333h37.847h29.287c11.699,0,21.806,8.336,24.032,19.823l5.466,28.211H111.038
			L116.504,153.193z M100.853,233.967h209.542c5.523,0,10-4.477,10-10s-4.477-10-10-10H104.729l2.435-12.564h297.674l9.365,48.334
			H201.605c-5.523,0-10,4.477-10,10s4.477,10,10,10h216.473l14.532,75H79.39L100.853,233.967z M75.515,364.737h360.97l5.663,29.228
			H69.852L75.515,364.737z M492,435.737H20v-21.772h37.729h396.543H492V435.737z"/>
	</g>
</g>
<g>
</g>
<g>
</g>
<g>
</g>
<g>
</g>
<g>
</g>
<g>
</g>
<g>
</g>
<g>
</g>
<g>
</g>
<g>
</g>
<g>
</g>
<g>
</g>
<g>
</g>
<g>
</g>
<g>
</g>
</svg>
