<?xml version="1.0" encoding="iso-8859-1"?>
<!-- Generator: Adobe Illustrator 19.0.0, SVG Export Plug-In . SVG Version: 6.00 Build 0)  -->
<svg version="1.1" id="Capa_1" xmlns="http://www.w3.org/2000/svg" xmlns:xlink="http://www.w3.org/1999/xlink" x="0px" y="0px"
	 viewBox="0 0 511.998 511.998" style="enable-background:new 0 0 511.998 511.998;" xml:space="preserve">
<g>
	<g>
		<path d="M501.998,365.949h-15.113c17.434-20.895,14.272-53.793,13.083-62.375c7.922-17.767,11.941-36.71,11.941-56.379v-24.934
			c0-76.509-62.245-138.754-138.754-138.754H138.843c-76.509,0-138.754,62.245-138.754,138.754v24.934
			c0,50.291,26.895,94.416,67.056,118.754H10c-5.523,0-10,4.478-10,10v42.541c0,5.522,4.477,10,10,10h491.998
			c5.523,0,10-4.478,10-10v-42.541C511.998,370.427,507.521,365.949,501.998,365.949z M20.088,247.196v-24.934
			c0-65.481,53.273-118.754,118.754-118.754h234.313c65.481,0,118.754,53.273,118.754,118.754v24.934
			c0,15.733-2.997,30.92-8.917,45.241c-6.376-0.483-15.513-0.646-25.196,0.899c7.517-13.861,11.631-29.538,11.631-45.622v-25.97
			c0-52.799-42.955-95.754-95.755-95.754H138.325c-52.799,0-95.754,42.955-95.754,95.754v25.971
			c0,52.799,42.955,95.754,95.754,95.754H270.95c0,0,0.001,0.003,0.001,0.004c0.012,0.047,0.026,0.095,0.039,0.142
			c0.213,0.799,0.441,1.597,0.683,2.393c0.019,0.063,0.036,0.125,0.056,0.188c0.244,0.796,0.506,1.591,0.78,2.382
			c0.032,0.091,0.062,0.183,0.094,0.274c0.271,0.771,0.56,1.539,0.861,2.304c0.043,0.108,0.084,0.217,0.127,0.325
			c0.301,0.75,0.618,1.495,0.95,2.236c0.053,0.12,0.106,0.239,0.16,0.359c0.333,0.732,0.683,1.457,1.048,2.177
			c0.062,0.122,0.124,0.245,0.187,0.367c0.369,0.716,0.755,1.425,1.158,2.128c0.068,0.119,0.137,0.238,0.206,0.357
			c0.409,0.702,0.835,1.396,1.279,2.081c0.073,0.112,0.146,0.224,0.22,0.335c0.453,0.688,0.924,1.368,1.414,2.038
			c0.073,0.099,0.147,0.198,0.221,0.297c0.504,0.677,1.025,1.345,1.569,1.999c0.025,0.031,0.048,0.063,0.074,0.094H138.843
			C73.361,365.949,20.088,312.677,20.088,247.196z M427.373,365.75c-0.031-0.46-0.06-0.936-0.087-1.429
			c0.931-1.262,1.798-2.564,2.61-3.896c0.076-0.125,0.149-0.252,0.224-0.378c0.322-0.537,0.634-1.079,0.937-1.627
			c0.131-0.237,0.259-0.475,0.387-0.714c0.233-0.438,0.459-0.88,0.679-1.324c0.15-0.301,0.301-0.601,0.445-0.905
			c0.178-0.376,0.345-0.756,0.514-1.136c0.391-0.876,0.76-1.763,1.104-2.663c0.04-0.105,0.085-0.209,0.124-0.315
			c0.183-0.489,0.352-0.985,0.521-1.481c0.078-0.23,0.159-0.459,0.234-0.69c0.16-0.492,0.311-0.987,0.457-1.485
			c0.07-0.237,0.137-0.476,0.203-0.714c0.14-0.503,0.276-1.007,0.402-1.515c0.055-0.221,0.102-0.445,0.154-0.667
			c0.219-0.94,0.413-1.89,0.581-2.849c0.047-0.267,0.101-0.534,0.144-0.802c0.063-0.399,0.115-0.801,0.169-1.202
			c0.057-0.419,0.113-0.838,0.16-1.259c0.04-0.36,0.076-0.72,0.109-1.082c0.047-0.507,0.084-1.015,0.116-1.524
			c0.018-0.294,0.04-0.587,0.053-0.882c0.038-0.817,0.062-1.635,0.062-2.455c0-0.823-0.025-1.645-0.063-2.466
			c-0.012-0.258-0.03-0.515-0.045-0.772c-0.035-0.575-0.078-1.149-0.131-1.722c-0.025-0.273-0.051-0.547-0.08-0.819
			c-0.069-0.633-0.15-1.263-0.241-1.892c-0.025-0.174-0.045-0.35-0.072-0.524c-0.007-0.046-0.012-0.093-0.019-0.14
			c0.033-0.038,0.065-0.077,0.098-0.115c0.351-0.396,0.708-0.781,1.074-1.148c0.602-0.602,1.241-1.164,1.9-1.706
			c0.1-0.082,0.198-0.167,0.299-0.249c0.634-0.507,1.294-0.985,1.974-1.44c0.132-0.088,0.265-0.176,0.399-0.262
			c0.691-0.448,1.4-0.875,2.131-1.274c0.099-0.054,0.201-0.105,0.301-0.158c0.756-0.403,1.527-0.786,2.318-1.141
			c0.027-0.012,0.052-0.025,0.079-0.037c0.825-0.367,1.669-0.705,2.525-1.022c0.092-0.034,0.183-0.069,0.276-0.103
			c0.86-0.313,1.733-0.603,2.617-0.869c0.051-0.015,0.102-0.03,0.153-0.045c7.418-2.209,15.531-2.831,22.369-2.75
			c0.192,0.003,0.386,0.004,0.577,0.007c0.601,0.011,1.186,0.029,1.765,0.05c0.995,0.038,1.965,0.091,2.908,0.155
			c0.817,12.236-0.319,32.04-10.856,42.577c-8.538,8.538-23.161,10.9-34.907,11.058h-1.922v0
			C431.073,365.936,429.138,365.867,427.373,365.75z M406.535,284.315c12.538-11.537,20.412-28.069,20.412-46.409v-6.354
			c0-34.783-28.298-63.081-63.081-63.081h-27.199c-5.522,0-10,4.477-10,10c0,5.522,4.478,10,10,10h27.199
			c23.755,0,43.081,19.326,43.081,43.081v6.354c0,23.755-19.326,43.08-43.081,43.08H148.133c-23.755,0-43.081-19.325-43.081-43.08
			v-6.354c0-23.755,19.326-43.081,43.081-43.081h109.369c5.523,0,10-4.478,10-10c0-5.523-4.477-10-10-10H148.133
			c-34.783,0-63.081,28.298-63.081,63.081v6.354c0,34.782,28.298,63.08,63.081,63.08h121.3c-0.042,0.18-0.086,0.359-0.118,0.542
			c-0.009,0.052-0.025,0.141-0.045,0.259c-0.001,0.006-0.001,0.008-0.002,0.014c-0.019,0.113-0.043,0.258-0.069,0.427
			c-0.004,0.025-0.007,0.044-0.011,0.07c-0.027,0.172-0.058,0.373-0.09,0.595c-0.005,0.032-0.009,0.06-0.014,0.094
			c-0.033,0.224-0.068,0.473-0.105,0.743c-0.007,0.052-0.014,0.102-0.021,0.156c-0.037,0.272-0.075,0.566-0.114,0.879
			c-0.008,0.063-0.016,0.124-0.023,0.188c-0.039,0.321-0.079,0.661-0.12,1.021c-0.008,0.075-0.017,0.149-0.025,0.226
			c-0.04,0.366-0.081,0.75-0.12,1.153c-0.008,0.082-0.016,0.164-0.024,0.247c-0.04,0.412-0.079,0.84-0.117,1.287
			c-0.007,0.087-0.014,0.175-0.022,0.262c-0.038,0.457-0.075,0.928-0.109,1.418c-0.006,0.088-0.012,0.179-0.018,0.268
			c-0.034,0.505-0.067,1.023-0.097,1.559c-0.004,0.076-0.008,0.155-0.012,0.232c-0.03,0.559-0.057,1.13-0.08,1.72
			c-0.002,0.057-0.004,0.116-0.006,0.174c-0.003,0.067-0.005,0.135-0.007,0.203c-0.007,0.184-0.013,0.368-0.019,0.555
			c-0.011,0.34-0.019,0.685-0.027,1.034c-0.001,0.058-0.003,0.114-0.004,0.172c-0.048,2.183-0.043,4.523,0.051,6.986H138.324
			c-41.771,0-75.754-33.983-75.754-75.754v-25.971c0-41.771,33.983-75.754,75.754-75.754h235.348
			c41.772,0,75.755,33.983,75.755,75.754v25.968h0.001c0,20.077-8.105,39.355-22.107,53.456
			C421.919,293.806,414.749,288.038,406.535,284.315z M417.682,332.757c0,0.534-0.015,1.063-0.04,1.591
			c-0.011,0.223-0.03,0.444-0.045,0.666c-0.02,0.296-0.04,0.592-0.068,0.885c-0.027,0.286-0.062,0.57-0.096,0.854
			c-0.027,0.22-0.053,0.441-0.084,0.659c-0.046,0.324-0.098,0.646-0.153,0.969c-0.029,0.169-0.059,0.338-0.091,0.506
			c-0.067,0.355-0.138,0.709-0.216,1.061c-0.027,0.122-0.056,0.244-0.085,0.367c-0.09,0.385-0.185,0.77-0.289,1.151
			c-0.02,0.072-0.041,0.144-0.061,0.216c-0.612,2.189-1.451,4.309-2.499,6.33c-0.068,0.131-0.132,0.264-0.202,0.393
			c-0.133,0.248-0.274,0.49-0.413,0.735c-0.123,0.215-0.243,0.432-0.371,0.643c-0.117,0.196-0.24,0.388-0.361,0.581
			c-0.161,0.256-0.322,0.511-0.49,0.763c-0.107,0.16-0.217,0.318-0.326,0.476c-0.193,0.278-0.387,0.554-0.588,0.826
			c-0.1,0.135-0.201,0.269-0.303,0.402c-0.219,0.287-0.441,0.571-0.669,0.851c-0.097,0.119-0.195,0.237-0.294,0.355
			c-6.094,7.277-15.24,11.915-25.451,11.915c-1.026-0.003-2.036-0.056-3.035-0.147c-0.042-0.004-0.082-0.014-0.124-0.018
			c-1.587-0.15-3.149-0.412-4.677-0.78c-0.016-0.004-0.032-0.007-0.048-0.011c-0.427-0.103-0.849-0.22-1.27-0.34
			c-0.12-0.035-0.24-0.067-0.359-0.102c-0.329-0.098-0.655-0.205-0.98-0.313c-0.211-0.071-0.423-0.14-0.633-0.215
			c-0.24-0.085-0.477-0.176-0.715-0.267c-0.291-0.112-0.582-0.224-0.869-0.343c-0.162-0.067-0.323-0.138-0.483-0.207
			c-0.355-0.155-0.709-0.313-1.057-0.479c-0.099-0.047-0.198-0.096-0.297-0.145c-0.402-0.197-0.8-0.399-1.192-0.611
			c-0.052-0.029-0.105-0.058-0.157-0.086c-0.429-0.235-0.853-0.478-1.27-0.731c-0.025-0.015-0.049-0.03-0.074-0.045
			c-0.435-0.266-0.864-0.54-1.286-0.825c-0.015-0.01-0.029-0.02-0.044-0.03c-0.423-0.286-0.838-0.582-1.246-0.887
			c-0.022-0.017-0.045-0.034-0.067-0.051c-0.392-0.294-0.778-0.598-1.156-0.909c-0.044-0.036-0.088-0.073-0.131-0.109
			c-0.351-0.291-0.695-0.59-1.033-0.895c-0.072-0.065-0.144-0.13-0.215-0.196c-0.305-0.279-0.603-0.565-0.897-0.856
			c-0.1-0.099-0.2-0.199-0.299-0.3c-0.262-0.266-0.52-0.537-0.773-0.811c-0.118-0.129-0.236-0.258-0.352-0.388
			c-0.241-0.27-0.479-0.543-0.711-0.82c-0.098-0.118-0.196-0.236-0.293-0.355c-0.228-0.281-0.452-0.566-0.671-0.854
			c-0.1-0.132-0.201-0.264-0.299-0.397c-0.203-0.275-0.4-0.554-0.594-0.835c-0.107-0.155-0.216-0.31-0.32-0.467
			c-0.17-0.255-0.334-0.515-0.497-0.775c-0.118-0.189-0.238-0.376-0.353-0.567c-0.132-0.22-0.258-0.444-0.385-0.668
			c-0.134-0.235-0.27-0.469-0.398-0.708c-0.079-0.147-0.152-0.298-0.229-0.446c-0.825-1.598-1.524-3.257-2.079-4.965
			c-0.008-0.025-0.017-0.05-0.026-0.075c-0.127-0.395-0.243-0.793-0.356-1.192c-0.027-0.096-0.056-0.192-0.082-0.289
			c-0.098-0.361-0.187-0.724-0.273-1.088c-0.034-0.146-0.069-0.292-0.101-0.438c-0.073-0.331-0.141-0.664-0.204-0.998
			c-0.036-0.192-0.07-0.384-0.103-0.578c-0.051-0.299-0.099-0.6-0.142-0.901c-0.035-0.248-0.066-0.497-0.095-0.747
			c-0.031-0.256-0.062-0.512-0.087-0.769c-0.032-0.338-0.056-0.679-0.078-1.02c-0.012-0.178-0.027-0.356-0.036-0.534
			c-0.026-0.535-0.041-1.072-0.041-1.614c0-0.057,0.004-0.112,0.004-0.169c0.003-0.579,0.021-1.157,0.054-1.734
			c0.013-0.235,0.035-0.468,0.054-0.702c0.031-0.399,0.067-0.796,0.112-1.193c0.031-0.274,0.066-0.547,0.104-0.818
			c0.048-0.346,0.104-0.691,0.163-1.035c0.051-0.297,0.1-0.595,0.159-0.889c0.059-0.295,0.13-0.588,0.197-0.881
			c2.644-11.527,11.298-20.788,22.483-24.275c0.002,0,0.004-0.001,0.006-0.002c1.013-0.316,2.047-0.582,3.098-0.801
			c0.114-0.023,0.229-0.043,0.343-0.065c0.384-0.076,0.77-0.145,1.159-0.207c0.174-0.028,0.349-0.053,0.524-0.078
			c0.339-0.049,0.68-0.092,1.022-0.13c0.188-0.021,0.376-0.042,0.565-0.06c0.353-0.033,0.709-0.059,1.066-0.081
			c0.168-0.01,0.336-0.024,0.504-0.032c0.523-0.025,1.048-0.04,1.577-0.04c0.751,0,1.495,0.035,2.235,0.084
			c0.21,0.014,0.42,0.03,0.629,0.048c0.616,0.052,1.227,0.122,1.833,0.207c0.012,0.002,0.023,0.003,0.035,0.004
			c0.176,0.025,0.352,0.05,0.527,0.078c0.066,0.011,0.13,0.024,0.196,0.035c0.512,0.084,1.02,0.182,1.525,0.289
			c0.359,0.077,0.717,0.159,1.071,0.248c0.249,0.062,0.495,0.132,0.743,0.199c0.354,0.097,0.71,0.193,1.059,0.302
			c0.007,0.002,0.014,0.004,0.021,0.007c0.514,0.161,1.023,0.333,1.527,0.518c7.537,2.765,13.796,8.192,17.645,15.132
			c0.109,0.198,0.216,0.396,0.321,0.597c0.202,0.383,0.402,0.768,0.59,1.16c0.251,0.528,0.49,1.065,0.715,1.61
			c0.684,1.65,1.234,3.367,1.647,5.137c0.079,0.339,0.16,0.678,0.228,1.021c0.054,0.272,0.099,0.547,0.147,0.822
			c0.064,0.37,0.124,0.74,0.175,1.112c0.035,0.251,0.067,0.504,0.096,0.757c0.049,0.424,0.087,0.851,0.12,1.278
			c0.016,0.208,0.036,0.416,0.048,0.625C417.659,331.473,417.682,332.114,417.682,332.757z M331.353,335.24
			c0.012,0.266,0.032,0.53,0.048,0.794c0.033,0.542,0.074,1.083,0.124,1.622c0.031,0.338,0.064,0.675,0.102,1.011
			c0.051,0.452,0.11,0.903,0.172,1.353c0.051,0.374,0.099,0.749,0.158,1.121c0.059,0.366,0.13,0.728,0.196,1.092
			c0.152,0.843,0.324,1.678,0.516,2.507c0.059,0.252,0.113,0.505,0.175,0.756c0.122,0.495,0.255,0.985,0.391,1.474
			c0.07,0.253,0.142,0.506,0.216,0.758c0.143,0.487,0.291,0.972,0.448,1.453c0.079,0.244,0.165,0.487,0.247,0.73
			c0.166,0.485,0.33,0.97,0.509,1.448c0.058,0.154,0.122,0.306,0.182,0.459c0.325,0.843,0.671,1.675,1.036,2.496
			c0.174,0.392,0.347,0.783,0.53,1.171c0.141,0.298,0.289,0.592,0.435,0.886c0.224,0.452,0.453,0.901,0.69,1.346
			c0.124,0.232,0.249,0.464,0.376,0.695c0.308,0.559,0.627,1.111,0.955,1.659c0.069,0.115,0.136,0.232,0.206,0.346
			c0.814,1.335,1.682,2.641,2.615,3.905c-0.001,0.021-0.002,0.044-0.003,0.066c-0.025,0.449-0.051,0.885-0.08,1.306
			c-3.669,0.243-8.42,0.36-13.532-0.012c-10.435-0.816-21.871-3.631-29.029-10.789c-7.833-7.832-10.466-20.782-10.97-31.938
			c-0.014-0.348-0.028-0.695-0.038-1.039c-0.012-0.347-0.02-0.689-0.028-1.032c-0.059-3.204,0.048-6.139,0.215-8.582
			c0.761-0.051,1.551-0.094,2.367-0.128c0.363-0.015,0.749-0.021,1.122-0.032c0.466-0.014,0.922-0.032,1.401-0.039
			c0.61-0.009,1.241-0.006,1.871-0.003c0.263,0.001,0.516-0.004,0.783-0.001c0.707,0.009,1.431,0.032,2.157,0.058
			c0.204,0.007,0.4,0.008,0.605,0.016c0.77,0.032,1.552,0.081,2.337,0.134c0.169,0.012,0.334,0.017,0.504,0.029
			c0.768,0.057,1.545,0.132,2.322,0.212c0.193,0.02,0.382,0.032,0.575,0.053c0.802,0.087,1.609,0.196,2.415,0.31
			c0.17,0.024,0.339,0.04,0.51,0.065c0.75,0.111,1.499,0.246,2.248,0.382c0.228,0.041,0.457,0.073,0.684,0.116
			c0.716,0.138,1.427,0.301,2.137,0.463c0.257,0.059,0.517,0.106,0.774,0.168c0.648,0.157,1.286,0.341,1.925,0.52
			c0.313,0.088,0.631,0.162,0.942,0.255c0.567,0.17,1.12,0.368,1.678,0.558c0.372,0.126,0.752,0.237,1.119,0.372
			c0.527,0.193,1.035,0.417,1.55,0.628c0.383,0.157,0.776,0.299,1.152,0.467c0.494,0.22,0.966,0.473,1.447,0.712
			c0.378,0.188,0.768,0.36,1.137,0.56c0.504,0.273,0.981,0.581,1.468,0.878c0.322,0.196,0.659,0.375,0.972,0.582
			c0.538,0.355,1.043,0.747,1.554,1.134c0.236,0.179,0.489,0.339,0.719,0.524c0.727,0.587,1.422,1.208,2.08,1.867
			c0.363,0.363,0.718,0.746,1.066,1.138c0.035,0.039,0.069,0.081,0.104,0.121c-0.009,0.057-0.015,0.114-0.024,0.171
			c-0.019,0.125-0.034,0.252-0.052,0.377c-0.1,0.68-0.187,1.361-0.26,2.045c-0.026,0.244-0.049,0.489-0.072,0.735
			c-0.057,0.608-0.103,1.217-0.139,1.827c-0.013,0.228-0.029,0.456-0.04,0.685c-0.039,0.831-0.064,1.663-0.064,2.496
			C331.289,333.586,331.314,334.414,331.353,335.24z M339.477,304.359c-0.031-0.023-0.064-0.043-0.095-0.065
			c-0.659-0.481-1.328-0.942-2.005-1.388c-0.106-0.07-0.211-0.139-0.317-0.208c-0.668-0.432-1.344-0.848-2.027-1.247
			c-0.116-0.068-0.233-0.135-0.35-0.202c-0.152-0.087-0.303-0.177-0.456-0.263h7.588
			C340.999,302.081,340.209,303.198,339.477,304.359z M491.999,408.49h-0.001H20v-22.541h118.843h234.313h118.843V408.49z"/>
	</g>
</g>
<g>
	<g>
		<path d="M308.898,176.519c-0.13-0.64-0.33-1.27-0.58-1.87c-0.25-0.609-0.55-1.189-0.92-1.73c-0.359-0.55-0.779-1.061-1.239-1.52
			c-0.46-0.46-0.971-0.88-1.521-1.239c-0.54-0.36-1.12-0.67-1.729-0.92c-0.601-0.25-1.23-0.44-1.87-0.57c-1.29-0.26-2.62-0.26-3.9,0
			c-0.64,0.13-1.27,0.32-1.87,0.57c-0.609,0.25-1.189,0.56-1.729,0.92c-0.55,0.359-1.061,0.779-1.521,1.239
			c-0.46,0.46-0.88,0.971-1.25,1.52c-0.359,0.54-0.67,1.12-0.91,1.73c-0.25,0.601-0.449,1.23-0.569,1.87
			c-0.13,0.641-0.2,1.3-0.2,1.95c0,2.63,1.07,5.21,2.93,7.07c0.458,0.46,0.969,0.88,1.519,1.25c0.54,0.359,1.12,0.67,1.729,0.92
			c0.601,0.25,1.231,0.439,1.87,0.569c0.641,0.131,1.3,0.19,1.95,0.19s1.31-0.06,1.95-0.19s1.27-0.319,1.87-0.569
			c0.609-0.25,1.189-0.561,1.729-0.92c0.55-0.37,1.061-0.79,1.521-1.25c1.859-1.86,2.93-4.44,2.93-7.07
			C309.088,177.819,309.018,177.16,308.898,176.519z"/>
	</g>
</g>
<g>
	<g>
		<path d="M363.903,203.545H148.095c-15.423,0-27.971,12.548-27.971,27.971v6.428c0,15.423,12.548,27.971,27.971,27.971h215.807
			c15.423,0,27.971-12.548,27.971-27.971v-6.429C391.873,216.092,379.326,203.545,363.903,203.545z M371.873,237.943
			c0,4.396-3.575,7.971-7.971,7.971H148.095c-4.395,0-7.971-3.575-7.971-7.971v-6.428c0-4.396,3.576-7.971,7.971-7.971h215.808
			c4.395,0,7.97,3.575,7.97,7.97V237.943z"/>
	</g>
</g>
<g>
</g>
<g>
</g>
<g>
</g>
<g>
</g>
<g>
</g>
<g>
</g>
<g>
</g>
<g>
</g>
<g>
</g>
<g>
</g>
<g>
</g>
<g>
</g>
<g>
</g>
<g>
</g>
<g>
</g>
</svg>
