<?xml version="1.0" encoding="iso-8859-1"?>
<!-- Generator: Adobe Illustrator 19.0.0, SVG Export Plug-In . SVG Version: 6.00 Build 0)  -->
<svg version="1.1" id="Capa_1" xmlns="http://www.w3.org/2000/svg" xmlns:xlink="http://www.w3.org/1999/xlink" x="0px" y="0px"
	 viewBox="0 0 512 512" style="enable-background:new 0 0 512 512;" xml:space="preserve">
<g>
	<g>
		<path d="M360.05,185.897c-0.13-0.64-0.32-1.27-0.57-1.869c-0.25-0.61-0.56-1.191-0.92-1.73c-0.36-0.55-0.78-1.06-1.24-1.52
			c-0.46-0.461-0.97-0.881-1.52-1.24c-0.54-0.36-1.12-0.67-1.73-0.92c-0.6-0.25-1.23-0.45-1.87-0.57c-1.29-0.26-2.62-0.26-3.91,0
			c-0.63,0.12-1.26,0.32-1.87,0.57c-0.6,0.25-1.18,0.56-1.72,0.92c-0.55,0.359-1.06,0.779-1.52,1.24c-0.47,0.46-0.88,0.97-1.25,1.52
			c-0.36,0.54-0.67,1.12-0.92,1.73c-0.25,0.6-0.44,1.229-0.57,1.869c-0.13,0.641-0.19,1.301-0.19,1.95c0,2.63,1.07,5.21,2.93,7.07
			c0.46,0.46,0.97,0.88,1.52,1.24c0.54,0.359,1.12,0.67,1.72,0.92c0.61,0.25,1.24,0.45,1.87,0.569c0.65,0.131,1.31,0.2,1.96,0.2
			c0.65,0,1.31-0.069,1.95-0.2c0.64-0.119,1.27-0.319,1.87-0.569c0.61-0.25,1.19-0.561,1.73-0.92c0.55-0.36,1.06-0.78,1.52-1.24
			c1.86-1.86,2.93-4.44,2.93-7.07C360.25,187.198,360.18,186.537,360.05,185.897z"/>
	</g>
</g>
<g>
	<g>
		<path d="M502,374.58h-38.587l-40.537-192.832c-0.005-0.025-0.014-0.049-0.019-0.074l-8.51-40.474
			c-3.409-16.237-17.163-28.324-33.43-29.912c17.701-25.428,11.194-63.557,10.881-65.316c-0.735-4.127-3.965-7.357-8.092-8.092
			c-1.891-0.337-45.778-7.828-70.773,15.255c-6.721-4.205-14.654-6.646-23.15-6.646c-13.505,0-25.598,6.149-33.636,15.792
			c-8.035-9.847-20.258-16.148-33.929-16.148c-8.594,0-16.61,2.499-23.381,6.794C173.805,30.1,130.18,37.543,128.294,37.88
			c-4.126,0.734-7.357,3.965-8.092,8.092c-0.313,1.759-6.819,39.889,10.881,65.316c-16.267,1.589-30.022,13.675-33.429,29.909
			l-8.51,40.475c-0.006,0.026-0.015,0.051-0.02,0.077L48.587,374.58H10c-5.523,0-10,4.477-10,10v41.772c0,5.522,4.477,10,10,10
			h51.584v29.191c0,5.522,4.477,10,10,10h368.832c5.523,0,10-4.478,10-10v-29.191H502c5.523,0,10-4.478,10-10V384.58
			C512,379.058,507.523,374.58,502,374.58z M415.711,254.639c0.19-0.01,0.377-0.032,0.566-0.045c0.485-0.033,0.97-0.064,1.451-0.115
			l25.248,120.1h-41.77v0.001l-16.6-88.861c0.897-0.718,1.763-1.482,2.592-2.291c6.714-6.54,10.412-15.299,10.412-24.663v-7.562
			c4.866,2.248,10.315,3.491,16.03,3.491C414.334,254.694,415.024,254.676,415.711,254.639z M372.981,56.757
			c1,13.264-0.082,35.406-11.924,47.248c-5.47,5.471-13.515,9.144-23.945,10.94c-2.868-1.4-5.928-2.446-9.126-3.088
			c-0.04-0.008-0.08-0.02-0.121-0.028c2.704-4.758,4.54-10.066,5.297-15.715c0.016-0.117,0.03-0.234,0.045-0.351
			c0.094-0.743,0.168-1.492,0.224-2.246c0.015-0.196,0.033-0.391,0.045-0.588c0.053-0.88,0.088-1.765,0.088-2.659
			c0-0.921-0.038-1.834-0.095-2.741c-0.017-0.27-0.04-0.538-0.061-0.807c-0.055-0.676-0.125-1.347-0.21-2.015
			c-0.033-0.263-0.062-0.526-0.1-0.787c-0.125-0.858-0.271-1.709-0.445-2.549c-0.054-0.262-0.122-0.52-0.181-0.781
			c-0.134-0.593-0.278-1.182-0.436-1.765c-0.099-0.368-0.204-0.734-0.313-1.099c-0.147-0.489-0.305-0.973-0.468-1.454
			c-0.19-0.562-0.39-1.12-0.603-1.673c-0.192-0.498-0.385-0.995-0.594-1.484c-0.19-0.446-0.395-0.886-0.6-1.326
			c-0.151-0.324-0.306-0.645-0.465-0.964c-0.227-0.456-0.454-0.911-0.697-1.359c-0.125-0.23-0.26-0.453-0.389-0.681
			c-0.278-0.492-0.544-0.991-0.842-1.473C339.923,55.991,361.716,55.906,372.981,56.757z M289.782,66.489
			c6.793,0,12.925,2.868,17.263,7.451c0.447,0.472,0.872,0.959,1.276,1.46c0.081,0.101,0.161,0.203,0.24,0.306
			c0.383,0.492,0.745,0.996,1.086,1.513c0.083,0.125,0.163,0.253,0.244,0.38c0.323,0.51,0.627,1.031,0.909,1.562
			c0.074,0.139,0.145,0.28,0.216,0.421c0.272,0.538,0.526,1.085,0.755,1.642c0.056,0.135,0.108,0.272,0.161,0.409
			c0.225,0.577,0.432,1.161,0.612,1.755c0.035,0.117,0.067,0.235,0.1,0.353c0.178,0.623,0.335,1.252,0.461,1.89
			c0.018,0.088,0.031,0.177,0.048,0.265c0.125,0.671,0.227,1.348,0.294,2.033c0.005,0.053,0.007,0.107,0.012,0.16
			c0.066,0.722,0.104,1.45,0.104,2.183c0,0.523-0.022,1.042-0.057,1.56c-0.007,0.108-0.016,0.215-0.025,0.323
			c-0.449,5.571-2.864,10.775-6.688,14.713c-0.014,0.015-0.028,0.03-0.042,0.044c-0.36,0.369-0.735,0.725-1.12,1.071
			c-0.083,0.075-0.169,0.147-0.254,0.22c-0.281,0.246-0.569,0.483-0.862,0.716c-0.134,0.106-0.267,0.214-0.404,0.318
			c-0.349,0.265-0.706,0.522-1.071,0.769c-0.171,0.115-0.347,0.224-0.522,0.335c-0.234,0.149-0.471,0.295-0.711,0.436
			c-0.195,0.115-0.391,0.23-0.59,0.339c-0.374,0.206-0.752,0.405-1.139,0.591c-3.117,1.504-6.611,2.347-10.297,2.347
			c-13.114,0-23.782-10.669-23.782-23.782S276.668,66.489,289.782,66.489z M198.537,87.756c0.005-0.056,0.007-0.112,0.013-0.168
			c0.066-0.679,0.166-1.352,0.29-2.018c0.016-0.087,0.029-0.174,0.046-0.26c0.126-0.639,0.282-1.27,0.459-1.894
			c0.031-0.11,0.061-0.22,0.094-0.33c0.18-0.599,0.386-1.189,0.612-1.772c0.049-0.126,0.098-0.253,0.149-0.378
			c0.23-0.564,0.484-1.118,0.758-1.663c0.066-0.131,0.132-0.261,0.2-0.39c0.282-0.536,0.585-1.063,0.908-1.577
			c0.076-0.121,0.153-0.241,0.231-0.36c0.338-0.517,0.697-1.023,1.076-1.516c0.077-0.1,0.156-0.2,0.235-0.299
			c0.397-0.499,0.815-0.984,1.255-1.454c4.342-4.638,10.513-7.545,17.353-7.545C235.331,66.133,246,76.802,246,89.915
			c0,13.113-10.669,23.782-23.782,23.782c-3.676,0-7.16-0.839-10.27-2.335c-0.396-0.19-0.783-0.392-1.165-0.603
			c-0.187-0.103-0.371-0.212-0.556-0.32c-0.253-0.149-0.503-0.302-0.75-0.459c-0.166-0.106-0.335-0.21-0.498-0.32
			c-0.37-0.249-0.732-0.509-1.086-0.777c-0.13-0.098-0.256-0.201-0.384-0.302c-0.297-0.235-0.59-0.476-0.875-0.725
			c-0.085-0.074-0.17-0.145-0.254-0.22c-0.385-0.346-0.76-0.702-1.121-1.071c-0.012-0.013-0.024-0.026-0.037-0.038
			c-3.833-3.939-6.255-9.148-6.705-14.727c-0.008-0.108-0.018-0.216-0.025-0.325c-0.035-0.518-0.057-1.038-0.057-1.561
			C198.435,89.189,198.473,88.47,198.537,87.756z M139.08,56.695c12.71-0.957,33.573-0.006,45.712,10.496
			c-0.209,0.343-0.392,0.701-0.591,1.049c-0.195,0.34-0.391,0.678-0.577,1.024c-0.22,0.41-0.43,0.825-0.637,1.241
			c-0.186,0.374-0.364,0.751-0.539,1.131c-0.179,0.389-0.363,0.777-0.53,1.171c-0.301,0.707-0.585,1.424-0.849,2.15
			c-0.119,0.328-0.225,0.661-0.336,0.992c-0.175,0.519-0.342,1.04-0.498,1.567c-0.097,0.329-0.192,0.658-0.282,0.99
			c-0.178,0.66-0.34,1.326-0.488,1.998c-0.04,0.183-0.089,0.362-0.126,0.546c-0.175,0.849-0.32,1.71-0.445,2.576
			c-0.037,0.257-0.066,0.515-0.099,0.774c-0.084,0.663-0.153,1.331-0.206,2.003c-0.021,0.264-0.044,0.527-0.06,0.792
			c-0.055,0.9-0.093,1.805-0.093,2.719c0,0.904,0.036,1.8,0.091,2.691c0.012,0.201,0.031,0.4,0.046,0.601
			c0.058,0.77,0.135,1.534,0.232,2.292c0.015,0.113,0.028,0.225,0.043,0.338c0.781,5.746,2.679,11.138,5.471,15.956
			c-0.054,0.011-0.107,0.026-0.161,0.037c-3.249,0.639-6.359,1.694-9.27,3.116c-10.429-1.796-18.473-5.469-23.944-10.94
			C138.324,91.385,138.197,68.378,139.08,56.695z M106.182,197.853h206.734c5.523,0,10-4.478,10-10c0-5.523-4.477-10-10-10H110.385
			l6.842-32.538c1.728-8.237,9.088-14.211,17.503-14.211c1.795,0,3.541,0.267,5.202,0.768c0.03,0.009,0.06,0.017,0.09,0.027
			c0.049,0.015,0.098,0.025,0.148,0.04c0.489,0.155,0.967,0.337,1.439,0.533c0.07,0.029,0.141,0.057,0.21,0.087
			c0.022,0.01,0.044,0.015,0.066,0.025c0.447,0.195,0.883,0.414,1.312,0.646c0.106,0.056,0.212,0.111,0.316,0.169
			c0.002,0.001,0.004,0.002,0.007,0.003c0.423,0.24,0.834,0.501,1.238,0.776c0.091,0.06,0.182,0.12,0.271,0.183
			c0.123,0.087,0.237,0.188,0.358,0.279c0.415,0.31,0.819,0.633,1.204,0.975c0.179,0.16,0.349,0.332,0.523,0.5
			c0.293,0.283,0.581,0.57,0.854,0.872c0.193,0.214,0.377,0.434,0.559,0.656c0.211,0.257,0.418,0.519,0.616,0.788
			c0.628,0.858,1.188,1.759,1.652,2.706c0.008,0.017,0.017,0.033,0.025,0.049c0.519,1.067,0.93,2.183,1.228,3.328
			c0.006,0.023,0.013,0.046,0.019,0.07c0.281,1.097,0.451,2.221,0.518,3.355c0.007,0.117,0.013,0.234,0.018,0.351
			c0.021,0.547,0.025,1.096-0.006,1.645c-0.018,0.328-0.02,0.653-0.007,0.974c0.005,0.128,0.023,0.253,0.033,0.381
			c0.015,0.192,0.026,0.385,0.052,0.574c0.02,0.145,0.053,0.285,0.079,0.428c0.031,0.167,0.056,0.337,0.095,0.501
			c0.034,0.145,0.081,0.286,0.121,0.429c0.045,0.157,0.084,0.317,0.137,0.471c0.047,0.138,0.105,0.271,0.157,0.407
			c0.06,0.154,0.115,0.309,0.182,0.459c0.057,0.127,0.124,0.249,0.185,0.374c0.076,0.152,0.148,0.306,0.231,0.454
			c0.064,0.114,0.137,0.223,0.206,0.334c0.093,0.151,0.184,0.304,0.285,0.45c0.07,0.101,0.147,0.196,0.221,0.295
			c0.111,0.149,0.22,0.298,0.339,0.441c0.074,0.089,0.154,0.171,0.231,0.257c0.129,0.144,0.257,0.288,0.394,0.424
			c0.077,0.077,0.16,0.148,0.24,0.222c0.146,0.136,0.293,0.272,0.447,0.4c0.08,0.066,0.165,0.126,0.247,0.19
			c0.162,0.126,0.325,0.25,0.495,0.366c0.084,0.057,0.173,0.109,0.259,0.164c0.176,0.112,0.353,0.223,0.536,0.324
			c0.088,0.048,0.179,0.091,0.269,0.137c0.189,0.097,0.379,0.192,0.575,0.277c0.092,0.04,0.187,0.074,0.281,0.111
			c0.2,0.079,0.4,0.157,0.607,0.224c0.096,0.031,0.195,0.056,0.292,0.084c0.211,0.061,0.422,0.12,0.639,0.168
			c0.096,0.021,0.195,0.037,0.292,0.055c0.161,0.031,0.319,0.068,0.482,0.091c0.064,0.009,0.128,0.01,0.192,0.017
			c0.029,0.004,0.057,0.011,0.087,0.014c0.061,0.007,0.121,0.004,0.181,0.01c0.26,0.024,0.519,0.04,0.776,0.044
			c0.052,0.001,0.104,0.009,0.156,0.009c0.081,0,0.161-0.009,0.242-0.011c0.159-0.004,0.318-0.01,0.475-0.021
			c0.155-0.011,0.308-0.028,0.461-0.046c0.145-0.017,0.29-0.035,0.433-0.059c0.161-0.026,0.321-0.06,0.48-0.094
			c0.133-0.029,0.267-0.056,0.399-0.091c0.163-0.042,0.322-0.092,0.482-0.142c0.125-0.039,0.251-0.077,0.375-0.121
			c0.159-0.057,0.314-0.122,0.47-0.186c0.12-0.05,0.241-0.097,0.359-0.151c0.149-0.069,0.293-0.146,0.439-0.222
			c0.119-0.062,0.241-0.121,0.357-0.188c0.132-0.076,0.258-0.16,0.386-0.242c0.123-0.079,0.249-0.153,0.369-0.237
			c0.106-0.074,0.205-0.156,0.308-0.234c0.134-0.102,0.271-0.2,0.4-0.308c0.004-0.003,0.007-0.007,0.011-0.01
			c0.392-0.331,0.756-0.697,1.094-1.086c0.039-0.045,0.081-0.086,0.119-0.131c0.12-0.143,0.23-0.296,0.342-0.446
			c0.066-0.089,0.137-0.174,0.2-0.266c0.096-0.138,0.183-0.283,0.273-0.427c0.07-0.113,0.143-0.223,0.209-0.339
			c0.077-0.135,0.145-0.275,0.215-0.415c0.068-0.134,0.137-0.266,0.2-0.403c0.06-0.133,0.113-0.27,0.167-0.406
			c0.061-0.151,0.121-0.301,0.174-0.456c0.046-0.134,0.086-0.271,0.127-0.409c0.048-0.163,0.095-0.326,0.136-0.492
			c0.013-0.055,0.032-0.107,0.045-0.163l1.49-6.62c0.027-0.12,0.052-0.242,0.075-0.363c0.941-5.049,3.962-9.258,8.067-11.843
			c0.024-0.015,0.051-0.025,0.075-0.04c1.693-1.055,3.531-1.807,5.438-2.251c0.159-0.037,0.318-0.075,0.479-0.108
			c0.247-0.05,0.495-0.092,0.744-0.132c0.261-0.041,0.523-0.076,0.787-0.105c0.189-0.021,0.377-0.045,0.567-0.06
			c0.471-0.038,0.945-0.063,1.424-0.063h4.6c2.541,0,4.992,0.519,7.283,1.541c0.027,0.012,0.056,0.02,0.084,0.032
			c2.193,0.99,4.187,2.429,5.872,4.282c3.429,3.771,5.055,8.643,4.579,13.719l-0.002,0.021c-0.001,0.002-0.001,0.005-0.001,0.007
			c-0.523,5.497,3.507,10.377,9.003,10.903c5.495,0.511,10.378-3.503,10.906-9l0.141-1.462c0.526-5.495,3.066-10.568,7.146-14.278
			c4.096-3.717,9.39-5.765,14.909-5.765c11.479,0,20.961,8.616,22.056,20.045l0.14,1.46c0.528,5.496,5.41,9.509,10.906,9
			c5.496-0.526,9.527-5.406,9.003-10.903c-0.001-0.002-0.001-0.005-0.001-0.007l-0.002-0.021c-0.476-5.076,1.15-9.947,4.579-13.719
			c1.686-1.854,3.68-3.293,5.875-4.283c0.026-0.011,0.054-0.019,0.08-0.03c2.293-1.022,4.743-1.541,7.284-1.541h4.6
			c0.479,0,0.953,0.026,1.424,0.063c0.189,0.015,0.378,0.039,0.567,0.06c0.264,0.029,0.526,0.064,0.787,0.105
			c0.249,0.04,0.497,0.082,0.744,0.132c0.161,0.032,0.319,0.071,0.479,0.108c1.906,0.444,3.745,1.196,5.438,2.251
			c0.024,0.015,0.051,0.025,0.075,0.04c4.105,2.585,7.126,6.794,8.067,11.843c0.023,0.123,0.048,0.245,0.075,0.367l1.49,6.609
			c0.017,0.076,0.043,0.147,0.061,0.222c0.055,0.22,0.112,0.44,0.18,0.653c0.036,0.111,0.079,0.217,0.119,0.327
			c0.064,0.178,0.129,0.356,0.202,0.529c0.048,0.112,0.102,0.22,0.154,0.33c0.077,0.164,0.155,0.327,0.24,0.485
			c0.057,0.106,0.119,0.209,0.18,0.313c0.091,0.156,0.185,0.309,0.284,0.459c0.064,0.097,0.131,0.192,0.198,0.286
			c0.107,0.149,0.217,0.295,0.331,0.438c0.069,0.087,0.139,0.172,0.211,0.256c0.124,0.145,0.253,0.285,0.385,0.422
			c0.07,0.073,0.14,0.146,0.212,0.217c0.146,0.143,0.297,0.279,0.451,0.413c0.066,0.057,0.13,0.116,0.198,0.171
			c0.176,0.144,0.358,0.28,0.543,0.412c0.052,0.037,0.102,0.077,0.155,0.113c0.234,0.16,0.474,0.311,0.722,0.452
			c0.007,0.004,0.013,0.008,0.02,0.012c0.524,0.296,1.075,0.544,1.647,0.742c0.039,0.013,0.078,0.023,0.117,0.036
			c0.239,0.08,0.481,0.152,0.727,0.213c0.08,0.02,0.162,0.035,0.243,0.053c0.206,0.046,0.414,0.089,0.624,0.122
			c0.103,0.016,0.207,0.027,0.31,0.04c0.191,0.024,0.382,0.044,0.575,0.057c0.118,0.008,0.237,0.012,0.356,0.015
			c0.1,0.003,0.199,0.013,0.3,0.013c0.053,0,0.107-0.01,0.159-0.011c0.397-0.006,0.796-0.028,1.198-0.083
			c0.009-0.001,0.018-0.001,0.027-0.002c0.002,0,0.004-0.001,0.006-0.001c0.003,0,0.005,0,0.008-0.001
			c0.184-0.026,0.362-0.067,0.542-0.103c0.133-0.026,0.269-0.044,0.399-0.076c0.184-0.044,0.361-0.103,0.54-0.156
			c0.124-0.037,0.251-0.066,0.372-0.108c0.191-0.065,0.374-0.145,0.559-0.221c0.103-0.042,0.211-0.078,0.312-0.124
			c0.194-0.087,0.379-0.188,0.565-0.287c0.086-0.046,0.177-0.085,0.262-0.133c0.198-0.112,0.386-0.238,0.574-0.363
			c0.067-0.044,0.138-0.083,0.204-0.129c0.19-0.133,0.37-0.277,0.549-0.422c0.058-0.047,0.12-0.088,0.177-0.136
			c0.202-0.171,0.395-0.353,0.582-0.539c0.028-0.028,0.059-0.053,0.087-0.081c0.198-0.2,0.385-0.411,0.565-0.627
			c0.014-0.017,0.031-0.033,0.046-0.05c0.178-0.217,0.345-0.443,0.505-0.674c0.013-0.019,0.029-0.037,0.042-0.056
			c1.013-1.491,1.626-3.262,1.713-5.15c0.001-0.024,0.005-0.048,0.006-0.073c0.012-0.319,0.01-0.642-0.009-0.967
			c-0.018-0.329-0.033-0.658-0.033-0.987c0-9.826,8.03-17.82,17.9-17.82c8.415,0,15.775,5.974,17.504,14.209l18.793,89.381
			c-7.664-0.03-14.44-4.901-16.131-11.605c-1.035-4.105-4.498-7.009-8.545-7.478c-0.778-0.09-1.576-0.1-2.383,0
			c-5.008,0.622-8.768,4.878-8.768,9.924v19.159c0,0.424-0.027,0.91-0.08,1.444c-0.033,0.331-0.05,0.663-0.05,0.996v11.63
			c0,1.471-0.218,2.907-0.64,4.272c-0.703,2.275-1.97,4.353-3.735,6.072c-0.331,0.323-0.68,0.625-1.039,0.914
			c-0.135,0.109-0.276,0.21-0.414,0.314c-0.224,0.169-0.451,0.332-0.684,0.488c-0.181,0.121-0.366,0.239-0.553,0.353
			c-0.204,0.124-0.412,0.241-0.622,0.355c-0.203,0.111-0.405,0.223-0.614,0.326c-0.122,0.06-0.249,0.11-0.372,0.167
			c-0.403,0.185-0.813,0.354-1.229,0.506c-0.186,0.067-0.374,0.128-0.562,0.189c-0.357,0.115-0.72,0.216-1.086,0.307
			c-0.219,0.054-0.438,0.108-0.66,0.154c-0.372,0.076-0.75,0.133-1.131,0.185c-0.206,0.028-0.41,0.064-0.619,0.085
			c-0.588,0.058-1.183,0.095-1.789,0.095c-9.164,0-16.62-6.631-16.62-14.78v-8.28c0-0.86-0.111-1.718-0.33-2.55
			c-0.282-1.07-0.42-2.131-0.42-3.24v-16.79c0-4.845-3.473-8.992-8.242-9.844c-0.687-0.124-1.371-0.165-2.047-0.146
			c-0.177,0.005-0.354,0.009-0.529,0.024c-0.132,0.011-0.262,0.03-0.393,0.046c-0.138,0.017-0.277,0.033-0.414,0.055
			c-0.136,0.022-0.271,0.051-0.406,0.079c-0.13,0.027-0.259,0.055-0.388,0.087c-0.134,0.034-0.267,0.071-0.4,0.11
			c-0.126,0.037-0.251,0.077-0.376,0.119c-0.13,0.044-0.259,0.089-0.387,0.138c-0.125,0.048-0.247,0.1-0.37,0.153
			c-0.123,0.053-0.246,0.105-0.366,0.163c-0.129,0.062-0.254,0.13-0.379,0.197c-0.11,0.059-0.221,0.114-0.329,0.176
			c-0.169,0.098-0.333,0.205-0.496,0.313c-0.116,0.077-0.23,0.156-0.343,0.238c-0.156,0.113-0.311,0.227-0.46,0.349
			c-0.085,0.069-0.165,0.144-0.247,0.215c-0.122,0.106-0.243,0.213-0.36,0.325c-0.083,0.08-0.163,0.164-0.244,0.247
			c-0.109,0.113-0.217,0.227-0.321,0.345c-0.077,0.088-0.152,0.177-0.227,0.268c-0.101,0.123-0.199,0.248-0.294,0.376
			c-0.069,0.092-0.137,0.185-0.203,0.28c-0.095,0.137-0.184,0.277-0.272,0.419c-0.058,0.093-0.117,0.185-0.172,0.281
			c-0.092,0.16-0.177,0.326-0.261,0.492c-0.042,0.084-0.087,0.165-0.128,0.251c-0.119,0.255-0.23,0.514-0.329,0.782
			c-2.262,6.132-8.599,10.252-15.769,10.252c-0.441,0-0.879-0.02-1.314-0.052c-0.096-0.007-0.192-0.016-0.288-0.025
			c-0.379-0.034-0.756-0.077-1.128-0.133c-0.053-0.008-0.107-0.015-0.16-0.023c-0.87-0.14-1.718-0.344-2.542-0.603
			c-0.095-0.03-0.19-0.063-0.284-0.094c-0.286-0.095-0.568-0.2-0.847-0.309c-0.142-0.056-0.285-0.11-0.426-0.17
			c-0.22-0.093-0.435-0.194-0.65-0.295c-0.142-0.067-0.285-0.128-0.425-0.199c-0.001,0-0.002-0.001-0.003-0.001
			c-0.496-0.25-0.973-0.523-1.434-0.813c-0.059-0.037-0.115-0.076-0.173-0.114c-0.396-0.255-0.777-0.525-1.144-0.808
			c-0.072-0.056-0.145-0.111-0.216-0.168c-0.381-0.304-0.746-0.62-1.093-0.952c-0.027-0.026-0.056-0.049-0.082-0.075
			c-0.752-0.728-1.416-1.521-1.99-2.363c-0.063-0.092-0.121-0.188-0.182-0.281c-0.208-0.321-0.402-0.649-0.583-0.983
			c-0.067-0.124-0.133-0.248-0.197-0.374c-0.164-0.327-0.311-0.66-0.448-0.997c-0.05-0.123-0.105-0.244-0.152-0.368
			c-0.17-0.458-0.321-0.922-0.44-1.396c-1.077-4.283-4.797-7.28-9.069-7.544c-0.61-0.038-1.232-0.02-1.858,0.059
			c-5.009,0.619-8.772,4.876-8.772,9.924v19.159c0,3.781-1.646,7.397-4.628,10.176c-3.194,2.97-7.456,4.605-12.001,4.605h-0.74
			c-9.17,0-16.63-6.631-16.63-14.78v-19.159c0-5.046-3.76-9.302-8.768-9.924c-5.005-0.619-9.694,2.585-10.929,7.477
			c-0.125,0.497-0.287,0.985-0.471,1.465c-0.034,0.09-0.074,0.177-0.11,0.266c-0.175,0.43-0.367,0.855-0.587,1.268
			c-0.018,0.035-0.036,0.069-0.054,0.103c-1.567,2.891-4.192,5.335-7.445,6.841c-0.044,0.02-0.088,0.04-0.132,0.06
			c-0.565,0.256-1.137,0.484-1.718,0.679c-0.004,0.001-0.008,0.003-0.012,0.005c-0.561,0.188-1.132,0.34-1.707,0.47
			c-0.143,0.032-0.289,0.057-0.433,0.086c-0.426,0.085-0.856,0.154-1.288,0.208c-0.173,0.021-0.345,0.045-0.519,0.061
			c-0.572,0.055-1.146,0.092-1.727,0.092c-7.169,0-13.506-4.12-15.768-10.251c-1.543-4.184-5.642-6.791-10.005-6.513
			c-0.377,0.024-0.755,0.061-1.135,0.129c-3.279,0.586-5.945,2.73-7.291,5.586c-0.122,0.26-0.234,0.525-0.334,0.796
			c-0.2,0.542-0.354,1.105-0.459,1.683c-0.104,0.579-0.158,1.173-0.158,1.779v16.79c0,1.087-0.142,2.163-0.433,3.291
			c-0.211,0.816-0.317,1.656-0.317,2.499v8.28c0,3.781-1.646,7.397-4.637,10.184c-3.182,2.964-7.438,4.597-11.983,4.597
			c-0.494,0-0.981-0.028-1.464-0.066c-0.143-0.011-0.286-0.022-0.428-0.037c-0.426-0.043-0.846-0.1-1.261-0.172
			c-0.231-0.04-0.459-0.09-0.688-0.139c-0.183-0.039-0.364-0.081-0.544-0.125c-1.267-0.313-2.495-0.756-3.65-1.332
			c-0.001-0.001-0.002-0.001-0.003-0.002c-3.636-1.813-6.327-4.712-7.658-8.071c-0.003-0.009-0.007-0.018-0.011-0.026
			c-0.106-0.27-0.201-0.543-0.289-0.819c-0.049-0.155-0.092-0.312-0.136-0.468c-0.082-0.291-0.155-0.585-0.217-0.881
			c-0.062-0.304-0.118-0.611-0.159-0.921c-0.019-0.139-0.034-0.278-0.048-0.418c-0.043-0.43-0.074-0.864-0.074-1.304v-30.86
			c0-4.845-3.473-8.992-8.242-9.844c-4.768-0.857-9.463,1.837-11.14,6.382c-2.262,6.132-8.599,10.252-15.768,10.252
			c-0.269,0-0.536-0.006-0.804-0.018L106.182,197.853z M325.985,265.763c3.298,15.268,17.164,26.922,33.993,27.734
			c0.623,0.03,1.251,0.045,1.882,0.045c0.621,0,1.24-0.016,1.855-0.046c0.277-0.013,0.551-0.039,0.826-0.058
			c0.33-0.023,0.662-0.042,0.99-0.074c0.051-0.005,0.102-0.006,0.152-0.011l15.174,81.224h-61.306v0.003l-11.486-119.907
			c0.21,0.007,0.419-0.001,0.629,0.003c0.216,0.003,0.429,0.018,0.646,0.018c0.15,0,0.297-0.01,0.447-0.012
			c0.39-0.004,0.779-0.016,1.167-0.032c0.313-0.013,0.625-0.03,0.937-0.051c0.408-0.027,0.815-0.06,1.221-0.1
			c0.302-0.03,0.602-0.065,0.902-0.102c0.4-0.049,0.799-0.101,1.196-0.163c0.313-0.049,0.623-0.105,0.933-0.161
			c0.376-0.068,0.752-0.136,1.125-0.216c0.337-0.072,0.669-0.153,1.003-0.234c0.342-0.083,0.685-0.162,1.024-0.254
			c0.369-0.1,0.733-0.213,1.098-0.324c0.299-0.091,0.6-0.176,0.896-0.274c0.422-0.139,0.837-0.295,1.252-0.448
			c0.234-0.087,0.472-0.165,0.704-0.257c0.645-0.254,1.283-0.522,1.91-0.81c0.027,0.135,0.056,0.269,0.085,0.402v7.105
			C325.24,261.16,325.497,263.501,325.985,265.763z M299.457,374.577h-86.918l5.777-60.28l5.15-53.76
			c0.027,0.051,0.06,0.099,0.088,0.149c0.333,0.607,0.683,1.204,1.051,1.79c0.073,0.116,0.15,0.23,0.225,0.346
			c0.344,0.533,0.702,1.056,1.075,1.57c0.061,0.084,0.118,0.169,0.18,0.252c0.415,0.561,0.851,1.108,1.299,1.644
			c0.1,0.12,0.203,0.239,0.305,0.358c0.465,0.54,0.94,1.072,1.437,1.585c0.006,0.006,0.012,0.012,0.018,0.018
			c0.494,0.508,1.008,0.998,1.533,1.478c0.114,0.104,0.228,0.209,0.344,0.312c0.526,0.469,1.064,0.925,1.618,1.365
			c0.085,0.067,0.172,0.131,0.257,0.197c0.51,0.397,1.032,0.78,1.564,1.151c0.107,0.074,0.211,0.151,0.319,0.224
			c0.586,0.399,1.185,0.78,1.796,1.146c0.128,0.077,0.258,0.151,0.388,0.226c0.587,0.342,1.183,0.672,1.791,0.983
			c0.055,0.028,0.109,0.059,0.164,0.087c0.648,0.327,1.31,0.631,1.98,0.922c0.149,0.065,0.298,0.128,0.448,0.191
			c0.674,0.282,1.356,0.551,2.051,0.795c0.066,0.023,0.134,0.043,0.201,0.066c0.65,0.224,1.311,0.429,1.977,0.618
			c0.148,0.042,0.296,0.086,0.445,0.126c0.709,0.192,1.426,0.366,2.151,0.518c0.137,0.029,0.276,0.053,0.414,0.081
			c0.666,0.132,1.338,0.247,2.017,0.344c0.114,0.016,0.226,0.036,0.34,0.051c0.746,0.1,1.5,0.174,2.259,0.23
			c0.171,0.013,0.342,0.023,0.514,0.033c0.779,0.047,1.563,0.08,2.355,0.08h0.74c9.614,0,18.712-3.536,25.626-9.964
			c0.654-0.609,1.276-1.239,1.875-1.884c0.199-0.214,0.381-0.439,0.574-0.657c0.388-0.439,0.774-0.879,1.137-1.333
			c0.214-0.267,0.412-0.543,0.617-0.816c0.317-0.421,0.631-0.842,0.927-1.274c0.202-0.294,0.391-0.594,0.582-0.893
			c0.168-0.263,0.351-0.519,0.512-0.786l9.145,95.467L299.457,374.577z M203.934,254.693L192.449,374.58h-61.308l15.194-81.324
			c0.061,0.008,0.123,0.01,0.184,0.017c0.608,0.071,1.221,0.128,1.837,0.17c0.156,0.011,0.312,0.025,0.469,0.034
			c0.727,0.041,1.457,0.068,2.195,0.068c9.622,0,18.72-3.538,25.616-9.963c7.096-6.61,11.004-15.424,11.004-24.817v-7.121
			c0.028-0.129,0.055-0.258,0.081-0.387c4.838,2.217,10.223,3.438,15.819,3.438c0.072,0,0.142-0.006,0.213-0.006
			C203.814,254.689,203.873,254.693,203.934,254.693z M94.295,254.371c0.083,0.011,0.166,0.014,0.249,0.025
			c0.526,0.065,1.054,0.112,1.583,0.155c0.252,0.021,0.503,0.05,0.756,0.066c0.784,0.049,1.57,0.077,2.356,0.077
			c5.34,0,10.486-1.112,15.15-3.14v7.21c0,0.628,0.02,1.252,0.055,1.873c0.01,0.186,0.031,0.369,0.045,0.554
			c0.032,0.435,0.065,0.869,0.114,1.3c0.025,0.218,0.059,0.435,0.088,0.652c0.052,0.394,0.106,0.787,0.172,1.176
			c0.039,0.233,0.087,0.463,0.131,0.695c0.071,0.369,0.144,0.736,0.227,1.101c0.056,0.244,0.117,0.486,0.177,0.728
			c0.087,0.344,0.177,0.687,0.274,1.027c0.073,0.257,0.15,0.512,0.23,0.766c0.099,0.315,0.202,0.629,0.309,0.94
			c0.094,0.271,0.189,0.542,0.29,0.811c0.105,0.28,0.216,0.558,0.328,0.835c0.118,0.293,0.237,0.585,0.364,0.874
			c0.102,0.233,0.211,0.463,0.319,0.693c0.15,0.323,0.299,0.647,0.46,0.965c0.077,0.153,0.161,0.303,0.241,0.454
			c0.946,1.808,2.056,3.533,3.319,5.159c0.062,0.08,0.122,0.162,0.185,0.242c0.269,0.34,0.549,0.673,0.831,1.004
			c0.112,0.131,0.222,0.263,0.336,0.392c0.258,0.294,0.523,0.582,0.792,0.868c0.157,0.167,0.314,0.332,0.474,0.496
			c0.243,0.248,0.488,0.494,0.738,0.736c0.215,0.208,0.435,0.412,0.655,0.615c0.209,0.192,0.418,0.385,0.632,0.572
			c0.325,0.285,0.657,0.562,0.993,0.836c0.098,0.079,0.19,0.164,0.289,0.243l-16.664,89.208h-41.77L94.295,254.371z
			 M430.416,455.544H81.584v-19.191h348.832V455.544z M492,416.353h-51.584H71.584H20V394.58h36.704H119.1h0.001h82.437h108.926
			H392.9h0.001h62.396H492V416.353z"/>
	</g>
</g>
<g>
</g>
<g>
</g>
<g>
</g>
<g>
</g>
<g>
</g>
<g>
</g>
<g>
</g>
<g>
</g>
<g>
</g>
<g>
</g>
<g>
</g>
<g>
</g>
<g>
</g>
<g>
</g>
<g>
</g>
</svg>
