<?xml version="1.0" encoding="iso-8859-1"?>
<!-- Generator: Adobe Illustrator 19.0.0, SVG Export Plug-In . SVG Version: 6.00 Build 0)  -->
<svg version="1.1" id="Capa_1" xmlns="http://www.w3.org/2000/svg" xmlns:xlink="http://www.w3.org/1999/xlink" x="0px" y="0px"
	 viewBox="0 0 512.001 512.001" style="enable-background:new 0 0 512.001 512.001;" xml:space="preserve">
<g>
	<g>
		<path d="M173.428,43.287H92.573c-27.177,0-49.287,22.109-49.287,49.286v80.855c0,27.177,22.11,49.286,49.287,49.286h80.855
			c27.177,0,49.287-22.109,49.287-49.286V92.573C222.714,65.396,200.605,43.287,173.428,43.287z M202.715,173.428h-0.001
			c0,16.148-13.138,29.286-29.287,29.286H92.573c-16.149,0-29.287-13.138-29.287-29.286V92.573
			c0-16.148,13.138-29.286,29.287-29.286h80.855c16.149,0,29.287,13.138,29.287,29.286V173.428z"/>
	</g>
</g>
<g>
	<g>
		<path d="M167.154,88.846H98.846c-5.523,0-10,4.478-10,10v68.308c0,5.523,4.477,10,10,10h68.308c5.523,0,10-4.477,10-10V98.846
			C177.154,93.324,172.677,88.846,167.154,88.846z M157.154,157.154h-48.308v-48.308h48.308V157.154z"/>
	</g>
</g>
<g>
	<g>
		<path d="M512.001,223V43c0-23.71-19.29-43-43-43h-180c-13.245,0-25.106,6.023-33,15.469C248.106,6.023,236.245,0,223.001,0H43
			C19.29,0,0,19.29,0,43v180c0,13.245,6.023,25.106,15.469,33C6.023,263.895,0,275.756,0,289v180c0,23.71,19.29,43,43,43h180.001
			c13.245,0,25.106-6.023,33-15.469c7.894,9.447,19.755,15.469,33,15.469h180c23.71,0,43-19.29,43-43V289
			c0-13.245-6.023-25.106-15.469-33C505.978,248.107,512.001,236.245,512.001,223z M246.001,469c0,12.683-10.318,23-23,23H43
			c-12.682,0-23-10.317-23-23V289c0-12.683,10.318-23,23-23h180.001c12.682,0,23,10.317,23,23V469z M246.001,223
			c0,12.683-10.318,23-23,23H43c-12.682,0-23-10.317-23-23V43c0-12.683,10.318-23,23-23h180.001c12.682,0,23,10.317,23,23V223z
			 M256.001,261.469c-1.656-1.982-3.487-3.813-5.469-5.469c1.982-1.656,3.813-3.487,5.469-5.469
			c1.656,1.982,3.487,3.813,5.469,5.469C259.488,257.656,257.657,259.487,256.001,261.469z M492.001,469c0,12.683-10.318,23-23,23
			h-180c-12.682,0-23-10.317-23-23V289c0-12.683,10.318-23,23-23h180c12.682,0,23,10.318,23,23V469z M492.001,223
			c0,12.683-10.318,23-23,23h-180c-12.682,0-23-10.317-23-23V43c0-12.683,10.318-23,23-23h180c12.682,0,23,10.317,23,23V223z"/>
	</g>
</g>
<g>
	<g>
		<path d="M452.724,49.277H305.278c-5.523,0-10,4.478-10,10v147.446c0,5.522,4.477,10,10,10h147.446c5.523,0,10-4.478,10-10V59.277
			C462.724,53.755,458.247,49.277,452.724,49.277z M442.724,196.724H315.278V69.277h127.446V196.724z"/>
	</g>
</g>
<g>
	<g>
		<path d="M379.001,82.411c-27.895,0-50.589,22.694-50.589,50.589s22.694,50.589,50.589,50.589
			c27.895,0,50.589-22.694,50.589-50.589S406.896,82.411,379.001,82.411z M379.001,163.591c-16.867,0-30.589-13.722-30.589-30.589
			s13.722-30.589,30.589-30.589s30.589,13.722,30.589,30.589S395.868,163.591,379.001,163.591z"/>
	</g>
</g>
<g>
	<g>
		<path d="M150.537,280.308h-35.074c-44.749,0-81.155,36.406-81.155,81.156v35.073c0,44.749,36.406,81.155,81.155,81.155h35.074
			c44.749,0,81.155-36.406,81.155-81.155v-35.073C231.692,316.714,195.286,280.308,150.537,280.308z M211.692,396.538
			c0,33.721-27.434,61.155-61.155,61.155h-35.074c-33.721,0-61.155-27.435-61.155-61.155v-35.073
			c0-33.722,27.434-61.156,61.155-61.156h35.074c33.721,0,61.155,27.435,61.155,61.156V396.538z"/>
	</g>
</g>
<g>
	<g>
		<path d="M160.42,328.31c-0.13-0.64-0.32-1.27-0.57-1.87c-0.25-0.6-0.56-1.18-0.92-1.73c-0.37-0.54-0.78-1.05-1.25-1.52
			c-0.46-0.46-0.97-0.87-1.52-1.239c-0.54-0.36-1.12-0.671-1.72-0.921c-0.61-0.25-1.24-0.439-1.87-0.569
			c-1.29-0.26-2.62-0.26-3.91,0c-0.64,0.13-1.27,0.319-1.87,0.569c-0.61,0.25-1.19,0.561-1.73,0.921
			c-0.55,0.369-1.06,0.779-1.52,1.239c-0.46,0.471-0.88,0.98-1.24,1.52c-0.36,0.55-0.67,1.13-0.92,1.73
			c-0.25,0.6-0.44,1.23-0.57,1.87c-0.13,0.65-0.2,1.3-0.2,1.96c0,0.65,0.07,1.3,0.2,1.95c0.13,0.64,0.32,1.271,0.57,1.87
			c0.25,0.6,0.56,1.18,0.92,1.729c0.36,0.54,0.78,1.061,1.24,1.521c0.46,0.46,0.97,0.88,1.52,1.24c0.54,0.359,1.12,0.67,1.73,0.92
			c0.6,0.25,1.23,0.44,1.87,0.569c0.64,0.131,1.3,0.19,1.95,0.19c0.65,0,1.31-0.06,1.96-0.19c0.63-0.13,1.26-0.319,1.87-0.569
			c0.6-0.25,1.18-0.56,1.72-0.92c0.55-0.36,1.06-0.78,1.52-1.24c0.47-0.46,0.88-0.98,1.25-1.521c0.36-0.55,0.67-1.13,0.92-1.729
			c0.25-0.6,0.44-1.23,0.57-1.87c0.13-0.65,0.19-1.3,0.19-1.95C160.61,329.61,160.55,328.96,160.42,328.31z"/>
	</g>
</g>
<g>
	<g>
		<path d="M181.735,351.388c-5.523,0-10,4.478-10,10v35.226c0,11.646-9.475,21.122-21.122,21.122h-35.225
			c-11.647,0-21.123-9.476-21.123-21.122v-35.226c0-11.646,9.476-21.122,21.123-21.122c5.523,0,10-4.477,10-10
			c0-5.522-4.477-10-10-10c-22.675,0-41.123,18.447-41.123,41.122v35.226c0,22.675,18.448,41.122,41.123,41.122h35.225
			c22.675,0,41.122-18.447,41.122-41.122v-35.226C191.735,355.866,187.258,351.388,181.735,351.388z"/>
	</g>
</g>
<g>
	<g>
		<path d="M426.158,282.558h-94.314c-27.176,0-49.286,22.11-49.286,49.287v94.313c0,27.177,22.11,49.286,49.286,49.286h94.314
			c27.176,0,49.286-22.109,49.286-49.286v-94.313C475.444,304.668,453.334,282.558,426.158,282.558z M455.444,426.157
			c0,16.148-13.138,29.286-29.286,29.286h-94.314c-16.148,0-29.286-13.138-29.286-29.286v-94.313
			c0-16.15,13.138-29.287,29.286-29.287h94.314c16.148,0,29.286,13.138,29.286,29.287V426.157z"/>
	</g>
</g>
<g>
	<g>
		<path d="M433.756,363.292l-39.047-39.047c-8.662-8.662-22.756-8.662-31.418,0l-39.047,39.047
			c-4.196,4.196-6.507,9.774-6.507,15.709s2.312,11.512,6.508,15.709l39.047,39.048c4.331,4.331,10.02,6.496,15.709,6.496
			c5.689,0,11.378-2.165,15.709-6.496l39.046-39.048c4.196-4.196,6.507-9.774,6.507-15.709
			C440.263,373.066,437.952,367.488,433.756,363.292z M419.614,380.566l-39.047,39.048c-0.863,0.865-2.27,0.865-3.133,0
			l-39.047-39.048c-0.537-0.536-0.649-1.147-0.649-1.566c0-0.418,0.112-1.03,0.649-1.566l39.047-39.047
			c0.432-0.433,0.999-0.648,1.567-0.648c0.567,0,1.135,0.216,1.566,0.648l39.047,39.047c0.537,0.536,0.649,1.148,0.649,1.566
			C420.263,379.419,420.151,380.03,419.614,380.566z"/>
	</g>
</g>
<g>
</g>
<g>
</g>
<g>
</g>
<g>
</g>
<g>
</g>
<g>
</g>
<g>
</g>
<g>
</g>
<g>
</g>
<g>
</g>
<g>
</g>
<g>
</g>
<g>
</g>
<g>
</g>
<g>
</g>
</svg>
