<?xml version="1.0" encoding="iso-8859-1"?>
<!-- Generator: Adobe Illustrator 19.0.0, SVG Export Plug-In . SVG Version: 6.00 Build 0)  -->
<svg version="1.1" id="Capa_1" xmlns="http://www.w3.org/2000/svg" xmlns:xlink="http://www.w3.org/1999/xlink" x="0px" y="0px"
	 viewBox="0 0 512 512" style="enable-background:new 0 0 512 512;" xml:space="preserve">
<g>
	<g>
		<path d="M188.359,47.08c-0.13-0.64-0.319-1.27-0.569-1.87c-0.25-0.6-0.56-1.18-0.92-1.73c-0.36-0.54-0.78-1.06-1.24-1.52
			c-0.46-0.46-0.97-0.88-1.52-1.24c-0.54-0.36-1.13-0.67-1.73-0.92s-1.23-0.44-1.87-0.57c-1.29-0.26-2.62-0.26-3.91,0
			c-0.63,0.13-1.26,0.32-1.87,0.57c-0.6,0.25-1.18,0.56-1.72,0.92c-0.55,0.36-1.06,0.78-1.52,1.24c-0.471,0.46-0.881,0.98-1.25,1.52
			c-0.36,0.55-0.671,1.13-0.921,1.73c-0.25,0.6-0.439,1.23-0.569,1.87c-0.13,0.65-0.19,1.3-0.19,1.95c0,0.66,0.061,1.31,0.19,1.96
			c0.13,0.64,0.319,1.27,0.569,1.87c0.25,0.6,0.561,1.18,0.921,1.73c0.369,0.54,0.779,1.05,1.25,1.52c0.46,0.46,0.97,0.87,1.52,1.24
			c0.54,0.36,1.12,0.67,1.72,0.92c0.61,0.25,1.24,0.44,1.87,0.57c0.65,0.13,1.311,0.19,1.96,0.19c0.65,0,1.311-0.06,1.95-0.19
			c0.64-0.13,1.271-0.32,1.87-0.57c0.6-0.25,1.189-0.56,1.73-0.92c0.551-0.37,1.061-0.78,1.52-1.24c0.46-0.47,0.88-0.98,1.24-1.52
			c0.359-0.55,0.67-1.13,0.92-1.73c0.25-0.6,0.44-1.23,0.569-1.87c0.131-0.65,0.2-1.3,0.2-1.96
			C188.559,48.38,188.49,47.73,188.359,47.08z"/>
	</g>
</g>
<g>
	<g>
		<path d="M424.763,195.448l-9.744-36.384c-1.428-5.334-6.906-8.503-12.246-7.073l-4.626,1.239V68.112
			c0-4.33-2.787-8.168-6.904-9.509c-9.232-3.006-15.436-11.552-15.436-21.265c0-2.878,0.545-5.689,1.619-8.352
			c1.291-3.199,0.842-6.837-1.189-9.626c-2.029-2.789-5.35-4.338-8.795-4.09c-0.652,0.046-1.172,0.068-1.636,0.068
			c-7.795,0-14.906-3.965-19.023-10.607C344.96,1.79,341.745,0,338.284,0h-214.43c-5.522,0-10,4.477-10,10v219.366L94.31,234.6
			c-2.562,0.686-4.746,2.362-6.072,4.659c-1.327,2.296-1.687,5.026-1,7.588l9.744,36.384c1.047,3.909,4.271,6.654,8.019,7.28
			v170.542c0,4.605,3.117,8.473,7.353,9.634l-7.068,28.94c-0.728,2.982-0.046,6.134,1.85,8.548C109.03,510.59,111.931,512,115,512
			h282c3.069,0,5.97-1.41,7.865-3.824c1.896-2.415,2.577-5.566,1.85-8.548l-7.068-28.94c4.236-1.162,7.353-5.029,7.353-9.634
			V210.557l10.69-2.863c2.562-0.686,4.746-2.362,6.072-4.659C425.09,200.739,425.449,198.01,424.763,195.448z M343.443,121h10.891
			c5.522,0,10-4.477,10-10s-4.478-10-10-10h-10.891V28.992c3.832,2.384,8.039,4.142,12.48,5.196
			c-0.077,1.045-0.116,2.095-0.116,3.15c0,15.858,8.729,30.074,22.34,37.344v83.904l-34.704,9.294V121z M266,20h57.442v81H266V20z
			 M266,121h57.442v52.236L316.855,175H266V121z M133.854,20H246v81h-57.442V86.368c0-5.523-4.478-10-10-10c-5.522,0-10,4.477-10,10
			V101H149c-5.523,0-10,4.477-10,10s4.477,10,10,10h19.558v54H149c-5.523,0-10,4.477-10,10s4.477,10,10,10h19.558v19.715
			l-34.704,9.294V20z M188.558,175v-54H246v54H188.558z M242.175,195l-53.617,14.359V195H242.175z M127.736,492l5.115-20.947
			h246.297L384.264,492H127.736z M387,451.053H125V286.079l262-70.166V451.053z M394.416,193.222c-0.001,0-0.002,0-0.004,0.001
			l-233.241,62.464l-47.459,12.71l-4.57-17.065l17.296-4.632c0.001,0,0.002,0,0.002,0l264.294-70.78l7.553-2.023l4.57,17.065
			L394.416,193.222z"/>
	</g>
</g>
<g>
	<g>
		<path d="M363.05,410.13c-0.12-0.64-0.32-1.27-0.57-1.87c-0.25-0.6-0.56-1.18-0.92-1.73c-0.359-0.54-0.779-1.05-1.24-1.52
			c-0.46-0.46-0.97-0.87-1.52-1.24c-0.54-0.36-1.12-0.67-1.73-0.92c-0.6-0.25-1.229-0.44-1.869-0.57c-1.29-0.26-2.61-0.26-3.9,0
			c-0.64,0.13-1.27,0.32-1.88,0.57c-0.601,0.25-1.18,0.56-1.72,0.92c-0.551,0.37-1.061,0.78-1.521,1.24
			c-0.46,0.47-0.88,0.98-1.24,1.52c-0.37,0.55-0.67,1.13-0.92,1.73c-0.25,0.6-0.45,1.23-0.58,1.87c-0.13,0.65-0.19,1.3-0.19,1.96
			c0,0.65,0.06,1.31,0.19,1.95c0.129,0.64,0.33,1.27,0.58,1.87c0.25,0.6,0.55,1.18,0.92,1.73c0.36,0.54,0.78,1.05,1.24,1.52
			c0.46,0.46,0.97,0.87,1.521,1.24c0.54,0.36,1.119,0.67,1.72,0.92c0.61,0.25,1.24,0.44,1.88,0.57s1.3,0.2,1.95,0.2
			c0.649,0,1.31-0.07,1.95-0.2s1.27-0.32,1.869-0.57c0.61-0.25,1.19-0.56,1.73-0.92c0.55-0.37,1.06-0.78,1.52-1.24
			c0.461-0.47,0.881-0.98,1.24-1.52c0.36-0.55,0.67-1.13,0.92-1.73c0.25-0.6,0.45-1.23,0.57-1.87c0.13-0.64,0.2-1.3,0.2-1.95
			C363.25,411.43,363.18,410.78,363.05,410.13z"/>
	</g>
</g>
<g>
	<g>
		<path d="M315.916,402.085h-28.134c12.344-9.309,25.182-20.195,29.967-28.324c3.809-6.471,8.792-16.728,8.107-31.047
			c-1.158-24.198-19.108-43.154-40.863-43.154c-12.073,0-22.373,5.637-28.881,10.358c-6.411-4.753-16.617-10.358-29.104-10.358
			c-21.755,0-39.705,18.955-40.864,43.155c-0.686,14.349,4.302,24.596,8.112,31.054c4.765,8.079,17.662,18.983,30.057,28.316H158.75
			c-5.523,0-10,4.477-10,10s4.477,10,10,10h157.166c5.523,0,10-4.477,10-10S321.439,402.085,315.916,402.085z M211.481,363.607
			c-4.094-6.939-5.697-12.902-5.361-19.936c0.638-13.294,10.008-24.11,20.888-24.11c12.114,0,21.467,10.106,21.52,10.164
			c1.853,2.083,4.508,3.281,7.296,3.336c2.767,0.067,5.488-1.076,7.421-3.085c0.101-0.104,10.148-10.414,21.748-10.414
			c10.88,0,20.25,10.816,20.887,24.11c0.336,7.02-1.268,12.985-5.366,19.945c-4.544,7.719-27.099,24.773-44.457,36.476
			C238.629,388.344,215.994,371.257,211.481,363.607z"/>
	</g>
</g>
<g>
</g>
<g>
</g>
<g>
</g>
<g>
</g>
<g>
</g>
<g>
</g>
<g>
</g>
<g>
</g>
<g>
</g>
<g>
</g>
<g>
</g>
<g>
</g>
<g>
</g>
<g>
</g>
<g>
</g>
</svg>
