<?xml version="1.0" encoding="iso-8859-1"?>
<!-- Generator: Adobe Illustrator 19.0.0, SVG Export Plug-In . SVG Version: 6.00 Build 0)  -->
<svg version="1.1" id="Capa_1" xmlns="http://www.w3.org/2000/svg" xmlns:xlink="http://www.w3.org/1999/xlink" x="0px" y="0px"
	 viewBox="0 0 512 512" style="enable-background:new 0 0 512 512;" xml:space="preserve">
<g>
	<g>
		<path d="M502,348.594h-3.978v-30.3v-132v-30.916c0-26.066-21.206-47.273-47.272-47.273H338.513
			c22.165-24.423,24.325-63.909,24.417-65.836c0.199-4.187-2.233-8.054-6.094-9.686c-2.061-0.872-50.882-21.109-84.545,0.071
			c-6.514,4.099-11.872,9.383-16.284,15.252c-4.741-6.297-10.186-11.406-16.298-15.252c-33.662-21.178-82.482-0.944-84.545-0.071
			c-3.86,1.632-6.293,5.499-6.094,9.686c0.091,1.927,2.252,41.413,24.417,65.836h-56.706H61.25
			c-26.066,0-47.272,21.206-47.272,47.273v193.216H10c-5.523,0-10,4.477-10,10v45.5c0,5.522,4.477,10,10,10h183.542
			c-13.108,14.923-20.637,34.25-20.637,54.761v10.12c0,5.522,4.477,10,10,10h146.38c5.522,0,10-4.478,10-10v-10.12
			c0-20.509-7.53-39.838-20.638-54.761H502c5.522,0,10-4.478,10-10v-45.5C512,353.071,507.522,348.594,502,348.594z M258.683,90.346
			c1.409-5.842,3.446-12.384,6.387-18.72c0.085-0.183,0.15-0.372,0.223-0.559c4.023-8.511,9.683-16.472,17.648-21.484
			c18.701-11.763,46.558-5.073,59.301-1c-2.126,15.432-9.164,41.961-26.619,52.943c-7.224,4.544-15.814,6.328-24.372,6.579h-4.397
			c-12.016-0.341-23.489-3.332-30.47-5.56C256.846,99.231,257.569,95.005,258.683,90.346z M169.81,48.501
			c14.83-4.763,41.793-9.9,59.249,1.082c6.2,3.901,11.541,9.987,15.912,18.123c-1.603,3.929-2.93,7.848-4.035,11.622
			c-0.011,0.037-0.021,0.073-0.032,0.11c-0.12,0.413-0.239,0.825-0.354,1.235c-0.075,0.264-0.146,0.526-0.219,0.789
			c-0.05,0.181-0.101,0.363-0.15,0.544c-3.137,11.568-4.144,21.342-4.438,25.171c-3.422,0.492-7.002,0.827-10.629,0.928h-4.537
			c-8.505-0.27-17.028-2.066-24.2-6.579C177.677,89.76,171.651,61.753,169.81,48.501z M126.781,162.199h262.555
			c5.522,0,10-4.478,10-10c0-5.522-4.478-10-10-10H126.781v-14.094H450.75c15.038,0,27.272,12.235,27.272,27.273v20.916H126.781
			V162.199z M126.781,196.294h351.241v77.667H215.115c-5.522,0-10,4.478-10,10c0,5.522,4.478,10,10,10h262.907v14.333H126.781
			V196.294z M126.781,328.294h351.241v20.3H126.781V328.294z M33.978,155.378c0-15.038,12.234-27.273,27.272-27.273h45.531v58.189
			v132v30.3H33.978V155.378z M492,394.094H290.065c-4.596,0-8.6,3.133-9.706,7.594c-1.106,4.461,0.971,9.101,5.034,11.248
			c20.906,11.046,33.893,32.473,33.893,55.919v0.12h-126.38v-0.12c0-23.446,12.986-44.873,33.892-55.919
			c4.063-2.148,6.141-6.788,5.034-11.248c-1.107-4.461-5.11-7.594-9.706-7.594H20v-25.5h13.472h83.31h371.241H492V394.094z"/>
	</g>
</g>
<g>
	<g>
		<path d="M436.479,150.243c-0.13-0.64-0.33-1.27-0.58-1.87s-0.56-1.18-0.92-1.72c-0.359-0.55-0.779-1.06-1.239-1.52
			c-0.46-0.471-0.971-0.881-1.521-1.25c-0.54-0.36-1.12-0.671-1.729-0.921c-0.601-0.25-1.23-0.439-1.87-0.569
			c-1.29-0.26-2.61-0.26-3.9,0c-0.64,0.13-1.27,0.319-1.87,0.569c-0.609,0.25-1.189,0.561-1.73,0.921
			c-0.551,0.369-1.06,0.779-1.52,1.25c-0.46,0.46-0.88,0.97-1.25,1.52c-0.359,0.54-0.66,1.12-0.91,1.72
			c-0.25,0.601-0.449,1.23-0.58,1.87c-0.13,0.65-0.19,1.3-0.19,1.96c0,0.65,0.06,1.3,0.19,1.95c0.13,0.64,0.33,1.27,0.58,1.87
			c0.25,0.6,0.551,1.18,0.91,1.73c0.37,0.54,0.79,1.051,1.25,1.52c0.46,0.46,0.97,0.88,1.52,1.24c0.54,0.359,1.12,0.67,1.73,0.92
			c0.601,0.25,1.23,0.44,1.87,0.569c0.64,0.131,1.3,0.2,1.95,0.2c0.649,0,1.31-0.069,1.95-0.2c0.64-0.13,1.27-0.319,1.87-0.569
			c0.609-0.25,1.189-0.56,1.729-0.92c0.55-0.36,1.061-0.78,1.521-1.24c0.46-0.47,0.88-0.98,1.239-1.52
			c0.36-0.55,0.67-1.13,0.92-1.73c0.25-0.601,0.45-1.23,0.58-1.87c0.13-0.65,0.19-1.3,0.19-1.95
			C436.669,151.543,436.609,150.893,436.479,150.243z"/>
	</g>
</g>
<g>
	<g>
		<path d="M187.579,282.003c-0.12-0.63-0.32-1.26-0.57-1.869c-0.24-0.601-0.55-1.181-0.91-1.721c-0.37-0.55-0.79-1.059-1.25-1.519
			s-0.97-0.88-1.52-1.25c-0.54-0.36-1.12-0.67-1.73-0.92c-0.6-0.25-1.229-0.44-1.87-0.57c-1.279-0.26-2.609-0.26-3.899,0
			c-0.641,0.13-1.27,0.32-1.87,0.57c-0.61,0.25-1.191,0.56-1.73,0.92c-0.55,0.37-1.06,0.79-1.52,1.25
			c-0.46,0.46-0.88,0.97-1.24,1.519c-0.36,0.54-0.67,1.12-0.92,1.721c-0.25,0.609-0.45,1.239-0.57,1.869
			c-0.13,0.65-0.199,1.311-0.199,1.96c0,0.65,0.069,1.311,0.199,1.95c0.12,0.641,0.32,1.27,0.57,1.87c0.25,0.61,0.56,1.19,0.92,1.73
			c0.36,0.55,0.78,1.06,1.24,1.52c0.46,0.46,0.97,0.88,1.52,1.24c0.54,0.36,1.12,0.67,1.73,0.92c0.6,0.25,1.229,0.44,1.87,0.57
			c0.64,0.13,1.3,0.199,1.95,0.199c0.649,0,1.309-0.069,1.949-0.199c0.641-0.13,1.27-0.32,1.87-0.57c0.61-0.25,1.19-0.56,1.73-0.92
			c0.55-0.36,1.06-0.78,1.52-1.24c0.46-0.46,0.88-0.97,1.25-1.52c0.36-0.54,0.67-1.12,0.91-1.73c0.25-0.6,0.45-1.229,0.57-1.87
			c0.13-0.64,0.2-1.3,0.2-1.95C187.779,283.314,187.709,282.654,187.579,282.003z"/>
	</g>
</g>
<g>
</g>
<g>
</g>
<g>
</g>
<g>
</g>
<g>
</g>
<g>
</g>
<g>
</g>
<g>
</g>
<g>
</g>
<g>
</g>
<g>
</g>
<g>
</g>
<g>
</g>
<g>
</g>
<g>
</g>
</svg>
