<?xml version="1.0" encoding="iso-8859-1"?>
<!-- Generator: Adobe Illustrator 19.0.0, SVG Export Plug-In . SVG Version: 6.00 Build 0)  -->
<svg version="1.1" id="Capa_1" xmlns="http://www.w3.org/2000/svg" xmlns:xlink="http://www.w3.org/1999/xlink" x="0px" y="0px"
	 viewBox="0 0 512.002 512.002" style="enable-background:new 0 0 512.002 512.002;" xml:space="preserve">
<g>
	<g>
		<path d="M512.001,400.189c0-21.534-17.519-39.053-39.053-39.053h-33.03c10.216-16.917,12.422-37.921,5.284-56.914
			c-1.576-4.194-3.567-8.204-5.922-11.919c-2.59-4.084-5.639-7.889-9.06-11.31l-42.101-42.101l-33.827-33.827l-50.74-50.74
			l-33.827-33.827L231.008,81.78c-3.424-3.424-7.23-6.472-11.31-9.06c-0.003-0.002-0.005-0.003-0.007-0.004
			c-0.001-0.001-0.001-0.001-0.001-0.001c-12.356-7.815-27.21-11.271-41.821-9.739c-9.59,1.007-18.818,4.162-27.003,9.111V39.053
			C150.865,17.519,133.347,0,111.813,0C94.629,0,80.002,11.155,74.794,26.604c-13.198-3.727-27.814-0.289-38.145,10.043
			c-10.333,10.332-13.77,24.949-10.044,38.146C11.156,80.001,0.001,94.628,0.001,111.812c0,21.534,17.519,39.053,39.053,39.053
			h32.75c-10.594,17.038-12.968,38.373-5.727,57.64c1.576,4.194,3.568,8.203,5.923,11.919c2.59,4.083,5.639,7.888,9.059,11.308
			l38.718,38.719c0.003,0.003,0.007,0.006,0.01,0.009l33.817,33.817l50.74,50.74l33.817,33.817c0.003,0.003,0.006,0.007,0.009,0.01
			l42.101,42.1c3.421,3.421,7.226,6.47,11.309,9.06c0.001,0,0.002,0.001,0.003,0.001c0.003,0.002,0.005,0.004,0.008,0.005
			c10.439,6.603,22.657,10.095,35.011,10.095c2.269,0,4.543-0.117,6.811-0.355c9.873-1.037,19.364-4.351,27.727-9.557v32.756
			c0,21.534,17.519,39.053,39.053,39.053c17.184,0,31.81-11.155,37.018-26.604c13.197,3.724,27.815,0.289,38.146-10.043
			c10.332-10.332,13.77-24.948,10.043-38.145C500.846,431.999,512.001,417.372,512.001,400.189z M39.055,130.863
			c-10.507,0.001-19.054-8.546-19.054-19.051c0-10.506,8.547-19.053,19.053-19.053h2.809c3.874,0,7.399-2.237,9.049-5.743
			c1.649-3.506,1.125-7.648-1.346-10.633c-6.291-7.601-5.765-18.603,1.226-25.594c6.988-6.987,17.991-7.515,25.593-1.225
			c2.984,2.471,7.127,2.995,10.633,1.346c3.506-1.649,5.743-5.175,5.743-9.049v-2.809c0-10.506,8.547-19.053,19.053-19.053
			c10.506,0,19.053,8.547,19.053,19.053v50.33l-20.893,20.893l-20.589,20.588H39.055z M95.194,153.34l28.91-28.911l23.833-23.832
			c0.003-0.003,0.006-0.006,0.009-0.01l4.672-4.672c8.715-8.715,20.448-13.236,32.246-13.236c4.09,0,8.187,0.552,12.169,1.654
			L83.594,197.773C79.186,182.073,83.538,164.995,95.194,153.34z M118.156,240.544l71.523-71.522c3.905-3.905,3.905-10.237,0-14.143
			c-3.905-3.903-10.235-3.904-14.143,0l-71.523,71.522l-8.815-8.814c-0.522-0.522-1.027-1.063-1.524-1.61l84.237-84.239
			c0.106-0.077,0.194-0.169,0.271-0.271l37.07-37.07c0.548,0.497,1.089,1.002,1.612,1.526l31.648,31.646L126.847,249.235
			L118.156,240.544z M140.99,263.377l121.664-121.666l19.685,19.685L160.674,283.061L140.99,263.377z M174.816,297.204
			l121.665-121.665l12.919,12.919L187.735,310.123L174.816,297.204z M201.878,324.266l121.665-121.665l9.536,9.536L211.414,333.802
			L201.878,324.266z M225.557,347.944l121.665-121.665l19.685,19.685L245.241,367.628L225.557,347.944z M294.413,416.801
			l-8.814-8.814l71.522-71.523c3.905-3.905,3.905-10.237,0-14.143c-3.906-3.904-10.236-3.904-14.143,0l-71.522,71.523
			l-12.074-12.074l121.666-121.665l35.031,35.032c0.523,0.523,1.028,1.063,1.525,1.611l-121.58,121.578
			C295.476,417.829,294.936,417.324,294.413,416.801z M364.066,411.402l-0.001,0.001l-5.404,5.404
			c-11.739,11.74-28.954,15.865-44.419,11.586l113.443-113.442c4.408,15.699,0.057,32.777-11.599,44.432l-4.672,4.672
			c-0.003,0.003-0.007,0.006-0.01,0.009L364.066,411.402z M472.948,419.241h-2.809c-3.874,0-7.399,2.237-9.049,5.743
			c-1.649,3.506-1.125,7.648,1.346,10.633c6.291,7.601,5.764,18.604-1.225,25.594c-6.987,6.988-17.991,7.515-25.593,1.225
			c-2.985-2.472-7.128-2.996-10.633-1.346c-3.506,1.649-5.743,5.175-5.743,9.049v2.809c0,10.506-8.547,19.053-19.053,19.053
			c-10.506,0-19.053-8.547-19.053-19.053v-50.331l41.481-41.48h50.33c10.506,0,19.053,8.547,19.053,19.053
			C492.001,410.694,483.454,419.241,472.948,419.241z"/>
	</g>
</g>
<g>
	<g>
		<path d="M217.67,134.74c-0.13-0.641-0.32-1.271-0.57-1.87c-0.25-0.61-0.56-1.19-0.92-1.73c-0.369-0.55-0.78-1.06-1.24-1.52
			c-0.47-0.46-0.979-0.88-1.52-1.24c-0.55-0.36-1.13-0.67-1.73-0.92c-0.6-0.25-1.229-0.44-1.87-0.57c-1.289-0.26-2.619-0.26-3.909,0
			c-0.641,0.13-1.271,0.32-1.87,0.57c-0.6,0.25-1.181,0.56-1.73,0.92c-0.54,0.36-1.05,0.78-1.51,1.24
			c-0.47,0.46-0.88,0.97-1.25,1.52c-0.36,0.54-0.67,1.12-0.92,1.73c-0.25,0.6-0.44,1.229-0.57,1.87c-0.13,0.64-0.2,1.3-0.2,1.949
			c0,0.65,0.07,1.311,0.2,1.96c0.13,0.63,0.32,1.261,0.57,1.87c0.25,0.601,0.56,1.181,0.92,1.721c0.37,0.55,0.78,1.06,1.25,1.52
			c0.46,0.46,0.97,0.88,1.51,1.25c0.55,0.36,1.13,0.67,1.73,0.92c0.6,0.24,1.23,0.44,1.87,0.561c0.649,0.13,1.3,0.199,1.949,0.199
			c0.66,0,1.311-0.069,1.96-0.199c0.641-0.12,1.27-0.32,1.87-0.561c0.6-0.25,1.181-0.56,1.73-0.92c0.54-0.37,1.05-0.79,1.52-1.25
			c0.46-0.46,0.87-0.97,1.24-1.52c0.36-0.54,0.67-1.12,0.92-1.721c0.25-0.609,0.44-1.24,0.57-1.87c0.13-0.649,0.189-1.31,0.189-1.96
			C217.859,136.039,217.799,135.379,217.67,134.74z"/>
	</g>
</g>
<g>
	<g>
		<path d="M385.11,302.179c-0.13-0.64-0.319-1.27-0.569-1.87c-0.25-0.6-0.561-1.19-0.92-1.729c-0.36-0.551-0.78-1.061-1.24-1.521
			c-2.33-2.319-5.78-3.389-9.03-2.729c-0.63,0.13-1.26,0.319-1.87,0.569c-0.6,0.25-1.18,0.561-1.72,0.92
			c-0.55,0.36-1.06,0.78-1.52,1.24c-0.471,0.46-0.881,0.97-1.25,1.521c-0.36,0.54-0.671,1.13-0.921,1.729
			c-0.25,0.601-0.439,1.23-0.569,1.87c-0.13,0.64-0.19,1.3-0.19,1.95c0,0.66,0.06,1.31,0.19,1.96c0.13,0.64,0.319,1.27,0.569,1.87
			c0.25,0.6,0.561,1.18,0.921,1.73c0.369,0.54,0.779,1.051,1.25,1.511c0.46,0.47,0.97,0.88,1.52,1.25
			c0.54,0.359,1.12,0.67,1.72,0.92c0.61,0.25,1.24,0.44,1.87,0.569c0.65,0.13,1.311,0.19,1.96,0.19c0.65,0,1.31-0.061,1.95-0.19
			c0.64-0.13,1.271-0.319,1.87-0.569c0.61-0.25,1.189-0.56,1.729-0.92c0.551-0.37,1.06-0.78,1.521-1.25
			c0.46-0.46,0.88-0.971,1.24-1.511c0.359-0.55,0.67-1.13,0.92-1.73c0.25-0.601,0.439-1.23,0.569-1.87c0.131-0.65,0.2-1.3,0.2-1.96
			C385.31,303.479,385.241,302.818,385.11,302.179z"/>
	</g>
</g>
<g>
</g>
<g>
</g>
<g>
</g>
<g>
</g>
<g>
</g>
<g>
</g>
<g>
</g>
<g>
</g>
<g>
</g>
<g>
</g>
<g>
</g>
<g>
</g>
<g>
</g>
<g>
</g>
<g>
</g>
</svg>
