<?xml version="1.0" encoding="iso-8859-1"?>
<!-- Generator: Adobe Illustrator 19.0.0, SVG Export Plug-In . SVG Version: 6.00 Build 0)  -->
<svg version="1.1" id="Capa_1" xmlns="http://www.w3.org/2000/svg" xmlns:xlink="http://www.w3.org/1999/xlink" x="0px" y="0px"
	 viewBox="0 0 512.003 512.003" style="enable-background:new 0 0 512.003 512.003;" xml:space="preserve">
<g>
	<g>
		<path d="M499.416,370.442l-50.737-26.257c0.442-0.682,0.87-1.37,1.286-2.066c10.059-16.823,12.515-37.489,6.162-56.466
			c-0.263-0.786-0.541-1.569-0.834-2.349c-0.007-0.018-0.016-0.035-0.022-0.053c-3.404-9.058-8.627-17.152-15.527-24.054
			L315.117,134.572l-27.161-27.161c-0.001-0.001-0.001-0.001-0.002-0.002l-35.15-35.15c-23.051-23.051-58.682-26.027-84.992-8.945
			L141.56,12.586c-4.217-8.149-12.564-12.967-21.697-12.562c-9.167,0.4-17.03,5.92-20.521,14.406l-5.816,14.137L91.683,29.3
			C63.324,40.589,40.586,63.327,29.299,91.684l-0.733,1.842l-14.138,5.816c-8.485,3.491-14.005,11.354-14.405,20.521
			c-0.4,9.167,4.413,17.481,12.563,21.699l51.741,26.776c-9.203,16.493-11.285,36.388-5.151,54.71
			c0.263,0.786,0.541,1.569,0.834,2.349c0.007,0.018,0.015,0.035,0.022,0.053c3.405,9.06,8.627,17.154,15.527,24.054l62.313,62.313
			l89.474,89.474c0.002,0.002,0.005,0.004,0.007,0.007l35.145,35.145c12.828,12.828,29.883,19.893,48.024,19.893
			c11.803,0,23.138-3.009,33.156-8.632l26.763,51.714c4.054,7.834,11.894,12.585,20.639,12.585c0.352,0,0.705-0.008,1.059-0.023
			c9.167-0.4,17.03-5.92,20.522-14.406l5.816-14.137l1.842-0.733c28.358-11.289,51.097-34.028,62.384-62.384l0.733-1.842
			l14.138-5.816c8.485-3.49,14.005-11.353,14.405-20.52C512.379,382.975,507.565,374.659,499.416,370.442z M170.89,86.41
			l0.147-0.137c0.145-0.135,0.288-0.27,0.431-0.408c0.017-0.016,0.031-0.034,0.048-0.051c8.977-8.672,20.751-13.448,33.264-13.448
			c12.798,0,24.831,4.984,33.881,14.035l18.081,18.081H152.818L170.89,86.41z M21.776,123.8c-1.622-0.841-1.807-2.281-1.773-3.065
			c0.034-0.784,0.345-2.202,2.034-2.897l18.057-7.428c2.505-1.03,4.484-3.033,5.486-5.549l2.301-5.78
			c9.264-23.273,27.925-41.934,51.198-51.199l5.78-2.301c2.516-1.002,4.519-2.982,5.549-5.486l7.429-18.056
			c0.695-1.69,2.113-2,2.897-2.034c0.052-0.002,0.106-0.003,0.163-0.003c0.808,0,2.115,0.261,2.9,1.777l28.455,54.985
			l-53.671,53.671l-21.821,21.82L21.776,123.8z M76.807,211.877c-0.005-0.025-0.012-0.049-0.017-0.074
			c-0.193-0.877-0.355-1.757-0.497-2.639c-0.025-0.152-0.05-0.304-0.074-0.457c-0.131-0.864-0.237-1.729-0.32-2.596
			c-0.015-0.153-0.027-0.305-0.04-0.458c-0.076-0.885-0.132-1.77-0.16-2.655c-0.003-0.092-0.002-0.183-0.005-0.275
			c-0.022-0.894-0.021-1.787,0.007-2.678c0.002-0.055,0.001-0.111,0.003-0.166c0.031-0.899,0.093-1.796,0.174-2.691
			c0.012-0.136,0.023-0.272,0.037-0.408c0.086-0.868,0.197-1.732,0.33-2.593c0.022-0.144,0.046-0.288,0.07-0.432
			c0.143-0.871,0.306-1.739,0.496-2.601c0.021-0.095,0.045-0.189,0.066-0.283c0.2-0.88,0.421-1.756,0.671-2.624
			c0.009-0.031,0.017-0.062,0.025-0.093c0.251-0.868,0.533-1.728,0.833-2.582c0.044-0.125,0.086-0.25,0.131-0.375
			c0.296-0.82,0.616-1.632,0.956-2.436c0.059-0.139,0.119-0.277,0.179-0.416c0.351-0.807,0.72-1.606,1.116-2.394
			c0.051-0.101,0.104-0.2,0.156-0.301c0.254-0.497,0.531-0.984,0.802-1.473h152.967c5.523,0,10-4.477,10-10s-4.477-10-10-10H99.122
			l31.171-31.171l2.526-2.526h143.924l87.395,87.395H76.807V211.877z M131.165,276.824l-41.463-41.463
			c-1.118-1.116-2.164-2.282-3.154-3.484h297.591l41.462,41.462c1.117,1.117,2.163,2.283,3.154,3.485H131.165z M151.165,296.824
			h287.33c0.005,0.025,0.012,0.049,0.017,0.074c0.193,0.877,0.355,1.757,0.497,2.639c0.025,0.152,0.05,0.304,0.074,0.456
			c0.131,0.864,0.237,1.729,0.32,2.596c0.014,0.153,0.027,0.305,0.04,0.458c0.076,0.885,0.132,1.77,0.159,2.655
			c0.003,0.092,0.002,0.183,0.005,0.275c0.022,0.893,0.021,1.787-0.007,2.678c-0.002,0.055-0.001,0.11-0.003,0.165
			c-0.031,0.899-0.093,1.796-0.174,2.691c-0.012,0.136-0.023,0.272-0.037,0.408c-0.086,0.867-0.197,1.731-0.33,2.591
			c-0.023,0.146-0.047,0.291-0.07,0.436c-0.143,0.87-0.305,1.738-0.496,2.599c-0.021,0.095-0.045,0.189-0.067,0.284
			c-0.2,0.879-0.421,1.754-0.67,2.621c-0.009,0.032-0.017,0.064-0.026,0.096c-0.251,0.868-0.532,1.727-0.832,2.58
			c-0.044,0.126-0.087,0.252-0.132,0.378c-0.296,0.819-0.615,1.63-0.955,2.433c-0.059,0.14-0.12,0.28-0.18,0.419
			c-0.35,0.805-0.719,1.603-1.114,2.39c-0.052,0.103-0.106,0.204-0.159,0.307c-0.253,0.496-0.529,0.981-0.8,1.469H280.866
			c-5.522,0-10,4.477-10,10s4.478,10,10,10h135.306l-33.694,33.697H238.56L151.165,296.824z M344.36,422.339
			c-1.028,1.025-2.156,2.049-3.359,3.043c-0.052,0.043-0.098,0.091-0.149,0.134c-8.537,7.007-19.142,10.818-30.331,10.818
			c-12.797,0.001-24.831-4.984-33.88-14.035l-18.081-18.08h103.921l-18.08,18.081C344.388,422.313,344.374,422.325,344.36,422.339z
			 M491.997,391.267c-0.034,0.784-0.345,2.202-2.034,2.897l-18.057,7.429c-2.505,1.031-4.484,3.033-5.486,5.549l-2.301,5.78
			c-9.264,23.273-27.925,41.934-51.198,51.199l-5.779,2.3c-2.517,1.001-4.52,2.982-5.55,5.486l-7.429,18.056
			c-0.695,1.69-2.113,2-2.897,2.034c-0.784,0.036-2.223-0.151-3.064-1.773l-28.456-54.985l33.949-33.949l41.542-41.542
			l54.985,28.455C491.846,389.044,492.031,390.484,491.997,391.267z"/>
	</g>
</g>
<g>
	<g>
		<path d="M281.84,166.221c-0.13-0.63-0.32-1.26-0.57-1.87c-0.25-0.6-0.56-1.18-0.92-1.72c-0.37-0.55-0.78-1.06-1.24-1.52
			c-0.46-0.46-0.979-0.88-1.52-1.25c-0.55-0.36-1.13-0.67-1.73-0.92c-0.6-0.25-1.229-0.44-1.869-0.57c-1.29-0.26-2.62-0.26-3.91,0
			c-0.641,0.13-1.271,0.32-1.87,0.57c-0.601,0.25-1.18,0.56-1.73,0.92c-0.54,0.37-1.06,0.79-1.52,1.25
			c-0.46,0.46-0.88,0.97-1.24,1.52c-0.36,0.54-0.67,1.12-0.92,1.72c-0.25,0.61-0.44,1.24-0.57,1.87
			c-0.13,0.65-0.199,1.31-0.199,1.96c0,0.65,0.069,1.31,0.199,1.95s0.32,1.27,0.57,1.87c0.25,0.61,0.56,1.19,0.92,1.73
			c0.36,0.55,0.78,1.06,1.24,1.52c0.46,0.46,0.98,0.88,1.52,1.24c0.551,0.36,1.13,0.67,1.73,0.92c0.6,0.25,1.23,0.44,1.87,0.57
			c0.649,0.13,1.3,0.2,1.96,0.2c0.65,0,1.3-0.07,1.95-0.2c0.64-0.13,1.27-0.32,1.869-0.57c0.601-0.25,1.181-0.56,1.73-0.92
			c0.54-0.36,1.06-0.78,1.52-1.24c0.46-0.46,0.87-0.97,1.24-1.52c0.36-0.54,0.67-1.12,0.92-1.73c0.25-0.6,0.44-1.23,0.57-1.87
			s0.19-1.3,0.19-1.95C282.03,167.531,281.97,166.871,281.84,166.221z"/>
	</g>
</g>
<g>
	<g>
		<path d="M253.349,338.571c-0.129-0.64-0.319-1.27-0.569-1.87c-0.25-0.61-0.561-1.19-0.921-1.73c-0.359-0.55-0.779-1.06-1.239-1.52
			c-0.46-0.46-0.971-0.88-1.521-1.24c-0.55-0.36-1.13-0.67-1.729-0.92c-0.601-0.25-1.23-0.45-1.87-0.57c-1.29-0.26-2.62-0.26-3.91,0
			c-0.64,0.12-1.27,0.32-1.87,0.57s-1.18,0.56-1.729,0.92c-0.54,0.36-1.051,0.78-1.521,1.24c-0.46,0.46-0.88,0.97-1.24,1.52
			c-0.359,0.54-0.67,1.12-0.92,1.73c-0.25,0.6-0.439,1.23-0.569,1.87c-0.131,0.64-0.19,1.3-0.19,1.95c0,0.65,0.06,1.31,0.19,1.95
			s0.319,1.27,0.569,1.87c0.25,0.61,0.561,1.19,0.92,1.73c0.36,0.55,0.78,1.06,1.24,1.52c0.47,0.46,0.98,0.88,1.521,1.24
			c0.55,0.36,1.13,0.67,1.729,0.92c0.6,0.25,1.23,0.45,1.87,0.57c0.65,0.13,1.3,0.2,1.96,0.2c0.65,0,1.3-0.07,1.95-0.2
			c0.64-0.12,1.27-0.32,1.87-0.57c0.6-0.25,1.189-0.56,1.729-0.92c0.55-0.36,1.061-0.78,1.521-1.24c0.46-0.46,0.88-0.97,1.239-1.52
			c0.36-0.54,0.671-1.12,0.921-1.73c0.25-0.6,0.439-1.23,0.569-1.87c0.13-0.64,0.2-1.3,0.2-1.95S253.479,339.211,253.349,338.571z"
			/>
	</g>
</g>
<g>
</g>
<g>
</g>
<g>
</g>
<g>
</g>
<g>
</g>
<g>
</g>
<g>
</g>
<g>
</g>
<g>
</g>
<g>
</g>
<g>
</g>
<g>
</g>
<g>
</g>
<g>
</g>
<g>
</g>
</svg>
