<?xml version="1.0" encoding="iso-8859-1"?>
<!-- Generator: Adobe Illustrator 19.0.0, SVG Export Plug-In . SVG Version: 6.00 Build 0)  -->
<svg version="1.1" id="Capa_1" xmlns="http://www.w3.org/2000/svg" xmlns:xlink="http://www.w3.org/1999/xlink" x="0px" y="0px"
	 viewBox="0 0 512 512" style="enable-background:new 0 0 512 512;" xml:space="preserve">
<g>
	<g>
		<path d="M512,365.553c0-26.983-21.953-48.936-48.936-48.936h-46.287c7.198-19.118,10.967-39.576,10.967-60.616
			c0-45.874-17.865-89.003-50.302-121.44C345.003,102.121,301.875,84.257,256,84.257c-21.04,0-41.498,3.768-60.616,10.966V48.937
			C195.384,21.953,173.431,0,146.447,0c-22.707,0-41.85,15.545-47.349,36.552c-17.329-6.208-37.197-2.218-50.98,11.566
			C34.334,61.901,30.342,81.77,36.551,99.098C15.544,104.597,0,123.741,0,146.447c0,26.983,21.953,48.937,48.937,48.937h46.287
			C88.025,214.502,84.257,234.96,84.257,256c0,45.874,17.865,89.003,50.302,121.44c32.438,32.439,75.566,50.303,121.441,50.303
			c21.04,0,41.498-3.768,60.616-10.966v46.287c0,26.983,21.953,48.936,48.937,48.936c22.707,0,41.85-15.545,47.349-36.552
			c17.332,6.21,37.197,2.219,50.98-11.566c13.784-13.783,17.776-33.651,11.567-50.979C496.456,407.403,512,388.259,512,365.553z
			 M48.937,175.384L48.937,175.384c-15.956,0-28.937-12.98-28.937-28.937c0-15.956,12.981-28.937,28.937-28.937h3.764
			c3.874,0,7.4-2.237,9.049-5.743c1.649-3.506,1.125-7.648-1.345-10.633c-9.557-11.547-8.759-28.26,1.856-38.874
			c10.616-10.615,27.328-11.412,38.874-1.856c2.985,2.471,7.128,2.996,10.633,1.346c3.506-1.649,5.744-5.175,5.744-9.049v-3.765
			c0-15.956,12.98-28.937,28.936-28.937s28.937,12.98,28.937,28.937v55.327c-9.258,4.934-18.086,10.751-26.389,17.391
			c-0.102,0.081-0.203,0.163-0.305,0.244c-3.085,2.479-6.097,5.072-9.031,7.778c-0.322,0.297-0.642,0.595-0.962,0.894
			c-1.382,1.295-2.753,2.605-4.099,3.951c-0.013,0.013-0.026,0.025-0.039,0.038h0.001c-1.359,1.359-2.684,2.744-3.992,4.141
			c-0.298,0.319-0.595,0.638-0.891,0.959c-2.701,2.927-5.288,5.932-7.762,9.011c-0.091,0.114-0.183,0.228-0.274,0.342
			c-6.635,8.299-12.446,17.12-17.377,26.372H48.937z M322.251,392.553c-0.152,0.073-0.286,0.169-0.433,0.249
			c-20.273,9.773-42.647,14.94-65.818,14.94c-40.532,0.001-78.638-15.783-107.298-44.444
			c-28.661-28.66-44.445-66.766-44.445-107.298c0-23.171,5.167-45.546,14.941-65.82c0.08-0.146,0.175-0.281,0.249-0.432
			c5.012-10.33,11.167-20.016,18.373-28.941c0.104-0.129,0.206-0.26,0.311-0.388c0.457-0.562,0.923-1.118,1.388-1.674
			c0.306-0.366,0.612-0.732,0.922-1.095c0.389-0.456,0.783-0.91,1.178-1.362c0.407-0.465,0.817-0.929,1.23-1.39
			c0.342-0.383,0.685-0.765,1.031-1.144c0.513-0.561,1.033-1.118,1.555-1.673c0.269-0.286,0.535-0.574,0.807-0.858
			c0.81-0.848,1.629-1.69,2.461-2.522c0.828-0.828,1.667-1.644,2.511-2.45c0.298-0.284,0.599-0.563,0.899-0.845
			c0.543-0.511,1.088-1.02,1.638-1.522c0.384-0.351,0.77-0.697,1.157-1.043c0.456-0.409,0.915-0.814,1.375-1.217
			c0.456-0.399,0.914-0.796,1.375-1.189c0.36-0.307,0.723-0.61,1.085-0.914c0.557-0.466,1.113-0.932,1.676-1.39
			c0.133-0.108,0.268-0.214,0.401-0.321c8.924-7.203,18.606-13.355,28.931-18.365c0.152-0.073,0.287-0.169,0.433-0.249
			c20.273-9.773,42.647-14.94,65.818-14.94c40.532,0,78.638,15.784,107.298,44.445c28.661,28.66,44.445,66.766,44.445,107.298
			c0,23.171-5.167,45.546-14.941,65.819c-0.08,0.146-0.175,0.281-0.249,0.432c-5.015,10.337-11.174,20.028-18.386,28.959
			c-0.099,0.122-0.195,0.245-0.294,0.367c-0.462,0.568-0.932,1.13-1.402,1.691c-0.3,0.358-0.6,0.717-0.904,1.073
			c-0.396,0.464-0.796,0.925-1.197,1.385c-0.398,0.455-0.798,0.907-1.202,1.358c-0.351,0.392-0.702,0.784-1.058,1.173
			c-0.499,0.546-1.004,1.087-1.512,1.626c-0.284,0.302-0.565,0.606-0.851,0.905c-0.807,0.844-1.621,1.682-2.45,2.51
			c-0.828,0.828-1.667,1.643-2.511,2.45c-0.297,0.284-0.599,0.563-0.899,0.845c-0.543,0.511-1.088,1.02-1.638,1.523
			c-0.384,0.351-0.77,0.697-1.157,1.043c-0.456,0.409-0.914,0.814-1.375,1.217c-0.456,0.399-0.914,0.796-1.375,1.189
			c-0.36,0.307-0.723,0.61-1.085,0.914c-0.557,0.466-1.113,0.932-1.676,1.389c-0.133,0.108-0.268,0.214-0.401,0.321
			C342.258,381.391,332.576,387.543,322.251,392.553z M463.064,394.489H459.3c-3.874,0-7.4,2.237-9.049,5.743
			c-1.649,3.506-1.125,7.648,1.345,10.633c9.557,11.547,8.759,28.26-1.856,38.874c-10.615,10.617-27.327,11.413-38.874,1.856
			c-2.984-2.47-7.127-2.994-10.633-1.346c-3.506,1.649-5.744,5.175-5.744,9.049v3.765c0,15.956-12.98,28.936-28.936,28.936
			s-28.937-12.98-28.937-28.936v-55.327c9.264-4.937,18.097-10.758,26.406-17.404c0.09-0.072,0.18-0.144,0.269-0.216
			c3.1-2.49,6.126-5.095,9.072-7.814c0.306-0.282,0.611-0.566,0.915-0.851c1.404-1.314,2.796-2.645,4.162-4.011
			c1.359-1.359,2.684-2.745,3.992-4.141c0.298-0.319,0.595-0.638,0.891-0.959c2.701-2.927,5.289-5.932,7.763-9.011
			c0.091-0.114,0.183-0.227,0.274-0.342c6.635-8.299,12.446-17.12,17.377-26.372h55.327c15.956,0,28.936,12.98,28.936,28.936
			C492,381.509,479.019,394.489,463.064,394.489z"/>
	</g>
</g>
<g>
	<g>
		<path d="M347.605,164.394c-50.512-50.51-132.699-50.51-183.211,0c-50.511,50.512-50.511,132.699,0,183.211
			c25.256,25.255,58.431,37.883,91.605,37.883s66.351-12.628,91.606-37.883C398.116,297.093,398.116,214.906,347.605,164.394z
			 M333.464,333.463c-42.713,42.713-112.213,42.715-154.926,0c-42.714-42.713-42.714-112.213-0.001-154.926
			c21.359-21.359,49.407-32.035,77.463-32.035c28.05,0,56.109,10.681,77.463,32.035C376.176,221.25,376.176,290.75,333.464,333.463z
			"/>
	</g>
</g>
<g>
	<g>
		<path d="M321.083,190.917c-22.784-22.783-55.158-31.898-86.599-24.389c-2.583,0.618-5.169,1.355-7.684,2.192
			c-5.24,1.745-8.074,7.407-6.33,12.646c1.745,5.24,7.407,8.072,12.647,6.33c1.968-0.655,3.992-1.232,6.014-1.716
			c24.631-5.884,49.979,1.247,67.809,19.078c13.582,13.582,21.063,31.673,21.063,50.94c0,19.268-7.48,37.358-21.063,50.94
			c-13.582,13.582-31.673,21.063-50.941,21.063s-37.358-7.48-50.94-21.063c-3.905-3.903-10.237-3.904-14.142,0
			c-3.905,3.905-3.906,10.237,0,14.143c17.36,17.359,40.473,26.92,65.083,26.92c24.61,0,47.724-9.56,65.083-26.92
			c17.36-17.357,26.92-40.471,26.92-65.081C348.003,231.391,338.442,208.277,321.083,190.917z"/>
	</g>
</g>
<g>
	<g>
		<path d="M207.79,196.03c-0.13-0.631-0.32-1.261-0.57-1.87c-0.25-0.601-0.56-1.181-0.92-1.721c-0.36-0.55-0.78-1.06-1.24-1.52
			c-0.461-0.46-0.97-0.88-1.52-1.25c-0.54-0.36-1.12-0.67-1.73-0.92c-0.6-0.25-1.23-0.44-1.87-0.57c-1.29-0.26-2.62-0.26-3.91,0
			c-0.63,0.13-1.26,0.32-1.87,0.57c-0.6,0.25-1.18,0.56-1.72,0.92c-0.55,0.37-1.06,0.79-1.52,1.25c-0.46,0.46-0.88,0.97-1.25,1.52
			c-0.36,0.54-0.67,1.12-0.92,1.721c-0.25,0.609-0.44,1.239-0.57,1.87c-0.13,0.649-0.19,1.309-0.19,1.96
			c0,0.649,0.06,1.31,0.19,1.949c0.13,0.641,0.32,1.271,0.57,1.871c0.25,0.61,0.56,1.19,0.92,1.73c0.37,0.55,0.79,1.06,1.25,1.52
			c0.46,0.46,0.97,0.88,1.52,1.24c0.54,0.36,1.12,0.67,1.72,0.92c0.61,0.25,1.24,0.441,1.87,0.57c0.65,0.13,1.31,0.2,1.96,0.2
			c2.63,0,5.21-1.07,7.07-2.931c0.46-0.46,0.88-0.97,1.24-1.52c0.36-0.54,0.67-1.12,0.92-1.73c0.25-0.6,0.44-1.23,0.57-1.87
			c0.13-0.64,0.2-1.3,0.2-1.949C207.99,197.34,207.92,196.679,207.79,196.03z"/>
	</g>
</g>
<g>
	<g>
		<path d="M280.418,280.417c-13.464,13.465-35.373,13.465-48.838,0c-6.509-6.509-10.094-15.182-10.094-24.419
			c0-9.238,3.585-17.91,10.094-24.419c13.464-13.464,35.373-13.464,48.839,0.002c3.905,3.904,10.237,3.904,14.142,0
			c3.905-3.905,3.905-10.237,0-14.143c-21.262-21.262-55.86-21.261-77.122,0c-10.287,10.286-15.952,23.981-15.952,38.561
			c0,14.579,5.665,28.274,15.952,38.561c10.631,10.631,24.596,15.946,38.561,15.946c13.965,0,27.93-5.315,38.561-15.946
			c3.905-3.905,3.905-10.237,0-14.143C290.656,276.513,284.324,276.513,280.418,280.417z"/>
	</g>
</g>
<g>
</g>
<g>
</g>
<g>
</g>
<g>
</g>
<g>
</g>
<g>
</g>
<g>
</g>
<g>
</g>
<g>
</g>
<g>
</g>
<g>
</g>
<g>
</g>
<g>
</g>
<g>
</g>
<g>
</g>
</svg>
