<?xml version="1.0" encoding="iso-8859-1"?>
<!-- Generator: Adobe Illustrator 19.0.0, SVG Export Plug-In . SVG Version: 6.00 Build 0)  -->
<svg version="1.1" id="Capa_1" xmlns="http://www.w3.org/2000/svg" xmlns:xlink="http://www.w3.org/1999/xlink" x="0px" y="0px"
	 viewBox="0 0 512.003 512.003" style="enable-background:new 0 0 512.003 512.003;" xml:space="preserve">
<g>
	<g>
		<path d="M502.647,187.704l0.654-1.52c11.489-26.687,11.489-57.297,0-83.984l-0.654-1.519l5.487-13.157
			c3.425-8.213,1.818-17.392-4.194-23.953c-6.012-6.56-15.012-8.963-23.495-6.265l-49.253,15.66C406.349,29.422,359.476,0,305.856,0
			c-53.619,0-100.492,29.422-125.335,72.966l-49.253-15.66c-8.481-2.696-17.484-0.295-23.496,6.265
			c-6.012,6.561-7.619,15.739-4.194,23.953l5.487,13.157l-0.654,1.52c-2.718,6.313-4.808,12.903-6.258,19.644
			c-3.462,2.418-6.233,5.824-7.933,9.957l-5.424,13.184l-1.537,0.612c-26.994,10.746-48.639,32.391-59.384,59.385l-0.612,1.537
			l-13.184,5.424c-8.23,3.386-13.584,11.012-13.972,19.902c-0.388,8.891,4.28,16.955,12.184,21.045l45.817,23.711
			c-3.373,12.325-5.118,25.179-5.118,38.303c0,38.516,14.999,74.726,42.232,101.96c27.234,27.235,63.444,42.233,101.959,42.233
			c13.124,0,25.979-1.745,38.303-5.118l23.711,45.817c3.932,7.598,11.536,12.206,20.017,12.206c0.341,0,0.685-0.007,1.028-0.022
			c8.891-0.389,16.517-5.742,19.902-13.972l5.424-13.184l1.536-0.611c26.995-10.746,48.64-32.391,59.386-59.386l0.612-1.536
			l13.184-5.423c8.23-3.386,13.583-11.012,13.972-19.903c0.388-8.891-4.28-16.954-12.184-21.044l-45.816-23.711
			c3.374-12.325,5.119-25.18,5.119-38.304c0-10.268-1.076-20.369-3.156-30.183c29.566-6.796,56.43-22.871,76.531-46.009
			c6.291-7.241,11.796-15.047,16.476-23.282l49.22,15.649c2.3,0.731,4.639,1.088,6.946,1.088c6.199,0,12.168-2.572,16.55-7.354
			c6.012-6.561,7.619-15.739,4.193-23.953L502.647,187.704z M122.518,77.084c0.509-0.556,1.39-1.13,2.69-0.717l46.524,14.792
			c-5.754,14.489-9.054,29.684-9.865,45.369c-0.006,0.11-0.014,0.219-0.019,0.329c-0.051,1.028-0.089,2.059-0.118,3.092
			c-0.006,0.204-0.016,0.408-0.021,0.613c-0.029,1.208-0.046,2.418-0.046,3.632c0,1.556,0.033,3.109,0.083,4.661
			c0.014,0.449,0.034,0.897,0.053,1.345c0.049,1.184,0.112,2.366,0.19,3.547c0.027,0.414,0.051,0.828,0.081,1.241
			c0.115,1.54,0.249,3.077,0.413,4.61c0.024,0.23,0.056,0.458,0.082,0.687c0.147,1.319,0.313,2.635,0.496,3.948
			c0.064,0.457,0.131,0.912,0.199,1.368c0.179,1.2,0.374,2.397,0.583,3.591c0.062,0.356,0.119,0.713,0.184,1.068
			c0.249,1.364,0.514,2.724,0.803,4.079c-1.997,0.456-3.983,0.952-5.954,1.491l-23.711-45.816c-0.3-0.579-0.627-1.135-0.968-1.679
			c-0.089-0.141-0.183-0.277-0.275-0.416c-0.275-0.418-0.561-0.825-0.86-1.22c-0.089-0.118-0.178-0.236-0.27-0.351
			c-0.377-0.479-0.768-0.943-1.179-1.386c-0.007-0.007-0.013-0.015-0.02-0.023c-2.291-2.467-5.081-4.364-8.181-5.578
			c0.946-3.148,2.07-6.239,3.367-9.251l2.33-5.411c1.071-2.488,1.087-5.304,0.045-7.804l-7.118-17.069
			C121.512,78.566,122.009,77.639,122.518,77.084z M21.483,235.127c-1.212-0.627-1.428-1.657-1.395-2.41
			c0.033-0.753,0.337-1.759,1.6-2.279l17.103-7.036c2.505-1.031,4.484-3.033,5.486-5.549l2.18-5.474
			c8.722-21.91,26.29-39.478,48.2-48.2l5.474-2.179c2.516-1.002,4.519-2.981,5.549-5.486l7.036-17.103
			c0.345-0.838,0.905-1.249,1.463-1.444c0.012-0.004,0.025-0.006,0.037-0.01c0.11-0.036,0.652-0.2,1.292-0.122
			c0.017,0.002,0.034,0.005,0.052,0.008c0.065,0.009,0.13,0.02,0.196,0.034c0.064,0.014,0.128,0.033,0.192,0.053
			c0.038,0.012,0.076,0.024,0.115,0.038c0.079,0.029,0.159,0.062,0.238,0.102c0.028,0.014,0.055,0.031,0.082,0.046
			c0.066,0.037,0.132,0.076,0.197,0.122c0.031,0.021,0.061,0.044,0.091,0.068c0.061,0.047,0.12,0.098,0.179,0.154
			c0.03,0.028,0.06,0.057,0.089,0.087c0.059,0.062,0.116,0.132,0.172,0.204c0.025,0.032,0.05,0.061,0.074,0.095
			c0.077,0.11,0.152,0.229,0.221,0.362l22.423,43.328c-6.095,2.643-12.007,5.713-17.7,9.196c-0.241,0.147-0.48,0.296-0.72,0.444
			c-0.653,0.405-1.304,0.813-1.951,1.229c-0.435,0.279-0.866,0.562-1.298,0.845c-0.472,0.311-0.945,0.621-1.414,0.938
			c-0.585,0.395-1.166,0.796-1.746,1.2c-0.331,0.23-0.663,0.459-0.992,0.693c-0.688,0.487-1.37,0.984-2.051,1.484
			c-0.236,0.174-0.474,0.345-0.709,0.52c-0.746,0.556-1.486,1.122-2.223,1.693c-0.177,0.138-0.357,0.273-0.534,0.411
			c-0.767,0.601-1.527,1.212-2.283,1.829c-0.153,0.125-0.307,0.247-0.46,0.372c-0.754,0.62-1.5,1.252-2.243,1.889
			c-0.156,0.134-0.314,0.265-0.47,0.399c-0.723,0.626-1.439,1.263-2.152,1.905c-0.171,0.153-0.344,0.303-0.513,0.457
			c-0.691,0.628-1.375,1.268-2.056,1.911c-0.184,0.174-0.371,0.343-0.554,0.517c-0.853,0.814-1.699,1.638-2.536,2.475
			c-0.837,0.837-1.661,1.682-2.474,2.535c-0.178,0.187-0.351,0.378-0.528,0.566c-0.64,0.678-1.276,1.358-1.902,2.046
			c-0.154,0.17-0.304,0.343-0.457,0.513c-0.642,0.713-1.279,1.429-1.904,2.152c-0.136,0.157-0.268,0.316-0.402,0.474
			c-0.636,0.742-1.267,1.488-1.887,2.24c-0.125,0.152-0.246,0.306-0.371,0.458c-0.618,0.758-1.231,1.519-1.833,2.287
			c-0.136,0.174-0.269,0.349-0.404,0.523c-0.574,0.74-1.143,1.484-1.702,2.234c-0.172,0.231-0.34,0.464-0.511,0.696
			c-0.503,0.684-1.003,1.371-1.493,2.064c-0.231,0.325-0.457,0.653-0.685,0.98c-0.406,0.584-0.81,1.168-1.207,1.757
			c-0.314,0.466-0.623,0.934-0.931,1.403c-0.286,0.435-0.571,0.87-0.852,1.308c-0.415,0.645-0.822,1.295-1.226,1.946
			c-0.149,0.241-0.298,0.481-0.445,0.722c-3.483,5.693-6.553,11.605-9.196,17.7L21.483,235.127z M236.675,432.709
			c-12.565,4.199-25.862,6.386-39.496,6.386c-33.171,0.002-64.358-12.917-87.815-36.374
			c-45.378-45.378-48.231-117.424-8.559-166.155c0.041-0.051,0.083-0.101,0.124-0.152c0.591-0.724,1.193-1.442,1.803-2.156
			c0.18-0.21,0.364-0.419,0.546-0.628c0.505-0.583,1.014-1.164,1.532-1.74c0.35-0.388,0.707-0.771,1.062-1.155
			c0.381-0.413,0.759-0.829,1.147-1.238c0.77-0.812,1.55-1.616,2.345-2.411c0.794-0.794,1.599-1.574,2.41-2.344
			c0.408-0.387,0.822-0.764,1.235-1.144c0.387-0.357,0.772-0.717,1.162-1.069c0.572-0.514,1.149-1.02,1.728-1.521
			c0.213-0.185,0.426-0.372,0.64-0.556c0.71-0.608,1.426-1.207,2.147-1.796c0.054-0.044,0.107-0.088,0.161-0.132
			c22.73-18.503,50.532-27.756,78.334-27.756c1.944,0,3.887,0.047,5.829,0.137c0.064,0.003,0.128,0.005,0.191,0.008
			c0.708,0.034,1.415,0.08,2.122,0.126c0.57,0.038,1.139,0.077,1.708,0.124c0.383,0.03,0.767,0.062,1.15,0.096
			c25.996,2.354,50.9,12.846,70.74,30.163c0.525,0.46,1.049,0.923,1.567,1.393c0.466,0.421,0.93,0.842,1.39,1.27
			c1.04,0.971,2.071,1.954,3.083,2.964c0.012,0.012,0.025,0.024,0.037,0.036c0.023,0.023,0.044,0.046,0.067,0.068
			c0.805,0.807,1.596,1.626,2.378,2.454c0.27,0.285,0.535,0.576,0.802,0.864c0.532,0.574,1.059,1.152,1.58,1.736
			c0.304,0.341,0.608,0.683,0.909,1.028c0.5,0.573,0.992,1.152,1.482,1.734c0.274,0.326,0.551,0.648,0.822,0.977
			c0.715,0.868,1.42,1.745,2.111,2.632c0.203,0.26,0.399,0.527,0.6,0.789c0.523,0.683,1.043,1.369,1.552,2.062
			c0.238,0.324,0.473,0.652,0.708,0.979c0.495,0.688,0.984,1.38,1.465,2.078c0.185,0.269,0.371,0.537,0.554,0.807
			c7.157,10.564,12.678,22.192,16.277,34.423c0.066,0.226,0.144,0.445,0.225,0.663c3.188,11.081,4.845,22.674,4.845,34.524
			c0,13.633-2.186,26.928-6.384,39.491c-0.085,0.204-0.176,0.406-0.248,0.617c-2.668,7.84-6.064,15.299-10.162,22.342
			c-0.067,0.115-0.134,0.23-0.201,0.345c-0.464,0.792-0.941,1.577-1.423,2.358c-0.152,0.245-0.3,0.491-0.454,0.735
			c-0.403,0.644-0.818,1.28-1.234,1.917c-0.214,0.328-0.423,0.658-0.641,0.984c-0.345,0.517-0.702,1.027-1.055,1.539
			c-0.633,0.917-1.277,1.827-1.936,2.728c-0.219,0.3-0.434,0.602-0.656,0.9c-0.405,0.543-0.819,1.081-1.233,1.619
			c-0.254,0.33-0.507,0.661-0.765,0.989c-0.401,0.509-0.808,1.015-1.217,1.519c-0.293,0.361-0.587,0.721-0.885,1.079
			c-0.388,0.467-0.78,0.932-1.175,1.395c-0.347,0.406-0.699,0.809-1.052,1.211c-0.363,0.414-0.727,0.828-1.096,1.239
			c-0.434,0.482-0.876,0.958-1.318,1.434c-0.306,0.329-0.608,0.661-0.918,0.987c-0.72,0.758-1.449,1.509-2.191,2.252
			c-0.045,0.045-0.089,0.092-0.134,0.137c-0.047,0.047-0.095,0.092-0.143,0.139c-0.74,0.738-1.489,1.465-2.244,2.182
			c-0.333,0.316-0.671,0.624-1.007,0.935c-0.469,0.436-0.938,0.871-1.412,1.299c-0.416,0.375-0.837,0.744-1.258,1.113
			c-0.395,0.346-0.79,0.691-1.188,1.032c-0.469,0.401-0.941,0.799-1.415,1.192c-0.35,0.291-0.702,0.578-1.054,0.865
			c-0.512,0.415-1.024,0.829-1.541,1.235c-0.316,0.248-0.635,0.492-0.953,0.737c-0.55,0.424-1.099,0.847-1.655,1.261
			c-0.272,0.202-0.548,0.398-0.822,0.598c-0.987,0.722-1.984,1.427-2.99,2.118c-0.445,0.305-0.886,0.615-1.335,0.914
			c-0.345,0.231-0.696,0.453-1.044,0.68c-0.616,0.402-1.233,0.804-1.856,1.194c-0.257,0.161-0.516,0.318-0.773,0.477
			c-0.768,0.474-1.539,0.943-2.318,1.399c-0.125,0.074-0.251,0.146-0.376,0.22c-7.039,4.093-14.492,7.487-22.326,10.153
			C237.078,432.534,236.878,432.625,236.675,432.709z M361.026,107.519c-3.064-4.596-9.272-5.838-13.867-2.774
			c-4.596,3.063-5.838,9.272-2.774,13.867c5.06,7.591,7.735,16.437,7.735,25.581c0,12.357-4.812,23.975-13.551,32.713
			c-8.738,8.739-20.357,13.551-32.715,13.551c-25.51,0-46.265-20.754-46.265-46.265c0-12.357,4.813-23.976,13.551-32.713
			c3.905-3.905,3.906-10.237,0-14.142c-3.905-3.905-10.237-3.905-14.142-0.001c-12.516,12.516-19.409,29.156-19.409,46.856
			c0,13.595,4.12,26.243,11.17,36.771c-8.417-3.365-17.157-5.93-26.129-7.65c-3.345-9.313-5.039-19.086-5.039-29.121
			c0-47.566,38.699-86.265,86.265-86.265c47.567,0,86.265,38.698,86.265,86.265c0,45.147-33.981,81.907-78.299,85.901
			c-2.868-3.927-5.945-7.728-9.23-11.387c-0.016-0.018-0.031-0.036-0.048-0.054c-0.43-0.479-0.866-0.953-1.303-1.426
			c-0.158-0.172-0.318-0.342-0.477-0.513c-0.21-0.225-0.417-0.452-0.629-0.676c-0.1-0.106-0.197-0.214-0.297-0.32
			c-0.886-0.934-1.784-1.86-2.698-2.774c-0.968-0.968-1.951-1.917-2.941-2.854c-0.142-0.134-0.285-0.266-0.428-0.399
			c3.289,0.504,6.656,0.766,10.083,0.766c0.001,0,0.001,0,0.002,0c17.699,0,34.34-6.893,46.855-19.408
			c12.516-12.517,19.409-29.157,19.408-46.856C372.119,131.087,368.283,118.406,361.026,107.519z M372.879,394.681
			c1.212,0.627,1.428,1.656,1.395,2.409s-0.337,1.76-1.6,2.279l-17.103,7.036c-2.505,1.031-4.485,3.033-5.487,5.55l-2.179,5.474
			c-8.722,21.91-26.29,39.478-48.201,48.2l-5.474,2.179c-2.517,1.001-4.518,2.981-5.549,5.486l-7.036,17.103
			c-0.52,1.262-1.526,1.567-2.279,1.6c-0.75,0.035-1.783-0.183-2.41-1.395l-22.423-43.328c6.096-2.643,12.008-5.714,17.701-9.197
			c0.241-0.147,0.481-0.296,0.721-0.445c0.651-0.403,1.3-0.81,1.944-1.224c0.441-0.283,0.879-0.57,1.317-0.858
			c0.465-0.306,0.93-0.612,1.392-0.924c0.592-0.399,1.179-0.805,1.765-1.213c0.326-0.227,0.652-0.452,0.976-0.682
			c0.697-0.493,1.388-0.996,2.076-1.502c0.226-0.166,0.454-0.331,0.679-0.498c0.759-0.565,1.512-1.141,2.261-1.722
			c0.165-0.128,0.331-0.253,0.495-0.382c0.784-0.614,1.562-1.239,2.335-1.871c0.135-0.11,0.272-0.218,0.406-0.329
			c0.774-0.637,1.541-1.285,2.303-1.94c0.137-0.117,0.275-0.232,0.412-0.35c0.747-0.646,1.486-1.303,2.221-1.966
			c0.148-0.133,0.298-0.263,0.445-0.396c0.74-0.672,1.473-1.356,2.201-2.046c0.134-0.127,0.271-0.251,0.406-0.378
			c0.857-0.818,1.708-1.646,2.549-2.487c0.84-0.84,1.668-1.69,2.484-2.546c0.136-0.143,0.267-0.288,0.403-0.432
			c0.682-0.721,1.358-1.445,2.023-2.177c0.136-0.149,0.267-0.302,0.402-0.452c0.66-0.733,1.315-1.469,1.959-2.213
			c0.123-0.142,0.243-0.287,0.365-0.43c0.648-0.756,1.291-1.515,1.922-2.282c0.119-0.144,0.234-0.29,0.352-0.435
			c0.623-0.763,1.241-1.531,1.847-2.305c0.137-0.174,0.27-0.351,0.406-0.526c0.573-0.738,1.14-1.48,1.698-2.228
			c0.175-0.235,0.347-0.473,0.521-0.71c0.499-0.679,0.995-1.36,1.482-2.047c0.235-0.331,0.465-0.666,0.697-0.999
			c0.402-0.578,0.802-1.157,1.196-1.741c0.318-0.471,0.63-0.945,0.942-1.419c0.281-0.429,0.563-0.858,0.84-1.289
			c0.419-0.652,0.831-1.309,1.239-1.967c0.144-0.234,0.289-0.467,0.432-0.701c3.485-5.695,6.558-11.61,9.202-17.708L372.879,394.681
			z M430.006,147.316c-0.013,0.507-0.031,1.013-0.051,1.519c-0.016,0.435-0.035,0.87-0.055,1.304
			c-2.7,55.641-43.064,103.348-97.192,115.329c-2.094-5.751-4.559-11.359-7.378-16.798c21.488-3.967,41.218-14.462,56.728-30.416
			c19.387-19.941,30.064-46.244,30.064-74.062c0-58.595-47.67-106.265-106.265-106.265c-58.594,0-106.265,47.67-106.265,106.265
			c0,9.084,1.13,17.996,3.367,26.643c-1.92-0.075-3.845-0.123-5.777-0.123c-4.215,0-8.4,0.19-12.551,0.546
			c-0.26-1.171-0.503-2.346-0.729-3.524c-0.072-0.373-0.133-0.748-0.202-1.122c-0.152-0.833-0.301-1.667-0.436-2.503
			c-0.075-0.463-0.141-0.928-0.211-1.392c-0.113-0.752-0.222-1.505-0.321-2.26c-0.065-0.493-0.124-0.987-0.183-1.481
			c-0.088-0.737-0.169-1.474-0.243-2.213c-0.05-0.495-0.098-0.991-0.143-1.488c-0.067-0.755-0.124-1.511-0.178-2.268
			c-0.034-0.475-0.069-0.949-0.097-1.425c-0.049-0.829-0.084-1.66-0.117-2.49c-0.016-0.401-0.038-0.801-0.049-1.202
			c-0.036-1.231-0.058-2.464-0.058-3.698c0-1.124,0.018-2.244,0.047-3.363c0.015-0.561,0.041-1.119,0.064-1.678
			c0.021-0.527,0.039-1.055,0.067-1.581c0.04-0.767,0.091-1.532,0.146-2.296c0.02-0.283,0.038-0.566,0.06-0.848
			c0.073-0.93,0.155-1.858,0.248-2.782c0.007-0.072,0.014-0.144,0.021-0.216C188.726,68.923,241.685,20,305.856,20
			s117.13,48.922,123.541,111.428c0.007,0.073,0.014,0.146,0.022,0.219c0.093,0.924,0.175,1.852,0.248,2.783
			c0.021,0.28,0.039,0.56,0.059,0.84c0.055,0.766,0.106,1.532,0.146,2.302c0.027,0.526,0.046,1.054,0.066,1.582
			c0.023,0.559,0.049,1.116,0.064,1.677c0.029,1.118,0.047,2.239,0.047,3.363C430.049,145.237,430.031,146.277,430.006,147.316z
			 M482.556,191.491l7.118,17.068c0.525,1.26,0.029,2.187-0.48,2.743c-0.509,0.555-1.391,1.129-2.69,0.718l-46.522-14.792
			c6.286-15.831,9.65-32.507,10.029-49.748c0.025-1.094,0.038-2.19,0.038-3.287c0-1.213-0.017-2.424-0.046-3.632
			c-0.005-0.205-0.015-0.409-0.021-0.614c-0.029-1.032-0.067-2.063-0.118-3.09c-0.005-0.11-0.013-0.22-0.019-0.331
			c-0.811-15.685-4.111-30.879-9.865-45.368l46.525-14.792c1.298-0.413,2.181,0.162,2.69,0.717c0.509,0.556,1.005,1.482,0.48,2.743
			l-7.118,17.069c-1.042,2.5-1.026,5.316,0.045,7.804l2.33,5.411c9.326,21.66,9.326,46.505,0,68.165l-2.33,5.412
			C481.53,186.175,481.514,188.991,482.556,191.491z"/>
	</g>
</g>
<g>
	<g>
		<path d="M272.322,239.763c-41.434-41.433-108.848-41.432-150.282,0c-41.433,41.433-41.433,108.849,0,150.282
			c20.717,20.716,47.929,31.074,75.141,31.074c27.212,0,54.424-10.358,75.141-31.074
			C313.755,348.612,313.755,281.196,272.322,239.763z M258.18,375.903c-33.634,33.635-88.362,33.635-121.997,0
			s-33.635-88.363,0-121.997c16.817-16.817,38.908-25.226,60.999-25.226c22.09,0,44.181,8.409,60.998,25.226
			C291.815,287.54,291.815,342.268,258.18,375.903z"/>
	</g>
</g>
<g>
	<g>
		<path d="M254.282,316.217c-5.414-1.079-10.684,2.428-11.768,7.843c-1.791,8.947-6.154,17.093-12.619,23.559
			c-8.738,8.738-20.355,13.55-32.713,13.55c-12.358,0-23.977-4.813-32.714-13.551c-18.039-18.039-18.039-47.39,0.001-65.428
			c8.738-8.738,20.356-13.55,32.714-13.55c5.523,0,10-4.477,10-10s-4.477-10-10-10c-17.7,0-34.341,6.893-46.856,19.408
			c-25.836,25.837-25.837,67.876-0.001,93.713c12.516,12.516,29.156,19.409,46.857,19.409c17.7,0,34.341-6.892,46.856-19.408
			c9.264-9.267,15.518-20.946,18.086-33.777C263.208,322.569,259.697,317.301,254.282,316.217z"/>
	</g>
</g>
<g>
	<g>
		<path d="M255.28,284.12c-0.46-0.47-0.98-0.88-1.52-1.25c-0.55-0.36-1.13-0.67-1.73-0.92c-0.6-0.25-1.23-0.44-1.87-0.57
			c-1.29-0.26-2.62-0.26-3.91,0c-0.64,0.13-1.27,0.32-1.87,0.57s-1.18,0.56-1.73,0.92c-0.54,0.37-1.05,0.78-1.52,1.25
			c-0.46,0.461-0.87,0.97-1.24,1.52c-0.36,0.54-0.67,1.12-0.92,1.72c-0.25,0.6-0.44,1.23-0.57,1.87c-0.13,0.65-0.19,1.3-0.19,1.96
			c0,0.65,0.06,1.31,0.19,1.95c0.131,0.64,0.32,1.27,0.57,1.87c0.25,0.6,0.56,1.18,0.92,1.73c0.36,0.55,0.78,1.06,1.24,1.52
			c0.47,0.46,0.98,0.88,1.52,1.24c0.55,0.36,1.13,0.67,1.73,0.92c0.6,0.25,1.23,0.44,1.87,0.57c0.65,0.13,1.3,0.2,1.96,0.2
			c0.65,0,1.31-0.07,1.95-0.2s1.27-0.32,1.87-0.57c0.6-0.25,1.18-0.56,1.73-0.92c0.54-0.36,1.06-0.78,1.52-1.24
			c0.46-0.46,0.88-0.98,1.24-1.52c0.36-0.55,0.67-1.13,0.92-1.73c0.25-0.6,0.44-1.23,0.57-1.87c0.13-0.64,0.2-1.3,0.2-1.95
			C258.21,288.55,257.14,285.98,255.28,284.12z"/>
	</g>
</g>
<g>
	<g>
		<path d="M332.24,84.27c-0.47-0.46-0.98-0.88-1.53-1.24c-0.54-0.36-1.12-0.67-1.72-0.92c-0.6-0.25-1.23-0.44-1.87-0.57
			c-1.289-0.26-2.62-0.26-3.91,0c-0.64,0.13-1.27,0.32-1.87,0.57c-0.6,0.25-1.18,0.56-1.73,0.92c-0.54,0.36-1.06,0.78-1.52,1.24
			c-1.86,1.86-2.93,4.44-2.93,7.07c0,2.64,1.07,5.21,2.93,7.07c0.46,0.46,0.98,0.88,1.52,1.25c0.55,0.36,1.13,0.67,1.73,0.92
			c0.6,0.25,1.23,0.44,1.87,0.57c0.64,0.13,1.3,0.19,1.95,0.19c0.66,0,1.31-0.06,1.96-0.19c0.64-0.13,1.27-0.32,1.87-0.57
			c0.6-0.25,1.18-0.56,1.72-0.92c0.55-0.37,1.06-0.79,1.53-1.25c1.86-1.86,2.92-4.43,2.92-7.07
			C335.16,88.71,334.1,86.13,332.24,84.27z"/>
	</g>
</g>
<g>
</g>
<g>
</g>
<g>
</g>
<g>
</g>
<g>
</g>
<g>
</g>
<g>
</g>
<g>
</g>
<g>
</g>
<g>
</g>
<g>
</g>
<g>
</g>
<g>
</g>
<g>
</g>
<g>
</g>
</svg>
