<?xml version="1.0" encoding="iso-8859-1"?>
<!-- Generator: Adobe Illustrator 19.0.0, SVG Export Plug-In . SVG Version: 6.00 Build 0)  -->
<svg version="1.1" id="Capa_1" xmlns="http://www.w3.org/2000/svg" xmlns:xlink="http://www.w3.org/1999/xlink" x="0px" y="0px"
	 viewBox="0 0 512 512" style="enable-background:new 0 0 512 512;" xml:space="preserve">
<g>
	<g>
		<path d="M378.5,77.97c-0.13-0.63-0.32-1.26-0.57-1.87c-0.25-0.6-0.56-1.18-0.92-1.72c-0.37-0.55-0.79-1.06-1.25-1.52
			c-0.46-0.47-0.97-0.88-1.52-1.25c-0.54-0.36-1.12-0.67-1.72-0.92c-0.61-0.25-1.24-0.44-1.87-0.57c-1.29-0.26-2.62-0.26-3.91,0
			c-0.64,0.13-1.27,0.32-1.87,0.57c-0.61,0.25-1.19,0.56-1.73,0.92c-0.55,0.37-1.06,0.78-1.52,1.25c-0.46,0.46-0.88,0.97-1.24,1.52
			c-0.36,0.54-0.67,1.12-0.92,1.72c-0.25,0.61-0.44,1.24-0.57,1.87c-0.13,0.65-0.2,1.31-0.2,1.96s0.07,1.31,0.2,1.95
			s0.32,1.27,0.57,1.87c0.25,0.61,0.56,1.19,0.92,1.73c0.36,0.55,0.78,1.06,1.24,1.52c0.46,0.46,0.97,0.88,1.52,1.24
			c0.54,0.36,1.12,0.67,1.73,0.92c0.6,0.25,1.23,0.44,1.87,0.57c0.64,0.13,1.3,0.2,1.95,0.2s1.31-0.07,1.96-0.2
			c0.63-0.13,1.26-0.32,1.87-0.57c0.6-0.25,1.18-0.56,1.72-0.92c0.55-0.36,1.06-0.78,1.52-1.24c0.46-0.46,0.88-0.97,1.25-1.52
			c0.36-0.54,0.67-1.12,0.92-1.73c0.25-0.6,0.44-1.23,0.57-1.87s0.19-1.3,0.19-1.95S378.63,78.62,378.5,77.97z"/>
	</g>
</g>
<g>
	<g>
		<path d="M130.81,277.3c-0.13-0.64-0.32-1.27-0.57-1.87c-0.25-0.6-0.56-1.18-0.92-1.73c-0.36-0.54-0.78-1.06-1.24-1.52
			c-0.46-0.46-0.97-0.88-1.52-1.24c-0.54-0.36-1.12-0.67-1.73-0.92c-0.6-0.25-1.23-0.44-1.87-0.57c-1.29-0.26-2.62-0.26-3.91,0
			c-0.63,0.13-1.26,0.32-1.87,0.57c-0.6,0.25-1.18,0.56-1.72,0.92c-0.55,0.36-1.06,0.78-1.52,1.24c-0.46,0.46-0.88,0.98-1.25,1.52
			c-0.36,0.55-0.67,1.13-0.92,1.73c-0.25,0.6-0.44,1.23-0.57,1.87c-0.13,0.65-0.19,1.3-0.19,1.95c0,2.64,1.07,5.21,2.93,7.08
			c0.46,0.46,0.97,0.87,1.52,1.24c0.54,0.36,1.12,0.67,1.72,0.92c0.61,0.25,1.24,0.44,1.87,0.57c0.65,0.13,1.31,0.19,1.96,0.19
			s1.31-0.06,1.95-0.19c0.64-0.13,1.27-0.32,1.87-0.57c0.61-0.25,1.19-0.56,1.73-0.92c0.55-0.37,1.06-0.78,1.52-1.24
			c1.86-1.87,2.93-4.441,2.93-7.08C131.01,278.6,130.94,277.95,130.81,277.3z"/>
	</g>
</g>
<g>
	<g>
		<path d="M502,450.228h-63.995v-33.744c13.099-3.614,22.438-15.166,22.438-29.242V273.923c0-21.183-17.233-38.416-38.416-38.416
			H405.42v-21.052c11.549-4.737,19.464-15.771,19.464-28.94V77.621c0-21.951-17.858-39.809-39.809-39.809H316.89
			c0.009-0.343,0.027-0.684,0.027-1.029C316.918,16.501,300.417,0,280.134,0C271.157,0,262.599,3.344,256,9.064
			C249.401,3.344,240.843,0,231.866,0c-20.282,0-36.783,16.501-36.783,36.783c0,0.344,0.018,0.686,0.027,1.029h-68.185
			c-21.951,0-39.809,17.858-39.809,39.809v107.894c0,12.732,8.001,23.711,19.464,28.645v21.348H89.973
			c-21.182,0-38.416,17.233-38.416,38.416v113.319c0,13.625,9.452,25.186,22.438,29.05v33.936H10c-5.523,0-10,4.477-10,10V502
			c0,5.523,4.477,10,10,10h492c5.523,0,10-4.477,10-10v-41.772C512,454.706,507.523,450.228,502,450.228z M231.866,20
			c6.502,0,12.299,3.642,15.128,9.503c1.668,3.457,5.168,5.653,9.006,5.653s7.338-2.197,9.006-5.653
			c2.829-5.862,8.626-9.503,15.128-9.503c9.254,0,16.783,7.529,16.783,16.783c0,0.345-0.01,0.688-0.031,1.029h-81.773
			c-0.02-0.341-0.03-0.684-0.03-1.029C215.083,27.529,222.612,20,231.866,20z M107.116,89.927h224.241c5.523,0,10-4.477,10-10
			s-4.477-10-10-10H108.672c3.009-7.112,10.057-12.115,18.253-12.115h80.529c0.002,0,0.005,0,0.007,0h97.079
			c0.002,0,0.004,0,0.007,0h80.529c10.922,0,19.809,8.886,19.809,19.809v107.894c0,5.951-4.649,10.698-10.819,11.345
			c-0.475,0.048-0.947,0.082-1.442,0.082c-7.057,0-13.02-5.233-13.02-11.427v-28.729c0-5.046-3.76-9.302-8.768-9.924
			c-0.379-0.047-0.755-0.065-1.128-0.07c-0.037,0-0.075-0.007-0.112-0.007c-0.107,0-0.212,0.01-0.318,0.014
			c-0.141,0.005-0.282,0.007-0.422,0.018c-0.149,0.011-0.296,0.03-0.443,0.048c-0.143,0.017-0.286,0.031-0.427,0.054
			c-0.142,0.023-0.281,0.055-0.42,0.085c-0.143,0.03-0.287,0.055-0.428,0.091c-0.132,0.034-0.259,0.077-0.389,0.116
			c-0.283,0.085-0.56,0.181-0.833,0.29c-0.12,0.048-0.241,0.09-0.359,0.143c-0.138,0.061-0.27,0.131-0.404,0.198
			c-0.12,0.06-0.241,0.117-0.359,0.181c-0.129,0.071-0.253,0.149-0.379,0.226c-0.117,0.071-0.235,0.141-0.349,0.217
			c-0.12,0.08-0.236,0.166-0.353,0.251c-0.113,0.083-0.226,0.165-0.336,0.253c-0.111,0.088-0.218,0.18-0.325,0.273
			c-0.109,0.094-0.216,0.19-0.321,0.289c-0.101,0.095-0.199,0.193-0.296,0.293c-0.103,0.106-0.204,0.215-0.303,0.326
			c-0.09,0.102-0.179,0.204-0.265,0.31c-0.097,0.118-0.19,0.24-0.282,0.363c-0.079,0.106-0.158,0.212-0.233,0.322
			c-0.09,0.132-0.175,0.268-0.259,0.404c-0.067,0.11-0.136,0.218-0.199,0.33c-0.083,0.148-0.159,0.301-0.235,0.454
			c-0.054,0.108-0.111,0.215-0.161,0.326c-0.08,0.176-0.149,0.358-0.219,0.539c-0.036,0.094-0.077,0.186-0.111,0.282
			c-0.098,0.281-0.186,0.568-0.26,0.862c-1.316,5.22-6.657,9.009-12.699,9.009s-11.382-3.789-12.698-9.009
			c-1.234-4.894-5.916-8.1-10.928-7.479c-5.008,0.622-8.768,4.877-8.768,9.924v16.564c0,6.194-5.962,11.427-13.02,11.427
			c-7.057,0-13.02-5.233-13.02-11.427v-20.899c0-5.046-3.76-9.302-8.768-9.924c-5.008-0.624-9.694,2.585-10.928,7.479
			c-1.316,5.221-6.657,9.01-12.699,9.01s-11.382-3.789-12.698-9.01c-1.233-4.893-5.917-8.104-10.928-7.479
			c-5.008,0.622-8.768,4.877-8.768,9.924v20.899c0,6.194-5.962,11.427-13.02,11.427c-7.058,0-13.02-5.233-13.02-11.427v-16.564
			c0-5.046-3.76-9.302-8.768-9.924c-5.013-0.625-9.695,2.585-10.929,7.479c-1.316,5.22-6.656,9.009-12.698,9.009
			c-6.041,0-11.382-3.789-12.699-9.009c-1.234-4.894-5.918-8.1-10.928-7.479c-5.008,0.622-8.768,4.877-8.768,9.924v28.729
			c0,6.194-5.962,11.427-13.02,11.427c-0.411,0-0.817-0.021-1.219-0.056c-0.095-0.008-0.189-0.021-0.284-0.031
			c-6.379-0.678-11.517-5.592-11.517-11.34V89.927z M359.643,187.03c0.008,0.163,0.023,0.325,0.034,0.488
			c0.023,0.339,0.047,0.677,0.081,1.013c0.019,0.189,0.043,0.377,0.065,0.566c0.037,0.309,0.077,0.617,0.124,0.923
			c0.029,0.193,0.061,0.385,0.094,0.576c0.052,0.303,0.109,0.605,0.17,0.905c0.038,0.185,0.075,0.37,0.116,0.554
			c0.07,0.314,0.148,0.626,0.228,0.937c0.042,0.164,0.081,0.328,0.126,0.491c0.106,0.383,0.221,0.763,0.341,1.141
			c0.027,0.085,0.05,0.171,0.078,0.255c0.152,0.464,0.316,0.923,0.491,1.377c0.043,0.113,0.091,0.223,0.136,0.335
			c0.135,0.339,0.272,0.676,0.419,1.009c0.068,0.154,0.14,0.306,0.211,0.459c0.132,0.288,0.267,0.575,0.408,0.859
			c0.081,0.162,0.164,0.322,0.247,0.483c0.142,0.274,0.289,0.545,0.439,0.815c0.087,0.157,0.175,0.313,0.265,0.468
			c0.16,0.276,0.326,0.548,0.495,0.818c0.088,0.14,0.173,0.282,0.263,0.421c0.198,0.307,0.403,0.608,0.612,0.908
			c0.067,0.096,0.131,0.195,0.199,0.29c0.283,0.397,0.575,0.788,0.877,1.173c0.031,0.04,0.065,0.078,0.096,0.118
			c0.269,0.339,0.544,0.672,0.826,1c0.097,0.113,0.198,0.223,0.297,0.335c0.223,0.251,0.447,0.5,0.678,0.744
			c0.119,0.126,0.24,0.25,0.362,0.374c0.22,0.226,0.443,0.45,0.671,0.669c0.128,0.124,0.257,0.247,0.386,0.368
			c0.233,0.218,0.47,0.433,0.71,0.645c0.127,0.112,0.254,0.225,0.383,0.336c0.264,0.226,0.533,0.446,0.805,0.663
			c0.11,0.088,0.218,0.179,0.329,0.266c0.773,0.604,1.576,1.176,2.406,1.713c0.112,0.072,0.227,0.141,0.34,0.212
			c0.303,0.191,0.608,0.379,0.918,0.561c0.15,0.088,0.301,0.172,0.453,0.257c0.28,0.158,0.563,0.314,0.848,0.465
			c0.164,0.087,0.33,0.172,0.496,0.256c0.283,0.143,0.568,0.282,0.855,0.418c0.167,0.079,0.335,0.158,0.503,0.234
			c0.302,0.136,0.608,0.266,0.915,0.394c0.156,0.065,0.312,0.133,0.469,0.195c0.371,0.148,0.747,0.288,1.125,0.423
			c0.096,0.034,0.189,0.072,0.285,0.105c0.478,0.166,0.961,0.322,1.448,0.467c0.112,0.033,0.226,0.062,0.339,0.094
			c0.374,0.107,0.751,0.211,1.13,0.306c0.173,0.043,0.349,0.082,0.523,0.123c0.22,0.051,0.439,0.107,0.661,0.155v19.319H126.58
			v-19.168c0.039-0.007,0.076-0.017,0.115-0.024c0.157-0.03,0.312-0.066,0.468-0.099c0.349-0.072,0.698-0.147,1.043-0.23
			c0.187-0.045,0.372-0.094,0.557-0.142c0.312-0.081,0.623-0.163,0.931-0.252c0.194-0.056,0.387-0.115,0.579-0.174
			c0.298-0.092,0.594-0.187,0.888-0.286c0.191-0.065,0.382-0.13,0.572-0.198c0.295-0.106,0.588-0.217,0.879-0.33
			c0.181-0.07,0.362-0.139,0.54-0.213c0.309-0.127,0.614-0.26,0.918-0.395c0.154-0.069,0.31-0.134,0.463-0.205
			c0.392-0.181,0.778-0.371,1.161-0.567c0.061-0.031,0.123-0.059,0.184-0.091c0.443-0.23,0.879-0.469,1.309-0.717
			c0.124-0.072,0.244-0.148,0.367-0.221c0.303-0.18,0.604-0.361,0.901-0.55c0.156-0.1,0.309-0.203,0.463-0.305
			c0.258-0.17,0.514-0.342,0.767-0.519c0.162-0.114,0.322-0.23,0.482-0.346c0.24-0.175,0.478-0.353,0.713-0.534
			c0.158-0.122,0.315-0.244,0.47-0.369c0.233-0.187,0.462-0.377,0.69-0.569c0.148-0.125,0.296-0.25,0.442-0.378
			c0.234-0.205,0.463-0.416,0.691-0.627c0.131-0.121,0.263-0.24,0.391-0.363c0.266-0.255,0.525-0.516,0.781-0.78
			c0.083-0.085,0.169-0.167,0.251-0.253c0.335-0.352,0.661-0.71,0.98-1.076c0.081-0.093,0.157-0.189,0.236-0.283
			c0.235-0.276,0.467-0.553,0.691-0.837c0.111-0.141,0.218-0.284,0.327-0.427c0.186-0.243,0.371-0.488,0.551-0.736
			c0.114-0.158,0.224-0.317,0.334-0.477c0.167-0.241,0.331-0.483,0.491-0.728c0.109-0.167,0.215-0.334,0.321-0.503
			c0.154-0.247,0.305-0.497,0.452-0.748c0.099-0.169,0.198-0.338,0.294-0.508c0.148-0.264,0.29-0.531,0.43-0.799
			c0.085-0.163,0.172-0.324,0.255-0.488c0.153-0.305,0.297-0.614,0.44-0.925c0.06-0.131,0.124-0.26,0.183-0.392
			c0.196-0.444,0.383-0.892,0.558-1.346c0.03-0.078,0.056-0.157,0.085-0.235c0.142-0.378,0.279-0.758,0.407-1.142
			c0.054-0.163,0.102-0.328,0.153-0.492c0.095-0.304,0.188-0.608,0.274-0.915c0.052-0.187,0.099-0.376,0.147-0.564
			c0.075-0.29,0.147-0.581,0.213-0.875c0.044-0.196,0.085-0.393,0.126-0.59c0.06-0.292,0.115-0.585,0.165-0.88
			c0.035-0.199,0.068-0.398,0.099-0.598c0.046-0.303,0.085-0.607,0.122-0.912c0.023-0.193,0.048-0.386,0.068-0.58
			c0.034-0.336,0.058-0.674,0.081-1.013c0.011-0.165,0.026-0.329,0.035-0.495c0.026-0.506,0.041-1.014,0.041-1.525v-4.448
			c3.845,1.479,8.034,2.283,12.395,2.283c4.708,0,9.217-0.938,13.307-2.649c3.487,13.794,16.56,24.076,32.108,24.076
			c17.032,0,31.094-12.337,32.837-28.115c0.487,0.19,0.979,0.37,1.477,0.539c3.484,1.18,7.223,1.815,11.1,1.815
			c4.429,0,8.683-0.83,12.577-2.354c1.743,15.779,15.805,28.115,32.837,28.115c15.548,0,28.621-10.282,32.108-24.076
			c4.09,1.711,8.599,2.649,13.307,2.649c4.361,0,8.55-0.804,12.395-2.283v4.448C359.603,186.023,359.618,186.528,359.643,187.03z
			 M71.56,387.244V273.923h-0.003c0-10.154,8.261-18.416,18.416-18.416h26.607h278.84h26.607c8.539,0,15.718,5.85,17.793,13.747
			H158.341c-5.523,0-10,4.477-10,10s4.477,10,10,10h282.102v97.988c0,5.944-4.824,10.426-11.221,10.426
			c-0.318,0-0.632-0.021-0.945-0.043c-0.189-0.013-0.376-0.033-0.563-0.054c-0.216-0.025-0.43-0.053-0.643-0.089
			c-0.153-0.025-0.304-0.054-0.454-0.084c-0.241-0.049-0.479-0.103-0.714-0.165c-0.121-0.032-0.241-0.065-0.36-0.1
			c-0.257-0.075-0.51-0.158-0.76-0.248c-0.096-0.035-0.192-0.07-0.287-0.107c-0.262-0.102-0.52-0.213-0.772-0.331
			c-0.08-0.037-0.161-0.074-0.24-0.113c-0.257-0.126-0.507-0.262-0.753-0.404c-0.072-0.042-0.144-0.082-0.215-0.125
			c-0.242-0.147-0.475-0.302-0.704-0.463c-0.069-0.049-0.14-0.097-0.208-0.147c-0.219-0.161-0.429-0.331-0.635-0.505
			c-0.071-0.06-0.143-0.118-0.212-0.179c-0.191-0.17-0.373-0.348-0.551-0.528c-0.073-0.074-0.149-0.147-0.22-0.223
			c-0.162-0.174-0.314-0.355-0.463-0.537c-0.074-0.091-0.152-0.18-0.224-0.272c-0.133-0.174-0.255-0.354-0.377-0.535
			c-0.073-0.109-0.15-0.215-0.219-0.326c-0.107-0.173-0.201-0.352-0.297-0.53c-0.067-0.125-0.139-0.247-0.201-0.374
			c-0.084-0.174-0.155-0.354-0.228-0.533c-0.056-0.136-0.118-0.27-0.168-0.408c-0.065-0.183-0.115-0.37-0.169-0.557
			c-0.04-0.139-0.088-0.276-0.121-0.417c-0.049-0.208-0.08-0.421-0.114-0.632c-0.02-0.124-0.049-0.245-0.064-0.37
			c-0.04-0.338-0.062-0.681-0.062-1.027v-27.386c0-5.046-3.76-9.302-8.768-9.924c-0.374-0.046-0.745-0.065-1.115-0.069
			c-0.042,0-0.084-0.008-0.126-0.008c-0.124,0-0.245,0.011-0.368,0.016c-0.117,0.004-0.234,0.006-0.35,0.015
			c-0.186,0.013-0.369,0.036-0.552,0.06c-0.106,0.013-0.213,0.023-0.318,0.04c-0.201,0.032-0.399,0.076-0.597,0.12
			c-0.084,0.019-0.17,0.033-0.254,0.054c-0.279,0.07-0.555,0.152-0.826,0.246c-0.011,0.004-0.022,0.009-0.034,0.014
			c-0.258,0.09-0.511,0.191-0.76,0.302c-0.092,0.041-0.18,0.089-0.271,0.133c-0.165,0.08-0.331,0.159-0.491,0.248
			c-0.103,0.057-0.203,0.121-0.304,0.181c-0.142,0.085-0.284,0.17-0.422,0.262c-0.104,0.069-0.203,0.143-0.304,0.217
			c-0.129,0.094-0.258,0.188-0.382,0.287c-0.1,0.08-0.196,0.163-0.293,0.247c-0.119,0.103-0.236,0.207-0.35,0.315
			c-0.093,0.089-0.184,0.179-0.274,0.272c-0.11,0.113-0.217,0.228-0.322,0.346c-0.085,0.096-0.169,0.193-0.25,0.292
			c-0.102,0.124-0.2,0.252-0.296,0.382c-0.075,0.101-0.15,0.202-0.221,0.306c-0.094,0.137-0.182,0.279-0.27,0.422
			c-0.064,0.104-0.129,0.207-0.189,0.313c-0.088,0.156-0.167,0.316-0.247,0.477c-0.05,0.101-0.103,0.199-0.149,0.302
			c-0.085,0.188-0.16,0.382-0.234,0.577c-0.031,0.082-0.067,0.162-0.096,0.245c-0.099,0.283-0.188,0.571-0.262,0.866
			c-1.052,4.175-4.936,7.349-9.607,8.077c-0.667,0.104-1.351,0.158-2.044,0.158c-0.694,0-1.377-0.054-2.044-0.158
			c-4.671-0.728-8.555-3.902-9.607-8.077c-0.309-1.223-0.833-2.341-1.524-3.32c-1.555-2.203-3.954-3.703-6.642-4.119
			c-0.299-0.046-0.601-0.079-0.906-0.098s-0.613-0.024-0.922-0.014c-0.31,0.01-0.622,0.033-0.935,0.072
			c-5.008,0.622-8.768,4.878-8.768,9.924v15.79c0,0.308-0.018,0.628-0.052,0.952c-0.038,0.352-0.056,0.704-0.056,1.058v9.587
			c0,5.944-4.824,10.426-11.221,10.426c-6.474,0-11.944-4.774-11.944-10.426v-6.823c0-0.848-0.108-1.692-0.321-2.513
			c-0.195-0.751-0.294-1.511-0.294-2.26v-13.842c0-4.845-3.473-8.992-8.242-9.844c-0.893-0.16-1.784-0.195-2.654-0.116
			c-3.199,0.288-6.101,2.11-7.738,4.915c-0.291,0.498-0.543,1.026-0.749,1.583c-1.091,2.956-3.638,5.3-6.78,6.476
			c-1.428,0.535-2.979,0.828-4.572,0.828c-5.548,0-10.448-3.463-11.652-8.235c-1.233-4.893-5.918-8.101-10.928-7.479
			c-5.008,0.622-8.768,4.878-8.768,9.924v15.79c0,0.506-0.058,1.001-0.143,1.491c-0.855,4.951-5.861,8.899-11.721,8.934
			l-0.245-0.006c-0.095-0.001-0.189-0.001-0.285,0l-0.24,0.006c-0.279-0.002-0.553-0.023-0.828-0.042
			c-0.122-0.009-0.246-0.007-0.366-0.019c-5.904-0.574-10.674-5.087-10.674-10.364v-15.79c0-5.046-3.76-9.302-8.768-9.924
			c-5.012-0.621-9.695,2.586-10.928,7.479c-1.053,4.175-4.936,7.349-9.607,8.077c-0.667,0.104-1.351,0.158-2.044,0.158
			c-5.097,0-9.765-3.003-11.352-7.304c-1.677-4.545-6.369-7.232-11.14-6.383c-4.769,0.852-8.242,5-8.242,9.844v13.842
			c0,0.748-0.099,1.507-0.293,2.256c-0.214,0.822-0.322,1.667-0.322,2.516v6.824c0,5.651-5.47,10.426-11.944,10.426
			s-11.944-4.774-11.944-10.426v-25.438c0-4.845-3.473-8.993-8.242-9.844c-2.319-0.414-4.618,0.015-6.563,1.082
			c-1.805,0.99-3.306,2.528-4.228,4.471c-0.128,0.269-0.244,0.546-0.349,0.83c-1.586,4.3-6.254,7.304-11.351,7.304
			c-5.548,0-10.449-3.463-11.652-8.235c-1.233-4.893-5.92-8.102-10.928-7.479c-5.008,0.622-8.768,4.878-8.768,9.924v27.386
			c0,5.287-4.787,9.805-10.706,10.366c-0.059,0.005-0.118,0.007-0.177,0.011c-0.351,0.029-0.704,0.049-1.061,0.049
			C77.029,397.67,71.56,392.896,71.56,387.244z M169.471,417.669c17.614,0,31.944-13.649,31.944-30.426v-3.596
			c3.558,1.298,7.393,2,11.349,2c4.362,0,8.546-0.832,12.368-2.358c3.569,13.089,16.081,22.783,30.924,22.783
			c0.107,0,0.213-0.001,0.305-0.004c0.103,0.002,0.206,0.004,0.309,0.004c14.843,0,27.355-9.694,30.924-22.784
			c3.822,1.526,8.006,2.358,12.368,2.358c3.955,0,7.79-0.702,11.348-2v3.596c0,16.777,14.33,30.426,31.944,30.426
			c17.507,0,31.221-13.365,31.221-30.426v-3.606c3.572,1.304,7.438,2.01,11.456,2.01c0.994,0,1.979-0.043,2.953-0.128
			c2.921-0.254,5.739-0.883,8.395-1.842v3.566c0,0.722,0.036,1.435,0.088,2.144c0.012,0.169,0.025,0.339,0.041,0.507
			c0.063,0.691,0.144,1.376,0.254,2.053c0.017,0.101,0.039,0.2,0.056,0.301c0.103,0.589,0.225,1.171,0.363,1.749
			c0.044,0.185,0.087,0.37,0.134,0.554c0.162,0.623,0.341,1.239,0.542,1.846c0.063,0.19,0.134,0.375,0.2,0.563
			c0.16,0.452,0.331,0.899,0.513,1.341c0.09,0.221,0.178,0.442,0.274,0.661c0.235,0.535,0.486,1.061,0.752,1.58
			c0.132,0.259,0.273,0.513,0.413,0.768c0.176,0.319,0.357,0.634,0.544,0.947c0.223,0.373,0.453,0.741,0.691,1.104
			c0.22,0.334,0.442,0.666,0.675,0.99c0.212,0.296,0.431,0.587,0.654,0.875c0.16,0.208,0.326,0.412,0.491,0.615
			c0.41,0.504,0.836,0.995,1.278,1.474c0.148,0.16,0.294,0.322,0.445,0.479c0.282,0.293,0.57,0.58,0.864,0.863
			c0.142,0.136,0.289,0.268,0.433,0.402c0.515,0.477,1.046,0.936,1.595,1.38c0.17,0.137,0.339,0.275,0.512,0.409
			c0.319,0.247,0.64,0.49,0.969,0.726c0.203,0.145,0.412,0.282,0.618,0.423c0.513,0.349,1.035,0.686,1.571,1.006
			c0.261,0.156,0.523,0.31,0.789,0.459c0.3,0.168,0.599,0.337,0.905,0.496c0.505,0.263,1.019,0.513,1.541,0.751
			c0.256,0.116,0.516,0.225,0.776,0.335c0.428,0.182,0.861,0.354,1.299,0.518c0.15,0.056,0.294,0.124,0.445,0.178v34.492H93.995
			v-34.258c11.646-3.87,20.235-13.987,21.325-26.118c0.012-0.127,0.021-0.255,0.031-0.382c0.056-0.737,0.095-1.479,0.095-2.23
			v-3.567c3.541,1.279,7.371,1.971,11.348,1.971c3.729,0,7.35-0.624,10.733-1.782v3.378
			C137.527,404.02,151.857,417.669,169.471,417.669z M492,492H20v-21.772h63.995h344.011H492V492z"/>
	</g>
</g>
<g>
</g>
<g>
</g>
<g>
</g>
<g>
</g>
<g>
</g>
<g>
</g>
<g>
</g>
<g>
</g>
<g>
</g>
<g>
</g>
<g>
</g>
<g>
</g>
<g>
</g>
<g>
</g>
<g>
</g>
</svg>
