<?xml version="1.0" encoding="iso-8859-1"?>
<!-- Generator: Adobe Illustrator 19.0.0, SVG Export Plug-In . SVG Version: 6.00 Build 0)  -->
<svg version="1.1" id="Capa_1" xmlns="http://www.w3.org/2000/svg" xmlns:xlink="http://www.w3.org/1999/xlink" x="0px" y="0px"
	 viewBox="0 0 512 512" style="enable-background:new 0 0 512 512;" xml:space="preserve">
<g>
	<g>
		<path d="M468.994,445.228H436.01V336.32v-53.59v-53.741c12.202-7.292,20.393-20.628,20.393-35.846v-82.57
			c0-18.489-15.043-33.532-33.532-33.532h-72.592c-0.268-17.259-11.792-31.892-27.546-36.814c0.009-0.342,0.014-0.684,0.014-1.026
			C322.746,17.585,305.16,0,283.545,0C273.016,0,263.188,4.231,256,11.321C248.812,4.231,238.984,0,228.455,0
			c-21.615,0-39.201,17.585-39.201,39.201c0,0.342,0.004,0.685,0.013,1.026c-15.753,4.922-27.278,19.555-27.546,36.814H89.129
			c-18.489,0-33.531,15.042-33.531,33.531v82.571c0,15.218,8.191,28.554,20.392,35.846v49.051v62.98v104.208H43.006
			c-5.523,0-10,4.477-10,10V502c0,5.523,4.477,10,10,10h425.988c5.522,0,10-4.477,10-10v-46.772
			C478.994,449.706,474.517,445.228,468.994,445.228z M200.811,58.457c3.207-0.016,6.211-1.569,8.079-4.176s2.372-5.951,1.356-8.993
			c-0.658-1.97-0.992-4.018-0.992-6.088c0-10.587,8.613-19.201,19.201-19.201c8.133,0,15.413,5.154,18.113,12.825
			c1.409,4.002,5.189,6.68,9.433,6.68c4.242,0,8.023-2.677,9.433-6.679c2.7-7.671,9.979-12.826,18.112-12.826
			c10.588,0,19.201,8.613,19.201,19.201c0,2.071-0.333,4.119-0.991,6.086c-1.017,3.042-0.513,6.386,1.355,8.993
			c1.867,2.607,4.872,4.161,8.079,4.177c10.327,0.052,18.767,8.333,19.092,18.584H181.718
			C182.043,66.79,190.483,58.509,200.811,58.457z M75.597,193.145v-59.637h0.001h238.226c5.522,0,10-4.477,10-10s-4.478-10-10-10
			H75.598v-2.935c0-7.461,6.07-13.531,13.531-13.531h84.13h165.48h84.13c7.462,0,13.532,6.07,13.532,13.532v39.253H198.176
			c-5.523,0-10,4.477-10,10c0,5.523,4.477,10,10,10h238.226v23.318c0,9.331-5.912,17.306-14.187,20.38
			c-0.454,0.168-0.913,0.319-1.375,0.456c-0.178,0.053-0.356,0.104-0.535,0.152c-0.487,0.131-0.978,0.245-1.474,0.341
			c-0.149,0.029-0.299,0.055-0.448,0.08c-0.536,0.092-1.076,0.17-1.62,0.221c-0.094,0.009-0.188,0.014-0.282,0.021
			c-0.6,0.049-1.204,0.081-1.812,0.081c-0.749,0-1.489-0.038-2.219-0.113c-0.73-0.074-1.449-0.185-2.155-0.33
			c-0.707-0.145-1.401-0.324-2.081-0.536c-8.841-2.756-15.278-11.018-15.278-20.755c0-5.523-4.478-10-10-10c-5.522,0-10,4.477-10,10
			c0,9.737-6.437,17.999-15.278,20.755c-0.68,0.212-1.375,0.391-2.081,0.536c-0.707,0.145-1.426,0.256-2.156,0.33
			c-0.73,0.074-1.47,0.113-2.219,0.113c-0.749,0-1.489-0.038-2.219-0.113c-0.73-0.074-1.449-0.185-2.155-0.33
			c-0.707-0.145-1.401-0.324-2.081-0.536c-8.841-2.756-15.278-11.018-15.278-20.755c0-5.523-4.478-10-10-10c-5.522,0-10,4.477-10,10
			c0,9.737-6.436,17.999-15.278,20.755c-0.68,0.212-1.375,0.391-2.081,0.536c-0.707,0.145-1.426,0.256-2.156,0.33
			c-0.73,0.074-1.47,0.113-2.219,0.113c-0.749,0-1.489-0.038-2.219-0.113c-0.73-0.074-1.449-0.185-2.155-0.33
			c-0.707-0.145-1.401-0.324-2.081-0.536c-8.844-2.756-15.28-11.018-15.28-20.755c0-5.523-4.478-10-10-10c-5.523,0-10,4.477-10,10
			c0,9.737-6.436,17.999-15.278,20.755c-0.68,0.212-1.374,0.391-2.081,0.536c-0.707,0.145-1.426,0.256-2.156,0.33
			c-0.73,0.074-1.47,0.113-2.219,0.113c-0.804,0-1.596-0.047-2.378-0.133c-0.544-0.06-1.082-0.142-1.614-0.241
			c-2.152-0.401-4.193-1.12-6.074-2.107c-0.242-0.127-0.481-0.259-0.717-0.395c-0.613-0.352-1.208-0.733-1.782-1.141
			c-5.543-3.943-9.169-10.412-9.169-17.717c0-5.523-4.477-10-10-10c-5.523,0-10,4.477-10,10c0,9.737-6.436,17.999-15.278,20.755
			c-0.68,0.212-1.375,0.391-2.081,0.536c-0.707,0.145-1.426,0.256-2.156,0.33c-0.73,0.074-1.47,0.113-2.219,0.113
			c-0.749,0-1.489-0.038-2.219-0.113c-0.73-0.074-1.449-0.185-2.156-0.33c-0.707-0.145-1.401-0.324-2.081-0.536
			c-8.842-2.756-15.278-11.018-15.278-20.755c0-5.523-4.477-10-10-10s-10,4.477-10,10c0,9.737-6.437,17.999-15.278,20.755
			c-0.68,0.212-1.375,0.391-2.081,0.536c-0.707,0.145-1.426,0.256-2.156,0.33c-0.73,0.074-1.47,0.113-2.219,0.113
			c-0.608,0-1.212-0.032-1.812-0.081c-0.094-0.008-0.189-0.012-0.282-0.021c-0.545-0.052-1.085-0.129-1.622-0.221
			c-0.149-0.026-0.297-0.051-0.445-0.08c-0.497-0.096-0.99-0.212-1.479-0.342c-0.177-0.048-0.353-0.098-0.528-0.15
			c-0.465-0.137-0.926-0.289-1.382-0.458C81.508,210.449,75.597,202.475,75.597,193.145z M414.665,380.802
			c-12.684,0-24.063,5.685-31.725,14.643c-0.708-0.827-1.451-1.63-2.228-2.407c-7.877-7.89-18.359-12.235-29.517-12.235
			c-12.681,0-24.06,5.688-31.719,14.645c-0.71-0.828-1.455-1.632-2.234-2.41c-7.877-7.89-18.359-12.235-29.518-12.235
			c-12.681,0-24.059,5.688-31.718,14.645c-0.709-0.827-1.454-1.631-2.234-2.41c-7.876-7.89-18.355-12.235-29.507-12.235
			c-12.684,0-24.063,5.685-31.725,14.643c-0.707-0.827-1.451-1.629-2.228-2.407c-7.876-7.89-18.359-12.235-29.518-12.235
			c-12.681,0-24.059,5.688-31.719,14.645c-0.71-0.828-1.455-1.632-2.234-2.41c-7.876-7.89-18.359-12.235-29.517-12.235
			c-0.446,0-0.89,0.016-1.335,0.03v-26.999c1.359,0.123,2.728,0.197,4.11,0.197c11.491,0,22.298-4.405,30.414-12.014
			c8.121,7.608,18.929,12.014,30.417,12.014c11.495,0,22.306-4.406,30.423-12.014c8.121,7.609,18.929,12.014,30.417,12.014
			c11.488,0,22.295-4.405,30.416-12.014c8.116,7.608,18.923,12.014,30.414,12.014c11.495,0,22.306-4.406,30.424-12.014
			c8.12,7.608,18.929,12.014,30.416,12.014s22.296-4.406,30.417-12.014c8.118,7.608,18.929,12.014,30.424,12.014
			c3.982,0,7.927-0.547,11.729-1.588v28.388C415.562,380.818,415.115,380.802,414.665,380.802z M416.003,400.844v44.386H95.995
			v-44.388c0.441-0.027,0.885-0.04,1.33-0.04c5.809,0,11.265,2.261,15.375,6.377c4.104,4.097,6.365,9.553,6.365,15.363
			c0,5.523,4.477,10,10,10s10-4.477,10-10c0-11.988,9.748-21.74,21.73-21.74c5.81,0,11.265,2.261,15.369,6.372
			c4.102,4.102,6.361,9.56,6.361,15.369c0,5.523,4.477,10,10,10c5.523,0,10-4.477,10-10c0-11.988,9.752-21.74,21.74-21.74
			c5.803,0,11.255,2.261,15.365,6.377c4.105,4.098,6.365,9.554,6.365,15.363c0,5.523,4.477,10,10,10c5.522,0,10-4.477,10-10
			c0-11.988,9.748-21.74,21.729-21.74c5.81,0,11.266,2.261,15.375,6.377c4.104,4.097,6.365,9.553,6.365,15.363
			c0,5.523,4.478,10,10,10c5.522,0,10-4.477,10-10c0-11.988,9.748-21.74,21.73-21.74c5.809,0,11.265,2.261,15.368,6.372
			c4.103,4.102,6.361,9.56,6.361,15.369c0,5.523,4.478,10,10,10c5.522,0,10-4.477,10-10c0-11.988,9.753-21.74,21.74-21.74
			C415.111,400.804,415.559,400.818,416.003,400.844z M404.281,334.03c-9.048,0-17.327-4.959-21.605-12.943
			c-1.741-3.247-5.126-5.275-8.81-5.276c-0.001,0-0.003,0-0.004,0c-3.683,0-7.068,2.024-8.811,5.27
			c-4.289,7.988-12.569,12.95-21.61,12.95c-9.04,0-17.32-4.962-21.609-12.95c-1.743-3.245-5.127-5.27-8.811-5.27
			c-0.001,0-0.003,0-0.004,0c-3.684,0.001-7.069,2.029-8.809,5.276c-4.279,7.984-12.559,12.943-21.607,12.943
			c-9.041,0-17.316-4.96-21.596-12.944c-1.741-3.247-5.126-5.274-8.81-5.276c-0.002,0-0.002,0-0.004,0
			c-3.683,0-7.068,2.025-8.811,5.27c-4.289,7.988-12.569,12.95-21.609,12.95c-9.041,0-17.321-4.962-21.609-12.95
			c-1.742-3.245-5.127-5.27-8.811-5.27c-0.001,0-0.002,0-0.003,0c-3.685,0.001-7.07,2.028-8.811,5.276
			c-4.279,7.984-12.558,12.944-21.606,12.944c-9.041,0-17.321-4.962-21.61-12.95c-1.742-3.245-5.127-5.27-8.81-5.27
			c-0.001,0-0.003,0-0.004,0c-3.685,0.001-7.07,2.029-8.81,5.276c-4.279,7.984-12.554,12.943-21.596,12.943
			c-1.395,0-2.767-0.113-4.11-0.338v-48.324c1.343-0.225,2.715-0.338,4.11-0.338c9.046,0,17.32,4.959,21.594,12.94
			c1.74,3.249,5.126,5.278,8.812,5.28c0.001,0,0.002,0,0.004,0c3.684,0,7.07-2.026,8.812-5.273
			c4.284-7.986,12.564-12.947,21.608-12.947c9.052,0,17.33,4.959,21.604,12.941c1.74,3.25,5.126,5.278,8.812,5.279
			c0.001,0,0.002,0,0.003,0c3.685,0,7.071-2.026,8.813-5.273c4.283-7.986,12.563-12.947,21.607-12.947
			c9.044,0,17.324,4.961,21.607,12.947c1.742,3.247,5.128,5.273,8.813,5.273c0.001,0,0.003,0,0.004,0
			c3.686-0.001,7.072-2.03,8.813-5.279c4.274-7.982,12.549-12.941,21.594-12.941c9.052,0,17.33,4.959,21.605,12.94
			c1.739,3.249,5.126,5.278,8.811,5.28c0.001,0,0.003,0,0.004,0c3.685,0,7.07-2.026,8.813-5.273
			c4.284-7.986,12.564-12.947,21.608-12.947c9.045,0,17.324,4.961,21.608,12.947c1.742,3.247,5.128,5.273,8.813,5.273
			c0.001,0,0.003,0,0.004,0c3.685-0.001,7.072-2.03,8.811-5.28c4.274-7.982,12.553-12.94,21.604-12.94
			c4.175,0,8.161,1.019,11.729,2.976v43.045h-0.001C412.444,333.01,408.457,334.03,404.281,334.03z M95.99,265.227v-30.371
			c0.446,0.014,0.893,0.021,1.341,0.021c12.689,0,24.074-5.692,31.734-14.657c4.788,5.603,11.03,9.927,18.137,12.383
			c0.711,0.246,1.43,0.473,2.157,0.68c1.455,0.415,2.941,0.753,4.456,1.009c2.271,0.384,4.605,0.585,6.984,0.585
			c12.689,0,24.073-5.692,31.734-14.657c7.661,8.964,19.045,14.657,31.734,14.657c2.379,0,4.712-0.2,6.984-0.585
			c1.514-0.256,3.001-0.594,4.456-1.009c0.727-0.208,1.447-0.435,2.157-0.68c7.106-2.455,13.349-6.78,18.137-12.383
			c4.788,5.603,11.03,9.927,18.136,12.383c0.711,0.246,1.43,0.473,2.157,0.68c1.455,0.415,2.941,0.753,4.456,1.009
			c2.272,0.384,4.605,0.585,6.984,0.585c12.689,0,24.073-5.692,31.734-14.657c7.66,8.965,19.045,14.657,31.733,14.657
			c2.379,0,4.712-0.2,6.984-0.585c1.514-0.256,3.001-0.594,4.456-1.009c0.727-0.208,1.447-0.435,2.157-0.68
			c7.106-2.455,13.349-6.78,18.137-12.383c4.788,5.603,11.03,9.927,18.136,12.383c0.711,0.246,1.43,0.473,2.157,0.68
			c1.455,0.415,2.942,0.753,4.456,1.009c2.271,0.384,4.605,0.585,6.984,0.585c0.448,0,0.896-0.007,1.342-0.021v31.762
			c-3.803-1.041-7.748-1.588-11.729-1.588c-11.498,0-22.308,4.404-30.424,12.011c-8.118-7.606-18.928-12.011-30.417-12.011
			c-11.489,0-22.298,4.405-30.416,12.011c-8.116-7.607-18.926-12.011-30.424-12.011c-11.492,0-22.3,4.405-30.414,12.011
			c-8.119-7.606-18.926-12.011-30.416-12.011c-11.49,0-22.298,4.405-30.417,12.011c-8.116-7.607-18.925-12.011-30.423-12.011
			c-11.489,0-22.297,4.404-30.416,12.011c-8.114-7.606-18.921-12.011-30.414-12.011C98.718,265.03,97.349,265.104,95.99,265.227z
			 M458.994,492H53.006v-26.772H85.99h0.005h340.01h0.005h32.984V492z"/>
	</g>
</g>
<g>
	<g>
		<path d="M360.959,121.55c-0.13-0.63-0.32-1.26-0.57-1.87c-0.25-0.6-0.56-1.18-0.92-1.72c-0.36-0.55-0.78-1.06-1.24-1.52
			c-0.46-0.46-0.97-0.88-1.52-1.25c-0.54-0.36-1.12-0.67-1.73-0.92c-0.6-0.25-1.23-0.44-1.87-0.57c-1.29-0.26-2.619-0.26-3.909,0
			c-0.641,0.13-1.261,0.32-1.87,0.57c-0.601,0.25-1.181,0.56-1.73,0.92c-0.54,0.37-1.05,0.79-1.51,1.25
			c-0.47,0.46-0.88,0.97-1.25,1.52c-0.36,0.54-0.67,1.12-0.92,1.72c-0.25,0.61-0.44,1.24-0.57,1.87
			c-0.13,0.65-0.189,1.31-0.189,1.96c0,0.65,0.059,1.31,0.189,1.95c0.13,0.64,0.32,1.27,0.57,1.87c0.25,0.61,0.56,1.19,0.92,1.73
			c0.37,0.55,0.78,1.059,1.25,1.52c0.46,0.46,0.97,0.88,1.51,1.24c0.55,0.36,1.13,0.67,1.73,0.92c0.609,0.25,1.229,0.44,1.87,0.57
			c0.649,0.13,1.31,0.2,1.96,0.2c0.649,0,1.309-0.07,1.949-0.2c0.641-0.13,1.271-0.32,1.87-0.57c0.61-0.25,1.19-0.56,1.73-0.92
			c0.55-0.36,1.059-0.78,1.52-1.24c0.46-0.46,0.88-0.97,1.24-1.52c0.36-0.54,0.67-1.12,0.92-1.73c0.25-0.6,0.44-1.23,0.57-1.87
			c0.13-0.64,0.2-1.3,0.2-1.95C361.159,122.86,361.089,122.2,360.959,121.55z"/>
	</g>
</g>
<g>
	<g>
		<path d="M170.65,157.869c-0.13-0.64-0.32-1.27-0.57-1.87s-0.56-1.18-0.92-1.73c-0.37-0.54-0.79-1.05-1.25-1.52
			c-0.46-0.46-0.97-0.87-1.52-1.24c-0.54-0.36-1.12-0.67-1.72-0.92c-0.61-0.25-1.24-0.44-1.87-0.57c-3.25-0.65-6.71,0.41-9.03,2.73
			c-0.46,0.47-0.88,0.98-1.24,1.52c-0.36,0.55-0.67,1.13-0.92,1.73s-0.44,1.23-0.57,1.87c-0.13,0.65-0.2,1.3-0.2,1.96
			c0,2.63,1.07,5.21,2.93,7.07c1.86,1.861,4.44,2.931,7.07,2.931c0.65,0,1.31-0.07,1.96-0.2c0.63-0.13,1.26-0.32,1.87-0.57
			c0.6-0.25,1.18-0.56,1.72-0.921c0.55-0.36,1.06-0.78,1.52-1.24c1.86-1.86,2.93-4.44,2.93-7.07
			C170.84,159.169,170.78,158.519,170.65,157.869z"/>
	</g>
</g>
<g>
</g>
<g>
</g>
<g>
</g>
<g>
</g>
<g>
</g>
<g>
</g>
<g>
</g>
<g>
</g>
<g>
</g>
<g>
</g>
<g>
</g>
<g>
</g>
<g>
</g>
<g>
</g>
<g>
</g>
</svg>
