<?xml version="1.0" encoding="iso-8859-1"?>
<!-- Generator: Adobe Illustrator 19.0.0, SVG Export Plug-In . SVG Version: 6.00 Build 0)  -->
<svg version="1.1" id="Capa_1" xmlns="http://www.w3.org/2000/svg" xmlns:xlink="http://www.w3.org/1999/xlink" x="0px" y="0px"
	 viewBox="0 0 512 512" style="enable-background:new 0 0 512 512;" xml:space="preserve">
<g>
	<g>
		<path d="M158.34,430.62c-0.13-0.641-0.32-1.27-0.57-1.87c-0.25-0.601-0.56-1.19-0.92-1.73c-0.36-0.54-0.78-1.06-1.24-1.52
			c-0.46-0.46-0.97-0.88-1.52-1.24c-0.54-0.36-1.12-0.67-1.73-0.92c-0.6-0.25-1.23-0.44-1.87-0.57c-1.29-0.26-2.62-0.26-3.91,0
			c-0.63,0.13-1.26,0.32-1.87,0.57c-0.6,0.25-1.18,0.56-1.72,0.92c-0.55,0.36-1.06,0.78-1.52,1.24c-0.46,0.46-0.88,0.979-1.25,1.52
			c-0.36,0.54-0.67,1.13-0.91,1.73c-0.25,0.6-0.45,1.229-0.58,1.87c-0.12,0.649-0.19,1.3-0.19,1.949c0,0.66,0.07,1.311,0.19,1.961
			c0.13,0.64,0.33,1.27,0.58,1.869c0.25,0.601,0.55,1.181,0.91,1.721c0.37,0.55,0.79,1.06,1.25,1.52c0.46,0.46,0.97,0.88,1.52,1.25
			c0.54,0.36,1.12,0.67,1.72,0.92c0.61,0.25,1.24,0.44,1.87,0.57c0.65,0.13,1.31,0.189,1.96,0.189c0.65,0,1.31-0.06,1.95-0.189
			c0.64-0.13,1.27-0.32,1.87-0.57c0.61-0.25,1.19-0.56,1.73-0.92c0.55-0.37,1.06-0.79,1.52-1.25c0.46-0.46,0.88-0.97,1.24-1.52
			c0.36-0.54,0.67-1.12,0.92-1.721c0.25-0.6,0.44-1.23,0.57-1.869c0.13-0.65,0.2-1.301,0.2-1.961
			C158.54,431.92,158.47,431.269,158.34,430.62z"/>
	</g>
</g>
<g>
	<g>
		<path d="M466.05,95.677h-42.442c1.992-5.066,3.053-10.514,3.053-16.104c0-24.27-19.745-44.014-44.014-44.014
			c-24.269,0-44.014,19.744-44.014,44.014c0,5.59,1.061,11.039,3.053,16.104H296.96c1.991-5.066,3.053-10.514,3.053-16.104
			c0-24.27-19.745-44.014-44.014-44.014c-24.269,0-44.014,19.744-44.014,44.014c0,5.591,1.062,11.039,3.053,16.104h-44.726
			c1.992-5.066,3.053-10.514,3.053-16.104c0-24.27-19.745-44.014-44.014-44.014S85.337,55.303,85.337,79.573
			c0,5.591,1.062,11.039,3.053,16.104H45.95C20.613,95.677,0,116.29,0,141.627v123.525c0,14.948,9.695,27.782,23.427,33.151v66.767
			v101.371c0,5.522,4.477,10,10,10h445.146c5.523,0,10-4.478,10-10V365.07v-66.454C502.409,293.499,512,280.62,512,265.152V141.627
			C512,116.29,491.387,95.677,466.05,95.677z M382.648,55.558c13.241,0,24.014,10.772,24.014,24.014
			c0,6.002-2.229,11.714-6.206,16.104h-35.617c-3.976-4.39-6.205-10.101-6.205-16.104C358.634,66.331,369.406,55.558,382.648,55.558
			z M256,55.558c13.241,0,24.014,10.772,24.014,24.014c0,6.003-2.229,11.714-6.206,16.104h-35.616
			c-3.977-4.39-6.206-10.102-6.206-16.104C231.986,66.331,242.759,55.558,256,55.558z M129.353,55.558
			c13.241,0,24.014,10.772,24.014,24.014c0,6.003-2.229,11.714-6.206,16.104h-35.616c-3.977-4.39-6.206-10.102-6.206-16.104
			C105.339,66.331,116.111,55.558,129.353,55.558z M468.573,422.574H185.575c-5.523,0-10,4.478-10,10c0,5.523,4.477,10,10,10
			h282.998v13.867H43.427V375.07h425.146V422.574z M72.504,333.322l17.603-17.603l17.603,17.603l-17.603,17.603L72.504,333.322z
			 M183.1,333.322l17.603-17.603l17.603,17.603l-17.603,17.603L183.1,333.322z M293.695,333.322l17.603-17.603l17.603,17.603
			l-17.603,17.603L293.695,333.322z M404.29,333.322l17.603-17.603l17.603,17.603l-17.603,17.603L404.29,333.322z M468.578,355.07
			h-22.54l14.677-14.677c3.905-3.905,3.905-10.237,0-14.143l-31.745-31.745c-1.875-1.875-4.419-2.929-7.071-2.929
			c-2.652,0-5.196,1.054-7.071,2.929l-31.745,31.745c-3.905,3.905-3.905,10.237,0,14.143l14.677,14.677h-62.316l14.677-14.677
			c3.905-3.905,3.905-10.237,0-14.143l-31.745-31.745c-1.876-1.875-4.419-2.929-7.071-2.929c-2.652,0-5.196,1.054-7.071,2.929
			l-31.745,31.745c-3.905,3.905-3.905,10.237,0,14.143l14.677,14.677H224.85l14.677-14.677c3.905-3.905,3.905-10.237,0-14.143
			l-31.745-31.745c-1.875-1.875-4.419-2.929-7.071-2.929c-2.652,0-5.196,1.054-7.071,2.929l-31.745,31.745
			c-3.905,3.905-3.905,10.237,0,14.143l14.677,14.677h-62.316l14.677-14.677c3.905-3.905,3.905-10.237,0-14.143l-31.745-31.745
			c-1.876-1.875-4.419-2.929-7.071-2.929c-2.652,0-5.196,1.054-7.071,2.929L51.301,326.25c-3.905,3.905-3.905,10.237,0,14.143
			l14.676,14.677h-22.54v-54.48c0.014-0.002,0.028-0.005,0.043-0.007c0.126-0.019,0.261-0.045,0.397-0.067
			c0.459-0.071,0.916-0.146,1.37-0.233c0.217-0.042,0.431-0.091,0.646-0.136c0.369-0.077,0.737-0.155,1.102-0.242
			c0.238-0.057,0.473-0.12,0.709-0.182c0.337-0.088,0.674-0.176,1.008-0.272c0.244-0.07,0.486-0.146,0.729-0.221
			c0.321-0.099,0.641-0.201,0.958-0.308c0.244-0.082,0.486-0.168,0.727-0.255c0.311-0.112,0.619-0.228,0.925-0.347
			c0.24-0.093,0.478-0.188,0.716-0.286c0.304-0.126,0.605-0.256,0.906-0.389c0.231-0.103,0.463-0.204,0.692-0.311
			c0.303-0.141,0.601-0.289,0.899-0.438c0.219-0.109,0.439-0.216,0.656-0.329c0.311-0.163,0.617-0.334,0.923-0.504
			c0.195-0.109,0.393-0.214,0.586-0.326c0.363-0.211,0.72-0.432,1.075-0.655c0.129-0.081,0.262-0.157,0.389-0.239
			c0.475-0.306,0.942-0.621,1.401-0.947c0.153-0.108,0.3-0.223,0.451-0.333c0.308-0.225,0.615-0.45,0.916-0.684
			c0.182-0.141,0.358-0.289,0.537-0.433c0.262-0.211,0.524-0.423,0.779-0.641c0.186-0.158,0.367-0.321,0.549-0.483
			c0.241-0.213,0.48-0.428,0.715-0.647c0.182-0.17,0.361-0.344,0.54-0.518c0.226-0.22,0.45-0.442,0.671-0.668
			c0.175-0.18,0.348-0.361,0.52-0.544c0.215-0.229,0.426-0.461,0.635-0.695c0.166-0.186,0.331-0.373,0.493-0.563
			c0.206-0.241,0.407-0.486,0.607-0.733c0.154-0.19,0.308-0.379,0.458-0.572c0.201-0.259,0.395-0.522,0.589-0.785
			c0.138-0.188,0.278-0.374,0.413-0.564c0.203-0.288,0.397-0.582,0.592-0.875c0.115-0.173,0.233-0.343,0.345-0.518
			c0.247-0.388,0.484-0.783,0.716-1.181c0.05-0.086,0.104-0.168,0.153-0.254c0.277-0.483,0.541-0.974,0.794-1.47
			c0.082-0.161,0.157-0.326,0.237-0.488c0.168-0.341,0.334-0.683,0.491-1.029c0.091-0.201,0.174-0.405,0.261-0.608
			c0.134-0.313,0.268-0.627,0.393-0.945c0.087-0.221,0.167-0.444,0.25-0.666c0.114-0.307,0.225-0.614,0.33-0.925
			c0.078-0.231,0.151-0.463,0.225-0.696c0.097-0.309,0.191-0.619,0.279-0.932c0.067-0.236,0.131-0.474,0.193-0.712
			c0.082-0.315,0.159-0.632,0.232-0.95c0.055-0.239,0.109-0.478,0.159-0.719c0.067-0.326,0.127-0.654,0.185-0.983
			c0.042-0.237,0.085-0.473,0.121-0.711c0.053-0.344,0.097-0.691,0.14-1.039c0.028-0.227,0.059-0.452,0.083-0.68
			c0.04-0.386,0.067-0.775,0.094-1.164c0.013-0.192,0.032-0.382,0.042-0.575c0.03-0.584,0.047-1.171,0.047-1.762v-8.494
			c5.138,2.459,10.927,3.822,17.009,3.822c5.74,0,11.262-1.245,16.23-3.506v8.178c0,19.763,16.94,35.841,37.763,35.841
			c20.822,0,37.762-16.078,37.762-35.841v-8.469l0.002-0.072c5.166,2.49,10.966,3.869,17.006,3.869
			c6.286,0,12.26-1.457,17.524-4.073c2.984,16.953,18.55,29.915,37.247,29.915c0.137,0,0.273-0.002,0.379-0.006
			c0.133,0.004,0.266,0.006,0.399,0.006c18.696,0,34.263-12.962,37.247-29.915c5.265,2.616,11.238,4.073,17.524,4.073
			c6.04,0,11.84-1.379,17.006-3.869l0.003,8.541c0,19.763,16.94,35.841,37.763,35.841c20.662,0,36.848-15.743,36.848-35.841v-8.56
			c5.171,2.5,11.01,3.888,17.145,3.888c6.082,0,11.871-1.363,17.009-3.822v8.494c0,0.587,0.017,1.17,0.047,1.75
			c0.01,0.191,0.028,0.379,0.041,0.569c0.026,0.388,0.054,0.776,0.093,1.16c0.023,0.224,0.053,0.446,0.08,0.669
			c0.042,0.348,0.087,0.694,0.139,1.039c0.036,0.234,0.077,0.466,0.117,0.698c0.058,0.331,0.119,0.66,0.186,0.988
			c0.048,0.234,0.099,0.468,0.152,0.701c0.074,0.324,0.153,0.646,0.236,0.966c0.059,0.229,0.119,0.457,0.182,0.684
			c0.091,0.325,0.189,0.646,0.29,0.967c0.068,0.216,0.134,0.434,0.206,0.648c0.113,0.339,0.236,0.673,0.36,1.007
			c0.071,0.191,0.137,0.384,0.211,0.573c0.161,0.413,0.334,0.821,0.511,1.227c0.046,0.105,0.087,0.213,0.134,0.318
			c0.226,0.506,0.465,1.005,0.715,1.499c0.08,0.157,0.166,0.31,0.248,0.466c0.176,0.336,0.354,0.672,0.541,1.002
			c0.109,0.193,0.225,0.382,0.338,0.573c0.17,0.288,0.341,0.574,0.52,0.857c0.126,0.2,0.257,0.397,0.388,0.595
			c0.177,0.268,0.355,0.534,0.539,0.797c0.139,0.199,0.28,0.395,0.423,0.591c0.186,0.255,0.376,0.508,0.569,0.759
			c0.149,0.193,0.298,0.385,0.451,0.576c0.199,0.248,0.404,0.493,0.61,0.736c0.155,0.183,0.31,0.367,0.469,0.548
			c0.219,0.249,0.444,0.492,0.67,0.734c0.154,0.166,0.306,0.334,0.464,0.497c0.262,0.271,0.532,0.536,0.803,0.799
			c0.13,0.126,0.255,0.257,0.387,0.381c0.401,0.379,0.81,0.749,1.227,1.111c0.13,0.112,0.265,0.218,0.396,0.329
			c0.298,0.25,0.596,0.5,0.902,0.742c0.18,0.142,0.365,0.278,0.548,0.417c0.266,0.202,0.531,0.403,0.802,0.599
			c0.2,0.144,0.405,0.284,0.608,0.424c0.263,0.181,0.526,0.361,0.794,0.536c0.211,0.138,0.425,0.273,0.64,0.407
			c0.269,0.168,0.539,0.333,0.813,0.495c0.219,0.129,0.438,0.257,0.66,0.382c0.279,0.157,0.56,0.31,0.844,0.461
			c0.222,0.118,0.444,0.237,0.669,0.351c0.296,0.15,0.595,0.293,0.895,0.436c0.218,0.104,0.435,0.21,0.656,0.31
			c0.334,0.151,0.673,0.293,1.012,0.435c0.193,0.081,0.383,0.166,0.577,0.243c0.53,0.212,1.065,0.413,1.606,0.602
			c0.111,0.038,0.224,0.071,0.335,0.109c0.44,0.149,0.882,0.294,1.329,0.428c0.211,0.063,0.426,0.118,0.638,0.178
			c0.352,0.099,0.704,0.197,1.061,0.287c0.237,0.06,0.477,0.113,0.717,0.168c0.338,0.078,0.676,0.154,1.018,0.223
			c0.25,0.051,0.501,0.097,0.752,0.143c0.189,0.034,0.375,0.075,0.564,0.107V355.07z M492.001,265.152H492
			c0,8.252-6.39,14.834-14.871,15.728c-0.167,0.017-0.331,0.031-0.493,0.044c-0.489,0.039-0.982,0.068-1.484,0.068
			c-9.794,0-17.762-7.107-17.762-15.841v-34.648c0-5.047-3.76-9.302-8.768-9.924c-0.379-0.047-0.755-0.066-1.129-0.07
			c-0.037,0-0.074-0.007-0.111-0.007c-0.105,0-0.208,0.01-0.313,0.013c-0.145,0.004-0.289,0.007-0.433,0.018
			c-0.14,0.011-0.278,0.029-0.417,0.045c-0.153,0.018-0.306,0.033-0.457,0.058c-0.12,0.02-0.237,0.047-0.355,0.071
			c-0.166,0.033-0.333,0.064-0.496,0.106c-0.048,0.012-0.095,0.029-0.143,0.043c-0.46,0.125-0.909,0.281-1.343,0.468
			c-0.023,0.01-0.047,0.018-0.07,0.028c-0.176,0.078-0.346,0.166-0.517,0.254c-0.081,0.042-0.164,0.08-0.245,0.123
			c-0.154,0.084-0.302,0.177-0.451,0.269c-0.092,0.057-0.186,0.112-0.277,0.172c-0.138,0.092-0.272,0.19-0.405,0.288
			c-0.095,0.07-0.191,0.14-0.284,0.213c-0.125,0.099-0.246,0.203-0.366,0.308c-0.094,0.082-0.188,0.165-0.279,0.251
			c-0.113,0.107-0.223,0.216-0.331,0.328c-0.091,0.094-0.18,0.19-0.268,0.288c-0.1,0.112-0.199,0.226-0.294,0.343
			c-0.087,0.107-0.171,0.217-0.254,0.328c-0.087,0.117-0.174,0.233-0.256,0.354c-0.083,0.121-0.16,0.246-0.238,0.372
			c-0.074,0.119-0.148,0.237-0.217,0.359c-0.077,0.138-0.147,0.28-0.219,0.422c-0.059,0.118-0.121,0.234-0.176,0.355
			c-0.073,0.161-0.136,0.328-0.201,0.494c-0.042,0.109-0.09,0.216-0.129,0.327c-0.084,0.24-0.156,0.487-0.222,0.736
			c-0.011,0.04-0.026,0.079-0.036,0.119c-1.134,4.499-4.403,8.226-8.702,10.39c-2.579,1.298-5.529,2.032-8.61,2.032
			c-8.217,0-15.497-5.224-17.313-12.422c-1.156-4.587-5.345-7.693-9.993-7.551c-0.31,0.01-0.622,0.033-0.935,0.072
			c-5.008,0.622-8.768,4.877-8.768,9.924v19.977c0,0.484-0.027,0.984-0.08,1.484c-0.038,0.352-0.056,0.704-0.056,1.058v12.13
			c0,8.883-7.4,15.841-16.848,15.841c-9.794,0-17.762-7.107-17.762-15.841v-8.633c0-0.11-0.002-0.22-0.005-0.33l-0.778-23.551
			c-0.158-4.78-3.678-8.779-8.399-9.542c-4.724-0.765-9.322,1.924-10.977,6.41c-2.422,6.563-9.193,10.974-16.849,10.974
			c-2.054,0-4.05-0.326-5.916-0.929c-0.933-0.301-1.834-0.671-2.694-1.104c-0.43-0.216-0.849-0.448-1.257-0.695
			c-3.673-2.221-6.424-5.645-7.444-9.695c-0.694-2.752-2.479-4.971-4.801-6.275c-1.806-1.014-3.935-1.475-6.128-1.203
			c-5.008,0.622-8.768,4.877-8.768,9.924v19.977c0,0.544-0.031,1.082-0.091,1.613c-0.664,5.834-4.894,10.743-10.71,12.961
			c-0.011,0.004-0.022,0.007-0.033,0.011c-1.047,0.397-2.145,0.709-3.283,0.922c-0.227,0.042-0.462,0.063-0.692,0.097
			c-0.353,0.053-0.703,0.115-1.063,0.149c-0.158,0.015-0.32,0.012-0.479,0.024c-0.44,0.031-0.879,0.064-1.327,0.065
			c-0.157-0.005-0.31-0.009-0.473-0.009c-0.15,0.002-0.297,0.004-0.473,0.009c-0.236-0.001-0.466-0.025-0.7-0.034
			c-0.37-0.015-0.743-0.02-1.107-0.055c-0.059-0.006-0.115-0.018-0.174-0.024c-7.64-0.793-13.818-5.921-15.338-12.549
			c-0.026-0.113-0.036-0.231-0.059-0.344c-0.188-0.922-0.301-1.866-0.301-2.835v-19.977c0-5.047-3.76-9.302-8.768-9.924
			c-5.01-0.627-9.695,2.585-10.928,7.479c-1.815,7.198-9.096,12.422-17.312,12.422c-7.656,0-14.427-4.41-16.849-10.975
			c-1.656-4.486-6.255-7.173-10.977-6.41c-0.59,0.095-1.161,0.242-1.71,0.433c-3.839,1.342-6.551,4.926-6.689,9.109l-0.778,23.551
			c-0.003,0.11-0.005,0.22-0.005,0.33v8.634c0,8.734-7.968,15.841-17.763,15.841c-9.794,0-17.762-7.107-17.762-15.841v-32.185
			c0-4.845-3.473-8.992-8.242-9.845c-1.192-0.212-2.38-0.203-3.517,0c-3.411,0.611-6.366,2.974-7.624,6.383
			c-1.968,5.334-6.807,9.245-12.658,10.524c-1.35,0.295-2.755,0.45-4.19,0.45c-8.217,0-15.498-5.224-17.313-12.422
			c-1.079-4.281-4.8-7.272-9.071-7.536c-0.61-0.038-1.231-0.02-1.858,0.058c-5.008,0.622-8.768,4.877-8.768,9.924v34.648
			c0,8.734-7.968,15.841-17.762,15.841c-0.546,0-1.084-0.03-1.618-0.073c-0.231-0.019-0.46-0.049-0.69-0.076
			C26.749,279.829,20,273.188,20,265.152V149.57h347.901c5.523,0,10-4.477,10-10c0-5.522-4.477-10-10-10H22.982
			c4.349-8.252,13.01-13.893,22.969-13.893h61.603h43.599h83.049h43.599h83.048h43.599h61.603c14.309,0,25.95,11.642,25.95,25.95
			V265.152z"/>
	</g>
</g>
<g>
	<g>
		<path d="M414.74,137.62c-0.13-0.64-0.32-1.27-0.57-1.87c-0.25-0.61-0.56-1.19-0.92-1.73c-0.36-0.55-0.78-1.059-1.24-1.52
			c-0.46-0.46-0.97-0.88-1.52-1.24c-0.54-0.36-1.12-0.67-1.73-0.92c-0.6-0.25-1.23-0.45-1.87-0.57c-1.29-0.26-2.62-0.26-3.91,0
			c-0.64,0.12-1.26,0.32-1.87,0.57c-0.6,0.25-1.18,0.56-1.72,0.92c-0.55,0.36-1.059,0.78-1.52,1.24c-0.46,0.46-0.88,0.97-1.25,1.52
			c-0.36,0.54-0.67,1.12-0.92,1.73c-0.25,0.6-0.44,1.23-0.57,1.87s-0.19,1.3-0.19,1.949c0,0.65,0.06,1.311,0.19,1.95
			c0.13,0.641,0.32,1.27,0.57,1.87c0.25,0.61,0.56,1.19,0.92,1.73c0.37,0.55,0.79,1.06,1.25,1.52c0.461,0.46,0.97,0.88,1.52,1.24
			c0.54,0.36,1.12,0.67,1.72,0.92c0.61,0.26,1.24,0.45,1.87,0.58c0.65,0.13,1.31,0.189,1.96,0.189c0.65,0,1.31-0.06,1.95-0.189
			c0.64-0.13,1.27-0.32,1.87-0.58c0.6-0.25,1.19-0.56,1.73-0.92c0.55-0.36,1.06-0.78,1.52-1.24c0.46-0.46,0.88-0.97,1.24-1.52
			c0.36-0.54,0.67-1.12,0.92-1.73c0.25-0.6,0.44-1.229,0.57-1.87c0.13-0.64,0.2-1.3,0.2-1.95
			C414.94,138.92,414.87,138.259,414.74,137.62z"/>
	</g>
</g>
<g>
</g>
<g>
</g>
<g>
</g>
<g>
</g>
<g>
</g>
<g>
</g>
<g>
</g>
<g>
</g>
<g>
</g>
<g>
</g>
<g>
</g>
<g>
</g>
<g>
</g>
<g>
</g>
<g>
</g>
</svg>
