<?xml version="1.0" encoding="iso-8859-1"?>
<!-- Generator: Adobe Illustrator 19.0.0, SVG Export Plug-In . SVG Version: 6.00 Build 0)  -->
<svg version="1.1" id="Capa_1" xmlns="http://www.w3.org/2000/svg" xmlns:xlink="http://www.w3.org/1999/xlink" x="0px" y="0px"
	 viewBox="0 0 512 512" style="enable-background:new 0 0 512 512;" xml:space="preserve">
<g>
	<g>
		<path d="M392.39,200.642c-0.13-0.64-0.32-1.27-0.57-1.87s-0.56-1.18-0.92-1.729c-0.37-0.54-0.78-1.061-1.24-1.521
			c-0.47-0.46-0.98-0.87-1.53-1.239c-0.54-0.36-1.12-0.671-1.72-0.921c-0.61-0.25-1.24-0.439-1.87-0.569
			c-1.29-0.26-2.62-0.26-3.91,0c-0.64,0.13-1.27,0.319-1.87,0.569c-0.6,0.25-1.19,0.561-1.73,0.921
			c-0.55,0.369-1.06,0.779-1.52,1.239c-0.46,0.46-0.88,0.98-1.24,1.521c-0.36,0.55-0.67,1.13-0.92,1.729
			c-0.25,0.601-0.44,1.23-0.57,1.87c-0.13,0.65-0.2,1.3-0.2,1.96c0,0.65,0.07,1.311,0.2,1.95c0.13,0.64,0.32,1.27,0.57,1.87
			c0.25,0.6,0.56,1.189,0.92,1.729c0.36,0.54,0.78,1.061,1.24,1.521c0.46,0.46,0.97,0.88,1.52,1.24c0.54,0.359,1.13,0.67,1.73,0.92
			c0.6,0.25,1.23,0.439,1.87,0.569c0.64,0.131,1.3,0.2,1.95,0.2s1.309-0.069,1.96-0.2c0.64-0.13,1.26-0.319,1.87-0.569
			c0.6-0.25,1.18-0.561,1.72-0.92c0.55-0.36,1.06-0.78,1.53-1.24c0.46-0.46,0.87-0.98,1.24-1.521c0.36-0.54,0.67-1.13,0.92-1.729
			c0.25-0.601,0.44-1.23,0.57-1.87c0.13-0.64,0.191-1.3,0.191-1.95C392.581,201.942,392.521,201.292,392.39,200.642z"/>
	</g>
</g>
<g>
	<g>
		<path d="M147.49,371.642c-0.13-0.64-0.32-1.27-0.57-1.87c-0.25-0.6-0.56-1.18-0.92-1.73c-0.36-0.54-0.78-1.05-1.24-1.52
			c-0.46-0.46-0.97-0.87-1.52-1.239c-0.54-0.36-1.13-0.671-1.73-0.921s-1.23-0.439-1.87-0.569c-1.29-0.26-2.62-0.26-3.91,0
			c-0.63,0.13-1.26,0.319-1.87,0.569c-0.6,0.25-1.18,0.561-1.72,0.921c-0.55,0.369-1.06,0.779-1.53,1.239
			c-0.46,0.471-0.87,0.98-1.24,1.52c-0.36,0.55-0.67,1.13-0.92,1.73c-0.25,0.601-0.44,1.23-0.57,1.87c-0.13,0.65-0.19,1.3-0.19,1.96
			c0,0.65,0.06,1.3,0.19,1.95c0.13,0.64,0.32,1.27,0.57,1.87c0.25,0.6,0.56,1.189,0.92,1.729c0.37,0.54,0.78,1.061,1.24,1.521
			c0.47,0.46,0.98,0.88,1.53,1.24c0.54,0.359,1.12,0.67,1.72,0.92c0.61,0.25,1.24,0.439,1.87,0.569c0.65,0.131,1.31,0.2,1.96,0.2
			s1.31-0.069,1.95-0.2c0.64-0.13,1.27-0.319,1.87-0.569s1.18-0.561,1.73-0.92c0.55-0.36,1.06-0.78,1.52-1.24
			c0.46-0.46,0.88-0.98,1.24-1.521c0.36-0.54,0.67-1.13,0.92-1.729c0.25-0.601,0.44-1.23,0.57-1.87c0.13-0.65,0.2-1.3,0.2-1.95
			C147.69,372.942,147.62,372.292,147.49,371.642z"/>
	</g>
</g>
<g>
	<g>
		<path d="M502,440.634h-55.67v-18.895V345.09c11.272-4.703,18.983-15.517,18.983-28.415V198.006
			c0-21.575-17.552-39.128-39.128-39.128H388.16c0.917-3.237,1.404-6.609,1.404-10.032c0-16.161-10.441-29.932-24.93-34.92
			c3.369-5.631,5.191-12.123,5.191-18.913c0-20.356-16.561-36.917-36.917-36.917h-58.419c-8.298-3.872-15.938-9.238-22.732-15.972
			c-7.722-7.651-13.894-16.76-17.848-26.341c-1.998-4.843-7.394-7.325-12.371-5.684c-9.011,2.966-17.06,8.341-23.277,15.542
			c-7.944,9.201-12.343,20.604-12.731,32.454h-6.438c-20.356,0-36.917,16.561-36.917,36.917c0,6.904,1.905,13.371,5.217,18.904
			c-14.503,4.98-24.956,18.757-24.956,34.929c0,3.423,0.487,6.795,1.404,10.032H85.814c-21.575,0-39.128,17.553-39.128,39.128
			v118.669c0,12.47,7.794,23.233,18.983,28.125v76.837v18.996H10c-5.523,0-10,4.478-10,10v41.773c0,5.522,4.477,10,10,10h492
			c5.523,0,10-4.478,10-10v-41.773C512,445.112,507.523,440.634,502,440.634z M159.353,131.929h19.739c5.523,0,10-4.478,10-10
			c0-5.522-4.477-10-10-10c-9.328,0-16.917-7.589-16.917-16.916c0-9.328,7.589-16.917,16.917-16.917h17.215
			c2.988,0,5.819-1.336,7.718-3.642c1.9-2.306,2.669-5.341,2.097-8.273c-1.925-9.869,0.728-19.882,7.278-27.47
			c1.927-2.231,4.137-4.18,6.562-5.798c4.641,8.493,10.575,16.34,17.718,23.418c9.061,8.978,19.381,16.021,30.673,20.935
			c1.259,0.548,2.617,0.83,3.989,0.83h60.567c9.328,0,16.917,7.589,16.917,16.917c0,5.256-2.39,10.127-6.556,13.364
			c-2.541,1.976-3.977,5.053-3.857,8.27l0.211,5.655c0.201,5.374,4.615,9.627,9.993,9.627h3.031c9.328,0,16.917,7.589,16.917,16.917
			c0,3.632-1.177,7.146-3.302,10.032H145.739c-2.125-2.885-3.303-6.4-3.303-10.032C142.436,139.518,150.025,131.929,159.353,131.929
			z M66.684,212.598H345.25c5.523,0,10-4.477,10-10s-4.477-10-10-10H67.477c2.341-7.919,9.669-13.72,18.337-13.72h55.566h229.24
			h55.566c10.547,0,19.128,8.581,19.128,19.128v118.669c0,5.617-4.335,10.108-10.126,10.826c-0.008,0.001-0.016,0.001-0.023,0.002
			c-0.275,0.032-0.515,0.053-0.747,0.071c-0.284,0.018-0.566,0.039-0.856,0.039c-6.772,0-12.494-5.009-12.494-10.938v-28.072
			c0-5.047-3.76-9.302-8.768-9.924c-0.381-0.048-0.759-0.066-1.136-0.071c-0.035-0.001-0.07-0.007-0.105-0.007
			c-0.097,0-0.192,0.009-0.289,0.012c-0.157,0.004-0.314,0.008-0.47,0.02c-0.12,0.009-0.238,0.025-0.357,0.038
			c-0.173,0.019-0.347,0.038-0.518,0.066c-0.085,0.014-0.169,0.035-0.253,0.051c-0.955,0.184-1.868,0.504-2.716,0.946
			c-0.058,0.03-0.118,0.057-0.176,0.089c-0.166,0.091-0.327,0.19-0.488,0.29c-0.081,0.05-0.162,0.098-0.241,0.15
			c-0.146,0.096-0.286,0.2-0.427,0.304c-0.089,0.065-0.177,0.13-0.264,0.198c-0.129,0.102-0.254,0.209-0.378,0.318
			c-0.091,0.08-0.182,0.16-0.271,0.244c-0.114,0.108-0.225,0.218-0.334,0.331c-0.091,0.094-0.18,0.19-0.267,0.288
			c-0.1,0.112-0.198,0.225-0.293,0.341c-0.089,0.109-0.174,0.221-0.258,0.333c-0.085,0.115-0.17,0.229-0.251,0.347
			c-0.085,0.125-0.165,0.254-0.245,0.383c-0.071,0.115-0.143,0.229-0.21,0.348c-0.081,0.144-0.154,0.292-0.228,0.441
			c-0.056,0.112-0.115,0.222-0.166,0.336c-0.078,0.173-0.147,0.352-0.215,0.53c-0.037,0.097-0.08,0.191-0.114,0.29
			c-0.098,0.281-0.186,0.567-0.26,0.861c-1.261,5.001-6.386,8.631-12.186,8.631c-5.8,0-10.925-3.63-12.187-8.631
			c-1.233-4.893-5.917-8.106-10.928-7.478c-5.008,0.622-8.768,4.877-8.768,9.924v16.186c0,0.324-0.018,0.66-0.055,0.999
			c-0.037,0.353-0.056,0.706-0.056,1.061v9.827c0,6.133-5.162,10.938-11.752,10.938c-6.773,0-12.494-5.009-12.494-10.938
			c0-0.08-0.001-0.161-0.003-0.241l-0.63-26.076c-0.051-2.099-0.751-4.053-1.918-5.653c-0.167-0.229-0.343-0.45-0.529-0.663
			c-1.483-1.708-3.544-2.914-5.911-3.308c-4.734-0.78-9.359,1.902-11.021,6.403c-1.143,3.097-3.807,5.552-7.092,6.784
			c-1.493,0.56-3.114,0.867-4.779,0.867c-5.8,0-10.925-3.63-12.187-8.631c-1.234-4.893-5.92-8.106-10.928-7.478
			c-5.008,0.622-8.768,4.877-8.768,9.924v16.186c0,1.108-0.2,2.183-0.569,3.2c-1.599,4.406-6.377,7.708-11.855,7.736l-0.292-0.007
			c-0.061,0-0.123,0-0.186,0l-0.285,0.007c-0.216-0.001-0.427-0.021-0.64-0.032c-0.204-0.01-0.41-0.011-0.612-0.031
			c-0.191-0.019-0.376-0.054-0.564-0.08c-0.219-0.03-0.44-0.052-0.655-0.093c-0.262-0.049-0.517-0.118-0.773-0.182
			c-0.135-0.034-0.274-0.058-0.408-0.096c-0.315-0.089-0.621-0.196-0.925-0.306c-0.069-0.025-0.142-0.044-0.211-0.07
			c-4.074-1.554-7.102-4.976-7.578-8.949c-0.043-0.361-0.066-0.727-0.066-1.096v-16.186c0-5.047-3.76-9.302-8.768-9.924
			c-5.01-0.63-9.694,2.586-10.928,7.478c-1.261,5.001-6.386,8.631-12.186,8.631c-5.327,0-10.209-3.147-11.871-7.651
			c-0.294-0.797-0.685-1.534-1.149-2.207c-2.157-3.133-5.975-4.84-9.872-4.196c-4.734,0.787-8.242,4.826-8.358,9.624l-0.63,26.076
			c-0.002,0.08-0.003,0.161-0.003,0.241c0,5.929-5.721,10.938-12.494,10.938c-6.772,0-12.493-5.009-12.493-10.938V290.6
			c0-0.606-0.054-1.2-0.158-1.779c-0.104-0.579-0.259-1.142-0.459-1.683c-0.1-0.271-0.212-0.536-0.334-0.796
			c-1.346-2.857-4.012-5-7.291-5.586c-0.199-0.035-0.397-0.056-0.595-0.079c-4.56-0.541-8.938,2.106-10.545,6.462
			c-1.143,3.097-3.807,5.552-7.092,6.784c-1.493,0.56-3.114,0.867-4.779,0.867c-5.8,0-10.926-3.63-12.187-8.631
			c-1.234-4.894-5.919-8.099-10.929-7.478c-5.008,0.622-8.768,4.878-8.768,9.924v28.072c0,5.929-5.721,10.938-12.493,10.938
			c-0.392,0-0.78-0.021-1.164-0.053c-0.103-0.009-0.206-0.023-0.309-0.034c-6.107-0.662-11.02-5.357-11.02-10.85V212.598z
			 M411.97,402.185c-14.876,0-28.123,7.098-36.516,18.076c-8.453-11.085-21.78-18.076-36.494-18.076h-5.92
			c-12.695,0-24.934,5.327-33.578,14.615c-1.287,1.383-2.469,2.846-3.566,4.365c-9.43-11.653-23.834-18.98-39.946-18.98
			c-12.788,0-25.057,4.738-34.563,13.357c-1.939,1.766-3.719,3.669-5.348,5.678c-1.11-1.541-2.308-3.027-3.613-4.429
			c-8.643-9.282-20.877-14.605-33.566-14.605h-5.92c-14.722,0-28.056,6.999-36.508,18.094c-0.99-1.304-2.053-2.559-3.186-3.757
			c-8.743-9.245-20.574-14.337-33.315-14.337c-4.898,0-9.702,0.783-14.26,2.272v-57.467c0.006,0,0.013-0.001,0.02-0.003
			c0.105-0.021,0.209-0.046,0.314-0.068c0.391-0.08,0.781-0.164,1.166-0.257c0.184-0.044,0.365-0.095,0.548-0.142
			c0.304-0.079,0.608-0.159,0.909-0.246c0.199-0.058,0.396-0.12,0.593-0.181c0.281-0.087,0.562-0.177,0.839-0.271
			c0.2-0.068,0.399-0.138,0.597-0.21c0.273-0.098,0.544-0.201,0.813-0.306c0.194-0.076,0.389-0.152,0.581-0.232
			c0.274-0.113,0.544-0.231,0.813-0.351c0.181-0.08,0.363-0.159,0.542-0.243c0.294-0.137,0.584-0.281,0.873-0.427
			c0.148-0.074,0.299-0.145,0.446-0.222c0.428-0.223,0.851-0.454,1.268-0.695c0.085-0.049,0.167-0.102,0.251-0.152
			c0.334-0.197,0.666-0.398,0.992-0.606c0.153-0.097,0.301-0.2,0.452-0.3c0.253-0.168,0.506-0.336,0.754-0.511
			c0.164-0.115,0.324-0.234,0.485-0.352c0.229-0.168,0.457-0.337,0.682-0.51c0.163-0.126,0.324-0.253,0.484-0.382
			c0.218-0.175,0.434-0.353,0.647-0.534c0.156-0.132,0.311-0.264,0.463-0.398c0.215-0.189,0.426-0.382,0.636-0.577
			c0.142-0.132,0.285-0.263,0.425-0.397c0.227-0.218,0.448-0.442,0.668-0.667c0.114-0.117,0.231-0.23,0.344-0.349
			c0.326-0.343,0.645-0.692,0.955-1.049c0.047-0.054,0.091-0.112,0.138-0.166c0.263-0.307,0.521-0.618,0.772-0.935
			c0.106-0.134,0.207-0.272,0.311-0.408c0.186-0.243,0.37-0.486,0.549-0.734c0.112-0.156,0.221-0.315,0.33-0.473
			c0.162-0.235,0.323-0.471,0.478-0.71c0.109-0.167,0.215-0.335,0.32-0.504c0.149-0.239,0.294-0.48,0.437-0.723
			c0.1-0.171,0.2-0.341,0.296-0.514c0.141-0.252,0.277-0.508,0.412-0.764c0.087-0.167,0.176-0.333,0.261-0.502
			c0.142-0.284,0.276-0.572,0.41-0.861c0.067-0.145,0.137-0.287,0.201-0.433c0.192-0.435,0.376-0.875,0.548-1.32
			c0.012-0.032,0.023-0.065,0.035-0.097c0.158-0.415,0.307-0.833,0.447-1.256c0.051-0.155,0.096-0.313,0.145-0.469
			c0.095-0.303,0.188-0.607,0.273-0.914c0.051-0.182,0.096-0.366,0.143-0.55c0.074-0.287,0.145-0.575,0.21-0.865
			c0.043-0.192,0.084-0.385,0.123-0.579c0.059-0.288,0.113-0.576,0.163-0.867c0.034-0.195,0.067-0.39,0.096-0.586
			c0.046-0.299,0.084-0.6,0.121-0.902c0.023-0.188,0.047-0.375,0.066-0.564c0.034-0.332,0.058-0.665,0.08-1
			c0.011-0.161,0.026-0.322,0.034-0.484c0.025-0.497,0.04-0.996,0.04-1.499v-4.015c3.697,1.379,7.71,2.128,11.883,2.128
			c1.958,0,3.887-0.169,5.768-0.495c1.882-0.326,3.716-0.808,5.484-1.434v3.815c0,17.059,14.577,30.938,32.494,30.938
			c0.558,0,1.114-0.013,1.665-0.04c17.099-0.826,30.754-14.298,30.827-30.765l0.1-4.142c3.687,1.377,7.671,2.122,11.784,2.122
			c4.539,0,8.887-0.885,12.847-2.505c3.528,13.448,16.327,23.441,31.53,23.441c0.112,0,0.223-0.002,0.31-0.004
			c0.107,0.002,0.213,0.004,0.32,0.004c15.204,0,28.001-9.992,31.529-23.441c3.959,1.619,8.308,2.505,12.847,2.505
			c4.113,0,8.096-0.745,11.783-2.122l0.1,4.146c0.002,0.504,0.019,1.005,0.047,1.504c0.001,0.025,0.001,0.051,0.002,0.076
			c0.866,14.998,13.006,27.174,28.466,28.98c1.305,0.153,2.631,0.24,3.978,0.24c17.805,0,31.752-13.589,31.752-30.938v-4.057
			c3.728,1.406,7.779,2.17,11.994,2.17c4.173,0,8.186-0.749,11.883-2.128v4.015c0,0.499,0.015,0.995,0.04,1.489
			c0.008,0.162,0.023,0.322,0.033,0.483c0.022,0.332,0.046,0.664,0.08,0.993c0.019,0.186,0.042,0.371,0.064,0.557
			c0.036,0.303,0.076,0.605,0.121,0.905c0.029,0.191,0.06,0.381,0.092,0.571c0.051,0.296,0.107,0.591,0.166,0.884
			c0.037,0.184,0.074,0.368,0.115,0.551c0.069,0.31,0.146,0.617,0.225,0.924c0.041,0.159,0.079,0.319,0.122,0.478
			c0.109,0.396,0.227,0.789,0.352,1.179c0.021,0.065,0.038,0.131,0.06,0.195c0.149,0.453,0.309,0.902,0.479,1.346
			c0.051,0.132,0.107,0.262,0.159,0.393c0.124,0.311,0.251,0.621,0.385,0.928c0.071,0.162,0.146,0.322,0.22,0.482
			c0.125,0.273,0.253,0.544,0.387,0.813c0.083,0.168,0.168,0.334,0.254,0.499c0.136,0.261,0.275,0.519,0.418,0.776
			c0.089,0.161,0.179,0.321,0.271,0.48c0.154,0.265,0.314,0.527,0.476,0.788c0.089,0.143,0.176,0.287,0.267,0.429
			c0.199,0.309,0.406,0.613,0.617,0.915c0.06,0.086,0.117,0.175,0.178,0.26c0.274,0.385,0.558,0.764,0.85,1.137
			c0.076,0.097,0.156,0.19,0.233,0.286c0.22,0.274,0.442,0.546,0.671,0.812c0.112,0.131,0.228,0.258,0.342,0.387
			c0.202,0.228,0.406,0.454,0.615,0.676c0.127,0.135,0.256,0.268,0.385,0.401c0.206,0.211,0.415,0.42,0.627,0.626
			c0.134,0.13,0.268,0.26,0.404,0.387c0.221,0.207,0.445,0.41,0.672,0.611c0.132,0.117,0.263,0.236,0.398,0.351
			c0.261,0.224,0.528,0.441,0.797,0.657c0.105,0.084,0.206,0.171,0.312,0.253c0.376,0.294,0.758,0.581,1.147,0.859
			c0.084,0.06,0.172,0.117,0.257,0.176c0.309,0.216,0.62,0.429,0.937,0.634c0.145,0.094,0.293,0.184,0.439,0.276
			c0.263,0.165,0.527,0.328,0.795,0.486c0.165,0.097,0.333,0.192,0.5,0.286c0.258,0.146,0.517,0.288,0.78,0.427
			c0.173,0.092,0.347,0.183,0.522,0.271c0.268,0.136,0.538,0.267,0.811,0.396c0.171,0.081,0.342,0.163,0.515,0.242
			c0.301,0.136,0.605,0.265,0.911,0.393c0.147,0.061,0.293,0.126,0.441,0.186c0.452,0.181,0.909,0.354,1.372,0.516
			c0.073,0.025,0.147,0.047,0.22,0.072c0.394,0.135,0.791,0.264,1.192,0.385c0.171,0.052,0.345,0.098,0.518,0.146
			c0.306,0.087,0.613,0.172,0.923,0.25c0.197,0.05,0.394,0.095,0.592,0.141c0.169,0.039,0.335,0.084,0.505,0.121v16.758H175.02
			c-5.523,0-10,4.477-10,10c0,5.522,4.477,10,10,10h251.31v20.894C421.743,402.978,416.906,402.185,411.97,402.185z M426.33,426.541
			v14.094h-39.19c3.184-10.655,13.11-18.447,24.83-18.447C417.133,422.188,422.108,423.713,426.33,426.541z M363.743,440.634
			h-55.517c1.121-3.753,3.106-7.228,5.876-10.206c4.946-5.314,11.671-8.24,18.938-8.24h5.92
			C350.49,422.188,360.51,429.797,363.743,440.634z M284.563,440.634h-57.206c1.748-3.868,4.279-7.373,7.479-10.287
			c5.804-5.262,13.302-8.159,21.114-8.159C268.66,422.188,279.639,429.646,284.563,440.634z M203.67,440.634h-55.513
			c3.233-10.837,13.253-18.446,24.783-18.446h5.92c7.262,0,13.984,2.924,18.928,8.234C200.561,433.4,202.548,436.878,203.67,440.634
			z M124.717,440.634H85.67v-14.165c4.202-2.781,9.141-4.281,14.26-4.281c7.187,0,13.857,2.869,18.783,8.078
			C121.518,433.232,123.561,436.801,124.717,440.634z M492,482.407H20v-21.773h55.67h138.978h0.024h82.557h0.023H436.33H492V482.407
			z"/>
	</g>
</g>
<g>
</g>
<g>
</g>
<g>
</g>
<g>
</g>
<g>
</g>
<g>
</g>
<g>
</g>
<g>
</g>
<g>
</g>
<g>
</g>
<g>
</g>
<g>
</g>
<g>
</g>
<g>
</g>
<g>
</g>
</svg>
