<?xml version="1.0" encoding="iso-8859-1"?>
<!-- Generator: Adobe Illustrator 19.0.0, SVG Export Plug-In . SVG Version: 6.00 Build 0)  -->
<svg version="1.1" id="Capa_1" xmlns="http://www.w3.org/2000/svg" xmlns:xlink="http://www.w3.org/1999/xlink" x="0px" y="0px"
	 viewBox="0 0 512 512" style="enable-background:new 0 0 512 512;" xml:space="preserve">
<g>
	<g>
		<path d="M364.811,167.013c-0.13-0.64-0.33-1.26-0.58-1.87c-0.25-0.6-0.55-1.18-0.92-1.72c-0.359-0.55-0.779-1.061-1.24-1.52
			c-0.46-0.46-0.97-0.88-1.52-1.25c-0.54-0.359-1.12-0.67-1.72-0.92c-0.61-0.25-1.24-0.439-1.87-0.569
			c-3.25-0.65-6.71,0.409-9.03,2.739c-0.46,0.46-0.88,0.971-1.24,1.52c-0.359,0.54-0.67,1.12-0.92,1.72
			c-0.25,0.61-0.439,1.23-0.569,1.87c-0.131,0.65-0.2,1.3-0.2,1.96c0,2.63,1.069,5.21,2.93,7.07
			c1.858,1.858,4.438,2.929,7.068,2.929c0.649,0,1.31-0.07,1.96-0.2c0.63-0.13,1.26-0.319,1.87-0.569
			c0.6-0.25,1.18-0.561,1.72-0.921c0.55-0.359,1.06-0.779,1.52-1.239c1.86-1.86,2.931-4.44,2.931-7.07
			C365.001,168.313,364.941,167.663,364.811,167.013z"/>
	</g>
</g>
<g>
	<g>
		<path d="M166.8,204.802c-0.13-0.64-0.32-1.271-0.57-1.87c-0.25-0.61-0.56-1.189-0.92-1.729c-0.359-0.551-0.779-1.061-1.24-1.521
			c-0.46-0.46-0.97-0.88-1.52-1.24c-0.54-0.359-1.12-0.67-1.73-0.92c-0.6-0.25-1.23-0.439-1.869-0.569
			c-1.29-0.261-2.62-0.261-3.91,0c-0.63,0.13-1.26,0.319-1.87,0.569c-0.601,0.25-1.18,0.561-1.72,0.92
			c-0.551,0.36-1.061,0.78-1.52,1.24c-0.46,0.46-0.88,0.97-1.25,1.521c-0.36,0.54-0.67,1.119-0.92,1.729
			c-0.25,0.6-0.44,1.23-0.57,1.87c-0.13,0.64-0.189,1.3-0.189,1.95c0,0.66,0.06,1.31,0.189,1.96c0.13,0.63,0.32,1.26,0.57,1.87
			c0.25,0.6,0.56,1.18,0.92,1.72c0.37,0.55,0.79,1.06,1.25,1.52c0.46,0.471,0.97,0.881,1.52,1.25c0.54,0.36,1.119,0.671,1.72,0.921
			c0.61,0.25,1.24,0.439,1.87,0.569c0.65,0.13,1.31,0.19,1.96,0.19c0.649,0,1.31-0.06,1.95-0.19s1.27-0.319,1.869-0.569
			c0.61-0.25,1.19-0.561,1.73-0.921c0.55-0.369,1.06-0.779,1.52-1.25c0.461-0.46,0.881-0.97,1.24-1.52
			c0.36-0.54,0.67-1.12,0.92-1.72c0.25-0.61,0.44-1.24,0.57-1.87c0.13-0.65,0.2-1.3,0.2-1.96
			C167,206.102,166.93,205.442,166.8,204.802z"/>
	</g>
</g>
<g>
	<g>
		<path d="M502,433.851h-59.12V266.35c7.965-5.421,13.638-14.058,14.98-24.053c0.204-0.797,0.313-1.632,0.313-2.492v-77.797
			c0-19.691-16.021-35.711-35.712-35.711h-65.707c0.24-1.516,0.363-3.056,0.363-4.607c0-11.989-7.106-22.351-17.327-27.094
			c1.809-3.884,2.771-8.165,2.771-12.604c0-16.458-13.39-29.848-29.849-29.848h-42.488c-5.645-2.707-10.853-6.407-15.505-11.018
			c-5.449-5.398-9.8-11.816-12.582-18.561c-1.999-4.843-7.389-7.321-12.371-5.685c-7.098,2.337-13.437,6.569-18.331,12.24
			c-5.688,6.588-9.068,14.607-9.865,23.023h-2.283c-16.459,0-29.849,13.39-29.849,29.848c0,4.497,1,8.767,2.789,12.596
			c-10.23,4.738-17.345,15.105-17.345,27.102c0,1.551,0.123,3.091,0.363,4.607H89.539c-19.691,0-35.712,16.02-35.712,35.711v129.794
			c0,11.947,6.073,22.503,15.293,28.742v113.308H10c-5.523,0-10,4.478-10,10v41.772c0,5.522,4.477,10,10,10h492
			c5.522,0,10-4.478,10-10v-41.772C512,438.328,507.522,433.851,502,433.851z M184.731,111.841h14.556c5.523,0,10-4.478,10-10
			c0-5.522-4.477-10-10-10c-5.431,0-9.849-4.418-9.849-9.849c0-5.43,4.418-9.848,9.849-9.848h12.694
			c2.987,0,5.818-1.336,7.719-3.642c1.899-2.306,2.668-5.341,2.097-8.273c-1.265-6.481,0.477-13.057,4.777-18.039
			c0.643-0.743,1.332-1.439,2.064-2.083c3.289,5.475,7.303,10.569,12.004,15.227c6.914,6.852,14.794,12.228,23.419,15.98
			c1.259,0.548,2.616,0.83,3.989,0.83h44.662c5.431,0,9.849,4.418,9.849,9.848c0,3.06-1.393,5.896-3.82,7.783
			c-2.541,1.975-3.977,5.052-3.856,8.268l0.155,4.17c0.2,5.374,4.615,9.628,9.993,9.628h2.235c5.431,0,9.849,4.418,9.849,9.849
			c0,1.638-0.397,3.206-1.15,4.606H176.033c-0.753-1.4-1.15-2.969-1.15-4.606C174.883,116.259,179.301,111.841,184.731,111.841z
			 M73.823,178.969H316.16c5.522,0,10-4.478,10-10c0-5.523-4.478-10-10-10H74.128c1.421-7.213,7.788-12.672,15.411-12.672h332.922
			c8.663,0,15.712,7.048,15.712,15.711v34.746H195.84c-5.522,0-10,4.477-10,10c0,5.522,4.478,10,10,10h242.333v21.662
			c-0.025,0.178-0.045,0.357-0.061,0.538c-0.642,7.519-7.064,13.408-14.62,13.408c-0.472,0-0.94-0.023-1.403-0.068
			c-6.935-0.675-12.617-6.292-13.217-13.34c-0.441-5.175-4.771-9.15-9.964-9.15h-59.619c-5.522,0-10,4.478-10,10v0.001v51.996
			c0,8.095-6.586,14.681-14.681,14.681c-8.095,0-14.681-6.586-14.681-14.681v-51.996v-0.001c0-5.522-4.478-10-10-10h-42.554
			c-5.522,0-10,4.478-10,10v0.001v24.267c0,8.095-6.586,14.681-14.681,14.681c-8.095,0-14.681-6.586-14.681-14.681v-24.267v-0.001
			c0-5.522-4.477-10-10-10h-84.824c-5.522,0-10,4.478-10,10v0.001v51.996c0,8.095-6.586,14.681-14.681,14.681
			c-0.498,0-0.989-0.026-1.475-0.075c-0.127-0.013-0.252-0.04-0.379-0.055c-0.358-0.045-0.715-0.092-1.065-0.163
			c-0.143-0.029-0.283-0.072-0.425-0.106c-0.327-0.076-0.654-0.152-0.973-0.251c-0.15-0.046-0.297-0.107-0.446-0.158
			c-5.762-1.984-9.92-7.446-9.92-13.873V178.969z M89.12,421.689c1.545,0.155,3.105,0.238,4.681,0.238
			c11.981,0,23.242-4.645,31.643-12.651c8.406,8.006,19.669,12.651,31.646,12.651c11.986,0,23.25-4.645,31.652-12.651
			c8.405,8.006,19.668,12.651,31.646,12.651c11.977,0,23.239-4.646,31.645-12.651c8.4,8.007,19.661,12.651,31.643,12.651
			c11.986,0,23.25-4.645,31.652-12.651c8.405,8.006,19.668,12.651,31.646,12.651c11.978,0,23.241-4.646,31.646-12.652
			c8.402,8.008,19.666,12.652,31.652,12.652c4.286,0,8.53-0.617,12.608-1.784v13.708H89.12V421.689z M89.117,401.51v-50.956
			c1.527-0.277,3.089-0.416,4.68-0.416c9.561,0,18.306,5.24,22.823,13.677c1.74,3.249,5.126,5.278,8.812,5.279
			c0.002,0,0.003,0,0.004,0c3.684,0,7.07-2.026,8.813-5.273c4.527-8.44,13.278-13.684,22.837-13.684
			c9.566,0,18.316,5.24,22.834,13.677c1.74,3.249,5.126,5.278,8.813,5.279c0.001,0,0.002,0,0.003,0c3.685,0,7.07-2.026,8.813-5.273
			c4.527-8.439,13.277-13.683,22.836-13.683s18.31,5.243,22.837,13.684c1.742,3.247,5.128,5.273,8.813,5.273
			c0.001,0,0.003,0,0.004,0c3.686-0.001,7.071-2.03,8.812-5.279c4.518-8.437,13.263-13.677,22.823-13.677
			c9.566,0,18.316,5.24,22.834,13.677c1.74,3.249,5.126,5.278,8.813,5.279c0.001,0,0.002,0,0.003,0c3.685,0,7.07-2.026,8.813-5.273
			c4.526-8.439,13.277-13.683,22.836-13.683c9.56,0,18.31,5.243,22.837,13.683c1.742,3.247,5.128,5.273,8.813,5.273
			c0.001,0,0.002,0,0.003,0c3.686-0.001,7.072-2.03,8.813-5.279c4.518-8.437,13.268-13.677,22.834-13.677
			c4.493,0.001,8.781,1.118,12.606,3.262v45.26c-3.822,2.147-8.11,3.267-12.607,3.267c-9.563,0-18.313-5.242-22.836-13.681
			c-1.74-3.247-5.126-5.274-8.81-5.275c-0.001,0-0.002,0-0.003,0c-3.683,0-7.068,2.024-8.811,5.27
			c-4.532,8.442-13.284,13.687-22.839,13.687s-18.306-5.244-22.838-13.687c-1.742-3.245-5.127-5.27-8.811-5.27
			c-0.001,0-0.003,0-0.003,0c-3.685,0.001-7.07,2.028-8.811,5.275c-4.523,8.439-13.273,13.681-22.836,13.681
			c-9.556,0-18.302-5.242-22.825-13.681c-1.74-3.247-5.125-5.274-8.81-5.275c-0.002,0-0.003,0-0.004,0
			c-3.683,0-7.067,2.024-8.811,5.27c-4.533,8.442-13.284,13.687-22.839,13.687s-18.306-5.244-22.838-13.687
			c-1.742-3.245-5.127-5.27-8.811-5.27c-0.001,0-0.003,0-0.003,0c-3.685,0.001-7.07,2.028-8.811,5.275
			c-4.523,8.439-13.273,13.681-22.836,13.681c-9.555,0-18.306-5.244-22.839-13.687c-1.743-3.245-5.128-5.27-8.811-5.27
			c-0.001,0-0.003,0-0.004,0c-3.684,0.001-7.069,2.028-8.81,5.275c-4.523,8.439-13.27,13.681-22.825,13.681
			C92.206,401.926,90.644,401.787,89.117,401.51z M410.272,330.139c-11.988,0-23.253,4.644-31.652,12.648
			c-8.403-8.006-19.665-12.648-31.646-12.648c-11.98,0-23.242,4.643-31.646,12.648c-8.399-8.005-19.664-12.648-31.652-12.648
			c-11.983,0-23.244,4.644-31.643,12.648c-8.403-8.006-19.665-12.648-31.645-12.648s-23.242,4.643-31.646,12.648
			c-8.399-8.005-19.664-12.648-31.652-12.648c-11.98,0-23.242,4.643-31.646,12.648c-8.398-8.005-19.659-12.648-31.643-12.648
			c-1.575,0-3.135,0.082-4.681,0.238v-3.9c0.208-0.004,0.414-0.019,0.622-0.026c0.276-0.01,0.552-0.019,0.826-0.035
			c0.311-0.019,0.621-0.044,0.93-0.071c0.273-0.023,0.546-0.046,0.817-0.076c0.306-0.034,0.61-0.075,0.914-0.116
			c0.27-0.037,0.539-0.073,0.807-0.116c0.302-0.049,0.601-0.105,0.9-0.161c0.265-0.05,0.53-0.099,0.792-0.155
			c0.297-0.063,0.592-0.134,0.886-0.205c0.26-0.062,0.52-0.123,0.777-0.192c0.291-0.077,0.579-0.162,0.868-0.247
			c0.256-0.075,0.512-0.149,0.765-0.229c0.286-0.091,0.568-0.19,0.851-0.288c0.249-0.087,0.499-0.172,0.745-0.264
			c0.281-0.105,0.557-0.218,0.834-0.33c0.243-0.098,0.488-0.195,0.728-0.299c0.274-0.118,0.543-0.243,0.813-0.368
			c0.237-0.11,0.475-0.217,0.709-0.332c0.266-0.13,0.528-0.268,0.79-0.405c0.232-0.121,0.465-0.24,0.694-0.366
			c0.258-0.142,0.511-0.292,0.765-0.441c0.225-0.132,0.452-0.261,0.674-0.398c0.251-0.154,0.496-0.316,0.742-0.476
			c0.218-0.142,0.438-0.282,0.653-0.429c0.243-0.166,0.48-0.339,0.719-0.512c0.21-0.152,0.422-0.301,0.629-0.457
			c0.235-0.178,0.465-0.363,0.695-0.547c0.202-0.161,0.405-0.319,0.603-0.484c0.226-0.188,0.445-0.384,0.666-0.577
			c0.195-0.171,0.392-0.339,0.583-0.514c0.217-0.198,0.426-0.404,0.638-0.608c0.186-0.179,0.374-0.355,0.556-0.539
			c0.208-0.209,0.408-0.426,0.61-0.64c0.177-0.188,0.356-0.372,0.529-0.563c0.198-0.219,0.388-0.445,0.58-0.669
			c0.168-0.195,0.338-0.388,0.501-0.587c0.188-0.229,0.367-0.464,0.549-0.698c0.158-0.203,0.319-0.403,0.472-0.609
			c0.178-0.239,0.346-0.484,0.518-0.727c0.147-0.209,0.298-0.416,0.441-0.628c0.167-0.248,0.324-0.502,0.484-0.754
			c0.137-0.216,0.278-0.429,0.41-0.648c0.155-0.256,0.299-0.517,0.447-0.777c0.127-0.223,0.259-0.444,0.381-0.671
			c0.143-0.264,0.275-0.533,0.411-0.801c0.116-0.23,0.237-0.456,0.349-0.688c0.131-0.274,0.252-0.553,0.376-0.831
			c0.104-0.233,0.213-0.463,0.312-0.698c0.119-0.283,0.227-0.571,0.339-0.858c0.092-0.237,0.19-0.471,0.277-0.711
			c0.106-0.289,0.199-0.584,0.297-0.877c0.081-0.242,0.168-0.482,0.243-0.726c0.094-0.302,0.175-0.61,0.261-0.915
			c0.067-0.24,0.141-0.478,0.203-0.721c0.08-0.312,0.147-0.63,0.219-0.945c0.055-0.242,0.116-0.481,0.166-0.724
			c0.066-0.324,0.119-0.653,0.176-0.981c0.042-0.239,0.09-0.476,0.127-0.717c0.053-0.345,0.091-0.694,0.133-1.042
			c0.028-0.228,0.063-0.454,0.086-0.683c0.04-0.391,0.064-0.787,0.09-1.182c0.013-0.19,0.033-0.377,0.043-0.568
			c0.03-0.587,0.045-1.178,0.045-1.773v-41.996h64.824v14.267c0,19.123,15.558,34.681,34.681,34.681
			c19.123,0,34.681-15.558,34.681-34.681v-14.267h22.554v41.995c0,19.123,15.558,34.681,34.681,34.681s34.681-15.558,34.681-34.681
			v-41.996h41.73c0.088,0.233,0.197,0.456,0.29,0.687c0.232,0.577,0.462,1.155,0.725,1.717c0.173,0.369,0.372,0.723,0.557,1.086
			c0.209,0.409,0.407,0.826,0.632,1.226c0.214,0.38,0.453,0.742,0.681,1.113c0.224,0.365,0.436,0.738,0.672,1.094
			c0.246,0.37,0.517,0.722,0.776,1.083c0.244,0.338,0.477,0.685,0.732,1.014c0.273,0.352,0.569,0.685,0.856,1.027
			c0.266,0.317,0.523,0.643,0.8,0.95c0.299,0.332,0.618,0.643,0.929,0.963c0.288,0.296,0.567,0.601,0.865,0.886
			c0.322,0.309,0.663,0.596,0.996,0.893c0.309,0.274,0.61,0.557,0.928,0.82c0.341,0.283,0.7,0.544,1.052,0.813
			c0.331,0.253,0.654,0.515,0.994,0.756c0.358,0.255,0.732,0.488,1.1,0.73c0.352,0.231,0.698,0.47,1.058,0.688
			c0.375,0.227,0.763,0.432,1.147,0.645c0.371,0.206,0.736,0.42,1.115,0.613c0.389,0.198,0.789,0.373,1.185,0.556
			c0.39,0.18,0.775,0.368,1.172,0.534c0.4,0.167,0.81,0.312,1.217,0.464c0.408,0.153,0.812,0.313,1.226,0.45
			c0.411,0.137,0.83,0.25,1.247,0.371c0.424,0.123,0.844,0.253,1.273,0.36c0.42,0.105,0.848,0.186,1.274,0.275
			c0.438,0.091,0.873,0.189,1.316,0.263c0.43,0.072,0.866,0.121,1.3,0.177c0.448,0.058,0.895,0.121,1.348,0.161
			c0.439,0.039,0.883,0.054,1.327,0.076c0.358,0.018,0.711,0.055,1.072,0.061v59.565C418.8,330.755,414.557,330.139,410.272,330.139
			z M492,475.623H20v-21.772h59.12h353.76H492V475.623z"/>
	</g>
</g>
<g>
</g>
<g>
</g>
<g>
</g>
<g>
</g>
<g>
</g>
<g>
</g>
<g>
</g>
<g>
</g>
<g>
</g>
<g>
</g>
<g>
</g>
<g>
</g>
<g>
</g>
<g>
</g>
<g>
</g>
</svg>
