<?xml version="1.0" encoding="iso-8859-1"?>
<!-- Generator: Adobe Illustrator 19.0.0, SVG Export Plug-In . SVG Version: 6.00 Build 0)  -->
<svg version="1.1" id="Capa_1" xmlns="http://www.w3.org/2000/svg" xmlns:xlink="http://www.w3.org/1999/xlink" x="0px" y="0px"
	 viewBox="0 0 512 512" style="enable-background:new 0 0 512 512;" xml:space="preserve">
<g>
	<g>
		<path d="M188.526,374.464c-0.835-17.433-13.921-31.091-29.79-31.091c-7.495,0-13.919,2.903-18.503,5.845
			c-4.543-2.958-10.956-5.845-18.685-5.845c-15.87,0-28.955,13.657-29.791,31.092c-0.486,10.161,3.018,17.371,5.696,21.909
			c6.138,10.406,30.083,26.465,37.275,31.138c1.657,1.077,3.552,1.615,5.449,1.615c1.895,0,3.79-0.538,5.446-1.613
			c7.169-4.655,31.039-20.661,37.212-31.147C185.511,391.821,189.012,384.606,188.526,374.464z M165.599,386.221
			c-2.192,3.724-13.98,13.032-25.423,20.88c-11.492-7.878-23.322-17.199-25.498-20.888c-2.274-3.854-3.127-6.982-2.944-10.792
			c0.313-6.53,4.807-12.048,9.813-12.048c6.113,0,11.119,5.315,11.121,5.315c1.844,2.16,4.453,3.358,7.292,3.429
			c2.85,0.083,5.509-1.145,7.457-3.213c0.052-0.056,5.573-5.53,11.318-5.53c5.006,0,9.5,5.518,9.813,12.047
			C168.731,379.224,167.876,382.353,165.599,386.221z"/>
	</g>
</g>
<g>
	<g>
		<path d="M304.383,374.464c-0.833-17.433-13.919-31.091-29.789-31.091c-7.495,0-13.918,2.903-18.502,5.845
			c-4.543-2.958-10.956-5.845-18.686-5.845c-15.87,0-28.955,13.657-29.791,31.092c-0.485,10.161,3.019,17.371,5.696,21.91
			c6.139,10.405,30.083,26.464,37.275,31.137c1.657,1.077,3.553,1.615,5.449,1.615c1.896,0,3.79-0.538,5.446-1.613
			c7.169-4.655,31.039-20.661,37.211-31.147C301.368,391.822,304.869,384.607,304.383,374.464z M281.457,386.221
			c-2.191,3.724-13.98,13.032-25.422,20.88c-11.492-7.878-23.322-17.199-25.498-20.888c-2.274-3.854-3.127-6.982-2.945-10.792
			c0.313-6.53,4.807-12.048,9.813-12.048c6.113,0,11.12,5.315,11.121,5.315c1.844,2.16,4.426,3.387,7.266,3.457
			c2.863,0.052,5.482-1.119,7.43-3.186c1.514-1.554,6.507-5.586,11.371-5.586c5.007,0,9.501,5.517,9.813,12.047
			C284.589,379.225,283.734,382.354,281.457,386.221z"/>
	</g>
</g>
<g>
	<g>
		<path d="M420.241,374.464c-0.834-17.434-13.92-31.091-29.789-31.091c-7.494,0-13.918,2.903-18.502,5.845
			c-4.543-2.958-10.957-5.845-18.686-5.845c-15.87,0-28.956,13.657-29.79,31.092c-0.486,10.16,3.018,17.37,5.695,21.909
			c6.138,10.406,30.082,26.465,37.274,31.138c1.657,1.077,3.553,1.615,5.449,1.615c1.895,0,3.79-0.538,5.446-1.613
			c7.169-4.655,31.039-20.661,37.211-31.147C417.226,391.822,420.727,384.606,420.241,374.464z M397.316,386.221
			c-2.191,3.724-13.979,13.032-25.422,20.88c-11.491-7.878-23.322-17.199-25.497-20.888c-2.274-3.854-3.127-6.982-2.945-10.792
			c0.313-6.531,4.807-12.048,9.813-12.048c6.112,0,11.12,5.315,11.121,5.315c1.844,2.16,4.453,3.358,7.293,3.429
			c2.864,0.075,5.509-1.146,7.457-3.214c0.052-0.055,5.571-5.529,11.316-5.529c5.007,0,9.501,5.518,9.814,12.047
			C400.448,379.224,399.594,382.353,397.316,386.221z"/>
	</g>
</g>
<g>
	<g>
		<path d="M501.994,450.229h-49.905v-116.61c7.662-5.474,12.671-14.434,12.671-24.548V204.139c0-16.63-13.529-30.159-30.16-30.159
			h-31.7V84.984c7.642-7.67,12.373-18.242,12.373-29.899c0-21.459-29.949-47.7-35.953-52.742c-3.719-3.125-9.145-3.123-12.863,0
			c-6.004,5.042-35.954,31.283-35.954,52.742c0,11.657,4.731,22.228,12.373,29.899v48.441c-7.151-4.793-15.744-7.594-24.98-7.594
			c-7.993,0-15.674,2.106-22.399,5.976c-7.641-13.972-22.479-23.47-39.496-23.47c-17.016,0-31.854,9.498-39.496,23.47
			c-6.725-3.87-14.406-5.976-22.399-5.976c-9.235,0-17.827,2.801-24.978,7.593v-48.44c7.642-7.67,12.373-18.242,12.373-29.899
			c0-21.459-29.95-47.7-35.954-52.742c-3.719-3.123-9.144-3.123-12.862,0C126.68,7.385,96.73,33.626,96.73,55.085
			c0,11.657,4.731,22.228,12.373,29.899v88.996H77.401c-16.63,0-30.16,13.529-30.16,30.159v104.932
			c0,10.114,5.009,19.074,12.671,24.548v116.61H10.006c-5.523,0-10,4.478-10,10V502c0,5.522,4.477,10,10,10h491.988
			c5.522,0,10-4.478,10-10v-41.772C511.994,454.706,507.517,450.229,501.994,450.229z M372.873,23.438
			c10.84,10.381,22.399,24.476,22.399,31.648c0,7.194-3.415,13.602-8.704,17.7c-0.419,0.324-0.846,0.634-1.281,0.926
			c-0.107,0.071-0.216,0.138-0.324,0.208c-0.367,0.237-0.741,0.462-1.119,0.676c-0.177,0.1-0.354,0.197-0.534,0.293
			c-0.339,0.18-0.684,0.349-1.031,0.51c-0.203,0.094-0.405,0.188-0.611,0.276c-0.391,0.168-0.786,0.323-1.185,0.467
			c-0.221,0.08-0.446,0.154-0.67,0.227c-0.324,0.105-0.651,0.204-0.98,0.294c-0.258,0.071-0.518,0.137-0.78,0.2
			c-0.366,0.086-0.733,0.165-1.104,0.232c-0.171,0.031-0.34,0.064-0.512,0.092c-0.496,0.079-0.996,0.142-1.5,0.187
			c-0.129,0.012-0.26,0.02-0.39,0.03c-0.55,0.04-1.102,0.068-1.659,0.068s-1.11-0.028-1.66-0.068c-0.13-0.009-0.261-0.018-0.39-0.03
			c-0.504-0.045-1.005-0.108-1.501-0.187c-0.172-0.027-0.341-0.06-0.512-0.092c-0.371-0.068-0.739-0.146-1.105-0.232
			c-0.261-0.062-0.52-0.128-0.778-0.199c-0.33-0.091-0.657-0.189-0.982-0.295c-0.224-0.073-0.448-0.147-0.669-0.227
			c-0.399-0.144-0.794-0.3-1.184-0.467c-0.207-0.088-0.41-0.183-0.613-0.277c-0.345-0.161-0.687-0.328-1.025-0.507
			c-0.182-0.096-0.363-0.196-0.543-0.297c-0.376-0.213-0.747-0.436-1.112-0.672c-0.11-0.071-0.221-0.139-0.329-0.211
			c-0.434-0.291-0.859-0.6-1.277-0.923c-5.291-4.098-8.707-10.507-8.707-17.702C350.502,48.206,361.194,34.544,372.873,23.438z
			 M362.875,170.622V96.29c0.365,0.088,0.738,0.153,1.106,0.231c0.218,0.047,0.435,0.093,0.654,0.137
			c0.446,0.087,0.893,0.168,1.343,0.24c0.408,0.067,0.818,0.125,1.23,0.181c0.306,0.04,0.611,0.083,0.918,0.117
			c0.677,0.076,1.359,0.135,2.045,0.178c0.074,0.005,0.147,0.013,0.221,0.017c0.826,0.048,1.658,0.08,2.496,0.08
			s1.669-0.031,2.496-0.08c0.075-0.004,0.15-0.012,0.225-0.017c0.685-0.044,1.365-0.102,2.04-0.178
			c0.308-0.034,0.614-0.077,0.92-0.117c0.411-0.055,0.821-0.113,1.228-0.181c0.45-0.072,0.896-0.153,1.342-0.24
			c0.22-0.044,0.439-0.091,0.658-0.138c0.367-0.078,0.738-0.143,1.102-0.23v77.689h-20.024v-2.96c0-0.068,0.005-0.136,0.005-0.204
			C362.88,170.75,362.875,170.687,362.875,170.622z M296.01,173.857c0.241-0.469,0.46-0.949,0.684-1.427
			c0.171-0.364,0.347-0.725,0.508-1.093c0.222-0.507,0.424-1.021,0.627-1.536c0.138-0.351,0.279-0.701,0.408-1.055
			c0.192-0.525,0.369-1.056,0.542-1.59c0.116-0.36,0.231-0.721,0.338-1.083c0.156-0.528,0.303-1.058,0.44-1.592
			c0.1-0.389,0.192-0.78,0.282-1.172c0.117-0.513,0.23-1.026,0.329-1.544c0.086-0.445,0.157-0.892,0.229-1.34
			c0.076-0.473,0.155-0.945,0.215-1.421c0.071-0.553,0.12-1.109,0.17-1.665c0.034-0.383,0.08-0.763,0.104-1.148
			c0.062-0.953,0.097-1.91,0.097-2.869c0.002-0.293-0.001-0.588-0.008-0.885c4.587-4.234,10.582-6.605,16.92-6.605
			c13.713,0,24.876,11.103,24.98,24.791v0.348c-0.006,1.011-0.068,2.016-0.194,3.008h-46.729
			C295.973,173.939,295.99,173.897,296.01,173.857z M231.064,151.763c0.001-0.016,0.003-0.032,0.004-0.048
			c0.036-0.527,0.088-1.065,0.158-1.61c0.001-0.009,0.001-0.018,0.002-0.027c1.601-12.248,12.095-21.741,24.772-21.741
			c12.675,0,23.168,9.49,24.766,21.737c0.001,0.01,0.001,0.019,0.002,0.029c0.07,0.548,0.121,1.075,0.157,1.592
			c0.002,0.028,0.005,0.056,0.006,0.084c0.034,0.524,0.052,1.036,0.052,1.543c0,0.629-0.033,1.252-0.078,1.872
			c-0.018,0.236-0.041,0.47-0.066,0.704c-0.037,0.365-0.085,0.727-0.138,1.089c-0.044,0.297-0.084,0.595-0.139,0.889
			c-0.033,0.183-0.079,0.363-0.117,0.544c-0.155,0.741-0.339,1.473-0.559,2.192c-0.038,0.124-0.074,0.249-0.114,0.372
			c-0.135,0.417-0.279,0.831-0.435,1.24c-0.033,0.086-0.069,0.17-0.103,0.255c-0.289,0.733-0.616,1.449-0.972,2.149
			c-0.083,0.161-0.159,0.325-0.246,0.485c-0.155,0.288-0.321,0.571-0.487,0.853c-0.179,0.303-0.364,0.603-0.557,0.9
			c-0.126,0.195-0.25,0.392-0.381,0.584c-0.35,0.508-0.718,1.007-1.109,1.494c-1.537,1.917-3.359,3.621-5.434,5.034h-28.105
			c-2.074-1.413-3.897-3.117-5.434-5.034c-0.39-0.486-0.757-0.985-1.107-1.492c-0.133-0.194-0.258-0.393-0.386-0.591
			c-0.191-0.293-0.374-0.591-0.551-0.891c-0.167-0.284-0.334-0.569-0.49-0.86c-0.083-0.154-0.156-0.311-0.236-0.466
			c-0.361-0.71-0.693-1.435-0.985-2.177c-0.031-0.08-0.066-0.159-0.096-0.239c-0.157-0.411-0.302-0.827-0.438-1.247
			c-0.039-0.12-0.074-0.241-0.111-0.362c-0.223-0.728-0.409-1.468-0.565-2.217c-0.036-0.175-0.08-0.349-0.113-0.526
			c-0.055-0.295-0.095-0.595-0.139-0.893c-0.052-0.36-0.1-0.721-0.137-1.085c-0.024-0.235-0.048-0.471-0.066-0.707
			c-0.045-0.62-0.078-1.242-0.078-1.871C231.011,152.815,231.029,152.294,231.064,151.763z M169.127,170.543
			c0.146-13.65,11.292-24.712,24.978-24.712c6.338,0,12.333,2.371,16.92,6.605c-0.006,0.297-0.009,0.592-0.009,0.885
			c0,0.959,0.036,1.915,0.097,2.869c0.024,0.385,0.07,0.765,0.104,1.148c0.05,0.556,0.099,1.112,0.17,1.665
			c0.061,0.477,0.14,0.948,0.215,1.421c0.072,0.448,0.143,0.895,0.229,1.34c0.099,0.518,0.212,1.03,0.329,1.542
			c0.09,0.393,0.182,0.785,0.283,1.175c0.137,0.533,0.283,1.061,0.438,1.587c0.108,0.365,0.223,0.728,0.341,1.091
			c0.172,0.531,0.348,1.059,0.539,1.581c0.131,0.359,0.273,0.714,0.413,1.069c0.201,0.51,0.402,1.019,0.621,1.521
			c0.166,0.379,0.347,0.751,0.523,1.126c0.219,0.466,0.432,0.934,0.667,1.392c0.022,0.042,0.04,0.087,0.062,0.129h-46.728
			c-0.123-0.972-0.183-1.956-0.192-2.946V170.543z M139.101,23.438c10.84,10.381,22.4,24.476,22.4,31.648
			c0,7.196-3.417,13.606-8.71,17.704c-0.415,0.322-0.839,0.629-1.271,0.919c-0.112,0.075-0.227,0.146-0.341,0.218
			c-0.359,0.232-0.724,0.451-1.094,0.66c-0.188,0.106-0.378,0.211-0.57,0.312c-0.33,0.175-0.664,0.339-1.001,0.496
			c-0.207,0.096-0.413,0.192-0.623,0.282c-0.388,0.166-0.78,0.32-1.176,0.464c-0.224,0.081-0.451,0.156-0.678,0.23
			c-0.321,0.104-0.644,0.201-0.97,0.291c-0.261,0.072-0.524,0.139-0.789,0.202c-0.363,0.086-0.729,0.164-1.098,0.231
			c-0.172,0.032-0.343,0.065-0.517,0.093c-0.496,0.078-0.995,0.141-1.499,0.186c-0.13,0.012-0.26,0.02-0.391,0.03
			c-0.55,0.04-1.102,0.068-1.66,0.068c-0.557,0-1.11-0.028-1.66-0.068c-0.13-0.009-0.261-0.018-0.39-0.03
			c-0.504-0.045-1.004-0.108-1.501-0.187c-0.172-0.027-0.342-0.06-0.512-0.092c-0.37-0.068-0.738-0.146-1.104-0.232
			c-0.262-0.062-0.523-0.129-0.781-0.2c-0.329-0.09-0.655-0.188-0.978-0.293c-0.225-0.074-0.449-0.147-0.671-0.228
			c-0.399-0.144-0.793-0.3-1.183-0.467c-0.207-0.088-0.41-0.183-0.613-0.278c-0.346-0.161-0.689-0.329-1.027-0.508
			c-0.181-0.096-0.359-0.194-0.537-0.294c-0.378-0.214-0.752-0.439-1.12-0.676c-0.107-0.069-0.216-0.136-0.323-0.207
			c-0.437-0.293-0.865-0.604-1.286-0.93c-5.287-4.098-8.7-10.505-8.7-17.697C116.73,48.206,127.423,34.544,139.101,23.438z
			 M149.128,171.101v2.878h-20.024V96.29c0.365,0.088,0.738,0.153,1.107,0.231c0.217,0.047,0.434,0.093,0.652,0.136
			c0.447,0.087,0.895,0.168,1.346,0.241c0.406,0.067,0.815,0.124,1.225,0.18c0.307,0.041,0.614,0.084,0.922,0.118
			c0.675,0.076,1.356,0.134,2.04,0.178c0.075,0.005,0.15,0.013,0.225,0.017c0.826,0.048,1.657,0.08,2.495,0.08
			c0.838,0,1.669-0.031,2.496-0.08c0.075-0.004,0.15-0.012,0.225-0.017c0.684-0.044,1.365-0.102,2.04-0.178
			c0.309-0.034,0.615-0.077,0.923-0.118c0.41-0.055,0.818-0.113,1.224-0.18c0.451-0.073,0.899-0.154,1.346-0.241
			c0.218-0.043,0.435-0.09,0.652-0.136c0.369-0.078,0.742-0.143,1.107-0.231v74.255c-0.001,0.09-0.007,0.179-0.007,0.269
			C149.121,170.91,149.127,171.005,149.128,171.101z M67.24,231.416h289.582c5.522,0,10-4.477,10-10c0-5.522-4.478-10-10-10H67.241
			v-7.276c0-5.603,4.557-10.16,10.16-10.16H434.6c5.603,0,10.16,4.558,10.16,10.159v104.932c0,4.247-2.621,7.888-6.328,9.404
			c-0.021,0.008-0.042,0.012-0.063,0.021c-0.604,0.242-1.22,0.424-1.845,0.547c-0.068,0.013-0.138,0.02-0.207,0.032
			c-0.244,0.043-0.489,0.083-0.735,0.107c-0.324,0.031-0.652,0.05-0.984,0.05h-1.57c-1.196,0-2.26-0.712-2.693-1.747
			c-0.062-0.148-0.111-0.302-0.146-0.462c-5.679-26.228-29.302-45.264-56.171-45.264c-26.869,0-50.492,19.036-56.171,45.265
			c-0.277,1.279-1.471,2.208-2.839,2.208s-2.562-0.929-2.839-2.209c-5.679-26.228-29.302-45.264-56.171-45.264
			c-26.869,0-50.492,19.036-56.171,45.264c-0.277,1.28-1.471,2.209-2.839,2.209c-1.368,0-2.562-0.929-2.839-2.209
			c-5.679-26.228-29.302-45.264-56.171-45.264c-26.869,0-50.493,19.036-56.17,45.264c-0.277,1.28-1.471,2.209-2.839,2.209h-1.57
			c-0.332,0-0.66-0.019-0.983-0.05c-0.247-0.024-0.493-0.065-0.738-0.108c-0.067-0.012-0.136-0.018-0.203-0.031
			c-0.624-0.123-1.241-0.305-1.844-0.547c-0.025-0.01-0.051-0.015-0.075-0.025c-3.701-1.519-6.316-5.158-6.316-9.4V231.416z
			 M432.089,339.21v111.018H79.912V339.211c0.183-0.008,0.362-0.034,0.543-0.046c0.312-0.02,0.623-0.045,0.932-0.078
			c0.336-0.036,0.67-0.081,1.002-0.132c0.307-0.047,0.612-0.096,0.915-0.156c0.328-0.064,0.651-0.138,0.975-0.215
			c0.3-0.072,0.598-0.146,0.894-0.229c0.319-0.091,0.633-0.192,0.947-0.296c0.29-0.096,0.58-0.193,0.865-0.3
			c0.308-0.116,0.611-0.243,0.913-0.372c0.28-0.119,0.56-0.238,0.835-0.368c0.296-0.14,0.585-0.292,0.874-0.445
			c0.269-0.141,0.538-0.281,0.8-0.433c0.284-0.164,0.558-0.34,0.834-0.515c0.255-0.162,0.511-0.322,0.759-0.493
			c0.27-0.187,0.53-0.386,0.791-0.583c0.239-0.181,0.481-0.359,0.713-0.549c0.255-0.209,0.499-0.431,0.745-0.651
			c0.222-0.198,0.448-0.393,0.662-0.6c0.239-0.231,0.465-0.475,0.695-0.715c0.204-0.214,0.412-0.424,0.607-0.646
			c0.222-0.253,0.43-0.518,0.641-0.781c0.183-0.228,0.372-0.45,0.547-0.685c0.205-0.276,0.393-0.564,0.586-0.85
			c0.161-0.238,0.329-0.47,0.481-0.714c0.187-0.301,0.355-0.615,0.529-0.926c0.136-0.243,0.281-0.48,0.408-0.729
			c0.171-0.335,0.32-0.684,0.475-1.029c0.107-0.238,0.225-0.469,0.323-0.711c0.159-0.39,0.293-0.794,0.431-1.195
			c0.072-0.209,0.156-0.412,0.222-0.624c0.192-0.619,0.359-1.249,0.498-1.89c3.7-17.092,19.103-29.496,36.624-29.496
			s32.923,12.405,36.624,29.496c2.255,10.416,11.67,17.977,22.386,17.977s20.131-7.561,22.386-17.977
			c3.701-17.091,19.103-29.496,36.624-29.496c17.52,0,32.924,12.405,36.624,29.495c2.254,10.417,11.669,17.978,22.386,17.978
			s20.132-7.561,22.386-17.977c3.7-17.091,19.103-29.496,36.624-29.496s32.924,12.405,36.624,29.497
			c0.139,0.641,0.306,1.271,0.498,1.89c0.068,0.219,0.155,0.429,0.23,0.645c0.136,0.394,0.267,0.79,0.423,1.174
			c0.102,0.249,0.222,0.487,0.332,0.731c0.152,0.338,0.298,0.68,0.467,1.009c0.129,0.252,0.275,0.492,0.413,0.739
			c0.172,0.308,0.338,0.619,0.524,0.917c0.152,0.245,0.321,0.477,0.482,0.716c0.193,0.285,0.38,0.573,0.586,0.849
			c0.174,0.234,0.362,0.456,0.545,0.682c0.212,0.264,0.421,0.53,0.644,0.784c0.194,0.22,0.4,0.428,0.602,0.64
			c0.231,0.243,0.46,0.489,0.701,0.722c0.212,0.204,0.434,0.396,0.653,0.591c0.249,0.223,0.497,0.448,0.755,0.659
			c0.228,0.187,0.466,0.361,0.701,0.539c0.266,0.201,0.53,0.404,0.805,0.594c0.243,0.168,0.494,0.324,0.744,0.483
			c0.281,0.179,0.561,0.358,0.85,0.525c0.257,0.149,0.521,0.286,0.785,0.424c0.294,0.155,0.588,0.31,0.89,0.452
			c0.27,0.128,0.546,0.245,0.822,0.362c0.306,0.131,0.613,0.26,0.926,0.377c0.282,0.106,0.567,0.201,0.854,0.296
			c0.317,0.105,0.635,0.208,0.958,0.299c0.292,0.083,0.587,0.156,0.883,0.227c0.326,0.079,0.653,0.153,0.984,0.217
			c0.301,0.059,0.604,0.108,0.909,0.154c0.334,0.051,0.668,0.096,1.006,0.133c0.309,0.033,0.619,0.058,0.931,0.078
			C431.727,339.176,431.906,339.202,432.089,339.21z M491.994,492H20.006v-21.772h49.906h372.177h49.905V492z"/>
	</g>
</g>
<g>
	<g>
		<path d="M403.959,219.46c-0.13-0.641-0.32-1.27-0.57-1.87c-0.25-0.6-0.56-1.18-0.92-1.73c-0.36-0.54-0.78-1.05-1.24-1.52
			c-2.33-2.32-5.779-3.38-9.029-2.73c-0.641,0.131-1.27,0.32-1.87,0.57c-0.601,0.25-1.181,0.561-1.73,0.92
			c-0.54,0.36-1.05,0.78-1.52,1.24c-0.46,0.47-0.88,0.979-1.24,1.52c-0.36,0.551-0.67,1.131-0.92,1.73
			c-0.25,0.6-0.44,1.229-0.57,1.87c-0.13,0.649-0.2,1.3-0.2,1.96c0,0.649,0.07,1.31,0.2,1.95c0.13,0.64,0.32,1.27,0.57,1.87
			c0.25,0.6,0.56,1.18,0.92,1.73c0.36,0.54,0.78,1.05,1.24,1.52c0.47,0.46,0.979,0.869,1.52,1.239c0.55,0.36,1.13,0.67,1.73,0.92
			c0.6,0.25,1.229,0.44,1.87,0.57c0.649,0.13,1.3,0.19,1.949,0.19c0.66,0,1.311-0.061,1.96-0.19c0.641-0.13,1.271-0.32,1.87-0.57
			c0.601-0.25,1.181-0.56,1.73-0.92c0.54-0.37,1.06-0.779,1.52-1.239c0.46-0.471,0.87-0.98,1.24-1.52c0.36-0.55,0.67-1.13,0.92-1.73
			c0.25-0.601,0.44-1.23,0.57-1.87c0.13-0.641,0.189-1.301,0.189-1.95C404.148,220.76,404.088,220.109,403.959,219.46z"/>
	</g>
</g>
<g>
</g>
<g>
</g>
<g>
</g>
<g>
</g>
<g>
</g>
<g>
</g>
<g>
</g>
<g>
</g>
<g>
</g>
<g>
</g>
<g>
</g>
<g>
</g>
<g>
</g>
<g>
</g>
<g>
</g>
</svg>
