<?xml version="1.0" encoding="iso-8859-1"?>
<!-- Generator: Adobe Illustrator 19.0.0, SVG Export Plug-In . SVG Version: 6.00 Build 0)  -->
<svg version="1.1" id="Capa_1" xmlns="http://www.w3.org/2000/svg" xmlns:xlink="http://www.w3.org/1999/xlink" x="0px" y="0px"
	 viewBox="0 0 512 512" style="enable-background:new 0 0 512 512;" xml:space="preserve">
<g>
	<g>
		<path d="M234.27,338.969c-0.13-0.64-0.319-1.27-0.569-1.87c-0.25-0.6-0.561-1.19-0.92-1.73c-0.37-0.55-0.78-1.06-1.24-1.52
			c-0.471-0.46-0.98-0.88-1.521-1.24c-0.55-0.36-1.13-0.67-1.729-0.92c-0.601-0.25-1.23-0.44-1.87-0.57c-1.29-0.26-2.62-0.26-3.91,0
			c-0.64,0.13-1.27,0.32-1.87,0.57c-0.6,0.25-1.18,0.56-1.729,0.92c-0.54,0.36-1.061,0.78-1.521,1.24
			c-0.46,0.461-0.88,0.97-1.24,1.52c-0.359,0.54-0.67,1.13-0.92,1.73c-0.25,0.6-0.439,1.23-0.569,1.87c-0.13,0.64-0.2,1.3-0.2,1.95
			c0,0.66,0.07,1.31,0.2,1.96c0.129,0.64,0.319,1.26,0.569,1.87c0.25,0.6,0.561,1.18,0.92,1.72c0.36,0.55,0.78,1.06,1.24,1.52
			c0.46,0.47,0.98,0.88,1.521,1.25c0.55,0.36,1.13,0.67,1.729,0.92c0.601,0.25,1.23,0.44,1.87,0.57c0.65,0.13,1.3,0.19,1.96,0.19
			c0.65,0,1.3-0.06,1.95-0.19c0.64-0.13,1.27-0.32,1.87-0.57c0.6-0.25,1.18-0.56,1.729-0.92c0.54-0.37,1.05-0.78,1.521-1.25
			c0.46-0.46,0.87-0.97,1.24-1.52c0.359-0.54,0.67-1.12,0.92-1.72c0.25-0.61,0.439-1.23,0.569-1.87c0.13-0.65,0.2-1.3,0.2-1.96
			C234.47,340.269,234.4,339.609,234.27,338.969z"/>
	</g>
</g>
<g>
	<g>
		<path d="M125.049,242.339c-0.46-0.46-0.97-0.88-1.52-1.24c-0.54-0.36-1.12-0.67-1.73-0.92c-0.6-0.25-1.23-0.44-1.87-0.57
			c-1.29-0.26-2.62-0.26-3.91,0c-0.63,0.13-1.26,0.32-1.87,0.57c-0.6,0.25-1.18,0.56-1.72,0.92c-0.55,0.36-1.06,0.78-1.519,1.24
			c-0.46,0.46-0.88,0.98-1.25,1.52c-0.36,0.54-0.67,1.13-0.92,1.73c-0.25,0.6-0.44,1.23-0.57,1.87c-0.13,0.65-0.19,1.3-0.19,1.96
			c0,0.65,0.061,1.3,0.19,1.95c0.131,0.64,0.321,1.27,0.571,1.87c0.25,0.6,0.56,1.18,0.92,1.72c0.37,0.55,0.79,1.06,1.25,1.52
			c0.46,0.47,0.97,0.88,1.519,1.25c0.54,0.36,1.12,0.67,1.72,0.92c0.61,0.25,1.24,0.44,1.87,0.57c0.65,0.13,1.311,0.19,1.96,0.19
			c0.65,0,1.311-0.06,1.95-0.19c0.64-0.13,1.271-0.32,1.87-0.57c0.61-0.25,1.19-0.56,1.73-0.92c0.55-0.37,1.06-0.78,1.52-1.25
			c0.46-0.46,0.88-0.97,1.24-1.52c0.359-0.54,0.67-1.12,0.92-1.72c0.25-0.6,0.439-1.23,0.57-1.87c0.13-0.65,0.199-1.3,0.199-1.95
			C127.979,246.779,126.91,244.199,125.049,242.339z"/>
	</g>
</g>
<g>
	<g>
		<path d="M125.049,424.209c-0.46-0.46-0.97-0.88-1.52-1.25c-0.54-0.36-1.12-0.67-1.73-0.92c-0.6-0.25-1.23-0.44-1.87-0.57
			c-1.29-0.26-2.62-0.26-3.91,0c-0.63,0.13-1.26,0.32-1.87,0.57c-0.6,0.25-1.18,0.56-1.72,0.92c-0.55,0.37-1.06,0.79-1.519,1.25
			c-0.46,0.46-0.88,0.97-1.25,1.52c-0.36,0.54-0.67,1.12-0.92,1.72c-0.25,0.61-0.44,1.24-0.57,1.87c-0.13,0.65-0.19,1.31-0.19,1.96
			c0,0.65,0.061,1.31,0.19,1.95c0.131,0.64,0.321,1.27,0.571,1.87c0.25,0.61,0.56,1.19,0.92,1.73c0.37,0.55,0.79,1.06,1.25,1.52
			c0.46,0.461,0.97,0.88,1.519,1.24c0.54,0.36,1.12,0.67,1.72,0.92c0.61,0.25,1.24,0.44,1.87,0.57c0.65,0.13,1.311,0.2,1.96,0.2
			c0.65,0,1.311-0.07,1.95-0.2c0.64-0.13,1.271-0.32,1.87-0.57c0.61-0.25,1.19-0.56,1.73-0.92c0.55-0.36,1.06-0.78,1.52-1.24
			c0.46-0.46,0.88-0.97,1.24-1.52c0.359-0.54,0.67-1.12,0.92-1.73c0.25-0.6,0.439-1.23,0.57-1.87c0.13-0.64,0.199-1.3,0.199-1.95
			C127.979,428.649,126.91,426.069,125.049,424.209z"/>
	</g>
</g>
<g>
	<g>
		<path d="M426.892,169.846h-41.168v-56.401c6.595-6.825,10.665-16.104,10.665-26.322c0-19.108-26.226-42.102-31.482-46.517
			c-3.719-3.123-9.145-3.123-12.863,0c-5.257,4.415-31.481,27.409-31.481,46.517c0,10.217,4.07,19.497,10.664,26.321v56.402h-47.976
			V75.182c6.595-6.825,10.665-16.104,10.665-26.322c0-19.109-26.226-42.103-31.482-46.518c-3.719-3.123-9.145-3.123-12.863,0
			c-5.257,4.415-31.482,27.409-31.482,46.518c0,10.218,4.07,19.497,10.665,26.322v94.665h-47.976v-56.403
			c6.594-6.825,10.664-16.104,10.664-26.321c0-19.108-26.225-42.102-31.481-46.517c-3.719-3.123-9.145-3.123-12.863,0
			c-5.257,4.415-31.482,27.409-31.482,46.517c0,10.218,4.07,19.497,10.665,26.322v56.402H85.109
			c-19.951,0-36.183,16.231-36.183,36.183v269.786c0,19.951,16.231,36.183,36.183,36.183h170.873c0.007,0,0.013,0.001,0.019,0.001
			h170.89c19.952,0,36.184-16.232,36.184-36.184v-45.138V289.29v-83.261C463.075,186.077,446.844,169.846,426.892,169.846z
			 M358.471,61.754c9.39,9.147,17.918,20.2,17.918,25.368c0,6.053-3.026,11.405-7.636,14.649c-0.11,0.078-0.217,0.162-0.328,0.237
			c-0.926,0.621-1.911,1.158-2.948,1.6c-0.05,0.021-0.101,0.039-0.151,0.06c-0.459,0.191-0.927,0.362-1.404,0.515
			c-0.108,0.034-0.217,0.065-0.325,0.097c-0.422,0.126-0.851,0.236-1.285,0.331c-0.14,0.031-0.28,0.061-0.421,0.089
			c-0.418,0.081-0.843,0.143-1.271,0.195c-0.146,0.017-0.291,0.041-0.438,0.054c-0.562,0.053-1.131,0.086-1.707,0.086
			s-1.144-0.033-1.706-0.086c-0.147-0.014-0.293-0.037-0.44-0.055c-0.427-0.051-0.85-0.113-1.267-0.194
			c-0.143-0.027-0.284-0.059-0.426-0.09c-0.432-0.095-0.858-0.204-1.278-0.329c-0.111-0.033-0.222-0.064-0.333-0.1
			c-0.473-0.152-0.938-0.322-1.393-0.511c-0.054-0.022-0.109-0.041-0.162-0.064c-1.034-0.441-2.018-0.978-2.942-1.597
			c-0.117-0.079-0.229-0.167-0.344-0.249c-4.602-3.245-7.622-8.592-7.622-14.639C340.562,81.887,348.977,70.971,358.471,61.754z
			 M351.228,124.351c0.477,0.092,0.96,0.168,1.442,0.242c0.017,0.003,0.033,0.006,0.05,0.008c0.502,0.075,1.008,0.137,1.515,0.193
			c0.151,0.017,0.301,0.038,0.453,0.053c0.345,0.034,0.693,0.055,1.04,0.079c0.302,0.022,0.603,0.049,0.908,0.064
			c0.065,0.003,0.129,0.002,0.194,0.005c0.546,0.024,1.094,0.042,1.646,0.042s1.1-0.018,1.647-0.042
			c0.064-0.003,0.129-0.002,0.193-0.005c0.305-0.015,0.606-0.042,0.909-0.064c0.346-0.024,0.693-0.046,1.038-0.079
			c0.153-0.015,0.304-0.037,0.456-0.054c0.506-0.055,1.01-0.117,1.511-0.193c0.018-0.003,0.036-0.006,0.055-0.009
			c0.482-0.073,0.964-0.149,1.441-0.241v45.496h-14.498V124.351z M153.527,61.751c9.497,9.22,17.913,20.136,17.913,25.371
			c0,6.046-3.02,11.392-7.621,14.638c-0.116,0.082-0.229,0.171-0.346,0.25c-0.924,0.619-1.908,1.156-2.942,1.597
			c-0.053,0.023-0.108,0.042-0.162,0.064c-0.455,0.189-0.92,0.359-1.393,0.511c-0.11,0.035-0.222,0.067-0.333,0.1
			c-0.42,0.125-0.846,0.235-1.278,0.329c-0.142,0.031-0.284,0.062-0.426,0.09c-0.417,0.081-0.84,0.143-1.267,0.194
			c-0.147,0.017-0.292,0.041-0.44,0.055c-0.562,0.053-1.13,0.086-1.706,0.086s-1.144-0.033-1.707-0.086
			c-0.147-0.014-0.291-0.037-0.438-0.054c-0.428-0.051-0.853-0.113-1.271-0.195c-0.141-0.027-0.281-0.058-0.422-0.089
			c-0.434-0.095-0.863-0.205-1.285-0.331c-0.109-0.032-0.217-0.063-0.325-0.097c-0.477-0.153-0.945-0.324-1.404-0.515
			c-0.05-0.021-0.101-0.038-0.151-0.06c-1.036-0.442-2.022-0.98-2.948-1.6c-0.111-0.075-0.218-0.159-0.328-0.237
			c-4.61-3.244-7.636-8.596-7.636-14.649C135.613,81.886,144.031,70.968,153.527,61.751z M146.279,124.35
			c0.477,0.092,0.957,0.168,1.44,0.241c0.018,0.003,0.036,0.006,0.055,0.009c0.501,0.075,1.005,0.137,1.511,0.193
			c0.152,0.017,0.303,0.038,0.456,0.054c0.345,0.034,0.691,0.055,1.038,0.079c0.303,0.022,0.604,0.049,0.909,0.064
			c0.064,0.003,0.129,0.002,0.193,0.005c0.546,0.023,1.094,0.042,1.646,0.042s1.1-0.018,1.646-0.042
			c0.065-0.003,0.129-0.002,0.194-0.005c0.304-0.015,0.605-0.042,0.908-0.064c0.347-0.024,0.694-0.046,1.039-0.079
			c0.152-0.015,0.302-0.036,0.453-0.053c0.507-0.056,1.012-0.118,1.515-0.193c0.017-0.003,0.033-0.006,0.05-0.008
			c0.484-0.073,0.967-0.15,1.445-0.242v45.497h-14.498V124.35z M246.002,450.974H102.533c-2.69,0-4.879-2.188-4.879-4.878v-27.328
			c0-2.69,2.188-4.879,4.879-4.879h143.469v7.388h-94.229c-5.523,0-10,4.477-10,10s4.477,10,10,10h94.229V450.974z M190.672,330.922
			H97.654v-3.664c0-2.69,2.188-4.878,4.879-4.878h143.469v37.085H102.533c-2.69,0-4.879-2.189-4.879-4.878v-3.665h93.018
			c5.523,0,10-4.477,10-10S196.195,330.922,190.672,330.922z M246.002,267.955H102.533c-2.69,0-4.879-2.188-4.879-4.878v-27.328
			c0-2.69,2.188-4.878,4.879-4.878h143.469v8.542h-94.229c-5.523,0-10,4.477-10,10s4.477,10,10,10h94.229V267.955z M246.003,210.87
			h-143.47c-13.718,0-24.879,11.16-24.879,24.878v27.328c0,13.718,11.161,24.878,24.879,24.878h143.469v14.424H102.533
			c-13.718,0-24.879,11.16-24.879,24.878v27.328c0,13.718,11.161,24.878,24.879,24.878h143.469v14.424H102.533
			c-13.718,0-24.879,11.16-24.879,24.879v27.328c0,13.718,11.161,24.878,24.879,24.878h143.469v21.024H85.109
			c-8.922,0.003-16.182-7.256-16.182-16.18V206.029c0-8.923,7.26-16.183,16.183-16.183h51.169h34.498h75.226V210.87z
			 M263.248,169.846h-7.246h-7.25V86.087c0.478,0.092,0.962,0.168,1.446,0.242c0.016,0.002,0.031,0.005,0.047,0.008
			c0.504,0.076,1.011,0.138,1.519,0.194c0.15,0.017,0.298,0.038,0.448,0.053c0.347,0.034,0.696,0.055,1.044,0.08
			c0.301,0.022,0.601,0.049,0.904,0.063c0.066,0.003,0.131,0.002,0.197,0.005c0.545,0.023,1.092,0.042,1.643,0.042
			c0.551,0,1.098-0.018,1.643-0.042c0.066-0.003,0.131-0.002,0.197-0.005c0.303-0.015,0.603-0.042,0.904-0.063
			c0.348-0.025,0.697-0.046,1.044-0.08c0.15-0.015,0.298-0.036,0.448-0.053c0.509-0.056,1.016-0.118,1.519-0.194
			c0.016-0.002,0.031-0.006,0.047-0.008c0.484-0.074,0.968-0.15,1.446-0.242V169.846z M263.013,65.34
			c-0.062,0.027-0.126,0.049-0.189,0.075c-0.447,0.185-0.902,0.352-1.366,0.501c-0.115,0.037-0.232,0.07-0.348,0.104
			c-0.415,0.124-0.837,0.232-1.264,0.326c-0.145,0.032-0.29,0.064-0.435,0.092c-0.414,0.08-0.835,0.142-1.259,0.193
			c-0.149,0.018-0.296,0.041-0.446,0.055c-0.562,0.053-1.129,0.086-1.704,0.086c-0.575,0-1.143-0.033-1.704-0.086
			c-0.149-0.014-0.297-0.038-0.446-0.055c-0.424-0.051-0.844-0.112-1.259-0.193c-0.146-0.028-0.29-0.06-0.435-0.092
			c-0.427-0.094-0.849-0.202-1.264-0.326c-0.116-0.035-0.233-0.068-0.348-0.104c-0.464-0.149-0.919-0.316-1.366-0.501
			c-0.063-0.026-0.127-0.048-0.189-0.075c-1.03-0.44-2.01-0.974-2.931-1.591c-0.125-0.084-0.245-0.179-0.368-0.266
			c-4.591-3.247-7.603-8.586-7.603-14.624c-0.002-5.235,8.416-16.154,17.912-25.372c9.497,9.22,17.914,20.136,17.914,25.372
			c0,6.038-3.012,11.377-7.603,14.624c-0.123,0.088-0.243,0.182-0.368,0.266C265.023,64.366,264.043,64.9,263.013,65.34z
			 M426.891,491.999h-160.89v-31.025v-9.843c0-6.503,5.291-11.794,11.794-11.794c3.149,0,6.111,1.227,8.339,3.456
			c2.228,2.228,3.455,5.189,3.455,8.339v13.447c0,4.772,3.372,8.88,8.054,9.809c4.682,0.931,9.367-1.579,11.189-5.991
			c1.827-4.423,6.105-7.281,10.9-7.281c2.382,0,4.669,0.702,6.615,2.029c1.923,1.311,3.405,3.129,4.287,5.26
			c1.825,4.408,6.509,6.913,11.189,5.982c4.68-0.931,8.05-5.037,8.05-9.808v-13.447c0-6.503,5.287-11.794,11.795-11.794
			c6.499,0,11.786,5.291,11.786,11.794v13.447c0,4.771,3.37,8.878,8.05,9.808s9.364-1.574,11.19-5.982
			c1.833-4.428,6.113-7.289,10.902-7.289c2.383,0,4.677,0.704,6.623,2.028c1.916,1.307,3.396,3.126,4.28,5.261
			c1.825,4.408,6.509,6.913,11.19,5.982c4.68-0.931,8.05-5.037,8.05-9.808v-13.447c0-5.661,4.009-10.403,9.336-11.537v36.22h0
			C443.075,484.739,435.815,491.999,426.891,491.999z M266.002,421.611v-17.722v-34.424V312.38v-14.027
			c3.65,1.464,7.627,2.277,11.794,2.277c8.491,0,16.476-3.308,22.481-9.313c4.068-4.067,6.898-9.043,8.301-14.468
			c3.498,1.304,7.264,2.003,11.155,2.003c3.854,0,7.622-0.686,11.161-2.014c3.557,13.671,16.003,23.792,30.775,23.792
			c14.763,0,27.207-10.119,30.766-23.787c3.5,1.307,7.269,2.008,11.162,2.008c3.851,0,7.619-0.686,11.162-2.014
			c3.357,12.905,14.64,22.642,28.316,23.694v118.904c-13.676,1.051-24.958,10.788-28.316,23.693
			c-3.542-1.328-7.311-2.014-11.162-2.014c-3.894,0-7.662,0.702-11.162,2.008c-3.559-13.668-16.004-23.787-30.774-23.787
			c-14.765,0-27.211,10.121-30.767,23.792c-3.539-1.328-7.309-2.014-11.161-2.014c-3.892,0-7.657,0.7-11.155,2.003
			c-1.402-5.426-4.232-10.401-8.3-14.469c-6.006-6.005-13.99-9.313-22.482-9.313C273.63,419.334,269.652,420.148,266.002,421.611z
			 M443.075,280.373c-5.327-1.134-9.336-5.876-9.336-11.537v-13.447c0-4.771-3.37-8.877-8.05-9.808
			c-4.675-0.928-9.363,1.573-11.19,5.982c-0.884,2.134-2.363,3.953-4.271,5.254c-1.956,1.331-4.249,2.034-6.632,2.034
			c-4.789,0-9.069-2.861-10.902-7.288c-1.825-4.408-6.51-6.911-11.19-5.982c-4.68,0.931-8.05,5.037-8.05,9.808v13.447
			c0,6.503-5.287,11.794-11.795,11.794c-6.499,0-11.786-5.291-11.786-11.794v-13.447c0-4.771-3.37-8.877-8.05-9.808
			c-0.654-0.13-1.308-0.193-1.955-0.193c-3.978,0-7.664,2.383-9.234,6.175c-0.882,2.13-2.364,3.949-4.288,5.26
			c-1.945,1.327-4.232,2.029-6.614,2.029c-4.795,0-9.073-2.858-10.9-7.281c-1.822-4.412-6.514-6.922-11.189-5.991
			c-4.682,0.929-8.054,5.036-8.054,9.809v13.447c0,3.149-1.227,6.111-3.455,8.338c-2.229,2.229-5.19,3.456-8.339,3.456
			c-6.503,0-11.794-5.291-11.794-11.794v-47.965v-31.025h7.248h67.976h34.498h51.168c8.925,0,16.184,7.259,16.184,16.183V280.373z"
			/>
	</g>
</g>
<g>
</g>
<g>
</g>
<g>
</g>
<g>
</g>
<g>
</g>
<g>
</g>
<g>
</g>
<g>
</g>
<g>
</g>
<g>
</g>
<g>
</g>
<g>
</g>
<g>
</g>
<g>
</g>
<g>
</g>
</svg>
