<?xml version="1.0" encoding="iso-8859-1"?>
<!-- Generator: Adobe Illustrator 19.0.0, SVG Export Plug-In . SVG Version: 6.00 Build 0)  -->
<svg version="1.1" id="Capa_1" xmlns="http://www.w3.org/2000/svg" xmlns:xlink="http://www.w3.org/1999/xlink" x="0px" y="0px"
	 viewBox="0 0 512 512" style="enable-background:new 0 0 512 512;" xml:space="preserve">
<g>
	<g>
		<path d="M453.994,450.228h-33.917l-0.034-140.162c0.006-0.137,0.017-0.273,0.017-0.41v-14.524c0-0.002,0-0.005,0-0.008
			c-0.014-18.205-13.45-33.333-30.922-36.009c-1.224-0.189-2.469-0.315-3.73-0.378l-0.032-128.882
			c0.005-0.127,0.016-0.254,0.016-0.381v-11.255c0-0.003,0-0.006,0-0.009c-0.015-16.806-13.7-30.479-30.507-30.479h-0.019H287.55
			c9.559-7.41,18.852-15.62,22.6-21.987c3.356-5.703,7.749-14.747,7.144-27.402C316.264,16.842,300.253,0,280.846,0
			c-10.293,0-18.982,4.456-24.739,8.489C250.426,4.43,241.788,0,231.154,0c-19.409,0-35.419,16.842-36.448,38.344
			c-0.607,12.678,3.789,21.715,7.148,27.409c3.733,6.329,13.069,14.551,22.67,21.979h-67.41h-0.019
			c-16.821,0-30.507,13.681-30.507,30.497v140.508c-19.276,0.937-34.669,16.906-34.669,36.404v155.088H58.006
			c-5.523,0-10,4.477-10,10V502c0,5.523,4.477,10,10,10h395.988c5.522,0,10-4.477,10-10v-41.772
			C463.994,454.706,459.517,450.228,453.994,450.228z M219.08,55.59c-3.356-5.689-4.671-10.561-4.397-16.29
			c0.51-10.643,7.898-19.3,16.472-19.3c9.722,0,17.344,8.2,17.372,8.229c1.863,2.097,4.522,3.314,7.327,3.355
			c2.8,0.029,5.498-1.098,7.423-3.139c0.079-0.085,8.375-8.446,17.569-8.446c8.572,0,15.961,8.658,16.472,19.3
			c0.277,5.793-0.999,10.516-4.403,16.299c-3.715,6.312-22.234,20.284-36.867,30.148C241.359,75.852,222.774,61.853,219.08,55.59z
			 M146.607,118.229c0-5.788,4.713-10.497,10.507-10.497h197.753v-0.001c5.789,0,10.502,4.709,10.507,10.488l0.003,9.527
			c-5.071,12.882-17.536,21.431-31.507,21.431c-12.673,0-24.189-7.001-30.056-18.27c-1.722-3.308-5.141-5.383-8.87-5.383
			s-7.148,2.075-8.87,5.383c-5.865,11.269-17.381,18.269-30.055,18.269c-12.674,0-24.189-7.001-30.055-18.269
			c-1.722-3.308-5.141-5.383-8.87-5.383c-3.729,0-7.148,2.075-8.87,5.383c-5.866,11.269-17.383,18.27-30.056,18.27
			c-14.019,0-26.512-8.598-31.561-21.55V118.229z M146.589,211.65h142.296c5.522,0,10-4.477,10-10c0-5.523-4.478-10-10-10H146.589
			v-32.689c8.975,6.489,19.945,10.216,31.579,10.216c14.967,0,28.917-6.133,38.926-16.621
			c10.007,10.489,23.957,16.621,38.925,16.621c14.968,0,28.918-6.132,38.925-16.621c10.009,10.488,23.959,16.621,38.926,16.621
			c11.602,0,22.55-3.711,31.515-10.173l0.019,80.184c-8.976-6.488-19.945-10.216-31.571-10.216
			c-14.967,0-28.917,6.133-38.926,16.621c-10.008-10.488-23.957-16.621-38.925-16.621c-14.968,0-28.917,6.133-38.925,16.621
			c-10.009-10.488-23.959-16.621-38.926-16.621c-11.614,0-22.573,3.719-31.542,10.193V211.65z M357.592,258.691h-47.508
			c6.234-6.147,14.696-9.719,23.748-9.719C342.933,248.972,351.394,252.599,357.592,258.691z M279.73,258.691h-47.496
			c6.234-6.147,14.696-9.719,23.748-9.719C265.034,248.972,273.496,252.543,279.73,258.691z M201.879,258.691h-47.51
			c6.196-6.09,14.66-9.719,23.762-9.719C187.183,248.972,195.645,252.543,201.879,258.691z M111.941,295.144
			c0-9.07,7.385-16.449,16.461-16.449h8.188h0.019h238.759h0.045h8.189c1.128,0,2.229,0.115,3.294,0.332
			c7.481,1.539,13.133,8.179,13.144,16.104l0.003,12.83c-6.843,18.023-24.147,30.021-43.564,30.021
			c-17.44,0-33.287-9.632-41.357-25.137c-1.722-3.308-5.141-5.383-8.87-5.383c-3.73,0-7.149,2.075-8.87,5.383
			c-8.07,15.505-23.917,25.137-41.357,25.137c-17.441,0-33.288-9.632-41.358-25.137c-1.722-3.308-5.141-5.383-8.87-5.383
			c-3.729,0-7.148,2.075-8.87,5.383c-8.07,15.505-23.917,25.137-41.357,25.137c-19.478,0-36.815-12.061-43.629-30.175V295.144z
			 M111.919,341.695c11.838,10.262,27.206,16.287,43.649,16.287c19.578,0,37.747-8.485,50.227-22.856
			c12.481,14.372,30.65,22.856,50.229,22.856c19.579,0,37.747-8.485,50.228-22.856c12.481,14.372,30.649,22.856,50.227,22.856
			c16.402,0,31.742-6.002,43.572-16.224L400.06,380H191.884c-5.523,0-10,4.477-10,10s4.477,10,10,10h208.181l0.01,39.446
			c-12.037-10.197-27.543-16.105-43.625-16.105c-19.206,0-37.597,8.433-50.228,22.545c-12.625-14.112-31.017-22.545-50.232-22.545
			c-19.206,0-37.597,8.433-50.228,22.546c-12.624-14.112-31.012-22.546-50.223-22.546c-16.091,0-31.594,5.904-43.62,16.094V341.695z
			 M380.964,450.229h-49.013c7.302-4.419,15.781-6.888,24.499-6.888C365.174,443.341,373.659,445.81,380.964,450.229z
			 M280.496,450.229h-49.005c7.302-4.419,15.782-6.888,24.499-6.888C264.713,443.341,273.195,445.81,280.496,450.229z
			 M180.039,450.229h-49.025c7.302-4.419,15.792-6.888,24.526-6.888C164.26,443.341,172.739,445.81,180.039,450.229z M443.995,492
			L443.995,492H68.006v-21.772h33.914h5.061h97.1h3.36h97.1h3.359h97.12h5.061h33.914V492z"/>
	</g>
</g>
<g>
	<g>
		<path d="M333.29,194.58c-0.46-0.46-0.971-0.88-1.521-1.24c-0.54-0.36-1.12-0.67-1.729-0.92c-0.6-0.25-1.23-0.45-1.87-0.57
			c-1.29-0.27-2.62-0.27-3.91,0c-0.63,0.12-1.26,0.32-1.87,0.57c-0.6,0.25-1.18,0.56-1.72,0.92c-0.55,0.36-1.06,0.78-1.52,1.24
			c-1.869,1.86-2.93,4.44-2.93,7.07s1.061,5.21,2.93,7.07c0.459,0.46,0.97,0.88,1.52,1.24c0.54,0.36,1.12,0.67,1.72,0.92
			c0.61,0.25,1.24,0.45,1.87,0.57c0.65,0.13,1.31,0.2,1.96,0.2c0.65,0,1.311-0.07,1.95-0.2c0.64-0.12,1.27-0.32,1.87-0.57
			c0.609-0.25,1.189-0.56,1.729-0.92c0.55-0.36,1.061-0.78,1.521-1.24c1.859-1.86,2.93-4.43,2.93-7.07
			C336.22,199.02,335.15,196.44,333.29,194.58z"/>
	</g>
</g>
<g>
	<g>
		<path d="M164.349,388.05c-0.119-0.64-0.319-1.27-0.569-1.87c-0.25-0.61-0.561-1.19-0.921-1.73c-0.359-0.55-0.779-1.06-1.239-1.52
			c-0.46-0.46-0.971-0.88-1.521-1.24c-0.54-0.36-1.12-0.67-1.729-0.92c-0.601-0.25-1.23-0.45-1.87-0.58c-1.29-0.25-2.61-0.25-3.9,0
			c-0.64,0.13-1.27,0.33-1.87,0.58c-0.609,0.25-1.19,0.56-1.73,0.92c-0.55,0.36-1.061,0.78-1.52,1.24
			c-0.46,0.46-0.88,0.97-1.25,1.52c-0.359,0.54-0.67,1.12-0.92,1.73c-0.24,0.6-0.439,1.23-0.56,1.87c-0.13,0.64-0.2,1.3-0.2,1.95
			c0,0.65,0.07,1.31,0.2,1.95c0.12,0.64,0.319,1.27,0.56,1.87c0.25,0.61,0.561,1.19,0.92,1.73c0.37,0.55,0.79,1.06,1.25,1.52
			c0.46,0.46,0.971,0.88,1.52,1.24c0.54,0.37,1.12,0.67,1.73,0.92c0.601,0.25,1.23,0.45,1.87,0.58c0.641,0.13,1.3,0.19,1.95,0.19
			c0.65,0,1.31-0.06,1.95-0.19s1.27-0.33,1.87-0.58c0.609-0.25,1.189-0.55,1.729-0.92c0.55-0.36,1.061-0.78,1.521-1.24
			c0.46-0.46,0.88-0.97,1.239-1.52c0.36-0.54,0.671-1.12,0.921-1.73c0.25-0.6,0.449-1.23,0.569-1.87c0.13-0.64,0.2-1.3,0.2-1.95
			S164.479,388.69,164.349,388.05z"/>
	</g>
</g>
<g>
</g>
<g>
</g>
<g>
</g>
<g>
</g>
<g>
</g>
<g>
</g>
<g>
</g>
<g>
</g>
<g>
</g>
<g>
</g>
<g>
</g>
<g>
</g>
<g>
</g>
<g>
</g>
<g>
</g>
</svg>
